<svg xmlns="http://www.w3.org/2000/svg" viewBox="0 0 400 150"><defs><style>.a{fill:#fff;}.b{fill:#256643;}</style></defs><rect class="a" width="400" height="150" rx="10"/><path class="b" d="M69.19,57.05c-.12.05-.27-.19-.17-.26A24.9,24.9,0,0,0,76.7,49a18.44,18.44,0,0,0,1.68-3.65c3.39.91,3.41.93,3.41,1.22s-.19.34-1.06.58a16.32,16.32,0,0,0,11.14,7c.12,0,.12.31,0,.31-.77.07-1.3.67-1.66,2-.09.34-.21.46-.4.46a3.68,3.68,0,0,1-1.13-.48A22,22,0,0,1,85.27,54a20.62,20.62,0,0,1-4.85-6.44C78.12,51.84,74.44,54.91,69.19,57.05Zm10.44,2.18a27.91,27.91,0,0,1-3.79,5.33c3,0,6-.14,9-.31a9.88,9.88,0,0,0-2.36-3.09c-.09-.08,0-.29.15-.24,3.46,1.27,5.5,3,5.5,4.7a1.49,1.49,0,0,1-1.32,1.63c-.7,0-.84-.17-1.44-1.73-.1-.24-.17-.45-.27-.67a84.83,84.83,0,0,1-12.36,2c-.17.72-.29.91-.58.91s-.38,0-1.27-3.34a27.46,27.46,0,0,0,3.1.12h.89a28.15,28.15,0,0,0,1.58-5.33h-4.2a11.17,11.17,0,0,0-1.68.15l-.26-.89a10.37,10.37,0,0,0,1.94.19H86.47c1.15-1.44,1.44-1.63,1.61-1.63s.48.19,1.63,1.13c.53.43.72.65.72.81s-.07.24-.31.24Zm1.65-4.63c1.06-1.32,1.35-1.51,1.52-1.51s.45.19,1.49,1.06c.45.38.64.6.64.76s-.07.24-.31.24H76.34a8.08,8.08,0,0,0-1.42.15l-.26-.89a8.34,8.34,0,0,0,1.73.19Z"/><path class="b" d="M106.56,53.69c.62-.7.81-.84,1-.84s.41.14,1.28.89c.36.33.5.53.5.72s-.24.43-.79.57c-2.38,3.29-5.74,5.12-10.49,5.74-.12,0-.22-.29-.1-.33a18.49,18.49,0,0,0,5.43-2.77.64.64,0,0,1-.22,0c-.41,0-.57-.17-.77-.79a2.21,2.21,0,0,0-.79-1.25,21.27,21.27,0,0,1-3.45,1.73c-.12,0-.29-.24-.2-.32a16.83,16.83,0,0,0,4.18-4,5.6,5.6,0,0,0,.77-1.46h-2.33a11.81,11.81,0,0,0-1.63.14l-.27-.89a9.83,9.83,0,0,0,1.95.2h15c1.13-1.25,1.42-1.44,1.58-1.44s.48.19,1.54,1c.46.39.65.58.65.75s-.07.24-.31.24h-15.7c1.82.5,2.11.67,2.11.93s-.22.39-.86.44c-.22.26-.46.5-.68.74Zm6.38-5.33c0,.55,0,.94,0,1.11,0,.55-.41.79-1.3.79-.6,0-.86-.19-.86-.65,0-.17,0-.55,0-1.25h-4.2c0,.58,0,1,0,1.18,0,.5-.41.77-1.2.77s-1-.22-1-.7c0-.17,0-.55,0-1.25h-4.3a10.34,10.34,0,0,0-1.61.15l-.26-.89a10.25,10.25,0,0,0,1.92.19h4.25v-.6a12,12,0,0,0-.08-1.78c2.72.24,3,.32,3,.65s-.22.41-.79.58v1.15h4.2v-.38a16.87,16.87,0,0,0-.1-2c2.31.22,2.93.34,2.93.67s-.19.39-.72.6v1.13h3c1.2-1.37,1.49-1.56,1.66-1.56s.48.19,1.63,1.1c.5.41.69.6.69.77s-.07.24-.31.24Zm-6,13.76a5.32,5.32,0,0,1-1.7,3.38c-1.35,1.22-3.48,2-6.51,2.28-.12,0-.26-.31-.14-.36,3-1.06,4.3-1.85,5.35-3.5a4.93,4.93,0,0,0,.67-1.8h-4.22a10.43,10.43,0,0,0-1.63.14l-.27-.89a9.53,9.53,0,0,0,1.92.19h4.25a9.3,9.3,0,0,0,0-1c0-.43,0-.69,0-1.29,2.88.38,3.1.48,3.1.79s-.24.43-.77.65v.81h3.75c0-.6,0-1.17-.13-2.06,2.29.21,3,.38,3,.72s-.19.38-.67.58v.76H116c1.18-1.27,1.46-1.46,1.63-1.46s.51.19,1.59,1c.5.41.69.6.69.77s-.07.24-.31.24h-6.7c0,2.3.12,3.91.12,4.46s-.43,1-1.39,1c-.77,0-1-.26-1-.86,0-.44.08-1.78.08-4.44v-.12Zm-3.48-7.88c-.48.43-1,.84-1.51,1.23,1.56.12,2.21.52,2.21,1.27a1,1,0,0,1-.1.45,11.29,11.29,0,0,0,2.52-2.95Zm8.76.89a18.51,18.51,0,0,0,2.74-1.63,7.39,7.39,0,0,0,1.39-1.25c1.61,1.13,2.09,1.49,2.09,1.75s-.22.41-1.15.31a20.21,20.21,0,0,1-5.07,1.44v.92c0,.72.24.79,2.35.79,1.59,0,2.21,0,2.69-.36A5.85,5.85,0,0,0,118.53,55c0-.12.24-.09.24,0,0,.48-.14,1.17-.14,1.49s0,.31.29.43a1,1,0,0,1,.6.84c0,.5-.34.84-1.11,1.08a14.45,14.45,0,0,1-3.81.33c-3.72,0-4.42-.4-4.42-2.37,0-.22,0-.46,0-1.37,0-1.2,0-2.4-.12-3.62,2.55.26,2.81.33,2.81.72,0,.19,0,.26-.72.57Z"/><path class="b" d="M128.66,57.29a14,14,0,0,1-2.26,1.63c-.09.07-.26-.14-.19-.24a22,22,0,0,0,3.41-5.06,14.53,14.53,0,0,0,1-2.62c2.45,1,2.54,1.08,2.54,1.37s-.19.36-.81.5a18.76,18.76,0,0,1-1.92,2.64c.79.12.91.24.91.46s-.15.34-.63.58V66.77c0,.7-.4,1-1.22,1-.5,0-1-.22-1-.91s.17-2.52.17-6.31Zm3.67-9.91a17,17,0,0,1-5.73,5c-.1.05-.27-.19-.17-.26a18.89,18.89,0,0,0,3.19-4.47,11.09,11.09,0,0,0,.89-2.21c1.87.65,2.83,1.18,2.83,1.52S133.05,47.33,132.33,47.38Zm6.19,2c.72-1,1-1.15,1.18-1.15s.46.19,1.2.81c.31.27.5.48.5.65s-.07.24-.31.24h-2.85v3.74h.67c.74-1,1-1.15,1.2-1.15s.45.19,1.2.82c.31.26.5.48.5.65s-.07.24-.31.24h-3.26V58h.67c.6-.86.89-1.05,1.05-1.05s.46.19,1.16.76c.26.22.45.44.45.61s-.07.24-.31.24h-3v4.22a28,28,0,0,0,3.19-.67.26.26,0,0,1,.14.41A45.13,45.13,0,0,1,133,65.6c-.09.55-.24.79-.48.79s-.38-.27-1.15-2.88c.43,0,.89,0,1.37-.07V58.18a17.31,17.31,0,0,0-.12-1.9c2.47.24,2.69.46,2.69.67s-.22.41-.63.6v5.72c.51-.05,1-.12,1.54-.19V54.27H134a6.67,6.67,0,0,0-1.32.14l-.27-.89a5.73,5.73,0,0,0,1.49.19h2.28V50h-1.54a11.15,11.15,0,0,1-1.92,1.61c-.09.07-.28-.07-.21-.17a15.79,15.79,0,0,0,1.77-3.7,12.56,12.56,0,0,0,.53-2.16c2,.56,2.76.87,2.76,1.2s-.31.46-1,.51a11.21,11.21,0,0,1-1.42,2.16Zm7.3-1.73c.84-1,1-1.15,1.23-1.15s.43.14,1.29.86c.39.34.53.51.53.7s-.14.41-.65.79v1.82c0,9.75.05,10.85.05,11.67a2.06,2.06,0,0,1-.53,1.42,2.21,2.21,0,0,1-1.63.62c-.29,0-.38-.14-.43-.62-.1-.82-.36-1.11-1.42-1.56-.12-.05-.12-.29,0-.29.53,0,.89,0,1.49,0,.29,0,.36-.09.36-.36V48.24H144v18.6c0,.63-.38.92-1.22.92-.58,0-.89-.2-.89-.72,0-.94.1-2.62.1-15.94,0-2.23,0-3.19-.12-4.61a13.3,13.3,0,0,1,2.28,1.2Z"/><path class="b" d="M159.84,57.7a18.31,18.31,0,0,1-4.23,2.21c-.12.05-.29-.22-.19-.29A22,22,0,0,0,163.08,51h-5.43a6,6,0,0,0-1.51.2l-.26-.94a8.84,8.84,0,0,0,1.77.19h2.07V47.67a17.46,17.46,0,0,0-.15-2.09c2.76.29,3.08.55,3.08.81s-.27.44-.77.68V50.4h1.17c.7-.79.89-.93,1.08-.93s.41.14,1.23,1c.36.38.5.58.5.77s-.14.36-.74.6A19,19,0,0,1,162,56c2.66.48,4.25,1.56,4.25,2.88a1.13,1.13,0,0,1-1.13,1.2c-.53,0-.77-.19-1.13-1a6,6,0,0,0-2-2.57v3c0,2.74.09,6.15.09,7.27,0,.68-.48,1-1.27,1s-1.05-.24-1.05-.89.12-2.11.12-5.33Zm10,6c0,1.22,0,1.27,2.76,1.27a3.41,3.41,0,0,0,1.82-.29c.7-.46,1-1.58,1.83-4.51,0-.12.33,0,.33.07-.07,1.1-.19,2.74-.19,3.31s.05.67.51.89.64.46.64.84c0,.67-.48,1.13-1.51,1.42a17,17,0,0,1-4.13.38c-3.57,0-4.41-.48-4.41-2.64,0-1.54,0-3.82,0-12,0-3.12,0-4.8-.14-6.72,2.54.22,3.31.41,3.31.82s-.19.43-.84.69Z"/><path class="b" d="M191.61,56.47a2.15,2.15,0,1,1-2.16-2.16A2.15,2.15,0,0,1,191.61,56.47Z"/><path class="b" d="M218.52,58.63c1.61.89,2.06,1.23,2.06,1.49s-.21.44-1.05.34a17,17,0,0,1-3.75,1.82c.31.2.63.39,1,.58a21.87,21.87,0,0,0,6.91,2.06c.12,0,.12.29,0,.32A1.84,1.84,0,0,0,222,66.75c-.15.41-.29.57-.58.57a4.82,4.82,0,0,1-1.15-.28,19.11,19.11,0,0,1-3.72-1.88c-2.47-1.65-3.6-3.12-5-6.53H208v5.45c1.94-.36,3.86-.79,5.33-1.22.12,0,.21.26.12.31a38.08,38.08,0,0,1-9.34,3.75c-.07.64-.24.91-.6.91s-.36,0-1.22-3c.6,0,1.29-.1,2-.19.48,0,1-.12,1.49-.2V58.63H203.3a11.41,11.41,0,0,0-1.7.15l-.27-.89a9.09,9.09,0,0,0,1.87.19H211v-8.9h-7.11a13.15,13.15,0,0,0-1.73.14l-.26-.89a9.11,9.11,0,0,0,1.87.2H211v-.75c0-.77-.05-1.56-.12-2.37,2.81.28,3,.57,3,.84s-.29.48-.87.67v1.61h5.74c1.15-1.4,1.44-1.59,1.61-1.59s.48.19,1.6,1.11c.51.4.7.62.7.79s-.07.24-.31.24H213v8.9h6.7c1.1-1.2,1.39-1.39,1.56-1.39s.48.19,1.44,1c.43.36.62.58.62.74s-.07.24-.31.24Zm-13.23-3v.15c0,.6-.41.88-1.08.88s-.84-.21-.84-.74,0-1,0-2.95c0-.89,0-1.78-.1-2.67a13.86,13.86,0,0,1,2.19,1.06h2c.7-.79.89-.94,1.08-.94s.43.15,1.15.8c.31.28.46.45.46.64s-.19.44-.63.68v.52c0,1.4.05,2.36.05,2.67,0,.55-.36.84-1.05.84s-.84-.22-.84-.77v-.17ZM207.72,52h-2.43v3.17h2.43Zm4.46,6.67a11.49,11.49,0,0,0,2.95,3.22,15.23,15.23,0,0,0,1.76-1.75,13.14,13.14,0,0,0,1.05-1.47Zm4.11-3v.15c0,.64-.34.88-1,.88s-.92-.19-.92-.74,0-1.63,0-2.9c0-.84,0-1.47-.09-2.72a14.19,14.19,0,0,1,2.18,1.06h2.14c.72-.84.89-.94,1.08-.94s.41.08,1.05.63.63.62.63.81-.19.41-.63.68v.52c0,1.06,0,2,0,2.67s-.36.84-1.1.84c-.55,0-.84-.22-.84-.77v-.17ZM218.88,52h-2.59v3.17h2.59Z"/><path class="b" d="M242.13,58.59c.05,4.41.12,6.69.12,7.87,0,.77-.45,1.08-1.53,1.08-.75,0-1.08-.24-1.08-.84,0-.91.07-3.55.12-8.11h-5.55v1c0,.62-.43.88-1.41.88-.65,0-1-.21-1-.79,0-1,.09-2.74.09-6.07,0-1.25,0-2.5-.09-3.77a21.72,21.72,0,0,1,2.64,1.37h5.3a36.5,36.5,0,0,0-.22-5.59c3.13.26,3.34.31,3.34.74,0,.24-.07.29-.82.67v4.18h5.6c.91-1.08,1.15-1.23,1.34-1.23s.43.15,1.44,1c.46.41.6.58.6.77s-.14.41-.79.79v1.11c0,2.95.07,5,.07,5.64s-.48.93-1.44.93c-.67,0-1-.19-1-.77v-.88ZM239.76,58c0-1.49,0-3.15,0-5V51.77h-5.57V58Zm8.16,0V51.77h-5.84c0,.84,0,4.27,0,6.27Z"/><path class="b" d="M264.77,57.82a40,40,0,0,0-1.25,4.75,5,5,0,0,0,0,1c0,.53.17,1,.17,1.66a.87.87,0,0,1-.92.82A1.49,1.49,0,0,1,261.43,65a11.88,11.88,0,0,1-.79-5.12,37.27,37.27,0,0,1,1.1-8.21,9.88,9.88,0,0,0,.38-2.16,2.93,2.93,0,0,0-.55-1.68c-.14-.21-.19-.26-.19-.38s.12-.14.38-.14A1.82,1.82,0,0,1,263,48a4.18,4.18,0,0,1,1.41,2.61.93.93,0,0,1-.36.77,3.7,3.7,0,0,0-.81,1.66,19.39,19.39,0,0,0-1.23,6.19,8.75,8.75,0,0,0,.17,1.95c.07.26.31.26.41.07.62-1.25,1.13-2.33,1.73-3.77.07-.17.16-.34.31-.31a.23.23,0,0,1,.19.24A3.34,3.34,0,0,1,264.77,57.82Zm13.34,5.42a1.57,1.57,0,0,1,.46,1.08,1,1,0,0,1-.36.82,1,1,0,0,1-.65.24,1.2,1.2,0,0,1-.87-.43,11.19,11.19,0,0,0-2.08-1.78c0,1.56-1.52,2.71-3.72,2.71a5.84,5.84,0,0,1-2.57-.55A2.5,2.5,0,0,1,267,63.24a2.47,2.47,0,0,1,1.22-2,5.31,5.31,0,0,1,2.62-.57,9.54,9.54,0,0,1,2,.24c0-2.19-.07-4.13-.1-6.32a20.09,20.09,0,0,1-3.24.22,3.28,3.28,0,0,1-1.63-.36,3.64,3.64,0,0,1-1.22-1.08c-.15-.22-.17-.29-.17-.38s0-.2.14-.2a1.3,1.3,0,0,1,.46.2,4.59,4.59,0,0,0,2.06.43,21,21,0,0,0,3.63-.41c0-2.23,0-3.17-.1-3.79a.77.77,0,0,0-.77-.79,3.09,3.09,0,0,0-.5,0l-.29,0a.2.2,0,0,1-.19-.19c0-.15.29-.41.6-.6a1.78,1.78,0,0,1,1-.32,3.16,3.16,0,0,1,1.68.44c.67.36,1.11.67,1.11,1.17a.69.69,0,0,1-.22.55,1.65,1.65,0,0,0-.38.92,13.18,13.18,0,0,0-.22,2.25,7.23,7.23,0,0,0,.89-.24,1.69,1.69,0,0,0,.5-.31,1.72,1.72,0,0,1,.94-.26c1.1,0,1.51.48,1.51.91s-.17.69-.72.91a19.56,19.56,0,0,1-3.19.79c0,2.88.12,5,.24,6.89A10.08,10.08,0,0,1,278.11,63.24Zm-7.8-1.51a4.32,4.32,0,0,0-1.7.27,1.2,1.2,0,0,0-.77,1.08,1.22,1.22,0,0,0,.62,1,3.41,3.41,0,0,0,1.8.31,3.61,3.61,0,0,0,1.8-.45,1.58,1.58,0,0,0,.65-1,2.88,2.88,0,0,0,.07-.65A6.22,6.22,0,0,0,270.31,61.73Z"/><path class="b" d="M296.2,52.42c1.57,0,2.74,1.75,2.74,4.17a15.89,15.89,0,0,1-.89,5.45,7.68,7.68,0,0,1-1.41,2.57,3.49,3.49,0,0,1-2.36,1.44c-.72,0-1.2-.31-1.17-1.08a2,2,0,0,0-.48-1.27c-.27-.38-.65-.86-1-1.3-.12-.14-.17-.21-.17-.28a.18.18,0,0,1,.19-.2.53.53,0,0,1,.31.15,10.41,10.41,0,0,0,1.63.93,2.53,2.53,0,0,0,.92.27,1,1,0,0,0,.91-.43,8.7,8.7,0,0,0,1.25-2.74,14.74,14.74,0,0,0,.57-3.82c0-2.25-.33-2.93-1.41-2.93a6.31,6.31,0,0,0-1.25.2c-1.08,2.28-2.38,5.11-3.39,7.15-.88,1.82-1.75,3.43-2.37,4.46a1.17,1.17,0,0,1-1.06.53,1,1,0,0,1-.91-1,2.15,2.15,0,0,1,.46-1.29,79.48,79.48,0,0,0,5.3-9.27c-.94.36-1.85.72-2.62,1.06a5.11,5.11,0,0,0-.69.33,1,1,0,0,1-.63.22,2.07,2.07,0,0,1-1.34-.65,2.74,2.74,0,0,1-.91-1.63c0-.51.14-.87.36-.87s.21.12.31.27a1.82,1.82,0,0,0,1.22.84,10.32,10.32,0,0,0,2.07-.29c.89-.17,1.8-.43,2.78-.67a14,14,0,0,0,1.13-3.84.72.72,0,0,0-.36-.7,6.84,6.84,0,0,0-.94-.41c-.19-.07-.36-.09-.36-.24s.17-.36.41-.43a3.18,3.18,0,0,1,3.7,1.18.94.94,0,0,1,.21.67.92.92,0,0,1-.55.77,1.75,1.75,0,0,0-.5.74c-.22.51-.55,1.18-.91,2A8.11,8.11,0,0,1,296.2,52.42ZM302,59.28c-.27,0-.56,0-.72,0s-.27-.07-.27-.17,0-.12.22-.21c2.11-.84,2.9-1.3,2.9-1.68a3.9,3.9,0,0,0-.72-2,5.82,5.82,0,0,0-2.76-2.45c-.24-.1-.43-.19-.43-.34s.12-.24.36-.24c.05,0,.1,0,.17,0a7.36,7.36,0,0,1,3.89,2,5.64,5.64,0,0,1,2,4.44c0,1-.6,1.3-1,1.32a1.13,1.13,0,0,1-1-.38,1.07,1.07,0,0,0-.81-.44C303.05,59.23,302.52,59.26,302,59.28ZM303,48.84a1.81,1.81,0,0,1,.89,1.44.8.8,0,0,1-.79.84.87.87,0,0,1-.82-.55,9,9,0,0,0-1.51-2.11c-.09-.1-.26-.22-.26-.31s0-.12.12-.15a1.21,1.21,0,0,1,.38,0A4.73,4.73,0,0,1,303,48.84Zm2.21-1.61a1.57,1.57,0,0,1,.87,1.23.81.81,0,0,1-.75.89.93.93,0,0,1-.89-.53A6,6,0,0,0,302.73,47c-.09-.08-.29-.2-.29-.29a.16.16,0,0,1,.08-.15.73.73,0,0,1,.38,0A5,5,0,0,1,305.18,47.23Z"/><path class="b" d="M316.46,52.51A3.51,3.51,0,0,1,314.61,51a.54.54,0,0,1-.09-.26c0-.1,0-.19.17-.19a.41.41,0,0,1,.31.12,3.57,3.57,0,0,0,2.28.76,17.81,17.81,0,0,0,4.7-.91c-.14-.5-.43-1.56-.67-2.37a.91.91,0,0,0-.72-.75,4.55,4.55,0,0,0-.7-.12l-.31,0a.17.17,0,0,1-.17-.17.48.48,0,0,1,.15-.31,1.79,1.79,0,0,1,1.39-.7,5,5,0,0,1,1.68.34c.62.24,1,.6,1,1a1.33,1.33,0,0,1-.14.57,1.47,1.47,0,0,0-.1.72c0,.24.07.77.14,1.27a11.35,11.35,0,0,0,1.64-.67,4.07,4.07,0,0,0,.5-.29,2.27,2.27,0,0,0,.36-.26,1.48,1.48,0,0,1,.94-.29c.91,0,1.51.22,1.51.72s-.19.65-1.11,1.06c-1.08.48-2.37,1-3.5,1.37a21,21,0,0,0,1,2.8,8.93,8.93,0,0,0,1.76-.81c.14-.1.16-.15.16-.27s-.26-.52-.88-1.12c-.12-.12-.17-.2-.17-.29a.17.17,0,0,1,.17-.15c.09,0,.19.08.48.22a3.12,3.12,0,0,0,1.6.43,3.94,3.94,0,0,0,.6,0,1.83,1.83,0,0,1,.65,0,.85.85,0,0,1,.72.74,1,1,0,0,1-.57.89,25.33,25.33,0,0,1-3.87,1.8A11.83,11.83,0,0,0,327.72,59a2.48,2.48,0,0,1,1,2,1.11,1.11,0,0,1-1,1.2,1.56,1.56,0,0,1-1-.52,4.27,4.27,0,0,0-1.4-.82,11.91,11.91,0,0,0-3.57-.67,6,6,0,0,0-2.79.55,2,2,0,0,0-1.17,1.61c0,.84.6,1.65,2.09,1.94a15.43,15.43,0,0,0,2.76.24c.74,0,1.27-.12,1.7-.12a3,3,0,0,1,1.37.31,1.09,1.09,0,0,1,.72,1.08.92.92,0,0,1-.46.77,3.51,3.51,0,0,1-1.77.29,15.43,15.43,0,0,1-4.78-.67c-2.21-.79-3-2-3-3.31A3.22,3.22,0,0,1,318.29,60a8.62,8.62,0,0,1,3.79-.79,32.49,32.49,0,0,1,3.69.21,33.89,33.89,0,0,1-1.65-3.14,14.62,14.62,0,0,1-4.23.79c-1.51,0-2.71-.77-2.71-1.73a2.41,2.41,0,0,1,.67-1.51,5.3,5.3,0,0,1,1-1A5.42,5.42,0,0,1,316.46,52.51Zm2.93.6a4.41,4.41,0,0,0-.89,1,1.84,1.84,0,0,0-.24.86c0,.41.31.62,1.13.62a13.13,13.13,0,0,0,4.1-.76c-.38-1-.6-1.54-1.05-2.81-1.06.31-1.47.41-2.26.6A4.25,4.25,0,0,0,319.39,53.11Z"/><path class="b" d="M178.16,103.39c0,3.68,0,5.65.05,6.85h3.45c1-1.25,1.28-1.44,1.45-1.44s.48.19,1.48,1c.46.36.65.58.65.75s-.07.24-.31.24h-6.72c0,.67,0,1.08,0,1.51,0,.82-.48,1.08-1.44,1.08-.77,0-1-.29-1-.86,0-.87.12-2.14.12-9,0-5.45,0-6.17-.12-7.51a22,22,0,0,1,2.48,1.1,12.69,12.69,0,0,0,3.36-2.4,9.32,9.32,0,0,0,1.22-1.37c1.73,1.16,2.31,1.64,2.31,2s-.22.48-1.06.33a25.58,25.58,0,0,1-5.93,2.12v5.13h3.38c1-1.25,1.25-1.44,1.42-1.44s.48.19,1.51,1c.46.36.65.58.65.74s-.07.24-.31.24ZM193,96.29c.86-1,1.06-1.15,1.25-1.15s.43.14,1.37,1c.43.38.57.55.57.74s-.14.39-.74.77v1.92c0,8.71.07,9.19.07,9.79a2.59,2.59,0,0,1-.77,2.24,3.53,3.53,0,0,1-2.09.48c-.4,0-.45-.1-.52-.51-.17-.91-.58-1.34-2.45-1.87-.12,0-.12-.29,0-.29,1.13.07,2.25.12,3.05.12.36,0,.43-.07.43-.36V96.84h-4.83v17.64c0,.8-.43,1.08-1.41,1.08-.75,0-1-.28-1-.91,0-.89.14-3.53.14-8.71,0-7.08,0-9.48-.14-11,1.25.58,1.49.7,2.66,1.32Z"/><path class="b" d="M207.27,99.48a43.57,43.57,0,0,1-.74,7.75,13.08,13.08,0,0,1-3.48,6.63c-.07.1-.27-.1-.22-.22a21.57,21.57,0,0,0,1.9-7.08,88.43,88.43,0,0,0,.36-9.31c0-1.46,0-2.21-.1-3.5,1.2.6,1.37.67,2.64,1.32h6.46c.91-1,1.1-1.11,1.3-1.11s.45.15,1.32.82c.38.31.52.48.52.67s-.07.26-.67.67V97c0,.93.1,1.87.1,2.4,0,.76-.43,1.12-1.23,1.12s-1-.31-1-1v0Zm7.16-3.86H207.3v.57c0,1,0,1.88,0,2.74h7.16Zm-1.54,8.66c0,5.26.05,8.88.05,10.08a1,1,0,0,1-1.16,1.06c-.67,0-.93-.29-.93-.94,0-1.08.09-4.15.12-10.2h-1.68v1.2c0,3.7.07,4.92.07,6.12,0,.56-.38.82-1.1.82-.56,0-.87-.22-.87-.74,0-.89.1-1.8.1-5.45,0-1.23,0-2.48-.12-3.72a13,13,0,0,1,2.16,1.22H211v-.84a21.33,21.33,0,0,0-.1-2.66c2.57.38,2.86.45,2.86.76s-.24.44-.84.68v2.06h1.58c.72-.89.92-1,1.11-1s.4.14,1.13.81c.31.32.45.51.45.7s-.17.41-.67.7v.88c0,3.22.1,3.75.1,4.52a1.77,1.77,0,0,1-.53,1.41,2,2,0,0,1-1.44.48c-.29,0-.39-.16-.41-.62-.05-.86-.22-1.08-1-1.34-.12,0-.12-.32,0-.29a8.25,8.25,0,0,0,1.25.09c.19,0,.21-.09.24-.38v-5.38Zm7.49-5.37c0,5.11.12,8.64.12,9.81,0,.68-.41,1-1.27,1-.7,0-1-.24-1-.87s.12-2.73.12-6.89c0-3.72,0-4.84-.12-6.31,2.64.27,2.83.31,2.83.7,0,.21-.16.36-.69.62Zm1.77-3a11.84,11.84,0,0,0-.14-2c2.83.36,2.9.38,2.9.74s-.19.46-.64.7v8.74c0,4.08.12,7.25.12,8.64,0,1.08-.2,1.49-.77,1.89a3.18,3.18,0,0,1-1.75.58c-.56,0-.7-.14-.8-.6-.12-.86-.48-1.27-2.35-1.78-.12,0-.12-.33,0-.33,1.25.09,2.33.14,3.07.14.29,0,.36-.07.36-.33Z"/></svg>