<svg xmlns="http://www.w3.org/2000/svg" viewBox="0 0 400 150"><defs><style>.a{fill:#fff;}.b{fill:#256643;}</style></defs><rect class="a" width="400" height="150" rx="10"/><path class="b" d="M113.44,77.36a3.5,3.5,0,0,0,2,1.92,15.14,15.14,0,0,0,2.45-1.7,7.29,7.29,0,0,0,1-1.15c2.31,1.25,2.31,1.25,2.31,1.53s-.24.44-1.18.36a11.12,11.12,0,0,1-3.79,1.2,22.91,22.91,0,0,0,4.94.41c2.09,0,3.51-.05,5.59-.21a1.91,1.91,0,0,1-.72-.53A9,9,0,0,0,123,77c-.1,0-.1-.24,0-.24,3.75.14,5.09.64,5.09,1.82a1.28,1.28,0,0,1-.67,1.13c.91-.1,1.94-.19,3.19-.34.12,0,.1.19,0,.24-.67.39-.86.7-1,1.83,0,.28-.17.38-.68.43-1.27.14-3.91.19-5.8.19-4.11,0-6.53-.31-8.07-1.3a5.94,5.94,0,0,1-2.35-3.48,26.66,26.66,0,0,1-2.55,3.58c.08.94-.09,1.13-.4,1.13s-.87-.84-1.78-3c.46-.15,1-.36,1.49-.58a11.39,11.39,0,0,0,1.68-1V71.15h-1.66a4.87,4.87,0,0,0-1.32.19l-.26-1a5.56,5.56,0,0,0,1.56.22h1.53c.82-1,1-1.11,1.2-1.11s.44.15,1.35.84c.41.34.55.51.55.7s-.07.24-.72.77Zm-1.3-11.42c-.55,0-.84-.29-1.17-1.49a7.13,7.13,0,0,0-1.54-2.81c-.09-.09.07-.24.19-.21,2.81.69,3.84,1.84,3.84,3.07A1.31,1.31,0,0,1,112.14,65.94Zm8.65-3.7a17.13,17.13,0,0,0-.12-1.89c2.56.24,2.8.48,2.8.72s-.21.38-.64.57v.75H126c.7-.75.89-.89,1.08-.89s.43.14,1.2.77c.34.31.48.48.48.67s-.19.41-.67.91v.24c0,.6.07,1,.07,1.13,0,.43-.48.69-1.25.69-.5,0-.74-.16-.79-.52h-3.33V67h4.34c.86-1,1.15-1.22,1.32-1.22s.46.19,1.27.86c.34.29.53.51.53.68s-.07.24-.31.24H115.14a7.37,7.37,0,0,0-1.36.14l-.27-.89a6.5,6.5,0,0,0,1.59.19h5.69v-1.6h-3.15c-.07.45-.38.62-1.22.62-.55,0-.82-.22-.82-.6s.07-.62.07-1.87c0-.72,0-1.44-.09-2.19a14,14,0,0,1,2.23,1h3ZM118.12,76c-.09.53-.48.8-1.15.8s-1-.27-1-1,.1-1.49.1-4.49c0-1.15,0-2.31-.1-3.46a21.19,21.19,0,0,1,2.35,1h7.18c.7-.81.89-1,1.08-1s.46.15,1.27.75c.36.29.51.45.51.65s-.15.35-.58.67V71c0,2.48,0,4.18,0,4.73,0,.75-.41,1-1.27,1-.6,0-.87-.19-.92-.72Zm-.45-13.1v1.89h3.12V62.94Zm8,6.58h-7.48V71.1h7.48Zm-7.48,3.69h7.48V71.65h-7.48Zm0,2.28h7.48V73.76h-7.48Zm4.68-10.66h3.33V62.94h-3.33Z"/><path class="b" d="M140.39,80v.94c0,.74-.45,1-1.32,1-.72,0-1-.22-1-.84,0-.89.12-1.92.12-5.5,0-1.39,0-2.78-.07-4.17a21.77,21.77,0,0,1,2.57,1.2h3.69c.87-.94,1.06-1.08,1.25-1.08s.43.14,1.27.86c.36.34.51.5.51.7s-.15.33-.63.72V75c0,3,.15,5.16.15,5.84s-.48.88-1.35.88-1-.26-1-.84V80Zm4.15-6.79h-4.15v6.24h4.15Zm-.38-4.32v.5c0,.75-.43,1.06-1.3,1.06s-1.08-.27-1.08-.87.08-1.44.08-4.1c0-1.47,0-2.93-.15-4.39a27,27,0,0,1,2.79,1.32h7c.91-1,1.1-1.16,1.3-1.16s.43.15,1.34.89c.41.34.55.51.55.7s-.19.45-.67.74v.94c0,2.49,0,4.32,0,4.87,0,.72-.36,1-1.35,1-.69,0-1-.24-1-.86v-.67Zm7.59-5.93h-7.59v5.38h7.59Zm-.53,17v.82c0,.69-.46,1-1.35,1-.69,0-1-.24-1-.82,0-.86.12-1.92.12-5.42,0-1.37,0-2.76-.08-4.15a23.15,23.15,0,0,1,2.55,1.2h4c.89-.94,1.08-1.08,1.28-1.08s.43.14,1.27.86c.38.34.53.51.53.7s-.15.36-.65.72v1.15c0,3,.14,5.09.14,5.76s-.45,1.06-1.39,1.06c-.7,0-1-.24-1-.82V80Zm4.49-6.84h-4.49v6.29h4.49Z"/><path class="b" d="M170.94,63.59h-3a9.78,9.78,0,0,0-1.59.14l-.26-.89a8.29,8.29,0,0,0,1.8.19h3.09a15.32,15.32,0,0,0-.14-2.47c2.57.29,2.64.29,2.64.6s-.05.31-.7.58V63h1.93c.83-1.05,1.12-1.24,1.29-1.24s.48.19,1.37.88c.38.32.58.51.58.68s-.08.24-.32.24h-4.85v1.72h2c.55-.6.74-.74.93-.74s.46.14,1.08.6c.26.19.41.36.41.55s-.1.27-.53.58v.43c0,1.15,0,2,0,2.26,0,.5-.39.69-1,.69s-.8-.16-.8-.62v-.12h-2.13l0,1c2.23.09,3.34.79,3.34,1.8a.9.9,0,0,1-.87.93,1.06,1.06,0,0,1-.91-.57,5.08,5.08,0,0,0-1.56-1.71c0,1.32,0,2.26,0,2.76s-.39.82-1.11.82-.93-.24-.93-.77,0-1.63.09-2.64a11.85,11.85,0,0,1-5.09,3.31c-.12.05-.28-.14-.19-.21a16.12,16.12,0,0,0,4.49-4.73H168.9c0,.55-.36.79-1,.79s-.86-.14-.86-.65.09-.86.09-2.47c0-.72,0-1.44-.09-2.16a13.88,13.88,0,0,1,2,.86h1.89Zm4.64,11.54h-6.29a11.92,11.92,0,0,0-1.75.15l-.27-.89a10.74,10.74,0,0,0,2,.19h13.08c1-1.1,1.25-1.3,1.42-1.3s.5.2,1.49.92c.43.33.62.52.62.69s-.07.24-.31.24h-7.71V77.8h3.44c1-1.11,1.29-1.3,1.46-1.3s.48.19,1.39.91c.41.34.6.53.6.7s-.07.24-.31.24h-6.58v3h6.08c1.1-1.2,1.39-1.39,1.56-1.39s.48.19,1.51,1c.45.36.65.55.65.72s-.08.24-.32.24H168.18a16.33,16.33,0,0,0-1.92.14l-.26-.88a12.44,12.44,0,0,0,2.11.19h2.33V78.92a17.28,17.28,0,0,0-.17-2.52c2.91.27,3.19.51,3.19.75s-.26.5-.81.67v3.53h2.93Zm-4.64-9.26h-2v2.52h2Zm4,2.52V65.87h-2.16c0,.84,0,1.68,0,2.52Zm10.66-3.58a14.74,14.74,0,0,1-2.54,5,12.52,12.52,0,0,0,5.09,1.66c.12,0,.12.29,0,.31a1.92,1.92,0,0,0-1.35,1.61c0,.29-.14.43-.33.43a2.6,2.6,0,0,1-.87-.31A12.7,12.7,0,0,1,182,70.86a12.57,12.57,0,0,1-5.9,2.86c-.12,0-.22-.24-.1-.29a12.9,12.9,0,0,0,5-3.77,16,16,0,0,1-1.71-3.19,13.51,13.51,0,0,1-2.08,2.16c-.1.07-.36,0-.29-.15a20.55,20.55,0,0,0,2.16-5,15.58,15.58,0,0,0,.55-2.85c2.52.6,2.91.72,2.91,1s-.29.41-.94.56c-.31.79-.62,1.48-.94,2.11h3.7c.91-1.2,1.2-1.39,1.37-1.39s.48.19,1.41,1c.41.34.6.55.6.72s-.07.24-.31.24Zm-5.14,0a10.12,10.12,0,0,1-.81,1.3,10.4,10.4,0,0,0,2,2.69,17.71,17.71,0,0,0,1.63-4Z"/><path class="b" d="M199.55,75.18c1.18-.41,2.33-.84,3.24-1.22.12,0,.24.19.15.26a28.46,28.46,0,0,1-6.68,4.25c0,.77-.16,1-.5,1s-.65-.53-1.63-2.88a18.33,18.33,0,0,0,2.13-.46c.37-.09.75-.19,1.13-.31V69.68h-1a6.75,6.75,0,0,0-1.32.15l-.27-.89a6.76,6.76,0,0,0,1.54.19h1.1V63.44h-1.34a6.83,6.83,0,0,0-1.32.15l-.27-.89a6.42,6.42,0,0,0,1.52.19h3.38c.84-1.1,1.13-1.3,1.3-1.3s.48.2,1.39.92c.38.31.58.52.58.69s-.08.24-.32.24h-2.76v5.69h.2c.67-1,1-1.18,1.12-1.18s.46.2,1.2.85c.29.26.48.48.48.64s-.07.24-.31.24h-2.69Zm10.64.53h1.65c1.25-1.39,1.54-1.59,1.71-1.59s.48.2,1.58,1.11c.48.41.67.62.67.79s-.07.24-.31.24h-5.3V80.7h2.59c1.37-1.44,1.65-1.63,1.82-1.63s.48.19,1.63,1.15c.51.41.7.62.7.79s-.07.24-.31.24H202.29a9.47,9.47,0,0,0-1.56.15l-.27-.89a8.61,8.61,0,0,0,1.76.19H208V76.26h-3.51a10.07,10.07,0,0,0-1.51.14l-.26-.88a8.08,8.08,0,0,0,1.7.19H208v-4h-2.76v.6c0,.6-.41.84-1.37.84-.67,0-1-.24-1-.84,0-.77.14-2.52.14-6.89,0-1.47,0-2.21-.14-4.42a24.14,24.14,0,0,1,2.49,1.25H213c.79-.91,1-1.06,1.17-1.06s.46.15,1.42.92c.43.36.58.52.58.72s-.22.45-.87.84V65.1c0,3.67.1,6.19.1,7,0,.63-.39.89-1.37.89-.62,0-.89-.22-.89-.77v-.5h-3Zm-2.16-9V62.84h-2.76v3.82Zm0,4.54v-4h-2.76v4Zm5.13-4.54V62.84h-3v3.82Zm0,4.54v-4h-3v4Z"/><path class="b" d="M230.54,71.51a2.15,2.15,0,1,1-2.16-2.16A2.14,2.14,0,0,1,230.54,71.51Z"/><path class="b" d="M247.22,65.17c.81-.94,1-1.08,1.2-1.08s.43.14,1.32.86c.41.34.55.51.55.7s-.22.46-.7.67c-.62,4.35-1.49,7.42-3,9.92.15.19.34.38.51.57,2,2.14,4.41,3,8.78,3a49.66,49.66,0,0,0,6.84-.48c.12,0,.1.2,0,.24-.69.39-.91.77-1,1.8,0,.36-.17.53-1,.6a31.69,31.69,0,0,1-3.24.08c-5.31,0-7.9-.72-10.13-2.86a10.44,10.44,0,0,1-1.49-1.75,21.8,21.8,0,0,1-5.64,5c-.1.08-.31-.21-.22-.28a21.34,21.34,0,0,0,4.92-6.51,27.29,27.29,0,0,1-1.58-5.88,16.34,16.34,0,0,1-3.19,4.08c-.1.07-.29-.07-.22-.17A24.39,24.39,0,0,0,243,65.1a33.33,33.33,0,0,0,.51-4.27c2.11.26,3.09.57,3.09.91s-.26.45-.79.6c-.24,1-.48,2-.72,2.83Zm-2.31.55a26.81,26.81,0,0,1-1.29,3.39,20.49,20.49,0,0,0,1.77,5.33,32,32,0,0,0,2-8.72Zm16.59,8.67c0,.5.05.55.38.77a.94.94,0,0,1,.58.91c0,.43-.31.79-.89,1a6.46,6.46,0,0,1-2.14.31c-2.37,0-3-.38-3-1.87s0-2.62,0-3.79V63.63h-2.74v1.2c0,4.06-.24,6.51-.89,8.33s-1.87,3-3.88,4.52c-.1.07-.32-.1-.24-.2a10.9,10.9,0,0,0,2.37-4.68,30.62,30.62,0,0,0,.43-6.36c0-2.11,0-3.29-.14-4.73a20.61,20.61,0,0,1,2.52,1.37h2.4c.82-.93,1.06-1.1,1.25-1.1s.45.12,1.29.86c.39.34.58.55.58.75s-.17.4-.72.74V74.84c0,.44.12.53.74.53a.87.87,0,0,0,1-.62,17.55,17.55,0,0,0,.79-3c0-.12.29-.08.29,0Z"/><path class="b" d="M278.08,63c-2.42,4.56-4.8,7-9.12,9.22-.1,0-.29-.19-.19-.26a23.28,23.28,0,0,0,5.81-7.47,15.68,15.68,0,0,0,1.24-3.5c2.48.81,3.25,1.17,3.25,1.48S278.8,62.91,278.08,63Zm1.25,8.12c-.62,6.31-3.6,9.72-10,11.44-.12,0-.21-.24-.12-.28,4.95-2.76,7.08-5.86,7.61-11.16H275a10.6,10.6,0,0,0-2,.19l-.26-1a11,11,0,0,0,2.21.21H284c.94-.91,1.13-1,1.32-1s.44.14,1.37,1c.43.41.58.57.58.77s-.05.24-.7.69A30,30,0,0,1,285.35,80a3.63,3.63,0,0,1-1.1,1.63,3.28,3.28,0,0,1-2.06.67c-.6,0-.75,0-.89-.67s-.84-1.25-2.74-1.82c-.12,0-.07-.43.05-.41a25.46,25.46,0,0,0,3.55.41c.67,0,.94-.39,1.34-2a37.51,37.51,0,0,0,.8-6.72Zm12.17-1.61c-.77.17-1.13.57-1.42,1.68-.12.55-.21.69-.41.69a2.93,2.93,0,0,1-1.05-.52A17.68,17.68,0,0,1,286,69.11c-1.64-1.73-2.5-3.36-3.84-6.84a1.24,1.24,0,0,0-.32-.44.37.37,0,0,1-.19-.26c0-.19.63-.43.94-.43.14,0,.24.07.24.19a3.49,3.49,0,0,0-.12.43,1.6,1.6,0,0,0,.14.53,13.06,13.06,0,0,0,3.53,4.46,12.22,12.22,0,0,0,5.11,2.36C291.64,69.13,291.62,69.44,291.5,69.47Z"/></svg>