<svg xmlns="http://www.w3.org/2000/svg" viewBox="0 0 700 486.65"><defs><style>.cls-1,.cls-12,.cls-14,.cls-16,.cls-2{font-size:20px;}.cls-1,.cls-2,.cls-4{fill:#091911;}.cls-1,.cls-12,.cls-14,.cls-16,.cls-17,.cls-2,.cls-4{font-family:YuMin-Demibold-83pv-RKSJ-H, YuMincho;}.cls-1,.cls-16,.cls-3{letter-spacing:0.18em;}.cls-15,.cls-2{letter-spacing:0.18em;}.cls-17,.cls-4{font-size:16px;}.cls-4{letter-spacing:-0.03em;}.cls-5{letter-spacing:0.18em;}.cls-6{letter-spacing:0.18em;}.cls-7{letter-spacing:0.18em;}.cls-8{fill:none;stroke:#6b7570;stroke-miterlimit:10;}.cls-9{letter-spacing:0.28em;}.cls-10{letter-spacing:0.28em;}.cls-11{letter-spacing:0.3em;}.cls-12,.cls-14,.cls-16{fill:#343e39;}.cls-12{letter-spacing:1.18em;}.cls-13{letter-spacing:0.18em;}.cls-14{letter-spacing:0.38em;}.cls-17{fill:#041a10;letter-spacing:0.08em;}.cls-18{letter-spacing:0.08em;}.cls-19{letter-spacing:0.1em;}.cls-20{letter-spacing:0.4em;}.cls-21{letter-spacing:0.1em;}.cls-22{letter-spacing:0.1em;}.cls-23{letter-spacing:0.32em;}.cls-24{letter-spacing:0.01em;}.cls-25{letter-spacing:-0.02em;}.cls-26{letter-spacing:0.07em;}.cls-27{letter-spacing:0.14em;}.cls-28{letter-spacing:-0.04em;}.cls-29{letter-spacing:-0.11em;}.cls-30{letter-spacing:0.03em;}.cls-31{letter-spacing:-0.02em;}.cls-32{letter-spacing:0.09em;}.cls-33{letter-spacing:0.48em;}</style></defs><g id="レイヤー_2" data-name="レイヤー 2"><g id="レイヤー_5" data-name="レイヤー 5"><text class="cls-1" transform="translate(36.62 32.64)">所在地</text><text class="cls-2" transform="translate(172.8 48.67)">青森県西津軽郡深浦町大字深浦字浜町348<tspan x="443.32" y="-1">-</tspan><tspan class="cls-3" x="454.28" y="0">7</tspan></text><text class="cls-4" transform="translate(172.38 15.08)">〒<tspan class="cls-5" x="15.58" y="0">038</tspan><tspan class="cls-6" x="49.28" y="-1">-</tspan><tspan class="cls-7" x="58.05" y="0">2324</tspan></text><line class="cls-8" y1="81.38" x2="700" y2="81.38"/><text class="cls-1" transform="translate(172.8 126.46)">017<tspan class="cls-9" x="42.12" y="0">3</tspan><tspan class="cls-9" x="58.16" y="-1">-</tspan><tspan x="71.12" y="0">7</tspan><tspan class="cls-10" x="85.16" y="0">4</tspan><tspan class="cls-11" x="101.2" y="-1">-</tspan><tspan x="114.56" y="0">2033</tspan></text><text class="cls-12" transform="translate(38.42 124.96)">電<tspan class="cls-13" x="43.6" y="0">話</tspan></text><line class="cls-8" y1="159.16" x2="700" y2="159.16"/><text class="cls-14" transform="translate(42.41 202.75)">FA<tspan class="cls-13" x="42.08" y="0">X</tspan></text><text class="cls-1" transform="translate(172.8 204.25)">017<tspan class="cls-9" x="42.12" y="0">3</tspan><tspan class="cls-9" x="58.16" y="-1">-</tspan><tspan x="71.12" y="0">7</tspan><tspan class="cls-10" x="85.16" y="0">4</tspan><tspan class="cls-15" x="101.2" y="-1">-</tspan><tspan class="cls-15" x="112.16" y="0">3899</tspan></text><line class="cls-8" y1="236.95" x2="700" y2="236.95"/><text class="cls-2" transform="translate(172.8 279.03)">吉井　眞逸</text><text class="cls-12" transform="translate(38.42 279.03)">代<tspan class="cls-13" x="43.6" y="0">表</tspan></text><line class="cls-8" y1="311.74" x2="700" y2="311.74"/><text class="cls-16" transform="translate(38.42 441.02)">加　盟</text><text class="cls-17" transform="translate(174.6 425.09)">全<tspan class="cls-18" x="17.33" y="0">日</tspan><tspan class="cls-19" x="34.67" y="0">本葬祭業協同組合連合</tspan><tspan class="cls-20" x="210.67" y="0">会／</tspan><tspan class="cls-21" x="255.47" y="0">青森県葬祭事業協同組合</tspan><tspan class="cls-21"><tspan x="0" y="30">青森新生活互助会代理</tspan><tspan class="cls-20" x="176" y="30">店／</tspan><tspan class="cls-22" x="220.8" y="30">if共済会代理</tspan><tspan class="cls-20" x="322.21" y="30">店</tspan><tspan class="cls-23" x="344.61" y="30">／</tspan><tspan class="cls-24" x="365.66" y="30">コ</tspan><tspan class="cls-25" x="381.76" y="30">ー</tspan><tspan class="cls-26" x="397.41" y="30">プ</tspan><tspan x="414.53" y="30">葬提携店</tspan></tspan></text><line class="cls-8" y1="386.52" x2="700" y2="386.52"/><text class="cls-1" transform="translate(174.6 353.82)">1級葬<tspan class="cls-27" x="61.24" y="0">祭</tspan><tspan class="cls-28" x="84" y="0">デ</tspan><tspan class="cls-29" x="103.26" y="0">ィ</tspan><tspan class="cls-30" x="121.06" y="0">レ</tspan><tspan class="cls-31" x="141.58" y="0">ク</tspan><tspan class="cls-32" x="161.26" y="0">タ</tspan><tspan class="cls-33" x="182.96" y="0">ー／</tspan><tspan class="cls-15" x="242.16" y="0">葬儀事前相談員</tspan></text><text class="cls-16" transform="translate(38.42 353.82)">資　格</text><line class="cls-8" y1="486.15" x2="700" y2="486.15"/></g></g></svg>