<svg xmlns="http://www.w3.org/2000/svg" viewBox="0 0 400 150"><defs><style>.a{fill:#fff;}.b{fill:#256643;}</style></defs><rect class="a" width="400" height="150" rx="10"/><path class="b" d="M78,71.24a5.4,5.4,0,0,1,3.09.87A3.85,3.85,0,0,1,83,75.32a3.59,3.59,0,0,1-1.56,3,4.77,4.77,0,0,1-3,.93,5.45,5.45,0,0,1-5-3.38c0-.07.08-.12.15-.12a.36.36,0,0,1,.31.17,5.12,5.12,0,0,0,3.74,1.7A3.59,3.59,0,0,0,80,76.86a2.83,2.83,0,0,0,.69-2.11,2.42,2.42,0,0,0-1.15-2.19,3.72,3.72,0,0,0-1.92-.45,7.56,7.56,0,0,0-3.5,1.15c-.58.31-1.09.62-1.56.91,0,1.42.09,2.28.14,3.15,0,.43,0,.72,0,1.17A4.55,4.55,0,0,1,72.53,80c-.34.86-.75,1.13-1.18,1.13s-.67-.22-.82-.8c-.31-1.29-.84-1.82-2.16-3a8,8,0,0,0-1.1,1,1.2,1.2,0,0,1-1,.45,2.07,2.07,0,0,1-1.06-.36,2,2,0,0,1-1-1.58,1.4,1.4,0,0,1,.64-1.25c.1,0,.15,0,.2.19a1.89,1.89,0,0,0,.26.58c.1.1.17.12.41.1a13.16,13.16,0,0,0,2.5-1.18c.83-.48,1.94-1.15,2.73-1.63,0-1.73,0-3.31,0-4.59a17.71,17.71,0,0,1-2.59.32A2.85,2.85,0,0,1,66,68.08a2.24,2.24,0,0,1-.52-1.18c0-.19,0-.31.16-.31s.27.16.46.4a2.33,2.33,0,0,0,1.82.87,12.83,12.83,0,0,0,3-.41V64.86a3.1,3.1,0,0,0-.1-1.15c0-.39-.19-.48-.43-.56a2.32,2.32,0,0,0-.63-.12c-.35,0-.55-.07-.55-.19a.74.74,0,0,1,.39-.57,2.24,2.24,0,0,1,1.05-.39,3,3,0,0,1,1.71.63c.69.5,1,1,1,1.32a1,1,0,0,1-.22.64,3.88,3.88,0,0,0-.36.48,5.79,5.79,0,0,0-.26,1.92,6.08,6.08,0,0,0,1.66-1,1.82,1.82,0,0,1,1.15-.41c1,0,1.44.39,1.44.79s-.07.58-.65,1a11.15,11.15,0,0,1-1.58.77,19.14,19.14,0,0,1-2.12.67c0,1.11,0,2.93,0,4.23A11.3,11.3,0,0,1,78,71.24Zm-9.22,5.69c.48.29.77.43,1.18.65a2.06,2.06,0,0,0,.79.26c.14,0,.24-.09.24-.33,0-.7,0-1.59,0-2.35C70.25,75.71,69.38,76.38,68.78,76.93Zm9.58-10.3a3.78,3.78,0,0,1,2.37-.79A5,5,0,0,1,83.93,67a3.24,3.24,0,0,1,1.15,2.45c0,.7-.36,1.11-.91,1.11a1.23,1.23,0,0,1-.72-.22,1.06,1.06,0,0,0-.72-.31c-.2,0-.46,0-.75,0a7.66,7.66,0,0,0-.91.17,4.47,4.47,0,0,1-.58.12c-.07,0-.19,0-.19-.12s.1-.17.31-.31a17,17,0,0,0,1.59-1.13.45.45,0,0,0,.17-.31.59.59,0,0,0-.1-.34,2.87,2.87,0,0,0-2.54-1.29,3.83,3.83,0,0,0-1,.14,2,2,0,0,1-.39.12c-.09,0-.16,0-.16-.12A.43.43,0,0,1,78.36,66.63Z"/><path class="b" d="M109,69.64c0,2.73.1,4.12.1,4.6a.53.53,0,0,1,0,.22c.15-.19.29-.38.44-.6,2.06,1.22,2.32,1.44,2.32,1.78s-.19.36-1,.26a23.52,23.52,0,0,1-4.56,2.23,8,8,0,0,0,1,.51,17.76,17.76,0,0,0,6.72,1.51c.12,0,.14.24,0,.26A1.91,1.91,0,0,0,112.34,82c-.12.43-.31.6-.62.6a4.79,4.79,0,0,1-1-.22,20.79,20.79,0,0,1-3.48-1.51c-2.4-1.41-3.63-2.83-5.23-6.19H98.78v5c1.68-.29,3.48-.7,5.11-1.13.12,0,.2.17.1.24a38.38,38.38,0,0,1-8.26,3.55c-.19.53-.31.67-.55.67s-.55-.6-1.22-2.81c.72,0,1.63-.09,2.64-.21V73.76c0-1.82,0-3.67-.08-5.49a34,34,0,0,1-4.36,2c-.12,0-.24-.24-.15-.32a28.39,28.39,0,0,0,7.59-6.36,9.91,9.91,0,0,0,1.84-3.29c2.79.82,3.24,1.06,3.24,1.35s-.31.41-1,.48A14.72,14.72,0,0,0,108,65.58a20.86,20.86,0,0,0,6.84,2.09c.12,0,.1.26,0,.28-.77.1-1.13.48-1.49,1.69-.12.4-.22.52-.43.52a3.7,3.7,0,0,1-1.08-.36c-.65-.31-1.51-.79-2.35-1.29a3.79,3.79,0,0,1-.51.36Zm-2.28-1.88c.34-.31.58-.5.75-.65a15.48,15.48,0,0,1-4.09-4.7,21.81,21.81,0,0,1-5.35,5c.24.09.51.21.87.38h2.73v-1.1a14.56,14.56,0,0,0-.12-1.75c2.74.24,3,.45,3,.67s-.24.38-.72.65v1.53Zm.1.56h-8v2.59h8Zm0,3.14h-8v2.69h8Zm-4.25,3.24a12.47,12.47,0,0,0,3.09,3.1,28.39,28.39,0,0,0,2.55-2.31c.14-.14.26-.29.38-.43a1.71,1.71,0,0,1-.77.12c-.62,0-.88-.12-1-.48Z"/><path class="b" d="M133,77.58c0,1.08.05,2.06.05,2.9a2.22,2.22,0,0,1-.43,1.35,2.57,2.57,0,0,1-2.21.86c-.44,0-.46,0-.58-.67s-.77-1.25-2.83-1.75c-.12,0-.12-.34,0-.34,1.18.07,2.4.15,3.43.15.24,0,.31-.12.31-.36V77.58h-5.54a8.76,8.76,0,0,0-1.63.17l-.27-.89a10.72,10.72,0,0,0,1.83.17h5.61V74.89h-7.39a15.47,15.47,0,0,0-2,.15l-.26-.89a12.57,12.57,0,0,0,2.13.19h7.51V72.25h-5.28a9.15,9.15,0,0,0-1.82.19l-.27-.93a11.12,11.12,0,0,0,2,.19h5.37v-2h-4.29v.15c0,.53-.44.79-1.23.79s-1-.22-1-.7.07-1.1.07-2.73c0-.84,0-1.4-.07-2.26A13.27,13.27,0,0,1,126.69,66h4.08V64H124a13.3,13.3,0,0,0-2,.17l-.27-.92a12.18,12.18,0,0,0,2.16.2h6.89v-.41a19.7,19.7,0,0,0-.12-2.57c3.08.43,3.08.43,3.08.84,0,.24-.17.36-.75.58v1.56h5.69c1.18-1.3,1.46-1.49,1.63-1.49s.48.19,1.54,1.05c.48.39.67.58.67.75s-.07.24-.31.24H133v2h4.11c.79-.89,1-1,1.17-1s.43.15,1.25.82c.36.31.5.48.5.67s-.07.29-.57.63v.43c0,1.13.05,1.92.05,2.16,0,.55-.48.82-1.35.82-.6,0-.89-.2-.89-.65v-.15H133v2h4.54c.79-.84,1-1,1.17-1s.46.14,1.32.76c.41.32.56.48.56.68s-.08.24-.68.64v1.54h.39c.72-1.08,1-1.27,1.17-1.27s.48.19,1.35.91c.36.29.55.5.55.67s-.07.24-.31.24h-3.15c0,1.66.1,2.81.1,3.24,0,.7-.5,1-1.46,1-.6,0-.89-.24-.89-.77v-.74Zm-2.26-11h-4.29v2.59h4.29Zm6.48,2.59V66.54H133v2.59Zm.39,5.21V72.25H133v2.09Zm0,2.69V74.89H133c0,.55,0,1.13.05,2.14Z"/><path class="b" d="M157.13,71.51A2.15,2.15,0,1,1,155,69.35,2.15,2.15,0,0,1,157.13,71.51Z"/><path class="b" d="M180.91,71.24a5.45,5.45,0,0,1,3.1.87,3.86,3.86,0,0,1,1.87,3.21,3.56,3.56,0,0,1-1.56,3,4.77,4.77,0,0,1-3,.93,5,5,0,0,1-4.24-2.13,4.73,4.73,0,0,1-.72-1.25.13.13,0,0,1,.14-.12.35.35,0,0,1,.31.17,5.14,5.14,0,0,0,3.75,1.7,3.58,3.58,0,0,0,2.35-.79,2.83,2.83,0,0,0,.69-2.11,2.42,2.42,0,0,0-1.15-2.19,3.72,3.72,0,0,0-1.92-.45,7.56,7.56,0,0,0-3.5,1.15c-.58.31-1.08.62-1.56.91.05,1.42.09,2.28.14,3.15,0,.43,0,.72,0,1.17a4.31,4.31,0,0,1-.19,1.54c-.34.86-.75,1.13-1.18,1.13s-.67-.22-.81-.8c-.32-1.29-.84-1.82-2.16-3a8.28,8.28,0,0,0-1.11,1,1.2,1.2,0,0,1-1,.45,2,2,0,0,1-1.05-.36,2,2,0,0,1-1.06-1.58,1.38,1.38,0,0,1,.65-1.25c.09,0,.14,0,.19.19a1.89,1.89,0,0,0,.26.58c.1.1.17.12.41.1a13.16,13.16,0,0,0,2.5-1.18c.84-.48,1.94-1.15,2.73-1.63,0-1.73,0-3.31,0-4.59a17.83,17.83,0,0,1-2.6.32A2.85,2.85,0,0,1,169,68.08a2.2,2.2,0,0,1-.53-1.18c0-.19,0-.31.17-.31s.26.16.45.4a2.37,2.37,0,0,0,1.83.87,12.76,12.76,0,0,0,3-.41V64.86a2.87,2.87,0,0,0-.1-1.15.54.54,0,0,0-.43-.56,2.27,2.27,0,0,0-.62-.12c-.36,0-.55-.07-.55-.19a.73.73,0,0,1,.38-.57,2.24,2.24,0,0,1,1.06-.39,3,3,0,0,1,1.7.63c.7.5,1,1,1,1.32a1,1,0,0,1-.21.64,2.55,2.55,0,0,0-.36.48,5.78,5.78,0,0,0-.27,1.92,5.77,5.77,0,0,0,1.66-1,1.82,1.82,0,0,1,1.15-.41c1,0,1.44.39,1.44.79s-.07.58-.65,1a10.63,10.63,0,0,1-1.58.77,19.62,19.62,0,0,1-2.11.67c0,1.11,0,2.93,0,4.23A11.3,11.3,0,0,1,180.91,71.24Zm-9.22,5.69c.48.29.77.43,1.18.65a2.06,2.06,0,0,0,.79.26c.15,0,.24-.09.24-.33,0-.7,0-1.59,0-2.35C173.16,75.71,172.29,76.38,171.69,76.93Zm9.58-10.3a3.81,3.81,0,0,1,2.38-.79A5,5,0,0,1,186.84,67,3.24,3.24,0,0,1,188,69.44c0,.7-.36,1.11-.91,1.11a1.23,1.23,0,0,1-.72-.22,1.06,1.06,0,0,0-.72-.31c-.19,0-.46,0-.75,0a8,8,0,0,0-.91.17,4.13,4.13,0,0,1-.57.12c-.08,0-.2,0-.2-.12s.1-.17.32-.31a18.34,18.34,0,0,0,1.58-1.13.45.45,0,0,0,.17-.31.59.59,0,0,0-.1-.34,2.87,2.87,0,0,0-2.54-1.29,3.83,3.83,0,0,0-1,.14,2.18,2.18,0,0,1-.38.12c-.1,0-.17,0-.17-.12A.43.43,0,0,1,181.27,66.63Z"/><path class="b" d="M199,79.12a23.88,23.88,0,0,0,3.31-.82A6.23,6.23,0,0,0,201,76c-.07-.1.07-.29.2-.24,2.11.84,3.43,2.09,3.43,3.31a1.19,1.19,0,0,1-1.15,1.22c-.51,0-.65-.14-1-1.32A31.45,31.45,0,0,1,197,81.59c-.15.62-.29.86-.58.86s-.41-.31-1.17-2.81a11.17,11.17,0,0,0,1.65-.14V67.26c-.55.38-1.15.77-1.77,1.15-.1.07-.29-.17-.2-.24a17.83,17.83,0,0,0,3.63-4.8,15.14,15.14,0,0,0,1.08-2.71c2,.65,2.69,1,2.69,1.25s-.22.33-.84.4c2.42.7,3.69,1.59,3.69,2.64a1.09,1.09,0,0,1-1,1.13c-.57,0-.64-.12-1.29-1.41a7.33,7.33,0,0,0-1.66-2,17.61,17.61,0,0,1-3.62,4,14.18,14.18,0,0,1,1.51.76h.74V66.13c0-.29,0-.77,0-1.49,2.42.24,2.66.48,2.66.72s-.24.39-.7.53v1.58h.72c.7-.74.89-.88,1.08-.88s.44.14,1.13.72c.31.28.46.45.46.64s-.07.29-.55.61v1c0,3,.07,4.61.07,5.16s-.34.91-1.2.91-.91-.19-.91-.81v-.32H199ZM202.61,68H199v2.61h3.63ZM199,73.93h3.63V71.2H199Zm10.8,2.33c-1.34,3.12-3.79,5-7.05,6.19-.12,0-.27-.21-.17-.29a13,13,0,0,0,5.33-6A18.82,18.82,0,0,0,209,69a9.11,9.11,0,0,0-.1-1.25c2.07.16,2.88.38,2.88.74s-.17.41-.72.6A13.36,13.36,0,0,0,212.83,76,11.27,11.27,0,0,0,218,80.15c.12,0,.07.21-.05.24-.82.12-1.15.5-1.54,1.7-.07.29-.21.41-.38.41a2,2,0,0,1-.82-.55,12.83,12.83,0,0,1-3.05-4.3A17.42,17.42,0,0,1,210.86,72,13.92,13.92,0,0,1,209.78,76.26Zm-1.13-9.82a15.48,15.48,0,0,1-3.45,4.25c-.1.07-.34-.07-.27-.17a21.36,21.36,0,0,0,2.64-6.38,20.1,20.1,0,0,0,.56-3.31c2.32.57,3,.84,3,1.17s-.24.46-.84.55a21.4,21.4,0,0,1-1.37,3.34h5.14c.86-1,1-1.13,1.25-1.13s.4.15,1.39,1.08c.43.43.57.63.57.82s-.24.41-.67.45-.45.12-.81.58a22,22,0,0,1-2.38,2.23c-.1.08-.29,0-.24-.17a18.82,18.82,0,0,0,1.1-3.31Z"/><path class="b" d="M230.35,72.18c1-.24,1.9-.53,2.69-.79.12,0,.19.19.09.26a23.59,23.59,0,0,1-2.76,1.71c0,4.12,0,7,0,8.23,0,.77-.34,1.08-1.37,1.08-.74,0-1-.24-1-.82,0-1.13.05-3.62.1-7.46-.69.29-1.46.57-2.28.86-.07.63-.22.87-.5.87s-.58-.51-1.2-2.88a11.1,11.1,0,0,0,2.16-.2c.57-.09,1.2-.21,1.82-.33,0-2.55.05-4.18.05-5.84h-1.73a14.57,14.57,0,0,1-2.35,4.54c-.07.1-.31,0-.27-.07a30.83,30.83,0,0,0,1.2-6,26.31,26.31,0,0,0,.2-2.67c2,.53,2.68.77,2.68,1.08s-.16.34-.74.51a18.63,18.63,0,0,1-.53,2h1.54V64.14c0-2.16,0-2.57-.1-3.63,2.91.34,3.1.41,3.1.77s-.19.39-.84.67v4.37h.22c.69-1,1-1.2,1.15-1.2s.43.19,1.15.87c.26.24.46.48.46.64s-.08.24-.32.24h-2.66Zm8.69-6c-1.32,4.85-4,8.26-8,10.13-.12,0-.26-.17-.17-.24a18.53,18.53,0,0,0,5.86-9.89h-1.39a15.66,15.66,0,0,1-3.56,4.28c-.09.07-.28-.1-.21-.2A21.11,21.11,0,0,0,234.31,64a15.83,15.83,0,0,0,.62-3.53c2.5.36,3.24.58,3.24,1s-.24.44-.91.6a25.58,25.58,0,0,1-1.58,3.58H243c.91-1,1.1-1.15,1.29-1.15s.44.14,1.35.89c.41.33.55.5.55.69s-.07.24-.74.75c-.29,8.09-.6,11-1.44,13.39a3.23,3.23,0,0,1-1.13,1.61,3.34,3.34,0,0,1-2,.6c-.41,0-.43,0-.55-.55-.22-1-1-1.54-2.67-1.95-.12,0-.09-.36,0-.36,1.41.1,2.59.15,2.78.15,1.35,0,1.35,0,1.75-1.85a64.87,64.87,0,0,0,1-11.67h-.5c-1.37,7.56-4.39,11.84-10.27,14.52-.12,0-.27-.21-.17-.28,4.51-3.22,7.1-7.68,8.18-14.24Z"/><path class="b" d="M263.73,67.09a9.88,9.88,0,0,1-.52,2.55,17.71,17.71,0,0,1-1.52,3.45,19.68,19.68,0,0,1-2.66,4,2.62,2.62,0,0,1-2,1,2.44,2.44,0,0,1-1.83-.93c-.86-1-1.32-2.19-1.32-4.37a7.48,7.48,0,0,1,1-3.65,9.26,9.26,0,0,1,3.24-3.36,10.7,10.7,0,0,1,5.8-1.56,9.22,9.22,0,0,1,6,1.87,7.38,7.38,0,0,1,2.81,6.1,6.51,6.51,0,0,1-2.21,4.94A10.53,10.53,0,0,1,267,79.26a17.12,17.12,0,0,1-4.92.91c-.36,0-.52,0-.52-.24s.14-.24.45-.31a11.89,11.89,0,0,0,6.17-3.14,7.14,7.14,0,0,0,2.16-5.57,5.25,5.25,0,0,0-2.11-4.52,7.55,7.55,0,0,0-3.84-1.29,9.62,9.62,0,0,0-1.51,0A3.35,3.35,0,0,1,263.73,67.09Zm-5.83.1a7.34,7.34,0,0,0-2,3,6.24,6.24,0,0,0-.41,2.28,4.8,4.8,0,0,0,.6,2.59,1.57,1.57,0,0,0,1.06.79c.38,0,.74-.24,1.66-1.53A29.1,29.1,0,0,0,262,68.39a5.54,5.54,0,0,0,.51-2,1.19,1.19,0,0,0-.44-1.08A8,8,0,0,0,257.9,67.19Z"/><path class="b" d="M292.51,69.23c0,1.44,0,2.85,0,4.29h5.72c1.29-1.48,1.58-1.68,1.75-1.68s.48.2,1.63,1.16c.53.45.72.67.72.84s-.07.24-.31.24h-9.51c0,2.78,0,5.16,0,6a1.72,1.72,0,0,1-1,1.82,4.1,4.1,0,0,1-1.92.48c-.39,0-.41-.07-.65-.93s-.86-1.13-2.59-1.56c-.12,0-.12-.34,0-.34,1.41.12,2.54.19,3.48.19.24,0,.31-.09.31-.33V74.08h-7.85a8.29,8.29,0,0,0-1.46.14l-.27-.89a7.49,7.49,0,0,0,1.71.19h7.87V69.23h-6a12.61,12.61,0,0,0-1.69.14l-.26-.89a9.74,9.74,0,0,0,1.95.19h6V64.83a41.22,41.22,0,0,1-7.23.36c-.12,0-.16-.31,0-.33a41.68,41.68,0,0,0,12.26-3.34,6.3,6.3,0,0,0,1.3-.89c1.87,1.18,2.49,1.71,2.49,2.07s-.45.5-1.46.24a26.75,26.75,0,0,1-5,1.51v4.22h4.8c1.15-1.36,1.44-1.56,1.61-1.56s.48.2,1.58,1.08c.51.41.7.63.7.8s-.07.24-.31.24Z"/><path class="b" d="M313,62.65h-1.46a12.35,12.35,0,0,0-1.68.14l-.27-.88a9.84,9.84,0,0,0,1.87.19h6.08c.93-1.18,1.22-1.37,1.39-1.37s.48.19,1.44,1c.43.34.62.55.62.72s-.07.24-.31.24h-3.45v3.67H318c.65-.77.84-.91,1-.91s.44.14,1.2.77c.34.29.48.45.48.65s-.09.31-.69.72V69.8c0,6,.14,10.06.14,11.4,0,.53-.38.82-1.08.82s-.91-.24-.91-.82v-.91h-6v1c0,.58-.43.89-1.13.89s-.91-.24-.91-.79c0-1.54.14-3.07.14-9.26,0-2.28,0-4.59-.17-6.89a14,14,0,0,1,2.21,1H313Zm4.78,10.8c-1.76,0-2.21-.29-2.21-1.37,0-.28,0-.6,0-1.82V66.87h-1c-.05,4.18-.4,5.41-2.16,7.35-.07.1-.29,0-.24-.17.7-1.53.89-2.61.89-7.18h-.91v9.34h6V73.45Zm-5.57,6.29h6v-3h-6Zm2.42-13.42h1V62.65h-1Zm3.58.55h-1.08V71.6c0,.36.05.39.67.39h.41ZM328,62.6h-4.49a7.33,7.33,0,0,0-1.77.22l-.27-1a11.49,11.49,0,0,0,2,.19h4.32c.84-1,1-1.15,1.22-1.15s.46.14,1.4.89c.43.33.57.5.57.69s-.07.31-.74.82v1.2c0,3.19.12,5.4.12,6.12s-.43,1.1-1.32,1.1c-.67,0-1.06-.24-1.06-.79v-.81h-3.93v8.56c0,.92.33,1.06,2.61,1.06,1.49,0,2.4-.14,2.71-.43s.63-.94,1.4-3.46c0-.12.24-.12.24,0,0,.89-.08,2.14-.08,2.64s.05.51.41.67a.83.83,0,0,1,.46.8c0,.72-.43,1.22-1.42,1.51a15.08,15.08,0,0,1-4,.38c-3.7,0-4.59-.53-4.59-2.78,0-1.08.05-2.79.05-5.83,0-2.57,0-3.27-.14-4.92a18,18,0,0,1,2.59,1.24H328Z"/></svg>