<svg xmlns="http://www.w3.org/2000/svg" viewBox="0 0 400 150"><defs><style>.a{fill:#fff;}.b{fill:#256643;}</style></defs><rect class="a" width="400" height="150" rx="10"/><path class="b" d="M67.77,75.4A14.5,14.5,0,0,1,65.52,77c-.1.07-.27-.15-.2-.24a22.09,22.09,0,0,0,3.41-5.07,14.46,14.46,0,0,0,1-2.61c2.45,1,2.55,1.08,2.55,1.36s-.2.36-.82.51a20,20,0,0,1-1.92,2.64c.79.12.91.24.91.45s-.14.34-.62.58V84.89c0,.69-.41,1-1.23,1-.5,0-1-.21-1-.91s.17-2.52.17-6.31Zm3.68-9.91a17,17,0,0,1-5.74,5c-.1,0-.27-.19-.17-.26a18.28,18.28,0,0,0,3.19-4.46,11.33,11.33,0,0,0,.89-2.21c1.87.65,2.83,1.17,2.83,1.51S72.17,65.44,71.45,65.49Zm6.19,2c.72-1,1-1.15,1.17-1.15s.46.19,1.2.82c.32.26.51.48.51.64s-.07.24-.31.24H77.35v3.75H78c.75-1,1-1.15,1.2-1.15s.46.19,1.2.81c.31.27.51.48.51.65s-.08.24-.32.24H77.35v3.7H78c.6-.87.89-1.06,1.06-1.06s.45.19,1.15.77c.26.21.46.43.46.6s-.08.24-.32.24h-3v4.22a25.61,25.61,0,0,0,3.19-.67.27.27,0,0,1,.15.41,45,45,0,0,1-8.57,3.12c-.1.55-.24.79-.48.79s-.39-.26-1.16-2.88c.44,0,.89-.05,1.37-.07V76.29a15,15,0,0,0-.12-1.89c2.48.24,2.69.45,2.69.67s-.21.41-.62.6v5.71c.5,0,1-.12,1.53-.19V72.38H73.15a7.62,7.62,0,0,0-1.32.14l-.27-.88a6.31,6.31,0,0,0,1.49.19h2.28V68.08H73.8a11.54,11.54,0,0,1-1.92,1.61c-.1.07-.29-.07-.22-.17a15.94,15.94,0,0,0,1.78-3.69A14.11,14.11,0,0,0,74,63.67c2,.55,2.76.86,2.76,1.2s-.32.45-1,.5a10.2,10.2,0,0,1-1.41,2.16Zm7.29-1.73c.84-1,1-1.15,1.23-1.15s.43.15,1.29.87c.39.33.53.5.53.69s-.14.41-.65.79v1.83c0,9.74,0,10.85,0,11.66a2,2,0,0,1-.53,1.42,2.17,2.17,0,0,1-1.63.62c-.29,0-.38-.14-.43-.62-.1-.82-.36-1.1-1.42-1.56-.12,0-.12-.29,0-.29.53,0,.89,0,1.49,0,.29,0,.36-.1.36-.36V66.36H83.13V85c0,.62-.38.91-1.22.91-.58,0-.89-.19-.89-.72,0-.94.1-2.62.1-15.94,0-2.23,0-3.19-.12-4.61a13.64,13.64,0,0,1,2.28,1.2Z"/><path class="b" d="M97.05,73.08a21,21,0,0,1-2.59,2.66c-.1.07-.31-.1-.24-.19a27,27,0,0,0,3.86-8.16,23.83,23.83,0,0,0,.77-3.79c2.16.6,3.17,1,3.17,1.32s-.24.43-.84.55a31,31,0,0,1-2.78,5.71c1.24.19,1.41.29,1.41.53s-.14.33-.62.57V84.72c0,.69-.41,1-1.25,1-.55,0-1-.22-1-.94s.14-2.5.14-6.29Zm9.17,7.51a15.39,15.39,0,0,1-6.48,4.85c-.12,0-.26-.19-.17-.27a15.59,15.59,0,0,0,3.51-3.93,10.42,10.42,0,0,0,1.15-2.43c1.92.68,2.9,1.13,2.9,1.4S106.92,80.59,106.22,80.59ZM112,77h1c1.2-1.42,1.48-1.61,1.65-1.61s.48.19,1.61,1.15c.5.43.7.6.7.77s-.08.24-.32.24H101.78a12.47,12.47,0,0,0-1.68.14l-.26-.88a9.77,9.77,0,0,0,1.87.19h1.94V70.51h-1.08a12.07,12.07,0,0,0-1.65.14l-.27-.89a9,9,0,0,0,1.85.2h1.15V66.72c0-.94-.05-1.8-.12-2.55,2.74.24,3,.48,3,.7s-.24.38-.7.62V70h4V66.43c0-.82,0-1.59-.1-2.28,2.74.24,3,.45,3,.67s-.22.41-.7.65V70h.6c1.13-1.35,1.42-1.54,1.59-1.54s.48.19,1.56,1.1c.48.41.67.58.67.75s-.07.24-.31.24H112Zm-6.17-6.53V77h4V70.51Zm8.33,14.88c-.55,0-.86-.34-1.2-1.15a12.4,12.4,0,0,0-3.43-4.95c-.1-.07,0-.28.12-.24,3.84,1.37,5.76,3,5.76,4.73C115.39,84.67,114.86,85.39,114.14,85.39Z"/><path class="b" d="M129.84,75.26c1-.24,1.89-.53,2.68-.79.12,0,.2.19.1.26a23.59,23.59,0,0,1-2.76,1.71c0,4.13,0,7,0,8.23,0,.77-.34,1.08-1.37,1.08-.75,0-1-.24-1-.82,0-1.12,0-3.62.1-7.46-.7.29-1.47.58-2.28.86-.07.63-.22.87-.51.87s-.57-.51-1.2-2.88a11,11,0,0,0,2.16-.2c.58-.09,1.2-.21,1.83-.33,0-2.55.05-4.18.05-5.83H126a15.06,15.06,0,0,1-2.35,4.53c-.08.1-.32.05-.27-.07a30.83,30.83,0,0,0,1.2-6,26.16,26.16,0,0,0,.19-2.67c2,.53,2.69.77,2.69,1.08s-.17.34-.74.51c-.15.67-.31,1.34-.53,2h1.54V67.22c0-2.16,0-2.57-.1-3.62,2.9.33,3.1.4,3.1.76s-.2.39-.84.68V69.4h.21c.7-1,1-1.2,1.16-1.2s.43.2,1.15.87c.26.24.45.48.45.65s-.07.24-.31.24h-2.66Zm8.69-6c-1.32,4.85-4,8.26-8,10.13-.12,0-.27-.16-.17-.24a18.59,18.59,0,0,0,5.86-9.89h-1.4a15.64,15.64,0,0,1-3.55,4.28c-.09.07-.29-.1-.21-.2a21,21,0,0,0,2.71-6.24,16.45,16.45,0,0,0,.62-3.52c2.5.36,3.24.57,3.24,1s-.24.43-.91.6a25.43,25.43,0,0,1-1.58,3.57h7.32c.91-1,1.1-1.15,1.29-1.15s.43.14,1.35.89c.4.33.55.5.55.69s-.07.24-.75.75c-.28,8.09-.6,11-1.44,13.39a3.21,3.21,0,0,1-1.12,1.61,3.34,3.34,0,0,1-2,.6c-.41,0-.43,0-.55-.55-.22-1-1-1.54-2.67-1.95-.12,0-.09-.36,0-.36,1.41.1,2.59.15,2.78.15,1.34,0,1.34,0,1.75-1.85a64.87,64.87,0,0,0,1-11.67h-.5c-1.37,7.57-4.39,11.84-10.27,14.53-.12,0-.27-.22-.17-.29,4.51-3.22,7.1-7.68,8.18-14.24Z"/><path class="b" d="M159.53,74.59a2.15,2.15,0,1,1-2.16-2.16A2.14,2.14,0,0,1,159.53,74.59Z"/><path class="b" d="M171,75.4A14.5,14.5,0,0,1,168.72,77c-.1.07-.27-.15-.2-.24a22.09,22.09,0,0,0,3.41-5.07,14.46,14.46,0,0,0,1-2.61c2.45,1,2.55,1.08,2.55,1.36s-.2.36-.82.51a20,20,0,0,1-1.92,2.64c.79.12.91.24.91.45s-.14.34-.62.58V84.89c0,.69-.41,1-1.23,1-.5,0-1-.21-1-.91s.16-2.52.16-6.31Zm3.68-9.91a17,17,0,0,1-5.74,5c-.1,0-.27-.19-.17-.26a18.28,18.28,0,0,0,3.19-4.46,11.33,11.33,0,0,0,.89-2.21c1.87.65,2.83,1.17,2.83,1.51S175.37,65.44,174.65,65.49Zm6.19,2c.72-1,1-1.15,1.17-1.15s.46.19,1.2.82c.32.26.51.48.51.64s-.07.24-.31.24h-2.86v3.75h.67c.75-1,1-1.15,1.2-1.15s.46.19,1.2.81c.31.27.51.48.51.65s-.08.24-.32.24h-3.26v3.7h.67c.6-.87.89-1.06,1.06-1.06s.45.19,1.15.77c.26.21.46.43.46.6s-.08.24-.32.24h-3v4.22a25.61,25.61,0,0,0,3.19-.67.27.27,0,0,1,.15.41,45,45,0,0,1-8.57,3.12c-.1.55-.24.79-.48.79s-.39-.26-1.16-2.88c.44,0,.89-.05,1.37-.07V76.29a15,15,0,0,0-.12-1.89c2.48.24,2.69.45,2.69.67s-.21.41-.62.6v5.71c.5,0,1-.12,1.53-.19V72.38h-2.18a7.62,7.62,0,0,0-1.32.14l-.27-.88a6.31,6.31,0,0,0,1.49.19h2.28V68.08H177a11.54,11.54,0,0,1-1.92,1.61c-.1.07-.29-.07-.22-.17a15.94,15.94,0,0,0,1.78-3.69,14.11,14.11,0,0,0,.53-2.16c2,.55,2.76.86,2.76,1.2s-.32.45-1,.5a10.2,10.2,0,0,1-1.41,2.16Zm7.29-1.73c.84-1,1-1.15,1.23-1.15s.43.15,1.29.87c.39.33.53.5.53.69s-.14.41-.65.79v1.83c0,9.74.05,10.85.05,11.66a2.08,2.08,0,0,1-.52,1.42,2.19,2.19,0,0,1-1.64.62c-.29,0-.38-.14-.43-.62-.1-.82-.36-1.1-1.42-1.56-.12,0-.12-.29,0-.29.53,0,.89,0,1.49,0,.29,0,.36-.1.36-.36V66.36h-2.09V85c0,.62-.38.91-1.22.91-.58,0-.89-.19-.89-.72,0-.94.1-2.62.1-15.94,0-2.23,0-3.19-.12-4.61a13.64,13.64,0,0,1,2.28,1.2Z"/><path class="b" d="M200.25,73.08a21,21,0,0,1-2.59,2.66c-.1.07-.31-.1-.24-.19a27,27,0,0,0,3.86-8.16,23.83,23.83,0,0,0,.77-3.79c2.16.6,3.17,1,3.17,1.32s-.24.43-.84.55a31,31,0,0,1-2.78,5.71c1.25.19,1.41.29,1.41.53s-.14.33-.62.57V84.72c0,.69-.41,1-1.25,1-.55,0-1-.22-1-.94s.14-2.5.14-6.29Zm9.17,7.51a15.39,15.39,0,0,1-6.48,4.85c-.12,0-.26-.19-.17-.27a15.59,15.59,0,0,0,3.51-3.93,10,10,0,0,0,1.15-2.43c1.92.68,2.9,1.13,2.9,1.4S210.12,80.59,209.42,80.59ZM215.18,77h1c1.2-1.42,1.48-1.61,1.65-1.61s.48.19,1.61,1.15c.5.43.7.6.7.77s-.07.24-.32.24H205a12.47,12.47,0,0,0-1.68.14l-.26-.88a9.77,9.77,0,0,0,1.87.19h1.94V70.51h-1.08a12.07,12.07,0,0,0-1.65.14l-.27-.89a9,9,0,0,0,1.85.2h1.15V66.72a24.39,24.39,0,0,0-.12-2.55c2.74.24,3,.48,3,.7s-.24.38-.7.62V70h4V66.43c0-.82,0-1.59-.1-2.28,2.74.24,3,.45,3,.67s-.22.41-.7.65V70h.6c1.13-1.35,1.42-1.54,1.59-1.54s.48.19,1.56,1.1c.48.41.67.58.67.75s-.07.24-.31.24h-4.11ZM209,70.51V77h4V70.51Zm8.33,14.88c-.55,0-.86-.34-1.2-1.15a12.4,12.4,0,0,0-3.43-4.95c-.1-.07,0-.28.12-.24,3.84,1.37,5.76,3,5.76,4.73C218.59,84.67,218.06,85.39,217.34,85.39Z"/><path class="b" d="M230.73,76.12A19.93,19.93,0,0,1,226.82,79c-.1.07-.34-.17-.24-.24a18.23,18.23,0,0,0,4.61-6.53,13.68,13.68,0,0,0,.84-2.62c2.45.82,3.07,1.15,3.07,1.46s-.31.53-1,.63a20.17,20.17,0,0,1-1.87,2.81c1.11.16,1.27.26,1.27.5s-.14.34-.64.58v1.49c0,4,0,6.74,0,7.63,0,.69-.48,1-1.37,1-.62,0-1-.12-1-.74s.24-2.93.24-7.18Zm10.92-8.78c0,.82,0,1.37,0,1.61,0,.53-.41.77-1.32.77-.65,0-.94-.17-.94-.65,0-.17,0-.67,0-1.73h-4.16c0,.74,0,1.25,0,1.49,0,.57-.43.79-1.3.79-.67,0-1-.19-1-.72,0-.19.05-.67.05-1.56h-4.42a10.07,10.07,0,0,0-1.51.14l-.26-.88a8.84,8.84,0,0,0,1.77.19h4.44v-.6a12.78,12.78,0,0,0-.12-2.52c2.76.29,3,.36,3,.69s-.19.39-.75.6v1.83h4.16a24.49,24.49,0,0,0-.08-3.12c2.6.31,3,.38,3,.74,0,.17-.17.31-.7.55v1.83h3.14c1.08-1.27,1.37-1.47,1.54-1.47s.5.2,1.63,1c.51.38.7.57.7.74s-.07.24-.31.24Zm-1.92,9.51a18.74,18.74,0,0,0,3.2-2.79,10.68,10.68,0,0,0,1.8-2.62c2,1.11,2.8,1.68,2.8,2s-.24.48-1.1.44a22.6,22.6,0,0,1-6.7,3.69v4.28c0,1,.36,1.15,3.05,1.15,1.47,0,2.4-.05,3-.51s.84-1.27,1.37-3.4c0-.12.31-.08.31,0-.05.92-.05,1.76-.05,2.5,0,.53.07.65.31.74.77.34.94.51.94,1s-.46,1.08-1.49,1.36a17.32,17.32,0,0,1-4.39.39c-4.61,0-5.38-.46-5.38-3.15,0-.62.05-1.27.05-3.84,0-2.78,0-5.57-.1-8.35,2.67.29,3.22.38,3.22.72s-.26.48-.82.67Z"/><path class="b" d="M266.42,70.17a9.48,9.48,0,0,1-.53,2.55,17,17,0,0,1-1.51,3.45,19.4,19.4,0,0,1-2.66,4,2.63,2.63,0,0,1-2,1,2.44,2.44,0,0,1-1.82-.94c-.86-1-1.32-2.18-1.32-4.37a7.57,7.57,0,0,1,1-3.65,9.26,9.26,0,0,1,3.24-3.36,10.76,10.76,0,0,1,5.81-1.56,9.17,9.17,0,0,1,5.95,1.87,7.35,7.35,0,0,1,2.81,6.1,6.53,6.53,0,0,1-2.21,4.95,10.37,10.37,0,0,1-3.55,2.13,16.85,16.85,0,0,1-4.92.91c-.36,0-.53,0-.53-.24s.15-.24.46-.31a11.89,11.89,0,0,0,6.17-3.14A7.14,7.14,0,0,0,273,74a5.23,5.23,0,0,0-2.11-4.51,7.6,7.6,0,0,0-3.84-1.3,13.06,13.06,0,0,0-1.52,0A3.3,3.3,0,0,1,266.42,70.17Zm-5.83.1a7.34,7.34,0,0,0-2,3,6.24,6.24,0,0,0-.41,2.28,4.8,4.8,0,0,0,.6,2.59,1.57,1.57,0,0,0,1.06.8c.38,0,.74-.24,1.65-1.54a29.19,29.19,0,0,0,3.22-5.88,5.5,5.5,0,0,0,.5-2,1.19,1.19,0,0,0-.43-1.08A8,8,0,0,0,260.59,70.27Z"/><path class="b" d="M295.2,72.31c0,1.44,0,2.85,0,4.29h5.71c1.3-1.48,1.59-1.68,1.76-1.68s.48.2,1.63,1.16c.53.45.72.67.72.84s-.07.24-.31.24h-9.51c0,2.78,0,5.16,0,6a1.73,1.73,0,0,1-1,1.83,4.26,4.26,0,0,1-1.92.48c-.39,0-.41-.08-.65-.94s-.87-1.13-2.6-1.56c-.11,0-.11-.34,0-.34,1.42.12,2.55.2,3.48.2.25,0,.32-.1.32-.34V77.16h-7.85a8.48,8.48,0,0,0-1.47.14l-.26-.89a7.47,7.47,0,0,0,1.7.19h7.88V72.31h-6a12.47,12.47,0,0,0-1.68.14l-.26-.89a9.81,9.81,0,0,0,1.94.2h6V67.92a42.21,42.21,0,0,1-7.23.36c-.12,0-.17-.32-.05-.34a41.66,41.66,0,0,0,12.27-3.34,6.73,6.73,0,0,0,1.3-.88c1.87,1.17,2.49,1.7,2.49,2.06s-.45.5-1.46.24a27,27,0,0,1-5,1.51v4.23H300c1.15-1.37,1.44-1.56,1.61-1.56s.48.19,1.58,1.08c.5.4.7.62.7.79s-.08.24-.32.24Z"/><path class="b" d="M315.67,65.73H314.2a11.28,11.28,0,0,0-1.68.15l-.26-.89a9.77,9.77,0,0,0,1.87.19h6.07c.94-1.18,1.23-1.37,1.4-1.37s.48.19,1.44,1c.43.34.62.55.62.72s-.07.24-.31.24h-3.46V69.4h.82c.65-.76.84-.91,1-.91s.43.15,1.2.77c.34.29.48.46.48.65s-.09.31-.7.72v2.25c0,6,.15,10.06.15,11.41,0,.52-.39.81-1.08.81s-.91-.24-.91-.81v-.92h-6v1c0,.57-.44.88-1.13.88s-.91-.24-.91-.79c0-1.53.14-3.07.14-9.26,0-2.28,0-4.59-.17-6.89A14,14,0,0,1,315,69.4h.65Zm4.77,10.8c-1.75,0-2.2-.29-2.2-1.37,0-.28,0-.6,0-1.82V70h-1c-.05,4.17-.41,5.4-2.16,7.34-.07.1-.29,0-.24-.17.7-1.53.89-2.61.89-7.17h-.91v9.33h6V76.53Zm-5.56,6.29h6v-3h-6ZM317.3,69.4h1V65.73h-1Zm3.58.56H319.8v4.72c0,.36.05.39.67.39h.41Zm9.79-4.28h-4.49a7.27,7.27,0,0,0-1.77.22l-.27-1a11.49,11.49,0,0,0,2,.19h4.32c.84-1,1-1.15,1.22-1.15s.46.14,1.39.89c.44.33.58.5.58.69s-.07.32-.74.82v1.2c0,3.19.12,5.4.12,6.12s-.44,1.1-1.32,1.1c-.68,0-1.06-.24-1.06-.79V73.2h-3.94v8.57c0,.91.34,1,2.62,1,1.49,0,2.4-.14,2.71-.43s.63-.94,1.39-3.46c0-.12.24-.12.24,0,0,.89-.07,2.14-.07,2.64s.05.51.41.68a.82.82,0,0,1,.46.79c0,.72-.44,1.22-1.42,1.51a15.08,15.08,0,0,1-4,.38c-3.7,0-4.59-.52-4.59-2.78,0-1.08.05-2.78.05-5.83,0-2.57,0-3.27-.14-4.92A19.17,19.17,0,0,1,327,72.64h3.67Z"/></svg>