<svg xmlns="http://www.w3.org/2000/svg" viewBox="0 0 400 150"><defs><style>.a{fill:#fff;}.b{fill:#256643;}</style></defs><rect class="a" width="400" height="150" rx="10"/><path class="b" d="M133.39,71a1.15,1.15,0,0,1-.07.36,5.64,5.64,0,0,0-.41,2.21,2.51,2.51,0,0,0,1.27,2.21,10.28,10.28,0,0,0,4.66.86,14.76,14.76,0,0,0,4.22-.5,7.17,7.17,0,0,1,1.51-.19c1.42,0,1.9.74,1.9,1.27s-.6,1.1-1.42,1.25a23.68,23.68,0,0,1-2.47.31c-1.17.09-2.35.12-3.1.12a13,13,0,0,1-4.53-.79,5.24,5.24,0,0,1-2.23-1.68A3.51,3.51,0,0,1,132,74a5.5,5.5,0,0,1,1-3c.1-.15.19-.22.29-.22S133.39,70.91,133.39,71Zm.29-7.68c.5.67,1.56,1,3.76,1a12.72,12.72,0,0,0,4.06-.67,3.84,3.84,0,0,1,.89-.12,3.57,3.57,0,0,1,1,.12c.72.19,1.18.48,1.2,1.08s-.14.72-.65.91a7.79,7.79,0,0,1-1.58.21,19.57,19.57,0,0,0-3.55.65,15.08,15.08,0,0,0-3.12,1.32,3.61,3.61,0,0,1-.77.39c-.12,0-.17,0-.17-.15A12,12,0,0,1,137,66.13a5,5,0,0,1-2.61-.94,3.17,3.17,0,0,1-1.13-1.85c0-.16.07-.24.19-.24S133.6,63.22,133.68,63.32ZM147,62.6a1.8,1.8,0,0,1,.89,1.44.81.81,0,0,1-.8.84.85.85,0,0,1-.81-.55,8.87,8.87,0,0,0-1.52-2.11c-.09-.1-.26-.22-.26-.32s.05-.12.12-.14a1.21,1.21,0,0,1,.38,0A4.64,4.64,0,0,1,147,62.6ZM149.21,61a1.56,1.56,0,0,1,.86,1.23.8.8,0,0,1-.74.88.91.91,0,0,1-.89-.52,6.3,6.3,0,0,0-1.68-1.88c-.1-.07-.29-.19-.29-.28a.15.15,0,0,1,.07-.15.57.57,0,0,1,.38,0A4.88,4.88,0,0,1,149.21,61Z"/><path class="b" d="M161.71,76.43a3.57,3.57,0,0,0,2,1.92,14.92,14.92,0,0,0,2.45-1.71,7,7,0,0,0,1.06-1.15c2.3,1.25,2.3,1.25,2.3,1.54s-.24.43-1.17.36a11.32,11.32,0,0,1-3.8,1.2,23.87,23.87,0,0,0,4.95.4c2.09,0,3.5,0,5.59-.21a1.8,1.8,0,0,1-.72-.53,9,9,0,0,0-3.1-2.23c-.09,0-.09-.24,0-.24,3.74.14,5.09.65,5.09,1.82a1.26,1.26,0,0,1-.67,1.13c.91-.1,1.94-.19,3.19-.34.12,0,.09.2,0,.24-.67.39-.87.7-1,1.83,0,.29-.17.38-.67.43-1.27.14-3.91.19-5.81.19-4.1,0-6.53-.31-8.06-1.29A6,6,0,0,1,161,76.31a27.23,27.23,0,0,1-2.55,3.57c.07.94-.09,1.13-.41,1.13s-.86-.84-1.77-3c.45-.15,1-.36,1.49-.58a12.54,12.54,0,0,0,1.68-1V70.21h-1.66a4.87,4.87,0,0,0-1.32.19l-.26-1a5.56,5.56,0,0,0,1.56.22h1.53c.82-1,1-1.11,1.2-1.11s.43.15,1.35.84c.4.34.55.51.55.7s-.07.24-.72.77ZM160.41,65c-.55,0-.84-.29-1.17-1.49a7.13,7.13,0,0,0-1.54-2.81c-.1-.09.07-.24.19-.21,2.81.69,3.84,1.85,3.84,3.07A1.3,1.3,0,0,1,160.41,65Zm8.64-3.7a17.13,17.13,0,0,0-.12-1.89c2.57.24,2.81.48,2.81.72s-.22.38-.65.57v.75h3.22c.69-.75.89-.89,1.08-.89s.43.14,1.2.77c.33.31.48.48.48.67s-.19.41-.67.91v.24c0,.6.07,1,.07,1.13,0,.43-.48.7-1.25.7-.5,0-.74-.17-.79-.53h-3.34v1.61h4.35c.86-1,1.15-1.23,1.32-1.23s.45.19,1.27.87c.34.28.53.5.53.67s-.07.24-.31.24H163.41a8.46,8.46,0,0,0-1.37.14l-.26-.89a6.43,6.43,0,0,0,1.58.2h5.69V64.45h-3.14c-.07.45-.39.62-1.23.62-.55,0-.81-.21-.81-.6s.07-.62.07-1.87a20.11,20.11,0,0,0-.1-2.18,14,14,0,0,1,2.24,1h3Zm-2.66,13.81c-.1.52-.48.79-1.15.79s-1-.27-1-1,.09-1.49.09-4.49c0-1.15,0-2.3-.09-3.46a22.13,22.13,0,0,1,2.35,1h7.18c.69-.82.89-1,1.08-1s.45.14,1.27.74c.36.29.5.46.5.65s-.14.36-.57.67v.94c0,2.47.05,4.17.05,4.72,0,.75-.41,1-1.28,1-.6,0-.86-.2-.91-.72ZM165.93,62v1.9h3.12V62Zm8,6.58h-7.49v1.58h7.49Zm-7.49,3.69h7.49V70.71h-7.49Zm0,2.28h7.49V72.83h-7.49Zm4.68-10.65h3.34V62h-3.34Z"/><path class="b" d="M187.63,69.25A20.7,20.7,0,0,1,185,71.87c-.09.07-.31-.12-.24-.22a25.9,25.9,0,0,0,4.06-8,22.52,22.52,0,0,0,.87-3.94c2.18.6,3.16,1,3.16,1.32s-.24.43-.84.53a27.64,27.64,0,0,1-2.85,5.71c1.1.17,1.27.27,1.27.51s-.14.36-.63.57V80.79c0,.7-.4,1-1.24,1-.53,0-1-.21-1-.91s.15-2.52.15-6.31Zm11.81-1.18c0,1.83.05,4.83.09,7.47h1c.91-1.13,1.2-1.32,1.37-1.32s.46.19,1.34.93c.36.32.56.53.56.7s-.08.24-.32.24h-3.93c0,2.23.07,4.1.07,4.68s-.41.89-1.39.89c-.72,0-1.06-.22-1.06-.7,0-.69,0-2.59.07-4.87H195a10,10,0,0,0-1.51.14l-.27-.88a7.91,7.91,0,0,0,1.68.19h2.35c.05-1.73.08-4.59.08-6.15a20.85,20.85,0,0,1-7.06,7.2c-.1.08-.34-.14-.24-.24a26.23,26.23,0,0,0,6.12-10.08h-3.39a8.7,8.7,0,0,0-1.48.15l-.27-.89a7.74,7.74,0,0,0,1.66.19h4.58V62.91a22.72,22.72,0,0,0-.14-3c2.49.22,3.22.44,3.22.82s-.24.46-.89.74v4.3h4c1.1-1.39,1.39-1.58,1.56-1.58s.4.09,1.44,1c.43.38.74.69.74.86s-.07.24-.31.24h-7.25a15.08,15.08,0,0,0,3.84,5.16A17.09,17.09,0,0,0,208,74.34a.16.16,0,0,1,0,.29c-.6.12-1,.62-1.37,1.48-.17.53-.24.6-.53.6a1.75,1.75,0,0,1-.84-.45,12.79,12.79,0,0,1-3.09-3.46,22.41,22.41,0,0,1-2.69-6Z"/><path class="b" d="M232.17,63.46c1-1.15,1.18-1.29,1.37-1.29s.43.14,1.85,1.39c.67.62.74.82.74,1s-.19.55-.93.5a1.2,1.2,0,0,0-1.2.36,10.78,10.78,0,0,1-2.11,1.44c-.1,0-.27,0-.22-.17a16.94,16.94,0,0,0,.77-2.68H217.6c.1,1.89-.64,3.19-1.89,3.19a1.2,1.2,0,0,1-1.23-1.27,1.15,1.15,0,0,1,.77-1.16A2.67,2.67,0,0,0,217,62.12c0-.12.25-.14.27,0a8.31,8.31,0,0,1,.29,1.36h6.14V61.9c0-.81,0-1.46-.07-2,3,.29,3.24.58,3.24.84s-.27.43-.79.67v2Zm-1.46,6.46a16.64,16.64,0,0,1-3,6c3.74,1.36,5.37,2.71,5.37,4,0,.77-.4,1.3-1,1.3s-.7,0-1.85-1.11a26.27,26.27,0,0,0-3.75-2.9c-2.64,2.37-6.43,3.6-11.78,3.93-.12,0-.12-.31,0-.33,4.58-.89,7.8-2.33,10.06-4.61a37.94,37.94,0,0,0-4.11-1.82c-.19.31-.41.62-.62,1a1,1,0,0,1-.87.48c-.72,0-1.46-.41-1.46-.82a1.06,1.06,0,0,1,.17-.48,33.11,33.11,0,0,0,2.88-4.61h-4.32a8.5,8.5,0,0,0-1.47.15l-.26-.89a8.08,8.08,0,0,0,1.7.19h4.64l.31-.65a24.88,24.88,0,0,0,1.46-3.94c2.69.65,2.83.72,2.83,1s-.14.36-1,.55c-.36,1-.79,2-1.25,3h8.14c1.29-1.49,1.58-1.68,1.75-1.68s.48.19,1.63,1.15c.53.46.72.67.72.84s-.07.24-.31.24Zm-7.49,0A43.62,43.62,0,0,1,221,74c1.59.41,3.15.79,4.71,1.25a14.78,14.78,0,0,0,2.52-5.31Z"/><path class="b" d="M253,69.71c.14-.7.26-1.42.38-2.12h-7.58a13.43,13.43,0,0,0-1.85.15l-.27-.89a11.49,11.49,0,0,0,2,.19h7.75a21.44,21.44,0,0,0,.22-2.18c2.33.36,3,.5,3,.79s-.14.38-.82.55c-.07.29-.16.58-.24.84h5.52c1.13-1.32,1.42-1.51,1.59-1.51s.45.19,1.49,1c.45.39.64.6.64.77s-.07.24-.31.24h-9.09c-.24.72-.49,1.42-.77,2.12H259c.79-.82,1-1,1.18-1s.43.15,1.25.8c.35.31.5.48.5.67s-.07.31-.65.67v1.18c0,3.07.1,5.21.1,5.9,0,.53-.44.79-1.27.79-.68,0-.92-.16-.92-.64v-.32h-7.73v.27c0,.55-.43.81-1.32.81-.62,0-.88-.24-.88-.81,0-.82.14-2.11.14-5.88,0-1.51,0-2.09-.12-3.63a13.41,13.41,0,0,1,2.38,1.16ZM260.73,80c1.08-1.32,1.37-1.51,1.54-1.51s.48.19,1.54,1c.45.39.64.6.64.77s-.07.24-.31.24H246.86v.19c0,.72-.43,1-1.37,1-.65,0-1-.19-1-.79,0-.77.14-3.12.14-7.82a28.84,28.84,0,0,0-.14-3.84c2.25.19,3.05.4,3.05.76s-.2.39-.7.6V80Zm-13.8-15.12c0,.6-.41.81-1.37.81-.64,0-.88-.19-.88-.77s.09-.86.09-2.59c0-.89,0-1.77-.09-2.66a13.81,13.81,0,0,1,2.49,1.25h13.56c.89-1,1.08-1.11,1.27-1.11s.44.15,1.3.84c.39.34.53.51.53.7s-.17.45-.62.74v.43c0,1.08.07,1.85.07,2.09,0,.65-.44.91-1.37.91-.65,0-.94-.19-.94-.72v-.12h-14Zm3.19-3.41h-3.19v2.66h3.19Zm9.05,8.81h-7.73v1.92h7.73Zm0,2.47h-7.73v1.92h7.73Zm0,2.47h-7.73v2h7.73ZM255.5,64.11V61.45h-3.26v2.66ZM261,61.45h-3.33v2.66H261Z"/></svg>