<svg xmlns="http://www.w3.org/2000/svg" viewBox="0 0 400 150"><defs><style>.a{fill:#fff;}.b{fill:#256643;}</style></defs><rect class="a" width="400" height="150" rx="10"/><path class="b" d="M109.05,74.75a5.5,5.5,0,0,1,3.1.86A3.87,3.87,0,0,1,114,78.83a3.53,3.53,0,0,1-1.56,3,4.77,4.77,0,0,1-3,.94,5,5,0,0,1-4.25-2.14,4.89,4.89,0,0,1-.72-1.24.13.13,0,0,1,.14-.12.35.35,0,0,1,.32.16,5.08,5.08,0,0,0,3.74,1.71,3.59,3.59,0,0,0,2.35-.79,2.86,2.86,0,0,0,.7-2.12,2.43,2.43,0,0,0-1.15-2.18,3.75,3.75,0,0,0-1.92-.46,7.61,7.61,0,0,0-3.51,1.16c-.57.31-1.08.62-1.56.91,0,1.41.1,2.28.15,3.14,0,.43,0,.72,0,1.18a4.34,4.34,0,0,1-.19,1.54c-.33.86-.74,1.12-1.17,1.12s-.68-.21-.82-.79c-.31-1.29-.84-1.82-2.16-3.05a9,9,0,0,0-1.11,1,1.16,1.16,0,0,1-1,.46,2.13,2.13,0,0,1-1-.36,2,2,0,0,1-1.06-1.58,1.38,1.38,0,0,1,.65-1.25c.1,0,.14,0,.19.19a1.85,1.85,0,0,0,.27.58c.09.09.16.12.41.09a13.6,13.6,0,0,0,2.49-1.17c.84-.48,1.95-1.16,2.74-1.64,0-1.72,0-3.31,0-4.58a19.06,19.06,0,0,1-2.59.31,2.83,2.83,0,0,1-2.26-1.32,2.23,2.23,0,0,1-.53-1.17c0-.2,0-.32.17-.32s.26.17.46.41a2.33,2.33,0,0,0,1.82.87,13.36,13.36,0,0,0,3-.41V68.37a3.35,3.35,0,0,0-.09-1.16c0-.38-.19-.48-.44-.55a2.21,2.21,0,0,0-.62-.12c-.36,0-.55-.07-.55-.19a.75.75,0,0,1,.38-.58,2.39,2.39,0,0,1,1.06-.38,3,3,0,0,1,1.7.62c.7.51,1,1,1,1.32a1,1,0,0,1-.22.65,2.25,2.25,0,0,0-.36.48,5.54,5.54,0,0,0-.26,1.92,5.83,5.83,0,0,0,1.65-1,1.84,1.84,0,0,1,1.15-.41c1,0,1.44.38,1.44.79s-.07.58-.64,1a13.29,13.29,0,0,1-1.59.77,18.28,18.28,0,0,1-2.11.67c0,1.11,0,2.93,0,4.23A11.26,11.26,0,0,1,109.05,74.75Zm-9.21,5.69c.48.29.77.43,1.17.65a2.09,2.09,0,0,0,.8.26c.14,0,.24-.1.24-.34,0-.69,0-1.58,0-2.35C101.3,79.21,100.44,79.89,99.84,80.44Zm9.57-10.3a3.83,3.83,0,0,1,2.38-.79A5,5,0,0,1,115,70.5,3.19,3.19,0,0,1,116.13,73c0,.7-.36,1.1-.91,1.1a1.23,1.23,0,0,1-.72-.21,1,1,0,0,0-.72-.31c-.19,0-.45,0-.74,0a4.85,4.85,0,0,0-.91.17,4.47,4.47,0,0,1-.58.12c-.07,0-.19,0-.19-.12s.09-.17.31-.31,1.22-.8,1.58-1.13a.42.42,0,0,0,.17-.31.58.58,0,0,0-.09-.34,2.9,2.9,0,0,0-2.55-1.3,3.85,3.85,0,0,0-1,.15,1.76,1.76,0,0,1-.38.12c-.1,0-.17,0-.17-.12A.42.42,0,0,1,109.41,70.14Z"/><path class="b" d="M132.52,77.56c-2.44,2.88-4.84,4.37-9.12,5.71-.12,0-.26-.26-.16-.31a20.94,20.94,0,0,0,6.6-5.4h-4.25a12.88,12.88,0,0,0-1.71.14l-.26-.89a10,10,0,0,0,2,.2h4.65a12,12,0,0,0,1.16-2.07H129v.17c0,.58-.39.77-1.2.77s-1-.19-1-.75.09-1.34.09-4.08a24,24,0,0,0-.14-2.92,11.79,11.79,0,0,1,2.38,1.05h9.93c.75-.79.94-.93,1.13-.93s.46.14,1.25.72c.36.28.5.45.5.64s-.09.29-.62.65v.79c0,2.07.07,3.51.07,4s-.41.82-1.34.82c-.58,0-.84-.17-.84-.67v-.22H132c2.08.58,2.44.75,2.44,1.06s-.26.43-1.08.5c-.14.17-.26.34-.38.51h8.45c1.06-1.06,1.34-1.25,1.51-1.25s.53.19,1.59.86c.5.36.69.53.69.7s-.07.24-.31.24H137a13.54,13.54,0,0,0,3.84,2.16,19.63,19.63,0,0,0,5,1c.12,0,.12.31,0,.36-.79.29-.94.5-1.37,1.85-.05.19-.14.29-.29.29a3.19,3.19,0,0,1-.74-.24,17.68,17.68,0,0,1-3.62-1.92,16.28,16.28,0,0,1-3.39-3.53ZM138.21,67c0,.41,0,.7,0,.82,0,.6-.41.84-1.35.84-.62,0-.86-.22-.86-.7,0-.12,0-.4,0-1h-3.91v.94c0,.5-.38.77-1.2.77s-1-.22-1-.7c0-.14,0-.45,0-1h-4.28a12.14,12.14,0,0,0-1.75.15l-.26-.89a11.3,11.3,0,0,0,2,.19H130v-.57a13.41,13.41,0,0,0-.07-1.71c3,.34,3,.36,3,.7,0,.19-.19.33-.79.57v1h3.91V66a17.43,17.43,0,0,0-.09-1.85c2.44.24,3,.36,3,.67s-.19.41-.72.6v1h3c1.11-1.27,1.4-1.46,1.56-1.46s.53.19,1.73,1c.55.38.75.58.75.74s-.08.24-.32.24ZM135,84.69h4.83c1.32-1.44,1.6-1.63,1.77-1.63s.48.19,1.63,1.15c.51.41.7.62.7.79s-.07.24-.31.24h-17a10.56,10.56,0,0,0-1.56.14l-.27-.88a8.93,8.93,0,0,0,1.78.19h6.29V81.83H131a14.12,14.12,0,0,0-1.78.14l-.26-.88a10,10,0,0,0,1.89.19h2v-.89c0-.72-.05-1.46-.12-2.18,2.73.24,3,.48,3,.69s-.12.39-.67.63v1.75h.79c1-1.06,1.3-1.25,1.47-1.25s.48.19,1.32.89c.36.29.55.5.55.67s-.07.24-.31.24H135Zm4.18-15H129v2h10.2Zm0,2.55H129v2.11h10.2Z"/><path class="b" d="M163.08,70.6a9.9,9.9,0,0,1-.53,2.54A17.43,17.43,0,0,1,161,76.6a20.13,20.13,0,0,1-2.67,4,2.63,2.63,0,0,1-2,1,2.42,2.42,0,0,1-1.82-.94c-.87-1-1.32-2.18-1.32-4.36a7.47,7.47,0,0,1,1-3.65,9.26,9.26,0,0,1,3.24-3.36,10.74,10.74,0,0,1,5.81-1.56,9.19,9.19,0,0,1,6,1.87,7.38,7.38,0,0,1,2.81,6.1,6.53,6.53,0,0,1-2.21,4.94,10.5,10.5,0,0,1-3.55,2.14,17.25,17.25,0,0,1-4.92.91c-.36,0-.53-.05-.53-.24s.14-.24.46-.31A11.94,11.94,0,0,0,167.49,80a7.12,7.12,0,0,0,2.16-5.57,5.24,5.24,0,0,0-2.11-4.51,7.52,7.52,0,0,0-3.84-1.29,9.62,9.62,0,0,0-1.51,0A3.28,3.28,0,0,1,163.08,70.6Zm-5.84.09a7.3,7.3,0,0,0-2,3,6.25,6.25,0,0,0-.4,2.28,4.76,4.76,0,0,0,.6,2.59,1.54,1.54,0,0,0,1,.79c.39,0,.75-.24,1.66-1.54a29.42,29.42,0,0,0,3.22-5.88,5.66,5.66,0,0,0,.5-2,1.23,1.23,0,0,0-.43-1.08A8.2,8.2,0,0,0,157.24,70.69Z"/><path class="b" d="M182.66,74a.91.91,0,0,1-.91-.63,5.71,5.71,0,0,0-2-2.83c-.09-.07,0-.19.1-.19,2.54.19,3.93,1.06,3.93,2.33A1.25,1.25,0,0,1,182.66,74Zm.86,5a7.49,7.49,0,0,0-.28,1.56c0,1.25.91,2.31.91,3.58a1.55,1.55,0,0,1-1.46,1.7c-.8,0-1.16-.43-1.16-1.27s.17-1.54.17-2.31c0-1.6-.19-1.84-1.87-2.47-.12,0-.07-.38,0-.36a8.23,8.23,0,0,0,1,.12c.5,0,.79,0,1.42-1.1s1.63-3.27,3.62-7.61c0-.12.36,0,.31.1C185.33,73.57,184.41,76.26,183.52,79Zm.89-10.66c-.57,0-.72-.12-1.25-1.36a4.61,4.61,0,0,0-1.7-2.16c-.1-.08,0-.2.1-.2,2.57.22,4.05,1.11,4.05,2.45A1.2,1.2,0,0,1,184.41,68.29Zm9.82,1.42H197c.81-1,1.1-1.22,1.27-1.22s.48.19,1.34.86c.39.31.58.5.58.67s-.07.24-.31.24h-5.69v2.31h4.56c1-1.16,1.3-1.35,1.46-1.35s.46.19,1.37.94c.39.33.58.55.58.72s-.07.24-.31.24H187.44a6.42,6.42,0,0,0-1.2.14l-.27-.89a6.31,6.31,0,0,0,1.54.2h4.56V70.26h-3.46a4.26,4.26,0,0,0-1,.15l-.26-.89a4.11,4.11,0,0,0,1.2.19h3.55V67.55h-4.22a5.07,5.07,0,0,0-1.06.14l-.27-.88a4.61,4.61,0,0,0,1.28.19h4.27v-.39c0-.93,0-1.94-.12-2.61,2.78.26,3.05.5,3.05.74s-.27.46-.77.67V67h3.67c1-1.13,1.25-1.32,1.42-1.32s.48.19,1.44.91c.43.36.62.55.62.72s-.07.24-.31.24h-6.84ZM189.69,81c0,2,0,3.08,0,4.13,0,.68-.36,1-1.35,1-.69,0-.93-.24-.93-.77s.09-2.26.09-6.58c0-1.61,0-3.21-.09-4.85a20.68,20.68,0,0,1,2.4,1.13h6.84c.69-.77.89-.91,1.08-.91s.45.14,1.34.82c.41.31.55.48.55.67s-.07.29-.62.67v1.2c0,4.61.05,5.4.05,6.1a2,2,0,0,1-.63,1.77,3.46,3.46,0,0,1-2,.68c-.27,0-.41-.1-.46-.34-.17-1.06-.55-1.46-2.4-1.92-.12,0-.12-.29,0-.29,1.15.07,2,.1,2.93.1.26,0,.29,0,.29-.34V81Zm7.16-5.4h-7.16v2.12h7.16Zm0,2.67h-7.16v2.18h7.16Z"/><path class="b" d="M213.86,74.39c.75-.29,1.42-.6,1.95-.86.09,0,.24.19.14.26a24.17,24.17,0,0,1-2.09,1.75v2.79c0,3.33,0,4.25,0,5.4a2.67,2.67,0,0,1-.41,1.61,2.48,2.48,0,0,1-2.14.81c-.17,0-.29-.19-.29-.45,0-.94-.48-1.32-2-1.8-.12,0-.12-.32,0-.32.84.08,1.65.1,2.28.1.33,0,.38-.05.38-.36V77c-.43.29-.86.53-1.32.79,0,.6-.17.89-.46.89s-.4-.26-1.39-2.69a14.71,14.71,0,0,0,2-.48c.38-.12.79-.24,1.2-.38V70.09h-1.44a6.28,6.28,0,0,0-1.25.15l-.26-.89a6.34,6.34,0,0,0,1.51.19h1.44V66.88a20.57,20.57,0,0,0-.12-2.83c2.83.31,3,.4,3,.69s-.19.41-.77.65v4.15h.43c.72-1,1-1.22,1.18-1.22s.46.19,1.2.86c.31.29.5.51.5.67s-.07.24-.31.24h-3Zm14.16-.5c.82-1,1-1.11,1.2-1.11s.41.15,1.37,1.11c.43.43.58.62.58.81,0,.34-.29.46-1,.46a.88.88,0,0,0-.76.29,9.59,9.59,0,0,1-1.4,1c-.09.07-.28,0-.24-.17a6.86,6.86,0,0,0,.48-1.87H217.46a3.88,3.88,0,0,1-.41,2.06,12.62,12.62,0,0,1,2.12,1.13h2.54c0-1.06-.05-1.66-.12-2.54,2.4.24,2.88.36,2.88.76s-.19.44-.67.63v1.15h2.88c.77-.84,1-1,1.15-1s.43.14,1.25.84c.36.31.5.48.5.67s-.12.33-.62.74v.55c0,1.61,0,2,0,2.74s-.07,1-.38,1.27a2.47,2.47,0,0,1-1.8.68c-.41,0-.41-.2-.58-.89-.12-.53-.48-.75-1.61-1.08-.12,0-.12-.29,0-.29.8.05,1.32.07,1.83.07s.43,0,.43-.29V78.18H223.8c0,3.65.09,6.15.09,7s-.5,1-1.32,1-1-.22-1-.79.1-2.74.1-6.75v-.41H218.9v5c0,.62-.36.88-1.25.88-.6,0-.88-.19-.88-.69s.09-1.13.09-3.24c0-1.11,0-2.21-.05-3.32a1.33,1.33,0,0,1-1,.48,1,1,0,0,1-1.05-1.05c0-.43.21-.72.79-1.11A2.29,2.29,0,0,0,216.86,73c0-.12.22-.17.27,0a4.65,4.65,0,0,1,.26,1Zm-8.42-5A8.46,8.46,0,0,0,218,69l-.26-.88a11.31,11.31,0,0,0,1.87.16h6.45V65.94H219a6.31,6.31,0,0,0-1.49.19l-.26-.93a8.1,8.1,0,0,0,1.71.19h6.88c.87-1,1.06-1.15,1.25-1.15s.43.14,1.35.89c.4.33.55.5.55.69s-.07.36-.77.82v.86c0,2.28.07,3.89.07,4.39,0,.68-.38.94-1.32.94-.6,0-.89-.22-.89-.79v-.19h-7.17a5.58,5.58,0,0,0-1.3.16l-.26-.88a7.33,7.33,0,0,0,1.51.16h7.22V68.85Z"/><path class="b" d="M244.61,75a2.15,2.15,0,1,1-2.17-2.16A2.15,2.15,0,0,1,244.61,75Z"/><path class="b" d="M258.53,67.19a11.17,11.17,0,0,1-4,3.48c-.1,0-.24-.1-.17-.19a19.11,19.11,0,0,0,2.36-3.77,11,11,0,0,0,1-2.78c2,.5,2.81.84,2.81,1.17s-.24.43-.91.51c-.22.36-.46.72-.68,1h3.29c.89-1.15,1.18-1.35,1.35-1.35s.48.2,1.44,1c.4.32.6.53.6.7s-.08.24-.32.24h-5.11c1.51.48,2.28,1.18,2.28,2.06a1.15,1.15,0,0,1-1.1,1.23c-.67,0-.87-.24-1-1.37a4.55,4.55,0,0,0-.72-1.92Zm14.06,4c.94-1.12,1.13-1.27,1.32-1.27s.43.15,1.58,1.13c.58.48.7.67.7.86s-.24.48-.72.48-.77.08-.94.2a12.52,12.52,0,0,1-2,1.29c-.09,0-.24-.07-.19-.19a13.5,13.5,0,0,0,.53-1.94h-15c0,2-.86,3.19-2,3.19a1.24,1.24,0,0,1-1.25-1.3c0-.5.24-.81.91-1.1A2.69,2.69,0,0,0,257.33,70c0-.12.23-.12.26,0a11.83,11.83,0,0,1,.22,1.17h6v-1c0-.41-.05-.89-.1-1.44l1.25.15a12.49,12.49,0,0,0,1.2-2.6,11.65,11.65,0,0,0,.53-2.3c2.2.53,2.8.77,2.8,1.1s-.19.41-.91.48a8.77,8.77,0,0,1-.72,1.11h4.23c1.05-1.35,1.34-1.54,1.51-1.54s.48.19,1.63,1.06c.53.43.72.62.72.79s-.07.24-.31.24h-6.29c1.56.58,2.18,1.2,2.18,2.06a1.15,1.15,0,0,1-1.08,1.23c-.72,0-.91-.24-1.08-1.39a4.63,4.63,0,0,0-.67-1.9h-1.27a10.27,10.27,0,0,1-1.92,1.75c1,.19,1.15.39,1.15.58s-.26.41-.74.57v1.08Zm-2.88,9c.86-1,1.06-1.16,1.25-1.16s.43.15,1.34.87c.41.33.56.5.56.69s-.08.24-.63.7v.89c0,1.75.07,2.69.07,3,0,.68-.45,1-1.39,1-.7,0-.91-.21-.91-.84v-.67h-8.95v.53c0,.74-.39,1-1.3,1-.67,0-1-.24-1-.74,0-1.23.12-3,.12-7.92,0-1.78,0-3.08-.17-4.88a19.06,19.06,0,0,1,2.57,1.2h7.24c.72-.79.92-.93,1.11-.93s.45.14,1.32.77c.38.28.53.45.53.64s-.17.36-.65.65v.46c0,1.15.05,1.94.05,2.21,0,.67-.36,1-1.23,1s-1-.22-1-.87h-7.65v2.43Zm-1-5.76h-7.65v2.78h7.65ZM261.05,84H270V80.68h-8.95Z"/><path class="b" d="M288,78.69c1.18-.41,2.33-.84,3.24-1.23.12,0,.24.19.15.27A28.45,28.45,0,0,1,284.73,82c0,.77-.17,1-.5,1s-.65-.53-1.63-2.88a20.7,20.7,0,0,0,2.13-.46c.36-.1.75-.19,1.13-.31V73.19h-1.05a7.72,7.72,0,0,0-1.33.14l-.26-.88a6.76,6.76,0,0,0,1.54.19h1.1V67h-1.34a7.62,7.62,0,0,0-1.32.14l-.27-.88a6.4,6.4,0,0,0,1.51.19h3.39c.84-1.11,1.13-1.3,1.3-1.3s.48.19,1.39.91c.38.32.57.53.57.7s-.07.24-.31.24H288v5.69h.19c.68-1,1-1.18,1.13-1.18s.46.19,1.2.84c.29.27.48.48.48.65s-.07.24-.31.24H288Zm10.63.52h1.66c1.25-1.39,1.54-1.58,1.7-1.58s.48.19,1.59,1.1c.48.41.67.63.67.8s-.07.24-.31.24h-5.31v4.44h2.6c1.36-1.44,1.65-1.63,1.82-1.63s.48.19,1.63,1.15c.51.41.7.62.7.79s-.07.24-.31.24H290.76a10.56,10.56,0,0,0-1.56.14l-.27-.88a8.61,8.61,0,0,0,1.76.19h5.8V79.77H293a8.82,8.82,0,0,0-1.51.14l-.27-.89a7.55,7.55,0,0,0,1.71.19h3.57v-4h-2.76v.6c0,.6-.4.84-1.36.84-.68,0-1-.24-1-.84,0-.76.14-2.52.14-6.88,0-1.47,0-2.21-.14-4.42a24.14,24.14,0,0,1,2.49,1.25h7.59c.79-.91,1-1.06,1.17-1.06s.46.15,1.42.91c.43.36.57.53.57.72s-.21.46-.86.84v1.4c0,3.67.1,6.19.1,7,0,.62-.39.89-1.37.89-.62,0-.89-.22-.89-.77v-.51h-3Zm-2.16-9V66.35h-2.76v3.82Zm0,4.53v-4h-2.76v4Zm5.14-4.53V66.35h-3v3.82Zm0,4.53v-4h-3v4Z"/></svg>