<svg xmlns="http://www.w3.org/2000/svg" viewBox="0 0 400 150"><defs><style>.a{fill:#fff;}.b{fill:#256643;}</style></defs><rect class="a" width="400" height="150" rx="10"/><path class="b" d="M123.45,50.41a5.43,5.43,0,0,1,3.1.87,3.86,3.86,0,0,1,1.87,3.21,3.56,3.56,0,0,1-1.56,3,4.82,4.82,0,0,1-3,.93,5.06,5.06,0,0,1-4.25-2.13,4.73,4.73,0,0,1-.72-1.25A.13.13,0,0,1,119,55a.36.36,0,0,1,.32.17,5.11,5.11,0,0,0,3.74,1.7,3.59,3.59,0,0,0,2.35-.79,2.84,2.84,0,0,0,.7-2.11A2.44,2.44,0,0,0,125,51.73a3.74,3.74,0,0,0-1.92-.45,7.6,7.6,0,0,0-3.51,1.15c-.57.31-1.08.62-1.56.91,0,1.42.1,2.28.15,3.14,0,.44,0,.72,0,1.18A4.34,4.34,0,0,1,118,59.2c-.33.86-.74,1.12-1.17,1.12s-.68-.21-.82-.79c-.31-1.29-.84-1.82-2.16-3.05a9.66,9.66,0,0,0-1.11,1,1.18,1.18,0,0,1-1,.45,2.13,2.13,0,0,1-1.05-.36A2,2,0,0,1,109.65,56a1.38,1.38,0,0,1,.65-1.25c.1,0,.14,0,.19.19a1.85,1.85,0,0,0,.27.58c.09.09.17.12.41.09a12.35,12.35,0,0,0,2.49-1.17c.84-.48,2-1.15,2.74-1.63,0-1.73,0-3.32-.05-4.59a17.59,17.59,0,0,1-2.59.31,2.83,2.83,0,0,1-2.26-1.32,2.23,2.23,0,0,1-.53-1.17c0-.19,0-.31.17-.31s.26.16.46.4a2.33,2.33,0,0,0,1.82.87,12.76,12.76,0,0,0,3-.41V44a3.23,3.23,0,0,0-.09-1.15c0-.39-.19-.49-.43-.56a2.32,2.32,0,0,0-.63-.12c-.36,0-.55-.07-.55-.19a.75.75,0,0,1,.38-.58,2.39,2.39,0,0,1,1.06-.38,3,3,0,0,1,1.7.62c.7.51,1,1,1,1.32a1,1,0,0,1-.22.65,2.55,2.55,0,0,0-.36.48A5.54,5.54,0,0,0,118,46a5.83,5.83,0,0,0,1.65-1,1.84,1.84,0,0,1,1.15-.41c1,0,1.44.39,1.44.79s-.07.58-.64,1a10.8,10.8,0,0,1-1.59.77,18.28,18.28,0,0,1-2.11.67c0,1.11,0,2.93,0,4.23A11.37,11.37,0,0,1,123.45,50.41Zm-9.21,5.69c.48.29.77.43,1.17.65a2.09,2.09,0,0,0,.8.26c.14,0,.24-.09.24-.33,0-.7,0-1.59,0-2.36C115.7,54.88,114.84,55.55,114.24,56.1Zm9.57-10.3a3.83,3.83,0,0,1,2.38-.79,5,5,0,0,1,3.19,1.15,3.21,3.21,0,0,1,1.15,2.45c0,.7-.35,1.11-.91,1.11a1.25,1.25,0,0,1-.72-.22,1,1,0,0,0-.72-.31c-.19,0-.45,0-.74,0a5.83,5.83,0,0,0-.91.17,4.47,4.47,0,0,1-.58.12c-.07,0-.19,0-.19-.12s.09-.17.31-.31a18.34,18.34,0,0,0,1.58-1.13.42.42,0,0,0,.17-.31.58.58,0,0,0-.09-.34A2.89,2.89,0,0,0,125.18,46a3.9,3.9,0,0,0-1,.14,1.76,1.76,0,0,1-.38.12c-.1,0-.17,0-.17-.12A.43.43,0,0,1,123.81,45.8Z"/><path class="b" d="M141.21,49.14a20.17,20.17,0,0,1-3.45,3c-.1.07-.32-.09-.24-.19a25.74,25.74,0,0,0,4.84-7.82,19.65,19.65,0,0,0,1.18-4.25c2.21.62,3.19,1,3.19,1.34s-.24.43-.91.58a27.18,27.18,0,0,1-3,5.49c1,.17,1.2.27,1.2.51s-.15.33-.63.55V60.76c0,.69-.43,1-1.25,1-.52,0-1.05-.19-1.05-.86s.14-2.54.14-6.36Zm15.1,8.66a67,67,0,0,1-10.2,2.33c-.17.77-.26.94-.55.94s-.39,0-1.25-3.39a10.51,10.51,0,0,0,1.49.1h.52a78.83,78.83,0,0,0,3.46-13.18,36,36,0,0,0,.43-4.17c3.34.72,3.7.86,3.7,1.24s-.22.51-.94.72a58.18,58.18,0,0,1-5.61,15.37c2,0,6.41-.32,8.78-.6a27.4,27.4,0,0,0-2.49-6.29c-.05-.1.19-.27.28-.17,3.77,3.7,5.38,6.17,5.38,8.26,0,1.15-.58,1.92-1.42,1.92-.67,0-1-.48-1.36-2.07Z"/><path class="b" d="M177.48,58.88c0,.56-.46.8-1.18.8s-.89-.17-.89-.68c0-.79.07-1.72.07-4.94,0-.6,0-1.2,0-1.82a1.37,1.37,0,0,1-.29,0c-.6,0-.89-.17-.89-.62,0-.77.07-1.56.07-4.37a.4.4,0,0,1-.26.07h-2.55v7.18c1-.27,2-.58,2.81-.87.12,0,.22.22.12.29a29.42,29.42,0,0,1-6.09,3.53c-.05.72-.2,1-.53,1s-.7-.67-1.47-2.9a17.74,17.74,0,0,0,2-.32l1-.21V47.34h-1.22a7.1,7.1,0,0,0-1.27.14l-.27-.88a5.73,5.73,0,0,0,1.42.19h1.34V43c0-1.22-.07-2.11-.14-2.9,2.88.26,3.17.53,3.17.79s-.29.43-.87.72v5.14h.24c.58-1.11.87-1.3,1-1.3s.43.19,1.15.91a3,3,0,0,1,.38.48v-.26c0-1,0-2-.09-3.07a15.57,15.57,0,0,1,2.25,1h8.28c.72-.77.92-.92,1.11-.92s.43.15,1.2.8c.33.28.48.45.48.64s-.19.44-.63.7v.91c0,2.38.1,4.08.1,4.61s-.43.77-1.15.77-.91-.19-.91-.67h-8.72v.12a.64.64,0,0,1-.43.64,15.2,15.2,0,0,1,1.92.87h5.74c.67-.87.86-1,1.05-1s.46.14,1.28.74c.38.29.52.46.52.65s-.14.39-.62.72v.75c0,1.94,0,3.33,0,3.76s-.43.84-1.25.84c-.55,0-.82-.21-.82-.74h-6.21Zm8,1.64c1-1.23,1.29-1.42,1.46-1.42s.48.19,1.47,1c.43.36.62.58.62.75s-.07.24-.31.24H174a13.43,13.43,0,0,0-1.75.14l-.26-.89a9.92,9.92,0,0,0,2,.2Zm-6.1-18.77a12.77,12.77,0,0,0-.12-2c2.79.24,3.07.48,3.07.7s-.24.41-.77.62v1.3h3.51c1-1.23,1.27-1.42,1.44-1.42s.48.19,1.54,1c.48.38.67.57.67.74s-.07.24-.31.24H175.1a11.41,11.41,0,0,0-1.7.15l-.27-.89a10.54,10.54,0,0,0,2,.19h4.34ZM185,45.11h-8.72v5.73H185Zm-1.28,8.47h-6.21v2h6.21Zm0,2.52h-6.21v2.09h6.21Zm-4.32-6.74c0,.55-.36.74-1.05.74-.48,0-.77-.14-.77-.58,0-.26,0-.72,0-1.8,0-.64,0-1.29,0-1.94a11.43,11.43,0,0,1,1.92.82h2.23c.55-.6.75-.75.94-.75s.43.15,1,.6c.24.19.38.36.38.55s-.12.29-.46.51v.29c0,.72.05,1.32.05,1.48,0,.48-.33.7-1.1.7-.46,0-.7-.17-.7-.62Zm2.45-2.21h-2.45V48.8h2.45Z"/><path class="b" d="M202.58,50.68a2.15,2.15,0,1,1-2.16-2.16A2.14,2.14,0,0,1,202.58,50.68Z"/><path class="b" d="M215.61,49.14a20.17,20.17,0,0,1-3.45,3c-.1.07-.32-.09-.24-.19a25.55,25.55,0,0,0,4.84-7.82,19.65,19.65,0,0,0,1.18-4.25c2.21.62,3.19,1,3.19,1.34s-.24.43-.91.58a27.18,27.18,0,0,1-3,5.49c1,.17,1.2.27,1.2.51s-.15.33-.63.55V60.76c0,.69-.43,1-1.25,1-.52,0-1.05-.19-1.05-.86s.14-2.54.14-6.36Zm15.1,8.66a67,67,0,0,1-10.2,2.33c-.17.77-.26.94-.55.94s-.39,0-1.25-3.39a10.51,10.51,0,0,0,1.49.1h.52a78.83,78.83,0,0,0,3.46-13.18,36,36,0,0,0,.43-4.17c3.34.72,3.7.86,3.7,1.24s-.22.51-.94.72a58.18,58.18,0,0,1-5.61,15.37c2,0,6.41-.32,8.78-.6a27.4,27.4,0,0,0-2.49-6.29c-.05-.1.19-.27.28-.17,3.77,3.7,5.38,6.17,5.38,8.26,0,1.15-.58,1.92-1.42,1.92-.67,0-1-.48-1.36-2.07Z"/><path class="b" d="M259,55.33c1.25-1.46,1.49-1.7,1.66-1.7s.48.19,1.7,1.17c.55.46.75.68.75.84s-.08.24-.32.24H243.4a13.42,13.42,0,0,0-1.84.15l-.27-.89a11.49,11.49,0,0,0,2,.19Zm-9.93,3.31a17.29,17.29,0,0,1-7.28,3c-.12,0-.21-.19-.12-.24A20,20,0,0,0,246,58.33a10.2,10.2,0,0,0,1.56-2c2.33,1.13,2.88,1.47,2.88,1.78S250.22,58.67,249.05,58.64Zm-1.59-5.54c0,.6-.43.89-1.44.89-.7,0-.94-.24-.94-.84,0-1.56.12-3.15.12-9.43A32.36,32.36,0,0,0,245,40a13.62,13.62,0,0,1,2.61,1.39H256c.91-1,1.1-1.15,1.29-1.15s.41.15,1.3.94c.38.36.53.55.53.74s-.15.36-.68.75v1.7c0,4.56.12,7.61.12,8.64,0,.58-.5.89-1.41.89-.67,0-.94-.22-.94-.72v-.46h-8.76ZM256.22,42h-8.76v2.93h8.76Zm-8.76,6.45h8.76v-3h-8.76Zm0,3.77h8.76V49h-8.76Zm11.76,9.39c-.55,0-.93-.27-1.51-1.06a11,11,0,0,0-4.32-3.5c-.12,0,0-.29.12-.27,4.58.6,6.94,1.83,6.94,3.6A1.22,1.22,0,0,1,259.22,61.6Z"/><path class="b" d="M280.68,46.26a9.82,9.82,0,0,1-.53,2.54,17.43,17.43,0,0,1-1.51,3.46,20.13,20.13,0,0,1-2.67,4,2.63,2.63,0,0,1-2,1,2.44,2.44,0,0,1-1.82-.93c-.87-1-1.32-2.19-1.32-4.37a7.47,7.47,0,0,1,1-3.65,9.26,9.26,0,0,1,3.24-3.36,10.74,10.74,0,0,1,5.81-1.56,9.19,9.19,0,0,1,5.95,1.87,7.38,7.38,0,0,1,2.81,6.1,6.51,6.51,0,0,1-2.21,4.94,10.5,10.5,0,0,1-3.55,2.14,17.25,17.25,0,0,1-4.92.91c-.36,0-.53-.05-.53-.24s.14-.24.46-.31a11.94,11.94,0,0,0,6.16-3.15,7.1,7.1,0,0,0,2.16-5.56,5.25,5.25,0,0,0-2.11-4.52,7.52,7.52,0,0,0-3.84-1.29,9.62,9.62,0,0,0-1.51,0A3.3,3.3,0,0,1,280.68,46.26Zm-5.83.1a7.14,7.14,0,0,0-2,3,6,6,0,0,0-.41,2.28,4.71,4.71,0,0,0,.6,2.59,1.54,1.54,0,0,0,1.05.79c.39,0,.75-.24,1.66-1.53a30,30,0,0,0,3.22-5.88,5.7,5.7,0,0,0,.5-2,1.21,1.21,0,0,0-.43-1.08A8,8,0,0,0,274.85,46.36Z"/><path class="b" d="M141.54,105.92a10.15,10.15,0,0,1-4.23,3.65c-.12.05-.26-.14-.19-.24a10,10,0,0,0,2-3.17,9.63,9.63,0,0,0,.55-1.89c2,.77,2.59,1,2.59,1.29S142.06,105.88,141.54,105.92Zm-1-2.78v.14c0,.56-.48.8-1.25.8s-.91-.22-.91-.7c0-1.37.12-4.2.12-9.74,0-2.24,0-3-.12-5.26a15.82,15.82,0,0,1,2.37,1.13h2.57c.65-.92.84-1.06,1-1.06s.44.14,1.25.86c.36.34.51.51.51.7s-.12.34-.68.72v2c0,5.4.05,9.12.05,10.35,0,.5-.33.81-1.17.81-.56,0-.89-.17-.89-.65v-.14Zm2.88-13.08h-2.88v3.72h2.88Zm0,4.27h-2.88V98h2.88Zm0,4.2h-2.88v4.06h2.88Zm.86,9.31c-.57,0-.77-.26-1-1.24a4.52,4.52,0,0,0-1-2.09c-.07-.1,0-.19.15-.15,2,.68,2.88,1.35,2.88,2.33A1.09,1.09,0,0,1,144.32,107.84Zm11.35-12.55c.84-1,1-1.15,1.23-1.15s.43.14,1.32.91c.41.39.55.55.55.75s-.17.36-.79.72a19.62,19.62,0,0,1-3.29,7.22,10.58,10.58,0,0,0,5.23,3.24c.12,0,.1.26,0,.31a2.76,2.76,0,0,0-1.54,1.8c-.12.29-.19.41-.38.41a1.8,1.8,0,0,1-.7-.36,15.94,15.94,0,0,1-3.79-4,18.37,18.37,0,0,1-7.08,4.39c-.12,0-.26-.22-.17-.29a22.84,22.84,0,0,0,6.36-5.64,21.89,21.89,0,0,1-1.85-7.78h-.64a27.48,27.48,0,0,1-.82,6.6,13.42,13.42,0,0,1-4.39,6.94c-.1.07-.31-.12-.24-.22a16.89,16.89,0,0,0,2.83-7,59.1,59.1,0,0,0,.46-10c0-1.56-.08-2.35-.2-3.82a12.73,12.73,0,0,1,2.52,1.35h5.31c1.2-1.4,1.39-1.54,1.58-1.54s.46.14,1.66,1.06c.55.43.69.6.69.79s-.09.24-.36.24h-9v.89c0,1.49,0,2.85,0,4.1Zm-4.41.55a14.73,14.73,0,0,0,2.25,6.36,19.41,19.41,0,0,0,2.21-6.36Z"/><path class="b" d="M175.09,100.57c-.12,5.5-2.38,8-8.76,9.15-.12,0-.22-.32-.1-.36,5-1.92,6.48-4.06,6.48-9.15,0-.26,0-.53,0-1,2.59.24,3.19.38,3.19.82C175.88,100.24,175.69,100.38,175.09,100.57Zm9.24-2.9c.91-1.11,1.1-1.25,1.3-1.25s.4.14,1.56,1.25c.5.48.64.67.64.86,0,.43-.14.58-1.08.58a.82.82,0,0,0-.67.24,15.91,15.91,0,0,1-2.28,1.51c-.09,0-.29-.07-.24-.17a9.89,9.89,0,0,0,1-2.47h-15c0,1.85-.84,3.22-2.28,3.22a1,1,0,0,1-1.06-1.06c0-.53.24-.89.92-1.27A3.14,3.14,0,0,0,169,96.2c0-.12.24-.14.26,0a6.69,6.69,0,0,1,.27,1.49Zm-6.41-3h4.23c1.12-1.32,1.41-1.51,1.58-1.51s.48.19,1.54,1c.45.39.64.6.64.77s-.07.24-.31.24h-15a10.69,10.69,0,0,0-1.64.15l-.26-.89a9.17,9.17,0,0,0,1.83.19h5.11V91.76h-7.15a11.42,11.42,0,0,0-1.71.15L166.5,91a9.77,9.77,0,0,0,1.87.19h7.25v-1a18.54,18.54,0,0,0-.15-2.35c3,.26,3.29.53,3.29.79s-.26.41-.84.6v2h5.93c1.15-1.37,1.44-1.56,1.61-1.56s.48.19,1.63,1.08c.53.43.72.63.72.79s-.07.24-.31.24h-9.58Zm2.35,11.69c0,.67.22.86,2.21.86a7.06,7.06,0,0,0,2.35-.21c.72-.22,1.13-1.13,1.85-3.51,0-.12.29-.12.29,0,0,.87-.07,1.92-.07,2.59,0,.32,0,.39.19.46.65.31.82.62.82,1,0,.6-.32,1-1.13,1.3a18,18,0,0,1-4.56.38c-3.48,0-4.23-.33-4.23-2.13v-3.94c0-1.3,0-2.62-.07-3.94,3.07.44,3.07.44,3.07.8s-.16.38-.72.6Z"/><path class="b" d="M202.14,98.68A2.15,2.15,0,1,1,200,96.52,2.14,2.14,0,0,1,202.14,98.68Z"/><path class="b" d="M218.82,92.34c.81-.94,1-1.08,1.2-1.08s.43.14,1.32.86c.41.34.55.51.55.7s-.22.46-.7.67c-.62,4.35-1.48,7.42-3,9.91.15.2.34.39.51.58,2,2.14,4.41,3,8.78,3a49.66,49.66,0,0,0,6.84-.48c.12,0,.1.19,0,.24-.69.39-.91.77-1,1.8,0,.36-.17.53-1,.6-.62.07-1.61.07-3.24.07-5.31,0-7.9-.72-10.13-2.85a10.85,10.85,0,0,1-1.49-1.75,21.8,21.8,0,0,1-5.64,5c-.09.07-.31-.21-.21-.29a21.47,21.47,0,0,0,4.92-6.5,26.75,26.75,0,0,1-1.59-5.88,16.11,16.11,0,0,1-3.19,4.08c-.1.07-.29-.07-.22-.17a24.39,24.39,0,0,0,3.12-8.54A31.59,31.59,0,0,0,215.1,88c2.11.27,3.09.58,3.09.92s-.26.45-.79.6c-.24,1-.48,2-.72,2.83Zm-2.31.55a25.36,25.36,0,0,1-1.29,3.39A21.07,21.07,0,0,0,217,101.6a31.87,31.87,0,0,0,2-8.71Zm16.59,8.67c0,.5.05.55.38.76a.94.94,0,0,1,.58.92c0,.43-.31.79-.89,1a6.46,6.46,0,0,1-2.14.31c-2.37,0-3-.38-3-1.87s0-2.62,0-3.79V90.8h-2.74V92c0,4.06-.24,6.51-.89,8.33s-1.87,3-3.88,4.51c-.1.08-.32-.09-.24-.19a10.9,10.9,0,0,0,2.37-4.68,30.62,30.62,0,0,0,.43-6.36c0-2.11,0-3.29-.14-4.73a20.61,20.61,0,0,1,2.52,1.37h2.4c.82-.94,1.06-1.1,1.25-1.1s.46.12,1.29.86c.39.34.58.55.58.74s-.17.41-.72.75V102c0,.43.12.53.74.53a.87.87,0,0,0,1-.62,17.48,17.48,0,0,0,.79-3c0-.12.29-.07.29.05Z"/><path class="b" d="M249.68,90.13c-2.42,4.56-4.8,7-9.12,9.22-.09.05-.29-.19-.19-.27a23.25,23.25,0,0,0,5.81-7.46,16.14,16.14,0,0,0,1.25-3.51c2.47.82,3.24,1.18,3.24,1.49S250.4,90.08,249.68,90.13Zm1.25,8.11c-.62,6.32-3.6,9.72-10,11.45-.12,0-.21-.24-.12-.29,5-2.76,7.09-5.85,7.61-11.16h-1.82a10.71,10.71,0,0,0-2,.2l-.26-1a11.82,11.82,0,0,0,2.21.21h9.09c.94-.91,1.13-1,1.32-1s.44.14,1.37,1c.43.4.58.57.58.76s0,.24-.7.7a30,30,0,0,1-1.25,8.09,3.63,3.63,0,0,1-1.1,1.63,3.28,3.28,0,0,1-2.06.67c-.6,0-.75,0-.89-.67s-.84-1.25-2.74-1.82c-.12,0-.07-.44.05-.41a25.46,25.46,0,0,0,3.55.41c.67,0,.94-.39,1.35-2a38.54,38.54,0,0,0,.79-6.72Zm12.17-1.6c-.77.16-1.13.57-1.42,1.68-.12.55-.21.69-.41.69a2.84,2.84,0,0,1-1-.53,17,17,0,0,1-2.59-2.2c-1.64-1.73-2.5-3.36-3.84-6.85a1.22,1.22,0,0,0-.32-.43.37.37,0,0,1-.19-.26c0-.19.63-.43.94-.43.14,0,.24.07.24.19a3.49,3.49,0,0,0-.12.43,1.6,1.6,0,0,0,.14.53A13.06,13.06,0,0,0,258,93.92a12.22,12.22,0,0,0,5.11,2.36C263.24,96.3,263.22,96.61,263.1,96.64Z"/></svg>