<svg xmlns="http://www.w3.org/2000/svg" viewBox="0 0 400 150"><defs><style>.a{fill:#fff;}.b{fill:#256643;}</style></defs><rect class="a" width="400" height="150" rx="10"/><path class="b" d="M143.27,70.31a5.41,5.41,0,0,1,3.09.86,3.86,3.86,0,0,1,1.87,3.22,3.56,3.56,0,0,1-1.55,3,4.8,4.8,0,0,1-3,.94,5.47,5.47,0,0,1-5-3.39.14.14,0,0,1,.15-.12.36.36,0,0,1,.31.17,5.12,5.12,0,0,0,3.74,1.7,3.54,3.54,0,0,0,2.35-.79,2.79,2.79,0,0,0,.7-2.11,2.41,2.41,0,0,0-1.15-2.18,3.64,3.64,0,0,0-1.92-.46,7.6,7.6,0,0,0-3.51,1.15c-.57.31-1.08.63-1.56.91.05,1.42.1,2.28.15,3.15,0,.43.05.72.05,1.17a4.3,4.3,0,0,1-.2,1.54c-.33.86-.74,1.13-1.17,1.13s-.68-.22-.82-.79c-.31-1.3-.84-1.83-2.16-3.05a8,8,0,0,0-1.1,1,1.21,1.21,0,0,1-1,.46,2.17,2.17,0,0,1-1.06-.36,2,2,0,0,1-1.06-1.59,1.4,1.4,0,0,1,.65-1.25c.1,0,.15,0,.19.2a1.89,1.89,0,0,0,.27.57c.1.1.17.12.41.1a13.15,13.15,0,0,0,2.49-1.18c.84-.48,1.95-1.15,2.74-1.63,0-1.73,0-3.31-.05-4.58a19.06,19.06,0,0,1-2.59.31,2.85,2.85,0,0,1-2.26-1.32,2.28,2.28,0,0,1-.53-1.18c0-.19,0-.31.17-.31s.27.17.46.41a2.32,2.32,0,0,0,1.82.86,12.7,12.7,0,0,0,3-.41V63.92a3.27,3.27,0,0,0-.09-1.15c-.05-.39-.19-.48-.43-.55a2,2,0,0,0-.63-.12c-.36,0-.55-.08-.55-.2a.77.77,0,0,1,.38-.57,2.28,2.28,0,0,1,1.06-.39,3,3,0,0,1,1.71.63c.69.5,1,1,1,1.32a1,1,0,0,1-.22.65,2.76,2.76,0,0,0-.36.48,5.72,5.72,0,0,0-.26,1.92,6,6,0,0,0,1.65-1,1.88,1.88,0,0,1,1.16-.41c1,0,1.44.39,1.44.8s-.08.57-.65,1a13.29,13.29,0,0,1-1.59.77,20.46,20.46,0,0,1-2.11.67c0,1.1,0,2.93,0,4.22A11.29,11.29,0,0,1,143.27,70.31ZM134.05,76c.48.29.77.44,1.18.65a2.14,2.14,0,0,0,.79.27c.14,0,.24-.1.24-.34,0-.7,0-1.58,0-2.35C135.51,74.77,134.65,75.44,134.05,76Zm9.58-10.29a3.73,3.73,0,0,1,2.37-.8,4.9,4.9,0,0,1,3.19,1.16,3.19,3.19,0,0,1,1.16,2.45c0,.69-.36,1.1-.92,1.1a1.25,1.25,0,0,1-.72-.22,1.06,1.06,0,0,0-.71-.31,7.07,7.07,0,0,0-.75,0,5.85,5.85,0,0,0-.91.16,3.17,3.17,0,0,1-.58.12c-.07,0-.19,0-.19-.12s.1-.16.31-.31a16.45,16.45,0,0,0,1.59-1.13.45.45,0,0,0,.16-.31.58.58,0,0,0-.09-.34A2.88,2.88,0,0,0,145,65.89a3.81,3.81,0,0,0-1,.14,2,2,0,0,1-.39.12c-.09,0-.17,0-.17-.12A.41.41,0,0,1,143.63,65.7Z"/><path class="b" d="M166.14,67.79c.62-.7.81-.85,1-.85s.4.15,1.27.89c.36.34.5.53.5.72s-.24.44-.79.58c-2.38,3.29-5.74,5.11-10.49,5.74-.12,0-.21-.29-.1-.34A18.23,18.23,0,0,0,163,71.77a.9.9,0,0,1-.22,0c-.4,0-.57-.16-.77-.79a2.21,2.21,0,0,0-.79-1.25,19.77,19.77,0,0,1-3.45,1.73c-.12,0-.29-.24-.2-.31a16.83,16.83,0,0,0,4.18-4,5.36,5.36,0,0,0,.77-1.47h-2.33a10.58,10.58,0,0,0-1.63.15l-.27-.89a10.54,10.54,0,0,0,2,.19h15c1.13-1.25,1.42-1.44,1.58-1.44s.48.19,1.54,1c.46.38.65.57.65.74s-.07.24-.31.24H163c1.82.51,2.11.67,2.11.94s-.22.38-.86.43c-.22.27-.46.51-.68.75Zm6.38-5.33c0,.55,0,.93,0,1.1,0,.55-.41.79-1.3.79-.6,0-.86-.19-.86-.65,0-.16,0-.55,0-1.24h-4.2c0,.57,0,1,0,1.17,0,.51-.4.77-1.2.77s-1-.22-1-.7c0-.16,0-.55,0-1.24h-4.3a10.2,10.2,0,0,0-1.61.14l-.26-.89a9.47,9.47,0,0,0,1.92.19h4.25v-.6a11.77,11.77,0,0,0-.08-1.77c2.72.24,3,.31,3,.65s-.22.4-.79.57V61.9h4.2v-.38a16.87,16.87,0,0,0-.1-2c2.31.22,2.93.34,2.93.68s-.19.38-.72.6V61.9h3c1.2-1.36,1.49-1.56,1.66-1.56s.48.2,1.63,1.11c.5.41.69.6.69.77s-.07.24-.31.24Zm-6.05,13.75a5.32,5.32,0,0,1-1.7,3.38c-1.34,1.23-3.48,2-6.51,2.28-.12,0-.26-.31-.14-.36,3-1.05,4.3-1.84,5.35-3.5a4.8,4.8,0,0,0,.67-1.8h-4.22a11.81,11.81,0,0,0-1.63.14l-.27-.88a10.32,10.32,0,0,0,1.92.19h4.25a9.61,9.61,0,0,0,.05-1c0-.43,0-.7-.05-1.3,2.88.39,3.1.48,3.1.79s-.24.44-.77.65v.82h3.74c0-.6,0-1.18-.11-2.07,2.28.22,3,.39,3,.72s-.2.39-.68.58v.77h3.1c1.18-1.27,1.46-1.47,1.63-1.47s.51.2,1.59,1c.5.41.69.6.69.77s-.07.24-.31.24h-6.7c0,2.3.12,3.91.12,4.46s-.43,1-1.39,1c-.77,0-1-.26-1-.86,0-.43.07-1.78.07-4.44v-.12ZM163,68.34a17.88,17.88,0,0,1-1.51,1.22c1.56.12,2.21.53,2.21,1.27a.89.89,0,0,1-.1.46,11.45,11.45,0,0,0,2.52-3Zm8.76.89a19.37,19.37,0,0,0,2.74-1.64,7.06,7.06,0,0,0,1.39-1.25c1.61,1.13,2.09,1.49,2.09,1.76s-.22.41-1.15.31a20.63,20.63,0,0,1-5.07,1.44v.91c0,.72.24.79,2.35.79,1.59,0,2.21,0,2.69-.36a5.89,5.89,0,0,0,1.32-2.06c0-.12.24-.1.24,0,0,.48-.14,1.18-.14,1.49s0,.31.29.43a1,1,0,0,1,.6.84c0,.51-.34.84-1.11,1.08a14.35,14.35,0,0,1-3.81.34c-3.72,0-4.42-.41-4.42-2.38,0-.21,0-.45,0-1.36,0-1.2,0-2.41-.11-3.63,2.54.26,2.8.34,2.8.72,0,.19,0,.26-.72.58Z"/><path class="b" d="M201.13,65.26a26.24,26.24,0,0,0,.94,6.51A12.08,12.08,0,0,0,205,77a2.88,2.88,0,0,0,1.32.92c.36,0,.67-.56,1.59-2.86.05-.12.24,0,.24.1-.19,2.61-.19,2.78-.19,3.38,0,.43,0,.5.38,1a1.47,1.47,0,0,1,.26.81,1,1,0,0,1-1,1A4.88,4.88,0,0,1,205,80.24a14.11,14.11,0,0,1-5-7.37,32,32,0,0,1-1.13-7.61h-9.79a13.67,13.67,0,0,0-1.85.15l-.26-.89a11.41,11.41,0,0,0,2,.19h9.86c0-.69,0-1.41-.07-2.18s0-1.49-.15-2.64c2.93.33,3.05.41,3.05.77s-.17.36-.67.55c0,1.32.05,2.47.1,3.5h3.14c1.13-1.34,1.42-1.53,1.59-1.53s.45.19,1.48,1.05c.46.41.65.63.65.79s-.07.24-.31.24ZM192,70.07h-2.16a11.53,11.53,0,0,0-1.73.14l-.27-.89a9.53,9.53,0,0,0,1.92.19H195c1.15-1.41,1.42-1.6,1.59-1.6s.45.16,1.51,1.08c.48.43.67.67.67.84s-.07.24-.31.24h-4v6.12a44.06,44.06,0,0,0,4.64-1.35c.12,0,.26.27.16.34-2.49,1.68-4.7,2.64-10.13,4.37-.19.76-.28.91-.55.91s-.72-.75-1.32-3.17c.89-.05,1.87-.14,2.86-.29.62-.09,1.25-.19,1.9-.31Zm12.91-6.49c-.51,0-.7-.16-1.2-1.1a5.36,5.36,0,0,0-1.59-1.8c-.09-.07-.07-.24,0-.24,2.47.22,3.75.89,3.75,2A1.15,1.15,0,0,1,204.9,63.58Z"/><path class="b" d="M215.19,70.91c-.12,0-.26-.17-.17-.24a25.63,25.63,0,0,0,7.21-6.85,17.76,17.76,0,0,0,2.18-4.2c3.36,1.06,3.36,1.06,3.36,1.35s-.17.33-1,.55a16.76,16.76,0,0,0,5.11,4.7,17,17,0,0,0,5.93,2.09c.12,0,.12.29,0,.32-.82.12-1.32.69-1.68,2-.1.31-.22.43-.41.43a2.81,2.81,0,0,1-.89-.36,23.1,23.1,0,0,1-3.6-2.56,21.49,21.49,0,0,1-4.8-6.25C223.88,66.18,220.31,69,215.19,70.91Zm9.39,4.15h-4.3a9.83,9.83,0,0,0-1.49.14l-.26-.89a8,8,0,0,0,1.75.2h4.3V70h-3.36a9.55,9.55,0,0,0-1.54.15l-.26-.89a9,9,0,0,0,1.8.19h7.53c1-1.37,1.32-1.56,1.49-1.56s.46.19,1.49,1.08c.46.41.65.62.65.79s-.07.24-.31.24h-5.14v4.47H230c1.1-1.44,1.39-1.64,1.56-1.64s.45.2,1.58,1.16c.48.4.67.62.67.79s-.07.24-.31.24h-6.6v5.06h5.88c1.25-1.56,1.54-1.75,1.7-1.75s.46.19,1.64,1.22c.5.46.69.68.69.84s-.07.24-.31.24H217.47a11.55,11.55,0,0,0-1.72.15l-.27-.89a10.54,10.54,0,0,0,2,.19h7.15Z"/><path class="b" d="M248.67,70.81l-1,.22a24.29,24.29,0,0,1-.55,4.82A10.43,10.43,0,0,1,244,81.2c-.09.1-.26-.09-.21-.19a15.28,15.28,0,0,0,1.77-5.66c.15-1.11.22-2.38.27-3.94l-.48.07c-.08.46-.24.7-.46.7s-.48-.48-.77-2.43h.82c.31,0,.6,0,.91,0,0-.77,0-1.63,0-2.55a46.46,46.46,0,0,0-.16-5.25,15.89,15.89,0,0,1,2.35,1.1h.41a18.62,18.62,0,0,0,.36-1.92,11.7,11.7,0,0,0,.09-1.53c2.21.55,2.79.79,2.79,1.12s-.24.44-.94.56A8.69,8.69,0,0,1,249.2,63h2.06c.68-.79.87-.93,1.06-.93s.43.14,1.2.76c.34.29.48.46.48.65s-.09.31-.65.7v4.66c.17,0,.32-.08.48-.1s.15.24,0,.29a3.91,3.91,0,0,0-.51.24c0,7.53.05,8.71.05,9.67a2.13,2.13,0,0,1-.46,1.39,2.63,2.63,0,0,1-2,.75c-.24,0-.37-.15-.41-.48-.07-1-.34-1.2-2.12-1.64-.12,0-.12-.28,0-.28,1.11.09,1.93.12,2.67.12.34,0,.38-.08.38-.32V70l-1.15.36v1.87c0,1.49.07,3.36.07,4a.85.85,0,0,1-1,.91c-.53,0-.81-.21-.81-.62s.09-1.44.09-3.65Zm-.89-6.29c0,2,0,3.65,0,5.11,1.25-.09,2.47-.24,3.69-.43V63.58h-3.65Zm1.92,3.79c-.5,0-.69-.28-.74-1a5.63,5.63,0,0,0-.53-2.36c-.07-.09.12-.19.22-.14a3.2,3.2,0,0,1,2,2.4A1,1,0,0,1,249.7,68.31Zm11.72,1.92c.91-1,1.1-1.1,1.37-1.1s.48.17,1.32.84c.48.38.62.6.62.79s-.26.53-.91.75a18,18,0,0,1-3.07,5,14.2,14.2,0,0,0,5.85,2.23.12.12,0,0,1,0,.24c-.76.24-1.08.65-1.34,1.75-.1.36-.17.48-.34.48a4,4,0,0,1-.84-.26,13.39,13.39,0,0,1-4.58-3.2A21.29,21.29,0,0,1,253,81.47c-.12,0-.24-.27-.14-.32a19.76,19.76,0,0,0,5.61-4.68,17.84,17.84,0,0,1-2.35-5.68H256a6.35,6.35,0,0,0-1.42.09l-.19-.86a5.12,5.12,0,0,0,1.71.21Zm3.93-4.39c0,.36.08.43.46.6a.74.74,0,0,1,.34.7,1.1,1.1,0,0,1-.6,1,5,5,0,0,1-2.4.43c-2.07,0-2.81-.52-2.81-2.06,0-.63,0-1.08,0-2.09V62h-2.61v.63a10,10,0,0,1-.68,4.12,6.66,6.66,0,0,1-3.12,3c-.09,0-.26-.09-.19-.19A7.55,7.55,0,0,0,255.39,66a13.62,13.62,0,0,0,.24-2.79,26.89,26.89,0,0,0-.16-2.92,21.12,21.12,0,0,1,2.44,1.1h2.31c.81-.91.91-1,1.15-1s.41.1,1.2.77c.26.24.46.43.46.65s-.15.38-.58.67V66.2c0,.36.17.48.82.48s.81-.05,1.05-.46a10.23,10.23,0,0,0,.75-2.2c0-.12.28-.12.28,0Zm-8.8,5a12.77,12.77,0,0,0,2.78,4.56,14.71,14.71,0,0,0,2.16-4.56Z"/></svg>