<svg xmlns="http://www.w3.org/2000/svg" viewBox="0 0 400 150"><defs><style>.a{fill:#fff;}.b{fill:#256643;}</style></defs><rect class="a" width="400" height="150" rx="10"/><path class="b" d="M93.73,70.31a5.45,5.45,0,0,1,3.1.86,3.86,3.86,0,0,1,1.87,3.22,3.54,3.54,0,0,1-1.56,3,4.78,4.78,0,0,1-3,.94,5,5,0,0,1-4.24-2.14A4.73,4.73,0,0,1,89.15,75a.13.13,0,0,1,.14-.12.35.35,0,0,1,.31.17,5.14,5.14,0,0,0,3.75,1.7,3.58,3.58,0,0,0,2.35-.79,2.82,2.82,0,0,0,.69-2.11,2.41,2.41,0,0,0-1.15-2.18,3.64,3.64,0,0,0-1.92-.46,7.56,7.56,0,0,0-3.5,1.15c-.58.31-1.08.63-1.56.91,0,1.42.09,2.28.14,3.15,0,.43,0,.72,0,1.17a4.31,4.31,0,0,1-.19,1.54c-.34.86-.75,1.13-1.18,1.13s-.67-.22-.81-.79c-.32-1.3-.84-1.83-2.16-3.05a8.28,8.28,0,0,0-1.11,1,1.21,1.21,0,0,1-1,.46A2.2,2.2,0,0,1,81,77.51a2,2,0,0,1-1-1.59,1.4,1.4,0,0,1,.65-1.25c.09,0,.14,0,.19.2a1.92,1.92,0,0,0,.26.57c.1.1.17.12.41.1a13.16,13.16,0,0,0,2.5-1.18c.84-.48,1.94-1.15,2.73-1.63,0-1.73,0-3.31,0-4.58a19.19,19.19,0,0,1-2.6.31,2.85,2.85,0,0,1-2.25-1.32A2.2,2.2,0,0,1,81.25,66c0-.19,0-.31.17-.31s.26.17.45.41a2.34,2.34,0,0,0,1.83.86,12.76,12.76,0,0,0,3-.41V63.92a2.91,2.91,0,0,0-.1-1.15c0-.39-.19-.48-.43-.55a1.93,1.93,0,0,0-.62-.12c-.36,0-.56-.08-.56-.2a.76.76,0,0,1,.39-.57,2.24,2.24,0,0,1,1.06-.39,3,3,0,0,1,1.7.63c.7.5,1,1,1,1.32a1,1,0,0,1-.22.65,2.37,2.37,0,0,0-.35.48,5.7,5.7,0,0,0-.27,1.92,6,6,0,0,0,1.66-1,1.82,1.82,0,0,1,1.15-.41c1,0,1.44.39,1.44.8s-.07.57-.65,1a13.06,13.06,0,0,1-1.58.77c-.58.21-1.35.48-2.11.67,0,1.1,0,2.93,0,4.22A11.29,11.29,0,0,1,93.73,70.31ZM84.51,76c.48.29.77.44,1.18.65a2.14,2.14,0,0,0,.79.27c.15,0,.24-.1.24-.34,0-.7,0-1.58,0-2.35C86,74.77,85.11,75.44,84.51,76ZM94.09,65.7a3.75,3.75,0,0,1,2.38-.8,4.94,4.94,0,0,1,3.19,1.16,3.21,3.21,0,0,1,1.15,2.45c0,.69-.36,1.1-.91,1.1a1.23,1.23,0,0,1-.72-.22,1.11,1.11,0,0,0-.72-.31,7.16,7.16,0,0,0-.75,0,6.06,6.06,0,0,0-.91.16,3,3,0,0,1-.57.12c-.08,0-.2,0-.2-.12s.1-.16.32-.31a18.34,18.34,0,0,0,1.58-1.13.45.45,0,0,0,.17-.31.59.59,0,0,0-.1-.34,2.87,2.87,0,0,0-2.54-1.29,3.83,3.83,0,0,0-1,.14,2.18,2.18,0,0,1-.38.12c-.1,0-.17,0-.17-.12A.4.4,0,0,1,94.09,65.7Z"/><path class="b" d="M120,67.83h6c1.16-1.41,1.45-1.61,1.61-1.61s.48.2,1.64,1.11c.5.41.69.65.69.82s-.07.24-.31.24H110.5a12.44,12.44,0,0,0-1.77.14l-.27-.89a10,10,0,0,0,2,.19h7.13V64H113a11.78,11.78,0,0,0-1.73.15l-.26-.89a10.25,10.25,0,0,0,1.92.19h4.63v-1a25.87,25.87,0,0,0-.17-2.93c3,.27,3.31.51,3.31.75s-.14.36-.74.64v2.5h3.79c1.13-1.39,1.42-1.58,1.59-1.58s.48.19,1.58,1.1c.51.41.7.62.7.79s-.07.24-.31.24H120Zm4.23,6.89c0,2,.07,3.39.07,4.63a2.3,2.3,0,0,1-.51,1.49,3.13,3.13,0,0,1-2.37.82c-.39,0-.48-.07-.56-.65-.09-.84-.84-1.3-3-1.8-.12,0-.12-.38,0-.38,1.37.09,2.61.14,3.58.14.31,0,.38-.07.38-.41V72.37h-11a13.56,13.56,0,0,0-1.75.14l-.26-.88a10.74,10.74,0,0,0,2,.19h11a22,22,0,0,0-.15-2.95c2.93.31,3.24.45,3.24.79s-.09.33-.71.65v1.51h1.39c1.08-1.37,1.37-1.56,1.53-1.56s.48.19,1.56,1.08c.48.41.68.62.68.79s-.08.24-.32.24h-4.84Zm-7.85,3.43c-.63,0-.92-.28-1.44-1.72a6.15,6.15,0,0,0-1.78-2.69c-.1-.07,0-.27.17-.24,3.17.77,4.46,1.89,4.46,3.24A1.42,1.42,0,0,1,116.34,78.15Z"/><path class="b" d="M144.06,70.57a2.15,2.15,0,1,1-2.16-2.16A2.15,2.15,0,0,1,144.06,70.57Z"/><path class="b" d="M167.84,70.31a5.42,5.42,0,0,1,3.1.86,3.86,3.86,0,0,1,1.87,3.22,3.54,3.54,0,0,1-1.56,3,4.77,4.77,0,0,1-3,.94A5,5,0,0,1,164,76.21a4.73,4.73,0,0,1-.72-1.25.13.13,0,0,1,.14-.12.34.34,0,0,1,.31.17,5.14,5.14,0,0,0,3.75,1.7,3.58,3.58,0,0,0,2.35-.79,2.83,2.83,0,0,0,.7-2.11,2.42,2.42,0,0,0-1.16-2.18,3.64,3.64,0,0,0-1.92-.46,7.56,7.56,0,0,0-3.5,1.15c-.58.31-1.08.63-1.56.91,0,1.42.1,2.28.14,3.15,0,.43.05.72.05,1.17a4.31,4.31,0,0,1-.19,1.54c-.34.86-.74,1.13-1.18,1.13s-.67-.22-.81-.79c-.32-1.3-.84-1.83-2.16-3.05a9,9,0,0,0-1.11,1,1.2,1.2,0,0,1-1,.46,2.13,2.13,0,0,1-1.05-.36A2,2,0,0,1,154,75.92a1.4,1.4,0,0,1,.65-1.25c.09,0,.14,0,.19.2a1.89,1.89,0,0,0,.27.57c.09.1.16.12.4.1a12.88,12.88,0,0,0,2.5-1.18c.84-.48,1.94-1.15,2.74-1.63,0-1.73,0-3.31,0-4.58a19.06,19.06,0,0,1-2.59.31,2.85,2.85,0,0,1-2.26-1.32,2.28,2.28,0,0,1-.53-1.18c0-.19,0-.31.17-.31s.26.17.45.41a2.36,2.36,0,0,0,1.83.86,12.76,12.76,0,0,0,2.95-.41V63.92a3.27,3.27,0,0,0-.09-1.15c0-.39-.2-.48-.44-.55a1.93,1.93,0,0,0-.62-.12c-.36,0-.55-.08-.55-.2a.74.74,0,0,1,.38-.57,2.24,2.24,0,0,1,1.06-.39,3,3,0,0,1,1.7.63c.7.5,1,1,1,1.32a1,1,0,0,1-.21.65,2,2,0,0,0-.36.48,5.7,5.7,0,0,0-.27,1.92,6,6,0,0,0,1.66-1,1.82,1.82,0,0,1,1.15-.41c1,0,1.44.39,1.44.8s-.07.57-.65,1a12.36,12.36,0,0,1-1.58.77,21.28,21.28,0,0,1-2.11.67c0,1.1,0,2.93,0,4.22A11.32,11.32,0,0,1,167.84,70.31ZM158.63,76c.48.29.76.44,1.17.65a2.14,2.14,0,0,0,.79.27c.15,0,.24-.1.24-.34,0-.7,0-1.58,0-2.35C160.09,74.77,159.23,75.44,158.63,76ZM168.2,65.7a3.75,3.75,0,0,1,2.38-.8,4.92,4.92,0,0,1,3.19,1.16,3.21,3.21,0,0,1,1.15,2.45c0,.69-.36,1.1-.91,1.1a1.23,1.23,0,0,1-.72-.22,1.09,1.09,0,0,0-.72-.31,6.89,6.89,0,0,0-.74,0,6,6,0,0,0-.92.16,3,3,0,0,1-.57.12c-.07,0-.19,0-.19-.12s.09-.16.31-.31A18.34,18.34,0,0,0,172,67.83a.45.45,0,0,0,.17-.31.52.52,0,0,0-.1-.34,2.87,2.87,0,0,0-2.54-1.29,3.9,3.9,0,0,0-1,.14,2.18,2.18,0,0,1-.38.12c-.1,0-.17,0-.17-.12A.4.4,0,0,1,168.2,65.7Z"/><path class="b" d="M191.31,73.11c-2.45,2.88-4.85,4.37-9.12,5.72-.12,0-.26-.27-.17-.32a20.59,20.59,0,0,0,6.6-5.4h-4.24a11.42,11.42,0,0,0-1.71.15l-.26-.89a10.74,10.74,0,0,0,2,.19H189a12,12,0,0,0,1.16-2.06h-2.41v.17c0,.57-.38.76-1.2.76s-1-.19-1-.74.09-1.34.09-4.08a24.14,24.14,0,0,0-.14-2.93,11.5,11.5,0,0,1,2.37,1.06h9.94c.75-.8.94-.94,1.13-.94s.46.14,1.25.72c.36.29.5.46.5.65s-.09.29-.62.65v.79c0,2.06.07,3.5.07,4s-.41.82-1.34.82c-.58,0-.84-.17-.84-.68V70.5h-7.21c2.09.57,2.45.74,2.45,1s-.26.44-1.08.51c-.14.17-.26.33-.38.5h8.45c1.05-1,1.34-1.25,1.51-1.25s.53.2,1.58.87c.51.36.7.53.7.69s-.07.24-.31.24h-7.87a13.07,13.07,0,0,0,3.84,2.16,19.61,19.61,0,0,0,5,1c.12,0,.12.31,0,.36-.79.28-.94.5-1.37,1.84,0,.2-.14.29-.29.29a2.75,2.75,0,0,1-.74-.24,17.53,17.53,0,0,1-3.63-1.92,15.82,15.82,0,0,1-3.38-3.53ZM197,62.53c0,.41,0,.69,0,.81,0,.6-.4.84-1.34.84-.62,0-.86-.21-.86-.69,0-.12,0-.41,0-1h-3.91v.93c0,.51-.39.77-1.2.77s-1-.21-1-.69c0-.15,0-.46,0-1h-4.27a13.43,13.43,0,0,0-1.75.14l-.26-.89a10.54,10.54,0,0,0,2,.2h4.3V61.4a13.18,13.18,0,0,0-.07-1.7c3,.33,3,.36,3,.69s-.19.34-.79.58v1h3.91v-.44a15.19,15.19,0,0,0-.1-1.84c2.45.24,3,.36,3,.67s-.19.41-.72.6v1h3c1.11-1.28,1.39-1.47,1.56-1.47s.53.19,1.73,1c.55.39.74.58.74.75s-.07.24-.31.24Zm-3.19,17.71h4.82c1.32-1.44,1.61-1.63,1.78-1.63s.48.19,1.63,1.15c.51.41.7.63.7.79s-.07.24-.31.24H185.38a9.57,9.57,0,0,0-1.56.15l-.26-.89a8.93,8.93,0,0,0,1.78.19h6.28V77.39h-1.8a12.44,12.44,0,0,0-1.77.14l-.27-.89a9.35,9.35,0,0,0,1.9.19h1.94V76a20.09,20.09,0,0,0-.12-2.19c2.74.24,3,.48,3,.7s-.12.38-.67.62v1.75h.79c1-1,1.3-1.24,1.46-1.24s.49.19,1.33.88c.36.29.55.51.55.68s-.07.24-.31.24h-3.82ZM198,65.29H187.78v2H198Zm0,2.54H187.78V70H198Z"/><path class="b" d="M221.87,66.15a9.88,9.88,0,0,1-.53,2.55,18,18,0,0,1-1.51,3.45,19.84,19.84,0,0,1-2.67,4,2.63,2.63,0,0,1-2,1,2.42,2.42,0,0,1-1.82-.94c-.87-1-1.33-2.18-1.33-4.37a7.51,7.51,0,0,1,1-3.65,9.26,9.26,0,0,1,3.24-3.36,10.74,10.74,0,0,1,5.81-1.56,9.21,9.21,0,0,1,5.95,1.87,7.38,7.38,0,0,1,2.81,6.1,6.53,6.53,0,0,1-2.21,5,10.56,10.56,0,0,1-3.55,2.13,16.91,16.91,0,0,1-4.92.91c-.36,0-.53,0-.53-.24s.14-.24.45-.31a11.85,11.85,0,0,0,6.17-3.14A7.14,7.14,0,0,0,228.44,70a5.24,5.24,0,0,0-2.11-4.51,7.54,7.54,0,0,0-3.84-1.3,12.86,12.86,0,0,0-1.51,0A3.36,3.36,0,0,1,221.87,66.15Zm-5.84.1a7.34,7.34,0,0,0-2,3,6.24,6.24,0,0,0-.41,2.28,4.72,4.72,0,0,0,.61,2.59,1.56,1.56,0,0,0,1.05.8c.38,0,.74-.24,1.66-1.54a28.84,28.84,0,0,0,3.21-5.88,5.54,5.54,0,0,0,.51-2,1.21,1.21,0,0,0-.43-1.08A8,8,0,0,0,216,66.25Z"/><path class="b" d="M241.71,71a.92.92,0,0,1-.07.36,5.83,5.83,0,0,0-.41,2.21,2.5,2.5,0,0,0,1.28,2.21,10.23,10.23,0,0,0,4.65.86,14.84,14.84,0,0,0,4.23-.5A7.08,7.08,0,0,1,252.9,76c1.41,0,1.89.74,1.89,1.27s-.6,1.1-1.41,1.25a24.09,24.09,0,0,1-2.47.31c-1.18.09-2.36.12-3.1.12a13,13,0,0,1-4.54-.79A5.3,5.3,0,0,1,241,76.43a3.56,3.56,0,0,1-.72-2.43,5.43,5.43,0,0,1,1-3c.09-.15.19-.22.28-.22S241.71,70.91,241.71,71Zm.29-7.68c.51.67,1.56,1,3.77,1a12.72,12.72,0,0,0,4.06-.67,3.83,3.83,0,0,1,.88-.12,3.63,3.63,0,0,1,1,.12c.72.19,1.17.48,1.2,1.08a.81.81,0,0,1-.65.91,8,8,0,0,1-1.58.21,19.87,19.87,0,0,0-3.56.65A15.55,15.55,0,0,0,244,67.83a3.61,3.61,0,0,1-.76.39c-.12,0-.17,0-.17-.15a12,12,0,0,1,2.23-1.94,5,5,0,0,1-2.62-.94,3.2,3.2,0,0,1-1.12-1.85c0-.16.07-.24.19-.24S241.93,63.22,242,63.32Zm13.32-.72a1.8,1.8,0,0,1,.89,1.44.81.81,0,0,1-.79.84.86.86,0,0,1-.82-.55,8.84,8.84,0,0,0-1.51-2.11c-.1-.1-.26-.22-.26-.32s0-.12.12-.14a1.21,1.21,0,0,1,.38,0A4.6,4.6,0,0,1,255.32,62.6ZM257.53,61a1.54,1.54,0,0,1,.86,1.23.8.8,0,0,1-.74.88.92.92,0,0,1-.89-.52,6.17,6.17,0,0,0-1.68-1.88c-.09-.07-.29-.19-.29-.28a.15.15,0,0,1,.08-.15.56.56,0,0,1,.38,0A4.88,4.88,0,0,1,257.53,61Z"/><path class="b" d="M276.59,75a11.36,11.36,0,0,0,4.32,2.5,26.51,26.51,0,0,0,6,1c.12,0,.12.22,0,.27-.82.33-1.22.64-1.44,1.34s-.41.82-.58.82a3.68,3.68,0,0,1-1.15-.27,24.22,24.22,0,0,1-2.85-1.2,12.51,12.51,0,0,1-4.44-3.93c.07,1.75.19,4.29.19,5.47,0,.69-.43,1-1.39,1-.65,0-.92-.21-.92-.81s.15-2.64.17-4.66c-2.73,2.5-5.21,3.62-9.48,4.49-.12,0-.24-.19-.12-.24,3.86-1.59,6-3.07,8.19-5.74h-6a11.53,11.53,0,0,0-1.71.15l-.26-.89a9.58,9.58,0,0,0,1.85.19h7.44V74a12.39,12.39,0,0,0-.1-1.85c2.38.21,2.84.38,2.84.67s-.27.43-.7.6v1h6.12c1.1-1.34,1.39-1.54,1.56-1.54s.46.2,1.46,1.08c.44.39.63.6.63.77s-.07.24-.31.24Zm6.28-12.7c.87-.93,1.06-1.08,1.25-1.08s.43.15,1.78,1.23c.62.53.77.69.77.89s-.32.52-1.16.52c-.69,0-.81,0-1.12.22a16.31,16.31,0,0,1-1.52.89.11.11,0,0,1-.16-.15,10.09,10.09,0,0,0,.43-2h-15c-.07,1.41-.79,2.49-1.84,2.49a1.13,1.13,0,0,1-1.16-1.22c0-.58.17-.84.79-1.15a2.41,2.41,0,0,0,1.64-2.12c0-.12.21-.14.26,0a5.56,5.56,0,0,1,.29,1.46h6.17V60.85c0-.34,0-.82-.07-1.35,2.9.27,3.16.51,3.16.75s-.24.43-.74.55v1.46Zm-1.84,4a13.37,13.37,0,0,1-2.5,3.24c2.71.84,4.18,1.8,4.18,2.78a1,1,0,0,1-1.06,1,1.45,1.45,0,0,1-.94-.41,25.85,25.85,0,0,0-3.6-2.28C274.5,72.3,270.94,73,266,73.07c-.12,0-.12-.29,0-.32,4.21-.52,7.21-1.46,9.32-3a32.17,32.17,0,0,0-3.22-1.11l-.36.44a1.35,1.35,0,0,1-1.06.55c-.86,0-1.55-.34-1.55-.75,0-.14.16-.33.5-.69.65-.7,1.2-1.3,1.7-1.92h-4.12a7.68,7.68,0,0,0-1.4.14l-.26-.89a6.23,6.23,0,0,0,1.56.19h4.63l.34-.45a12,12,0,0,0,1.2-2.19c2.71.94,2.73,1,2.73,1.25s-.28.39-1,.43c-.26.36-.48.68-.7,1h8.48c.86-1,1.15-1.15,1.32-1.15s.5.19,1.39.82c.38.29.57.48.57.65s-.07.24-.31.24Zm-7.08,0c-.48.64-1,1.29-1.47,1.92,1.3.24,2.59.45,3.87.74a9.53,9.53,0,0,0,2-2.66Z"/><path class="b" d="M305.41,64.74a19.93,19.93,0,0,1-.62,3.72c3.69,1.17,6,2.93,6,4.65,0,.87-.46,1.44-1.11,1.44s-.74-.14-1.65-1.75a10.83,10.83,0,0,0-3.41-3.89,8.47,8.47,0,0,1-1.11,2A12.71,12.71,0,0,1,298,74.75c-.12,0-.24-.27-.14-.34,3.53-2.45,4.92-4.82,5.26-9.67h-5.55V80.53c0,.58-.53.86-1.44.86-.72,0-1-.24-1-.79,0-2,.15-3.93.15-11.81,0-2,0-4-.15-6a16.26,16.26,0,0,1,2.67,1.34h5.37c0-.69.05-1.46.05-2.28a11.59,11.59,0,0,0-.14-2.13c2.66.19,3.33.36,3.33.74s-.14.36-.81.67c0,1.13-.07,2.14-.15,3h6c.89-1,1.08-1.17,1.27-1.17s.43.14,1.37.91c.41.36.55.53.55.72s-.14.38-.62.74v2.19c0,9.12.07,10.18.07,11.14,0,1.2-.31,1.75-1.13,2.13a4.86,4.86,0,0,1-1.56.36c-.41,0-.5-.17-.57-.67-.12-.86-.53-1.22-2.84-1.75-.12,0-.07-.29.05-.29,1.35.1,2.26.1,3.24.1.34,0,.41-.1.41-.44V64.74Z"/></svg>