<svg xmlns="http://www.w3.org/2000/svg" viewBox="0 0 832 61"><defs><style>.a{opacity:0.5;}.b{fill:#fffef5;}.c{fill:#996580;}</style></defs><g class="a"><rect class="b" width="832" height="61" rx="3"/></g><path class="c" d="M18.5,35a6.71,6.71,0,0,0-.44,2.38c0,1.91,1.44,3.42,1.44,5.33a2.37,2.37,0,0,1-2.3,2.59c-1.22,0-1.76-.65-1.76-1.87s.28-2.38.28-3.57c0-2.34-.32-2.73-2.8-3.63-.18-.08-.11-.58.07-.54a14.8,14.8,0,0,0,1.47.18,1.83,1.83,0,0,0,1.59-.83,95.1,95.1,0,0,0,6.26-11.48c.07-.18.5,0,.43.18C21.52,27.14,19.79,31.64,18.5,35Zm-.87-7.16a1.36,1.36,0,0,1-1.37-.94c-1.11-2.55-1.33-2.84-3-4.24-.14-.11,0-.29.15-.29,3.81.29,5.9,1.58,5.9,3.49A1.86,1.86,0,0,1,17.63,27.86Zm2.09-8.39c-.87,0-1.08-.18-1.87-2a7.09,7.09,0,0,0-2.56-3.24c-.14-.11,0-.29.15-.29,3.85.33,6.08,1.66,6.08,3.68A1.81,1.81,0,0,1,19.72,19.47ZM35,31.39a13.78,13.78,0,0,0,4.28,4.32,21.93,21.93,0,0,0,7.88,2.91c.18,0,.18.33,0,.4-1.15.43-1.58,1-1.87,2.48-.14.79-.22.94-.58.94A4.1,4.1,0,0,1,43.48,42,20.36,20.36,0,0,1,38,37.79,21.27,21.27,0,0,1,34.37,32c0,5.47.29,11.09.29,12.31,0,.94-.76,1.37-2,1.37-1,0-1.47-.32-1.47-1,0-1.12.28-5.91.36-9.65A23.73,23.73,0,0,1,20.4,42.51c-.18.07-.36-.32-.21-.43a28.69,28.69,0,0,0,9.93-10.69H24.4a11,11,0,0,0-1.95.21l-.39-1.33a9.84,9.84,0,0,0,2.37.29h7v-.47a29.76,29.76,0,0,0-.15-4.35c3.46.39,4.18.57,4.18,1.15,0,.29-.15.43-1,.79v2.88h5.44c1.72-1.94,2.16-2.23,2.41-2.23s.72.29,2.34,1.55c.72.61,1,.9,1,1.15s-.11.36-.47.36ZM32.68,16.45c-.29,6.37-3,9.43-9.87,10.91-.18,0-.32-.36-.14-.44,4.75-2,6.7-5,6.84-10.47H26.38c.14,2.77-.76,5.18-2.81,5.18A1.54,1.54,0,0,1,22,20c0-.87.28-1.26,1.29-2a4.36,4.36,0,0,0,2.16-4c0-.18.47-.22.51,0,.14.58.28,1.12.36,1.69H40.92c1.19-1.51,1.48-1.73,1.76-1.73s.65.22,2.27,1.66c.72.68.94.94.94,1.22,0,.54-.25.76-1.33.76A1.35,1.35,0,0,0,43.4,18a14.77,14.77,0,0,1-2.77,1.94c-.14.08-.39-.07-.32-.25a13.12,13.12,0,0,0,1.08-3.2H37.93v6.12c0,.93.25,1,2.2,1a3.21,3.21,0,0,0,2.09-.5c.61-.47,1-1.44,1.51-3.24,0-.18.39-.15.39,0,0,.83-.1,1.91-.1,2.49,0,.32.1.47.68.72a1.26,1.26,0,0,1,.83,1.22c0,.76-.43,1.26-1.44,1.59a15.9,15.9,0,0,1-4.07.39c-4,0-5.11-.61-5.11-3.13,0-.61.07-1.73.07-3V16.45Z"/><path class="c" d="M58.78,35.17a11.44,11.44,0,0,0-.72,3c0,1.48,1.37,3,1.37,4.9a2.38,2.38,0,0,1-2.34,2.56c-1.16,0-1.73-.65-1.73-1.91s.29-2.34.29-3.53c0-2.34-.29-2.7-2.81-3.64-.18-.07-.11-.57.07-.54a12.26,12.26,0,0,0,1.48.18c.72,0,1.19-.36,1.76-1.22a83.87,83.87,0,0,0,5.44-10.58c.07-.18.46,0,.43.18C60.36,30.27,59.64,32.58,58.78,35.17Zm-1.59-7.24c-.86,0-1.18-.54-1.87-2.12a7.43,7.43,0,0,0-2.48-3.17c-.14-.11,0-.29.14-.29,3.85.33,6,1.59,6,3.64A1.75,1.75,0,0,1,57.19,27.93Zm2.45-8.64c-1,0-1.29-.5-2-2.19A7.68,7.68,0,0,0,55,13.86c-.15-.11,0-.29.14-.29,3.85.29,6.08,1.66,6.08,3.74C61.26,18.65,60.43,19.29,59.64,19.29ZM74.9,36c0,3.74,0,6.41,0,7.78,0,.93-.61,1.36-1.94,1.36-1,0-1.41-.28-1.41-1.11,0-1.3,0-3.89.08-8H66.34c0,4.1.07,6.34.07,8.5,0,1-.76,1.4-1.91,1.4-1,0-1.4-.29-1.4-1.15,0-2.41.18-5.15.18-14.87,0-2.63,0-5.25-.22-7.92a17.3,17.3,0,0,1,3.64,1.77h5.07V19.47H64.65a14.16,14.16,0,0,0-2.24.22L62,18.36a12.76,12.76,0,0,0,2.63.29h7.12v-2a31.65,31.65,0,0,0-.14-4c4,.47,4.46.58,4.46,1.19,0,.32-.29.54-1.22.9v3.89H80.7c1.44-1.7,1.87-2,2.12-2s.76.28,2.24,1.4c.64.5.93.79.93,1s-.11.36-.47.36H74.87v4.29h5.36c1.37-1.44,1.66-1.66,2-1.66s.64.22,1.9,1.3c.54.46.76.72.76,1s0,.36-1,1.16v2.73c0,12,.11,13,.11,13.86a3.31,3.31,0,0,1-1.4,3.13,4.55,4.55,0,0,1-2.2.47c-.61,0-.76-.11-.86-.9-.15-1-.65-1.62-3.17-2.34-.18,0-.18-.43,0-.43,1.58.14,2.55.21,3.81.21.4,0,.51-.21.51-.64V36Zm-3.16-8c0-1.15,0-2.26,0-3.42H66.3v4.79h5.44Zm0,7.2c0-1.65,0-3.34,0-5H66.3c0,1.66,0,3.35,0,5Zm8.93-10.62H74.87v4.79h5.76Zm0,5.62H74.87c0,1,0,2.12,0,3.17V35.2h5.73Zm-.47-12.56c-.61,0-.94-.25-1.33-1.12a7.18,7.18,0,0,0-2.16-2.66c-.15-.11,0-.4.21-.4,3,.29,4.58,1.23,4.58,2.74A1.35,1.35,0,0,1,80.16,17.64Z"/><path class="c" d="M97.08,37.87c0,1-.57,1.44-1.8,1.44S93.7,39,93.7,38.12c0-2.27.25-5.11.25-14.18,0-3.35,0-6.7-.18-10a24.28,24.28,0,0,1,3.71,1.66h8.46c1.26-1.4,1.55-1.62,1.83-1.62s.69.22,1.91,1.19c.54.43.76.68.76,1s-.25.61-1,1.08v3.2c0,8.46.18,14.65.18,16.56,0,.94-.68,1.4-1.91,1.4-.93,0-1.4-.32-1.4-1.11V36H97.08Zm3.1-13V16.38h-3.1v8.53Zm-3.1,10.22h3.1V25.74h-3.1Zm9.22-18.75h-3.13v8.53h3.13Zm0,9.36h-3.13v9.39h3.13Zm13.42,8.35c0,3.67.11,6.33.11,7.88a3.92,3.92,0,0,1-.61,2.3c-.65.87-1.76,1.3-3.46,1.3-.54,0-.64-.11-.75-.83-.29-1.44-1.19-2-4.61-2.7-.21,0-.18-.57,0-.57,1.69.1,3.56.21,5,.21.68,0,.79-.11.79-.72V19.44h-3.49a12.93,12.93,0,0,0-2.34.28l-.39-1.4a16.41,16.41,0,0,0,2.73.29h7.78c1.72-2.16,2.16-2.45,2.41-2.45s.72.29,2.41,1.69c.76.65,1,1,1,1.23s-.1.36-.46.36h-6.2Z"/><path class="c" d="M136.61,35.06v2.27c0,1.08-.65,1.47-1.83,1.47-.9,0-1.37-.36-1.37-1.19,0-2.26.14-4.49.14-13.57,0-2.52,0-5-.14-7.59a36.06,36.06,0,0,1,3.52,1.73h2.52c1.05-1.3,1.34-1.51,1.62-1.51s.65.21,1.84,1.15c.54.47.76.72.76,1s-.11.39-.94.93v2.7c0,7.13.11,12.06.11,13.68,0,1-.61,1.44-1.84,1.44-1,0-1.33-.43-1.33-1.23V35.06Zm3.06-16h-3.06V34.23h3.06Zm14.4,1.87a27.75,27.75,0,0,0,1.76-4.18,18.68,18.68,0,0,0,.87-3.27c3.31,1.08,4.24,1.51,4.24,2s-.43.68-1.4.68a25.75,25.75,0,0,1-4.1,4.79h4.24c1.52-1.77,1.95-2.05,2.2-2.05s.72.28,2.12,1.43c.62.51.9.83.9,1.08s-.11.36-.46.36H157v6.09h2.19c1.3-1.69,1.73-2,2-2s.72.29,2.13,1.4c.61.47.9.79.9,1.05s-.11.36-.47.36H157V34.7h2.19c1.3-1.62,1.73-1.91,2-1.91s.72.29,2.13,1.33c.61.51.9.79.9,1.05s-.11.36-.47.36H157v6.94h3.13c1.55-1.9,2-2.19,2.23-2.19s.72.29,2.31,1.55c.68.54,1,.86,1,1.11s-.11.36-.47.36H149v1c0,1.08-.72,1.44-1.9,1.44s-1.44-.36-1.44-1.19c0-.65.14-2.84.14-6.8,0-4.68.07-8.89.11-12.67a19.92,19.92,0,0,1-2.67,2.3c-.14.11-.39-.11-.28-.25A31.07,31.07,0,0,0,147.81,18,23,23,0,0,0,149,13.07c3.82.9,4.61,1.18,4.61,1.69s-.29.65-1.44,1a27.89,27.89,0,0,1-2.77,5.15Zm-.32,6.91V21.7H149v6.09ZM149,34.7h4.76V28.62H149Zm0,7.77h4.76V35.53H149Z"/><path class="c" d="M197.7,28.69c2.09-2.59,2.52-2.88,2.77-2.88s.72.29,2.81,2c1,.79,1.26,1.11,1.26,1.37s-.11.36-.47.36H175.85a34.3,34.3,0,0,0-3.49.21L172,28.4a25.46,25.46,0,0,0,3.82.29Z"/><path class="c" d="M228.34,22.64a15,15,0,0,1-.79,3.82,26.25,26.25,0,0,1-2.27,5.18,29.64,29.64,0,0,1-4,6,4,4,0,0,1-3,1.48,3.66,3.66,0,0,1-2.73-1.41c-1.3-1.44-2-3.27-2-6.55a11.27,11.27,0,0,1,1.55-5.47,13.93,13.93,0,0,1,4.86-5,16.12,16.12,0,0,1,8.71-2.34,13.74,13.74,0,0,1,8.92,2.81,11,11,0,0,1,4.22,9.14,9.8,9.8,0,0,1-3.32,7.42,15.64,15.64,0,0,1-5.32,3.2,25.51,25.51,0,0,1-7.38,1.37c-.54,0-.79-.07-.79-.36s.21-.36.68-.47A17.88,17.88,0,0,0,235,36.71a10.7,10.7,0,0,0,3.24-8.35A7.86,7.86,0,0,0,235,21.6a11.34,11.34,0,0,0-5.76-2,17.34,17.34,0,0,0-2.26,0A4.94,4.94,0,0,1,228.34,22.64Zm-8.75.14a10.93,10.93,0,0,0-3.06,4.43,9.38,9.38,0,0,0-.61,3.42,7.12,7.12,0,0,0,.9,3.89,2.32,2.32,0,0,0,1.58,1.19c.58,0,1.12-.36,2.49-2.31a43.41,43.41,0,0,0,4.82-8.82,8.43,8.43,0,0,0,.76-3.06,1.83,1.83,0,0,0-.65-1.62A12.16,12.16,0,0,0,219.59,22.78Z"/><path class="c" d="M256.81,31.57A29.75,29.75,0,0,1,251,35.89c-.15.1-.51-.26-.36-.36a27.44,27.44,0,0,0,6.91-9.79,20.29,20.29,0,0,0,1.26-3.93c3.67,1.23,4.61,1.73,4.61,2.2s-.47.79-1.52.93a30.9,30.9,0,0,1-2.8,4.22c1.65.25,1.9.39,1.9.75s-.21.51-1,.87V33c0,6,0,10.11,0,11.44,0,1-.72,1.48-2,1.48-.94,0-1.52-.18-1.52-1.12s.36-4.39.36-10.76Zm16.38-13.18c0,1.23,0,2.05,0,2.41,0,.8-.61,1.16-2,1.16-1,0-1.41-.26-1.41-1,0-.25,0-1,0-2.59h-6.23c0,1.12,0,1.87,0,2.23,0,.87-.65,1.19-1.94,1.19-1,0-1.44-.29-1.44-1.08,0-.29.07-1,.07-2.34h-6.63a13.37,13.37,0,0,0-2.26.22l-.4-1.33a13.39,13.39,0,0,0,2.66.29h6.66v-.9a19.14,19.14,0,0,0-.18-3.78c4.14.43,4.54.54,4.54,1,0,.32-.29.58-1.12.9v2.74h6.23a40,40,0,0,0-.11-4.68c3.89.46,4.43.57,4.43,1.11,0,.25-.25.47-1,.83v2.74h4.71c1.62-1.91,2.05-2.2,2.31-2.2s.75.29,2.44,1.55c.76.57,1.05.86,1.05,1.11s-.11.36-.47.36Zm-2.88,14.26a27,27,0,0,0,4.79-4.18,15.66,15.66,0,0,0,2.7-3.92c3,1.65,4.21,2.52,4.21,3.06s-.36.72-1.65.65a33.92,33.92,0,0,1-10.05,5.54v6.41c0,1.51.54,1.72,4.57,1.72,2.2,0,3.6-.07,4.47-.75s1.26-1.91,2-5.11c0-.18.47-.11.47.07-.08,1.37-.08,2.63-.08,3.74,0,.79.11,1,.47,1.12,1.16.5,1.41.75,1.41,1.55,0,1-.69,1.62-2.23,2.05a26.89,26.89,0,0,1-6.59.57c-6.91,0-8.06-.68-8.06-4.71,0-.94.07-1.91.07-5.76,0-4.18,0-8.35-.15-12.53,4,.43,4.83.58,4.83,1.08s-.4.72-1.23,1Z"/><path class="c" d="M305.38,23.5c3.42-1.83,7.52-3.27,9.72-3.27s4.06.43,5.32,1.73A5,5,0,0,1,322,25.77a5.29,5.29,0,0,1-2.77,4.72A9,9,0,0,1,314,31.93a15,15,0,0,1-8-2.27c-.47-.29-.65-.4-.65-.68,0-.11.15-.15.29-.15s.54.15,1,.25a15.39,15.39,0,0,0,4.93.51,12,12,0,0,0,4.82-1.26c1.69-.9,2.63-1.87,2.63-3.57a2.57,2.57,0,0,0-.76-2,4.57,4.57,0,0,0-3.16-1.15c-2.38,0-5.33,1.26-9.4,3.67-1,.61-2.05,1.26-3.2,1.94.72,1.37,1.44,2.74,2.16,4.14,1.69,3.31,3,6.19,4,8.57a6.81,6.81,0,0,1,.61,2.77,1.89,1.89,0,0,1-1.8,2,1.62,1.62,0,0,1-1.08-.36c-.47-.36-.54-1.08-.76-1.8a92.26,92.26,0,0,0-5-14c-.65.47-1.19.83-1.8,1.33A12.73,12.73,0,0,0,297,31.42a1.55,1.55,0,0,1-1.26.65A4.48,4.48,0,0,1,293,30.88a3.51,3.51,0,0,1-1.62-2.44c0-.54.15-.76.33-.76s.36.18.57.32a3.2,3.2,0,0,0,2.05.83,9.89,9.89,0,0,0,3-1.19c.46-.21,1.26-.64,2.12-1.15A18.3,18.3,0,0,0,298,24.12a3.24,3.24,0,0,1-.62-1.73,4.29,4.29,0,0,1,1.19-2.84,2.31,2.31,0,0,1,1.84-.87,42.74,42.74,0,0,1,5-.54,6,6,0,0,1-1-3c0-1,.36-1.73.68-1.73s.33.18.44.61a4.12,4.12,0,0,0,.86,1.41,13.26,13.26,0,0,0,1.87,1.62,3.43,3.43,0,0,1,1.59,2.77,1.16,1.16,0,0,1-1.26,1.26,2.28,2.28,0,0,1-1.55-.61,8.9,8.9,0,0,0-2.67-.87,9.68,9.68,0,0,0-3.09-.14c-1.19.18-1.59.79-1.59,1.55a2.61,2.61,0,0,0,.29,1.36c.22.44.69,1.34,1.69,3.06C303,24.73,304.19,24.15,305.38,23.5Z"/><path class="c" d="M347.25,12.89V45.64H346V12.89Z"/><path class="c" d="M377.34,20.56h-5.56V36.4H371V19.8h6.36Z"/><path class="c" d="M384.32,30.54a16.58,16.58,0,0,1-3.26,2.4c-.08.06-.28-.14-.2-.2a15.15,15.15,0,0,0,3.84-5.44,11,11,0,0,0,.7-2.18c2,.68,2.56,1,2.56,1.22s-.26.44-.84.52a17,17,0,0,1-1.56,2.34c.92.14,1.06.22,1.06.42s-.12.28-.54.48v1.24c0,3.32,0,5.62,0,6.36,0,.58-.4.82-1.14.82-.52,0-.84-.1-.84-.62s.2-2.44.2-6Zm9.1-7.32c0,.68,0,1.14,0,1.34,0,.44-.34.64-1.1.64-.54,0-.78-.14-.78-.54,0-.14,0-.56,0-1.44h-3.46c0,.62,0,1,0,1.24,0,.48-.36.66-1.08.66-.56,0-.8-.16-.8-.6,0-.16,0-.56,0-1.3h-3.68a7.79,7.79,0,0,0-1.26.12l-.22-.74a7.2,7.2,0,0,0,1.48.16h3.7v-.5a10.64,10.64,0,0,0-.1-2.1c2.3.24,2.52.3,2.52.58s-.16.32-.62.5v1.52h3.46a22.67,22.67,0,0,0-.06-2.6c2.16.26,2.46.32,2.46.62,0,.14-.14.26-.58.46v1.52H396c.9-1.06,1.14-1.22,1.28-1.22s.42.16,1.36.86c.42.32.58.48.58.62s-.06.2-.26.2Zm-1.6,7.92a15.17,15.17,0,0,0,2.66-2.32,8.69,8.69,0,0,0,1.5-2.18c1.66.92,2.34,1.4,2.34,1.7s-.2.4-.92.36a18.87,18.87,0,0,1-5.58,3.08v3.56c0,.84.3,1,2.54,1a4.17,4.17,0,0,0,2.48-.42c.44-.34.7-1.06,1.14-2.84,0-.1.26-.06.26,0,0,.76,0,1.46,0,2.08,0,.44.06.54.26.62.64.28.78.42.78.86s-.38.9-1.24,1.14a14.7,14.7,0,0,1-3.66.32c-3.84,0-4.48-.38-4.48-2.62,0-.52,0-1.06,0-3.2,0-2.32,0-4.64-.08-7,2.22.24,2.68.32,2.68.6s-.22.4-.68.56Z"/><path class="c" d="M410,27.58a30.91,30.91,0,0,1-.1-3.82,3.11,3.11,0,0,0-.08-1c-.06-.24-.18-.36-.58-.56-.2-.1-.4-.2-.6-.28s-.18-.06-.18-.14.12-.24.26-.32a2.18,2.18,0,0,1,1.08-.32,3,3,0,0,1,1.74.82,1.1,1.1,0,0,1,.52.88.85.85,0,0,1-.24.56,1.75,1.75,0,0,0-.16.56,11.24,11.24,0,0,0-.12,1.24,19.94,19.94,0,0,0,0,2.54c0,.4.28.48.56.48a11,11,0,0,0,1.74-.7,12.41,12.41,0,0,0,1.26-.62.35.35,0,0,0,.1-.52,2.08,2.08,0,0,0-.4-.5c-.1-.1-.18-.16-.18-.24s.2-.22.46-.22a1.35,1.35,0,0,1,.68.22,4.6,4.6,0,0,1,1.26,1,1.94,1.94,0,0,1,.46,1c0,.36-.16.54-.56.6s-.9.18-1.26.26A24.51,24.51,0,0,0,412,29.54c-3,1.18-4.24,2.2-4.24,3.8,0,1.28,1.18,2,3.84,2a10.51,10.51,0,0,0,3.48-.36,2,2,0,0,1,.94-.24,3,3,0,0,1,1,.18c.56.18.86.52.86.88s-.14.76-.92.94a16.46,16.46,0,0,1-4,.32,13,13,0,0,1-3.74-.44,4,4,0,0,1-1.8-1.12,2.78,2.78,0,0,1-.7-1.86c0-2.14,1.52-3.38,4-4.7A2,2,0,0,1,410,27.58Z"/><path class="c" d="M441.86,31.9a1.26,1.26,0,0,1,.64,1,1.05,1.05,0,0,1-.26.74,1.11,1.11,0,0,1-.68.22,1.46,1.46,0,0,1-.92-.38,17,17,0,0,0-2.26-1.54,11.48,11.48,0,0,1-3.1,4.06,9.38,9.38,0,0,1-2.46,1.38,4.89,4.89,0,0,1-1.22.38c-.12,0-.2,0-.2-.16s0-.18.18-.26c.4-.22.76-.38,1-.56a9.81,9.81,0,0,0,2.66-2.48,13,13,0,0,0,1.66-3A17.29,17.29,0,0,0,432.2,30,16.93,16.93,0,0,1,430,33.46a2.71,2.71,0,0,1-2,1.06,1.78,1.78,0,0,1-1.32-.5,1.83,1.83,0,0,1-.48-1.34,3.28,3.28,0,0,1,1.8-2.74,6.69,6.69,0,0,1,3.22-.9,51.14,51.14,0,0,0,2.14-5.7c0-.14-.12-.18-.26-.14a8.63,8.63,0,0,0-2.32,1,1,1,0,0,1-.56.22,1.26,1.26,0,0,1-.9-.52,3.41,3.41,0,0,1-.76-1.46,1,1,0,0,1,.14-.54c.06-.1.16-.24.26-.24s.18.14.3.36.44.72.94.72a7.78,7.78,0,0,0,1.92-.38,2.32,2.32,0,0,0,1.38-.76.62.62,0,0,1,.58-.32,2.53,2.53,0,0,1,1.3.54.69.69,0,0,1,.34.58c0,.32-.16.46-.5,1.06a21.17,21.17,0,0,0-1,2.12c-.52,1.16-.94,2.14-1.54,3.48a21.79,21.79,0,0,1,4.72.82,10.52,10.52,0,0,0,.48-2.66c0-.56-.2-.8-.84-1.08-.12-.06-.18,0-.18-.14a.88.88,0,0,1,.8-.44,3.15,3.15,0,0,1,1.5.62c.76.56.88.82.88,1.16a.71.71,0,0,1-.2.5,1.27,1.27,0,0,0-.3.48c-.22.88-.36,1.4-.56,2.12A13.34,13.34,0,0,1,441.86,31.9ZM428.3,30.66A2.2,2.2,0,0,0,427,32.4a1.08,1.08,0,0,0,.18.66.76.76,0,0,0,.66.3,1.84,1.84,0,0,0,1.3-.76,12.8,12.8,0,0,0,1.58-2.6A5.33,5.33,0,0,0,428.3,30.66Z"/><path class="c" d="M453.84,27.66a30.91,30.91,0,0,1-.1-3.82,3.11,3.11,0,0,0-.08-1c-.06-.24-.18-.36-.58-.56-.2-.1-.4-.2-.6-.28s-.18-.06-.18-.14.12-.24.26-.32a2.18,2.18,0,0,1,1.08-.32,3,3,0,0,1,1.74.82,1.1,1.1,0,0,1,.52.88.85.85,0,0,1-.24.56,1.75,1.75,0,0,0-.16.56,11.24,11.24,0,0,0-.12,1.24,19.94,19.94,0,0,0,0,2.54c0,.4.28.48.56.48a11,11,0,0,0,1.74-.7,12.41,12.41,0,0,0,1.26-.62.35.35,0,0,0,.1-.52,2.08,2.08,0,0,0-.4-.5c-.1-.1-.18-.16-.18-.24s.2-.22.46-.22a1.35,1.35,0,0,1,.68.22,4.6,4.6,0,0,1,1.26,1,1.94,1.94,0,0,1,.46,1c0,.36-.16.54-.56.6s-.9.18-1.26.26a24.51,24.51,0,0,0-3.66,1.08c-3,1.18-4.24,2.2-4.24,3.8,0,1.28,1.18,2,3.84,2a10.51,10.51,0,0,0,3.48-.36,2,2,0,0,1,.94-.24,3,3,0,0,1,1,.18c.56.18.86.52.86.88s-.14.76-.92.94a16.46,16.46,0,0,1-4,.32A13,13,0,0,1,453,36.7a4,4,0,0,1-1.8-1.12,2.78,2.78,0,0,1-.7-1.86c0-2.14,1.52-3.38,4-4.7A2,2,0,0,1,453.84,27.66Zm8.2-4.38a1.5,1.5,0,0,1,.74,1.2.67.67,0,0,1-.66.7.72.72,0,0,1-.68-.46A7.49,7.49,0,0,0,460.18,23c-.08-.08-.22-.18-.22-.26s0-.1.1-.12a.86.86,0,0,1,.32,0A3.9,3.9,0,0,1,462,23.28ZM463.9,22a1.28,1.28,0,0,1,.72,1,.67.67,0,0,1-.62.74.77.77,0,0,1-.74-.44,5.08,5.08,0,0,0-1.4-1.56c-.08-.06-.24-.16-.24-.24a.12.12,0,0,1,.06-.12.52.52,0,0,1,.32,0A4.11,4.11,0,0,1,463.9,22Z"/><path class="c" d="M476.76,26.2a9.06,9.06,0,0,1,1.1-2.22,2.09,2.09,0,0,1,1.7-.92,2.64,2.64,0,0,1,2.24,1.42,8.45,8.45,0,0,1,1,4.14,8.81,8.81,0,0,1-1.38,5.32,7.67,7.67,0,0,1-2.6,2.48,12.1,12.1,0,0,1-3.44,1.4,2,2,0,0,1-.58.1c-.16,0-.26,0-.26-.2s.12-.16.36-.26a9.48,9.48,0,0,0,4.74-3.64c.92-1.46,1.26-2.84,1.26-5.46a10.64,10.64,0,0,0-.4-3.32c-.3-.86-.72-1.16-1.24-1.16-.94,0-1.64.76-2.6,4.82a10.55,10.55,0,0,0-.38,2.14,12.37,12.37,0,0,0,.1,1.34c0,.54-.2.74-.7.74s-1.06-.64-1.3-1.46a8.63,8.63,0,0,1-.28-2.68,27.61,27.61,0,0,1,.48-4.36,10,10,0,0,0,.16-1.72,1.79,1.79,0,0,0-.52-1.22c-.08-.1-.16-.16-.16-.26s.18-.24.44-.24a1.12,1.12,0,0,1,.58.24,3.85,3.85,0,0,1,1.32,1.54,2,2,0,0,1,.24.86.79.79,0,0,1-.26.64,2,2,0,0,0-.34.6,11,11,0,0,0-.72,3.48,5.76,5.76,0,0,0,.06,1.16c0,.16.2.14.26,0C476.12,27.86,476.42,27.08,476.76,26.2Z"/><path class="c" d="M500.5,25.58a8.15,8.15,0,0,1-.44,2.12,14.36,14.36,0,0,1-1.26,2.88,16.44,16.44,0,0,1-2.22,3.34,2.2,2.2,0,0,1-1.66.82A2,2,0,0,1,493.4,34a5,5,0,0,1-1.1-3.64,6.25,6.25,0,0,1,.86-3,7.73,7.73,0,0,1,2.7-2.8,9,9,0,0,1,4.84-1.3,7.65,7.65,0,0,1,5,1.56A6.13,6.13,0,0,1,508,29.82a5.43,5.43,0,0,1-1.84,4.12,8.73,8.73,0,0,1-3,1.78,14.23,14.23,0,0,1-4.1.76c-.3,0-.44,0-.44-.2s.12-.2.38-.26a9.92,9.92,0,0,0,5.14-2.62,5.94,5.94,0,0,0,1.8-4.64A4.37,4.37,0,0,0,504.22,25a6.31,6.31,0,0,0-3.2-1.08,9,9,0,0,0-1.26,0A2.75,2.75,0,0,1,500.5,25.58Zm-4.86.08a6.09,6.09,0,0,0-1.7,2.46,5.21,5.21,0,0,0-.34,1.9,4,4,0,0,0,.5,2.16,1.29,1.29,0,0,0,.88.66c.32,0,.62-.2,1.38-1.28a24.29,24.29,0,0,0,2.68-4.9,4.64,4.64,0,0,0,.42-1.7,1,1,0,0,0-.36-.9A6.73,6.73,0,0,0,495.64,25.66Z"/><path class="c" d="M526,28.8a1.47,1.47,0,0,0,.62-.28,1.42,1.42,0,0,1,1-.2,3.38,3.38,0,0,1,1.18.2.79.79,0,0,1,.6.74c0,.38-.32.62-.86.62-.1,0-.38,0-.7,0a27.09,27.09,0,0,0-4.66.72c.34,2,.64,3.72,1,5.32a4.36,4.36,0,0,1,.16.9c0,.5-.5.76-1,.76s-.7-.2-.8-.88c-.26-1.82-.54-3.66-.88-5.72a25.72,25.72,0,0,0-3.28.9,3.54,3.54,0,0,0-1,.5.89.89,0,0,1-.66.26,3.27,3.27,0,0,1-1.9-1.2,1,1,0,0,1-.22-.64c0-.14,0-.24.12-.24a.61.61,0,0,1,.34.16,2.09,2.09,0,0,0,1,.3,8.24,8.24,0,0,0,1.74-.26c1-.24,2.3-.56,3.68-.88-.16-1-.3-1.92-.48-2.9-1.36.32-2,.5-2.46.66a3.76,3.76,0,0,0-.7.26,1,1,0,0,1-.6.2c-.22,0-.58-.16-1.08-.66s-.68-.82-.68-1.1.06-.38.14-.38.14,0,.26.14a1.93,1.93,0,0,0,1.34.52,6.88,6.88,0,0,0,1.2-.18c.8-.16,1.6-.34,2.34-.52-.36-1.94-.44-2.48-.6-3-.06-.18-.12-.36-.24-.42a3.59,3.59,0,0,0-1-.24c-.14,0-.22-.08-.22-.18s.26-.38.4-.46a1.59,1.59,0,0,1,.8-.16,6.07,6.07,0,0,1,1.68.26c.46.14.82.44.82.8a.74.74,0,0,1-.14.46.83.83,0,0,0-.16.62c.06.62.1,1,.24,1.92.62-.16,1.38-.36,2-.56a1.34,1.34,0,0,0,.52-.28,1.48,1.48,0,0,1,.86-.38,3.67,3.67,0,0,1,1.36.2.7.7,0,0,1,.44.6.4.4,0,0,1-.24.44,3.1,3.1,0,0,1-.7.2c-1.36.26-2.7.58-4.06.86.14.9.3,1.88.48,2.88C524.2,29.26,525.18,29,526,28.8Zm2.38-6.12a1.5,1.5,0,0,1,.74,1.2.67.67,0,0,1-.66.7.72.72,0,0,1-.68-.46,7.49,7.49,0,0,0-1.26-1.76c-.08-.08-.22-.18-.22-.26s.1-.14.24-.14A1.75,1.75,0,0,1,527,22,3.66,3.66,0,0,1,528.34,22.68Zm1.86-1.4a1.22,1.22,0,0,1,.72,1,.67.67,0,0,1-.62.74.77.77,0,0,1-.74-.44,5.08,5.08,0,0,0-1.4-1.56c-.08-.06-.24-.16-.24-.24a.16.16,0,0,1,.16-.16,2.76,2.76,0,0,1,.52.06A4.67,4.67,0,0,1,530.2,21.28Z"/><path class="c" d="M540.82,26a1.84,1.84,0,0,0-.7.28,1.13,1.13,0,0,1-.58.14c-.34,0-.72-.26-1.2-.86s-.66-.94-.66-1.4.1-.6.22-.6.18.08.34.24a1.85,1.85,0,0,0,1.74.8c.5,0,1,0,1.48-.08,2-.18,4-.36,5.78-.58a1.77,1.77,0,0,0,.9-.28.88.88,0,0,1,.52-.24A2,2,0,0,1,550,24c.72.54.9.82.9,1.28a.64.64,0,0,1-.42.52,1.83,1.83,0,0,0-.86,1,22.14,22.14,0,0,1-3.8,5.32,17.62,17.62,0,0,1-6.6,4.32,1.11,1.11,0,0,1-.3.06c-.18,0-.26,0-.26-.22s.1-.18.32-.32a20.65,20.65,0,0,0,5.66-5,30.61,30.61,0,0,0,3.12-5.1,1.63,1.63,0,0,0,.26-.68c0-.08-.1-.1-.2-.1a7.83,7.83,0,0,0-.84.08C544.94,25.4,542.6,25.68,540.82,26Z"/><path class="c" d="M569.5,28.2c1.2.5,1.86,1.12,1.86,2a1,1,0,0,1-.86,1.06,1.35,1.35,0,0,1-1.1-.58A11.08,11.08,0,0,0,568,29.24a5.91,5.91,0,0,0-2.08-1.14v3.48c0,.84,0,2.68.08,4.84,0,.76-.34.94-.74.94a.92.92,0,0,1-.84-.46,3.39,3.39,0,0,1-.44-1.58,2.08,2.08,0,0,1,.1-.58.74.74,0,0,0,.1-.34c0-.26.06-.82.08-4.48,0-1.9,0-3.6,0-5.48a10.49,10.49,0,0,0-.08-1.7.92.92,0,0,0-.42-.46A2.78,2.78,0,0,0,563,22c-.14,0-.2-.1-.2-.18s.14-.22.26-.3a1.16,1.16,0,0,1,.56-.18,4.76,4.76,0,0,1,2,.54c.54.24.8.56.8.94a.86.86,0,0,1-.34.64.62.62,0,0,0-.14.4c-.06.56-.1,1.74-.1,3.6A11.28,11.28,0,0,1,569.5,28.2Z"/><path class="c" d="M586,28.84a12.23,12.23,0,0,1-2.58,2.6,7.52,7.52,0,0,0,1.4.14h6.08c.46-.52.62-.64.78-.64s.36.12,1.12.82c.34.3.46.46.46.62s-.06.2-.5.42a21.74,21.74,0,0,1-.72,3.92,1.87,1.87,0,0,1-1,1.2,3.56,3.56,0,0,1-1.42.2c-.48,0-.5,0-.64-.6s-.58-.9-2-1.28c-.1,0-.1-.34,0-.32a24.92,24.92,0,0,0,2.62.18c.6,0,.76-.16,1-1A19.79,19.79,0,0,0,591,32h-3.36c-.8,3.78-3.08,5.6-8,6.46-.1,0-.2-.24-.1-.28,3.84-1.36,5.48-3,6.1-6.18h-.76a6.22,6.22,0,0,0-1.38.16l-.18-.68a18,18,0,0,1-4.28,2.24c-.1,0-.22-.22-.14-.28a15.6,15.6,0,0,0,5.14-4.64h-3.3a10.43,10.43,0,0,0-1.46.12l-.22-.74a8.68,8.68,0,0,0,1.64.16h3.64a15.59,15.59,0,0,0,1.3-2.58H582a10.43,10.43,0,0,0-1.46.12l-.22-.74a8.49,8.49,0,0,0,1.62.16h3.94a16.07,16.07,0,0,0,.56-1.74,14.36,14.36,0,0,0,.52-3.36c2.22.42,2.66.56,2.66.82s-.2.38-.72.54a24.68,24.68,0,0,1-1,3.74h2a19.12,19.12,0,0,0,1.32-2.64A10.45,10.45,0,0,0,591.8,21c2,.84,2.4,1.1,2.4,1.34s-.18.38-.92.38a15,15,0,0,1-2.82,2.66h2.6c1-1.06,1.22-1.22,1.36-1.22s.4.16,1.28.84c.4.34.56.5.56.64s-.06.2-.26.2h-6.3a9.76,9.76,0,0,0,1.74,2.58H594c1.1-1.16,1.34-1.32,1.48-1.32s.4.16,1.36.92c.44.36.6.52.6.66s-.06.2-.26.2h-5.28a7.45,7.45,0,0,0,.86.72,11.72,11.72,0,0,0,5,2.18c.1,0,.06.22,0,.24-.64.16-.84.44-1.1,1.48q-.09.36-.3.36a2.08,2.08,0,0,1-.72-.32,15.27,15.27,0,0,1-3.8-3,13,13,0,0,1-1.24-1.68Zm-2.4-4.22c-.44,0-.66-.24-.8-.94a5.41,5.41,0,0,0-1-2.5c-.06-.08.06-.22.16-.2,2,.5,2.74,1.38,2.74,2.36C584.74,24.16,584.4,24.62,583.64,24.62Zm6.72,3.76a17.34,17.34,0,0,1-1.12-2.58H587.7a15.78,15.78,0,0,1-1.34,2.58Z"/><path class="c" d="M601.06,38h5.56V22.12h.8v16.6h-6.36Z"/><path class="c" d="M630.34,34.26a2.15,2.15,0,0,0,2.32,2.38,3.15,3.15,0,0,0,2.46-1,3.56,3.56,0,0,0,.82-2.52,5.57,5.57,0,0,0-.9-3,7.65,7.65,0,0,0-1.88-1.82c-.14-.1-.2-.18-.2-.28s.06-.14.16-.14a1,1,0,0,1,.3.08,8,8,0,0,1,2.9,1.84,5.15,5.15,0,0,1,1.52,3.4,4,4,0,0,1-1.18,3,5.65,5.65,0,0,1-3.7,1.32c-2.6,0-3.76-1.68-3.76-3.92,0-.42,0-.84.06-1.34a4.81,4.81,0,0,1-1.9-1,2.31,2.31,0,0,1-.8-1.84c0-1.12.74-1.92,1.76-2.86a4.53,4.53,0,0,1-2-1.14,2,2,0,0,1-.62-1.34c0-.22,0-.34.14-.34s.14.08.28.3c.24.38.86.8,2.26,1.08a9.09,9.09,0,0,0,1,.1,1.64,1.64,0,0,1,.8.28c.24-1.6.4-2.44.42-3.1s-.22-.78-.84-1.14c-.2-.12-.28-.16-.28-.24s.1-.2.26-.3a1.29,1.29,0,0,1,.7-.14,4.34,4.34,0,0,1,2,1,1.23,1.23,0,0,1,.56.94.72.72,0,0,1-.34.62c-.12.08-.24.24-.38.68a54.18,54.18,0,0,0-1.58,7c.4,0,.64,0,1,0a1.5,1.5,0,0,1,.74.26.78.78,0,0,1,.32.7c0,.32-.32.62-.78.7a10.07,10.07,0,0,1-1.54.08A15.92,15.92,0,0,0,630.34,34.26Zm-.76-7.2a2.31,2.31,0,0,0-.72.24,4,4,0,0,0-1,.68,1.75,1.75,0,0,0-.68,1.26c0,.76.52,1.34,2.28,1.54.18-1.4.34-2.6.52-3.78Z"/><path class="c" d="M646.78,21.78h-.42a5.54,5.54,0,0,0-1.06.12l-.22-.74a5.62,5.62,0,0,0,1.32.16h6.7c.84-1,1.08-1.12,1.22-1.12s.4.16,1.2.78c.36.3.52.46.52.6s-.06.2-.26.2h-2.46v5.66c0,3.82,0,8.56,0,10.14,0,.64-.32.9-1.08.9s-.84-.2-.84-.78c0-.38.1-1.56.1-3.9v-.64a24.38,24.38,0,0,1-5.06,2.32c-.14.54-.3.76-.56.76s-.3,0-1-2.48c.56,0,1.2-.1,1.84-.18Zm1.78,3.42h3V21.78h-3Zm0,3.72h3V25.66h-3Zm0,4.4c1-.16,2-.36,3-.6V29.38h-3Zm11.54-9.84c.82-.92,1-1.06,1.16-1.06s.38.1,1.14.78c.5.44.54.58.54.78s-.16.38-.66.64a21.65,21.65,0,0,1-2.9,7.92A14.46,14.46,0,0,0,664,35.8c.1,0,0,.2-.06.24a1.67,1.67,0,0,0-1.08,1.32c-.1.42-.16.52-.36.52a1.67,1.67,0,0,1-.74-.42A14.33,14.33,0,0,1,658.32,34a14.83,14.83,0,0,1-4.68,3.74c-.08,0-.24-.2-.16-.26a17.81,17.81,0,0,0,4-4.86l-.42-.9a25.06,25.06,0,0,1-1.8-7.78c-.48,0-.88.06-1.24.1l-.2-.74a6.26,6.26,0,0,0,1.76.18Zm-4.36.46a20,20,0,0,0,2.52,7.14,26.33,26.33,0,0,0,2-7.14Z"/><path class="c" d="M674.76,26.2a9.06,9.06,0,0,1,1.1-2.22,2.09,2.09,0,0,1,1.7-.92,2.64,2.64,0,0,1,2.24,1.42,8.45,8.45,0,0,1,1,4.14,8.81,8.81,0,0,1-1.38,5.32,7.67,7.67,0,0,1-2.6,2.48,12.1,12.1,0,0,1-3.44,1.4,2,2,0,0,1-.58.1c-.16,0-.26,0-.26-.2s.12-.16.36-.26a9.48,9.48,0,0,0,4.74-3.64c.92-1.46,1.26-2.84,1.26-5.46a10.64,10.64,0,0,0-.4-3.32c-.3-.86-.72-1.16-1.24-1.16-.94,0-1.64.76-2.6,4.82a10.55,10.55,0,0,0-.38,2.14,12.37,12.37,0,0,0,.1,1.34c0,.54-.2.74-.7.74s-1.06-.64-1.3-1.46a8.63,8.63,0,0,1-.28-2.68,27.61,27.61,0,0,1,.48-4.36,10,10,0,0,0,.16-1.72,1.79,1.79,0,0,0-.52-1.22c-.08-.1-.16-.16-.16-.26s.18-.24.44-.24a1.12,1.12,0,0,1,.58.24,3.85,3.85,0,0,1,1.32,1.54,2,2,0,0,1,.24.86.79.79,0,0,1-.26.64,2,2,0,0,0-.34.6,11,11,0,0,0-.72,3.48,5.76,5.76,0,0,0,.06,1.16c0,.16.2.14.26,0C674.12,27.86,674.42,27.08,674.76,26.2Z"/><path class="c" d="M693.58,29c.82-.24,1.68-.52,2.54-.84.1,0,.16.18.08.24-.9.62-1.76,1.16-2.62,1.64V32c0,2.78,0,3.62,0,4.5a2.13,2.13,0,0,1-.48,1.52,2.29,2.29,0,0,1-1.6.5c-.26,0-.34-.12-.38-.42-.12-.84-.36-1-1.9-1.48-.1,0-.1-.26,0-.26.84.06,1.68.1,2.26.1.26,0,.28,0,.28-.3V31c-.42.2-.86.38-1.28.56-.06.5-.18.72-.4.72s-.34-.18-1-2.32a17.49,17.49,0,0,0,1.74-.28c.32-.06.62-.12.94-.2V25.16H690.6a5.35,5.35,0,0,0-1,.12l-.22-.74a5,5,0,0,0,1.24.16h1.2V22.54a17.77,17.77,0,0,0-.1-2.36c2,.18,2.54.3,2.54.64s-.2.4-.64.54V24.7h.2c.68-.88.92-1,1.06-1s.38.16,1,.72c.28.26.44.44.44.58s-.06.2-.26.2h-2.48Zm10.6-2.42c.66-.76.82-.88,1-.88s.42.16,1.16.76c.36.28.48.44.48.62s-.1.34-.62.56a15.54,15.54,0,0,1-2.86,5.72,15.29,15.29,0,0,0,4.52,2.74c.1,0,.06.18,0,.2-.74.2-1,.54-1.16,1.34-.1.44-.16.52-.38.52a1.83,1.83,0,0,1-.9-.38,13.56,13.56,0,0,1-3.32-3.1,16.7,16.7,0,0,1-7.14,3.5c-.1,0-.2-.16-.1-.2a18.06,18.06,0,0,0,6.38-4.58,13,13,0,0,1-.68-1.28,19.45,19.45,0,0,1-1.72-7.36c-.36,6.82-1.8,10.64-4.82,13.28-.08.06-.24-.08-.18-.16,2.26-3.28,3.22-8,3.28-15.86h-.4a7.34,7.34,0,0,0-1.28.08l-.18-.72a4.67,4.67,0,0,0,1.36.18h5.5c.68-.74.84-.86,1-.86s.36.12,1.1.8c.34.3.46.46.46.62s-.16.3-.66.46c-.4,1.52-.82,3.08-1.1,4Zm-5.34-4.2c.46,3.9,1.28,6.74,2.7,8.9.2.3.4.58.62.86a14.54,14.54,0,0,0,2.18-5.1H702.7l-.1.26c-.26.6-.48.72-1.2.72s-.9-.22-.9-.5a6.77,6.77,0,0,1,.36-1,43.58,43.58,0,0,0,1.3-4.46h-3.3Z"/><path class="c" d="M722,27.5a4.45,4.45,0,0,1,3,1,3.56,3.56,0,0,1,1.42,3.1,4.07,4.07,0,0,1-2,3.4,8.69,8.69,0,0,1-2.82,1.16,19.86,19.86,0,0,1-3.76.46c-.24,0-.36-.08-.36-.2s.08-.16.34-.2a13.63,13.63,0,0,0,4.12-1.3c1.68-.92,2.84-2.36,2.84-3.82a2.51,2.51,0,0,0-.78-2,2.81,2.81,0,0,0-2.18-.8c-1.26,0-2.7.84-4.48,2.22a4.41,4.41,0,0,0-1.14,1.08.81.81,0,0,1-.74.38,2.56,2.56,0,0,1-1.58-1,1.53,1.53,0,0,1-.44-.94c0-.3.06-.5.22-.5s.12,0,.24.14c.34.3.56.48.88.48a1.2,1.2,0,0,0,.46-.12c.14-.06.4-.16.84-.38q1.92-1,2.58-1.26A8.85,8.85,0,0,1,722,27.5Z"/><path class="c" d="M743.48,25a45.21,45.21,0,0,0-5.82,1.86,3.09,3.09,0,0,0-.76.46.81.81,0,0,1-.58.22c-.4,0-.86-.24-1.52-1a2.45,2.45,0,0,1-.74-1.44c0-.32.08-.62.2-.62s.14,0,.32.2c.7.72.86.8,1.46.78a26.29,26.29,0,0,0,3.34-.66c2.56-.6,4.56-1.14,6.08-1.58a6,6,0,0,0,1.1-.38,1.43,1.43,0,0,1,.76-.18,4.87,4.87,0,0,1,1.84.32c.34.16.64.36.64.78s-.18.7-.74.72-.86,0-2,.1a6.54,6.54,0,0,0-4.58,2.16,5.49,5.49,0,0,0-1.44,3.88,3.54,3.54,0,0,0,1.46,3,6.26,6.26,0,0,0,3.2,1,3.72,3.72,0,0,1,1.54.28,1.16,1.16,0,0,1,.78,1c0,.54-.36,1-1.3,1a9.62,9.62,0,0,1-3.88-.94,5.22,5.22,0,0,1-2.94-4.6A7.18,7.18,0,0,1,740.7,28a9.27,9.27,0,0,1,2.78-2.92Z"/><path class="c" d="M762,32.86a7,7,0,0,0-.26,1.06,1.2,1.2,0,0,0,.14.54,1.84,1.84,0,0,1,.32.86.77.77,0,0,1-.76.82,2.81,2.81,0,0,1-1.92-.86,6.67,6.67,0,0,1-2.08-3.92,18.64,18.64,0,0,1-.26-3.28c0-.86,0-1.8,0-2.78a2.17,2.17,0,0,0-.82-1.5c-.1-.1-.14-.1-.14-.22s.08-.2.42-.2a2.51,2.51,0,0,1,1.44.72,2.57,2.57,0,0,1,1.14,1.76,1.4,1.4,0,0,1-.18.78,9.84,9.84,0,0,0-.34,2.88,7.79,7.79,0,0,0,.44,2.8c.22.58.54,1,.88,1a.74.74,0,0,0,.48-.36c.62-.86,1.14-1.78,2.24-3.5.16-.24.3-.4.4-.4s.2,0,.2.14a.84.84,0,0,1-.08.32A27.93,27.93,0,0,0,762,32.86Zm6.94-6.32a6.9,6.9,0,0,1,2.68,2.68,6.18,6.18,0,0,1,.72,2.62,2.31,2.31,0,0,1-.3,1.44.77.77,0,0,1-.7.42.73.73,0,0,1-.74-.38c-.36-.56-.82-.9-2.1-1-.24,0-.3-.08-.3-.2s.18-.16.38-.22a13.77,13.77,0,0,0,1.4-.48.46.46,0,0,0,.32-.48,5.62,5.62,0,0,0-1-2.54,6.75,6.75,0,0,0-2.08-2c-.14-.1-.26-.16-.26-.28s.08-.14.18-.14A4.43,4.43,0,0,1,768.9,26.54Z"/><path class="c" d="M781.36,26.48a2.76,2.76,0,0,1-2.64-1.6.59.59,0,0,1-.1-.26.19.19,0,0,1,.18-.18c.08,0,.1,0,.18.12a3.2,3.2,0,0,0,2.48.72,30.45,30.45,0,0,0,4.1-.46v-2c0-.58,0-.84-.18-1a1.17,1.17,0,0,0-.56-.24,3.14,3.14,0,0,0-.46-.08c-.08,0-.12,0-.12-.14s.08-.22.24-.38a1.28,1.28,0,0,1,.8-.34,3,3,0,0,1,1.54.5c.72.42.86.78.86,1a.76.76,0,0,1-.28.56,1,1,0,0,0-.38.76c0,.48-.08.74-.1,1.1.76-.12,1.38-.24,2-.36A4.46,4.46,0,0,0,790,23.9a1.52,1.52,0,0,1,1-.2c.74,0,1.44.52,1.44,1s-.26.72-1.32.82c-1.36.12-3,.28-4.26.46,0,1,0,1.94,0,3a8.53,8.53,0,0,0,1.74-.42c.28-.12.24-.26.08-.64a5.79,5.79,0,0,0-.46-.76c-.08-.18,0-.26.22-.12.36.26.76.52,1.1.72a1.13,1.13,0,0,0,.74.18c.6,0,.94.26.94.72s-.44.6-1.08.84a16.32,16.32,0,0,1-3.24.82c0,.86.14,2.3.2,3.1a14.84,14.84,0,0,1,4,1.76c.64.38,1.2.84,1.2,1.58a.83.83,0,0,1-.76.88,1,1,0,0,1-.74-.32,12.39,12.39,0,0,0-3.6-2.42c.1,1.82-.82,3-3.12,3a4.55,4.55,0,0,1-2.54-.68,2.06,2.06,0,0,1-1-1.74,2,2,0,0,1,1-1.6,4.63,4.63,0,0,1,1.9-.6,12.52,12.52,0,0,1,2.14,0c0-.94,0-1.9-.06-2.76-.52,0-1.28,0-1.62,0-2,0-2.86-.66-2.86-1.66a2.54,2.54,0,0,1,.76-1.66,6.66,6.66,0,0,1,1-.78C782.52,26.46,781.86,26.48,781.36,26.48Zm2,7.76a3.79,3.79,0,0,0-1.54.38,1,1,0,0,0-.5.82,1.09,1.09,0,0,0,.64.9,3.8,3.8,0,0,0,1.72.26,2.16,2.16,0,0,0,1.66-.56,2.42,2.42,0,0,0,.32-1.58A7.38,7.38,0,0,0,783.38,34.24Zm-.84-6.94a1.68,1.68,0,0,0-.56,1.1c0,.5.44.88,1.6.88a19.94,19.94,0,0,0,2-.12c0-1.06,0-1.9,0-3-.66.08-1.14.16-1.88.26A4.22,4.22,0,0,0,782.54,27.3Z"/><path class="c" d="M813,24.42a3.18,3.18,0,0,0,.9-.2,1.5,1.5,0,0,1,.66-.2,4.12,4.12,0,0,1,2,.56,1.16,1.16,0,0,1,.58.94.6.6,0,0,1-.64.6,3.54,3.54,0,0,1-1-.1,9.41,9.41,0,0,0-2.24-.34c-1.28,0-2.18,0-3.48.12,0,1-.06,2.06-.06,3.2a5.71,5.71,0,0,1,.5,2.4,6,6,0,0,1-2.4,4.7,8.73,8.73,0,0,1-3.58,1.68,6,6,0,0,1-1.12.2c-.14,0-.28-.08-.28-.2s.08-.22.24-.28c2.82-1,4.56-2.62,5.2-4.64a2.53,2.53,0,0,1-1.18.24,2.33,2.33,0,0,1-1.44-.54,2.54,2.54,0,0,1-.86-1.94,2.46,2.46,0,0,1,.84-1.94,2.88,2.88,0,0,1,1.66-.62,4.71,4.71,0,0,1,1,.12c0-.78,0-1.52,0-2.22a43.82,43.82,0,0,0-4.84.88,3.64,3.64,0,0,0-1.18.52,1.09,1.09,0,0,1-.66.22,1.89,1.89,0,0,1-1.28-.62,2.63,2.63,0,0,1-1-1.5.7.7,0,0,1,.06-.32.21.21,0,0,1,.2-.16.28.28,0,0,1,.18.1,2.52,2.52,0,0,0,1.76.74,11.58,11.58,0,0,0,1.42-.18c1.7-.28,3.68-.56,5.3-.76,0-.64,0-1.26,0-2a1.87,1.87,0,0,0-.08-.7c-.08-.18-.18-.3-.54-.34l-.76-.08c-.12,0-.22-.06-.22-.16s.14-.28.32-.42a1.81,1.81,0,0,1,1.06-.46,3.13,3.13,0,0,1,1.8.66c.36.24.58.5.58.78a.84.84,0,0,1-.28.58.66.66,0,0,0-.22.42c0,.46-.06.82-.08,1.58C811.12,24.6,812.08,24.52,813,24.42Zm-6.7,4.66a1.55,1.55,0,0,0-.42,1.1,1.5,1.5,0,0,0,.36,1.08,1.33,1.33,0,0,0,1.06.44,1.31,1.31,0,0,0,.9-.34,1.53,1.53,0,0,0,.36-1.16,1.72,1.72,0,0,0-.3-1.06,1.22,1.22,0,0,0-1-.44A1.37,1.37,0,0,0,806.26,29.08Z"/></svg>