<svg xmlns="http://www.w3.org/2000/svg" viewBox="0 0 326.81 50"><defs><style>.cls-1{fill:#fffef5;}</style></defs><g id="レイヤー_2" data-name="レイヤー 2"><g id="レイヤー_4" data-name="レイヤー 4"><rect class="cls-1" width="326.81" height="50" rx="3"/><path d="M22.64,27.27a2.22,2.22,0,0,1-2.25,2,.89.89,0,0,1-.71-.24,2.55,2.55,0,0,0-.81-.62c-.6-.27-1-.5-1.88-.85-.46.4-.8.74-1.17,1.11-.14.31-.35.56-.65.56a1.42,1.42,0,0,1-1.08-.55,1.77,1.77,0,0,1-.63-1.23,1.67,1.67,0,0,1,.09-.58.31.31,0,0,1,.26-.24c.06,0,.09.05.13.11a3.12,3.12,0,0,0,.28.42.73.73,0,0,0,.48.34,2.18,2.18,0,0,0,1-.42c.48-.29,1.07-.67,1.68-1.06s1.58-.91,2.49-1.39A15,15,0,0,1,19,23.35,2.19,2.19,0,0,1,18.62,22c0-.86.71-1.66,1.67-2.7a3.59,3.59,0,0,1-1.91-1.84,2.23,2.23,0,0,1-.11-.71c0-.09.07-.2.16-.2s.18.17.28.32A3,3,0,0,0,20.43,18a5.6,5.6,0,0,1,1.64.62,1.23,1.23,0,0,1,.68,1.11.6.6,0,0,1-.65.56c-.35,0-.66-.05-.87-.05-.72,0-2,.62-2,1.47,0,.55.18.93,1.65,2.53a7.76,7.76,0,0,1,2.23-.38A7.15,7.15,0,0,1,25,24a3.89,3.89,0,0,1,1.79,1,2.37,2.37,0,0,1,.69,1.54c0,.75-.45,1.07-.8,1.07a.92.92,0,0,1-.58-.21,1.3,1.3,0,0,0-.75-.26H24c-.23,0-.31-.05-.31-.13s.08-.1.32-.19c.53-.21.92-.35,1.33-.56a.45.45,0,0,0,.29-.43,1.14,1.14,0,0,0-.18-.44,2.52,2.52,0,0,0-1-.73,4.29,4.29,0,0,0-1.59-.29,5.23,5.23,0,0,0-1.53.26A4,4,0,0,1,22.64,27.27Zm-5.31,0a12.34,12.34,0,0,0,1.57.41,8.38,8.38,0,0,0,1.28.13c.61,0,1-.32,1-.72a3.83,3.83,0,0,0-.89-2A22,22,0,0,0,17.33,27.27Z"/><path d="M38.91,20.18c1,0,1.83,1.17,1.83,2.78a10.85,10.85,0,0,1-.59,3.64,5.34,5.34,0,0,1-.95,1.71c-.56.59-1,1-1.57,1s-.8-.21-.78-.72a1.29,1.29,0,0,0-.32-.85,8.12,8.12,0,0,0-.69-.86c-.08-.1-.11-.15-.11-.2s.05-.12.13-.12a.31.31,0,0,1,.2.09,7.44,7.44,0,0,0,1.09.63,1.82,1.82,0,0,0,.61.17.69.69,0,0,0,.61-.29,5.48,5.48,0,0,0,.83-1.82,9.82,9.82,0,0,0,.39-2.55c0-1.5-.23-1.95-1-1.95a4.7,4.7,0,0,0-.83.13c-.72,1.52-1.59,3.41-2.26,4.77S34.38,28,34,28.68a.78.78,0,0,1-.71.35.64.64,0,0,1-.6-.64,1.5,1.5,0,0,1,.3-.87,52.36,52.36,0,0,0,3.54-6.17c-.63.24-1.24.48-1.75.7a4.17,4.17,0,0,0-.46.22.61.61,0,0,1-.42.15A1.41,1.41,0,0,1,33,22a1.87,1.87,0,0,1-.6-1.09c0-.34.09-.58.24-.58s.14.08.21.18a1.21,1.21,0,0,0,.81.56A7.16,7.16,0,0,0,35,20.87c.59-.12,1.2-.29,1.85-.45a9.35,9.35,0,0,0,.76-2.56.48.48,0,0,0-.24-.47,5.13,5.13,0,0,0-.63-.27c-.13-.05-.24-.06-.24-.16s.11-.24.27-.29a2.55,2.55,0,0,1,.79-.13,2.6,2.6,0,0,1,1.68.92.59.59,0,0,1,.14.44.64.64,0,0,1-.36.52,1.16,1.16,0,0,0-.34.49c-.15.34-.37.79-.61,1.32A5.15,5.15,0,0,1,38.91,20.18Zm3.89,4.58-.48,0c-.14,0-.17-.05-.17-.11s0-.08.14-.15c1.41-.56,1.94-.86,1.94-1.12a2.7,2.7,0,0,0-.48-1.31,3.89,3.89,0,0,0-1.84-1.63c-.16-.07-.29-.13-.29-.23s.08-.16.24-.16l.11,0a4.87,4.87,0,0,1,2.59,1.33,3.74,3.74,0,0,1,1.35,3,.76.76,0,0,1-1.33.62.72.72,0,0,0-.54-.29C43.48,24.72,43.12,24.74,42.8,24.76Z"/><path d="M58.72,22.83a3.09,3.09,0,0,1,2.07.71,2.45,2.45,0,0,1,1,2.08,3.36,3.36,0,0,1-1.73,2.78,8.2,8.2,0,0,1-2.86,1.12,16.92,16.92,0,0,1-3.29.37c-.28,0-.33-.06-.33-.16a.18.18,0,0,1,.1-.17,2.19,2.19,0,0,1,.44-.08,11.53,11.53,0,0,0,4.36-1.57,3.21,3.21,0,0,0,1.73-2.63A1.79,1.79,0,0,0,59.73,24a1.88,1.88,0,0,0-1.39-.53,4.32,4.32,0,0,0-3,1.41,4,4,0,0,0-1.1,1.59c-.15.36-.28.54-.59.54s-.44-.1-.66-.51a2.09,2.09,0,0,1-.23-1c0-.3.13-.4.24-.73s.16-.52.21-.71c.21-.86.35-1.74.55-2.89-.85.09-1.38.16-1.56.16a1.44,1.44,0,0,1-1.08-.39,2.67,2.67,0,0,1-.76-1c-.06-.14,0-.25.12-.25a.33.33,0,0,1,.2.11,2.11,2.11,0,0,0,1.43.43A10.57,10.57,0,0,0,54,20a14.86,14.86,0,0,0,.21-2c0-.5-.12-.58-.37-.67a3.11,3.11,0,0,0-.58-.15c-.06,0-.13,0-.13-.09s.08-.18.21-.26a1.44,1.44,0,0,1,.75-.29,3.14,3.14,0,0,1,1.48.53.74.74,0,0,1,.4.67.65.65,0,0,1-.26.48,1.32,1.32,0,0,0-.29.61q-.12.39-.24.9A3.6,3.6,0,0,0,56.69,19a1.33,1.33,0,0,1,.78-.24,2.3,2.3,0,0,1,.74.13.57.57,0,0,1,.4.58c0,.32-.14.46-.82.67s-1.84.5-2.91.72c-.22,1.14-.48,2.45-.67,3.59A7.62,7.62,0,0,1,58.72,22.83Z"/><path d="M71.67,22.5A8.6,8.6,0,0,1,75,21.35a2.5,2.5,0,0,1,1.88.59,1.83,1.83,0,0,1,.56,1.34,1.88,1.88,0,0,1-1,1.68,3.26,3.26,0,0,1-1.84.52,5.32,5.32,0,0,1-2.79-.84c-.16-.09-.22-.14-.22-.24s0-.06.11-.06.18.05.34.08a6.46,6.46,0,0,0,1.71.18,4,4,0,0,0,1.65-.44c.59-.3.91-.64.91-1.23a.79.79,0,0,0-.27-.66,1.48,1.48,0,0,0-1.06-.4,7,7,0,0,0-3.25,1.25c-.35.21-.7.45-1.1.67.24.48.51,1,.75,1.45.58,1.15,1,2.12,1.39,3a2.27,2.27,0,0,1,.23,1,.7.7,0,0,1-.67.69.52.52,0,0,1-.42-.13,2.29,2.29,0,0,1-.34-.88,27.76,27.76,0,0,0-1.69-4.58c-.23.16-.39.26-.6.43a3.7,3.7,0,0,0-.57.59.5.5,0,0,1-.43.23,1.63,1.63,0,0,1-1-.42,1.26,1.26,0,0,1-.56-.88c0-.19,0-.27.14-.27s.12.06.2.11a1.19,1.19,0,0,0,.7.26,3.42,3.42,0,0,0,1-.39,6.33,6.33,0,0,0,.7-.37,6.08,6.08,0,0,0-.46-.84,1.1,1.1,0,0,1-.21-.6,1.48,1.48,0,0,1,.42-1A.88.88,0,0,1,70,20.8c.53-.05,1-.11,1.7-.16a2.41,2.41,0,0,1-.34-1c0-.34.13-.61.24-.61s.1.06.15.22a1.47,1.47,0,0,0,.3.48,3.5,3.5,0,0,0,.71.56,1.13,1.13,0,0,1,.54,1,.42.42,0,0,1-.48.45c-.21,0-.3-.08-.54-.22a2.72,2.72,0,0,0-.92-.27,3.25,3.25,0,0,0-1.08-.07c-.4.07-.55.27-.55.53a.9.9,0,0,0,.1.48c.06.14.24.45.59,1.06Z"/><path d="M85.6,24.48a2.61,2.61,0,0,1,1.92-1c1.19,0,1.92.77,2,2.5a3.65,3.65,0,0,0,.27,1.41,1,1,0,0,0,1,.54,3.76,3.76,0,0,0,2.71-1.5,9.68,9.68,0,0,0,1.68-3.19c.07-.17.1-.25.23-.25s.14.09.14.29A10.84,10.84,0,0,1,95,25.33a7.4,7.4,0,0,1-1.66,2.77,4,4,0,0,1-3,1.25,1.84,1.84,0,0,1-1.68-1,4.46,4.46,0,0,1-.38-2.1c0-1.58-.34-2.21-1-2.21a2.07,2.07,0,0,0-1.67,1.14,13,13,0,0,0-1.41,2.91,2,2,0,0,1-.37.79.48.48,0,0,1-.38.17,1.1,1.1,0,0,1-.67-.25.81.81,0,0,1-.21-.48,1.37,1.37,0,0,1,.13-.66c.08-.18.27-.59.56-1.12,1.31-2.47,2.09-3.87,2.59-4.85a38.7,38.7,0,0,0,1.76-3.62.7.7,0,0,0-.13-.75,1.52,1.52,0,0,0-.6-.46c-.12,0-.16,0-.16-.15s.3-.25.67-.25.81.14,1.53.76a1.37,1.37,0,0,1,.58,1,.54.54,0,0,1-.37.5,1.21,1.21,0,0,0-.51.5c-.7,1.1-1.79,3-3,5.2Z"/><path d="M109.33,20.75a1.58,1.58,0,0,0,.72-.24,1.37,1.37,0,0,1,.55-.12,2.74,2.74,0,0,1,1.32.4.68.68,0,0,1,.42.62.47.47,0,0,1-.46.5,7.39,7.39,0,0,1-.8-.08,9.22,9.22,0,0,0-1.08-.1c-.6,0-1.72,0-3.1.08,0,1.25,0,2.22,0,3,0,1.6.08,2.34.08,2.93a2.34,2.34,0,0,1-.22,1,1.06,1.06,0,0,1-1,.66c-.24,0-.41-.1-.49-.47a1,1,0,0,0-.35-.61,7.51,7.51,0,0,0-1.24-.7c-.29-.13-.35-.18-.35-.29s.06-.08.16-.08a3.21,3.21,0,0,1,.39.05,11.49,11.49,0,0,0,1.45.13c.24,0,.24-.16.24-.37,0-.4,0-.93,0-2.11,0-1,0-2.05,0-3.06-1,.11-1.81.24-3,.43a1.76,1.76,0,0,0-.66.21.93.93,0,0,1-.57.19c-.23,0-.56-.14-1-.7a1.34,1.34,0,0,1-.42-.88c0-.18.07-.47.18-.47s.24.16.48.37a1.22,1.22,0,0,0,1,.39c.19,0,.45,0,.66,0,.78-.06,2.06-.19,3.37-.32v-1.9a1.3,1.3,0,0,0-.06-.51.51.51,0,0,0-.42-.36l-.46-.09c-.16,0-.21-.07-.21-.15s.19-.32.48-.44a1.74,1.74,0,0,1,.74-.16,3.16,3.16,0,0,1,1.37.6c.29.23.32.39.32.56a.77.77,0,0,1-.22.47c-.18.18-.21.24-.22.61s0,.7,0,1.28C107.71,20.91,108.51,20.85,109.33,20.75Zm-6.4,2.72c.11,0,.13.13.14.31a5,5,0,0,1-.13,1.79,2.83,2.83,0,0,1-.73,1.27,1.4,1.4,0,0,1-.95.41.7.7,0,0,1-.78-.75c0-.34.1-.59.64-.86a3.18,3.18,0,0,0,1-.71,3.27,3.27,0,0,0,.64-1.2C102.79,23.57,102.83,23.47,102.93,23.47Zm5.81.2c0-.1.06-.13.19-.13l.23,0a5.24,5.24,0,0,1,2,1,2,2,0,0,1,.92,1.44c0,.56-.23,1-.77,1s-.64-.27-.83-.72a11.18,11.18,0,0,0-.84-1.5,4,4,0,0,0-.76-.83C108.8,23.81,108.74,23.75,108.74,23.67Zm3.44-5.61a1.33,1.33,0,1,1-1.33-1.32A1.31,1.31,0,0,1,112.18,18.06Zm-2.21,0a.88.88,0,1,0,.88-.88A.89.89,0,0,0,110,18.06Z"/><path d="M117.17,26c-.18.09-.27.17-.35.17a.19.19,0,0,1-.2-.21c0-.08.1-.16.28-.28A36.55,36.55,0,0,0,122,20.72a17.78,17.78,0,0,0,1.92-2.53,1.35,1.35,0,0,0,.25-.67c0-.14-.2-.35-.52-.54-.16-.1-.29-.13-.29-.23s.27-.37.67-.37a3.69,3.69,0,0,1,1.7.64c.41.28.69.61.69.88s-.16.45-.53.58a.67.67,0,0,0-.34.22c-.9,1-1.66,1.83-2.26,2.45.61.44,1,.77,1,1.09a.57.57,0,0,1-.07.31,2.24,2.24,0,0,0,0,.54V25.4c0,1.2,0,2.4,0,3.61a.64.64,0,0,1-.61.72.82.82,0,0,1-.72-.33,1.79,1.79,0,0,1-.34-1,1.07,1.07,0,0,1,.08-.37,5.93,5.93,0,0,0,.16-1.51c0-1.16,0-2.72,0-3.69a2.79,2.79,0,0,0-.11-1A23,23,0,0,1,117.17,26Z"/><path d="M132.8,19c0-.08.06-.13.16-.13l.3,0a5.84,5.84,0,0,1,2,.64,1.9,1.9,0,0,1,1.1,1.6.85.85,0,0,1-.86.9.84.84,0,0,1-.79-.6,5.82,5.82,0,0,0-.67-1.15,4.17,4.17,0,0,0-1.17-1.12A.19.19,0,0,1,132.8,19Zm2.34,7.27a31.2,31.2,0,0,0,4.43-3.14,34.88,34.88,0,0,0,3.76-3.9.34.34,0,0,1,.21-.15.14.14,0,0,1,.16.15.5.5,0,0,1-.1.27A20.76,20.76,0,0,1,140.28,24,35.94,35.94,0,0,1,136,27.76a2.62,2.62,0,0,0-.41.39.85.85,0,0,1-.64.38c-.34,0-.55-.14-1-.61-.69-.73-.9-1.15-.9-1.48s.11-.61.26-.61.13.06.25.21c.36.36.58.59.74.59A2.07,2.07,0,0,0,135.14,26.31Z"/><path d="M154.56,22.19c1,.4,1.49.9,1.49,1.62a.8.8,0,0,1-.69.85,1.1,1.1,0,0,1-.88-.47A9,9,0,0,0,153.33,23a4.78,4.78,0,0,0-1.66-.92V24.9c0,.67,0,2.14.06,3.87,0,.61-.27.75-.59.75a.74.74,0,0,1-.67-.36,2.68,2.68,0,0,1-.36-1.27,1.93,1.93,0,0,1,.08-.46.59.59,0,0,0,.08-.27c0-.21,0-.66.07-3.59,0-1.52,0-2.88,0-4.38a7.81,7.81,0,0,0-.07-1.37.67.67,0,0,0-.33-.36,2.11,2.11,0,0,0-.56-.26c-.12,0-.16-.08-.16-.14s.11-.18.2-.24a1,1,0,0,1,.45-.15,3.84,3.84,0,0,1,1.62.43c.43.2.64.45.64.76a.7.7,0,0,1-.27.51.43.43,0,0,0-.11.32c-.05.45-.08,1.39-.08,2.88A9.22,9.22,0,0,1,154.56,22.19Z"/><path d="M163,22.05a13.89,13.89,0,0,1-2,2c-.07.05-.21-.08-.16-.14a17.59,17.59,0,0,0,2.94-5.78,13.87,13.87,0,0,0,.5-2.36c1.47.4,2.11.66,2.11.88s-.16.29-.54.36A20.91,20.91,0,0,1,164,20.71c.75.11.86.17.86.33s-.1.23-.43.37v8.31c0,.45-.27.67-.82.67s-.7-.1-.7-.62.09-1.67.09-4.2Zm9.53,2c0,1.62,0,3.78,0,4.63s-.1,1-.53,1.31a2,2,0,0,1-1.36.41c-.28,0-.36-.06-.39-.36-.17-.76-.45-1-1.93-1.33-.08,0-.08-.24,0-.24.78.06,1.61.12,2.38.12.18,0,.24,0,.24-.24V20.55h-4.83a6.6,6.6,0,0,0-1,.09l-.18-.59a5.18,5.18,0,0,0,1.15.13H171v-2.1A15.39,15.39,0,0,0,170.9,16c1.86.19,2.14.25,2.14.48s-.12.25-.49.41v3.32h.51c.67-.9.86-1,1-1s.32.13,1.05.72c.32.26.45.4.45.52s0,.16-.21.16h-2.78ZM168.4,26c-.41,0-.61-.23-.7-.84a5.48,5.48,0,0,0-1.09-2.78.09.09,0,0,1,.11-.13c1.68.74,2.63,1.71,2.63,2.75A1,1,0,0,1,168.4,26Z"/><path d="M189.35,21.91c.56-.66.69-.76.81-.76s.29.1.93.63c.29.25.39.37.39.49s0,.16-.48.48c-.05.76-.13,1.49-.23,2.18h.88c.75-.93.95-1.05,1.06-1.05s.32.12,1.07.73c.34.27.46.42.46.53s0,.16-.2.16h-3.33a13.83,13.83,0,0,1-.66,2.83,3.51,3.51,0,0,1-1.2,1.8,2.59,2.59,0,0,1-1.38.32c-.32,0-.4-.05-.48-.5s-.24-.66-2.14-1.19c-.08,0-.07-.25,0-.25,1.43.11,2,.14,2.53.14.71,0,.88-.13,1.12-.78a12.69,12.69,0,0,0,.6-2.37h-7.94a6.66,6.66,0,0,0-1.09.1l-.18-.6a5.59,5.59,0,0,0,1.2.13h8.07c.11-.77.21-1.65.29-2.66h-5.59l-.19.53a.68.68,0,0,1-.75.47c-.55,0-.93-.2-.93-.48a2,2,0,0,1,.22-.69,27.71,27.71,0,0,0,1-3.51,19.28,19.28,0,0,0,.52-2.81c1.66.36,2,.48,2,.7s-.08.21-.5.34c-.16.73-.29,1.36-.42,1.9h4.84c.72-.93.91-1.06,1-1.06s.32.13,1.09.74c.35.29.48.42.48.53s0,.16-.21.16h-7.3c-.24.94-.46,1.89-.78,2.82Z"/><path d="M205.32,15.42c0,.05,0,.08-.08.15a9.91,9.91,0,0,0-.07,14.88c.12.12.15.15.15.21s0,.1-.08.1-.1,0-.21-.1a11,11,0,0,1-3.22-3.44,8.17,8.17,0,0,1,0-8.36A11.29,11.29,0,0,1,205,15.41c.08-.05.12-.08.17-.08S205.32,15.36,205.32,15.42Z"/><path d="M221.06,22.79c.93-1.16,1.12-1.28,1.23-1.28s.32.12,1.25.88c.43.35.56.49.56.6s0,.16-.21.16H211.34c-.46,0-.92,0-1.55.1l-.17-.59a12.31,12.31,0,0,0,1.69.13Z"/><path d="M233.15,22.35a22.56,22.56,0,0,0,.74-2.19,5.87,5.87,0,0,0,.26-1.33c1.5.47,2,.69,2,.88s-.14.28-.59.32a17.12,17.12,0,0,1-2,2.32h1.3c.73-.92.92-1.05,1-1.05s.3.13,1,.73c.32.28.45.42.45.53s0,.16-.21.16h-7.59a6.44,6.44,0,0,0-1.07.1l-.18-.59a6.86,6.86,0,0,0,1.25.12ZM232,16.85a7,7,0,0,0-.08-1c1.89.18,2.06.34,2.06.5s-.16.28-.49.44v1.28h1.17c.68-.81.88-.94,1-.94s.32.13,1,.67c.31.24.44.37.44.48s-.05.16-.21.16h-7.13a4.74,4.74,0,0,0-.91.1l-.17-.59a5.07,5.07,0,0,0,1.08.12H232Zm-1.06,12v.72c0,.38-.3.59-.85.59s-.65-.16-.65-.53.05-.78.05-2.35c0-1.22,0-2.45-.07-3.68a16.9,16.9,0,0,1,1.68.78h3.16c.56-.67.68-.77.81-.77s.31.1.91.58c.28.21.37.32.37.45s-.06.24-.46.54v.71c0,1.82,0,3.05,0,3.47s-.29.61-.87.61-.64-.18-.64-.53v-.59Zm.32-6.93c-.4,0-.57-.21-.62-.75a3.71,3.71,0,0,0-.69-2.1c0-.07.1-.16.16-.13,1.38.71,2,1.35,2,2.1A.84.84,0,0,1,231.23,21.94Zm3.17,2.83h-3.49V28.5h3.49Zm6.58-8c.56-.62.69-.72.82-.72s.27.1.94.69c.29.27.38.4.38.53s-.08.24-.54.35A31.48,31.48,0,0,1,240,21.71c2.19,1.44,2.94,2.53,2.94,4.18a2.18,2.18,0,0,1-.75,1.81,1.9,1.9,0,0,1-1.17.37c-.21,0-.27-.1-.38-.48s-.45-.71-1.43-1c-.08,0-.08-.24,0-.24.55,0,1.25.05,1.67.05a.57.57,0,0,0,.41-.12c.16-.12.19-.41.19-1a4.49,4.49,0,0,0-1.85-3.54A36.09,36.09,0,0,0,241,17.15h-2.18V27.48c0,1.31,0,1.93,0,2.35s-.35.61-.86.61-.63-.21-.63-.51c0-.55.05-2.17.05-8.9,0-2.82,0-4.1-.08-5a6.55,6.55,0,0,1,1.6.76Z"/><path d="M257.14,20.27a3.34,3.34,0,0,1,1.28.4c.75.39.91.79.91,1.09s-.21.48-.56.51a4.24,4.24,0,0,0-.89.23,15.81,15.81,0,0,0-2.37,1c-.53.27-1.12.56-1.51.78,0,.4,0,.88,0,1.22a5.83,5.83,0,0,1-.05,1.41.63.63,0,0,1-.59.41c-.47,0-.71-.22-.71-.77,0-.28,0-.67.05-1.53-.38.22-.64.4-.83.53-.87.59-1.3,1.08-1.3,1.77s.67,1.14,2.18,1.14a14.58,14.58,0,0,0,2.18-.11,4.66,4.66,0,0,0,.94-.28,2.05,2.05,0,0,1,.66-.12,1.53,1.53,0,0,1,.94.27.79.79,0,0,1,.34.59.61.61,0,0,1-.28.48,7.15,7.15,0,0,1-3.12.4,7.45,7.45,0,0,1-3.44-.48,1.86,1.86,0,0,1-1.1-1.79,2.81,2.81,0,0,1,1.1-2.08,12,12,0,0,1,1.75-1.25c0-.29,0-.53,0-.75,0-.85-.21-1.38-.78-1.38a2.6,2.6,0,0,0-1.81,1.1A19.83,19.83,0,0,0,249,24.71a1,1,0,0,1-.72.46.67.67,0,0,1-.49-.17.62.62,0,0,1-.18-.52,1,1,0,0,1,.26-.65l.56-.53a15.38,15.38,0,0,0,2.33-3.17l-1.15.11a1.82,1.82,0,0,1-1.92-1.3,1,1,0,0,1-.08-.36c0-.08,0-.15.1-.15s.12.07.17.15a1.86,1.86,0,0,0,1.6.65,8.77,8.77,0,0,0,1.86-.25,7.28,7.28,0,0,0,.53-1.32,1.65,1.65,0,0,0,.08-.43.39.39,0,0,0-.15-.27,1,1,0,0,0-.38-.22,2.36,2.36,0,0,0-.34-.12c-.08,0-.09,0-.09-.08s.06-.12.11-.17a.84.84,0,0,1,.59-.19,3.54,3.54,0,0,1,1.62.41.64.64,0,0,1,.38.59.54.54,0,0,1-.22.4A2,2,0,0,0,253,18c-.1.13-.36.5-.48.71a2.93,2.93,0,0,0,1.28-.6.94.94,0,0,1,.57-.17c.61,0,1,.24,1,.59a.61.61,0,0,1-.44.56,18.87,18.87,0,0,1-3.06.82c-.16.24-.34.48-.56.85a14.66,14.66,0,0,1-.83,1.24,3.07,3.07,0,0,1,1.74-.67,1.5,1.5,0,0,1,1.36.63,2.5,2.5,0,0,1,.29,1.36c1.28-.79,2-1.2,2.72-1.68.32-.21.58-.36.58-.48a.43.43,0,0,0-.18-.32.89.89,0,0,0-.46-.24c-.05,0-.07-.05-.07-.13S256.82,20.27,257.14,20.27Z"/><path d="M265.78,28.07c0,.54,0,1.18,0,1.73s-.29.69-.85.69-.64-.16-.64-.56.07-2.28.07-8c0-3.82,0-4.72-.1-6a15.3,15.3,0,0,1,1.63.77h1.62c.56-.53.69-.63.82-.63s.27.1.85.66c.25.24.35.37.35.5s-.05.19-.45.32a23.29,23.29,0,0,1-2.37,3.57,4.82,4.82,0,0,1,1.9,3.79,2.44,2.44,0,0,1-.48,1.68A1.42,1.42,0,0,1,267,27c-.24,0-.32-.09-.33-.35-.07-.58-.19-.8-.91-1Zm0-11v8.32a6.87,6.87,0,0,0,1,.06.7.7,0,0,0,.4-.09c.18-.15.23-.47.23-1.14a4.48,4.48,0,0,0-1-3,19.09,19.09,0,0,0,1.24-4.11Zm5.15,9.15a9.63,9.63,0,0,1-3.62,3.52c-.06.05-.21-.09-.14-.14a9.33,9.33,0,0,0,2-3,8.53,8.53,0,0,0,.48-1.49c1.57.51,1.86.64,1.86.83S271.36,26.16,270.93,26.21Zm-2.79-4.46c-.06,0-.22-.1-.15-.15a14.48,14.48,0,0,0,3.37-4.05,7.16,7.16,0,0,0,.79-1.85c1.6.44,2,.62,2,.8s-.15.24-.63.28a8.24,8.24,0,0,0,2.21,2.12,8.62,8.62,0,0,0,3.19,1.2c.08,0,0,.11-.05.14-.48.24-.67.58-.82,1.38,0,.13-.09.22-.17.22a1.65,1.65,0,0,1-.64-.3,10.44,10.44,0,0,1-2.13-1.78,11.14,11.14,0,0,1-1.78-2.67A12.13,12.13,0,0,1,268.14,21.75Zm5.57,2h2c.74-.88.93-1,1-1s.32.13,1,.7c.32.26.45.41.45.52s0,.16-.21.16h-4.29v2.3c0,1,.05,1.83.05,2.51a1.47,1.47,0,0,1-.28.95,1.89,1.89,0,0,1-1.48.51c-.16,0-.19-.08-.24-.38-.13-.56-.48-.82-1.74-1.23-.08,0-.07-.23,0-.23.84.08,1.51.13,2,.13.2,0,.24-.05.24-.32V24.15h-2.33a6,6,0,0,0-1,.09l-.18-.59a5,5,0,0,0,1.14.13h2.33V21.55H271a5,5,0,0,0-.88.1l-.18-.59a4.91,4.91,0,0,0,1.06.13h3.33c.49-.69.68-.82.8-.82s.32.13.86.58c.24.19.37.33.37.44s-.05.16-.21.16h-2.39Zm3.43,5.54c-.4,0-.59-.21-.8-.93a6.56,6.56,0,0,0-1.57-2.91.09.09,0,0,1,.11-.13c2,.81,3.11,1.89,3.11,3A.91.91,0,0,1,277.14,29.32Z"/><path d="M288.29,17.44a.62.62,0,0,0-.18-.37,2.17,2.17,0,0,0-.43-.38c-.08-.05-.14-.1-.14-.19s.29-.21.59-.21a2.29,2.29,0,0,1,1.68,1,1.33,1.33,0,0,1,.4.89.63.63,0,0,1-.43.59A6.52,6.52,0,0,0,287.87,20c-.83.67-2.14,1.75-2.75,2.34-.22.22-.4.43-.4.53s.1.24.21.36a6.25,6.25,0,0,0,.85.68,22.88,22.88,0,0,1,3.93,3.17c.77.89.93,1.36.93,1.76a1.19,1.19,0,0,1-.17.72.73.73,0,0,1-.66.25c-.18,0-.48-.21-.85-.78a20.91,20.91,0,0,0-4.53-4.85,1.5,1.5,0,0,1-.69-1.14,1.25,1.25,0,0,1,.32-.85c.23-.28.82-.89,2.13-2.19.42-.41,1-1,1.65-1.78C288.21,17.81,288.29,17.63,288.29,17.44Z"/><path d="M300.19,28.21a2,2,0,1,1-2-2A2,2,0,0,1,300.19,28.21Zm-3.45,0a1.47,1.47,0,1,0,1.47-1.45A1.46,1.46,0,0,0,296.74,28.21Z"/><path d="M307.15,15.41a11.17,11.17,0,0,1,3.23,3.45,8.11,8.11,0,0,1,0,8.36,11,11,0,0,1-3.21,3.44c-.11.08-.16.1-.21.1s-.08,0-.08-.1,0-.09.14-.21A9.92,9.92,0,0,0,307,15.57c-.06-.07-.08-.1-.08-.15s.05-.09.11-.09S307.07,15.36,307.15,15.41Z"/></g></g></svg>