<svg id="レイヤー_1" data-name="レイヤー 1" xmlns="http://www.w3.org/2000/svg" xmlns:xlink="http://www.w3.org/1999/xlink" viewBox="0 0 304.94 52.67"><defs><style>.cls-1,.cls-4{fill:none;}.cls-2{clip-path:url(#clip-path);}.cls-3{fill:#256643;}.cls-4{stroke:#256643;stroke-miterlimit:10;stroke-width:0.75px;}</style><clipPath id="clip-path"><rect class="cls-1" x="-111.07" width="416.01" height="52.67"/></clipPath></defs><g id="アートワーク_23" data-name="アートワーク 23"><g class="cls-2"><g class="cls-2"><path class="cls-3" d="M24.51,18a15.72,15.72,0,0,0-3.2-2.44c-.52-.2-1.2.35-1.43,1.09s-.55.64-.55.64S18.1,16.58,16,13.53A15.64,15.64,0,0,1,13.51,8.9s0-.41.62-.56a1.53,1.53,0,0,0,1.13-1.52,21.84,21.84,0,0,0-1.44-4.23A1.34,1.34,0,0,0,12,2.2,5.44,5.44,0,0,0,9.62,7.61a20.37,20.37,0,0,0,3.48,8.87,15.69,15.69,0,0,0,6.61,5.67c2.83,1.2,4.61-1.64,4.8-1.91a2.19,2.19,0,0,0,0-2.26"/><path class="cls-3" d="M106.25,11.59c0,5.95-2.71,9.34-6.12,9.34s-6-3.17-6-9.12,2.71-9.29,6.1-9.29,6,3.12,6,9.07m-8.56.12c0,7.11.69,8.72,2.47,8.72s2.52-1.61,2.52-8.72S101.93,3,100.18,3s-2.49,1.59-2.49,8.69"/><path class="cls-3" d="M112,4.94c-.22,0-.27-.07-.27-.28s0-.17.27-.22a43.83,43.83,0,0,0,6.12-1.94c.24,0,.36.09.36.28l0,5.69v9.36c0,1.76.14,2.09,2.59,2.21.24,0,.27,0,.27.24s0,.22-.27.22c-1.1-.05-3-.07-4.22-.07s-3,0-4.13.07c-.22,0-.24,0-.24-.22s0-.24.24-.24c2.28-.12,2.54-.45,2.54-2.21V5.76a.92.92,0,0,0-.93-1,4.7,4.7,0,0,0-.55,0Z"/><path class="cls-3" d="M130,5.81c-1.47,0-1.76.24-2.48,2.35,0,.12-.09.19-.19.19s-.31-.07-.31-.26c.24-1.27.6-3.77.74-5.19,1.66.05,3.36.08,5.33.08,1.71,0,3.51,0,5.09-.08.22,0,.26.05.26.56s0,.62-.12.79c-2.83,4.17-3.88,6.77-4.44,9.67a20.77,20.77,0,0,0-.21,3.41c0,.7,0,1.15,0,1.78a2,2,0,0,1-2.24,1.77,1.67,1.67,0,0,1-1.89-1.73,13,13,0,0,1,1.94-5.88,54.34,54.34,0,0,1,5.26-7.46Z"/><path class="cls-3" d="M149.67,11c3.6.56,5.35,2.33,5.35,4.61,0,3.19-2.42,5.33-6.26,5.33-3.68,0-5.57-1.58-5.57-3.46a1.86,1.86,0,0,1,1.89-1.92A1.73,1.73,0,0,1,147,17.33a1.53,1.53,0,0,1-.68,1.2A.46.46,0,0,0,146,19c0,.86.77,1.44,2.16,1.44,1.87,0,3.24-1.61,3.24-4.85,0-2.93-1-4.2-2.88-4.2-.77,0-1.08.12-1.54.12-.21,0-.28-.07-.28-.27,0-.38.21-.64.52-.64s.65.11,1,.11c1.51,0,2.47-1.1,2.47-3.93,0-2.45-1-3.7-2.52-3.7-1.11,0-1.95.58-1.95,1.2a.56.56,0,0,0,.29.53,1.76,1.76,0,0,1,.67,1.25,1.6,1.6,0,0,1-1.75,1.7,1.73,1.73,0,0,1-1.82-1.82c0-1.59,2.3-3.41,5.3-3.41s5.19,1.63,5.19,4.2c0,2.11-1.56,3.7-4.49,4.13Z"/><rect class="cls-3" x="160.06" y="9.61" width="5.86" height="2.28"/><path class="cls-3" d="M174.05,5.81c-1.46,0-1.75.24-2.47,2.35-.05.12-.1.19-.19.19s-.32-.07-.32-.26c.25-1.27.6-3.77.75-5.19,1.66.05,3.36.08,5.33.08,1.7,0,3.5,0,5.09-.08.21,0,.26.05.26.56s0,.62-.12.79c-2.83,4.17-3.89,6.77-4.44,9.67a19.84,19.84,0,0,0-.22,3.41c0,.7.05,1.15.05,1.78a2,2,0,0,1-2.23,1.77,1.68,1.68,0,0,1-1.9-1.73,13,13,0,0,1,2-5.88,54.16,54.16,0,0,1,5.25-7.46Z"/><path class="cls-3" d="M196.61,18c0,1.63,0,1.95,2.23,2,.15,0,.17.05.17.24s-.07.22-.19.22c-1.06-.05-2.5-.1-3.74-.1s-2.79.05-3.87.1c-.17,0-.21,0-.21-.22s0-.21.21-.24c2.14-.09,2.26-.41,2.26-2V15.6h-3.72c-.94,0-1.71,0-2.43,0-.24,0-.31-.08-.31-.63a1.49,1.49,0,0,1,.34-1c2.37-4,4.41-7.2,7-11.09l2.07-.41c.19,0,.26.07.26.24l0,5.81v6.41c.67,0,1.35,0,2.47-.12.12,0,.2,0,.2.17l-.2.5c0,.15-.12.19-.21.19-1-.07-1.68-.07-2.26-.07Zm-3.14-8.81c0-1.39,0-2.4,0-3.81-2,3-3.77,5.83-5.66,9.12a.41.41,0,0,0-.07.26c0,.15,0,.17.19.17h5.52Z"/><rect class="cls-3" x="204.08" y="9.61" width="5.86" height="2.28"/><path class="cls-3" d="M223.52,17.62c1.82,0,2.16-.31,2.92-2.48a.23.23,0,0,1,.24-.16c.2,0,.29.07.29.24-.24,1.25-1,4-1.41,5.28-1.76-.05-3.32-.05-5.14-.05s-3.58,0-5.26.05c-.19,0-.29,0-.29-.43a1.15,1.15,0,0,1,.15-.68,24.15,24.15,0,0,1,4.39-6.33c2.74-3.08,3.29-4.25,3.29-6.27,0-2.47-1.18-3.62-2.79-3.62-1.1,0-2.23.77-2.23,1.63,0,.24,0,.31.39.53a1.67,1.67,0,0,1-.91,3.12,1.77,1.77,0,0,1-1.88-1.83c0-2,2.59-4.1,5.57-4.1,3.31,0,5.4,1.8,5.4,4.22s-.79,3.82-5.21,6.87c-3.12,2.16-3.81,2.93-4.46,4Z"/><path class="cls-3" d="M243.24,11.59c0,5.95-2.71,9.34-6.12,9.34s-6-3.17-6-9.12,2.71-9.29,6.1-9.29,6,3.12,6,9.07m-8.56.12c0,7.11.69,8.72,2.47,8.72s2.52-1.61,2.52-8.72S238.92,3,237.17,3s-2.49,1.59-2.49,8.69"/><path class="cls-3" d="M254,11c3.6.56,5.35,2.33,5.35,4.61,0,3.19-2.42,5.33-6.26,5.33-3.68,0-5.57-1.58-5.57-3.46a1.86,1.86,0,0,1,1.89-1.92,1.73,1.73,0,0,1,1.88,1.78,1.53,1.53,0,0,1-.68,1.2.46.46,0,0,0-.26.46c0,.86.77,1.44,2.16,1.44,1.87,0,3.24-1.61,3.24-4.85,0-2.93-1-4.2-2.88-4.2-.77,0-1.08.12-1.54.12-.21,0-.28-.07-.28-.27,0-.38.21-.64.52-.64s.65.11,1,.11c1.51,0,2.47-1.1,2.47-3.93,0-2.45-1-3.7-2.52-3.7-1.11,0-2,.58-2,1.2a.56.56,0,0,0,.29.53,1.76,1.76,0,0,1,.67,1.25,1.6,1.6,0,0,1-1.75,1.7A1.73,1.73,0,0,1,248,5.93c0-1.59,2.3-3.41,5.3-3.41s5.19,1.63,5.19,4.2c0,2.11-1.56,3.7-4.49,4.13Z"/><path class="cls-3" d="M270.34,11c3.6.56,5.35,2.33,5.35,4.61,0,3.19-2.42,5.33-6.26,5.33-3.68,0-5.57-1.58-5.57-3.46a1.86,1.86,0,0,1,1.89-1.92,1.73,1.73,0,0,1,1.88,1.78,1.53,1.53,0,0,1-.68,1.2.46.46,0,0,0-.26.46c0,.86.77,1.44,2.16,1.44,1.87,0,3.24-1.61,3.24-4.85,0-2.93-1-4.2-2.88-4.2-.77,0-1.08.12-1.54.12-.21,0-.28-.07-.28-.27,0-.38.21-.64.52-.64s.65.11,1,.11c1.51,0,2.47-1.1,2.47-3.93,0-2.45-1-3.7-2.52-3.7-1.11,0-1.95.58-1.95,1.2a.56.56,0,0,0,.29.53,1.76,1.76,0,0,1,.67,1.25,1.6,1.6,0,0,1-1.75,1.7,1.73,1.73,0,0,1-1.82-1.82c0-1.59,2.3-3.41,5.3-3.41s5.19,1.63,5.19,4.2c0,2.11-1.56,3.7-4.49,4.13Z"/><path class="cls-3" d="M49,4.27c1.22-1.37,1.39-1.49,1.58-1.49s.48.1,1.85,1.25c.91.77,1.11,1.08,1.11,1.49s-.29.48-.94.53a2.48,2.48,0,0,0-1.15.31c-.46.24-1,.55-2.19,1.18-.12.07-.21,0-.16-.15a23.6,23.6,0,0,0,.62-2.64H43.52v.31c0,2.24.09,4.32.09,4.71,0,.6-.52.91-1.84.91-1,0-1.23-.24-1.23-.79,0-.39.15-2.4.15-5.14H34.57a4,4,0,0,1,.07.7c0,1.34-.63,2.71-2,2.71a1.37,1.37,0,0,1-1.54-1.42,1.73,1.73,0,0,1,.77-1.44,2.85,2.85,0,0,0,1.56-2.44c0-.15.15-.15.24,0a4.39,4.39,0,0,1,.79,1.44h6.25a18.19,18.19,0,0,0-.08-2.06H36.85a24.94,24.94,0,0,0-2.62.17L34,1.56c1.25.12,2.11.17,2.86.17H47.09C48.41.05,48.56,0,48.77,0s.29,0,1.32.91,1,.91,1,1.08-.09.22-.26.22H44c0,.19-.15.33-.48.48V4.27ZM35.74,9.46c-.43,0-1.13,0-1.9.09l-.19-.69A19.06,19.06,0,0,0,35.74,9h1.54c.93-1.16,1-1.2,1.15-1.2s.29,0,.93.64.63.68.63.82a.2.2,0,0,1-.22.22Zm7.83,9.72c0,.65.14.81,3.45.81,2.76,0,3.31-.21,4-.91a10.81,10.81,0,0,0,1.75-2.66c.08-.12.22-.1.2,0A16.08,16.08,0,0,0,52.64,19a1.12,1.12,0,0,0,.41.91,1.14,1.14,0,0,1,.33.91c0,1-.91,1.83-5.81,1.83-6.62,0-7-.29-7-2.55,0-.26,0-1,.07-2.54H37.32v.84c0,1.13-.47,1.46-1.84,1.46-.89,0-1.08-.09-1.08-.93,0-.65.17-2.45.17-5.09,0-1.56,0-2.91-.13-3.67,2.57.55,3.22.81,3.39,1.05h8.78C47.69,10,47.79,10,48,10s.48,0,1.65,1c.87.7,1,.81,1,1s-.09.31-.77.82v.91c0,1.61.17,3.22.17,3.81,0,.75-.41,1.09-2,1.09-1,0-1.15-.13-1.15-.94v-.12H43.57ZM36.92,7.1c-.41,0-1.13,0-1.88.1l-.19-.7a16.26,16.26,0,0,0,2.07.12h.31c.93-1.15,1-1.17,1.15-1.17s.22,0,.94.67c.55.48.6.62.6.77s-.07.21-.22.21Zm.86,4.61a2,2,0,0,1-.46.39v2h3.32c0-1.36,0-2,0-2.35Zm2.86,2.83H37.32v2.55h3.32Zm2.93-.48H46.9V11.71H44.14c0,.12-.09.27-.57.55Zm3.33.48H43.57v2.55H46.9ZM44.12,8.86A19.47,19.47,0,0,0,46.25,9h1.52c1-1.2,1.1-1.25,1.27-1.25s.26,0,1.1.77c.55.45.6.57.6.72s-.07.24-.21.24H46.25c-.48,0-1.2,0-1.94.09ZM46,7.1c-.41,0-.89,0-1.64.1l-.19-.7A13.21,13.21,0,0,0,46,6.62h.28c.92-1.15,1-1.17,1.13-1.17s.24,0,.91.67.6.62.6.77a.19.19,0,0,1-.21.21Z"/><path class="cls-3" d="M60,6.14a17.53,17.53,0,0,0-2.29.17l-.21-.81a19,19,0,0,0,2.5.16h3.88c1.37-1.7,1.44-1.72,1.66-1.72s.29,0,1.34,1c.72.67.77.77.77.93a.23.23,0,0,1-.26.24Zm3.19,9c1.13-1.44,1.2-1.49,1.46-1.49s.41.05,1.37.91,1,1,1,1.18-.09.34-.72.89v1.22c0,1.27.12,2.52.12,3.46,0,.72-.69,1.13-1.73,1.13s-1.17-.12-1.17-.92v-.74H61.28v1.06c0,.74-.41,1.15-1.73,1.15-.87,0-1-.12-1-.94,0-.38.12-1.75.12-4.27a37.86,37.86,0,0,0-.1-3.79c2.14.55,2.86.84,3.05,1.15ZM61.42,2.93a18.92,18.92,0,0,0-2.57.17l-.21-.82a22.81,22.81,0,0,0,2.78.17h1.22C64,.84,64.06.79,64.28.79s.26,0,1.34,1.06c.6.57.67.69.67.84a.24.24,0,0,1-.26.24Zm1.47,5.85c1.27-1.56,1.34-1.6,1.55-1.6s.27,0,1.3,1c.6.56.67.7.67.84a.24.24,0,0,1-.26.24H61.54A20.62,20.62,0,0,0,59,9.43l-.21-.81a22.47,22.47,0,0,0,2.78.16Zm0,3.17c1.27-1.56,1.34-1.61,1.55-1.61s.27,0,1.3,1c.6.55.67.7.67.84a.24.24,0,0,1-.26.24H61.54A20.62,20.62,0,0,0,59,12.6l-.21-.82a20.94,20.94,0,0,0,2.78.17Zm.62,8.38V15.65H61.56a.9.9,0,0,1-.28.26v4.42ZM76.09,8.54c1.48-2.08,1.53-2.11,1.77-2.11s.34,0,1.32,1,1,1.06,1,1.3-.12.28-.48.28H74.36v4.83H75c1.17-1.44,1.27-1.49,1.51-1.49s.41.07,1.63,1.08c.94.77,1,.91,1,1.13s-.09.31-.74.77v1.22c0,2.31.12,4.35.12,5s-.82,1.13-1.94,1.13-1.2-.12-1.2-.91v-.94H70.73v1c0,.74-.6,1.15-1.94,1.15-.86,0-1-.12-1-.94,0-.38.14-3.12.14-5.54,0-1.54,0-2.55-.07-3.72,2.28.57,3,.79,3.22,1.08h.43V9H69.56a20.93,20.93,0,0,0-2.67.17l-.21-.81c1.32.12,2.21.16,2.88.16h1.92V7c0-1.37,0-2.16,0-2.79-1.6.1-3.21.15-4.84.17-.15,0-.2-.24,0-.26A32.46,32.46,0,0,0,75.37,1a4.8,4.8,0,0,0,.74-.5c2.86,2,3,2.32,3,2.71s-.17.55-1.56.45c-.91.15-1.8.27-2.69.34,0,.29-.12.38-.55.7V8.54Zm-.72,11.81v-6H71a1,1,0,0,1-.29.26v5.76Z"/><path class="cls-3" d="M132.63,46.33c0,4-1.81,6.22-4.08,6.22s-4-2.11-4-6.08,1.81-6.19,4.07-6.19,4,2.08,4,6m-5.71.08c0,4.74.46,5.81,1.65,5.81s1.68-1.07,1.68-5.81-.5-5.8-1.67-5.8-1.66,1.06-1.66,5.8"/><path class="cls-3" d="M136.49,41.89c-.15,0-.18,0-.18-.19s0-.11.18-.14a29.78,29.78,0,0,0,4.08-1.3c.16,0,.24.07.24.19l0,3.8v6.24c0,1.17.1,1.39,1.73,1.47.16,0,.18,0,.18.16s0,.15-.18.15c-.73,0-2-.05-2.81-.05s-2,0-2.76.05c-.14,0-.16,0-.16-.15s0-.16.16-.16c1.52-.08,1.7-.3,1.7-1.47V42.44a.61.61,0,0,0-.62-.69,2.17,2.17,0,0,0-.37,0Z"/><path class="cls-3" d="M148.49,42.47c-1,0-1.17.16-1.65,1.57,0,.08-.07.13-.13.13s-.21-.05-.21-.18c.16-.85.4-2.51.5-3.46,1.1,0,2.24,0,3.55,0,1.14,0,2.34,0,3.39,0,.15,0,.18,0,.18.37s0,.42-.08.53a16.13,16.13,0,0,0-3,6.45,12.94,12.94,0,0,0-.15,2.27c0,.47,0,.77,0,1.19a1.34,1.34,0,0,1-1.49,1.18,1.12,1.12,0,0,1-1.27-1.15,8.57,8.57,0,0,1,1.3-3.92,35,35,0,0,1,3.51-5Z"/><path class="cls-3" d="M161.57,45.93c2.4.36,3.57,1.55,3.57,3.07,0,2.13-1.61,3.55-4.17,3.55s-3.72-1-3.72-2.3A1.24,1.24,0,0,1,158.52,49a1.15,1.15,0,0,1,1.24,1.18,1,1,0,0,1-.44.8.3.3,0,0,0-.18.31c0,.57.51,1,1.44,1,1.25,0,2.16-1.08,2.16-3.24,0-1.95-.65-2.8-1.92-2.8-.51,0-.72.08-1,.08s-.2,0-.2-.17.15-.44.36-.44.43.08.68.08c1,0,1.65-.73,1.65-2.62,0-1.63-.65-2.47-1.68-2.47-.73,0-1.29.39-1.29.81a.38.38,0,0,0,.19.35,1.16,1.16,0,0,1,.45.83,1.07,1.07,0,0,1-1.17,1.14,1.17,1.17,0,0,1-1.22-1.22c0-1.06,1.54-2.27,3.54-2.27s3.46,1.08,3.46,2.8c0,1.41-1,2.46-3,2.75Z"/><rect class="cls-3" x="168.5" y="44.92" width="3.91" height="1.52"/><path class="cls-3" d="M177.83,42.47c-1,0-1.17.16-1.65,1.57,0,.08-.06.13-.13.13s-.2-.05-.2-.18c.16-.85.4-2.51.49-3.46,1.11,0,2.24,0,3.55,0,1.14,0,2.34,0,3.4,0,.14,0,.17,0,.17.37s0,.42-.07.53a16.17,16.17,0,0,0-3,6.45,13.85,13.85,0,0,0-.14,2.27c0,.47,0,.77,0,1.19a1.34,1.34,0,0,1-1.49,1.18,1.11,1.11,0,0,1-1.26-1.15,8.66,8.66,0,0,1,1.29-3.92,35.79,35.79,0,0,1,3.51-5Z"/><path class="cls-3" d="M192.87,50.6c0,1.09,0,1.3,1.49,1.36.1,0,.11,0,.11.16s-.05.15-.13.15c-.7,0-1.66-.07-2.49-.07s-1.86,0-2.58.07c-.11,0-.14,0-.14-.15s0-.14.14-.16c1.42-.06,1.5-.27,1.5-1.33V49h-2.48l-1.61,0c-.16,0-.21-.05-.21-.42a1.05,1.05,0,0,1,.22-.69c1.59-2.67,2.95-4.8,4.66-7.39l1.38-.28c.13,0,.17,0,.17.16l0,3.88v4.27a16.12,16.12,0,0,0,1.65-.08c.08,0,.13,0,.13.11l-.13.34c0,.1-.08.13-.14.13-.66,0-1.12,0-1.51,0Zm-2.1-5.87c0-.93,0-1.6,0-2.55-1.33,2-2.51,3.89-3.78,6.08a.28.28,0,0,0,0,.18c0,.1,0,.11.13.11h3.68Z"/><rect class="cls-3" x="197.84" y="44.92" width="3.91" height="1.52"/><path class="cls-3" d="M209.38,45.93c2.4.36,3.57,1.55,3.57,3.07,0,2.13-1.61,3.55-4.18,3.55s-3.71-1-3.71-2.3A1.24,1.24,0,0,1,206.32,49a1.15,1.15,0,0,1,1.25,1.18,1,1,0,0,1-.44.8.3.3,0,0,0-.18.31c0,.57.51,1,1.44,1,1.25,0,2.16-1.08,2.16-3.24,0-1.95-.66-2.8-1.92-2.8-.51,0-.72.08-1,.08s-.2,0-.2-.17.15-.44.36-.44.43.08.68.08c1,0,1.65-.73,1.65-2.62,0-1.63-.65-2.47-1.68-2.47-.73,0-1.29.39-1.29.81a.38.38,0,0,0,.19.35,1.16,1.16,0,0,1,.45.83,1.07,1.07,0,0,1-1.17,1.14,1.17,1.17,0,0,1-1.22-1.22c0-1.06,1.54-2.27,3.54-2.27s3.46,1.08,3.46,2.8c0,1.41-1,2.46-3,2.75Z"/><path class="cls-3" d="M223.34,47.08a3.25,3.25,0,0,1,.62,2c0,2.13-1.84,3.45-4,3.45-2.48,0-4.11-1.23-4.11-3,0-1.28.8-2.21,2.85-3a4.23,4.23,0,0,1-1.84-1.45,3.1,3.1,0,0,1-.53-1.74,3.27,3.27,0,0,1,3.52-3.07c2.2,0,3.6,1.17,3.6,2.56s-.68,2.08-2.4,2.62a5.21,5.21,0,0,1,2.28,1.62m-5.51,2.37c0,1.76.88,2.77,2.13,2.77a2.1,2.1,0,0,0,2.24-2.34,2.34,2.34,0,0,0-.53-1.6A6.33,6.33,0,0,0,219,46.7c-.79.46-1.17,1.31-1.17,2.75m3.81-6.53c0-1.51-.77-2.31-1.78-2.31a1.72,1.72,0,0,0-1.81,1.86,2.3,2.3,0,0,0,.4,1.44,4.86,4.86,0,0,0,2.32,1.42c.56-.38.87-1.13.87-2.41"/><path class="cls-3" d="M232.37,46.49a2.15,2.15,0,0,1-2.06,1.13,3.58,3.58,0,0,1-2.48-.83,3.39,3.39,0,0,1-1.09-2.69,3.78,3.78,0,0,1,3.94-3.82c2.34,0,4,1.82,4,4.67a6.77,6.77,0,0,1-3.48,6.47,8.71,8.71,0,0,1-3,1.21c-.13,0-.17,0-.41-.28s-.2-.23-.2-.31,0-.13.24-.13a4.11,4.11,0,0,0,2.68-.65c1.15-.79,1.87-2.23,1.87-4.77Zm-.12-.5a3.75,3.75,0,0,0,.17-1.41c0-3-.57-4-1.69-4s-1.64.91-1.64,3.4c0,2.27.68,3.17,1.64,3.17A1.64,1.64,0,0,0,232.25,46"/><path class="cls-3" d="M243.25,46.49a2.16,2.16,0,0,1-2.06,1.13,3.58,3.58,0,0,1-2.48-.83,3.39,3.39,0,0,1-1.09-2.69,3.78,3.78,0,0,1,3.94-3.82c2.33,0,4.05,1.82,4.05,4.67a6.77,6.77,0,0,1-3.48,6.47,8.71,8.71,0,0,1-3,1.21c-.13,0-.17,0-.41-.28s-.2-.23-.2-.31,0-.13.24-.13a4.11,4.11,0,0,0,2.68-.65c1.15-.79,1.87-2.23,1.87-4.77Zm-.12-.5a3.75,3.75,0,0,0,.17-1.41c0-3-.57-4-1.7-4S240,41.52,240,44c0,2.27.67,3.17,1.63,3.17A1.65,1.65,0,0,0,243.13,46"/><path class="cls-3" d="M40.82,39.92v8a1.21,1.21,0,0,0,1.24,1.18h1.7V38.73h-1.7a1.21,1.21,0,0,0-1.24,1.19"/><path class="cls-3" d="M53.42,38.73H44.49V49.1H46v3.57h7.51V49.1A1.56,1.56,0,0,0,55,47.58V40.26a1.56,1.56,0,0,0-1.6-1.53m-7.05,3.94h1.56v.76H46.37Zm0,1.57h1.56V45H46.37Zm0,1.57h1.56v.76H46.37ZM52.78,52H46.73V47.76h6.05Zm-2.24-7H49v-.76h1.57ZM49,42.67h1.57v.76H49Zm1.57,3.9H49v-.76h1.57Zm2.6,0H51.58v-.76h1.56Zm0-1.57H51.58v-.76h1.56Zm0-1.57H51.58v-.76h1.56Zm0-1.55H46.37V40.53h6.77Z"/><rect class="cls-3" x="47.92" y="48.61" width="3.86" height="0.47"/><rect class="cls-3" x="47.92" y="49.84" width="2.51" height="0.47"/><path class="cls-3" d="M73.37,49.33c0,1.14.08,1.39,1.62,1.47.14,0,.15,0,.15.16s0,.13-.15.13c-.77,0-1.88-.05-2.76-.05s-1.92,0-2.61.05c-.14,0-.16,0-.16-.13s0-.14.16-.16c1.32-.08,1.51-.33,1.51-1.47V40.86c0-1.13-.18-1.37-1.62-1.47-.14,0-.16,0-.16-.14s0-.15.16-.15c1.31,0,2.93,0,4.37,0s3.12,0,4.51,0c.1.83.29,2.32.41,3.16,0,.12-.08.17-.23.17s-.1,0-.13-.13a4.43,4.43,0,0,0-1.34-1.93,3.55,3.55,0,0,0-2.51-.79c-1.14,0-1.22.16-1.22,1.27v3.76H74a3.34,3.34,0,0,0,2-.44A1.84,1.84,0,0,0,76.71,43c0-.16.05-.18.2-.18s.16,0,.16.18c0,.56,0,1.31,0,1.89s0,1.39,0,2c0,.15,0,.16-.16.16s-.16,0-.2-.16A2.25,2.25,0,0,0,76,45.47,3.31,3.31,0,0,0,74,45.06h-.65Z"/><path class="cls-3" d="M87.05,46.66c-.51,0-1.22,0-1.87,0s-1.22,0-1.88,0l-.19.54a8.05,8.05,0,0,0-.59,2.35c0,.76.35,1.11,1.47,1.25.16,0,.18,0,.18.16s0,.13-.18.13c-.65,0-1.47-.05-2-.05s-1.13,0-1.74.05c-.14,0-.16,0-.16-.13s0-.14.16-.16A1.74,1.74,0,0,0,81.32,50a11.21,11.21,0,0,0,1.23-2.91L84,42.91c.48-1.39.83-2.45,1.1-3.39l1.46-.69a.19.19,0,0,1,.19.16c.38,1.14.77,2.24,1.38,4l2.14,6.34c.43,1.26.51,1.34,1.54,1.45.14,0,.16,0,.16.16s0,.13-.16.13c-.76,0-1.43-.05-2.45-.05s-1.83,0-2.58.05c-.14,0-.16,0-.16-.14s0-.15.16-.15c1.14,0,1.31-.29,1.31-.57a2.77,2.77,0,0,0-.19-.88ZM85.8,43c-.25-.76-.4-1.25-.62-2-.23.77-.42,1.38-.64,2l-1.08,3.1c.53,0,1.16,0,1.72,0s1.23,0,1.68,0Z"/><path class="cls-3" d="M95.54,40.83c-.72-1.26-.81-1.31-1.6-1.44-.12,0-.14,0-.14-.14s0-.15.13-.15c.8,0,1.68,0,2.45,0s1.6,0,2.38,0c.16,0,.18,0,.18.15s0,.12-.18.14c-.93.06-1.09.21-1.09.48s.08.35.44,1l1.74,3.07,1.06-1.62a3.76,3.76,0,0,0,.86-2c0-.49-.29-.76-1.06-.86-.16,0-.17,0-.17-.14s0-.15.17-.15c.76,0,1.46,0,2.07,0s1.14,0,1.74,0c.15,0,.16,0,.16.15s0,.11-.16.14a2.68,2.68,0,0,0-1.39.77,13.56,13.56,0,0,0-1.61,2.17l-1.37,2,2.9,5c.74,1.27.77,1.31,1.71,1.44.15,0,.16,0,.16.16s0,.13-.16.13c-.84,0-1.69-.05-2.4-.05s-1.92,0-2.64.05c-.14,0-.16,0-.16-.14s0-.13.16-.15c1-.06,1.15-.24,1.15-.45s-.06-.38-.41-1l-2-3.49-1.23,2a4,4,0,0,0-.73,1.89c0,.57.33.91,1.23,1,.14,0,.16,0,.16.16s0,.13-.16.13c-.64,0-1.39-.05-2-.05s-1.24,0-1.88.05c-.15,0-.16,0-.16-.13s0-.13.16-.16a2.43,2.43,0,0,0,1.26-.73,12.74,12.74,0,0,0,1.54-2.18l1.55-2.5Z"/><line class="cls-4" x1="-0.06" y1="26.62" x2="304.94" y2="26.62"/></g></g></g></svg>