<svg xmlns="http://www.w3.org/2000/svg" viewBox="0 0 112.82 540.27"><defs><style>.cls-1{fill:#256643;}.cls-2{fill:#1eaa39;}.cls-3{fill:#ffe100;}.cls-4{fill:#ee87b4;}.cls-5{fill:#ea6000;}</style></defs><g id="レイヤー_2" data-name="レイヤー 2"><g id="レイヤー_4" data-name="レイヤー 4"><path class="cls-1" d="M103.72,178c2.77-3.35,2.91-3.46,3.31-3.46s.65.11,2.52,1.91c1.44,1.37,1.62,1.62,1.62,1.87s-.18.4-.47.4H94.54a53.87,53.87,0,0,1-3,4.82,3.49,3.49,0,0,1,.75.36h8.17c1.87-2,2-2.05,2.34-2.05s.54.07,2.2,1.33c1.4,1.08,1.58,1.3,1.58,1.62s-.07.4-1,1.23v3.67c0,6.55.18,9.36.18,10.8,0,2.16-.65,3.13-2.23,3.92a7.59,7.59,0,0,1-2.85.58c-.64,0-.86-.15-1.15-.94-.47-1.26-1.4-2.48-3.89-3.06-.21,0-.21-.43,0-.43a39,39,0,0,0,4.36-.14c.72-.08,1-.47,1-1.44v-3.5H91.84v7.89c0,1-.94,1.62-3.24,1.62-1,0-1.26-.33-1.26-1.33,0-.65.14-5.73.21-10.08l.11-5.22A31.44,31.44,0,0,1,78.41,195c-.18.07-.39-.18-.21-.32,3.31-2.45,6.55-6.84,8.78-11a50.17,50.17,0,0,0,2.41-5H83.74c-1.26,0-2.66.07-4.72.25l-.36-1.22c2.38.18,3.82.25,5.08.25h5.94c.5-1.26,1-2.59,1.47-4.25a21.92,21.92,0,0,0,.69-2.8c6,1.76,6.33,2.05,6.33,2.62s-.29.76-1.58,1.12c-.58,1.22-1.12,2.3-1.66,3.31Zm-11.34,6.62a2.45,2.45,0,0,1-.54.44v4.17H101v-4.61ZM101,194.73v-4.82H91.84v4.82Z"/><path class="cls-1" d="M86.19,216.77c1.33-1.8,1.47-1.84,1.8-1.84s.54,0,2.3,1.59c1.3,1.11,1.4,1.36,1.4,1.72s-.1.47-1.47,1.16c-1.87,2.41-3.21,4.14-4.36,5.5a.49.49,0,0,0,.18.83c3.21,1.84,5,4.46,5,7.24a6.08,6.08,0,0,1-1.58,4.5,5.29,5.29,0,0,1-3.21,1.62c-.39,0-.68-.33-.83-1a2.88,2.88,0,0,0-1.62-2.34c0,8,.08,9.9.08,10.87s-1.08,1.48-2.81,1.48c-1.37,0-1.62-.29-1.62-1.19s.25-3.71.25-17c0-10.26,0-12.28-.25-14.83,3.6.82,4.75,1.29,5.07,1.69Zm-2.42,18.46c2.24,0,3.35-1.15,3.35-3.38a8.93,8.93,0,0,0-2.05-5.69,1.32,1.32,0,0,1-.29-1.36c.58-2.2,1.12-4.32,1.77-7.31H84.42a2.75,2.75,0,0,1-.65.5Zm16.45-5.65a16.74,16.74,0,0,0,3.14,7.24c.93-1.41,1.83-2.85,2.7-4.39a16.28,16.28,0,0,0,.86-1.84c4.46,2.92,4.71,3.17,4.71,3.64s-.35.72-1.9.64c-2.16,1.12-3.75,1.95-5.65,2.88.25.26.46.47.68.72a25.1,25.1,0,0,0,7.92,5.4.18.18,0,0,1,0,.36,6.09,6.09,0,0,0-3.49,2.59c-.5.69-.65.83-1,.83s-.61-.07-1.3-.54a16.42,16.42,0,0,1-4.68-5.47c-3.88,2.09-7.66,3.89-10.87,5.26-.18.64-.54,1.18-.93,1.18-.58,0-.83-.39-2.59-5.61.79,0,1.62-.07,2.37-.14s1.44-.15,2.27-.26V223.36a69.33,69.33,0,0,0-.25-7.89c3.42.54,4.79.94,5.29,1.33h6.33c1.62-1.76,1.77-1.87,2.16-1.87s.54.07,2.42,1.55c1.22,1,1.33,1.19,1.33,1.51s-.07.43-1.08,1.23v2.37c0,2.7.25,6.7.25,7.45,0,1-1,1.48-3.06,1.48-1.12,0-1.58-.18-1.66-.94Zm-2.59-12.06a2.28,2.28,0,0,1-.83.62v4.5h7.35v-5.12Zm-.83,5.84v5.5h7.35v-5.5Zm0,18.21c1.7-.25,3.42-.47,5-.72-1.08-2.27-1.83-5.54-2.26-11.27H96.8Z"/><path class="cls-1" d="M112.14,270.37a7.15,7.15,0,0,0-3,3.6c-.22.58-.43.76-.72.76a3,3,0,0,1-1-.25,21.61,21.61,0,0,1-11.87-13.86c-3.24,6.51-11.63,14-17.21,16.12-.22.08-.4-.29-.22-.39,3.57-2.23,9.4-10,12-16.52a12.19,12.19,0,0,0,.72-2.42c5.54,1.08,6.33,1.59,6.33,2.09s-.29.61-1.11.9a20.68,20.68,0,0,0,7.12,6.12,33.5,33.5,0,0,0,8.93,3.49C112.36,270.05,112.32,270.26,112.14,270.37Zm-10.44,7.24c2.2-3,2.3-3.06,2.63-3.06s.47,0,2.37,1.8c1.3,1.19,1.41,1.29,1.41,1.62a.36.36,0,0,1-.4.36H96.88c0,.5-.25.83-1.33,1.22-1.34,2.09-2.67,4.07-4,6.05,3.24,0,6.41-.15,9.25-.33a9.82,9.82,0,0,0-3.42-3.49c-.17-.11,0-.36.19-.36,7,.51,9.93,4.14,9.93,6.66a2.68,2.68,0,0,1-2.81,2.92,2.56,2.56,0,0,1-2.37-2.09,16.55,16.55,0,0,0-.83-2.27c-3.85,1-9.43,2.27-16.49,3.82-.43.68-.54.79-.9.79s-.68-.22-2.12-5.76c1.19.07,2.55.14,3.71.14h2.88c.61-2.26,1.18-4.78,1.72-7.3H86.19c-1.3,0-3,.07-4.93.25l-.33-1.22a41,41,0,0,0,5.26.25ZM91,272.75a29,29,0,0,0-3.89.25l-.32-1.22A34.84,34.84,0,0,0,91,272h5.62c2.05-2.59,2.12-2.67,2.41-2.67s.39,0,1.87,1.41,1.37,1.33,1.37,1.62-.18.36-.44.36Z"/><path class="cls-1" d="M87.52,317.24c4,.22,6,2.16,6,4.32a2.39,2.39,0,0,1-2.41,2.59c-1.23,0-1.91-.75-2-2.23a5.33,5.33,0,0,0-1.58-4v2.7c0,4.82,0,9.79,0,12.49,0,1-.79,1.48-2.91,1.48-1.48,0-1.69-.26-1.69-1.3,0-.72.21-4.61.32-9.68l.11-5a52,52,0,0,1-5.4,3.09c-.18.11-.43-.18-.25-.32a37.71,37.71,0,0,0,10.18-12.67H82.8a33.71,33.71,0,0,0-4.32.25l-.32-1.22a41.21,41.21,0,0,0,4.64.25h.43v-3.49a29.12,29.12,0,0,0-.18-3.6c5.51.58,5.84.86,5.84,1.33,0,.32-.18.65-1.41,1.08v4.68h.33c1.62-2.05,1.83-2.2,2.08-2.2s.47.08,2,1.41c1.37,1.19,1.48,1.37,1.48,1.76s-.26.54-1.44,1a26.15,26.15,0,0,1-4.5,5.51c.79.22,1,.43,1,.61s-.18.43-.93.8ZM105.91,332c2.23-3.2,2.34-3.31,2.7-3.31s.58.11,2.49,2c1.22,1.19,1.4,1.4,1.4,1.73s-.11.36-.4.36H94.21c-1.08,0-1.94.07-4,.25l-.32-1.23a39.22,39.22,0,0,0,4.35.25h4.11V315.23H95.19a22.11,22.11,0,0,0-3.64.25l-.32-1.22a36.68,36.68,0,0,0,4,.25h3.13v-2.67c0-5.72,0-8.56-.18-10.62,5.65.4,6.4.83,6.4,1.41,0,.39-.28.79-1.54,1.33v10.55h2.08c2.16-3.24,2.34-3.42,2.7-3.42s.51.14,2.38,2c1.15,1.15,1.37,1.44,1.37,1.72s-.15.44-.36.44H103V332Z"/><path class="cls-1" d="M45.43,184.22c4.32-5.58,4.5-5.76,5-5.76s.9.12,3.9,3.18c2.28,2.34,2.46,2.52,2.46,3.06a.66.66,0,0,1-.72.72H32.05v11.1h9.78c4.26-5.52,4.38-5.64,4.92-5.64s.84.06,3.78,3.06C52.87,196.28,53,196.46,53,197a.66.66,0,0,1-.72.72h-37a82.58,82.58,0,0,0-9.17.42l-.54-2a94.2,94.2,0,0,0,9.71.42H24v-11.1h-13a82.58,82.58,0,0,0-9.17.42l-.54-2a94.31,94.31,0,0,0,9.71.42H24v-5.16a48.32,48.32,0,0,0-.36-6.9c9.48.54,10.74,1.2,10.74,2.22,0,.66-.3,1.2-2.34,1.92v7.92Zm-7.14,21.66c3-3.54,3.36-3.72,4-3.72s1.08.06,3.84,2.34S49,207,49,207.56s-.12.72-1.74,2v2.88c0,4.74.3,10,.3,12.06,0,1.68-1.5,2.46-5.22,2.46-2.64,0-3.12-.36-3.12-2.1v-2.16h-21v2.34c0,2.64-2.1,3.18-5.45,3.18-1.86,0-2.28-.42-2.28-2,0-2.28.3-7.2.3-12.24,0-3.9,0-7.8-.13-11.22,6.37,1.5,8.41,2.4,8.95,3.12Zm.9,15.66V207.08H19.39a4.81,4.81,0,0,1-1.2.66v13.8Z"/><path class="cls-1" d="M44.41,281.66c4.5-5.7,4.74-6.06,5.46-6.06s1,.18,4.56,3.54c2.16,2,2.64,2.64,2.64,3.06s-.3.66-.78.66H41c.06,13,.3,19.56.3,20.82,0,1.74-1.74,2.52-5.1,2.52C33.55,306.2,33,306,33,304c0-1.38.3-8.28.42-21.18H23.35c-.72,5.82-2.09,9-4.2,12.06-3.77,5.4-10.07,9.54-18.71,11.76-.36.06-.6-.42-.3-.6A26.33,26.33,0,0,0,13.7,291.62a32.37,32.37,0,0,0,2-8.76H10.22c-2.1,0-4.44.12-7.86.42l-.6-2c4,.3,6.36.42,8.46.42H15.8c.36-3.6.47-8,.47-13.74v-1.74H11.42c-2.1,0-4.44.12-7.86.42l-.6-2c4,.3,6.36.42,8.46.42h4.85c0-11.34-.11-13.32-.35-14.94,9.35.9,10.13,1.44,10.13,2.34,0,.72-.6,1.32-2,2.1V265h9.48c0-10.68-.12-12.42-.36-15.12,9.3.84,10,1.5,10,2.34s-.42,1.14-2.22,2.1V265h2c4.08-5.16,4.32-5.46,4.86-5.46s1,.18,3.9,2.94c2,1.92,2.64,2.58,2.64,3.06s-.3.66-.78.66H40.93v15.48Zm-11,0c.06-2.7.06-5.64.06-8.88v-6.6H24V268a134.73,134.73,0,0,1-.54,13.68Z"/><path class="cls-1" d="M16.69,370.82a10,10,0,0,0,4.69,3.66c2,.72,5.75.9,11.81.9a220.58,220.58,0,0,0,25-1.5c.36-.06.48.42.18.66a8.37,8.37,0,0,0-3.54,5.52c-.18,1.38-.6,2-1.86,2.1-1.56.18-4.26.3-13.2.3-13.68,0-16.62-.78-19.68-3.3a13,13,0,0,1-4.31-7,79.25,79.25,0,0,1-8.4,8.4c-.67,1.62-1.08,2.1-1.74,2.1s-1.62-1-5-8.22a31.75,31.75,0,0,0,3.6-1.08,47.67,47.67,0,0,0,5.22-2.28V354.2H6.86a27.42,27.42,0,0,0-5.34.42l-.54-2a36,36,0,0,0,5.88.42H8.72c3-3.54,3.29-3.9,3.9-3.9s1,.12,3.05,1.92c2.71,2.34,2.94,2.64,2.94,3.42,0,.48-.3.84-1.92,2.1ZM5.54,329.48c7.55.84,11.09,4.38,11.09,8.22,0,2.64-1.43,4.5-4.55,4.5-2.41,0-3.36-1.56-3.54-4.5-.18-2.4-.84-5.64-3.48-7.62C4.76,329.84,5.17,329.42,5.54,329.48Zm26.93,10.26H27.13a31.69,31.69,0,0,1-8,9.24c-.29.18-.59-.06-.42-.36,1.75-3,3.36-8.22,4-15a39.37,39.37,0,0,0,.25-4.38c7.67,2,8.63,2.4,8.63,3.24s-.3.9-1.8,1.56a29,29,0,0,1-1.92,4.5h4.68V337a92,92,0,0,0-.24-9.24c8.82.9,9.6,1.5,9.6,2.22s-.24,1-2.16,1.8v6.72h4.08c3.48-4.68,3.66-4.86,4.2-4.86s.78.06,3.6,2.94c1.86,1.86,2,2,2,2.46s-.18.66-.6.66H39.67v10.14h6.66c3.48-4.62,3.78-4.86,4.32-4.86s1,.24,3.48,2.52c2,1.92,2.34,2.34,2.34,2.82s-.24.72-.6.72H23.65a37.73,37.73,0,0,0-6.06.42l-.54-2a61.47,61.47,0,0,0,6.6.42h8.82ZM43,356.54c2.34-3,2.76-3.24,3.36-3.24s1,.12,4,2.52c2,1.62,2.22,2,2.22,2.52s-.12.84-1.68,2.4v1.38c0,3.24.24,7.14.24,7.86,0,1.68-1.26,2.76-4.62,2.76-2.28,0-2.82-.48-2.82-2.1v-1.32H28.87V371c0,1.68-1.44,2.46-4.56,2.46-2.16,0-2.46-.54-2.46-2.16,0-.78.3-6.72.3-9.06,0-2.7,0-6.54-.06-8.52,5.46,1.56,7.38,2.22,8,2.82Zm.66,11.58V357.74H30a6.44,6.44,0,0,1-1.08.9v9.48Z"/><path class="cls-1" d="M12.8,438.44C8.42,442,3.74,445,.5,446.24c-.36.12-.66-.3-.36-.54,4.14-3.36,9.6-10.2,14.45-19.74a23.21,23.21,0,0,0,1.5-3.66c8,4.14,8.94,4.68,8.94,5.58,0,.72-.66,1.14-2.81,1.5-1.09,1.32-2.41,2.76-3.91,4.26,2.82,1.08,3.19,1.5,3.19,1.92,0,.6-.31.9-1.74,1.68v5.46c0,12.42.12,15.24.12,16.38,0,1.62-1.33,2.76-4.57,2.76-2.69,0-3.05-.36-3.05-2,0-1.2.24-4.56.36-11.58Zm33-23.94c4-4.86,4.2-5,4.8-5s.9.12,3.84,2.76c2.22,2,2.4,2.22,2.4,2.76a.58.58,0,0,1-.66.66H41c.12,1.8.24,3.06.24,3.84,0,1.92-1.86,2.7-5.16,2.7-2,0-2.7-.48-2.7-1.92V415.7H23.23c0,1.56.07,2.76.07,3.54,0,1.92-1.8,2.7-4.8,2.7-2,0-2.7-.48-2.7-1.56,0-.72.12-2.46.12-4.68H11.17a82.58,82.58,0,0,0-9.17.42l-.54-2a94.31,94.31,0,0,0,9.71.42H16v-1.44a39.91,39.91,0,0,0-.3-6.36c8.76.48,9.78,1,9.78,2,0,.78-.72,1.38-2.28,1.92v3.9h10.2v-1.44a49.31,49.31,0,0,0-.24-6.36c9.3.42,10.08,1,10.08,2,0,.54-.72,1.38-2.28,1.92v1.5c0,.9,0,1.68.06,2.4Zm-10,36.78c0,1.62.6,2.1,5.64,2.1,5.82,0,7.44-.72,8.82-2s2.52-3.12,4.62-8.28c.12-.36.48-.18.48.18-.24,3.42-.42,5.22-.42,7s.06,2.22.72,3.06a3.69,3.69,0,0,1,.84,2.64c0,2.52-3.48,4.26-14.82,4.26-11.16,0-13.26-1-13.26-6.6,0-.9.18-5.1.18-16.8,0-9.24,0-10.74-.3-13.44,9.12,1,9.6,1.32,9.6,2.34,0,.54-.6,1-2.1,1.86v10.92a105.42,105.42,0,0,0,9-10c.78-1,1.38-1.86,2.1-3,7.44,5.88,7.74,6.36,7.74,7.32s-.6,1.32-3.54,1.14c-4.68,2.34-10.68,5-15.3,6.9Z"/><path class="cls-1" d="M44.17,493c4.32-5,4.5-5.22,5.1-5.22s.9.12,4.08,3.12c2,1.92,2.16,2.16,2.16,2.7,0,.36-.18.6-.66.6H15.92a4.78,4.78,0,0,1-1.15.72v10.44c0,12.9-1.55,18.66-4.14,23.76a34.31,34.31,0,0,1-9.29,11.1c-.3.24-.72-.24-.48-.48,1.62-1.8,3.36-5.16,4.74-10,1.44-5.1,2.1-10.68,2.1-22.56,0-8.22-.18-12.24-.61-17,7.15,1.68,8.76,2.16,9.13,2.82H26.53v-2.1a40.22,40.22,0,0,0-.36-6.48c9.6.6,10.74,1.26,10.74,2.16,0,.72-.3,1-2.46,2V493ZM43,507.44c4.08-5.34,4.2-5.4,4.86-5.4s1,.12,4,2.94c2.1,2,2.46,2.52,2.46,3s-.18.66-1,.66H35.83v11.28h6.36c3-3.48,3.24-3.6,3.9-3.6s1,.12,4,2.4c2.4,1.86,2.7,2.28,2.7,2.88s-.18.9-1.86,2.22v3.12c0,3.36.3,5.82.3,9.3,0,1.8-2.16,2.82-5.4,2.82-2.16,0-2.7-.3-2.7-2.28V535H23.72v1.86c0,1.86-1.5,2.88-5.29,2.88-2,0-2.39-.3-2.39-2.34,0-1,.35-7,.35-10.68,0-4.08,0-6.6-.17-9.54,6,1.44,7.79,2,8.27,2.7h3.66V506.18c0-4.5-.12-8-.3-10.56,9.54,1,10.08,1.56,10.08,2.28s-.54,1.2-2.1,2v7.56Zm.12,26.4V521.12H24.43a2.73,2.73,0,0,1-.71.66v12.06Z"/><ellipse class="cls-2" cx="48.62" cy="36.71" rx="14.99" ry="42.66" transform="translate(7.14 81.34) rotate(-84.15)"/><ellipse class="cls-3" cx="52.21" cy="69.11" rx="32.93" ry="12.53" transform="translate(-15.13 14.63) rotate(-13.96)"/><ellipse class="cls-4" cx="75.1" cy="93.07" rx="21.21" ry="14.42" transform="translate(-41.22 65.28) rotate(-37.66)"/><path class="cls-5" d="M100.47,88.68s-37-11.82-55.44-52c0,0-6.61-14.52-6.61-25.57C38.42,11.14,38,0,47.13,0c0,0,8.2-.33,8.29,10.22,0,0-.25,21.44,9.29,36.26,0,0,8.46,14.07,21.1,23.7a28.68,28.68,0,0,1-8.62-3.94s-1.9-1.68-3.07-.42c0,0-1.37,1.17,1,3.85C75.1,69.67,82.21,78.47,100.47,88.68Z"/></g></g></svg>