<svg xmlns="http://www.w3.org/2000/svg" viewBox="0 0 96.37 468.44"><defs><style>.cls-1{fill:#256643;}.cls-2{fill:#1eaa39;}.cls-3{fill:#ffe100;}.cls-4{fill:#ee87b4;}.cls-5{fill:#ea6000;}</style></defs><g id="レイヤー_2" data-name="レイヤー 2"><g id="レイヤー_3" data-name="レイヤー 3"><path class="cls-1" d="M68.6,137.47a4.2,4.2,0,0,0-1.23-3.28c-.12-.12-.09-.23.09-.23,3.19,0,4.89,1.43,4.89,3a2.09,2.09,0,0,1-2.09,2.33C69.22,139.32,68.63,138.66,68.6,137.47Zm18.14,4.35a12.45,12.45,0,0,0,4.3,4.06,21.27,21.27,0,0,0,5,2.38c.18.06.18.27,0,.3-.95.18-2.23,1.52-2.86,2.71-.24.45-.39.54-.6.54a1,1,0,0,1-.44-.12,11.36,11.36,0,0,1-3.34-2.95,12.84,12.84,0,0,1-2.41-6.92h-.06l.12,3.34c.15,4.47.15,6.44.15,7.3s-.87,1.13-2.39,1.13c-1.22,0-1.34-.09-1.34-1s0-2.15.15-5.78l0-.84a19.1,19.1,0,0,1-8.46,6.38,2.59,2.59,0,0,1-2.24,1.16,2,2,0,0,1-2.15-2.14c0-.69.18-2,.18-2.89,0-1.16-.41-2.12-2.35-2.83-.18-.06-.15-.36,0-.36.39,0,.71.06,1.07.06.69,0,1.07-.54,1.55-1.55a128.06,128.06,0,0,0,4.8-12.16v-.15a2.33,2.33,0,0,1,.8-1.64,3.61,3.61,0,0,0,1.26-3.42c0-.18.2-.21.32-.09a7,7,0,0,1,1.25,1.75H90.92c1.31-1.52,1.46-1.6,1.72-1.6s.42,0,1.91,1.54c1.16,1.17,1.31,1.47,1.31,1.76,0,.6-.5.81-1.37.81a3.77,3.77,0,0,0-1.58.27c-.83.35-1.61.71-2.74,1.25a.16.16,0,0,1-.21-.24c.48-1.07.87-2,1.31-3.19H89.46c0,.27-.24.45-.66.63v4.08c0,.54.12.68,1.25.68,1.79,0,2.18-.17,2.56-.62a13.44,13.44,0,0,0,1.64-2.62.14.14,0,0,1,.27.09,12.43,12.43,0,0,0-.3,2.26,1.38,1.38,0,0,0,.45.92,1.74,1.74,0,0,1,.51,1.23c0,1.13-.93,2-5.69,2-3.16,0-3.94-.53-3.94-2.59,0-.42.06-1.7.06-3.1,0-1.16,0-2.23,0-2.95H81.17c3.85.89,4,1.07,4,1.46s-.17.48-1,.78c-.65,4.23-3.81,7.27-8.7,8.13a.16.16,0,0,1-.09-.3c2.8-1.25,5-3.72,5.51-8.49a12.4,12.4,0,0,0,.06-1.58H79.38a4.31,4.31,0,0,1,.27,1.46A2.57,2.57,0,0,1,77.18,133a1.73,1.73,0,0,1-1.37-.62c-1.31,6.79-1.91,9.59-2.27,11.65a10.51,10.51,0,0,0-.15,2c0,1.85,1.58,3.43,1.58,4.95a2.53,2.53,0,0,1-.12.81c2.78-1.88,5.55-6.08,6.62-10H79.2a28.32,28.32,0,0,0-3.54.21l-.3-1c1.55.15,2.89.21,3.84.21h3.88c0-2.24,0-3.19-.09-4.32,3.87.23,4.5.44,4.5.89,0,.21-.09.45-.95.77v2.66h4c1.88-2.45,2-2.51,2.26-2.51s.36,0,1.85,1.52c1,1,1,1.08,1,1.28s-.13.3-.54.3Zm-17-15.52c3.19.09,5.15,1.4,5.15,3.36A2.08,2.08,0,0,1,72.8,132a1.68,1.68,0,0,1-1.79-1.7c-.15-2-.39-2.89-1.37-3.72C69.49,126.42,69.55,126.3,69.73,126.3Z"/><path class="cls-1" d="M68.57,173.25A4.2,4.2,0,0,0,67.34,170c-.12-.12-.09-.24.09-.24,3.19,0,4.89,1.43,4.89,3a2.09,2.09,0,0,1-2.09,2.33C69.19,175.1,68.6,174.44,68.57,173.25Zm7.8-8.88c-1.22,6.85-2.23,12.46-2.8,15.47a10.51,10.51,0,0,0-.15,2c0,1.85,1.58,3.43,1.58,4.95a2.47,2.47,0,0,1-2.59,2.53,2,2,0,0,1-2.15-2.14c0-.69.18-2,.18-2.89,0-1.17-.41-2.12-2.35-2.83-.18-.06-.15-.36,0-.36.39,0,.71.06,1.07.06.69,0,1-.54,1.46-1.55,1.49-3.73,3.25-8.73,5.4-15.32C76.11,164.1,76.4,164.19,76.37,164.37Zm-6.76-2.3c3.19.09,5.15,1.41,5.15,3.37a2.08,2.08,0,0,1-2.08,2.3,1.68,1.68,0,0,1-1.79-1.7c-.15-2-.39-2.89-1.37-3.73C69.37,162.19,69.43,162.07,69.61,162.07Zm21.46,4.39c1.81-2.3,1.84-2.33,2.11-2.33s.39,0,1.91,1.52c.77.78.86.95.86,1.13s-.12.27-.3.27H87.07v3.37h2.8c1.52-1.73,1.61-1.79,1.88-1.79s.42,0,1.94,1.31c1,.87,1.07,1,1.07,1.22s-.09.33-.89,1v3.63c0,3.88.12,9.24.12,10.17a3.06,3.06,0,0,1-1.85,2.83,4.23,4.23,0,0,1-1.82.47c-.54,0-.72-.24-.8-.77a2.44,2.44,0,0,0-2-2.24c-.18-.06-.18-.35,0-.35.65,0,1.28-.09,1.85-.15s.89-.39.89-1.31v-3.49H87.1c0,4,.09,7,.09,7.18,0,.81-.71,1.37-2.29,1.37-1.2,0-1.4-.18-1.4-1.1,0-.24.06-3.31.09-7.45H80.67V188c0,.81-1.2,1.19-2.3,1.19-.86,0-1.22-.29-1.22-1,0-.54.18-6.65.18-11.35,0-5,0-6.08-.09-7.69,2.62.65,3.51,1,3.78,1.28h2.6v-3.37H80.16c-.69,0-2,.06-3.37.21l-.3-1c1.46.15,2.8.21,3.67.21h3.46a46.82,46.82,0,0,0-.18-4.89c4.08.33,4.62.62,4.62,1s-.27.6-1,.93v3ZM83.62,171H81.05a3.36,3.36,0,0,1-.38.38v3.82h3Zm0,9.29,0-4.5h-3v4.5ZM87.07,171v4.2h3.19V171Zm3.19,9.29v-4.5H87.07l0,4.5Zm-2.09-18.89c2.81,0,4.15,1.13,4.15,2.47a1.62,1.62,0,0,1-1.64,1.73c-.81,0-1.25-.45-1.34-1.46a3,3,0,0,0-1.28-2.5C87.91,161.57,88,161.42,88.17,161.42Z"/><path class="cls-1" d="M91,201.5c2-2.53,2.08-2.59,2.38-2.59s.39,0,1.73,1.34,1.25,1.31,1.25,1.55-.15.3-.54.3H92.67c0,.32-.17.5-.71.86v8c0,4.67.21,8.82.21,10.34a3.4,3.4,0,0,1-2.12,3.57,4.49,4.49,0,0,1-2,.39c-.54,0-.66-.27-.84-.8-.3-.9-1-1.58-3.31-2.39a.17.17,0,0,1,0-.33,21.7,21.7,0,0,0,3.07-.17c.78-.15,1.22-.48,1.22-1.35v-14.6c0-1.58,0-2.44-.06-3.48H82.87v5.45c0,4.53.21,9.86.21,10.64s-.57,1.25-2.68,1.25c-.93,0-1-.21-1-1.07V217H72.32v1.84c0,.87-.71,1.25-2.29,1.25-.81,0-1.17-.29-1.17-1.07s.21-5.75.21-11.65c0-5,0-7.36-.12-9.48,2.54.69,3.61,1.17,4,1.55h6c1.31-1.67,1.46-1.76,1.7-1.76s.47,0,1.93,1.14c1.13.86,1.19,1,1.19,1.28s-.06.39-.92,1v.39ZM73,200a1.33,1.33,0,0,1-.72.45v7.18h1.91v-6c0-.45,0-1,0-1.58Zm-.72,16.36h1.91v-8.14H72.32ZM79.38,200H77.83c0,.21-.15.36-.5.6v7h2Zm0,16.36v-8.14h-2v8.14Z"/><path class="cls-1" d="M79.2,257.61a.15.15,0,0,1,.12-.15,18.23,18.23,0,0,0,7.84-4.65,9.76,9.76,0,0,0,2.56-6.43A7.4,7.4,0,0,0,88,241.1a7.09,7.09,0,0,0-5.61-2.32,12.21,12.21,0,0,0-1.46.06,5.2,5.2,0,0,1,1.58,3.72c0,2.66-2.74,8.76-6.4,11.39a3.53,3.53,0,0,1-2,.77c-1,0-2.06-1-2.71-2.17a8.64,8.64,0,0,1-1.08-4,10.32,10.32,0,0,1,4.74-8.4,14.25,14.25,0,0,1,7.69-2.3,11.41,11.41,0,0,1,7.9,3,9.18,9.18,0,0,1,3,6.62,8.69,8.69,0,0,1-3.73,6.91c-2.74,1.94-6.08,2.92-10.49,3.37C79.23,257.76,79.2,257.7,79.2,257.61Zm-6.79-10.16A5.16,5.16,0,0,0,73,250a1.6,1.6,0,0,0,1.31.93c.41,0,.89-.15,1.61-1,3.1-3.51,4.65-7.3,4.65-9.38a3.5,3.5,0,0,0-.3-1.55C77,239.46,72.41,243.16,72.41,247.45Z"/><path class="cls-1" d="M73.75,290.84a1.77,1.77,0,0,1-1.46.83,2.35,2.35,0,0,1-1.49-.92,3.28,3.28,0,0,1-1.1-1.88,2.59,2.59,0,0,1,.18-.77c.06-.12.12-.18.21-.18a.23.23,0,0,1,.17.06,1.92,1.92,0,0,0,1.11.53,3.54,3.54,0,0,0,1.52-.59c1.67-.87,3.22-1.73,4.56-2.42v-5.21l-.57.18a17.92,17.92,0,0,1-2.8.59,1.75,1.75,0,0,1-1-.32,7.51,7.51,0,0,1-2.21-2.42c-.09-.15-.09-.15-.09-.21s.06-.09.21,0a3.73,3.73,0,0,0,1.49.33A14.88,14.88,0,0,0,75,278c.78-.2,1.61-.47,2.39-.74,0-.8,0-1.64,0-2.44s0-1.4-.3-1.7a2,2,0,0,0-1.19-.48c-.18,0-.3-.09-.3-.15s.06-.15.18-.24a4.18,4.18,0,0,1,2-1,3.34,3.34,0,0,1,1.79.69c.93.56,1.13.89,1.13,1.31a1.42,1.42,0,0,1-.23.74c-.27.51-.3.84-.33,2.48a6.3,6.3,0,0,0,1.19-.57c1.61,0,2.47.57,2.47,1.19,0,.93-.47,1.19-1.43,1.55-.74.3-1.49.57-2.29.84,0,1.63-.06,3.24-.06,4.88a3,3,0,0,1,.45-.21,13.9,13.9,0,0,1,5.93-1.49c4,0,6.49,2.18,6.49,4.89,0,3.1-2.5,4.89-5.72,4.89a8,8,0,0,1-5.78-2.77c-.06-.06,0-.15,0-.15a.18.18,0,0,1,.12,0,8.09,8.09,0,0,0,3.52.62c3,0,4.76-1.52,4.76-3.69,0-1.82-1.34-2.71-3.51-2.71-1.34,0-3.1.8-5.34,2.17a9.36,9.36,0,0,0-1,.66c0,.62,0,1.82,0,2.44s0,1,0,1.4a8.66,8.66,0,0,1-.06,1.22c-.24,2.06-1.13,3-2.21,3-.56,0-.89-.2-1.31-1.43A5.78,5.78,0,0,0,74,290.63Zm.63-.54a8.16,8.16,0,0,0,2.17.42c.45,0,.78-.15.81-1.25,0-.51,0-1,0-1.52C76.34,288.69,75.36,289.5,74.38,290.3Zm13.5-10.82c-.12,0-.18-.05-.18-.14s0-.09.09-.15c1.87-1.22,2.56-2,2.56-2.45,0-.83-1.52-2.26-3.4-2.26h-.38c-.15,0-.24-.06-.24-.15s.06-.12.24-.21a5.71,5.71,0,0,1,2.47-.51c2.59,0,5.24,1.64,5.24,3.76,0,1.31-.65,1.7-1.58,1.7-.2,0-.47,0-.74-.06s-.63-.06-.89-.06a16.9,16.9,0,0,0-3.13.53Z"/><path class="cls-1" d="M78.7,314.77c.92-1,1-1.11,1.25-1.11s.42.06,1.73,1.14c1.13.92,1.22,1.07,1.22,1.34s-.15.39-1.07.89c-3,4.77-8.76,7.36-14.07,7.9-.18,0-.24-.3-.06-.33a16.87,16.87,0,0,0,7.72-4.26,1.06,1.06,0,0,1-1.1-1,2.71,2.71,0,0,1,.12-.84,1.93,1.93,0,0,0,0-1.52,20.75,20.75,0,0,1-6.41,4.17c-.18.06-.3-.17-.15-.26a18,18,0,0,0,5.6-7,6.57,6.57,0,0,0,.48-1.28H72.65a24.75,24.75,0,0,0-3.31.21l-.27-1c1.64.15,2.74.21,3.58.21H89.34c1.81-2.15,1.93-2.24,2.2-2.24s.39.09,1.82,1.34c.92.81,1,1,1,1.16s-.12.33-.44.33H87.34c-.06.21-.27.42-.89.81V316c.77-.51,1.52-1.07,2.47-1.82a10.82,10.82,0,0,0,1.4-1.25c2.92,2.21,3,2.41,3,2.89s-.39.54-1.76.33c-1.85.3-3.28.53-5.15.8V318c0,.8.29,1,2.41,1,2.38,0,3.37-.27,4.08-.9A8.88,8.88,0,0,0,95,314.89c.06-.15.27-.09.24.09a17.39,17.39,0,0,0-.21,2.26c0,.87.06,1.13.36,1.46a1.64,1.64,0,0,1,.41,1.22c0,1.25-1.73,2.12-7,2.12-4.56,0-5.6-.51-5.6-3.4,0-.45.09-1.16.09-3,0-1.31,0-2.05-.09-3.1H78.61a1.77,1.77,0,0,1-1,.6,11.73,11.73,0,0,1-1.11,1.61Zm12.07,10.9c2-2.41,2.08-2.47,2.38-2.47s.45.06,1.91,1.37c1.1,1,1.19,1.1,1.19,1.37a.29.29,0,0,1-.33.33H88c0,1.85.15,4.65.15,5.13,0,.86-.84,1.28-2.42,1.28-1.16,0-1.43-.27-1.43-1.05,0-.5.12-3.42.12-5.36H80.52a7.13,7.13,0,0,1-2.69,4.14c-2,1.52-5.18,2.42-9,2.51-.17,0-.23-.33-.06-.36a11.29,11.29,0,0,0,6.56-3.1,7.37,7.37,0,0,0,1.64-3.19h-4a40.8,40.8,0,0,0-4.56.21l-.27-1c1.88.17,3.25.2,4.83.2H77a7.71,7.71,0,0,0,.12-1.46A13.53,13.53,0,0,0,77,322c4.26.3,4.77.51,4.77,1,0,.3-.15.54-1.08.9v.47a8.66,8.66,0,0,1-.09,1.25h3.76a28.08,28.08,0,0,0-.18-3.51c4.44.33,4.89.53,4.89,1.07,0,.24-.15.48-1.13.87v1.57Zm-17.7-17.19a40.7,40.7,0,0,0-4.56.21l-.27-1c1.88.17,3.25.2,4.83.2h2.5v-.38a18.62,18.62,0,0,0-.15-3c4.17.23,4.68.47,4.68,1s-.36.69-1.13.95v1.46h5.09v-.38a23,23,0,0,0-.12-3c4.47.21,4.86.47,4.86,1,0,.27-.36.69-1.13.95v1.46h2.59c2-2.41,2.09-2.47,2.38-2.47s.45.06,1.91,1.37c1.1,1,1.19,1.1,1.19,1.37s-.09.33-.32.33H87.7c.06.69.12,1.22.12,1.64,0,.95-.84,1.34-2.48,1.34-1,0-1.28-.24-1.28-.95v-2H79c0,.69,0,1.22,0,1.64,0,.95-.75,1.34-2.21,1.34-1,0-1.34-.24-1.34-.78,0-.38.06-1.25.09-2.2Zm3,6.88c-.36.39-.72.81-1.14,1.2,1.26.38,2.09,1,2.21,1.84a14.23,14.23,0,0,0,1.76-3Z"/><path class="cls-1" d="M85.25,347.67a27.66,27.66,0,0,0,1.85,8.19A15.49,15.49,0,0,0,91.45,362a1.52,1.52,0,0,0,1,.39c.5,0,1.07-.66,3.12-4.26a.14.14,0,0,1,.27.09c-.5,2.08-1,4.26-1,4.61a3.5,3.5,0,0,0,.3,1.29,3.4,3.4,0,0,1,.44,1.55,1.92,1.92,0,0,1-2,2,5.94,5.94,0,0,1-3-.92,16,16,0,0,1-4.74-4.86c-4.77,1.61-8.46,2.71-14.6,4.35-.21.51-.39.78-.72.78s-.5-.18-.71-.81c-.33-1-.69-2.2-1.14-3.81,1,0,1.67,0,2.69,0s2.08-.06,3.1-.12v-5.43a22.8,22.8,0,0,0-.09-2.62H73a22.68,22.68,0,0,0-3,.21l-.3-1a26,26,0,0,0,3.34.24h4.73C79.59,351.06,79.68,351,80,351s.36.06,1.61,1.37a12,12,0,0,1,.89,1,41.93,41.93,0,0,1-.86-5.72H72.86c-1,0-2.21.06-3.91.2l-.29-1c2,.15,3.15.21,4.2.21h8.7c-.06-.69-.09-1.4-.12-2.15a42.34,42.34,0,0,0-.33-4.38c4.62.48,5,.69,5,1.2,0,.32-.18.53-1,1,0,1.55.06,3,.17,4.35h5.34c1.91-2.56,2-2.59,2.26-2.59s.39.06,1.88,1.49c1,.95,1.07,1.07,1.07,1.28s-.12.42-.56.42Zm-7,14.39c2.42-.15,4.8-.39,7.36-.66a21.08,21.08,0,0,1-1.91-3.9,33.55,33.55,0,0,1-1-3.4.24.24,0,0,1-.24.12H78.94c-.06.27-.3.42-.69.57Zm8.23-21.31c3.39,0,4.88,1.49,4.88,2.95a1.91,1.91,0,0,1-2,2c-.9,0-1.46-.54-1.61-1.79a3.84,3.84,0,0,0-1.4-2.86C86.21,341,86.3,340.75,86.48,340.75Z"/><path class="cls-1" d="M78.76,381.28a10.87,10.87,0,0,0,.21-1.76c0-.5-.3-.95-1.29-1.37-.14-.06-.14-.09-.14-.15s0-.09.26-.21a4,4,0,0,1,1.46-.38,4.82,4.82,0,0,1,1.79.71c.87.57,1.16.9,1.16,1.28a2.83,2.83,0,0,1-.41,1.11c-.21.41-.39.8-.6,1.28a5.32,5.32,0,0,0,1.19-.63c1.61.09,2.45.57,2.48,1.28a1.13,1.13,0,0,1-.72,1.13c-1.46.54-2.77,1-4.23,1.49-1.25,2.72-2.53,5.1-4.29,8.32A15.56,15.56,0,0,1,74,395.91a1.86,1.86,0,0,1-1.19.48c-.66,0-1.2-.93-1.2-2.15a2.75,2.75,0,0,1,.45-1.81,7.38,7.38,0,0,0,1.16-1.11,26.21,26.21,0,0,0,4.06-5.63l-1.34.45a8.06,8.06,0,0,1-2.33.53,2.63,2.63,0,0,1-1.52-.68,6.92,6.92,0,0,1-1.61-2.18.92.92,0,0,1-.09-.32c0-.06.06-.09.12-.09a.91.91,0,0,1,.3.11,3.38,3.38,0,0,0,1.79.39,18.24,18.24,0,0,0,2.53-.36,29.44,29.44,0,0,0,3.25-.83A14.25,14.25,0,0,0,78.76,381.28Zm5.09,12.46a6.67,6.67,0,0,1,3.37-6.11c.15-.09.33-.21.33-.36s-.12-.18-.24-.24a7.15,7.15,0,0,0-3.34-.65.14.14,0,0,1-.15-.15c0-.06,0-.12.15-.18a8.92,8.92,0,0,1,3.13-.66,7.62,7.62,0,0,1,4,1c1,.53,1.44,1,1.44,2a1.25,1.25,0,0,1-1.4,1.28,4.25,4.25,0,0,1-1.47-.38,3.93,3.93,0,0,0-1.87-.48A2,2,0,0,0,85.61,391a20,20,0,0,0,.15,2.57c.09.74.27,1.7.51,2.89a14.13,14.13,0,0,1,4.26,1.67c1,.68,1.46,1.19,1.46,2.2A1.46,1.46,0,0,1,90.56,402a2.5,2.5,0,0,1-1.79-.86,10.69,10.69,0,0,0-2.53-1.7c-.39,2.2-1.85,3.49-4.74,3.49-2.62,0-4.56-1.38-4.56-3.37s2.09-3.4,4.74-3.4a17.28,17.28,0,0,1,2.11.06C83.79,395.26,83.85,394.36,83.85,393.74Zm-3,3.9c-2,0-3.13.63-3.13,1.64s.87,1.43,2.63,1.4,2.95-.86,3.25-2.41A6.6,6.6,0,0,0,80.87,397.64Z"/><path class="cls-1" d="M85.82,434.05c1.64-1.4,2.38-2.65,2.38-4.32A2.44,2.44,0,0,0,85.64,427c-2,0-3.84,1.31-6.61,4.26a10.57,10.57,0,0,0-1.4,1.7,1.17,1.17,0,0,1-1.14.69c-.41,0-1.07-.24-1.78-1.31a4.47,4.47,0,0,1-.87-2.27,12.11,12.11,0,0,1,.15-1.22c.21-1.88.39-3.61.68-5a11.72,11.72,0,0,1,1.52-3.9,19.12,19.12,0,0,1,1.94-2.15.39.39,0,0,0,.15-.32A.44.44,0,0,0,78,417c-.86-.63-1.43-1.46-1.49-3.4,0-.21.06-.3.15-.3a.36.36,0,0,1,.27.18c.48.57,1.61,1.14,4.14,1.94,1.94.63,3,1.58,3,2.83a1.35,1.35,0,0,1-1.46,1.34,6.66,6.66,0,0,1-1.7-.33,6.68,6.68,0,0,0-1.7-.2,4,4,0,0,0-2,.53,1.08,1.08,0,0,0-.54,1.07,4.76,4.76,0,0,0,.12,1.08,5.36,5.36,0,0,1,.18,1.19,5.88,5.88,0,0,1-.06,1c-.12.78-.21,1.58-.3,2.21s-.09,1.19-.09,1.61a5.86,5.86,0,0,0,0,.71.4.4,0,0,0,.39.39,2.67,2.67,0,0,0,1-.36c3.61-2,5.75-2.77,7.81-2.77,3.1,0,6,1.94,6,4.86,0,2.44-1.61,4.14-3.87,5.33a29.44,29.44,0,0,1-10.79,2.68.17.17,0,0,1-.18-.14c0-.09,0-.15.15-.18A22.36,22.36,0,0,0,85.82,434.05Z"/><path class="cls-1" d="M37.61,173.72c3.58-4.62,3.73-4.77,4.17-4.77s.75.1,3.23,2.63c1.89,1.94,2,2.09,2,2.53a.55.55,0,0,1-.6.6H26.54v9.19h8.09c3.53-4.57,3.63-4.67,4.07-4.67s.7.05,3.13,2.53c1.94,1.94,2,2.09,2,2.54a.55.55,0,0,1-.6.59H12.68a68,68,0,0,0-7.6.35l-.45-1.69a77.72,77.72,0,0,0,8.05.35h7.2v-9.19H9.15a68,68,0,0,0-7.6.35l-.44-1.69a77.54,77.54,0,0,0,8,.35H19.88v-4.28a39.81,39.81,0,0,0-.3-5.71c7.85.45,8.89,1,8.89,1.84,0,.55-.25,1-1.93,1.59v6.56ZM31.7,191.65c2.48-2.93,2.78-3.08,3.33-3.08s.89.05,3.18,1.93,2.33,2.09,2.33,2.54-.1.59-1.44,1.69v2.38c0,3.92.25,8.29.25,10,0,1.39-1.24,2-4.32,2-2.19,0-2.58-.3-2.58-1.74V205.6H15.06v1.94c0,2.18-1.74,2.63-4.52,2.63-1.54,0-1.88-.35-1.88-1.69,0-1.88.24-6,.24-10.13,0-3.23,0-6.46-.1-9.29,5.27,1.24,7,2,7.41,2.59Zm.75,13v-12H16.06a4.18,4.18,0,0,1-1,.55v11.42Z"/><path class="cls-1" d="M36.77,254.37c3.72-4.71,3.92-5,4.52-5s.84.15,3.77,2.93c1.79,1.69,2.19,2.18,2.19,2.53s-.25.55-.65.55H33.94c.05,10.77.24,16.19.24,17.23,0,1.44-1.44,2.09-4.22,2.09-2.18,0-2.63-.2-2.63-1.79,0-1.14.25-6.85.35-17.53H19.33c-.59,4.81-1.73,7.45-3.47,10-3.13,4.47-8.35,7.9-15.5,9.74-.3,0-.5-.35-.25-.5a21.75,21.75,0,0,0,11.23-12A27.37,27.37,0,0,0,13,255.37H8.46c-1.74,0-3.68.1-6.51.34L1.45,254c3.28.24,5.27.34,7,.34h4.62c.29-3,.39-6.65.39-11.37v-1.44h-4c-1.74,0-3.68.1-6.51.35l-.49-1.69c3.27.25,5.26.35,7,.35h4c0-9.39-.1-11-.3-12.37,7.75.74,8.4,1.19,8.4,1.94,0,.59-.5,1.09-1.69,1.73v8.7h7.85c0-8.84-.1-10.28-.3-12.52,7.7.7,8.29,1.24,8.29,1.94s-.34.94-1.83,1.74v8.84h1.69c3.37-4.28,3.57-4.52,4-4.52s.84.15,3.23,2.43C44.51,240.07,45,240.62,45,241s-.25.55-.64.55H33.89v12.81Zm-9.09,0c.05-2.23.05-4.66.05-7.35v-5.46H19.88v1.49a113.14,113.14,0,0,1-.45,11.32Z"/><path class="cls-1" d="M13.82,328.18a8.26,8.26,0,0,0,3.87,3c1.69.59,4.77.74,9.79.74a181.5,181.5,0,0,0,20.66-1.24c.3,0,.4.35.15.55a6.93,6.93,0,0,0-2.93,4.57c-.15,1.14-.5,1.69-1.54,1.73-1.29.15-3.53.25-10.93.25-11.32,0-13.76-.64-16.29-2.73A10.73,10.73,0,0,1,13,329.32a65.16,65.16,0,0,1-7,6.95c-.54,1.34-.89,1.74-1.44,1.74s-1.34-.79-4.12-6.8a25.83,25.83,0,0,0,3-.9,39.08,39.08,0,0,0,4.32-1.88v-14H5.67a22.61,22.61,0,0,0-4.42.35l-.44-1.69a29.55,29.55,0,0,0,4.86.35H7.21c2.49-2.93,2.74-3.23,3.23-3.23s.85.1,2.54,1.59c2.23,1.93,2.43,2.18,2.43,2.83,0,.4-.25.69-1.59,1.74ZM4.58,294c6.26.69,9.19,3.62,9.19,6.8A3.41,3.41,0,0,1,10,304.49c-2,0-2.79-1.3-2.93-3.73-.15-2-.7-4.67-2.88-6.31C3.94,294.25,4.28,293.91,4.58,294Zm22.3,8.49H22.46a26.31,26.31,0,0,1-6.65,7.65c-.25.15-.5-.05-.35-.3,1.44-2.48,2.78-6.8,3.28-12.42a32.16,32.16,0,0,0,.2-3.62c6.35,1.64,7.15,2,7.15,2.68s-.25.75-1.49,1.29A24.28,24.28,0,0,1,23,301.46h3.87v-1.25a75.45,75.45,0,0,0-.2-7.64c7.31.74,8,1.24,8,1.83s-.2.8-1.79,1.49v5.57h3.38c2.88-3.88,3-4,3.48-4s.64.05,3,2.44c1.54,1.54,1.64,1.69,1.64,2s-.15.55-.5.55h-11v8.39h5.52c2.88-3.82,3.13-4,3.57-4s.85.2,2.88,2.09c1.69,1.59,1.94,1.93,1.94,2.33s-.2.6-.5.6H19.58a31.9,31.9,0,0,0-5,.34l-.45-1.68a52.56,52.56,0,0,0,5.46.34h7.3Zm8.75,13.91c1.93-2.49,2.28-2.69,2.78-2.69s.79.1,3.27,2.09c1.64,1.34,1.84,1.64,1.84,2.09s-.1.69-1.39,2V321c0,2.68.2,5.91.2,6.5,0,1.39-1,2.29-3.83,2.29-1.88,0-2.33-.4-2.33-1.74v-1.09H23.9v1.39c0,1.39-1.19,2-3.77,2-1.79,0-2-.44-2-1.79,0-.64.25-5.56.25-7.49,0-2.24,0-5.42-.05-7.06,4.52,1.29,6.11,1.84,6.61,2.34Zm.54,9.58v-8.59H24.8a5.37,5.37,0,0,1-.9.75v7.84Z"/><path class="cls-1" d="M10.59,384.15A44.36,44.36,0,0,1,.41,390.61c-.3.1-.55-.25-.3-.45,3.43-2.78,8-8.44,12-16.34a19.33,19.33,0,0,0,1.24-3c6.61,3.43,7.4,3.87,7.4,4.62,0,.6-.54.94-2.33,1.24-.89,1.09-2,2.29-3.23,3.53,2.34.89,2.63,1.24,2.63,1.59s-.24.74-1.44,1.39v4.52c0,10.28.1,12.61.1,13.56,0,1.34-1.09,2.28-3.77,2.28-2.24,0-2.53-.3-2.53-1.64,0-1,.19-3.77.29-9.58Zm27.32-19.82c3.33-4,3.48-4.12,4-4.12s.75.1,3.18,2.29c1.84,1.63,2,1.83,2,2.28a.48.48,0,0,1-.55.55H33.94c.1,1.49.19,2.53.19,3.18,0,1.58-1.54,2.23-4.27,2.23-1.69,0-2.23-.4-2.23-1.59v-3.82h-8.4c0,1.29.05,2.28.05,2.93,0,1.59-1.49,2.23-4,2.23-1.69,0-2.23-.4-2.23-1.29,0-.6.09-2,.09-3.87H9.25a70.35,70.35,0,0,0-7.6.34L1.21,364a80.11,80.11,0,0,0,8,.34h4v-1.19a34.14,34.14,0,0,0-.24-5.26c7.25.39,8.09.79,8.09,1.64,0,.64-.59,1.14-1.89,1.59v3.22h8.45v-1.19a40.51,40.51,0,0,0-.2-5.26c7.7.34,8.34.79,8.34,1.64,0,.44-.59,1.14-1.88,1.59v1.24c0,.74,0,1.39,0,2Zm-8.29,30.45c0,1.34.49,1.74,4.66,1.74,4.82,0,6.16-.6,7.31-1.69s2.08-2.58,3.82-6.85c.1-.3.4-.15.4.14-.2,2.84-.35,4.33-.35,5.77s0,1.83.59,2.53a3,3,0,0,1,.7,2.18c0,2.09-2.88,3.53-12.27,3.53-9.24,0-11-.84-11-5.46,0-.75.15-4.22.15-13.91,0-7.65,0-8.89-.25-11.13,7.55.85,7.94,1.1,7.94,1.94,0,.45-.49.85-1.73,1.54v9a88,88,0,0,0,7.45-8.24c.64-.85,1.14-1.54,1.73-2.49,6.16,4.87,6.41,5.27,6.41,6.06s-.5,1.09-2.93.95c-3.87,1.93-8.84,4.17-12.66,5.71Z"/><path class="cls-1" d="M36.57,429.3c3.57-4.18,3.72-4.32,4.22-4.32s.75.09,3.38,2.58c1.69,1.59,1.79,1.79,1.79,2.23s-.15.5-.55.5H13.17a3.64,3.64,0,0,1-.94.6v8.64c0,10.68-1.29,15.44-3.43,19.67a28.39,28.39,0,0,1-7.69,9.18c-.25.2-.6-.19-.4-.39,1.34-1.49,2.78-4.27,3.92-8.25,1.19-4.22,1.74-8.84,1.74-18.67,0-6.81-.15-10.13-.5-14.11,5.91,1.39,7.26,1.79,7.55,2.34H22v-1.74a33.15,33.15,0,0,0-.3-5.37c8,.5,8.89,1.05,8.89,1.79s-.25.85-2,1.64v3.68Zm-1,12c3.37-4.42,3.47-4.47,4-4.47s.79.1,3.28,2.43c1.73,1.64,2,2.09,2,2.48s-.15.55-.79.55H29.67v9.34h5.26c2.48-2.88,2.68-3,3.23-3s.84.1,3.28,2c2,1.54,2.23,1.89,2.23,2.39s-.15.74-1.54,1.84v2.58c0,2.78.25,4.82.25,7.7,0,1.49-1.79,2.33-4.47,2.33-1.79,0-2.24-.25-2.24-1.89v-1.44h-16v1.54c0,1.54-1.24,2.39-4.37,2.39-1.64,0-2-.25-2-1.94,0-.79.3-5.81.3-8.84,0-3.38,0-5.46-.15-7.9,5,1.19,6.46,1.64,6.86,2.24h3V440.22c0-3.72-.1-6.65-.25-8.74,7.9.8,8.34,1.29,8.34,1.89s-.44,1-1.73,1.64v6.26Zm.09,21.85V452.59H20.23a2.2,2.2,0,0,1-.6.55v10Z"/><ellipse class="cls-2" cx="41.87" cy="25.95" rx="10.59" ry="30.16" transform="translate(11.79 64.96) rotate(-84.15)"/><ellipse class="cls-3" cx="44.41" cy="48.85" rx="23.28" ry="8.86" transform="translate(-10.47 12.15) rotate(-13.96)"/><ellipse class="cls-4" cx="60.59" cy="65.79" rx="14.99" ry="10.19" transform="translate(-27.57 50.73) rotate(-37.66)"/><path class="cls-5" d="M78.52,62.69S52.36,54.33,39.34,26c0,0-4.68-10.26-4.68-18.08,0,0-.3-7.87,6.16-7.87,0,0,5.8-.24,5.86,7.22,0,0-.18,15.16,6.57,25.63,0,0,6,9.95,14.91,16.75a19.92,19.92,0,0,1-6.09-2.78s-1.35-1.18-2.17-.29c0,0-1,.82.69,2.72C60.59,49.25,65.62,55.46,78.52,62.69Z"/></g></g></svg>