<svg xmlns="http://www.w3.org/2000/svg" viewBox="0 0 94.32 110.34"><defs><style>.cls-1{fill:#1eaa39;}.cls-2{fill:#ffe100;}.cls-3{fill:#ee87b4;}.cls-4{fill:#ea6000;}</style></defs><g id="レイヤー_2" data-name="レイヤー 2"><g id="レイヤー_2-2" data-name="レイヤー 2"><ellipse class="cls-1" cx="42.47" cy="36.71" rx="14.99" ry="42.66" transform="translate(1.62 75.22) rotate(-84.15)"/><ellipse class="cls-2" cx="46.06" cy="69.11" rx="32.93" ry="12.53" transform="translate(-15.31 13.15) rotate(-13.96)"/><ellipse class="cls-3" cx="68.95" cy="93.07" rx="21.21" ry="14.42" transform="translate(-42.5 61.52) rotate(-37.66)"/><path class="cls-4" d="M94.32,88.68s-37-11.82-55.44-52c0,0-6.61-14.52-6.61-25.57,0,0-.42-11.14,8.7-11.14,0,0,8.21-.33,8.29,10.22,0,0-.25,21.44,9.3,36.26,0,0,8.46,14.07,21.1,23.7A28.68,28.68,0,0,1,71,66.24s-1.9-1.68-3.07-.42c0,0-1.37,1.17,1,3.85C69,69.67,76.06,78.47,94.32,88.68Z"/></g></g></svg>