<svg xmlns="http://www.w3.org/2000/svg" viewBox="0 0 1378 270"><defs><style>.cls-1,.cls-29{fill:#996580;}.cls-2{fill:#fff;}.cls-14,.cls-21,.cls-3,.cls-5,.cls-6{font-size:16px;}.cls-14,.cls-21,.cls-3,.cls-4,.cls-5,.cls-6{fill:#091911;}.cls-3{font-family:YuMin-Medium-83pv-RKSJ-H, YuMincho;}.cls-3,.cls-5,.cls-9{letter-spacing:0.2em;}.cls-14,.cls-21,.cls-29,.cls-5,.cls-6{font-family:YuMin-Demibold-83pv-RKSJ-H, YuMincho;}.cls-11,.cls-6{letter-spacing:-0.3em;}.cls-7{letter-spacing:0.2em;}.cls-8{letter-spacing:-0.05em;}.cls-10{letter-spacing:-0.3em;}.cls-12{letter-spacing:0.04em;}.cls-13{letter-spacing:0.06em;}.cls-14{letter-spacing:0.21em;}.cls-15{letter-spacing:-0.05em;}.cls-16{letter-spacing:-0.13em;}.cls-17{letter-spacing:-0.04em;}.cls-18{letter-spacing:0em;}.cls-19{letter-spacing:-0.03em;}.cls-20{letter-spacing:0.01em;}.cls-21{letter-spacing:-0.01em;}.cls-22{letter-spacing:0.02em;}.cls-23{letter-spacing:0.01em;}.cls-24{letter-spacing:0em;}.cls-25{letter-spacing:0.14em;}.cls-26{letter-spacing:-0.19em;}.cls-27{letter-spacing:0.18em;}.cls-28{letter-spacing:0.21em;}.cls-29{font-size:24px;letter-spacing:0.04em;}.cls-30{letter-spacing:-0.03em;}.cls-31{letter-spacing:0.06em;}.cls-32{letter-spacing:0.13em;}.cls-33{letter-spacing:0.12em;}.cls-34{letter-spacing:0.05em;}.cls-35{letter-spacing:0.08em;}.cls-36{letter-spacing:-0.03em;}.cls-37{letter-spacing:0.03em;}.cls-38{letter-spacing:0.15em;}.cls-39{fill:none;stroke:#996580;stroke-miterlimit:10;}</style></defs><g id="レイヤー_2" data-name="レイヤー 2"><g id="レイヤー_4" data-name="レイヤー 4"><rect class="cls-1" width="1378" height="270" rx="5"/><rect class="cls-2" x="5" y="5" width="1368" height="260" rx="5"/><text class="cls-3" transform="translate(90.92 106.72)">祭壇</text><rect class="cls-4" x="63.47" y="98.02" width="9.19" height="9.19" transform="translate(-52.63 78.18) rotate(-45)"/><rect class="cls-4" x="63.82" y="136.49" width="8.49" height="8.49" transform="translate(-79.58 89.35) rotate(-45)"/><rect class="cls-4" x="63.82" y="174.11" width="8.49" height="8.49" transform="translate(-106.18 100.37) rotate(-45)"/><text class="cls-5" transform="translate(90.92 181.82)">白木位牌</text><rect class="cls-4" x="63.82" y="211.73" width="8.49" height="8.49" transform="translate(-132.78 111.38) rotate(-45)"/><text class="cls-6" transform="translate(90.92 143.92)">棺<tspan class="cls-7" x="11.2" y="0">（仏</tspan><tspan class="cls-8" x="49.6" y="0">衣・枕・</tspan><tspan class="cls-9" x="110.4" y="0">布団</tspan><tspan x="148.8" y="0">）</tspan></text><text class="cls-5" transform="translate(90.92 219.72)">受付用品</text><text class="cls-5" transform="translate(379.03 143.92)">収骨用<tspan class="cls-10" x="57.6" y="0">品</tspan><tspan x="68.8" y="0">（骨箱</tspan><tspan class="cls-11" x="126.4" y="0">、</tspan><tspan class="cls-7" x="137.6" y="0">風呂敷</tspan><tspan class="cls-10" x="195.2" y="0">）</tspan></text><text class="cls-5" transform="translate(379.03 181.82)">塔婆</text><text class="cls-5" transform="translate(379.03 106.72)">枕<tspan class="cls-12" x="19.2" y="0">飾</tspan><tspan class="cls-13" x="35.89" y="0">り</tspan><tspan class="cls-7" x="52.91" y="0">仏具一式</tspan></text><rect class="cls-4" x="351.58" y="98.02" width="9.19" height="9.19" transform="translate(31.76 281.91) rotate(-45)"/><rect class="cls-4" x="351.58" y="136.14" width="9.19" height="9.19" transform="translate(4.81 293.07) rotate(-45)"/><rect class="cls-4" x="351.58" y="173.76" width="9.19" height="9.19" transform="translate(-21.79 304.09) rotate(-45)"/><rect class="cls-4" x="351.58" y="211.37" width="9.19" height="9.19" transform="translate(-48.39 315.11) rotate(-45)"/><text class="cls-5" transform="translate(379.03 219.72)">式場看板</text><text class="cls-14" transform="translate(715.14 106.72)">お<tspan class="cls-7" x="19.41" y="0">線</tspan><tspan class="cls-15" x="38.61" y="0">香</tspan><tspan class="cls-16" x="53.81" y="0">・</tspan><tspan class="cls-17" x="67.66" y="0">ろ</tspan><tspan class="cls-18" x="83.09" y="0">う</tspan><tspan class="cls-19" x="99.04" y="0">そ</tspan><tspan class="cls-20" x="114.59" y="0">く</tspan></text><text class="cls-5" transform="translate(715.54 143.92)">納棺処置</text><text class="cls-21" transform="translate(712.3 181.82)">ド<tspan class="cls-22" x="15.76" y="0">ラ</tspan><tspan class="cls-23" x="32.02" y="0">イ</tspan><tspan class="cls-24" x="48.11" y="0">ア</tspan><tspan class="cls-22" x="64.05" y="0">イ</tspan><tspan class="cls-25" x="80.31" y="0">ス</tspan></text><rect class="cls-4" x="686.08" y="98.02" width="9.19" height="9.19" transform="translate(129.73 518.44) rotate(-45)"/><rect class="cls-4" x="686.08" y="136.14" width="9.19" height="9.19" transform="translate(102.78 529.61) rotate(-45)"/><rect class="cls-4" x="686.08" y="173.76" width="9.19" height="9.19" transform="translate(76.18 540.62) rotate(-45)"/><rect class="cls-4" x="686.08" y="211.37" width="9.19" height="9.19" transform="translate(49.58 551.64) rotate(-45)"/><text class="cls-5" transform="translate(715.54 219.72)">司会進行</text><rect class="cls-4" x="946.47" y="98.02" width="9.19" height="9.19" transform="translate(206 702.56) rotate(-45)"/><text class="cls-5" transform="translate(976.92 106.72)">枕<tspan class="cls-12" x="19.2" y="0">飾</tspan><tspan class="cls-26" x="35.89" y="0">り</tspan><tspan class="cls-8" x="48.91" y="0">・</tspan><tspan x="64.11" y="0">会場用御供</tspan><tspan class="cls-11" x="160.11" y="0">物</tspan><tspan class="cls-27" x="171.31" y="0">（</tspan><tspan class="cls-28" x="190.11" y="0">お</tspan><tspan x="209.52" y="0">菓</tspan><tspan class="cls-8" x="228.72" y="0">子・</tspan><tspan x="259.12" y="0">果</tspan><tspan class="cls-8" x="278.32" y="0">物・</tspan><tspan class="cls-7" x="308.72" y="0">花束</tspan><tspan class="cls-11" x="347.12" y="0">）</tspan></text><rect class="cls-4" x="946.47" y="136.14" width="9.19" height="9.19" transform="translate(179.05 713.72) rotate(-45)"/><rect class="cls-4" x="946.47" y="173.76" width="9.19" height="9.19" transform="translate(152.45 724.74) rotate(-45)"/><text class="cls-5" transform="translate(976.92 143.92)">遺影写真</text><text class="cls-5" transform="translate(976.92 181.82)">火葬用霊柩車</text><text class="cls-5" transform="translate(976.92 219.72)">参列者用椅<tspan class="cls-15" x="96" y="0">子・</tspan><tspan x="126.4" y="0">座布団</tspan></text><rect class="cls-4" x="946.47" y="211.37" width="9.19" height="9.19" transform="translate(125.85 735.76) rotate(-45)"/><text class="cls-29" transform="translate(34.78 51.53)">プ<tspan class="cls-30" x="25.06" y="0">ラ</tspan><tspan class="cls-31" x="48.41" y="0">ン</tspan><tspan class="cls-32" x="73.9" y="0">に</tspan><tspan class="cls-33" x="100.94" y="0">含</tspan><tspan class="cls-34" x="127.87" y="0">ま</tspan><tspan class="cls-35" x="153.12" y="0">れ</tspan><tspan class="cls-36" x="179.11" y="0">る</tspan><tspan class="cls-37" x="202.49" y="0">も</tspan><tspan class="cls-38" x="227.14" y="0">の</tspan></text><line class="cls-39" x1="30.5" y1="61" x2="302.5" y2="61"/></g></g></svg>