<svg xmlns="http://www.w3.org/2000/svg" viewBox="0 0 1378 190"><defs><style>.cls-1,.cls-4{fill:#a67d65;}.cls-2{fill:#fff;}.cls-3{fill:#091911;}.cls-4{stroke:#cc7a49;stroke-miterlimit:10;}</style></defs><g id="レイヤー_2" data-name="レイヤー 2"><g id="レイヤー_4" data-name="レイヤー 4"><rect class="cls-1" width="1378" height="190" rx="5"/><rect class="cls-2" x="5" y="5" width="1368" height="180" rx="5"/><rect class="cls-3" x="996.32" y="98.79" width="8.49" height="8.49" transform="translate(220.2 737.68) rotate(-45)"/><path class="cls-3" d="M1024,100.52c-.08,0-.18-.13-.12-.17a16.53,16.53,0,0,0,5.13-5.21,13,13,0,0,0,1.12-2.43c2.25.61,2.27.63,2.27.82s-.13.22-.71.38a10.85,10.85,0,0,0,7.43,4.69c.08,0,.08.21,0,.21-.51,0-.86.45-1.1,1.31-.07.23-.15.31-.28.31a2.46,2.46,0,0,1-.75-.32,14.37,14.37,0,0,1-2.27-1.6,13.75,13.75,0,0,1-3.23-4.29A14.05,14.05,0,0,1,1024,100.52Zm7,1.46a18.4,18.4,0,0,1-2.53,3.55c2,0,4-.09,6-.21a6.65,6.65,0,0,0-1.57-2.06c-.06-.05,0-.19.1-.16,2.3.85,3.66,2,3.66,3.14a1,1,0,0,1-.88,1.09c-.46,0-.56-.12-1-1.16l-.17-.45a56.83,56.83,0,0,1-8.25,1.35c-.11.48-.19.61-.38.61s-.26,0-.85-2.23a17.55,17.55,0,0,0,2.07.08h.59a19.08,19.08,0,0,0,1.06-3.55h-2.81a7.1,7.1,0,0,0-1.12.1l-.17-.6a6.46,6.46,0,0,0,1.29.13h9.48c.77-1,1-1.09,1.07-1.09s.32.13,1.09.75c.35.29.48.44.48.55s0,.16-.21.16Zm1.1-3.09c.71-.88.9-1,1-1s.31.13,1,.71c.31.25.44.4.44.51s0,.16-.21.16h-5.52a6,6,0,0,0-1,.09l-.17-.59a5.12,5.12,0,0,0,1.15.13Z"/><path class="cls-3" d="M1048.94,98.28c.42-.46.54-.56.67-.56s.27.1.85.59c.24.23.34.36.34.48s-.16.29-.53.39a9.55,9.55,0,0,1-7,3.82c-.08,0-.14-.19-.06-.22a12.31,12.31,0,0,0,3.62-1.84h-.15c-.27,0-.38-.11-.51-.52a1.48,1.48,0,0,0-.53-.84,13.28,13.28,0,0,1-2.3,1.16c-.08,0-.19-.16-.13-.21a11.42,11.42,0,0,0,2.79-2.69,3.69,3.69,0,0,0,.51-1H1045a6.55,6.55,0,0,0-1.08.1l-.18-.59a7.21,7.21,0,0,0,1.3.12h10c.75-.83,1-1,1.06-1s.32.13,1,.68c.31.25.43.38.43.49s0,.16-.2.16h-10.47c1.21.34,1.41.45,1.41.63s-.15.25-.58.29c-.14.17-.31.33-.45.49Zm4.26-3.55c0,.37,0,.62,0,.73,0,.37-.27.53-.86.53-.4,0-.58-.13-.58-.43,0-.11,0-.37,0-.83H1049c0,.38,0,.65,0,.78,0,.34-.27.51-.8.51s-.65-.14-.65-.46c0-.11,0-.37,0-.83h-2.87a7.56,7.56,0,0,0-1.07.09l-.17-.59a6.3,6.3,0,0,0,1.28.13h2.83V94a8.27,8.27,0,0,0,0-1.18c1.81.16,2,.2,2,.43s-.15.27-.53.38v.77h2.8V94.1c0-.56,0-.8-.06-1.34,1.53.14,2,.22,2,.45s-.13.25-.48.4v.75h2c.8-.91,1-1,1.11-1s.32.13,1.08.74c.34.27.47.4.47.51s-.05.16-.21.16Zm-4,9.17a3.54,3.54,0,0,1-1.13,2.26,7.56,7.56,0,0,1-4.34,1.52c-.08,0-.18-.21-.1-.24,2-.71,2.87-1.24,3.57-2.34a3.21,3.21,0,0,0,.45-1.2h-2.82a6.55,6.55,0,0,0-1.08.1l-.18-.6a6.36,6.36,0,0,0,1.28.13h2.83a6.1,6.1,0,0,0,0-.64c0-.29,0-.46,0-.86,1.92.25,2.07.32,2.07.53s-.16.28-.51.43v.54h2.49c0-.4,0-.78-.08-1.37,1.52.14,2,.25,2,.48s-.12.25-.44.38v.51h2.06c.79-.85,1-1,1.09-1s.34.12,1.06.67c.33.27.46.4.46.51s0,.16-.21.16h-4.46c0,1.54.08,2.61.08,3s-.29.64-.93.64-.67-.18-.67-.58,0-1.18,0-3v-.08Zm-2.32-5.25c-.32.29-.65.56-1,.82,1,.08,1.47.35,1.47.84a.64.64,0,0,1-.07.31,7.64,7.64,0,0,0,1.68-2Zm5.85.59a12.46,12.46,0,0,0,1.82-1.09,4.62,4.62,0,0,0,.93-.83c1.07.75,1.39,1,1.39,1.17s-.14.27-.77.21a13.78,13.78,0,0,1-3.37,1v.61c0,.48.16.52,1.56.52,1.06,0,1.48,0,1.8-.24a3.85,3.85,0,0,0,.88-1.37c0-.08.16-.07.16,0,0,.32-.1.79-.1,1s0,.2.19.28a.67.67,0,0,1,.4.56c0,.34-.22.56-.73.72a9.22,9.22,0,0,1-2.55.23c-2.48,0-2.94-.27-2.94-1.59,0-.14,0-.3,0-.91,0-.8,0-1.6-.08-2.42,1.7.18,1.88.23,1.88.49s0,.17-.48.38Z"/><path class="cls-3" d="M1065.26,101a12.23,12.23,0,0,1-2.82,1.48c-.08,0-.19-.15-.13-.2a14.61,14.61,0,0,0,5.11-5.77h-3.62a4.43,4.43,0,0,0-1,.12l-.17-.62a5.49,5.49,0,0,0,1.18.13h1.38V94.26a11.15,11.15,0,0,0-.1-1.39c1.84.19,2.05.37,2.05.55s-.17.28-.51.44v2.23h.78c.47-.53.6-.63.72-.63s.28.1.82.66c.24.26.34.38.34.51s-.1.24-.5.4a12.54,12.54,0,0,1-2.11,2.76c1.77.32,2.83,1,2.83,1.92a.76.76,0,0,1-.75.8c-.35,0-.51-.13-.75-.68a4.06,4.06,0,0,0-1.33-1.71v2c0,1.83.06,4.1.06,4.85,0,.45-.32.66-.85.66s-.7-.16-.7-.59.08-1.41.08-3.56Zm6.69,4c0,.82,0,.85,1.84.85a2.35,2.35,0,0,0,1.22-.19c.46-.31.67-1.06,1.21-3,0-.08.23,0,.23,0,0,.73-.13,1.82-.13,2.2s0,.45.34.6.43.3.43.56c0,.44-.32.75-1,.94a11.36,11.36,0,0,1-2.75.26c-2.39,0-2.95-.32-2.95-1.76,0-1,0-2.55,0-8,0-2.08,0-3.2-.1-4.48,1.7.14,2.21.27,2.21.54s-.13.29-.56.47Z"/><path class="cls-3" d="M1086.16,96c0,5.77,0,9.74,0,11.06,0,.41-.34.61-.92.61s-.71-.16-.71-.57c0-.75,0-2.46.08-5.41a14.88,14.88,0,0,1-1.77,1.56c0,.48-.11.72-.36.72s-.42-.43-.93-1.91a12,12,0,0,0,1.23-.3,14.94,14.94,0,0,0,1.83-.71c0-1.63,0-3.61,0-6a17.55,17.55,0,0,0-.08-2.18c2.05.23,2.13.24,2.13.5s-.15.25-.56.43Zm-2.9,3.12c-.47,0-.59-.27-.67-1.17a5.48,5.48,0,0,0-.63-2.07c0-.08.08-.17.15-.12,1.34.8,2,1.53,2,2.45A.83.83,0,0,1,1083.26,99.1Zm8.26-.64a9.24,9.24,0,0,0,2,4.61,7.46,7.46,0,0,0,3,2.33c.08,0,.06.12,0,.16a2,2,0,0,0-1,1.32c-.06.25-.16.32-.27.32s-.33-.15-.59-.39a12.49,12.49,0,0,1-2-2.57,13.16,13.16,0,0,1-1.39-5c-.08.74-.18,1.38-.3,2-.68,2.92-2.28,5-4.53,6-.08,0-.18-.12-.12-.16a8.4,8.4,0,0,0,2.68-3.92,19.57,19.57,0,0,0,.83-4.66h-2.35a4.44,4.44,0,0,0-.82.09l-.18-.59a3.57,3.57,0,0,0,1,.13h2.43c0-.78.07-1.62.07-2.55s0-1.5-.1-2.48c2.13.31,2.13.31,2.13.53s-.11.27-.51.45v.69c0,1.31,0,2.41-.1,3.36h2.38c.76-1,1-1.09,1.06-1.09s.31.13,1,.77c.31.27.44.42.44.53s0,.16-.21.16Zm2.53-1.67c-.34,0-.52-.17-.71-.78a4.35,4.35,0,0,0-1-1.7c0-.06,0-.17.11-.16,1.68.45,2.43,1,2.43,1.79A.81.81,0,0,1,1094.05,96.79Z"/><path class="cls-3" d="M101,137.16a3.62,3.62,0,0,1,2.07.58,2.55,2.55,0,0,1,1.24,2.14,2.35,2.35,0,0,1-1,2,3.19,3.19,0,0,1-2,.62,3.35,3.35,0,0,1-2.83-1.42,3.08,3.08,0,0,1-.49-.84.1.1,0,0,1,.1-.08.24.24,0,0,1,.21.12,3.41,3.41,0,0,0,2.5,1.13,2.34,2.34,0,0,0,1.56-.53,1.86,1.86,0,0,0,.47-1.4A1.63,1.63,0,0,0,102,138a2.42,2.42,0,0,0-1.28-.3,5.06,5.06,0,0,0-2.34.76c-.38.21-.72.42-1,.61,0,.95.07,1.52.1,2.1,0,.29,0,.48,0,.78a3,3,0,0,1-.13,1c-.22.57-.49.75-.78.75s-.45-.14-.55-.53c-.2-.86-.56-1.21-1.44-2a5.84,5.84,0,0,0-.73.69.82.82,0,0,1-.64.3,1.43,1.43,0,0,1-.71-.24,1.34,1.34,0,0,1-.7-1.06.93.93,0,0,1,.43-.83c.06,0,.1,0,.13.13a1.25,1.25,0,0,0,.17.38c.07.07.12.09.28.07a8.32,8.32,0,0,0,1.66-.79c.56-.32,1.3-.76,1.83-1.08,0-1.16,0-2.21,0-3.06a13.08,13.08,0,0,1-1.73.21,1.9,1.9,0,0,1-1.5-.88,1.46,1.46,0,0,1-.35-.79c0-.13,0-.21.11-.21s.18.12.31.28a1.53,1.53,0,0,0,1.21.57,8.86,8.86,0,0,0,2-.27V132.9a2.45,2.45,0,0,0-.06-.77c0-.25-.13-.32-.29-.36a1.22,1.22,0,0,0-.42-.08c-.24,0-.37-.05-.37-.13a.54.54,0,0,1,.26-.39,1.62,1.62,0,0,1,.7-.25,2,2,0,0,1,1.14.41c.46.34.69.66.69.88a.7.7,0,0,1-.15.44,1.51,1.51,0,0,0-.24.32,3.75,3.75,0,0,0-.17,1.28,4.06,4.06,0,0,0,1.1-.66,1.26,1.26,0,0,1,.77-.27c.66,0,1,.25,1,.53s0,.38-.43.64a10.79,10.79,0,0,1-1.06.51,14,14,0,0,1-1.41.45c0,.73,0,2,0,2.81A7.63,7.63,0,0,1,101,137.16ZM94.85,141l.79.44a1.49,1.49,0,0,0,.53.17c.09,0,.16-.06.16-.22,0-.47,0-1.06,0-1.57C95.83,140.14,95.26,140.58,94.85,141Zm6.39-6.86a2.52,2.52,0,0,1,1.59-.53,3.33,3.33,0,0,1,2.13.77,2.14,2.14,0,0,1,.76,1.63c0,.46-.24.74-.6.74a.84.84,0,0,1-.48-.15.73.73,0,0,0-.48-.21,4.71,4.71,0,0,0-.5,0,3.62,3.62,0,0,0-.61.11,2.3,2.3,0,0,1-.38.08s-.13,0-.13-.08.06-.11.21-.21.81-.53,1-.75a.3.3,0,0,0,.12-.21.34.34,0,0,0-.07-.22,1.93,1.93,0,0,0-1.7-.87,2.43,2.43,0,0,0-.67.1,1.68,1.68,0,0,1-.25.08c-.07,0-.12,0-.12-.08A.26.26,0,0,1,101.24,134.09Z"/><path class="cls-3" d="M114.79,137.58c0,1.92,0,5.55,0,6.54,0,.47-.3.64-.9.64-.43,0-.62-.13-.62-.51,0-.62.16-3.33.19-5.63a11.47,11.47,0,0,1-3,3.52c-.07.05-.18-.07-.13-.13a18.7,18.7,0,0,0,2.91-6.07h-1.44a6.26,6.26,0,0,0-1,.1l-.17-.59a5,5,0,0,0,1.07.12h1.63v-3.36c0-.91,0-1.42-.06-2.16,1.77.26,1.92.29,1.92.53s-.13.24-.5.42v4.57h.77c.5-.68.69-.81.8-.81s.3.13.83.57c.23.2.35.34.35.45s0,.16-.2.16h-2.55v1.19c1.46.37,2.34,1,2.34,1.85a.77.77,0,0,1-.69.77c-.35,0-.59-.08-.78-.75a3.71,3.71,0,0,0-.87-1.47Zm-2.48-2.74c-.4,0-.51-.18-.62-1.11a6.08,6.08,0,0,0-.61-2.28c0-.07.06-.16.13-.12,1.2.9,1.77,1.75,1.77,2.56C113,134.42,112.71,134.84,112.31,134.84Zm4.87-2.37a12,12,0,0,1-1.83,2.4c0,.06-.19,0-.16-.08a21.8,21.8,0,0,0,.69-2.27,10,10,0,0,0,.22-1.27c1.36.53,1.68.71,1.68.88S117.61,132.42,117.18,132.47Zm6.3,6.72c.48-.94.61-1.09.74-1.09s.32.1,1,.5c.29.18.38.27.38.4s-.06.16-.17.19l-2,.39c0,2.35.06,3.77.06,4.46,0,.48-.29.69-.92.69s-.69-.16-.69-.56c0-.74,0-2.1,0-4.31l-3.9.74a6.93,6.93,0,0,0-1.12.34l-.31-.58a6.36,6.36,0,0,0,1.28-.11l4-.75c0-1.64,0-3.7,0-6.26,0-1.46,0-2.08-.08-3,1.66.16,2.1.27,2.1.54s-.12.23-.53.44v2.56c0,2.19,0,4,0,5.45Zm-3.73-.86c-.35,0-.51-.13-.67-.56a3.6,3.6,0,0,0-1.36-1.81.09.09,0,0,1,.06-.15c1.86.18,2.74.69,2.74,1.61A.82.82,0,0,1,119.75,138.33Zm.5-3.8c-.37,0-.42-.06-.83-1a3.13,3.13,0,0,0-1.15-1.37.08.08,0,0,1,0-.15c1.8.16,2.76.74,2.76,1.65A.81.81,0,0,1,120.25,134.53Z"/><path class="cls-3" d="M133.1,139.78c.78-.27,1.55-.56,2.16-.81.08,0,.16.13.09.17A18.54,18.54,0,0,1,130.9,142c0,.51-.11.69-.33.69s-.44-.36-1.09-1.92c.37-.05.86-.17,1.42-.31.24-.06.5-.13.75-.21v-4.11H131a5,5,0,0,0-.88.09l-.18-.59a4.19,4.19,0,0,0,1,.13h.73V132h-.89a5,5,0,0,0-.88.09l-.18-.59a4,4,0,0,0,1,.13H133c.56-.74.75-.87.86-.87s.32.13.93.61c.26.21.38.36.38.47s0,.16-.2.16H133.1v3.79h.12c.45-.66.64-.78.76-.78s.3.12.8.56c.19.17.32.32.32.43s0,.16-.21.16H133.1Zm7.09.36h1.1c.83-.93,1-1.06,1.14-1.06s.32.13,1,.74c.32.27.45.41.45.52s-.05.16-.21.16h-3.53v3h1.72c.92-1,1.11-1.09,1.22-1.09s.32.13,1.09.77c.34.27.46.41.46.52s0,.16-.2.16h-9.56a7.22,7.22,0,0,0-1,.1l-.18-.59a6,6,0,0,0,1.17.13h3.88v-3h-2.34a6.73,6.73,0,0,0-1,.1l-.18-.59a5.68,5.68,0,0,0,1.14.13h2.39V137.5H136.9v.4c0,.4-.27.56-.91.56-.45,0-.64-.16-.64-.56s.1-1.69.1-4.6c0-1,0-1.47-.1-2.94a16.19,16.19,0,0,1,1.67.83h5c.53-.61.66-.71.79-.71s.3.1.94.61c.29.24.39.36.39.48s-.15.31-.58.56v.93c0,2.45.07,4.13.07,4.69s-.26.59-.92.59c-.41,0-.59-.14-.59-.51v-.33h-2Zm-1.44-6v-2.54H136.9v2.54Zm0,3v-2.66H136.9v2.66Zm3.42-3v-2.54h-2v2.54Zm0,3v-2.66h-2v2.66Z"/><path class="cls-3" d="M153.75,137.34a1.43,1.43,0,1,1-1.44-1.45A1.43,1.43,0,0,1,153.75,137.34Z"/><path class="cls-3" d="M169.61,137.16a3.56,3.56,0,0,1,2.06.58,2.56,2.56,0,0,1,1.25,2.14,2.35,2.35,0,0,1-1,2,3.19,3.19,0,0,1-2,.62A3.37,3.37,0,0,1,167,141.1a3.25,3.25,0,0,1-.48-.84.1.1,0,0,1,.1-.08.26.26,0,0,1,.21.12,3.41,3.41,0,0,0,2.49,1.13,2.35,2.35,0,0,0,1.57-.53,1.86,1.86,0,0,0,.47-1.4,1.63,1.63,0,0,0-.77-1.46,2.42,2.42,0,0,0-1.28-.3,5.06,5.06,0,0,0-2.34.76c-.38.21-.72.42-1,.61,0,.95.06,1.52.1,2.1,0,.29,0,.48,0,.78a3,3,0,0,1-.13,1c-.22.57-.5.75-.78.75s-.45-.14-.55-.53a3.69,3.69,0,0,0-1.44-2,6.22,6.22,0,0,0-.74.69.81.81,0,0,1-.64.3,1.4,1.4,0,0,1-.7-.24,1.34,1.34,0,0,1-.7-1.06.93.93,0,0,1,.43-.83c.06,0,.09,0,.13.13a1.25,1.25,0,0,0,.17.38c.07.07.11.09.27.07a8.08,8.08,0,0,0,1.67-.79c.56-.32,1.3-.76,1.82-1.08,0-1.16,0-2.21,0-3.06a13.28,13.28,0,0,1-1.73.21,1.9,1.9,0,0,1-1.5-.88,1.46,1.46,0,0,1-.35-.79c0-.13,0-.21.11-.21s.17.12.3.28a1.57,1.57,0,0,0,1.22.57,8.86,8.86,0,0,0,2-.27V132.9a2,2,0,0,0-.07-.77c0-.25-.12-.32-.28-.36a1.26,1.26,0,0,0-.42-.08c-.24,0-.37-.05-.37-.13a.54.54,0,0,1,.26-.39,1.62,1.62,0,0,1,.7-.25,2,2,0,0,1,1.14.41c.46.34.69.66.69.88a.7.7,0,0,1-.15.44,1.51,1.51,0,0,0-.24.32,3.75,3.75,0,0,0-.17,1.28,4.23,4.23,0,0,0,1.1-.66,1.26,1.26,0,0,1,.77-.27c.66,0,1,.25,1,.53s-.05.38-.43.64a10.79,10.79,0,0,1-1.06.51c-.38.14-.9.32-1.41.45,0,.73,0,2,0,2.81A7.63,7.63,0,0,1,169.61,137.16ZM163.46,141c.32.19.52.29.79.44a1.49,1.49,0,0,0,.53.17c.09,0,.16-.06.16-.22,0-.47,0-1.06,0-1.57C164.44,140.14,163.86,140.58,163.46,141Zm6.39-6.86a2.5,2.5,0,0,1,1.59-.53,3.28,3.28,0,0,1,2.12.77,2.12,2.12,0,0,1,.77,1.63c0,.46-.24.74-.61.74a.86.86,0,0,1-.48-.15.69.69,0,0,0-.48-.21,4.54,4.54,0,0,0-.49,0,3.46,3.46,0,0,0-.61.11,2.34,2.34,0,0,1-.39.08s-.12,0-.12-.08.06-.11.2-.21a11.7,11.7,0,0,0,1.06-.75.29.29,0,0,0,.11-.21.33.33,0,0,0-.06-.22,1.94,1.94,0,0,0-1.7-.87,2.43,2.43,0,0,0-.67.1,1.44,1.44,0,0,1-.26.08c-.06,0-.11,0-.11-.08A.26.26,0,0,1,169.85,134.09Z"/><path class="cls-3" d="M181.65,142.41a15.48,15.48,0,0,0,2.21-.54,4.22,4.22,0,0,0-.88-1.57c0-.07.05-.2.13-.16,1.41.56,2.29,1.39,2.29,2.21a.79.79,0,0,1-.77.81c-.33,0-.43-.09-.65-.88a20.7,20.7,0,0,1-3.62,1.78c-.1.41-.19.57-.39.57s-.27-.2-.78-1.87a8.32,8.32,0,0,0,1.1-.09V134.5c-.36.26-.76.51-1.18.77-.06,0-.19-.11-.13-.16a11.9,11.9,0,0,0,2.42-3.2,10.32,10.32,0,0,0,.72-1.81c1.33.43,1.79.64,1.79.83s-.14.23-.56.28c1.62.46,2.47,1,2.47,1.76a.73.73,0,0,1-.68.75c-.38,0-.43-.08-.86-.95a5,5,0,0,0-1.1-1.32,11.86,11.86,0,0,1-2.42,2.68,11.11,11.11,0,0,1,1,.52h.49v-.9c0-.19,0-.51,0-1,1.62.16,1.78.32,1.78.48s-.16.25-.47.35v1.06H184c.47-.5.6-.6.72-.6s.29.1.76.48c.2.2.3.31.3.44s-.05.19-.37.4V136c0,2,0,3.08,0,3.44s-.22.61-.8.61-.61-.13-.61-.54v-.21h-2.42Zm2.42-7.4h-2.42v1.75h2.42ZM181.65,139h2.42v-1.82h-2.42Zm7.21,1.55a7.55,7.55,0,0,1-4.71,4.13c-.08,0-.17-.14-.11-.19a8.67,8.67,0,0,0,3.55-4,12.51,12.51,0,0,0,.77-4.77,5.57,5.57,0,0,0-.06-.84c1.37.12,1.92.26,1.92.5s-.11.27-.48.4a8.74,8.74,0,0,0,1.15,4.59,7.51,7.51,0,0,0,3.43,2.76c.08,0,0,.14,0,.16-.54.08-.76.33-1,1.13,0,.2-.14.28-.26.28a1.38,1.38,0,0,1-.54-.37,8.3,8.3,0,0,1-2-2.87,11.39,11.39,0,0,1-.85-3.77A9,9,0,0,1,188.86,140.5ZM188.1,134a10.46,10.46,0,0,1-2.3,2.83c-.06.05-.22,0-.18-.11a14.6,14.6,0,0,0,1.77-4.26,12.37,12.37,0,0,0,.36-2.21c1.56.39,2,.56,2,.79s-.16.3-.56.37a15.37,15.37,0,0,1-.91,2.22h3.42c.58-.66.71-.75.84-.75s.27.09.92.72c.29.29.39.41.39.54s-.16.27-.45.31-.3.08-.54.38a14.75,14.75,0,0,1-1.59,1.49c-.06.05-.19,0-.16-.11a12.87,12.87,0,0,0,.74-2.21Z"/><path class="cls-3" d="M202.57,137.78c.65-.16,1.26-.35,1.79-.52.08,0,.13.12.07.17a15.71,15.71,0,0,1-1.85,1.14c0,2.75,0,4.66,0,5.49,0,.51-.22.72-.91.72-.5,0-.66-.16-.66-.55,0-.75,0-2.41.07-5q-.71.28-1.53.57c0,.42-.14.58-.33.58s-.39-.34-.8-1.92a7.6,7.6,0,0,0,1.44-.13l1.22-.22c0-1.7,0-2.79,0-3.89H200a9.78,9.78,0,0,1-1.56,3c0,.07-.21,0-.18-.05a20.54,20.54,0,0,0,.8-4c.08-.62.11-1.23.13-1.77,1.34.35,1.79.51,1.79.72s-.11.22-.5.33a11.17,11.17,0,0,1-.35,1.35h1v-1.46c0-1.44,0-1.71-.07-2.42,1.94.23,2.07.28,2.07.52s-.13.25-.56.44v2.92h.14c.47-.67.66-.8.77-.8s.29.13.77.57a.75.75,0,0,1,.3.44c0,.11-.05.16-.2.16h-1.78Zm5.79-4a9.9,9.9,0,0,1-5.31,6.75c-.08,0-.18-.11-.11-.16a12.41,12.41,0,0,0,3.9-6.59h-.93a10.42,10.42,0,0,1-2.37,2.85c-.06,0-.19-.07-.14-.13a13.9,13.9,0,0,0,1.81-4.16,10.75,10.75,0,0,0,.41-2.36c1.67.24,2.17.39,2.17.64s-.16.29-.61.4a15.7,15.7,0,0,1-1.06,2.39H211c.61-.67.74-.77.87-.77s.29.1.89.59c.28.23.37.34.37.47s0,.16-.49.49c-.2,5.4-.4,7.37-1,8.94a2.14,2.14,0,0,1-.76,1.07,2.24,2.24,0,0,1-1.31.4c-.27,0-.29,0-.37-.37-.14-.64-.64-1-1.77-1.3-.08,0-.07-.24,0-.24,1,.07,1.73.1,1.86.1.89,0,.89,0,1.17-1.23a44,44,0,0,0,.64-7.78h-.34c-.91,5-2.93,7.89-6.85,9.68-.08,0-.18-.14-.11-.19,3-2.15,4.74-5.12,5.46-9.49Z"/><path class="cls-3" d="M93.62,100.43a.52.52,0,0,1-.05.24,3.87,3.87,0,0,0-.27,1.47,1.65,1.65,0,0,0,.85,1.47,6.89,6.89,0,0,0,3.11.58,9.69,9.69,0,0,0,2.81-.34,5.36,5.36,0,0,1,1-.13c1,0,1.27.5,1.27.85s-.4.74-.95.83a13,13,0,0,1-1.65.21c-.78.07-1.56.08-2.06.08a8.72,8.72,0,0,1-3-.53A3.34,3.34,0,0,1,93.18,104a2.32,2.32,0,0,1-.49-1.61,3.75,3.75,0,0,1,.66-2c.07-.09.13-.14.19-.14S93.62,100.36,93.62,100.43Zm.19-5.13c.34.45,1,.68,2.52.68a8.43,8.43,0,0,0,2.7-.45,2.76,2.76,0,0,1,.6-.08,2.39,2.39,0,0,1,.65.08c.48.13.79.32.8.72s-.09.48-.43.61a5.54,5.54,0,0,1-1.06.14,13.53,13.53,0,0,0-2.37.43,10.06,10.06,0,0,0-2.08.88,2,2,0,0,1-.51.26c-.08,0-.11,0-.11-.1A8.22,8.22,0,0,1,96,97.18a3.38,3.38,0,0,1-1.75-.63,2.16,2.16,0,0,1-.75-1.23c0-.11,0-.16.13-.16S93.77,95.24,93.81,95.3Zm8.89-.48a1.21,1.21,0,0,1,.59,1,.54.54,0,0,1-.53.56.56.56,0,0,1-.54-.36,5.92,5.92,0,0,0-1-1.41c-.06-.07-.18-.15-.18-.21s0-.08.08-.1a1.13,1.13,0,0,1,.26,0A3.21,3.21,0,0,1,102.7,94.82Zm1.47-1.07a1,1,0,0,1,.58.82.54.54,0,0,1-.5.59.61.61,0,0,1-.59-.35,4.14,4.14,0,0,0-1.12-1.25c-.07,0-.19-.13-.19-.19a.11.11,0,0,1,0-.1.43.43,0,0,1,.26,0A3.21,3.21,0,0,1,104.17,93.75Z"/><path class="cls-3" d="M112.5,104a2.34,2.34,0,0,0,1.35,1.28,9.57,9.57,0,0,0,1.63-1.13,5.76,5.76,0,0,0,.71-.77c1.53.83,1.53.83,1.53,1s-.16.29-.78.24a7.43,7.43,0,0,1-2.53.8,15.23,15.23,0,0,0,3.29.28c1.4,0,2.34,0,3.74-.15a1.18,1.18,0,0,1-.49-.35,6.13,6.13,0,0,0-2.06-1.49c-.06,0-.06-.16,0-.16,2.49.1,3.39.43,3.39,1.22a.84.84,0,0,1-.45.75l2.13-.22c.08,0,.06.12,0,.16-.45.25-.58.46-.66,1.21,0,.19-.11.26-.45.29-.84.1-2.6.13-3.87.13-2.73,0-4.35-.21-5.38-.87a4,4,0,0,1-1.57-2.32,17.06,17.06,0,0,1-1.69,2.39c0,.62-.07.75-.27.75s-.58-.56-1.19-2a9.49,9.49,0,0,0,1-.38,7,7,0,0,0,1.12-.64V99.9h-1.1a3,3,0,0,0-.88.13l-.18-.64a3.83,3.83,0,0,0,1,.14h1c.54-.64.67-.74.8-.74s.29.1.89.56c.28.23.37.34.37.47s0,.16-.48.51Zm-.86-7.62c-.37,0-.56-.19-.79-1a4.58,4.58,0,0,0-1-1.87c-.06-.06,0-.16.13-.14,1.87.46,2.56,1.23,2.56,2A.87.87,0,0,1,111.64,96.42ZM117.4,94a10.52,10.52,0,0,0-.08-1.26c1.71.16,1.87.32,1.87.48s-.14.25-.43.38v.5h2.15c.46-.5.59-.6.72-.6s.28.1.8.52c.22.2.32.32.32.44s-.13.28-.45.61v.16c0,.4,0,.67,0,.75,0,.29-.32.47-.83.47-.34,0-.5-.11-.53-.35h-2.23v1.07h2.9c.57-.69.77-.82.88-.82s.3.13.85.58c.22.19.35.34.35.45s0,.16-.21.16h-9.89a5.56,5.56,0,0,0-.91.09l-.18-.59a4.36,4.36,0,0,0,1.06.13h3.79V96.06h-2.1c0,.3-.25.41-.81.41-.37,0-.55-.14-.55-.4s0-.41,0-1.25a14.18,14.18,0,0,0-.06-1.45,9.48,9.48,0,0,1,1.49.69h2Zm-1.78,9.2c-.06.36-.32.53-.76.53s-.68-.17-.68-.64.07-1,.07-3c0-.77,0-1.54-.07-2.31a15.58,15.58,0,0,1,1.57.69h4.79c.46-.54.59-.64.72-.64s.3.1.85.5c.24.19.33.3.33.43s-.09.24-.38.45v.62c0,1.65,0,2.79,0,3.16s-.27.68-.85.68c-.4,0-.57-.12-.61-.48Zm-.3-8.74v1.27h2.08V94.42Zm5.31,4.39h-5v1.06h5Zm-5,2.46h5v-1h-5Zm0,1.53h5v-1.16h-5Zm3.12-7.11H121V94.42h-2.23Z"/><path class="cls-3" d="M129.78,99.26A14.57,14.57,0,0,1,128,101c-.07,0-.21-.08-.16-.14a17.68,17.68,0,0,0,2.7-5.33,14.56,14.56,0,0,0,.58-2.63c1.45.4,2.11.68,2.11.88s-.16.29-.56.36A18.31,18.31,0,0,1,130.77,98c.74.11.85.17.85.33s-.09.24-.41.39V107c0,.46-.27.67-.84.67-.35,0-.68-.14-.68-.61s.09-1.68.09-4.21Zm7.88-.79c0,1.22,0,3.22.06,5h.67c.61-.75.8-.88.92-.88s.3.13.89.63c.24.2.37.35.37.46s0,.16-.21.16h-2.62c0,1.49,0,2.74,0,3.12s-.28.59-.93.59c-.48,0-.71-.14-.71-.46s0-1.73,0-3.25h-1.5a5.63,5.63,0,0,0-1,.1l-.18-.6a4.94,4.94,0,0,0,1.12.13h1.57c0-1.15.05-3.06.05-4.1a14,14,0,0,1-4.71,4.81c-.06,0-.22-.1-.16-.16a17.65,17.65,0,0,0,4.08-6.73h-2.25a6.49,6.49,0,0,0-1,.1l-.18-.59a5.31,5.31,0,0,0,1.1.12h3.06V95a13.46,13.46,0,0,0-.1-2c1.67.14,2.15.29,2.15.54s-.16.31-.59.5V96.9h2.67c.74-.92.93-1.05,1-1.05s.27.06,1,.69c.29.25.5.46.5.57s-.05.16-.21.16h-4.83a10.06,10.06,0,0,0,2.56,3.44,11.17,11.17,0,0,0,3,1.94.11.11,0,0,1,0,.19c-.4.08-.69.42-.91,1-.11.35-.16.4-.35.4a1.22,1.22,0,0,1-.56-.31,8.57,8.57,0,0,1-2.07-2.3,14.88,14.88,0,0,1-1.79-4Z"/><path class="cls-3" d="M153.4,100.49l-.53.21a19.08,19.08,0,0,1-.29,2.58,7.9,7.9,0,0,1-2,4.08c-.05.06-.18,0-.14-.11a11.31,11.31,0,0,0,1.21-3.88c.08-.64.13-1.39.16-2.3l-.28.09c-.08.32-.16.47-.31.47s-.32-.34-.59-1.62c.37,0,.77-.06,1.2-.13,0-.65,0-1.41,0-2.24v-.86h-1.64v2.85l1.19-.6c.06,0,.13.15.06.2-.48.44-.88.81-1.25,1.13v2c0,1.2,0,2.4,0,3.6a1.88,1.88,0,0,1-.24,1,1.37,1.37,0,0,1-1.24.6c-.2,0-.26-.07-.29-.31-.08-.66-.23-.83-1.14-1.15-.08,0-.08-.23,0-.23l1.3,0c.22,0,.25,0,.25-.24v-4.25c-.2.16-.41.29-.62.44-.06.38-.14.51-.29.51s-.27-.22-.75-1.7a8.9,8.9,0,0,0,1-.24,6.12,6.12,0,0,0,.67-.24V96.78h-.57a4.63,4.63,0,0,0-.84.09l-.17-.59a3.94,3.94,0,0,0,1,.13h.57v-1.7a11.15,11.15,0,0,0-.09-1.89c1.79.21,1.92.28,1.92.47s-.13.27-.5.43v2.69h.18c.33-.56.53-.69.64-.69s.29.13.67.5a.78.78,0,0,1,.15.16c0-.9,0-1.43-.12-2a8.33,8.33,0,0,1,1.36.73h.2c.09-.48.19-.91.24-1.32s0-.61,0-.9c1.46.37,1.73.46,1.73.64s-.16.29-.57.35a6.19,6.19,0,0,1-.95,1.23h.93c.45-.49.58-.59.7-.59s.29.1.72.47c.18.16.28.28.28.41s-.1.26-.4.45V99l.33-.09c.08,0,.1.14,0,.19l-.37.21c0,5.12,0,6,0,6.66a1.18,1.18,0,0,1-.29.81,1.24,1.24,0,0,1-1,.39c-.29,0-.35-.07-.42-.4-.09-.52-.19-.6-1.24-.9-.08,0-.08-.21,0-.19a14.62,14.62,0,0,0,1.53.09c.18,0,.21,0,.21-.2V99.87l-.56.25v1.25c0,1,0,2.29,0,2.71s-.19.44-.56.44-.41-.11-.41-.35.06-1,.06-2.46ZM153,96.07c0,1.4,0,2.6,0,3.64.66-.13,1.3-.28,1.94-.44V95.43H153Zm1,2.64c-.27,0-.39-.2-.42-.7a4.88,4.88,0,0,0-.29-1.67.08.08,0,0,1,.13-.09A2.27,2.27,0,0,1,154.5,98C154.5,98.39,154.26,98.71,153.93,98.71Zm5.81,1.28c.49-.54.62-.64.75-.64s.27.1.82.6c.22.2.32.33.32.46s-.11.22-.53.42a10.78,10.78,0,0,1-1.51,3.25,7.41,7.41,0,0,0,2.9,1.64c.08,0,0,.18,0,.2-.51.16-.61.3-.82,1.08,0,.2-.12.31-.25.31a1,1,0,0,1-.44-.23,9.37,9.37,0,0,1-2.08-2.09,9.6,9.6,0,0,1-3.2,2.32c-.08,0-.14-.11-.08-.16a13.33,13.33,0,0,0,2.74-3.06,9.78,9.78,0,0,1-1.06-3.73,4.11,4.11,0,0,0-.72.13l-.17-.62a4.27,4.27,0,0,0,1,.12Zm.73-2.48c0,.23.1.31.44.31a.45.45,0,0,0,.33-.1c.18-.14.29-.56.5-1.62,0-.08.21-.08.21,0,0,.39,0,.9,0,1.14s0,.37.24.43a.62.62,0,0,1,.05,1.06,2.56,2.56,0,0,1-1.38.27c-1.15,0-1.62-.32-1.62-1.2V94.6h-1v.5a8.12,8.12,0,0,1-.28,2.24,4.32,4.32,0,0,1-1.65,2.46c-.07,0-.16,0-.13-.09a7.32,7.32,0,0,0,.74-2.5A12.48,12.48,0,0,0,157,95.4a10.62,10.62,0,0,0-.15-1.86,13.16,13.16,0,0,1,1.46.69h.8c.43-.59.53-.64.62-.64s.31.1.77.5c.26.21.34.37.34.48s-.07.22-.39.43Zm-2.89,2.85a6.37,6.37,0,0,0,1.25,2.85,12.42,12.42,0,0,0,1-2.85Z"/><path class="cls-3" d="M170.25,104.09a2.42,2.42,0,0,0,1.52,1.35,13.32,13.32,0,0,0,3.63.36,49.19,49.19,0,0,0,6.15-.4c.08,0,.08.15,0,.18a1,1,0,0,0-.62.9c-.05.49-.08.54-.38.57a38.74,38.74,0,0,1-3.91.15,13,13,0,0,1-4.74-.58A3.72,3.72,0,0,1,169.8,104a11.58,11.58,0,0,1-1.84,2.4c0,.61,0,.74-.27.74s-.6-.58-1.19-2a7.43,7.43,0,0,0,1.2-.45,8.7,8.7,0,0,0,1.06-.59V99.88h-1.11a3.07,3.07,0,0,0-.88.13l-.17-.64a3.85,3.85,0,0,0,1.05.14h1c.56-.64.69-.73.82-.73s.29.09.88.56c.27.22.37.33.37.46s0,.16-.48.51Zm-.95-7.75c-.36,0-.56-.19-.78-1a4.73,4.73,0,0,0-1-1.87c-.06-.06,0-.16.13-.14,1.87.46,2.56,1.23,2.56,2A.87.87,0,0,1,169.3,96.34Zm7.16.29a21.3,21.3,0,0,1-.19,2.64h2.44c.71-.88.9-1,1-1s.32.12,1,.7c.32.26.45.4.45.51s-.05.16-.21.16h-4.8a5.63,5.63,0,0,1-.3,1.14c3,1,4.37,2,4.37,3.1a.89.89,0,0,1-.83,1c-.34,0-.39-.06-1.05-1a10.75,10.75,0,0,0-2.61-2.72c-.75,1.9-2.17,3-4.56,3.68-.08,0-.16-.13-.09-.18a6.6,6.6,0,0,0,3.6-5h-2.55a4.74,4.74,0,0,0-.91.1l-.17-.59a5.07,5.07,0,0,0,1.08.12h2.61a21.24,21.24,0,0,0,.15-2.64h-2.28a5.7,5.7,0,0,0-.91.1l-.17-.59a5.07,5.07,0,0,0,1.08.12h3.53a11.32,11.32,0,0,0,.76-2,11.55,11.55,0,0,0,.39-1.6c1.6.58,1.93.74,1.93,1s-.16.24-.62.27a13.62,13.62,0,0,1-1.92,2.32h1.74c.64-.76.84-.89.95-.89s.32.13,1,.64c.27.21.4.35.4.46s-.05.16-.21.16Zm-2.18-.78c-.37,0-.42-.1-.7-1.07a4,4,0,0,0-.93-1.59c-.07-.06,0-.19.11-.17,1.51.41,2.35,1.07,2.35,1.85A.89.89,0,0,1,174.28,95.85Z"/><path class="cls-3" d="M192.51,92.52s0,.08-.08.14a9.92,9.92,0,0,0-.07,14.89c.12.11.15.14.15.21s0,.09-.08.09a.33.33,0,0,1-.21-.09,11.22,11.22,0,0,1-3.22-3.44A8.17,8.17,0,0,1,189,96a11.25,11.25,0,0,1,3.24-3.46c.08,0,.11-.08.16-.08A.1.1,0,0,1,192.51,92.52Z"/><path class="cls-3" d="M209.18,94.82c.83-.94,1-1,1.09-1s.3.1,1.07.71c.37.3.46.41.46.54s-.06.16-.24.16H200.9v.37a28.55,28.55,0,0,1-.64,7.36,8.08,8.08,0,0,1-3.07,4.44c-.06,0-.21-.11-.16-.18a10.84,10.84,0,0,0,2.05-4.58c.08-.46.16-.94.21-1.47a9.31,9.31,0,0,1-1.28,1.39c0,.53-.12.69-.34.69s-.46-.53-1-1.9a7.63,7.63,0,0,0,.88-.24,17.35,17.35,0,0,0,1.78-.72c0-.82.08-1.75.08-2.77,0-1.48,0-2.56-.13-3.7.88.42,1,.5,1.82.94h3.32V94a7.65,7.65,0,0,0-.1-1.2c2,.19,2.16.39,2.16.56s-.17.29-.54.47v1Zm-10.92,4.49c-.33,0-.46-.15-.48-.55a4.63,4.63,0,0,0-.57-2.27c-.05-.07.06-.19.12-.16,1.33.73,1.76,1.22,1.76,1.94A1,1,0,0,1,198.26,99.31Zm11,.51c.51-.61.64-.71.77-.71s.29.1.85.56c.25.23.35.34.35.47s-.1.25-.4.43v.88c0,3.11,0,3.59,0,4.43a1.86,1.86,0,0,1-.23,1.16,1.71,1.71,0,0,1-1.24.54c-.46,0-.48,0-.53-.45s-.4-.72-1.71-1c-.08,0-.08-.2,0-.2.8.05,1.52.07,2.07.07.19,0,.22-.07.22-.29v-5.47h-2.78a9.82,9.82,0,0,1-.34,1.16c1.82.45,2.78,1.16,2.78,2.09a.83.83,0,0,1-.76.89c-.26,0-.42-.13-.61-.54a5.57,5.57,0,0,0-1.54-2.15,5.83,5.83,0,0,1-3,2.84c-.06,0-.17-.12-.11-.16a6.4,6.4,0,0,0,2.24-4.13H203v6.7c0,.6-.19.77-.81.77-.45,0-.69-.16-.69-.53,0-.54.08-1.1.08-3.33q0-2.37-.06-4.77a16,16,0,0,1,1.63.79h2.24c0-.53.08-1.12.08-1.76v-.48h-2.71a12.17,12.17,0,0,0-1.36.09l-.17-.59a7.68,7.68,0,0,0,1.41.13h6.45c.72-.87.91-1,1-1s.32.12,1,.7c.31.24.44.39.44.5s-.05.16-.21.16h-4.43a20.76,20.76,0,0,1-.18,2.24Z"/><path class="cls-3" d="M219.78,93.75c.44-.53.56-.62.69-.62s.27.09.85.65c.26.24.35.37.35.5s0,.18-.45.29a23.61,23.61,0,0,1-2.16,3.54c1.52,1.32,2.07,2.35,2.07,3.77a2.43,2.43,0,0,1-.51,1.68,1.54,1.54,0,0,1-1.14.45c-.24,0-.32-.09-.34-.35-.06-.58-.22-.78-.93-1,0,1.78,0,3.7,0,4.19s-.36.71-.88.71-.61-.18-.61-.53.06-3.59.06-8c0-3.81,0-4.71-.09-6,.78.34.89.39,1.63.77Zm-1.57,8.64a8.75,8.75,0,0,0,1,0,.62.62,0,0,0,.42-.11c.18-.14.21-.46.21-1.12a4.27,4.27,0,0,0-1.14-3,29.15,29.15,0,0,0,1.09-4h-1.59Zm9.5,3.21c0,.32.09.36.78.36.5,0,.8,0,1-.27a5.51,5.51,0,0,0,.85-2.17c0-.08.24,0,.24,0-.05.77-.13,1.44-.13,1.76s.08.33.29.48.38.27.38.56-.25.59-.81.75a8,8,0,0,1-2,.19c-1.59,0-2.13-.33-2.13-1.31,0-.16,0-.69,0-1.39v-3.92h-1.28c-.08,3.74-1.86,5.84-5.62,6.69-.08,0-.16-.18-.08-.21,2.88-1.38,4-3.14,4.1-6.48h-1a5.14,5.14,0,0,0-.88.09l-.17-.59a4.23,4.23,0,0,0,1.05.13h6.25c.56-.77.75-.9.86-.9s.32.13,1,.64c.27.21.4.35.4.47s-.05.16-.21.16h-2.89ZM229,95.34c.54-.61.67-.71.8-.71s.29.1,1,.74c.32.29.42.41.42.54s-.2.29-.56.29a.76.76,0,0,0-.61.21,6.6,6.6,0,0,1-1.06.65c-.06,0-.16,0-.13-.09a6.61,6.61,0,0,0,.27-1.27h-6.53c0,1.32-.38,2.1-1.15,2.1a.72.72,0,0,1-.69-.74c0-.3.16-.52.56-.81a1.77,1.77,0,0,0,1-1.62c0-.08.14-.11.16,0a5.1,5.1,0,0,1,.11.74H225V94.1a10.52,10.52,0,0,0-.08-1.26c1.84.16,2,.3,2,.45s-.15.27-.45.4v1.65Zm-1.68,2.46c.64-.75.83-.88.94-.88s.32.13.94.63c.28.2.41.35.41.46s0,.16-.21.16h-5.85a4.38,4.38,0,0,0-.88.1l-.17-.6a4.23,4.23,0,0,0,1,.13Z"/><path class="cls-3" d="M241.77,97.58a11.41,11.41,0,0,1,4.32-1.46,3.1,3.1,0,0,1,2.37.77,2.26,2.26,0,0,1,.7,1.7,2.35,2.35,0,0,1-1.23,2.09,4,4,0,0,1-2.34.64,6.67,6.67,0,0,1-3.55-1c-.21-.12-.29-.17-.29-.3s.07-.06.13-.06a3.84,3.84,0,0,1,.45.11,6.75,6.75,0,0,0,2.19.22,5.37,5.37,0,0,0,2.15-.56c.75-.4,1.17-.83,1.17-1.58a1.19,1.19,0,0,0-.34-.9,2.06,2.06,0,0,0-1.41-.51,9.1,9.1,0,0,0-4.18,1.63c-.46.27-.91.56-1.42.87.32.6.64,1.21,1,1.84.75,1.47,1.33,2.75,1.76,3.81a3,3,0,0,1,.27,1.23.84.84,0,0,1-.8.88.71.71,0,0,1-.48-.16c-.21-.16-.24-.48-.34-.8a40.25,40.25,0,0,0-2.22-6.24,9.15,9.15,0,0,0-.8.59,5.35,5.35,0,0,0-.79.72.69.69,0,0,1-.56.29,2,2,0,0,1-1.21-.53,1.56,1.56,0,0,1-.72-1.09c0-.24.06-.34.14-.34s.16.08.26.15a1.44,1.44,0,0,0,.91.37,4.56,4.56,0,0,0,1.34-.53c.21-.1.56-.29.95-.51a7.9,7.9,0,0,0-.66-1.06,1.39,1.39,0,0,1-.27-.77,1.9,1.9,0,0,1,.53-1.26,1,1,0,0,1,.82-.39,19.46,19.46,0,0,1,2.2-.24,2.67,2.67,0,0,1-.46-1.31c0-.43.16-.77.3-.77s.15.08.2.27a1.77,1.77,0,0,0,.38.63,6.59,6.59,0,0,0,.83.72,1.53,1.53,0,0,1,.71,1.23.52.52,0,0,1-.56.56,1,1,0,0,1-.69-.27,4,4,0,0,0-1.19-.39,4.48,4.48,0,0,0-1.37-.06c-.53.08-.71.35-.71.69a1.23,1.23,0,0,0,.13.61c.1.19.31.59.75,1.36C240.71,98.12,241.24,97.87,241.77,97.58Z"/><path class="cls-3" d="M257.38,96.41c0,.8,0,1.62-.09,2.42h1c.5-.66.63-.76.76-.76s.28.1.83.6c.24.2.33.33.33.46s0,.16-.38.42c-.18,3.36-.48,5.77-.9,6.62a1.8,1.8,0,0,1-.62.77,1.78,1.78,0,0,1-1.12.34c-.19,0-.26-.07-.27-.26-.1-.66-.32-.91-1.16-1.17-.08,0,0-.19,0-.19.72.06,1.13.08,1.31.08.48,0,.59-.08.75-.72a33.11,33.11,0,0,0,.56-5.83h-1.2c-.32,4.17-1.22,6.29-3.23,8.14-.07,0-.21-.08-.16-.15,1.45-2.48,2.06-5.46,2.06-10.31v-.46h-.41a7.06,7.06,0,0,0-1,.09l-.17-.59a5.49,5.49,0,0,0,1.18.13h1V94.1c0-.25,0-.64-.06-1.18,1.79.18,1.95.35,1.95.51s-.14.24-.45.4V96h.51c.58-.72.77-.85.88-.85s.31.13.84.61c.2.19.33.34.33.45s-.05.16-.21.16ZM262,96a8.86,8.86,0,0,1-2.08,2.19c-.06,0-.22,0-.17-.11a11.88,11.88,0,0,0,1.47-3.17,10.64,10.64,0,0,0,.4-2.06c1.68.35,2.05.49,2.05.72s-.16.28-.58.35a10,10,0,0,1-.84,1.71h4.09c.79-1,1-1.09,1.09-1.09s.31.13,1,.75c.32.29.44.44.44.55s0,.16-.2.16Zm.52,9.28c0,.55.09.64,2.14.64s2.4-.06,2.67-.24.39-.38.95-2.13c0-.08.21,0,.21,0,0,.48-.05,1.15-.05,1.45a.38.38,0,0,0,.24.42c.32.19.43.35.43.64s-.29.72-1,.88a15.85,15.85,0,0,1-3.06.21c-3.3,0-3.89-.24-3.89-1.51,0-.4,0-.8,0-2.46,0-.74,0-1.46,0-2.2a4.57,4.57,0,0,0-.95.37l-.3-.53a4.35,4.35,0,0,0,1-.17l.23-.07c0-1,0-2-.05-3,1.7.18,1.9.24,1.9.48s-.11.26-.49.42v1.76l1.28-.37V98.75a20,20,0,0,0-.08-2.12c1.41.13,1.87.26,1.87.5s-.14.26-.51.37v2l1.21-.35c.5-.75.66-.93.84-.93a2.58,2.58,0,0,1,1.1.74.66.66,0,0,1,.19.32c0,.16-.11.27-.46.5a22.8,22.8,0,0,1-.26,3.31,1.75,1.75,0,0,1-.51,1,1.43,1.43,0,0,1-1,.35c-.2,0-.22,0-.22-.43s-.32-.7-.9-.94c0,.49,0,.86,0,1.07,0,.42-.24.58-.82.58s-.56-.12-.56-.53.05-1.65.07-3.91l-1.28.37Zm2.56-5.39c0,.49,0,1,0,1.47v1.46a4.71,4.71,0,0,0,.87.09c.25,0,.41-.12.46-.43a22.84,22.84,0,0,0,.18-3Z"/><path class="cls-3" d="M277.67,96.14c.69-.85.88-1,1-1s.32.13,1,.69c.3.24.43.38.43.49s-.05.16-.21.16h-5.06a7.86,7.86,0,0,0-1.08.1l-.18-.59a7.19,7.19,0,0,0,1.28.13Zm-2,10.26v.49c0,.42-.29.63-.82.63s-.67-.16-.67-.55.05-1,.05-3a21.86,21.86,0,0,0-.1-2.28,17.42,17.42,0,0,1,1.7.8h1.6c.56-.67.69-.77.81-.77s.29.1.87.56c.25.23.35.34.35.47s-.11.29-.46.53v.53c0,1.37.06,2.32.06,2.62s-.29.62-.86.62-.64-.14-.64-.49v-.11ZM276.92,94c.7-.84.9-1,1-1s.32.12,1,.67c.29.24.42.38.42.49s0,.16-.21.16h-3.75a6,6,0,0,0-.94.1l-.18-.59a5.58,5.58,0,0,0,1.12.13Zm.14,4.29c.61-.79.8-.92.92-.92s.32.13.92.64c.28.23.4.37.4.48s0,.16-.2.16h-3.69a6.38,6.38,0,0,0-1,.1l-.18-.59a5.85,5.85,0,0,0,1.15.13Zm0,2.06c.61-.78.8-.91.91-.91s.32.13.94.64c.28.22.4.37.4.48s0,.16-.2.16h-3.69a6.22,6.22,0,0,0-1,.09l-.17-.59a5,5,0,0,0,1.13.13Zm.53,2.48h-1.89V106h1.89Zm7.49-2.9c.65-.64.78-.73.91-.73s.3.09,1,.62c.3.24.4.35.4.48s-.18.34-.59.5a12.22,12.22,0,0,1-2.13,3.28,9.38,9.38,0,0,0,3.84,1.44.08.08,0,0,1,0,.16c-.54.16-.75.46-.93,1.22,0,.24-.11.33-.22.33a2.54,2.54,0,0,1-.61-.22,7.74,7.74,0,0,1-3-2.08,13.05,13.05,0,0,1-4.72,2.42c-.08,0-.16-.18-.08-.21A12.38,12.38,0,0,0,283,104a12.61,12.61,0,0,1-1.58-3.72h-.26a3.44,3.44,0,0,0-.93.13l-.17-.62a5.8,5.8,0,0,0,1.17.12Zm2.81-3.13c0,.24.07.3.32.4a.5.5,0,0,1,.23.48c0,.33-.21.59-.64.73a4.81,4.81,0,0,1-1.55.2c-1.41,0-1.91-.36-1.91-1.36,0-.63,0-.79,0-1.41V94.18h-1.88v.31a6.34,6.34,0,0,1-.51,2.85,5,5,0,0,1-2.4,1.92c-.06,0-.21-.07-.14-.11a4.45,4.45,0,0,0,1.36-2.23A7.81,7.81,0,0,0,281,95a17.64,17.64,0,0,0-.11-1.92c.8.34.94.39,1.66.76h1.76c.51-.6.61-.68.79-.68s.28.07.81.52a.79.79,0,0,1,.32.41c0,.16-.11.29-.41.47V97c0,.25.11.3.62.3s.59,0,.75-.19a3.45,3.45,0,0,0,.53-1.43c0-.08.19-.08.19,0Zm-6.16,3.5a8.47,8.47,0,0,0,1.89,3,9.58,9.58,0,0,0,1.5-3Z"/><path class="cls-3" d="M300.07,99.55a7,7,0,0,0,3.38,1.16,4.71,4.71,0,0,0,3.28-1.26.17.17,0,0,1,.15-.06.1.1,0,0,1,.09.11.15.15,0,0,1-.05.13c-1.13,1.32-2.25,2.24-3.74,2.24a6.2,6.2,0,0,1-3.11-1,6.92,6.92,0,0,0-3.39-1.18,4.75,4.75,0,0,0-3.25,1.25.24.24,0,0,1-.14,0,.1.1,0,0,1-.1-.1.18.18,0,0,1,0-.13c1.15-1.31,2.24-2.19,3.73-2.19A6.1,6.1,0,0,1,300.07,99.55Z"/><path class="cls-3" d="M314,100.43a.52.52,0,0,1-.05.24,3.87,3.87,0,0,0-.27,1.47,1.65,1.65,0,0,0,.85,1.47,6.87,6.87,0,0,0,3.1.58,9.77,9.77,0,0,0,2.82-.34,5.25,5.25,0,0,1,1-.13c.94,0,1.26.5,1.26.85s-.4.74-.94.83a13.3,13.3,0,0,1-1.65.21c-.78.07-1.57.08-2.06.08a8.68,8.68,0,0,1-3-.53,3.37,3.37,0,0,1-1.49-1.12,2.36,2.36,0,0,1-.48-1.61,3.66,3.66,0,0,1,.66-2,.26.26,0,0,1,.19-.14C314,100.3,314,100.36,314,100.43Zm.19-5.13c.34.45,1,.68,2.52.68a8.43,8.43,0,0,0,2.7-.45,2.75,2.75,0,0,1,.59-.08,2.45,2.45,0,0,1,.66.08c.48.13.78.32.8.72s-.1.48-.43.61A5.67,5.67,0,0,1,320,97a13.53,13.53,0,0,0-2.37.43,10.06,10.06,0,0,0-2.08.88,2.18,2.18,0,0,1-.51.26c-.08,0-.11,0-.11-.1a8.22,8.22,0,0,1,1.49-1.29,3.35,3.35,0,0,1-1.75-.63,2.16,2.16,0,0,1-.75-1.23c0-.11.05-.16.13-.16S314.14,95.24,314.18,95.3Zm8.89-.48a1.21,1.21,0,0,1,.59,1,.54.54,0,0,1-.53.56.55.55,0,0,1-.54-.36,6.22,6.22,0,0,0-1-1.41c-.07-.07-.18-.15-.18-.21s0-.08.08-.1a1.13,1.13,0,0,1,.26,0A3.27,3.27,0,0,1,323.07,94.82Zm1.47-1.07a1,1,0,0,1,.58.82.54.54,0,0,1-.5.59.6.6,0,0,1-.59-.35,4.28,4.28,0,0,0-1.12-1.25c-.07,0-.2-.13-.2-.19a.11.11,0,0,1,.05-.1.43.43,0,0,1,.26,0A3.21,3.21,0,0,1,324.54,93.75Z"/><path class="cls-3" d="M333.19,106.33v.58c0,.45-.27.66-.89.66s-.69-.18-.69-.55c0-1.41.06-2.9.06-8.55,0-1.31,0-2.62-.06-4a16.26,16.26,0,0,1,1.81.85h1.44c.19-.55.36-1.11.49-1.6a5.3,5.3,0,0,0,.19-1.09c1.59.4,2,.58,2,.8s-.14.26-.59.34a10.17,10.17,0,0,1-1.54,1.55h4.48c.56-.61.69-.71.82-.71s.32.08,1,.56c.3.23.42.39.42.52s-.08.25-.52.56v1.61c0,4.65.07,7.88.07,8.93,0,.47-.26.66-.92.66-.51,0-.68-.14-.68-.58v-.59ZM340,95.74h-6.84v3H340Zm0,3.33h-6.84v3.07H340Zm0,3.44h-6.84V106H340Z"/><path class="cls-3" d="M360.35,95.26c.65-.77.78-.87.91-.87s.29.1,1.23,1c.43.4.53.51.53.64s-.16.33-.69.33c-.35,0-.48,0-.67.15a8.57,8.57,0,0,1-1.44.86c-.06,0-.19,0-.16-.13a6,6,0,0,0,.5-1.57h-9.82c.07,1.27-.43,2.13-1.26,2.13a.8.8,0,0,1-.82-.85.75.75,0,0,1,.52-.76,1.81,1.81,0,0,0,1.16-1.78c0-.08.16-.1.18,0a4.71,4.71,0,0,1,.19.92h4.07v-1c0-.53,0-1,0-1.29,2,.19,2.16.36,2.16.54s-.19.3-.54.45v1.33Zm-6.47,3.93a24.94,24.94,0,0,1-4.42.47c-.08,0-.08-.21,0-.23a26.09,26.09,0,0,0,6.65-2.16A5.29,5.29,0,0,0,357.85,96c1.34.86,1.71,1.22,1.71,1.46s-.16.24-1,.12a15.81,15.81,0,0,1-3.19,1.24v2.67l4.44-.61c.8-1.17.92-1.26,1.05-1.26s.34.09,1.19.62c.41.27.51.37.51.5a.19.19,0,0,1-.19.17l-7,1v2.64c0,1.2.11,1.25,2.5,1.25,1.82,0,2.4-.11,2.7-.46a8.25,8.25,0,0,0,.9-2.15c0-.08.16-.08.16,0,0,.56-.06,1.27-.06,1.83,0,.19,0,.27.27.35a.58.58,0,0,1,.46.58c0,.48-.32.81-1.09,1a15.91,15.91,0,0,1-3.69.29c-3.06,0-3.67-.49-3.67-2.06v-3.07l-3.82.52a7.12,7.12,0,0,0-1,.23l-.22-.56a8.72,8.72,0,0,0,1.15,0l3.89-.52Z"/><path class="cls-3" d="M370.58,95.1a8,8,0,0,1-2.77,2.52c-.06,0-.17-.06-.12-.12a11.39,11.39,0,0,0,1.77-2.84,7.27,7.27,0,0,0,.56-1.9c1.6.46,1.94.61,1.94.82s-.16.27-.66.32a7.74,7.74,0,0,1-.48.83h2.07c.61-.72.8-.85.91-.85s.34.13,1,.61c.27.21.4.33.4.45s-.05.16-.21.16h-3.52c1.16.33,1.62.73,1.62,1.32a.77.77,0,0,1-.77.82c-.45,0-.53-.11-.67-.94a2.35,2.35,0,0,0-.53-1.2Zm5.83,0A7.24,7.24,0,0,1,375,96.42c.69.12.81.23.81.33s-.09.27-.44.39v.77h2.8c.7-.78.89-.91,1-.91s.33.13,1,.64c.27.23.4.37.4.48s-.05.16-.21.16h-5v1.92h4.05c.76-.86,1-1,1.07-1s.32.13,1,.7c.31.24.43.39.43.5s0,.16-.2.16H369a4.94,4.94,0,0,0-.94.1l-.18-.6a4.49,4.49,0,0,0,1.07.13h5V98.28h-3.2a4.94,4.94,0,0,0-.94.1l-.18-.59a4.84,4.84,0,0,0,1.06.12h3.26v-.16a14.57,14.57,0,0,0-.06-1.47l.8.08a10,10,0,0,0,.94-2,9.61,9.61,0,0,0,.44-1.6c1.29.29,1.84.53,1.84.75s-.18.29-.66.37c-.16.29-.34.56-.51.82h3c.69-.83.88-1,1-1s.34.13,1.06.67c.34.26.46.38.46.5s0,.16-.2.16h-4.4c1.07.27,1.55.65,1.55,1.23a.82.82,0,0,1-.77.83c-.42,0-.56-.18-.69-.93a2.22,2.22,0,0,0-.54-1.13Zm1.92,9.49c0,.51,0,1.29,0,1.74a1.13,1.13,0,0,1-.36.88,2.18,2.18,0,0,1-1.48.42c-.25,0-.27,0-.35-.46s-.48-.81-1.76-1.11c-.08,0-.08-.22,0-.22.72,0,1.58.12,2.19.12.19,0,.26,0,.26-.25v-2.93h-7.78a4.94,4.94,0,0,0-.94.1l-.18-.6a4.25,4.25,0,0,0,1.06.13h7.84v-.29a7.18,7.18,0,0,0-.1-1.28c1.83.21,2,.24,2,.48s-.09.19-.43.34v.75h1.17c.69-.78.88-.91,1-.91s.32.13,1,.64c.27.22.4.37.4.48s-.05.16-.21.16h-3.31Zm-5.28,1.47c-.43,0-.53-.11-.86-1.12a3.05,3.05,0,0,0-1.05-1.52c-.06,0,0-.16.08-.14,1.65.24,2.68,1,2.68,1.84A.85.85,0,0,1,373.05,106.06Z"/><path class="cls-3" d="M387.05,92.5A11.21,11.21,0,0,1,390.28,96a8.17,8.17,0,0,1,0,8.36,11.1,11.1,0,0,1-3.22,3.44.33.33,0,0,1-.21.09.08.08,0,0,1-.08-.09c0-.07,0-.1.15-.21a9.92,9.92,0,0,0-.07-14.89c-.06-.06-.08-.09-.08-.14s.05-.1.12-.1S387,92.46,387.05,92.5Z"/><rect class="cls-3" x="63.47" y="97.52" width="9.19" height="9.19" transform="translate(-52.27 78.04) rotate(-45)"/><rect class="cls-3" x="63.47" y="135.64" width="9.19" height="9.19" transform="translate(-79.23 89.2) rotate(-45)"/><rect class="cls-3" x="779.55" y="97.52" width="9.19" height="9.19" transform="translate(157.46 584.39) rotate(-45)"/><path class="cls-3" d="M813.16,100.89c-.08.24-.15.46-.23.69s-.29.37-.75.37-.77-.13-.77-.36a.64.64,0,0,1,.05-.24,20.54,20.54,0,0,0,.75-2.7,12.09,12.09,0,0,0,.26-2.18,8.47,8.47,0,0,1,1.5.76h2.77V94.34H812.8a2.94,2.94,0,0,0-.81.13l-.18-.64a4,4,0,0,0,1.06.15h3.79c.51-.6.64-.69.77-.69s.29.09.85.53c.25.22.35.33.35.46s0,.16-.43.48v.54c0,1.41,0,2.39,0,2.71s-.28.62-.87.62c-.43,0-.64-.14-.64-.48v-.56h-2.88a23.55,23.55,0,0,1-.61,2.93h3.41c.55-.57.67-.67.8-.67s.29.1.85.56c.24.21.34.32.34.45s0,.16-.45.48a13.17,13.17,0,0,1-1,4.56,2.46,2.46,0,0,1-1.08,1.18,2,2,0,0,1-1,.26c-.37,0-.39-.11-.47-.57s-.53-.79-1.58-1.22c-.08,0,0-.26.05-.24a10.29,10.29,0,0,0,2.11.37c.3,0,.53-.12.75-.61a13.41,13.41,0,0,0,.8-4.18ZM823.32,97c0,4.27.11,8.66.11,9.72,0,.48-.32.72-1,.72-.48,0-.7-.16-.7-.58,0-.66.09-2.66.09-6.68,0-5.31,0-6.24-.14-7,2,.14,2.24.19,2.24.45s-.06.27-.56.51Z"/><path class="cls-3" d="M831.51,97.5a2.3,2.3,0,0,1-1.23-1,.34.34,0,0,1-.07-.18.12.12,0,0,1,.11-.13.31.31,0,0,1,.21.08,2.36,2.36,0,0,0,1.52.52,12.2,12.2,0,0,0,3.14-.61c-.09-.34-.29-1-.45-1.59a.59.59,0,0,0-.48-.49,2.41,2.41,0,0,0-.46-.08l-.21,0a.1.1,0,0,1-.11-.11c0-.1,0-.14.09-.21a1.2,1.2,0,0,1,.93-.46,3.46,3.46,0,0,1,1.12.22c.42.16.64.4.64.67a.92.92,0,0,1-.09.39,1,1,0,0,0-.07.48,8.31,8.31,0,0,0,.1.85,7.9,7.9,0,0,0,1.09-.45c.09-.05.16-.08.33-.19a1.66,1.66,0,0,0,.24-.18,1,1,0,0,1,.63-.19c.61,0,1,.14,1,.48s-.13.43-.74.7-1.58.66-2.34.91a13.75,13.75,0,0,0,.66,1.88,5.68,5.68,0,0,0,1.17-.55c.09-.06.11-.09.11-.17s-.18-.35-.59-.75c-.08-.08-.11-.13-.11-.2s0-.09.11-.09.13,0,.32.14a2.1,2.1,0,0,0,1.07.29l.4,0a1.11,1.11,0,0,1,.43,0,.55.55,0,0,1,.48.49.65.65,0,0,1-.38.59,15.57,15.57,0,0,1-2.58,1.2A7.84,7.84,0,0,0,839,101.8a1.68,1.68,0,0,1,.64,1.33.74.74,0,0,1-.68.8,1,1,0,0,1-.65-.35,2.7,2.7,0,0,0-.93-.54,7.92,7.92,0,0,0-2.38-.45,3.89,3.89,0,0,0-1.86.37,1.29,1.29,0,0,0-.79,1.07c0,.56.4,1.1,1.4,1.29a9.94,9.94,0,0,0,1.84.16c.49,0,.84-.08,1.13-.08a2,2,0,0,1,.92.21.73.73,0,0,1,.48.72.59.59,0,0,1-.31.51,2.34,2.34,0,0,1-1.18.2,10.22,10.22,0,0,1-3.19-.45c-1.47-.53-2-1.33-2-2.21a2.13,2.13,0,0,1,1.29-1.9,5.75,5.75,0,0,1,2.52-.53,22.54,22.54,0,0,1,2.47.14c-.32-.53-.75-1.33-1.11-2.1a9.52,9.52,0,0,1-2.81.53c-1,0-1.81-.51-1.81-1.15a1.64,1.64,0,0,1,.45-1,3.85,3.85,0,0,1,.69-.64A3.67,3.67,0,0,1,831.51,97.5Zm2,.4a2.86,2.86,0,0,0-.59.69,1.24,1.24,0,0,0-.16.57c0,.27.21.42.75.42a8.83,8.83,0,0,0,2.74-.51c-.26-.64-.4-1-.71-1.88-.7.21-1,.28-1.5.4A2.34,2.34,0,0,0,833.46,97.9Z"/><path class="cls-3" d="M853.59,99.48v6.44h4.16v-3a9.31,9.31,0,0,0-.11-1.67c1.92.18,2.26.26,2.26.55s-.2.35-.61.49v.76c0,2,.08,3.34.08,3.79s-.31.66-.94.66-.68-.15-.68-.53v-.71H848v.58c0,.48-.27.69-.92.69s-.71-.16-.71-.59.08-1.44.08-3.64a14.65,14.65,0,0,0-.08-2c1.73.14,2.18.27,2.18.51s-.16.32-.55.49v3.61h4V99.48h-3.36v.34c0,.41-.29.59-1,.59-.48,0-.66-.18-.66-.51s.1-1.25.1-3.2a18.63,18.63,0,0,0-.1-2.36c2,.21,2.19.28,2.19.53s-.16.34-.57.5v3.74H852V95.18a19,19,0,0,0-.1-2.28c2.07.2,2.27.39,2.27.58s-.2.37-.62.51v5.12h3.47v-3a12.54,12.54,0,0,0-.09-1.73c1.79.18,2.14.27,2.14.56s-.14.3-.51.45v.72c0,1.9.08,3.18.08,3.62s-.29.65-.93.65-.69-.17-.69-.53v-.35Z"/><path class="cls-3" d="M868.92,100.59c.65-.16,1.26-.36,1.79-.53.08,0,.13.13.06.17a15.56,15.56,0,0,1-1.84,1.14c0,2.75,0,4.66,0,5.49,0,.51-.22.72-.91.72-.5,0-.66-.16-.66-.54,0-.76,0-2.42.06-5-.46.19-1,.38-1.52.58,0,.41-.14.57-.33.57s-.39-.33-.8-1.92a6.85,6.85,0,0,0,1.44-.13l1.21-.22c0-1.7,0-2.79,0-3.89h-1.16a9.67,9.67,0,0,1-1.56,3c0,.07-.21,0-.18,0a20.7,20.7,0,0,0,.8-4c.08-.63.11-1.24.13-1.78,1.34.35,1.79.51,1.79.72s-.11.22-.5.34a11.52,11.52,0,0,1-.35,1.34h1V95.22c0-1.44,0-1.71-.07-2.41,1.94.22,2.07.27,2.07.51s-.13.26-.56.45v2.91h.14c.46-.67.66-.8.77-.8s.29.13.77.58c.17.16.3.32.3.43s0,.16-.21.16h-1.77Zm5.79-4a9.92,9.92,0,0,1-5.31,6.76c-.08,0-.18-.12-.12-.16a12.39,12.39,0,0,0,3.91-6.6h-.93a10.42,10.42,0,0,1-2.37,2.85c-.06,0-.19-.06-.14-.13a13.9,13.9,0,0,0,1.81-4.16,10.77,10.77,0,0,0,.41-2.35c1.67.24,2.17.38,2.17.64s-.16.29-.61.4a17.12,17.12,0,0,1-1.06,2.38h4.88c.61-.67.74-.77.87-.77s.29.1.89.6c.28.22.37.33.37.46s-.05.16-.5.5c-.19,5.39-.39,7.36-1,8.93a2.13,2.13,0,0,1-.75,1.07,2.17,2.17,0,0,1-1.31.4c-.27,0-.29,0-.37-.37-.14-.64-.64-1-1.78-1.29-.08,0-.06-.24,0-.24.94.06,1.73.09,1.86.09.89,0,.89,0,1.17-1.23a43.79,43.79,0,0,0,.64-7.78h-.34c-.91,5-2.93,7.89-6.85,9.68-.08,0-.18-.14-.11-.19,3-2.14,4.74-5.12,5.46-9.49Z"/><path class="cls-1" d="M41.22,38.45a2.22,2.22,0,0,0-.84.34,1.37,1.37,0,0,1-.7.17c-.41,0-.86-.32-1.44-1s-.79-1.12-.79-1.68.12-.72.26-.72.22.1.41.29a2.22,2.22,0,0,0,2.09,1c.6,0,1.17-.05,1.77-.09,2.36-.22,4.76-.44,6.94-.7A2.13,2.13,0,0,0,50,35.64a1.11,1.11,0,0,1,.63-.28c.47,0,.86.16,1.56.69.86.65,1.08,1,1.08,1.54,0,.21-.17.45-.51.62a2.22,2.22,0,0,0-1,1.15,26.55,26.55,0,0,1-4.56,6.39,21.27,21.27,0,0,1-7.92,5.18,1.29,1.29,0,0,1-.36.07c-.22,0-.31,0-.31-.26s.12-.22.38-.38a24.76,24.76,0,0,0,6.79-6,36.5,36.5,0,0,0,3.75-6.12,2,2,0,0,0,.31-.81c0-.1-.12-.12-.24-.12a9.32,9.32,0,0,0-1,.09C46.16,37.71,43.35,38,41.22,38.45Zm15.24-4.63a2,2,0,1,1-2-2A2,2,0,0,1,56.46,33.82Zm-3.31,0a1.31,1.31,0,1,0,1.32-1.32A1.33,1.33,0,0,0,53.15,33.82Z"/><path class="cls-1" d="M67.9,38.38c1.45-.17,3.44-.36,6.49-.7a1.59,1.59,0,0,0,.84-.33,1.37,1.37,0,0,1,.69-.22,4,4,0,0,1,1.87,1.13c.53.48.58.7.58,1s-.27.44-.5.56-.48.31-.87,1a26,26,0,0,1-3.74,5.28,22.44,22.44,0,0,1-7.88,5.57,1.77,1.77,0,0,1-.52.14.22.22,0,0,1-.24-.24c0-.12.19-.22.33-.33a28,28,0,0,0,6.94-6.65,22.88,22.88,0,0,0,3-5,3.27,3.27,0,0,0,.17-.51c0-.07,0-.07-.17-.07a1.81,1.81,0,0,0-.38.05c-2.57.24-4.47.55-6.87,1a4.73,4.73,0,0,0-1.44.41,1.72,1.72,0,0,1-.77.24c-.38,0-.67-.12-1.32-.77a2.89,2.89,0,0,1-.93-1.75c0-.41.12-.68.24-.68s.14.05.36.24a2.31,2.31,0,0,0,1.94.89C66,38.57,67.06,38.48,67.9,38.38Zm1.16-4.58c.88-.12,1.87-.29,2.93-.53a5.54,5.54,0,0,0,1.08-.39,2.81,2.81,0,0,1,.93-.21c1.06,0,2.09.55,2.09,1.08a.72.72,0,0,1-.48.79,9,9,0,0,1-1.46.26c-1,.15-3.61.44-5.5.65-.48,0-.87.07-1.15.07-.87,0-1.35-.33-2.07-1.34a1.53,1.53,0,0,1-.33-1c0-.17,0-.27.14-.27s.14.08.26.17a2.92,2.92,0,0,0,2.26.84C68.14,33.89,68.6,33.84,69.06,33.8Z"/><path class="cls-1" d="M86.77,35.91c0-.12.09-.19.24-.19l.45,0a8.45,8.45,0,0,1,3.05,1,2.85,2.85,0,0,1,1.66,2.4,1.27,1.27,0,0,1-1.3,1.34,1.25,1.25,0,0,1-1.17-.88,8.08,8.08,0,0,0-1-1.73,6.3,6.3,0,0,0-1.75-1.68A.28.28,0,0,1,86.77,35.91Zm3.5,10.89a45.58,45.58,0,0,0,6.65-4.7,50.28,50.28,0,0,0,5.64-5.86.52.52,0,0,1,.31-.21c.17,0,.24.09.24.21a.8.8,0,0,1-.14.41,31.28,31.28,0,0,1-5,6.72A54.88,54.88,0,0,1,91.57,49a3.74,3.74,0,0,0-.63.57,1.21,1.21,0,0,1-1,.58c-.5,0-.81-.22-1.46-.91-1-1.11-1.34-1.73-1.34-2.23s.17-.92.38-.92.19.1.38.32c.53.55.87.88,1.11.88A2.92,2.92,0,0,0,90.27,46.8Z"/><path class="cls-1" d="M114.35,47.28a5.24,5.24,0,0,0-.15,1.35c0,.5.15,1.13.15,1.37,0,.67-.15,1.08-.68,1.08-.69,0-.91-.24-1.56-1.49a11.26,11.26,0,0,1-.79-4.49,29.21,29.21,0,0,1,1-6.74,13.74,13.74,0,0,0,.48-2.45,3.21,3.21,0,0,0-.62-1.9.35.35,0,0,1-.1-.24c0-.07.12-.19.34-.19a2.28,2.28,0,0,1,1.15.6,5.31,5.31,0,0,1,1.1,1.44,2.57,2.57,0,0,1,.41,1.32,1.26,1.26,0,0,1-.33.86,5.19,5.19,0,0,0-.75,1.32,14.93,14.93,0,0,0-1.22,5.14,5.78,5.78,0,0,0,.26,2.42.1.1,0,0,0,.2,0c.74-1.41,1.48-3,2.16-4.41.09-.22.21-.29.33-.29s.24.14.12.5C115.26,44.38,114.61,46.23,114.35,47.28Zm3.81-2.83a3.93,3.93,0,0,0,.29,1.54c.41,1,1.54,1.77,4.1,1.77a15,15,0,0,0,3.12-.21,2.75,2.75,0,0,1,1-.27,3.84,3.84,0,0,1,1.39.39,1,1,0,0,1-.1,1.85,13.33,13.33,0,0,1-4,.4c-4.08,0-6.45-1.68-6.45-4.63a5.48,5.48,0,0,1,.6-2.61c.12-.22.16-.27.26-.27s.14.1.14.24A8.35,8.35,0,0,0,118.16,44.45Zm.65-6.45a2.21,2.21,0,0,1-.5.19c-.2,0-.22-.07-.22-.22s.1-.21.29-.36a11.31,11.31,0,0,1,3-1.58,8.9,8.9,0,0,1,3.09-.51c2.19,0,2.86.77,2.86,1.42s-.43.89-1.46.89c-.32,0-.82-.07-1.13-.07a6.47,6.47,0,0,0-1.42.16,7.15,7.15,0,0,0-2.81,1.71.48.48,0,0,1-.31.14.15.15,0,0,1-.17-.17c0-.07,0-.14.17-.31.39-.48.91-1,1.66-1.87A7.25,7.25,0,0,0,118.81,38Z"/><path class="cls-1" d="M135.49,41.43c-.12,0-.24-.24-.14-.31,3.67-2.36,5.88-4.2,8-7.23a9,9,0,0,0,1.56-3.12c2.76.67,3.36.89,3.36,1.23s-.31.4-1,.48a15.84,15.84,0,0,0,4.58,4.05,16.52,16.52,0,0,0,6.43,2.28c.13,0,.1.27,0,.29-.74.19-1.08.74-1.49,1.8-.17.41-.21.55-.41.55a2.65,2.65,0,0,1-.91-.33A26.93,26.93,0,0,1,150.92,38a22,22,0,0,1-4-5.11A23.56,23.56,0,0,1,135.49,41.43Zm5.95,10.27v.46c0,.67-.43,1-1.34,1-.72,0-1-.22-1-.84,0-1.06.12-2.11.12-6.36,0-.46,0-.92-.05-1.37a19.77,19.77,0,0,1,2.52,1.13h5.95a22.56,22.56,0,0,0,2.19-4.16h-8.45a10.71,10.71,0,0,0-2,.2l-.26-.94a13.45,13.45,0,0,0,2.21.19h8.42c.87-1,1.06-1.1,1.25-1.1s.43.14,1.37.89c.43.36.57.52.57.72s-.21.43-.84.67a25.53,25.53,0,0,1-2,3.53h1c.92-.92,1.11-1.06,1.3-1.06s.46.14,1.37.82c.41.31.55.48.55.67s-.1.31-.72.72v.89c0,2.32.1,3.91.1,4.44s-.36.88-1.37.88c-.75,0-1-.19-1-.81V51.7Zm9.89-5.47h-9.89v4.92h9.89ZM147.06,38c.79-1,1.08-1.22,1.25-1.22s.5.19,1.41.86c.41.32.6.51.6.68s-.07.24-.31.24h-5.88a7.58,7.58,0,0,0-1.39.14l-.27-.89a6.76,6.76,0,0,0,1.61.19Z"/><path class="cls-1" d="M167.84,38.57a3.32,3.32,0,0,1-3.17-1.92.65.65,0,0,1-.12-.31.24.24,0,0,1,.22-.22c.09,0,.12.05.21.15a3.88,3.88,0,0,0,3,.86,36.07,36.07,0,0,0,4.92-.55V34.23c0-.7,0-1-.21-1.2a1.47,1.47,0,0,0-.68-.29,4.16,4.16,0,0,0-.55-.1c-.09,0-.14,0-.14-.16s.09-.27.29-.46a1.54,1.54,0,0,1,1-.41,3.64,3.64,0,0,1,1.84.6c.87.51,1,.94,1,1.23a.94.94,0,0,1-.34.67,1.16,1.16,0,0,0-.46.91c0,.58-.09.89-.12,1.32.92-.14,1.66-.29,2.36-.43a5.39,5.39,0,0,0,1.36-.43,1.79,1.79,0,0,1,1.18-.24c.89,0,1.73.62,1.73,1.22s-.31.86-1.59,1c-1.63.15-3.57.34-5.11.56,0,1.15,0,2.32,0,3.6a10.29,10.29,0,0,0,2.09-.51c.34-.14.29-.31.1-.77a7.86,7.86,0,0,0-.56-.91c-.09-.21.05-.31.27-.14.43.31.91.62,1.32.86a1.32,1.32,0,0,0,.89.22c.72,0,1.12.31,1.12.86s-.52.72-1.29,1a19.4,19.4,0,0,1-3.89,1c0,1,.17,2.76.24,3.72A17.93,17.93,0,0,1,179.58,49c.77.45,1.44,1,1.44,1.89a1,1,0,0,1-.91,1.06,1.23,1.23,0,0,1-.89-.39,15.26,15.26,0,0,0-4.32-2.9c.12,2.18-1,3.58-3.75,3.58a5.47,5.47,0,0,1-3.05-.82A2.49,2.49,0,0,1,167,49.37a2.37,2.37,0,0,1,1.2-1.92,5.72,5.72,0,0,1,2.28-.72,15.5,15.5,0,0,1,2.57,0c0-1.13,0-2.28-.07-3.31-.62,0-1.54,0-1.94,0-2.38,0-3.44-.79-3.44-2a3.05,3.05,0,0,1,.91-2,8.48,8.48,0,0,1,1.18-.94C169.23,38.55,168.44,38.57,167.84,38.57Zm2.43,9.31a4.61,4.61,0,0,0-1.85.46,1.2,1.2,0,0,0-.6,1,1.28,1.28,0,0,0,.77,1.08,4.41,4.41,0,0,0,2.06.32,2.58,2.58,0,0,0,2-.68,2.89,2.89,0,0,0,.38-1.89A8.88,8.88,0,0,0,170.27,47.88Zm-1-8.32a2,2,0,0,0-.67,1.32c0,.6.52,1,1.92,1,.64,0,1.48,0,2.4-.14,0-1.27,0-2.28,0-3.55-.79.09-1.37.19-2.26.31A5,5,0,0,0,169.26,39.56Z"/><path class="cls-1" d="M195.18,47.91c0,.65,0,1.17,0,1.63,0,1.61-.48,2.62-1.18,2.62-.43,0-.72-.2-.84-.89a4.93,4.93,0,0,0-.41-1.56,8.82,8.82,0,0,0-1.65-2.16c-.51.67-.72,1-.87,1.17a1,1,0,0,1-.88.41c-.34,0-.68-.29-.68-1a2.35,2.35,0,0,1,.58-1.54l.48-.48a32.17,32.17,0,0,0,3.94-4.77c0-.75,0-1.35.07-2a14.41,14.41,0,0,0-2.31,1.2.62.62,0,0,1-.55.27,1,1,0,0,1-.69-.39,3.12,3.12,0,0,1-.92-1.8,1.57,1.57,0,0,1,.08-.57c0-.12.09-.17.19-.17s.21.14.33.33c.36.53.6.77,1.11.77a2.65,2.65,0,0,0,.91-.21c.7-.27,1.32-.56,1.92-.8.05-1.48.1-2.52.1-3.38,0-1.25-.2-1.54-1.32-1.92-.29-.1-.32-.14-.32-.24s.1-.19.24-.29a1.87,1.87,0,0,1,.87-.26,2.29,2.29,0,0,1,1.05.24A4,4,0,0,1,196,33.24a1,1,0,0,1,.22.65.76.76,0,0,1-.29.58,1.08,1.08,0,0,0-.34.74c-.05.58-.12,1.15-.17,2.33a.88.88,0,0,1,.36-.1c.1,0,.24.05.53.32a.91.91,0,0,1,.34.6c0,.16-.07.24-.27.48-.5.69-.81,1.1-1.15,1.63,0,.21,0,.53,0,.74a46.66,46.66,0,0,1,3.45-3.43A6.27,6.27,0,0,1,202.19,36a2.41,2.41,0,0,1,2.61,2.57,37.56,37.56,0,0,1-.36,3.91c-.26,2.28-.36,3.58-.36,4.2,0,1.4.24,2,1.27,2,1.61,0,3.36-1.61,4.56-3.68.1-.16.22-.48.39-.48a.3.3,0,0,1,.29.29,1.74,1.74,0,0,1-.12.46A9,9,0,0,1,208.38,49a4.73,4.73,0,0,1-3.29,1.52c-1.92,0-2.9-1-2.9-3.32,0-1.08.07-2.56.26-4.84.12-1.42.17-2.52.17-3.58,0-1.22-.27-1.68-1.11-1.68-.67,0-1.32.38-2.59,1.58a39.15,39.15,0,0,0-3.79,3.82C195.13,44.52,195.13,46.71,195.18,47.91ZM193,48.1c.41.19.6.12.6-.26V44.07c-.77,1-1.54,2.16-2.16,3A8.11,8.11,0,0,0,193,48.1Z"/><path class="cls-1" d="M228.61,36.17c0,.55-.29.87-1,1.13s-2,.55-3.55.91c-1.34,3.15-2.71,6.24-3.86,8.67a4.93,4.93,0,0,1-1,1.51,1.28,1.28,0,0,1-.63.19.92.92,0,0,1-.74-.31,1,1,0,0,1-.34-.77,4,4,0,0,1,.79-1.58,51,51,0,0,0,4-7.3c-.57.07-1.63.22-2.18.22a3,3,0,0,1-1.56-.32A3.18,3.18,0,0,1,217.11,37a1,1,0,0,1-.09-.41c0-.12.12-.14.17-.14s.12,0,.26.14a2.79,2.79,0,0,0,1.08.58,4.79,4.79,0,0,0,1.17.12,18.08,18.08,0,0,0,3.24-.46,9.24,9.24,0,0,0,.8-3c0-.58-.17-.72-1.44-1.2-.12-.05-.2-.12-.2-.22a.41.41,0,0,1,.25-.31,2,2,0,0,1,1.05-.24,5.06,5.06,0,0,1,2.4.79c.51.34.53.6.53.89a.74.74,0,0,1-.31.62c-.34.27-.58.67-1.2,2.21a6.27,6.27,0,0,0,1.58-.72,2.05,2.05,0,0,1,1-.31C228.18,35.36,228.61,35.84,228.61,36.17Zm.7,2.91a8.09,8.09,0,0,0-1.13,0c-.19,0-.34,0-.46,0s-.24,0-.24-.17.12-.24.29-.31a5.76,5.76,0,0,1,2.5-.48,8.36,8.36,0,0,1,4,1.05,1.87,1.87,0,0,1,1.11,1.56c0,.56-.24.94-.84.94a2,2,0,0,1-.94-.38,2.73,2.73,0,0,0-1.87-.84,1.71,1.71,0,0,0-1.08.31,1.69,1.69,0,0,0-.89,1.68,19.3,19.3,0,0,0,.82,4.46c3.69,1.25,4.68,2.23,4.68,3.17a1,1,0,0,1-.94,1.06,1.89,1.89,0,0,1-1.39-.68,10.43,10.43,0,0,0-2.26-1.68,3,3,0,0,1-1.2,2.64,4.69,4.69,0,0,1-2.78.68,4.34,4.34,0,0,1-2.74-.91,2.39,2.39,0,0,1-1-1.83,2.52,2.52,0,0,1,1-2,4.89,4.89,0,0,1,2.88-.87,12.79,12.79,0,0,1,1.73.12c-.1-1.27-.17-2.54-.17-3.57,0-2.07,1.61-3,3.19-3.31A4.87,4.87,0,0,0,229.31,39.08Zm-2.69,8.71a4.07,4.07,0,0,0-2.07.38,1.23,1.23,0,0,0,0,2.11,3.54,3.54,0,0,0,1.71.39,3,3,0,0,0,2-.58,2.06,2.06,0,0,0,.53-1.56,2,2,0,0,0,0-.33A6.15,6.15,0,0,0,226.62,47.79Z"/><path class="cls-1" d="M249.9,46.23a7.61,7.61,0,0,0-.31,1.27,1.44,1.44,0,0,0,.16.65,2.17,2.17,0,0,1,.39,1,.93.93,0,0,1-.91,1,3.39,3.39,0,0,1-2.31-1,7.92,7.92,0,0,1-2.49-4.7,22.06,22.06,0,0,1-.32-3.94c0-1,0-2.16,0-3.33a2.56,2.56,0,0,0-1-1.8c-.12-.12-.17-.12-.17-.27s.1-.24.5-.24a3,3,0,0,1,1.73.87,3.07,3.07,0,0,1,1.37,2.11,1.67,1.67,0,0,1-.21.93,11.47,11.47,0,0,0-.41,3.46,9.45,9.45,0,0,0,.52,3.36c.27.7.65,1.18,1.06,1.18a.88.88,0,0,0,.58-.44c.74-1,1.37-2.13,2.68-4.2.2-.28.37-.48.49-.48s.24,0,.24.17a1,1,0,0,1-.1.39A32.21,32.21,0,0,0,249.9,46.23Zm8.33-7.59a8.27,8.27,0,0,1,3.21,3.22,7.44,7.44,0,0,1,.87,3.14,2.81,2.81,0,0,1-.36,1.73.93.93,0,0,1-.84.51.88.88,0,0,1-.89-.46c-.43-.67-1-1.08-2.52-1.2-.29,0-.36-.1-.36-.24s.21-.19.45-.26a17.41,17.41,0,0,0,1.68-.58.55.55,0,0,0,.39-.58,6.74,6.74,0,0,0-1.15-3,8.12,8.12,0,0,0-2.5-2.45c-.17-.12-.31-.19-.31-.34s.09-.17.21-.17A5.4,5.4,0,0,1,258.23,38.64Z"/><path class="cls-1" d="M275.75,47.91a2.57,2.57,0,0,0,2.78,2.86,3.77,3.77,0,0,0,3-1.16,4.25,4.25,0,0,0,1-3A6.65,6.65,0,0,0,281.39,43a9.29,9.29,0,0,0-2.26-2.19c-.17-.12-.24-.21-.24-.33s.07-.17.19-.17a1.35,1.35,0,0,1,.36.09,9.72,9.72,0,0,1,3.48,2.21,6.19,6.19,0,0,1,1.83,4.08,4.78,4.78,0,0,1-1.42,3.63,6.82,6.82,0,0,1-4.44,1.58c-3.12,0-4.51-2-4.51-4.7,0-.51,0-1,.07-1.61a5.8,5.8,0,0,1-2.28-1.2,2.79,2.79,0,0,1-1-2.21c0-1.34.89-2.3,2.11-3.43A5.39,5.39,0,0,1,271,37.42a2.37,2.37,0,0,1-.74-1.61c0-.26,0-.41.16-.41s.17.1.34.36c.29.46,1,1,2.71,1.3a9.19,9.19,0,0,0,1.15.12,1.86,1.86,0,0,1,1,.34c.29-1.92.48-2.93.51-3.72s-.27-.94-1-1.37c-.24-.15-.34-.19-.34-.29s.12-.24.32-.36a1.58,1.58,0,0,1,.84-.17,5.3,5.3,0,0,1,2.35,1.15,1.51,1.51,0,0,1,.67,1.13.88.88,0,0,1-.41.75c-.14.09-.29.28-.45.81a65.06,65.06,0,0,0-1.9,8.4c.48,0,.77,0,1.22,0a1.77,1.77,0,0,1,.89.31.94.94,0,0,1,.39.84c0,.38-.39.74-.94.84a11.58,11.58,0,0,1-1.85.09C275.77,46.71,275.75,47.28,275.75,47.91Zm-.92-8.64a2.69,2.69,0,0,0-.86.29,4.74,4.74,0,0,0-1.2.81,2.1,2.1,0,0,0-.82,1.51c0,.92.63,1.61,2.74,1.85.22-1.68.41-3.12.62-4.53Z"/><path class="cls-1" d="M303,37.49a9.88,9.88,0,0,1-.53,2.55A17.62,17.62,0,0,1,301,43.49a20.13,20.13,0,0,1-2.67,4,2.62,2.62,0,0,1-2,1,2.41,2.41,0,0,1-1.82-.93c-.87-1-1.32-2.19-1.32-4.37a7.47,7.47,0,0,1,1-3.65,9.26,9.26,0,0,1,3.24-3.36,10.74,10.74,0,0,1,5.81-1.56,9.21,9.21,0,0,1,5.95,1.87,7.38,7.38,0,0,1,2.81,6.1,6.51,6.51,0,0,1-2.21,4.94,10.5,10.5,0,0,1-3.55,2.14,17.25,17.25,0,0,1-4.92.91c-.36,0-.53,0-.53-.24s.14-.24.45-.31a11.85,11.85,0,0,0,6.17-3.14,7.14,7.14,0,0,0,2.16-5.57,5.23,5.23,0,0,0-2.11-4.51,7.54,7.54,0,0,0-3.84-1.3,12.86,12.86,0,0,0-1.51,0A3.36,3.36,0,0,1,303,37.49Zm-5.84.1a7.34,7.34,0,0,0-2,2.95,6.25,6.25,0,0,0-.4,2.28,4.71,4.71,0,0,0,.6,2.59,1.54,1.54,0,0,0,1.05.79c.39,0,.75-.24,1.66-1.53a29.1,29.1,0,0,0,3.21-5.88,5.54,5.54,0,0,0,.51-2,1.21,1.21,0,0,0-.43-1.08A8,8,0,0,0,297.15,37.59Z"/><line class="cls-4" x1="29.5" y1="60.5" x2="323" y2="60.5"/><path class="cls-3" d="M548.55,97a10.47,10.47,0,0,0,2.85,1.93,12.93,12.93,0,0,0,4.08,1c.08,0,.08.11,0,.15-.43.17-.59.4-.79,1-.14.44-.19.48-.35.48a2.18,2.18,0,0,1-.59-.16,12.55,12.55,0,0,1-2.27-1.13,11.42,11.42,0,0,1-3-2.79c0,1.52,0,2,0,2.55s-.29.61-.9.61c-.38,0-.61-.15-.61-.5,0-.61,0-1.34,0-2.22a12.53,12.53,0,0,1-3.32,2.54,8.73,8.73,0,0,1,1.46.74h5.25c.53-.61.65-.71.78-.71s.31.1.92.56c.3.23.38.35.38.48s-.1.26-.42.48v.8c0,2,.08,3.46.08,3.94s-.3.66-.89.66-.66-.16-.66-.5v-.46h-5.59v.37c0,.4-.28.6-.89.6-.45,0-.64-.16-.64-.53,0-.59.08-1.23.08-3.55,0-.93,0-1.84-.07-2.77a15.53,15.53,0,0,1-3.12,1.17c-.08,0-.16-.16-.08-.19A13.74,13.74,0,0,0,545.91,97h-3.78a5.92,5.92,0,0,0-.94.1l-.18-.59a5.07,5.07,0,0,0,1.07.13h5V95a48.61,48.61,0,0,1-4.9.11c-.08,0-.1-.22,0-.22a33.43,33.43,0,0,0,8-1.54,12.76,12.76,0,0,0,1.21-.54c1.32.88,1.54,1.08,1.54,1.28s-.24.3-1,.14a25.35,25.35,0,0,1-3.45.62v1.8h3.57c.84-1,1-1.09,1.15-1.09s.32.13,1.09.77c.33.27.46.41.46.52s0,.16-.21.16Zm2.11,4.53h-5.59v2h5.59Zm0,2.33h-5.59V106h5.59Z"/><path class="cls-3" d="M564.8,94.94c0-.77,0-1.38-.06-1.88,1.89.2,2,.39,2,.56s-.21.29-.56.42v1.71h1.69v-.81c0-.77,0-1.38-.08-1.88,1.89.2,2,.39,2,.56s-.18.29-.53.42v1.71h1.55c.61-.69.74-.78.87-.78s.28.09.91.61c.27.24.37.35.37.48s-.08.24-.45.51v6.48c.53-1,.72-1.09.83-1.09s.29.13.93.77c.25.26.38.42.38.53s0,.16-.21.16H561.06a7.48,7.48,0,0,0-1.17.1l-.18-.6a6.64,6.64,0,0,0,1.31.13h.58V98.54a33.9,33.9,0,0,0-.14-3.62,8.71,8.71,0,0,1,1.81.83h1.53Zm.45,10.37a10,10,0,0,1-5.09,2.22c-.08,0-.14-.19-.06-.22a11.18,11.18,0,0,0,3-2.13,5.51,5.51,0,0,0,1-1.25c1.54.67,1.9.87,1.9,1.06S565.78,105.31,565.25,105.31Zm-2.18-9.19v3.11h1.73V96.12Zm0,3.47v3.46h1.73V99.59Zm3.16-3.47v3.11h1.69V96.12Zm0,6.93h1.69V99.59h-1.69Zm6.13,4.4c-.39,0-.53-.12-.9-.62a9,9,0,0,0-3.22-2.5c-.06,0,0-.19,0-.17,3.33.38,4.88,1.13,4.88,2.38A.83.83,0,0,1,572.36,107.45Zm-3-8.22h1.78V96.12h-1.78Zm0,3.82h1.78V99.59h-1.78Z"/><path class="cls-3" d="M582.64,104a2.43,2.43,0,0,0,1.52,1.34,13.37,13.37,0,0,0,3.64.37,50.92,50.92,0,0,0,6.14-.4c.08,0,.08.14,0,.17a1,1,0,0,0-.63.9c0,.5-.08.54-.38.58-.85.11-2.75.14-3.91.14-2.62,0-4.22-.21-5.25-.85a4,4,0,0,1-1.6-2.35,11.16,11.16,0,0,1-1.84,2.42c.07.6-.06.73-.27.73s-.59-.57-1.18-2a8.61,8.61,0,0,0,1.15-.42,7.07,7.07,0,0,0,1.1-.62V99.85h-1.1a3,3,0,0,0-.88.13l-.18-.64a4,4,0,0,0,1.06.14h1c.46-.64.59-.73.72-.73s.3.09.94.56c.31.22.4.33.4.46s0,.16-.48.51Zm-.89-7.61c-.37,0-.56-.19-.79-1a4.71,4.71,0,0,0-1-1.87c-.07-.07,0-.16.12-.15,1.88.47,2.57,1.24,2.57,2.05A.87.87,0,0,1,581.75,96.39Zm8.72.61c.56-.69.69-.78.81-.78s.29.09,1,.64c.29.24.38.35.38.48s-.09.25-.49.46A10.83,10.83,0,0,1,590.6,101c1.74,1.17,2.29,2.15,2.29,2.83s-.31,1-.72,1-.55-.21-.9-.74a17.66,17.66,0,0,0-1.5-2.08,11.75,11.75,0,0,1-5.24,3.09c-.08,0-.16-.16-.09-.19a13.51,13.51,0,0,0,4.48-3.83,13.8,13.8,0,0,0-2.23-1.84c-.06,0,0-.24.11-.2a26.39,26.39,0,0,1,2.63,1.26,10.27,10.27,0,0,0,1.15-2.88h-4.31a17.88,17.88,0,0,1-.38,3.3,7,7,0,0,1-2.48,3.92c-.06,0-.19-.08-.14-.15a8.42,8.42,0,0,0,1.42-4.06,36.5,36.5,0,0,0,.18-4.48,24.55,24.55,0,0,0-.13-2.84,11.43,11.43,0,0,1,1.76,1h4.4c.7-.94.83-1,1-1s.31.1,1.09.7c.37.31.46.42.46.55s-.06.16-.24.16h-6.83v.53c0,.75,0,1.44-.05,2.06Z"/><path class="cls-3" d="M601.75,96.34a20.64,20.64,0,0,0-.27,2.82c-.13,1.68-.2,3.14-.2,4.15a2.12,2.12,0,0,0,.37,1.52,2.57,2.57,0,0,0,1.54.37,8,8,0,0,0,3.49-1,9.43,9.43,0,0,0,2.8-2.16c.09-.11.19-.21.29-.21a.15.15,0,0,1,.16.16,1.68,1.68,0,0,1-.21.45,9.25,9.25,0,0,1-2.79,2.85,7.19,7.19,0,0,1-4.27,1.29c-1.68,0-2.71-1.15-2.66-3.12.07-2.67.18-5.29.24-7.73,0-.59-.09-.85-.61-1s-.49-.18-.49-.28.11-.2.27-.28a2.08,2.08,0,0,1,.74-.15,2.48,2.48,0,0,1,1.53.72,1.13,1.13,0,0,1,.47.82.76.76,0,0,1-.23.54C601.86,96.17,601.78,96.22,601.75,96.34Z"/><rect class="cls-3" x="510.52" y="97.52" width="9.19" height="9.19" transform="translate(78.67 394.15) rotate(-45)"/><path class="cls-3" d="M541.83,143.1a9.16,9.16,0,0,1-1.51,1.09c-.06.05-.18-.09-.13-.16a14.64,14.64,0,0,0,2.28-3.38,10.09,10.09,0,0,0,.67-1.74c1.63.67,1.7.72,1.7.91s-.13.24-.55.34a13,13,0,0,1-1.28,1.76c.53.08.61.16.61.3s-.1.23-.42.39v6.82c0,.46-.27.67-.81.67-.34,0-.68-.15-.68-.61s.12-1.68.12-4.21Zm2.44-6.61a11.18,11.18,0,0,1-3.82,3.33c-.07,0-.18-.13-.11-.17a12.63,12.63,0,0,0,2.13-3,7.5,7.5,0,0,0,.59-1.47c1.25.43,1.89.78,1.89,1S544.76,136.46,544.27,136.49Zm4.13,1.36c.48-.64.68-.77.79-.77s.3.13.8.55c.21.18.33.32.33.43s0,.16-.2.16h-1.91v2.5h.45c.5-.64.69-.77.8-.77s.31.13.8.54c.21.18.34.32.34.44s-.05.16-.21.16h-2.18v2.46h.45c.4-.57.59-.7.7-.7s.31.13.77.51c.18.14.31.29.31.4s-.05.16-.21.16h-2v2.82a19.56,19.56,0,0,0,2.13-.45.17.17,0,0,1,.1.27,29.66,29.66,0,0,1-5.72,2.08c-.06.37-.16.53-.32.53s-.25-.18-.77-1.92c.29,0,.6,0,.92-.05v-3.5a10.83,10.83,0,0,0-.08-1.27c1.64.16,1.79.31,1.79.45s-.15.27-.42.4v3.81c.34,0,.69-.08,1-.13v-5.87h-1.46a5,5,0,0,0-.88.09l-.18-.59a3.92,3.92,0,0,0,1,.13h1.52v-2.5h-1a7.41,7.41,0,0,1-1.28,1.07c-.06.05-.19,0-.14-.11a10.74,10.74,0,0,0,1.18-2.46,8.82,8.82,0,0,0,.35-1.44c1.35.36,1.85.57,1.85.8s-.21.3-.69.33a6.54,6.54,0,0,1-1,1.44Zm4.87-1.15c.56-.67.69-.77.82-.77s.28.1.86.58c.26.22.35.33.35.46s-.09.28-.43.53v1.22c0,6.5,0,7.23,0,7.78a1.36,1.36,0,0,1-.35.94,1.48,1.48,0,0,1-1.09.42c-.19,0-.25-.1-.29-.42-.06-.54-.24-.73-.94-1-.08,0-.08-.19,0-.19h1c.19,0,.24-.06.24-.24v-8.91h-1.39v12.4c0,.42-.26.61-.82.61-.38,0-.59-.13-.59-.48,0-.62.07-1.74.07-10.63,0-1.48,0-2.13-.09-3.07a9.18,9.18,0,0,1,1.53.8Z"/><path class="cls-3" d="M564.52,147.54c0,.57-.25.77-.92.77-.48,0-.64-.18-.64-.63,0-.64,0-1.3,0-3.9,0-.31,0-.61,0-.92a13.33,13.33,0,0,1-3.34,2.37c-.06,0-.18-.13-.11-.17a16.49,16.49,0,0,0,4.7-6.37h-2.65a14.35,14.35,0,0,0-1.48.09l-.17-.59a10.73,10.73,0,0,0,1.66.13h2.79c.11-.27.21-.55.29-.82a11.39,11.39,0,0,0,.49-2.24c1.79.27,2.19.42,2.19.7s-.11.29-.6.44c-.24.68-.5,1.33-.76,1.92h5.43c.88-1.07,1.07-1.2,1.18-1.2s.33.13,1.2.83c.4.32.53.46.53.58s-.05.16-.21.16h-8.29a14.9,14.9,0,0,1-1.65,2.81l.47.29H567V141a15.68,15.68,0,0,0-.08-1.69c2,.2,2,.24,2,.48s-.12.27-.56.44v1.54h2.56c.61-.66.73-.75.86-.75s.29.09.9.61c.27.24.37.35.37.48s-.11.27-.44.46v.71c0,2.84,0,3,0,3.57a1.21,1.21,0,0,1-.44.94,1.94,1.94,0,0,1-1.23.38c-.29,0-.35,0-.38-.28-.08-.71-.27-.87-1.48-1.2-.08,0-.08-.2,0-.2.77,0,1.25.05,1.72.05.24,0,.29-.05.29-.29v-4.11h-2.77c0,3.74,0,6.34,0,7.22,0,.45-.29.64-.87.64s-.65-.15-.65-.59c0-.77.06-3,.08-7.27h-2.43Z"/><path class="cls-3" d="M582.07,138.83c0,.8-.05,1.62-.1,2.42H583c.49-.66.62-.76.75-.76s.29.1.83.6c.24.2.34.33.34.46s-.05.16-.39.42c-.17,3.36-.48,5.78-.89,6.62a1.81,1.81,0,0,1-.63.77,1.78,1.78,0,0,1-1.12.34c-.19,0-.25-.07-.27-.26-.1-.65-.32-.91-1.15-1.17-.08,0,0-.19,0-.19.72.07,1.14.08,1.31.08.48,0,.59-.08.75-.72a32.13,32.13,0,0,0,.56-5.82H582c-.32,4.16-1.21,6.29-3.23,8.13-.06,0-.21-.08-.16-.15,1.46-2.48,2.07-5.46,2.07-10.31v-.46h-.42a5.91,5.91,0,0,0-1,.1l-.18-.6a5.49,5.49,0,0,0,1.18.13h1v-1.93c0-.26,0-.65-.06-1.19,1.79.18,1.95.35,1.95.51s-.14.24-.45.4v2.21h.52c.57-.72.76-.85.88-.85s.3.13.83.61c.21.19.34.34.34.45s0,.16-.21.16Zm4.64-.4a9,9,0,0,1-2.08,2.19c-.07,0-.23-.05-.18-.11a11.88,11.88,0,0,0,1.47-3.17,9.94,9.94,0,0,0,.4-2.06c1.68.35,2,.49,2,.72s-.16.29-.57.35a10.89,10.89,0,0,1-.85,1.71h4.1c.78-1,1-1.09,1.08-1.09s.31.13,1,.76c.32.28.45.43.45.54s-.05.16-.21.16Zm.51,9.28c0,.55.1.64,2.14.64s2.41-.06,2.68-.24.38-.38.94-2.13c0-.08.21,0,.21,0,0,.48-.05,1.15-.05,1.45a.38.38,0,0,0,.24.42c.32.19.43.35.43.64s-.28.72-1,.88a15.78,15.78,0,0,1-3.06.21c-3.29,0-3.89-.24-3.89-1.51,0-.4,0-.8,0-2.46,0-.74,0-1.46,0-2.19a4.21,4.21,0,0,0-.94.36l-.31-.52a4.54,4.54,0,0,0,1-.18l.22-.06c0-1,0-2-.05-3.05,1.7.18,1.91.24,1.91.48s-.12.26-.5.42v1.76l1.28-.37v-1.13a20,20,0,0,0-.08-2.12c1.41.13,1.87.26,1.87.5s-.14.26-.51.37v2l1.22-.36c.49-.75.65-.93.83-.93a2.61,2.61,0,0,1,1.11.74.66.66,0,0,1,.19.32c0,.16-.11.27-.47.5a25.09,25.09,0,0,1-.25,3.31,1.76,1.76,0,0,1-.52,1,1.42,1.42,0,0,1-1,.36c-.21,0-.23,0-.23-.44s-.32-.7-.89-.94c0,.49,0,.86,0,1.07,0,.42-.24.58-.81.58s-.56-.11-.56-.53,0-1.65.06-3.91l-1.28.37Zm2.56-5.39c0,.5,0,1,0,1.47v1.46a4.57,4.57,0,0,0,.86.09.43.43,0,0,0,.47-.43,25.31,25.31,0,0,0,.17-3Z"/><path class="cls-3" d="M603,142.56a1.44,1.44,0,1,1-1.44-1.44A1.43,1.43,0,0,1,603,142.56Z"/><path class="cls-3" d="M615.62,143.41c0,2.06,0,3.52,0,4.05s-.3.62-.86.62-.66-.17-.66-.56,0-1.7.08-4.11h-1.3a8.64,8.64,0,0,1-.94,3.5,6.86,6.86,0,0,1-2.26,2.26c-.06.05-.22-.11-.17-.18a6.17,6.17,0,0,0,1.53-2.67,12.54,12.54,0,0,0,.42-2.91H611a6.35,6.35,0,0,0-1,.09l-.17-.59A5.12,5.12,0,0,0,611,143h.55c0-.46,0-1,0-1.54a13.58,13.58,0,0,0-.08-1.79c1.68.18,2,.26,2,.48s-.14.26-.42.37c0,.93,0,1.76-.06,2.48h1.28v-1.41a13.85,13.85,0,0,0-.08-1.9c1.59.17,2,.25,2,.49s-.1.27-.48.43V143h.19c.51-.75.71-.88.82-.88s.29.13.83.62c.21.2.34.36.34.47s0,.16-.21.16Zm3.3-4.56a17.17,17.17,0,0,0,.8,5,10,10,0,0,0,.56-1.14,8.85,8.85,0,0,0,.65-2.3c1.38.43,1.88.65,1.88.88s-.15.24-.56.33a14.75,14.75,0,0,1-1.86,3.68,7.31,7.31,0,0,0,1.73,2,1.28,1.28,0,0,0,.53.32c.17,0,.41-.42,1.13-1.79,0-.07.16-.05.15,0-.24,1.81-.26,1.9-.26,2s0,.3.3.7a1,1,0,0,1,.15.56c0,.44-.24.66-.71.66a3.66,3.66,0,0,1-1.84-.86,9.4,9.4,0,0,1-2.19-2.39,11.73,11.73,0,0,1-4.94,3.07c-.09,0-.18-.14-.12-.17a14.73,14.73,0,0,0,4.44-4,17.72,17.72,0,0,1-1.3-6.48h-6.55a8.34,8.34,0,0,0-1.12.09l-.17-.59a6.46,6.46,0,0,0,1.29.13h6.53c0-.42,0-.85,0-1.3,0-.91,0-1.12-.1-1.78,1.7.2,2.08.31,2.08.55s-.13.27-.51.5c0,.75,0,1.42,0,2h2.47c.6-.93.8-1.06.91-1.06s.3.13,1,.74c.32.27.45.41.45.53s0,.16-.21.16ZM621,138c-.29,0-.4-.11-.64-.72a3,3,0,0,0-.83-1.2c-.07-.05,0-.13,0-.12,1.41.16,2.12.58,2.12,1.25A.76.76,0,0,1,621,138Z"/><path class="cls-3" d="M638.25,137.42c.67-.72.8-.82.92-.82s.29.1,1,.73c.3.27.4.4.4.52s-.08.28-.7.47a16.44,16.44,0,0,1-5.51,5.66l0,0h5.35c.59-.67.72-.77.85-.77s.28.1.89.61c.27.24.37.35.37.48s-.11.24-.45.46v.76c0,2,.07,3.31.07,3.76s-.31.62-1,.62-.66-.14-.66-.56V149h-5.57v.38c0,.45-.27.62-.91.62s-.67-.14-.67-.57c0-.66.09-1.31.09-4,0-.19,0-.4,0-.59a24.6,24.6,0,0,1-3.91,1.46c-.08,0-.16-.16-.08-.19a21.39,21.39,0,0,0,5.86-3.75.57.57,0,0,1-.18,0c-.34,0-.51-.21-.67-.78a3.67,3.67,0,0,0-1-1.83,14.74,14.74,0,0,1-3.49,2.1c-.08,0-.19-.11-.13-.16a15.16,15.16,0,0,0,4.1-4.4,9.67,9.67,0,0,0,1-2.16c1.6.37,2,.53,2,.8s-.13.3-.61.43c-.2.37-.43.7-.65,1Zm-3.57.37a12.38,12.38,0,0,1-1.72,1.82c1.39.37,2.24,1.08,2.24,1.86a1,1,0,0,1-.09.43,17.16,17.16,0,0,0,3.21-4.11Zm5.15,6.58h-5.57v4.21h5.57Z"/><path class="cls-3" d="M652,142.8c0,1.92.05,5.55.05,6.55,0,.46-.3.64-.89.64s-.63-.13-.63-.52c0-.62.16-3.33.19-5.63a11.22,11.22,0,0,1-3,3.52c-.06,0-.17-.06-.13-.13a18.66,18.66,0,0,0,2.92-6.06h-1.44a6,6,0,0,0-1,.09l-.18-.59a4.49,4.49,0,0,0,1.07.13h1.63v-3.36c0-.91,0-1.43-.06-2.16,1.78.25,1.92.28,1.92.52s-.13.24-.5.42v4.58h.77c.5-.69.69-.82.8-.82s.31.13.84.58c.22.19.35.33.35.45s0,.16-.21.16H652v1.18c1.46.37,2.34,1,2.34,1.86a.77.77,0,0,1-.69.77c-.35,0-.59-.08-.78-.76a3.73,3.73,0,0,0-.87-1.47Zm-2.48-2.74c-.4,0-.51-.17-.62-1.1a6.14,6.14,0,0,0-.61-2.29c0-.07.07-.16.13-.11,1.2.89,1.78,1.74,1.78,2.56C650.23,139.65,650,140.06,649.55,140.06Zm4.87-2.37a12,12,0,0,1-1.82,2.4c-.05.07-.2,0-.16-.08a19.56,19.56,0,0,0,.68-2.27,8.81,8.81,0,0,0,.23-1.26c1.36.52,1.68.7,1.68.88S654.85,137.65,654.42,137.69Zm6.31,6.73c.48-.95.6-1.09.73-1.09s.32.09,1,.49c.29.18.39.28.39.4s-.07.16-.18.2l-2,.38c0,2.35.07,3.78.07,4.47,0,.48-.29.68-.93.68s-.69-.16-.69-.56c0-.73,0-2.09,0-4.3l-3.91.73a7.24,7.24,0,0,0-1.12.34l-.3-.58a6.43,6.43,0,0,0,1.28-.11l4-.75c0-1.63,0-3.7,0-6.26,0-1.46,0-2.08-.08-3,1.67.16,2.1.27,2.1.55s-.11.22-.53.43V139c0,2.19,0,4,0,5.46Zm-3.73-.87c-.36,0-.52-.13-.68-.56a3.62,3.62,0,0,0-1.36-1.81c-.06-.05,0-.14.07-.14,1.85.17,2.74.69,2.74,1.6A.82.82,0,0,1,657,143.55Zm.49-3.79c-.37,0-.41-.07-.83-1a3.1,3.1,0,0,0-1.15-1.38.08.08,0,0,1,0-.14c1.79.16,2.75.73,2.75,1.64A.82.82,0,0,1,657.49,139.76Z"/><rect class="cls-3" x="510.52" y="139.94" width="9.19" height="9.19" transform="translate(48.67 406.57) rotate(-45)"/></g></g></svg>