<svg xmlns="http://www.w3.org/2000/svg" viewBox="0 0 1378 190"><defs><style>.cls-1,.cls-4{fill:#a67d65;}.cls-2{fill:#fff;}.cls-3{fill:#091911;}.cls-4{stroke:#cc7a49;stroke-miterlimit:10;}</style></defs><g id="レイヤー_2" data-name="レイヤー 2"><g id="レイヤー_4" data-name="レイヤー 4"><rect class="cls-1" width="1378" height="190" rx="5"/><rect class="cls-2" x="5" y="5" width="1368" height="180" rx="5"/><rect class="cls-3" x="1095.35" y="97.79" width="8.49" height="8.49" transform="translate(249.91 807.41) rotate(-45)"/><path class="cls-3" d="M1123.13,98.81c-.09,0-.2-.14-.13-.2a18.55,18.55,0,0,0,5.76-5.85A13,13,0,0,0,1130,90c2.54.69,2.56.71,2.56.92s-.14.25-.79.43a12.88,12.88,0,0,0,4.12,3.82,13.3,13.3,0,0,0,4.23,1.46c.09,0,.09.23,0,.23-.57.06-1,.51-1.24,1.48-.07.25-.16.34-.3.34a2.47,2.47,0,0,1-.85-.36,14.74,14.74,0,0,1-6.19-6.62A15.83,15.83,0,0,1,1123.13,98.81Zm7.83,1.64a21.38,21.38,0,0,1-2.84,4c2.25,0,4.5-.11,6.75-.24a7.47,7.47,0,0,0-1.77-2.32c-.07,0,0-.22.11-.18,2.59,1,4.13,2.29,4.13,3.53a1.12,1.12,0,0,1-1,1.22c-.53,0-.64-.12-1.09-1.29-.07-.18-.12-.35-.19-.51a62.27,62.27,0,0,1-9.28,1.51c-.12.55-.21.69-.43.69s-.29,0-.95-2.5a21.72,21.72,0,0,0,2.32.09h.67a20.85,20.85,0,0,0,1.18-4h-3.15a7.85,7.85,0,0,0-1.26.11l-.2-.67a7.5,7.5,0,0,0,1.46.14h10.66c.87-1.08,1.08-1.22,1.21-1.22s.36.14,1.22.85c.4.32.54.48.54.61s0,.18-.23.18ZM1132.2,97c.8-1,1-1.13,1.14-1.13s.34.14,1.11.79c.35.29.49.45.49.58s0,.18-.23.18h-6.22a5.52,5.52,0,0,0-1.06.11l-.2-.67a6,6,0,0,0,1.3.14Z"/><path class="cls-3" d="M1151.16,96.29c.46-.52.61-.63.75-.63s.31.11,1,.67c.27.25.38.39.38.54s-.19.32-.6.43c-1.78,2.47-4.3,3.83-7.87,4.3-.09,0-.16-.21-.07-.25a13.78,13.78,0,0,0,4.07-2.07.5.5,0,0,1-.16,0c-.31,0-.43-.13-.58-.6a1.67,1.67,0,0,0-.59-.93,15.35,15.35,0,0,1-2.6,1.29c-.08,0-.21-.18-.14-.23a12.44,12.44,0,0,0,3.13-3,4,4,0,0,0,.58-1.09h-1.75a8.4,8.4,0,0,0-1.22.1l-.2-.66a7.5,7.5,0,0,0,1.46.14H1158c.85-.93,1.06-1.08,1.19-1.08s.36.15,1.15.76c.35.29.49.43.49.56s0,.18-.23.18h-11.78c1.37.37,1.58.5,1.58.7s-.16.29-.64.32c-.17.2-.35.38-.51.56Zm4.79-4c0,.42,0,.7,0,.83,0,.41-.3.6-1,.6-.45,0-.65-.15-.65-.49,0-.13,0-.41,0-.94h-3.15c0,.44,0,.74,0,.89,0,.37-.31.57-.9.57s-.74-.16-.74-.52c0-.13,0-.41,0-.94h-3.23a8.2,8.2,0,0,0-1.2.11l-.2-.67a7.34,7.34,0,0,0,1.44.15h3.19v-.45a8.81,8.81,0,0,0-.06-1.33c2,.18,2.23.23,2.23.48s-.16.31-.59.43v.87h3.15v-.29a15,15,0,0,0-.07-1.51c1.73.16,2.2.25,2.2.5s-.15.29-.54.45v.85h2.28c.9-1,1.12-1.17,1.25-1.17s.36.14,1.22.83c.38.3.52.45.52.57s0,.18-.23.18Zm-4.54,10.32a4,4,0,0,1-1.28,2.54,8.46,8.46,0,0,1-4.88,1.71c-.09,0-.2-.24-.11-.27,2.29-.79,3.23-1.39,4-2.63a3.7,3.7,0,0,0,.5-1.35h-3.17a8.57,8.57,0,0,0-1.22.11l-.2-.67a7.41,7.41,0,0,0,1.44.15h3.19c0-.22,0-.47,0-.72s0-.53,0-1c2.16.29,2.32.36,2.32.6s-.18.32-.58.48v.62h2.81c0-.45,0-.89-.09-1.55,1.71.16,2.25.29,2.25.54s-.14.29-.5.43v.58h2.32c.88-1,1.1-1.1,1.23-1.1s.38.14,1.19.75c.37.31.52.45.52.58s-.06.18-.24.18h-5c0,1.73.09,2.93.09,3.35s-.32.72-1,.72-.76-.2-.76-.65,0-1.33,0-3.33v-.09Zm-2.61-5.91a12.73,12.73,0,0,1-1.14.92c1.17.09,1.66.4,1.66,1a.8.8,0,0,1-.07.34,8.63,8.63,0,0,0,1.89-2.22Zm6.57.67a14.4,14.4,0,0,0,2.05-1.22,6,6,0,0,0,1-.94c1.2.85,1.56,1.12,1.56,1.31s-.16.31-.86.24a15.27,15.27,0,0,1-3.8,1.08v.68c0,.54.18.6,1.76.6,1.19,0,1.66,0,2-.27a4.51,4.51,0,0,0,1-1.55c0-.09.18-.07.18,0,0,.36-.11.88-.11,1.11s0,.24.22.33a.73.73,0,0,1,.45.63c0,.38-.25.63-.83.81a10.82,10.82,0,0,1-2.86.25c-2.79,0-3.31-.31-3.31-1.78,0-.17,0-.35,0-1,0-.9,0-1.8-.09-2.72,1.91.2,2.11.25,2.11.54s0,.2-.54.43Z"/><path class="cls-3" d="M1169.52,99.3a13.85,13.85,0,0,1-3.17,1.65c-.09,0-.22-.16-.15-.21a16.56,16.56,0,0,0,5.75-6.5h-4.07a4.53,4.53,0,0,0-1.14.14l-.2-.7a6.42,6.42,0,0,0,1.34.14h1.55v-2a14.49,14.49,0,0,0-.11-1.57c2.07.22,2.3.42,2.3.62s-.2.32-.57.5v2.5h.88c.52-.59.67-.7.81-.7s.3.11.92.74c.27.29.37.43.37.58s-.1.27-.55.45A13.91,13.91,0,0,1,1171.1,98c2,.36,3.19,1.17,3.19,2.16a.84.84,0,0,1-.85.9c-.4,0-.58-.14-.84-.75a4.62,4.62,0,0,0-1.5-1.93v2.25c0,2,.07,4.61.07,5.46,0,.5-.36.74-1,.74s-.79-.19-.79-.67.09-1.59.09-4Zm7.52,4.48c0,.92,0,1,2.07,1a2.53,2.53,0,0,0,1.37-.21c.52-.34.76-1.19,1.37-3.39,0-.09.25,0,.25.06,0,.83-.14,2-.14,2.48s0,.51.38.67.48.34.48.63c0,.5-.36.85-1.13,1.06a12.86,12.86,0,0,1-3.1.29c-2.68,0-3.31-.36-3.31-2,0-1.15,0-2.86,0-9,0-2.34,0-3.6-.11-5,1.91.16,2.48.31,2.48.61s-.14.33-.63.53Z"/><path class="cls-3" d="M1193,93.7c0,6.5,0,11,0,12.44,0,.47-.38.68-1,.68s-.81-.18-.81-.63c0-.84.06-2.77.09-6.08a15.7,15.7,0,0,1-2,1.74c0,.54-.12.81-.41.81s-.47-.48-1.05-2.14c.4-.07.89-.2,1.39-.34a16.67,16.67,0,0,0,2-.79c0-1.84,0-4.07,0-6.74a21.11,21.11,0,0,0-.09-2.45c2.3.26,2.39.27,2.39.56s-.16.29-.63.49Zm-3.25,3.51c-.53,0-.67-.31-.76-1.32a6,6,0,0,0-.7-2.32c0-.09.09-.2.16-.14,1.51.9,2.2,1.73,2.2,2.75A.93.93,0,0,1,1189.77,97.21Zm9.29-.72a10.27,10.27,0,0,0,2.21,5.18,8.3,8.3,0,0,0,3.42,2.63c.09,0,.07.13,0,.18a2.16,2.16,0,0,0-1.06,1.48c-.07.29-.18.36-.31.36a1.32,1.32,0,0,1-.66-.43,13.84,13.84,0,0,1-2.27-2.9,14.9,14.9,0,0,1-1.57-5.58c-.09.82-.2,1.54-.34,2.21-.76,3.28-2.56,5.66-5.1,6.7-.09,0-.19-.13-.12-.18a9.47,9.47,0,0,0,3-4.41,21.8,21.8,0,0,0,.93-5.24h-2.65a4.07,4.07,0,0,0-.91.11l-.2-.67a4,4,0,0,0,1.06.14h2.74c0-.88.07-1.81.07-2.86s0-1.69-.11-2.79c2.4.34,2.4.34,2.4.59s-.13.31-.58.51v.77c0,1.48,0,2.72-.11,3.78h2.68c.85-1.08,1.07-1.22,1.19-1.22s.34.14,1.16.86c.34.31.48.47.48.6s-.05.18-.23.18Zm2.84-1.87c-.38,0-.58-.2-.79-.89a5,5,0,0,0-1.15-1.91c-.06-.07,0-.19.12-.18,1.89.51,2.74,1.16,2.74,2A.92.92,0,0,1,1201.9,94.62Z"/><path class="cls-3" d="M78.49,136.38a4.06,4.06,0,0,1,2.33.65,2.89,2.89,0,0,1,1.4,2.41,2.66,2.66,0,0,1-1.17,2.27,3.63,3.63,0,0,1-2.27.7,3.79,3.79,0,0,1-3.19-1.6,3.66,3.66,0,0,1-.54-.94c0-.05.06-.09.11-.09a.28.28,0,0,1,.24.13,3.84,3.84,0,0,0,2.8,1.28,2.7,2.7,0,0,0,1.77-.6,2.12,2.12,0,0,0,.52-1.58,1.82,1.82,0,0,0-.86-1.64,2.76,2.76,0,0,0-1.44-.34,5.68,5.68,0,0,0-2.63.86c-.43.23-.81.47-1.17.68,0,1.07.07,1.71.11,2.36,0,.33,0,.54,0,.89a3.42,3.42,0,0,1-.14,1.15c-.25.65-.56.84-.88.84s-.51-.16-.62-.59a4.12,4.12,0,0,0-1.62-2.29,7.87,7.87,0,0,0-.83.78.87.87,0,0,1-.72.34,1.66,1.66,0,0,1-.79-.27,1.52,1.52,0,0,1-.79-1.19,1,1,0,0,1,.49-.94c.07,0,.1,0,.14.15a1.33,1.33,0,0,0,.2.43c.07.07.12.09.3.07a9.06,9.06,0,0,0,1.88-.88c.63-.36,1.45-.86,2-1.22,0-1.3,0-2.49,0-3.44a14.91,14.91,0,0,1-1.94.23,2.12,2.12,0,0,1-1.69-1,1.66,1.66,0,0,1-.4-.88c0-.15,0-.24.13-.24s.19.13.34.31a1.75,1.75,0,0,0,1.37.65,9.9,9.9,0,0,0,2.21-.31v-1.94a2.55,2.55,0,0,0-.07-.87c0-.28-.14-.36-.32-.41a1.65,1.65,0,0,0-.47-.09c-.27,0-.42-.05-.42-.14a.61.61,0,0,1,.29-.44,1.81,1.81,0,0,1,.79-.28,2.23,2.23,0,0,1,1.28.46c.52.38.78.74.78,1a.76.76,0,0,1-.17.49,1.92,1.92,0,0,0-.27.36,4.16,4.16,0,0,0-.19,1.44,4.64,4.64,0,0,0,1.24-.74,1.42,1.42,0,0,1,.86-.3c.74,0,1.08.28,1.08.59s0,.43-.48.72a10.26,10.26,0,0,1-1.19.58,14.41,14.41,0,0,1-1.59.5c0,.83,0,2.2,0,3.17A8.54,8.54,0,0,1,78.49,136.38Zm-6.91,4.27c.36.21.58.32.88.48a1.48,1.48,0,0,0,.6.2c.1,0,.18-.07.18-.25,0-.52,0-1.19,0-1.77C72.68,139.73,72,140.23,71.58,140.65Zm7.18-7.73a2.83,2.83,0,0,1,1.79-.59,3.75,3.75,0,0,1,2.39.86A2.4,2.4,0,0,1,83.8,135c0,.52-.27.83-.68.83a.92.92,0,0,1-.54-.17.81.81,0,0,0-.54-.23c-.14,0-.34,0-.56,0a4.68,4.68,0,0,0-.68.12,2.28,2.28,0,0,1-.43.09c-.06,0-.15,0-.15-.09s.07-.12.24-.23a12.19,12.19,0,0,0,1.18-.85.3.3,0,0,0,.13-.23.43.43,0,0,0-.07-.25,2.16,2.16,0,0,0-1.91-1,3,3,0,0,0-.76.1,1.24,1.24,0,0,1-.28.09c-.08,0-.13,0-.13-.09A.31.31,0,0,1,78.76,132.92Z"/><path class="cls-3" d="M94,136.85c0,2.16,0,6.24,0,7.36,0,.52-.34.72-1,.72-.48,0-.7-.14-.7-.58,0-.7.18-3.74.22-6.33a13,13,0,0,1-3.37,4c-.07.05-.2-.08-.14-.15A21,21,0,0,0,92.33,135H90.71a6.68,6.68,0,0,0-1.08.11l-.2-.67a5.3,5.3,0,0,0,1.21.15h1.84v-3.79a22.8,22.8,0,0,0-.08-2.43c2,.29,2.17.33,2.17.6s-.15.27-.56.47v5.15h.86c.56-.78.78-.92.9-.92s.34.14.94.64c.25.22.39.38.39.51s0,.18-.23.18H94v1.33c1.64.42,2.63,1.08,2.63,2.09a.86.86,0,0,1-.78.86c-.39,0-.66-.09-.88-.84a4.14,4.14,0,0,0-1-1.66Zm-2.79-3.08c-.45,0-.58-.2-.71-1.24a6.91,6.91,0,0,0-.68-2.58c0-.07.07-.18.14-.13,1.35,1,2,2,2,2.88C92,133.3,91.67,133.77,91.22,133.77Zm5.47-2.67a13.33,13.33,0,0,1-2,2.7c-.06.07-.22,0-.18-.09a24.72,24.72,0,0,0,.77-2.55,9.83,9.83,0,0,0,.25-1.43c1.53.6,1.89.8,1.89,1S97.18,131.05,96.69,131.1Zm7.09,7.56c.54-1.06.69-1.22.83-1.22s.36.11,1.08.56c.33.2.43.3.43.45a.21.21,0,0,1-.19.21l-2.31.44c0,2.64.07,4.25.07,5,0,.54-.32.77-1,.77-.56,0-.77-.18-.77-.63,0-.82,0-2.36,0-4.84l-4.39.83a7.26,7.26,0,0,0-1.26.38L95.9,140a7.2,7.2,0,0,0,1.44-.13l4.55-.84c0-1.84,0-4.16,0-7,0-1.64,0-2.34-.09-3.39,1.87.18,2.36.31,2.36.61s-.13.26-.59.49v2.88c0,2.47,0,4.48,0,6.14Zm-4.19-1c-.4,0-.58-.14-.76-.63a4,4,0,0,0-1.53-2,.1.1,0,0,1,.07-.17c2.09.2,3.08.78,3.08,1.81A.92.92,0,0,1,99.59,137.69Zm.56-4.27c-.42,0-.47-.07-.94-1.11a3.55,3.55,0,0,0-1.3-1.55.09.09,0,0,1,.06-.16c2,.18,3.1.83,3.1,1.85A.91.91,0,0,1,100.15,133.42Z"/><path class="cls-3" d="M114.6,139.33c.88-.31,1.75-.63,2.43-.92.09,0,.18.15.11.2a21.19,21.19,0,0,1-5,3.19c0,.57-.12.77-.38.77s-.48-.39-1.22-2.16a14.26,14.26,0,0,0,1.6-.34l.85-.24v-4.62h-.79a4.67,4.67,0,0,0-1,.11l-.2-.67a4.76,4.76,0,0,0,1.15.14H113v-4.26h-1a5.43,5.43,0,0,0-1,.1l-.2-.66a4.53,4.53,0,0,0,1.14.14h2.53c.64-.83.85-1,1-1s.36.14,1,.68c.29.24.43.4.43.53s-.05.18-.23.18H114.6v4.26h.14c.51-.73.72-.88.85-.88s.34.15.9.63c.21.2.36.36.36.49s0,.18-.24.18h-2Zm8,.4h1.24c.93-1,1.15-1.19,1.28-1.19s.36.14,1.18.83c.36.3.51.46.51.59s-.06.18-.24.18h-4v3.33h1.94c1-1.08,1.24-1.22,1.37-1.22s.36.14,1.22.86c.38.31.52.47.52.6s0,.18-.23.18H116.65a7.58,7.58,0,0,0-1.17.1l-.2-.66a6.12,6.12,0,0,0,1.32.14H121v-3.33h-2.62a7.25,7.25,0,0,0-1.14.11l-.2-.67a5.86,5.86,0,0,0,1.28.15H121v-3h-2.07v.45c0,.45-.3.63-1,.63-.51,0-.72-.18-.72-.63s.11-1.89.11-5.17c0-1.1,0-1.66-.11-3.31a18.05,18.05,0,0,1,1.87.93h5.69c.59-.68.74-.79.88-.79s.34.11,1.06.68c.33.27.44.4.44.54s-.17.35-.65.63v1.05c0,2.75.07,4.64.07,5.27,0,.47-.29.67-1,.67-.46,0-.66-.16-.66-.58v-.37h-2.23ZM121,132.94v-2.86h-2.07v2.86Zm0,3.4v-3h-2.07v3Zm3.86-3.4v-2.86h-2.23v2.86Zm0,3.4v-3h-2.23v3Z"/><path class="cls-3" d="M137.84,136.58a1.61,1.61,0,1,1-1.62-1.62A1.61,1.61,0,0,1,137.84,136.58Z"/><path class="cls-3" d="M155.68,136.38A4,4,0,0,1,158,137a2.89,2.89,0,0,1,1.4,2.41,2.66,2.66,0,0,1-1.17,2.27,3.6,3.6,0,0,1-2.26.7,3.78,3.78,0,0,1-3.19-1.6,3.66,3.66,0,0,1-.54-.94.1.1,0,0,1,.11-.09.27.27,0,0,1,.23.13,3.88,3.88,0,0,0,2.81,1.28,2.69,2.69,0,0,0,1.76-.6,2.09,2.09,0,0,0,.53-1.58,1.83,1.83,0,0,0-.87-1.64,2.74,2.74,0,0,0-1.44-.34,5.68,5.68,0,0,0-2.63.86c-.43.23-.81.47-1.17.68,0,1.07.07,1.71.11,2.36,0,.33,0,.54,0,.89a3.18,3.18,0,0,1-.15,1.15c-.25.65-.56.84-.88.84s-.5-.16-.61-.59a4.17,4.17,0,0,0-1.62-2.29,6.18,6.18,0,0,0-.83.78.89.89,0,0,1-.72.34,1.62,1.62,0,0,1-.79-.27,1.51,1.51,0,0,1-.8-1.19,1.07,1.07,0,0,1,.49-.94c.07,0,.11,0,.14.15a1.59,1.59,0,0,0,.2.43c.07.07.13.09.31.07a9,9,0,0,0,1.87-.88c.63-.36,1.46-.86,2-1.22,0-1.3,0-2.49,0-3.44a15.26,15.26,0,0,1-1.95.23,2.14,2.14,0,0,1-1.69-1,1.66,1.66,0,0,1-.4-.88c0-.15,0-.24.13-.24s.2.13.34.31a1.77,1.77,0,0,0,1.37.65,10,10,0,0,0,2.22-.31v-1.94a2.18,2.18,0,0,0-.08-.87c0-.28-.14-.36-.32-.41a1.65,1.65,0,0,0-.47-.09c-.27,0-.41-.05-.41-.14a.58.58,0,0,1,.29-.44,1.81,1.81,0,0,1,.79-.28,2.25,2.25,0,0,1,1.28.46c.52.38.77.74.77,1a.75.75,0,0,1-.16.49,1.92,1.92,0,0,0-.27.36,4.39,4.39,0,0,0-.2,1.44,4.32,4.32,0,0,0,1.24-.74,1.45,1.45,0,0,1,.87-.3c.74,0,1.08.28,1.08.59s-.06.43-.49.72a9.52,9.52,0,0,1-1.19.58,14.89,14.89,0,0,1-1.58.5c0,.83,0,2.2,0,3.17A8.5,8.5,0,0,1,155.68,136.38Zm-6.92,4.27c.36.21.58.32.89.48a1.45,1.45,0,0,0,.59.2c.11,0,.18-.07.18-.25,0-.52,0-1.19,0-1.77C149.86,139.73,149.21,140.23,148.76,140.65Zm7.19-7.73a2.8,2.8,0,0,1,1.78-.59,3.71,3.71,0,0,1,2.39.86A2.41,2.41,0,0,1,161,135c0,.52-.27.83-.69.83a.87.87,0,0,1-.53-.17.84.84,0,0,0-.55-.23c-.14,0-.34,0-.55,0a4.79,4.79,0,0,0-.69.12,2.28,2.28,0,0,1-.43.09c-.05,0-.14,0-.14-.09s.07-.12.23-.23a12.25,12.25,0,0,0,1.19-.85.32.32,0,0,0,.12-.23.37.37,0,0,0-.07-.25,2.16,2.16,0,0,0-1.91-1,3,3,0,0,0-.75.1,1.47,1.47,0,0,1-.29.09c-.07,0-.13,0-.13-.09A.32.32,0,0,1,156,132.92Z"/><path class="cls-3" d="M169.23,142.28a16.62,16.62,0,0,0,2.48-.61,4.72,4.72,0,0,0-1-1.76c-.05-.08.06-.22.15-.18,1.58.63,2.57,1.56,2.57,2.48a.89.89,0,0,1-.86.92c-.38,0-.49-.11-.74-1a24.52,24.52,0,0,1-4.07,2c-.11.47-.22.65-.43.65s-.31-.24-.88-2.11a9.35,9.35,0,0,0,1.24-.11v-9.18c-.42.29-.87.58-1.33.86-.08.06-.22-.12-.15-.18a13.2,13.2,0,0,0,2.72-3.6,11.3,11.3,0,0,0,.81-2c1.5.48,2,.72,2,.93s-.17.26-.63.31c1.82.52,2.77,1.19,2.77,2a.82.82,0,0,1-.76.85c-.43,0-.48-.09-1-1.07a5.6,5.6,0,0,0-1.24-1.49,13,13,0,0,1-2.72,3,12.42,12.42,0,0,1,1.13.58h.56v-1c0-.21,0-.57,0-1.11,1.81.18,2,.36,2,.54s-.19.28-.53.39v1.19h.54c.53-.56.67-.67.81-.67s.33.11.85.54c.23.22.34.35.34.49s0,.22-.41.45v.74c0,2.29.05,3.46.05,3.87s-.25.68-.9.68-.68-.14-.68-.61v-.23h-2.72ZM172,134h-2.72v2H172Zm-2.72,4.42H172v-2h-2.72Zm8.1,1.75a8.52,8.52,0,0,1-5.29,4.65c-.09,0-.2-.17-.13-.22a9.84,9.84,0,0,0,4-4.48,14.19,14.19,0,0,0,.86-5.37,5.84,5.84,0,0,0-.07-.94c1.55.13,2.16.29,2.16.56s-.12.31-.54.45a9.91,9.91,0,0,0,1.3,5.17,8.48,8.48,0,0,0,3.85,3.1c.09,0,.05.16,0,.18-.62.09-.87.38-1.16,1.28-.05.21-.16.3-.29.3a1.49,1.49,0,0,1-.61-.41,9.5,9.5,0,0,1-2.28-3.22,13,13,0,0,1-1-4.25A10,10,0,0,1,177.33,140.14Zm-.85-7.36a11.69,11.69,0,0,1-2.59,3.18c-.07.06-.25-.05-.2-.12a16.55,16.55,0,0,0,2-4.79,15.92,15.92,0,0,0,.41-2.49c1.75.44,2.27.63,2.27.89s-.18.34-.63.41a16.14,16.14,0,0,1-1,2.5h3.85c.65-.74.8-.84.94-.84s.31.1,1,.81c.33.32.44.46.44.61s-.18.3-.51.34-.34.09-.61.43a15.56,15.56,0,0,1-1.78,1.68c-.07.05-.22,0-.18-.13a15.5,15.5,0,0,0,.83-2.48Z"/><path class="cls-3" d="M192.76,137.08c.73-.18,1.42-.4,2-.59.09,0,.15.14.07.19a16.55,16.55,0,0,1-2.07,1.28c0,3.1,0,5.24,0,6.18,0,.57-.25.81-1,.81-.56,0-.74-.18-.74-.61,0-.85,0-2.72.07-5.6-.52.21-1.1.43-1.71.64-.06.47-.16.65-.38.65s-.43-.38-.9-2.16a8,8,0,0,0,1.62-.14l1.37-.25c0-1.91,0-3.14,0-4.38h-1.29a11,11,0,0,1-1.77,3.4c0,.08-.23,0-.19-.05a24.07,24.07,0,0,0,.9-4.47c.09-.7.12-1.38.14-2,1.51.39,2,.57,2,.81s-.13.25-.56.37c-.11.51-.24,1-.4,1.52h1.15v-1.64c0-1.62,0-1.93-.07-2.72,2.18.25,2.33.31,2.33.58s-.15.28-.63.5v3.28h.16c.52-.76.74-.9.86-.9s.33.14.87.64c.19.18.34.36.34.49s-.06.18-.24.18h-2Zm6.51-4.48a11.12,11.12,0,0,1-6,7.59c-.09,0-.2-.12-.13-.17a13.94,13.94,0,0,0,4.39-7.42h-1a11.71,11.71,0,0,1-2.67,3.2c-.07.06-.21-.07-.16-.14a15.82,15.82,0,0,0,2-4.68,11.91,11.91,0,0,0,.46-2.65c1.88.27,2.43.43,2.43.72s-.18.32-.68.45a17.65,17.65,0,0,1-1.19,2.68h5.49c.69-.75.83-.86,1-.86s.32.11,1,.66c.3.26.41.38.41.53s0,.18-.56.56c-.22,6.06-.45,8.28-1.08,10a2.32,2.32,0,0,1-2.32,1.66c-.31,0-.33,0-.42-.42-.16-.72-.72-1.15-2-1.45-.09,0-.08-.27,0-.27,1.07.07,1.95.1,2.09.1,1,0,1,0,1.32-1.38a50.16,50.16,0,0,0,.72-8.75H202c-1,5.67-3.3,8.87-7.71,10.89-.09,0-.2-.16-.12-.22,3.38-2.41,5.32-5.76,6.14-10.67Z"/><path class="cls-3" d="M70.19,99.7a.65.65,0,0,1,0,.27,4.33,4.33,0,0,0-.31,1.66,1.89,1.89,0,0,0,1,1.66,7.78,7.78,0,0,0,3.49.64,11.09,11.09,0,0,0,3.17-.37,5.06,5.06,0,0,1,1.13-.15c1.07,0,1.43.56,1.43,1s-.45.82-1.07.93a16.24,16.24,0,0,1-1.85.24c-.88.07-1.77.09-2.32.09a9.79,9.79,0,0,1-3.41-.6,3.94,3.94,0,0,1-1.67-1.26,2.6,2.6,0,0,1-.54-1.82,4.12,4.12,0,0,1,.74-2.23c.07-.11.14-.16.21-.16S70.19,99.63,70.19,99.7Zm.22-5.76c.38.5,1.17.76,2.83.76a9.54,9.54,0,0,0,3-.51,3.56,3.56,0,0,1,.66-.09,2.69,2.69,0,0,1,.74.09c.54.15.89.36.9.81s-.1.54-.48.69a5.74,5.74,0,0,1-1.19.16,14.41,14.41,0,0,0-2.67.49,10.76,10.76,0,0,0-2.34,1,2.8,2.8,0,0,1-.57.28c-.09,0-.13,0-.13-.1s.5-.53,1.68-1.46a3.94,3.94,0,0,1-2-.7A2.4,2.4,0,0,1,70.07,94c0-.13.05-.18.14-.18S70.35,93.87,70.41,93.94Zm10-.54a1.34,1.34,0,0,1,.67,1.08.61.61,0,0,1-.6.63.65.65,0,0,1-.61-.41,7,7,0,0,0-1.13-1.59c-.07-.07-.2-.16-.2-.23s0-.09.09-.11a.71.71,0,0,1,.29,0A3.47,3.47,0,0,1,80.4,93.4Zm1.66-1.21a1.18,1.18,0,0,1,.65.92.61.61,0,0,1-.56.67.69.69,0,0,1-.67-.4A4.52,4.52,0,0,0,80.22,92c-.07-.06-.21-.15-.21-.22s0-.09,0-.11a.52.52,0,0,1,.29,0A3.67,3.67,0,0,1,82.06,92.19Z"/><path class="cls-3" d="M91.43,103.77a2.65,2.65,0,0,0,1.51,1.44,10.85,10.85,0,0,0,1.84-1.28,5.29,5.29,0,0,0,.79-.86c1.73.94,1.73.94,1.73,1.15s-.18.33-.88.27a8.36,8.36,0,0,1-2.84.9,17.28,17.28,0,0,0,3.7.31c1.57,0,2.63,0,4.2-.16a1.47,1.47,0,0,1-.54-.4,6.9,6.9,0,0,0-2.32-1.67c-.08,0-.08-.18,0-.18,2.81.1,3.82.48,3.82,1.36a.94.94,0,0,1-.5.85c.68-.07,1.46-.14,2.39-.25.09,0,.07.14,0,.18-.5.29-.65.52-.74,1.37,0,.21-.12.28-.5.32-.95.11-2.93.15-4.36.15-3.08,0-4.89-.24-6-1a4.45,4.45,0,0,1-1.76-2.61A19.93,19.93,0,0,1,89,106.36c0,.71-.07.85-.31.85s-.64-.63-1.33-2.21a11.7,11.7,0,0,0,1.12-.44,8.43,8.43,0,0,0,1.26-.72V99.11H88.52a3.41,3.41,0,0,0-1,.14l-.2-.72a4.08,4.08,0,0,0,1.17.16h1.15c.61-.72.76-.82.9-.82s.32.1,1,.63c.3.25.41.37.41.52s0,.18-.54.57Zm-1-8.57c-.41,0-.63-.22-.88-1.12A5.3,5.3,0,0,0,88.43,92c-.08-.07,0-.18.14-.16,2.11.52,2.88,1.38,2.88,2.3A1,1,0,0,1,90.46,95.2Zm6.48-2.77A11.16,11.16,0,0,0,96.85,91c1.93.18,2.11.36,2.11.54s-.16.28-.49.43v.56h2.42c.52-.56.66-.67.81-.67s.32.11.9.58c.25.23.36.36.36.5s-.15.31-.51.68v.19a8.28,8.28,0,0,0,.06.84c0,.32-.36.52-.94.52-.38,0-.56-.12-.59-.39H98.47V96h3.26c.65-.77.87-.92,1-.92s.34.15,1,.65c.25.22.39.38.39.51s0,.18-.23.18H92.71a5.15,5.15,0,0,0-1,.11l-.2-.67a4.85,4.85,0,0,0,1.19.14h4.26v-1.2H94.58c0,.34-.28.47-.91.47-.42,0-.62-.17-.62-.45s.06-.47.06-1.41A15.25,15.25,0,0,0,93,91.76a10.19,10.19,0,0,1,1.68.78h2.23Zm-2,10.35c-.07.4-.36.6-.86.6s-.76-.2-.76-.72.08-1.12.08-3.37c0-.87,0-1.73-.08-2.59a15.28,15.28,0,0,1,1.77.77h5.38c.52-.61.67-.72.81-.72s.34.11,1,.56c.27.21.37.34.37.48s-.1.27-.43.51V99c0,1.86,0,3.13,0,3.55s-.31.77-1,.77c-.45,0-.64-.14-.68-.54ZM94.6,93v1.42h2.34V93Zm6,4.93H95v1.19h5.62ZM95,100.66h5.62V99.49H95Zm0,1.71h5.62v-1.3H95Zm3.51-8H101V93H98.47Z"/><path class="cls-3" d="M110.87,98.39a15.47,15.47,0,0,1-2,2c-.07.05-.23-.09-.18-.16a19.58,19.58,0,0,0,3-6,15.69,15.69,0,0,0,.64-3c1.64.45,2.38.76,2.38,1s-.18.32-.63.4A20.59,20.59,0,0,1,112,96.91c.83.13,1,.2,1,.38s-.1.27-.47.43v9.33c0,.52-.3.76-.93.76-.4,0-.78-.17-.78-.69s.11-1.89.11-4.73Zm8.86-.88c0,1.36,0,3.61.07,5.6h.76c.68-.85.9-1,1-1s.34.15,1,.71c.27.23.42.39.42.52s-.06.18-.24.18h-3c0,1.67.05,3.08.05,3.51s-.3.67-1,.67c-.54,0-.79-.17-.79-.53,0-.52,0-1.94,0-3.65H116.4a7.25,7.25,0,0,0-1.13.11l-.2-.67a5.63,5.63,0,0,0,1.26.15h1.76c0-1.3.06-3.44.06-4.61a15.72,15.72,0,0,1-5.3,5.4c-.07,0-.25-.11-.18-.18a19.82,19.82,0,0,0,4.59-7.56h-2.53a6.91,6.91,0,0,0-1.12.1l-.2-.66a5.46,5.46,0,0,0,1.24.14h3.44V93.63a16.77,16.77,0,0,0-.11-2.28c1.88.16,2.42.32,2.42.61s-.18.34-.67.56v3.22h3c.83-1,1-1.19,1.17-1.19s.3.07,1.08.78c.32.29.56.52.56.65s-.06.18-.24.18h-5.44a11.62,11.62,0,0,0,2.89,3.87,12.88,12.88,0,0,0,3.38,2.18c.09,0,.07.19,0,.21-.45.09-.77.47-1,1.12-.13.39-.18.45-.4.45a1.39,1.39,0,0,1-.63-.34,9.62,9.62,0,0,1-2.32-2.6,17,17,0,0,1-2-4.53Z"/><path class="cls-3" d="M137.44,99.78c-.21.08-.47.17-.59.23a21.6,21.6,0,0,1-.33,2.9,8.81,8.81,0,0,1-2.28,4.59c-.06.07-.2,0-.17-.13a12.41,12.41,0,0,0,1.37-4.35c.09-.72.15-1.57.18-2.6l-.32.11c-.09.36-.18.52-.34.52s-.36-.38-.67-1.82c.41,0,.87-.07,1.35-.14,0-.74,0-1.58,0-2.52v-1h-1.84v3.2l1.34-.66c.07,0,.14.16.07.21-.54.51-1,.92-1.41,1.28v2.23c0,1.35,0,2.7,0,4a2.16,2.16,0,0,1-.27,1.16,1.56,1.56,0,0,1-1.4.66c-.22,0-.29-.07-.33-.34-.09-.74-.25-.94-1.28-1.3-.09,0-.09-.25,0-.25l1.46,0c.25,0,.29,0,.29-.27v-4.77c-.24.18-.47.32-.7.48-.08.44-.17.58-.33.58s-.3-.25-.84-1.91c.37-.07.73-.16,1.11-.27a7.84,7.84,0,0,0,.76-.27V95.6h-.65a4.31,4.31,0,0,0-.94.11l-.19-.67a4.51,4.51,0,0,0,1.13.14h.65v-1.9a12.24,12.24,0,0,0-.11-2.13c2,.23,2.16.31,2.16.52s-.14.31-.56.49v3h.2c.38-.63.59-.77.72-.77s.33.14.76.56a1.54,1.54,0,0,1,.16.18c0-1-.06-1.61-.13-2.31a9.26,9.26,0,0,1,1.53.83h.22c.11-.54.22-1,.27-1.49a8.86,8.86,0,0,0,0-1c1.64.41,2,.52,2,.72s-.18.32-.65.39a7.33,7.33,0,0,1-1.06,1.39h1c.51-.56.65-.67.8-.67s.32.11.8.53c.2.18.31.32.31.46s-.11.29-.45.51v3.55l.38-.11c.09,0,.11.16,0,.21l-.42.24c0,5.76,0,6.71,0,7.49a1.33,1.33,0,0,1-.33.92,1.38,1.38,0,0,1-1.08.43c-.32,0-.39-.07-.47-.45-.1-.58-.21-.67-1.4-1-.09,0-.09-.23,0-.22a14,14,0,0,0,1.73.11c.2,0,.23,0,.23-.23V99.07l-.63.29v1.41c0,1.13,0,2.57,0,3s-.22.5-.63.5-.47-.12-.47-.39.07-1.1.07-2.78Zm-.5-5c0,1.56,0,2.91-.06,4.08.74-.14,1.46-.3,2.18-.48V94.08h-2.12Zm1.1,3c-.31,0-.44-.24-.47-.8a5.55,5.55,0,0,0-.33-1.87.1.1,0,0,1,.15-.11,2.57,2.57,0,0,1,1.29,2C138.68,97.42,138.41,97.78,138,97.78Zm6.53,1.44c.56-.62.7-.72.85-.72s.3.1.92.66c.25.24.36.38.36.52s-.13.26-.6.47a11.94,11.94,0,0,1-1.69,3.66,8.33,8.33,0,0,0,3.26,1.85c.09,0,.05.2,0,.22-.57.18-.68.34-.92,1.22-.05.22-.14.34-.28.34a1,1,0,0,1-.49-.25,10.48,10.48,0,0,1-2.34-2.36,10.74,10.74,0,0,1-3.6,2.61c-.09,0-.16-.12-.09-.17a15.51,15.51,0,0,0,3.08-3.44,10.74,10.74,0,0,1-1.19-4.2,3.52,3.52,0,0,0-.81.15l-.2-.71a4.44,4.44,0,0,0,1.12.15Zm.83-2.79c0,.25.11.34.49.34a.54.54,0,0,0,.38-.11c.19-.16.32-.63.55-1.82,0-.09.24-.09.24,0,0,.43,0,1,0,1.28s0,.41.27.49a.69.69,0,0,1,.36.59.71.71,0,0,1-.3.59,2.88,2.88,0,0,1-1.55.31c-1.3,0-1.82-.36-1.82-1.35v-3.6h-1.17v.56a9.28,9.28,0,0,1-.32,2.52A4.89,4.89,0,0,1,140.7,99c-.07,0-.18,0-.14-.11a8,8,0,0,0,.83-2.81,14,14,0,0,0,.12-2,12.3,12.3,0,0,0-.16-2.09,14.6,14.6,0,0,1,1.64.77h.9c.48-.66.59-.72.7-.72s.34.11.86.56c.29.24.38.42.38.54s-.07.25-.43.49Zm-3.26,3.2a7.31,7.31,0,0,0,1.41,3.21,14.45,14.45,0,0,0,1.13-3.21Z"/><path class="cls-3" d="M156.39,103.83a2.79,2.79,0,0,0,1.71,1.51,15.08,15.08,0,0,0,4.09.41,57,57,0,0,0,6.92-.45c.09,0,.09.16,0,.2a1.14,1.14,0,0,0-.7,1c0,.56-.09.61-.43.65-1,.12-3.1.16-4.39.16a14.45,14.45,0,0,1-5.33-.65,4.16,4.16,0,0,1-2.38-2.93,13.35,13.35,0,0,1-2.07,2.7c.05.68,0,.83-.31.83s-.66-.65-1.33-2.2a7.53,7.53,0,0,0,1.35-.51,7.86,7.86,0,0,0,1.19-.66V99.09h-1.24a3.79,3.79,0,0,0-1,.14l-.2-.72a4.25,4.25,0,0,0,1.19.17h1.13c.63-.72.78-.83.92-.83s.32.11,1,.63c.31.25.42.38.42.52s-.06.18-.55.58Zm-1.06-8.72c-.41,0-.63-.21-.88-1.12a5.3,5.3,0,0,0-1.15-2.1c-.07-.07,0-.18.14-.16,2.11.52,2.88,1.38,2.88,2.3A1,1,0,0,1,155.33,95.11Zm8,.33a24.71,24.71,0,0,1-.21,3h2.75c.79-1,1-1.14,1.13-1.14s.36.15,1.17.79c.37.29.51.45.51.58s0,.18-.24.18h-5.4a6.55,6.55,0,0,1-.34,1.28c3.44,1.17,4.92,2.2,4.92,3.49a1,1,0,0,1-.94,1.1c-.38,0-.43-.07-1.17-1.17a12.24,12.24,0,0,0-2.94-3.06c-.84,2.14-2.44,3.37-5.13,4.14-.09,0-.18-.14-.1-.2a7.45,7.45,0,0,0,4.05-5.58h-2.87a6,6,0,0,0-1,.11l-.2-.67a5.37,5.37,0,0,0,1.22.15h2.94a24.63,24.63,0,0,0,.16-3h-2.56a5.91,5.91,0,0,0-1,.1l-.2-.66a5.92,5.92,0,0,0,1.22.14h4a12.77,12.77,0,0,0,.86-2.2,13.25,13.25,0,0,0,.43-1.8c1.8.65,2.18.83,2.18,1.08s-.18.27-.7.31A15.78,15.78,0,0,1,163.69,95h2c.72-.86.94-1,1.06-1s.36.15,1.08.72c.31.24.45.4.45.53s-.05.18-.23.18Zm-2.45-.89c-.41,0-.47-.11-.79-1.2a4.46,4.46,0,0,0-1-1.79c-.08-.07,0-.21.12-.19,1.69.46,2.65,1.2,2.65,2.08A1,1,0,0,1,160.93,94.55Z"/><path class="cls-3" d="M181.44,90.81s0,.09-.09.16a11.17,11.17,0,0,0-.08,16.75c.13.12.17.16.17.23s0,.11-.09.11-.11,0-.24-.11a12.47,12.47,0,0,1-3.62-3.87,9.21,9.21,0,0,1,0-9.4,12.6,12.6,0,0,1,3.64-3.89c.09-.05.13-.09.18-.09A.12.12,0,0,1,181.44,90.81Z"/><path class="cls-3" d="M200.19,93.4c.94-1.06,1.08-1.17,1.23-1.17s.34.11,1.2.79c.42.34.52.47.52.61s-.07.19-.27.19h-12v.41a32.06,32.06,0,0,1-.72,8.28,9.08,9.08,0,0,1-3.45,5c-.08,0-.24-.13-.18-.2a12.29,12.29,0,0,0,2.3-5.15c.09-.52.18-1.06.23-1.66a9,9,0,0,1-1.44,1.57c0,.6-.12.78-.37.78s-.53-.6-1.08-2.15a5.58,5.58,0,0,0,1-.27,15.86,15.86,0,0,0,2-.81c.06-.92.09-2,.09-3.11,0-1.66-.05-2.88-.14-4.16,1,.47,1.13.56,2.05,1.06h3.73v-.94a9.9,9.9,0,0,0-.11-1.35c2.22.22,2.43.44,2.43.63s-.19.33-.61.53V93.4Zm-12.28,5c-.38,0-.52-.16-.54-.61a5.17,5.17,0,0,0-.65-2.56c-.05-.07.08-.21.15-.18,1.49.83,2,1.37,2,2.18A1.08,1.08,0,0,1,187.91,98.44Zm12.41.58c.57-.69.72-.79.86-.79s.33.1,1,.63c.28.25.39.37.39.52s-.11.29-.45.48v1c0,3.49,0,4,0,5a2,2,0,0,1-.27,1.3,1.89,1.89,0,0,1-1.39.61c-.52,0-.54,0-.59-.5s-.45-.81-1.93-1.19c-.09,0-.09-.22,0-.22.9.06,1.71.07,2.33.07.21,0,.25-.07.25-.32V99.43h-3.14a9.52,9.52,0,0,1-.37,1.32c2,.5,3.13,1.29,3.13,2.34a.94.94,0,0,1-.86,1c-.29,0-.47-.15-.69-.62a6.14,6.14,0,0,0-1.73-2.41,6.53,6.53,0,0,1-3.38,3.19c-.07,0-.2-.13-.13-.18a7.19,7.19,0,0,0,2.52-4.65h-2.63V107c0,.66-.21.86-.91.86-.51,0-.78-.18-.78-.59,0-.62.09-1.25.09-3.75,0-1.78,0-3.56-.07-5.36a16.67,16.67,0,0,1,1.84.88h2.52c.05-.6.09-1.26.09-2V96.5H193a11.31,11.31,0,0,0-1.53.11l-.19-.67a8.68,8.68,0,0,0,1.58.14h7.26c.81-1,1-1.11,1.15-1.11s.36.14,1.15.79c.34.27.49.43.49.56s-.06.18-.24.18h-5a20.89,20.89,0,0,1-.19,2.52Z"/><path class="cls-3" d="M212.12,92.19c.49-.59.63-.7.78-.7s.3.11.95.74c.29.27.4.41.4.56s-.06.2-.51.32a26,26,0,0,1-2.43,4c1.71,1.5,2.33,2.65,2.33,4.25a2.7,2.7,0,0,1-.58,1.89,1.7,1.7,0,0,1-1.28.51c-.27,0-.36-.11-.38-.4-.07-.65-.25-.88-1-1.17,0,2,0,4.16,0,4.72s-.39.79-1,.79-.68-.2-.68-.6.07-4,.07-9c0-4.28,0-5.29-.11-6.73a19.46,19.46,0,0,1,1.84.86Zm-1.76,9.73c.41,0,.74,0,1.13,0a.7.7,0,0,0,.47-.12c.2-.17.23-.53.23-1.27a4.82,4.82,0,0,0-1.27-3.42,32.8,32.8,0,0,0,1.22-4.55h-1.78Zm10.68,3.6c0,.36.1.41.88.41.56,0,.9-.05,1.13-.3a6.29,6.29,0,0,0,1-2.45c0-.09.27-.06.27,0-.06.87-.15,1.62-.15,2s.09.38.33.54.43.31.43.63-.29.67-.92.85a8.65,8.65,0,0,1-2.27.22c-1.78,0-2.39-.38-2.39-1.48,0-.18,0-.77,0-1.57V100H217.9c-.09,4.22-2.09,6.57-6.32,7.53-.09,0-.18-.2-.09-.23,3.24-1.55,4.49-3.53,4.61-7.3H215a5.63,5.63,0,0,0-1,.11l-.19-.67a4.88,4.88,0,0,0,1.18.15h7c.63-.87.84-1,1-1s.36.14,1.08.72c.3.23.45.4.45.52s-.06.18-.24.18H221ZM222.48,94c.61-.69.75-.8.9-.8s.32.11,1.11.83c.36.33.47.47.47.61s-.22.33-.63.33a.88.88,0,0,0-.68.23,7.33,7.33,0,0,1-1.19.74c-.07,0-.18,0-.15-.11a7.24,7.24,0,0,0,.31-1.42h-7.35c.06,1.48-.43,2.36-1.29,2.36a.81.81,0,0,1-.78-.83c0-.34.18-.59.63-.92a2,2,0,0,0,1.1-1.82c0-.09.16-.12.18,0a6.46,6.46,0,0,1,.13.83H218V92.59a11,11,0,0,0-.09-1.42c2.07.18,2.27.34,2.27.5s-.16.31-.5.45V94Zm-1.89,2.77c.72-.85.93-1,1.06-1s.36.14,1.06.7c.31.24.45.4.45.52s0,.18-.23.18h-6.58a5.63,5.63,0,0,0-1,.11l-.19-.66a5.37,5.37,0,0,0,1.18.14Z"/><path class="cls-3" d="M236.86,96.5a12.88,12.88,0,0,1,4.86-1.64,3.47,3.47,0,0,1,2.66.86,2.52,2.52,0,0,1,.79,1.91,2.64,2.64,0,0,1-1.38,2.36,4.53,4.53,0,0,1-2.63.72,7.63,7.63,0,0,1-4-1.13c-.23-.15-.32-.2-.32-.35s.07-.07.14-.07a4.15,4.15,0,0,1,.51.13,7.93,7.93,0,0,0,2.46.25,6,6,0,0,0,2.42-.63c.84-.45,1.31-.94,1.31-1.78a1.31,1.31,0,0,0-.38-1,2.27,2.27,0,0,0-1.58-.58c-1.19,0-2.67.63-4.7,1.84l-1.6,1,1.08,2.07c.84,1.66,1.49,3.1,2,4.29a3.4,3.4,0,0,1,.3,1.38.94.94,0,0,1-.9,1,.78.78,0,0,1-.54-.18c-.23-.18-.27-.54-.38-.9a45.25,45.25,0,0,0-2.5-7c-.32.24-.59.42-.9.67a6.71,6.71,0,0,0-.88.81.78.78,0,0,1-.63.32,2.28,2.28,0,0,1-1.37-.59,1.73,1.73,0,0,1-.81-1.23c0-.27.07-.37.16-.37s.18.09.29.16a1.65,1.65,0,0,0,1,.41,5.22,5.22,0,0,0,1.51-.59c.23-.11.63-.33,1.06-.58a9.75,9.75,0,0,0-.74-1.19,1.61,1.61,0,0,1-.3-.86,2.16,2.16,0,0,1,.59-1.42,1.14,1.14,0,0,1,.92-.44,21.57,21.57,0,0,1,2.48-.26,3.05,3.05,0,0,1-.52-1.48c0-.49.18-.87.34-.87s.17.09.22.31a2,2,0,0,0,.43.7,6.39,6.39,0,0,0,.94.81,1.73,1.73,0,0,1,.79,1.39.58.58,0,0,1-.63.63,1.08,1.08,0,0,1-.77-.31,4.8,4.8,0,0,0-1.34-.43,5,5,0,0,0-1.55-.07c-.59.09-.79.4-.79.77a1.28,1.28,0,0,0,.15.69c.11.21.34.66.84,1.53C235.67,97.11,236.26,96.82,236.86,96.5Z"/><path class="cls-3" d="M254.42,95.18c0,.9,0,1.82-.11,2.72h1.19c.56-.74.71-.84.85-.84s.32.1.94.66c.27.24.37.38.37.52s-.05.18-.43.47c-.2,3.78-.54,6.5-1,7.46a2.16,2.16,0,0,1-.7.86,2.05,2.05,0,0,1-1.26.38c-.22,0-.29-.07-.31-.29-.1-.74-.35-1-1.29-1.31-.09,0-.06-.22,0-.22.82.07,1.28.09,1.48.09.54,0,.67-.09.85-.81a37.6,37.6,0,0,0,.63-6.55H254.3c-.36,4.68-1.37,7.07-3.64,9.14-.07.06-.23-.09-.18-.16,1.64-2.79,2.32-6.14,2.32-11.59v-.53h-.47a7.71,7.71,0,0,0-1.15.11l-.2-.67a6.44,6.44,0,0,0,1.34.15h1.08V92.59c0-.29,0-.72-.08-1.33,2,.2,2.2.39,2.2.57s-.16.27-.5.45v2.49h.57c.65-.81.87-1,1-1s.35.14.94.68c.23.22.38.38.38.5s-.06.18-.24.18Zm5.22-.45a10,10,0,0,1-2.34,2.47c-.07,0-.25,0-.2-.13a12.86,12.86,0,0,0,1.66-3.56,11.25,11.25,0,0,0,.45-2.32c1.89.39,2.31.55,2.31.81s-.18.32-.65.39a10.85,10.85,0,0,1-1,1.93h4.61c.89-1.08,1.1-1.23,1.23-1.23s.34.15,1.15.85c.36.33.5.49.5.61s0,.18-.23.18Zm.58,10.45c0,.61.11.72,2.41.72s2.7-.08,3-.27.43-.44,1.06-2.4c0-.09.24,0,.24,0,0,.54-.06,1.29-.06,1.64a.42.42,0,0,0,.27.46c.36.22.49.4.49.72,0,.49-.33.81-1.15,1a16.74,16.74,0,0,1-3.44.24c-3.71,0-4.38-.27-4.38-1.69,0-.45,0-.9,0-2.78,0-.82,0-1.63,0-2.46a4.68,4.68,0,0,0-1.06.41l-.34-.59a5,5,0,0,0,1.15-.2l.25-.07c0-1.14,0-2.27-.05-3.42,1.9.19,2.14.27,2.14.54s-.13.28-.56.46v2l1.44-.41V97.81a21.58,21.58,0,0,0-.09-2.37c1.59.14,2.11.28,2.11.55s-.16.29-.58.42v2.27l1.37-.4c.56-.85.74-1,.94-1a2.87,2.87,0,0,1,1.24.82.77.77,0,0,1,.21.36c0,.18-.12.31-.52.56a25.3,25.3,0,0,1-.29,3.73,2,2,0,0,1-.57,1.12,1.66,1.66,0,0,1-1.1.39c-.23,0-.25,0-.25-.48s-.36-.8-1-1.07c0,.56,0,1,0,1.21,0,.47-.27.65-.92.65-.49,0-.63-.13-.63-.6s.05-1.85.07-4.39l-1.44.41Zm2.88-6.07c0,.56,0,1.1,0,1.66v1.63a4.82,4.82,0,0,0,1,.11.48.48,0,0,0,.52-.48,25.7,25.7,0,0,0,.2-3.41Z"/><path class="cls-3" d="M277.25,94.88c.77-1,1-1.1,1.11-1.1s.36.14,1.16.77c.34.27.48.43.48.56s-.05.18-.23.18h-5.69a8.69,8.69,0,0,0-1.23.11l-.19-.67a7.26,7.26,0,0,0,1.44.15ZM275,106.42V107c0,.46-.33.7-.92.7s-.76-.18-.76-.61.05-1.14.05-3.44a24.56,24.56,0,0,0-.1-2.56,16.4,16.4,0,0,1,1.9.9H277c.63-.75.77-.86.91-.86s.33.11,1,.63c.28.25.39.37.39.52s-.12.32-.52.59v.6c0,1.55.07,2.61.07,3s-.32.7-1,.7c-.49,0-.72-.16-.72-.56v-.12Zm1.38-14c.79-.94,1-1.08,1.14-1.08s.36.14,1.11.75c.33.27.47.43.47.56s-.05.18-.23.18h-4.22a6.46,6.46,0,0,0-1.06.11l-.2-.67a5.7,5.7,0,0,0,1.26.15Zm.16,4.82c.69-.88.9-1,1-1s.36.14,1,.72c.31.25.45.41.45.54s-.05.18-.23.18h-4.14a6.68,6.68,0,0,0-1.1.1l-.2-.66a6,6,0,0,0,1.3.14Zm0,2.32c.69-.88.9-1,1-1s.36.14,1.06.72c.31.25.45.41.45.54s-.05.18-.23.18h-4.14a5.64,5.64,0,0,0-1.08.11l-.2-.67a5.78,5.78,0,0,0,1.28.14Zm.6,2.8H275V106h2.12Zm8.43-3.26c.73-.72.88-.83,1-.83s.34.11,1.08.7c.35.27.45.4.45.54s-.19.38-.66.56a13.91,13.91,0,0,1-2.4,3.69,10.52,10.52,0,0,0,4.32,1.62.09.09,0,0,1,0,.18c-.61.18-.84.52-1,1.37-.06.27-.13.38-.25.38a3,3,0,0,1-.69-.26,8.59,8.59,0,0,1-3.35-2.34,14.31,14.31,0,0,1-5.31,2.72c-.09,0-.18-.19-.09-.23a13.89,13.89,0,0,0,4.59-3.51,14.33,14.33,0,0,1-1.78-4.18h-.29a4.33,4.33,0,0,0-1,.14l-.2-.7a6.11,6.11,0,0,0,1.31.15Zm3.16-3.53c0,.27.08.34.37.45a.56.56,0,0,1,.25.54c0,.38-.24.66-.72.83a5.7,5.7,0,0,1-1.75.21c-1.58,0-2.14-.39-2.14-1.53,0-.7,0-.88,0-1.58V92.68h-2.11V93a7.19,7.19,0,0,1-.58,3.21,5.61,5.61,0,0,1-2.7,2.16c-.07,0-.23-.07-.16-.13a4.91,4.91,0,0,0,1.53-2.5,8.66,8.66,0,0,0,.22-2.18,20,20,0,0,0-.13-2.16,19.1,19.1,0,0,1,1.87.85h2c.58-.67.69-.76.89-.76s.32.07.91.58a.92.92,0,0,1,.36.46c0,.18-.12.33-.46.53v2.79c0,.29.12.34.7.34s.66,0,.85-.22a4,4,0,0,0,.59-1.6c0-.09.21-.09.21,0Zm-6.93,3.94a9.37,9.37,0,0,0,2.13,3.31,10.83,10.83,0,0,0,1.69-3.31Z"/><path class="cls-3" d="M302.45,98.71a7.79,7.79,0,0,0,3.8,1.32,5.35,5.35,0,0,0,3.69-1.43.2.2,0,0,1,.16-.07.13.13,0,0,1,.11.13.16.16,0,0,1-.06.14c-1.27,1.5-2.53,2.52-4.21,2.52a7,7,0,0,1-3.49-1.11,7.77,7.77,0,0,0-3.82-1.34,5.34,5.34,0,0,0-3.65,1.41.25.25,0,0,1-.17,0,.09.09,0,0,1-.1-.1.24.24,0,0,1,0-.15c1.3-1.48,2.52-2.47,4.2-2.47A7,7,0,0,1,302.45,98.71Z"/><path class="cls-3" d="M318.11,99.7a.66.66,0,0,1-.06.27,4.3,4.3,0,0,0-.3,1.66,1.88,1.88,0,0,0,.95,1.66,7.81,7.81,0,0,0,3.49.64,11.09,11.09,0,0,0,3.17-.37,5.15,5.15,0,0,1,1.14-.15c1.06,0,1.42.56,1.42,1s-.45.82-1.06.93a16.54,16.54,0,0,1-1.86.24c-.88.07-1.76.09-2.32.09a9.69,9.69,0,0,1-3.4-.6,4,4,0,0,1-1.68-1.26,2.65,2.65,0,0,1-.54-1.82,4.12,4.12,0,0,1,.74-2.23c.07-.11.14-.16.22-.16S318.11,99.63,318.11,99.7Zm.21-5.76c.38.5,1.17.76,2.83.76a9.49,9.49,0,0,0,3-.51,3.55,3.55,0,0,1,.67-.09,2.73,2.73,0,0,1,.74.09c.54.15.88.36.9.81s-.11.54-.49.69a5.74,5.74,0,0,1-1.19.16,14.29,14.29,0,0,0-2.66.49,10.56,10.56,0,0,0-2.34,1,3.08,3.08,0,0,1-.58.28c-.09,0-.12,0-.12-.1s.5-.53,1.67-1.46a3.87,3.87,0,0,1-2-.7A2.42,2.42,0,0,1,318,94c0-.13,0-.18.15-.18S318.27,93.87,318.32,93.94Zm10-.54a1.36,1.36,0,0,1,.66,1.08.6.6,0,0,1-.59.63.63.63,0,0,1-.61-.41,6.75,6.75,0,0,0-1.14-1.59c-.07-.07-.2-.16-.2-.23s0-.09.09-.11a.7.7,0,0,1,.29,0A3.51,3.51,0,0,1,328.32,93.4ZM330,92.19a1.18,1.18,0,0,1,.65.92.6.6,0,0,1-.56.67.68.68,0,0,1-.66-.4,4.65,4.65,0,0,0-1.26-1.4c-.08-.06-.22-.15-.22-.22a.13.13,0,0,1,.05-.11.54.54,0,0,1,.29,0A3.63,3.63,0,0,1,330,92.19Z"/><path class="cls-3" d="M339.71,106.35V107c0,.51-.31.74-1,.74s-.77-.2-.77-.61c0-1.58.07-3.26.07-9.61,0-1.48,0-3-.07-4.45a18.38,18.38,0,0,1,2,1h1.62c.22-.61.41-1.24.56-1.8a5.43,5.43,0,0,0,.21-1.22c1.79.45,2.24.65,2.24.9s-.16.29-.67.38A10.85,10.85,0,0,1,342.19,94h5c.63-.68.78-.79.92-.79s.36.09,1.08.63c.34.25.47.43.47.58s-.09.29-.58.63v1.82c0,5.22.08,8.85.08,10,0,.52-.29.74-1,.74-.58,0-.77-.16-.77-.65v-.66Zm7.69-11.92h-7.69v3.33h7.69Zm0,3.74h-7.69v3.46h7.69Zm0,3.87h-7.69v3.89h7.69Z"/><path class="cls-3" d="M370.26,93.89c.73-.87.88-1,1-1s.33.11,1.39,1.07c.48.45.59.57.59.72s-.18.37-.77.37c-.4,0-.54,0-.76.17a9.91,9.91,0,0,1-1.62,1c-.07,0-.21,0-.18-.14a6.59,6.59,0,0,0,.56-1.77h-11c.07,1.42-.48,2.4-1.42,2.4a.9.9,0,0,1-.92-1,.85.85,0,0,1,.58-.86,2,2,0,0,0,1.31-2c0-.09.18-.11.2,0a6,6,0,0,1,.22,1H364V92.73c0-.59,0-1.08-.05-1.45,2.21.21,2.43.41,2.43.61s-.22.34-.61.5v1.5ZM363,98.32a30.17,30.17,0,0,1-5,.52c-.09,0-.09-.24,0-.25a29.37,29.37,0,0,0,7.47-2.43,6.2,6.2,0,0,0,2-1.43c1.51,1,1.92,1.37,1.92,1.64s-.18.27-1.1.15a18.15,18.15,0,0,1-3.58,1.38v3l5-.68c.9-1.32,1-1.43,1.19-1.43s.38.11,1.33.7c.47.31.58.42.58.56s-.09.18-.22.2l-7.87,1.08v3c0,1.35.13,1.41,2.81,1.41,2.05,0,2.7-.13,3-.53a9.28,9.28,0,0,0,1-2.41c0-.09.18-.09.18,0,0,.63-.07,1.42-.07,2,0,.22,0,.31.31.4a.66.66,0,0,1,.52.65c0,.54-.36.92-1.22,1.13a18.28,18.28,0,0,1-4.17.33c-3.43,0-4.12-.56-4.12-2.33v-3.45l-4.3.59a9.57,9.57,0,0,0-1.12.25l-.25-.63a11.18,11.18,0,0,0,1.3,0l4.37-.6Z"/><path class="cls-3" d="M381.77,93.71a9.1,9.1,0,0,1-3.11,2.84c-.07,0-.2-.07-.15-.14a12.25,12.25,0,0,0,2-3.19,8.57,8.57,0,0,0,.63-2.14c1.8.52,2.18.68,2.18.92s-.18.3-.74.36a8.65,8.65,0,0,1-.54.93h2.33c.68-.81.9-1,1-1s.38.14,1.08.68c.31.24.45.38.45.51s-.05.18-.23.18h-4c1.29.37,1.82.82,1.82,1.49a.87.87,0,0,1-.87.92c-.5,0-.59-.13-.75-1.06a2.61,2.61,0,0,0-.6-1.35Zm6.56,0a8.21,8.21,0,0,1-1.57,1.49c.77.13.92.25.92.36s-.11.31-.5.45v.87h3.15c.79-.89,1-1,1.13-1s.36.14,1.08.72c.31.25.45.41.45.54s-.05.18-.23.18h-5.58v2.16h4.55c.86-1,1.08-1.12,1.21-1.12s.36.15,1.15.8c.34.27.49.43.49.55s-.06.18-.24.18H380a6.46,6.46,0,0,0-1.06.11l-.2-.66a5.83,5.83,0,0,0,1.21.14h5.58V97.29h-3.6a6.57,6.57,0,0,0-1.07.11l-.19-.67a5,5,0,0,0,1.19.15h3.67V96.7c0-.56,0-1.1-.07-1.66l.9.09a12,12,0,0,0,1.06-2.22,10.77,10.77,0,0,0,.48-1.8c1.46.33,2.08.6,2.08.85s-.2.32-.74.41a10.31,10.31,0,0,1-.58.92H392c.77-.93,1-1.08,1.11-1.08s.38.15,1.19.76c.38.29.53.43.53.56s-.06.18-.24.18h-4.95c1.21.3,1.75.73,1.75,1.38a.93.93,0,0,1-.87.94c-.47,0-.63-.2-.77-1a2.56,2.56,0,0,0-.61-1.27Zm2.16,10.67c0,.58,0,1.46,0,2a1.3,1.3,0,0,1-.41,1,2.49,2.49,0,0,1-1.66.47c-.28,0-.3,0-.39-.53s-.54-.9-2-1.24c-.09,0-.09-.25,0-.25.81,0,1.78.14,2.46.14.22,0,.29-.05.29-.29v-3.29h-8.75a6.46,6.46,0,0,0-1.06.11l-.2-.67a5,5,0,0,0,1.19.15h8.82v-.33a8,8,0,0,0-.11-1.44c2.06.23,2.25.27,2.25.54s-.1.22-.48.38v.85h1.31c.78-.89,1-1,1.12-1s.36.14,1.08.72c.3.25.45.41.45.54s-.06.18-.24.18h-3.72ZM384.55,106c-.49,0-.6-.13-1-1.26a3.36,3.36,0,0,0-1.17-1.71c-.07,0,0-.18.09-.16,1.86.27,3,1.08,3,2.07A1,1,0,0,1,384.55,106Z"/><path class="cls-3" d="M400.29,90.79a12.36,12.36,0,0,1,3.64,3.89,9.15,9.15,0,0,1,0,9.4,12.23,12.23,0,0,1-3.62,3.87.4.4,0,0,1-.23.11c-.06,0-.09,0-.09-.11s0-.11.16-.23A11.16,11.16,0,0,0,400.08,91c-.07-.07-.09-.11-.09-.16a.11.11,0,0,1,.12-.11C400.17,90.7,400.2,90.74,400.29,90.79Z"/><rect class="cls-3" x="39.7" y="97.52" width="9.19" height="9.19" transform="translate(-59.23 61.23) rotate(-45)"/><rect class="cls-3" x="39.7" y="135.64" width="9.19" height="9.19" transform="translate(-86.19 72.39) rotate(-45)"/><rect class="cls-3" x="849.58" y="97.52" width="9.19" height="9.19" transform="translate(177.97 633.9) rotate(-45)"/><path class="cls-3" d="M883.57,100.23c-.09.26-.16.52-.25.77s-.32.41-.85.41-.86-.14-.86-.39a.76.76,0,0,1,0-.27,24.11,24.11,0,0,0,.85-3,13.18,13.18,0,0,0,.29-2.44,9.5,9.5,0,0,1,1.69.84h3.12V92.86h-4.43a3.38,3.38,0,0,0-.92.14l-.2-.72a4.25,4.25,0,0,0,1.19.17h4.27c.57-.67.72-.78.86-.78s.32.11,1,.6c.29.25.4.37.4.52s-.05.18-.49.54v.61c0,1.59.06,2.68.06,3s-.31.71-1,.71c-.49,0-.72-.17-.72-.54v-.63h-3.25a25,25,0,0,1-.68,3.29h3.84c.61-.65.75-.76.9-.76s.32.11,1,.63c.27.24.38.36.38.51s-.06.18-.51.54a14.35,14.35,0,0,1-1.11,5.13,2.84,2.84,0,0,1-1.21,1.33,2.31,2.31,0,0,1-1.19.29c-.41,0-.43-.12-.52-.65s-.59-.88-1.78-1.37c-.09,0,0-.28.05-.27a11.72,11.72,0,0,0,2.38.42c.34,0,.59-.13.85-.69a15.25,15.25,0,0,0,.9-4.69ZM895,95.81c0,4.81.12,9.74.12,10.93,0,.54-.36.81-1.17.81-.54,0-.79-.18-.79-.65,0-.73.11-3,.11-7.5,0-6,0-7-.16-7.87,2.21.16,2.52.21,2.52.5s-.08.31-.63.58Z"/><path class="cls-3" d="M904.22,96.41a2.6,2.6,0,0,1-1.39-1.14.48.48,0,0,1-.07-.2.13.13,0,0,1,.13-.14.32.32,0,0,1,.23.09,2.68,2.68,0,0,0,1.71.58,13.26,13.26,0,0,0,3.53-.69c-.11-.38-.32-1.17-.5-1.78a.69.69,0,0,0-.54-.56,4.43,4.43,0,0,0-.53-.09l-.23,0a.12.12,0,0,1-.13-.12c0-.11.06-.16.11-.24a1.36,1.36,0,0,1,1.05-.52,3.9,3.9,0,0,1,1.26.25c.46.18.72.45.72.76a1,1,0,0,1-.11.43,1.09,1.09,0,0,0-.07.54c0,.18.05.58.1,1a8.71,8.71,0,0,0,1.23-.51,3.41,3.41,0,0,0,.38-.21l.27-.2a1.08,1.08,0,0,1,.7-.22c.68,0,1.13.16,1.13.54s-.14.49-.82.8-1.79.73-2.63,1a16.14,16.14,0,0,0,.73,2.11,6.81,6.81,0,0,0,1.32-.61c.11-.08.13-.11.13-.2s-.2-.4-.67-.85c-.09-.09-.13-.14-.13-.21a.12.12,0,0,1,.13-.11c.07,0,.14,0,.36.16a2.35,2.35,0,0,0,1.21.32,3.52,3.52,0,0,0,.45,0,1.14,1.14,0,0,1,.48,0,.66.66,0,0,1,.54.56.75.75,0,0,1-.43.67,20.36,20.36,0,0,1-2.9,1.35,8.9,8.9,0,0,0,1.69,2.39,1.85,1.85,0,0,1,.72,1.5.83.83,0,0,1-.75.9,1.15,1.15,0,0,1-.74-.4,3.2,3.2,0,0,0-1-.61,9.24,9.24,0,0,0-2.69-.51,4.47,4.47,0,0,0-2.09.42,1.48,1.48,0,0,0-.88,1.2c0,.63.45,1.25,1.57,1.46a10.92,10.92,0,0,0,2.07.18c.56,0,.95-.09,1.28-.09a2.1,2.1,0,0,1,1,.24.8.8,0,0,1,.54.81.7.7,0,0,1-.34.57,2.64,2.64,0,0,1-1.33.22,11.3,11.3,0,0,1-3.58-.51c-1.66-.59-2.27-1.49-2.27-2.48a2.41,2.41,0,0,1,1.44-2.14,6.5,6.5,0,0,1,2.84-.6,26.37,26.37,0,0,1,2.77.16c-.35-.59-.84-1.49-1.24-2.35a11.08,11.08,0,0,1-3.17.59c-1.13,0-2-.58-2-1.3a1.82,1.82,0,0,1,.5-1.13,4.47,4.47,0,0,1,.78-.72A4.19,4.19,0,0,1,904.22,96.41Zm2.2.45a3.14,3.14,0,0,0-.67.77,1.39,1.39,0,0,0-.18.65c0,.31.23.47.85.47a9.8,9.8,0,0,0,3.07-.58c-.28-.72-.45-1.15-.79-2.1-.79.23-1.1.3-1.69.45A2.78,2.78,0,0,0,906.42,96.86Z"/><path class="cls-3" d="M929.06,98.64v7.24h4.68v-3.35a11.6,11.6,0,0,0-.12-1.87c2.16.2,2.54.28,2.54.61s-.22.4-.69.56v.84c0,2.24.09,3.77.09,4.27s-.34.74-1.06.74c-.54,0-.76-.16-.76-.6v-.79h-11v.65c0,.54-.31.78-1,.78-.55,0-.79-.19-.79-.67s.09-1.62.09-4.09a17,17,0,0,0-.09-2.27c1.95.17,2.45.31,2.45.58s-.18.36-.61.56v4h4.53V98.64h-3.78V99c0,.47-.32.66-1.08.66-.54,0-.74-.19-.74-.57s.11-1.41.11-3.6a21.28,21.28,0,0,0-.11-2.65c2.2.23,2.47.31,2.47.59s-.18.38-.65.56v4.22h3.78V93.8a23.83,23.83,0,0,0-.1-2.56c2.32.22,2.55.43,2.55.65s-.23.41-.7.57v5.77H933V94.82a14,14,0,0,0-.11-1.94c2,.2,2.41.3,2.41.63s-.16.34-.57.5v.81c0,2.15.09,3.59.09,4.07s-.33.74-1,.74c-.56,0-.77-.2-.77-.59v-.4Z"/><path class="cls-3" d="M946.3,99.88c.74-.18,1.43-.39,2-.59.09,0,.14.14.07.2a17.81,17.81,0,0,1-2.07,1.28c0,3.09,0,5.23,0,6.17,0,.58-.25.81-1,.81-.55,0-.73-.18-.73-.61,0-.85,0-2.72.07-5.6-.53.22-1.1.43-1.71.65-.06.47-.17.65-.38.65s-.43-.38-.9-2.17a8,8,0,0,0,1.62-.14l1.37-.25c0-1.91,0-3.13,0-4.38h-1.29a11.19,11.19,0,0,1-1.77,3.41c0,.07-.23,0-.2-.06a23.16,23.16,0,0,0,.9-4.46c.09-.71.13-1.39.15-2,1.51.39,2,.57,2,.81s-.13.25-.56.38c-.11.5-.24,1-.4,1.51h1.15V93.85c0-1.62,0-1.93-.07-2.72,2.18.25,2.32.31,2.32.58s-.14.29-.63.5v3.28h.17c.52-.76.73-.9.86-.9s.32.14.86.65c.2.18.35.36.35.48s-.06.18-.24.18h-2Zm6.52-4.48a11.16,11.16,0,0,1-6,7.6c-.09,0-.19-.13-.12-.18a13.94,13.94,0,0,0,4.39-7.42h-1a11.56,11.56,0,0,1-2.67,3.2c-.07.06-.21-.07-.16-.14a15.7,15.7,0,0,0,2-4.68,12,12,0,0,0,.47-2.65c1.87.27,2.43.43,2.43.72s-.18.33-.68.45A18.69,18.69,0,0,1,950.3,95h5.49c.69-.75.83-.86,1-.86s.32.11,1,.67c.31.25.42.38.42.52s-.06.18-.56.56c-.22,6.07-.45,8.28-1.08,10a2.38,2.38,0,0,1-.85,1.21,2.45,2.45,0,0,1-1.47.45c-.31,0-.33,0-.42-.41-.16-.72-.72-1.16-2-1.46-.09,0-.07-.27,0-.27,1.06.07,1.95.11,2.09.11,1,0,1,0,1.31-1.39A48.15,48.15,0,0,0,956,95.4h-.37c-1,5.67-3.3,8.88-7.71,10.89-.09,0-.2-.16-.13-.21,3.39-2.42,5.33-5.76,6.14-10.68Z"/><path class="cls-1" d="M41.22,38.45a2.22,2.22,0,0,0-.84.34,1.37,1.37,0,0,1-.7.17c-.41,0-.86-.32-1.44-1s-.79-1.12-.79-1.68.12-.72.26-.72.22.1.41.29a2.22,2.22,0,0,0,2.09,1c.6,0,1.17-.05,1.77-.09,2.36-.22,4.76-.44,6.94-.7A2.13,2.13,0,0,0,50,35.64a1.11,1.11,0,0,1,.63-.28c.47,0,.86.16,1.56.69.86.65,1.08,1,1.08,1.54,0,.21-.17.45-.51.62a2.22,2.22,0,0,0-1,1.15,26.55,26.55,0,0,1-4.56,6.39,21.27,21.27,0,0,1-7.92,5.18,1.4,1.4,0,0,1-.36.08c-.22,0-.31,0-.31-.27s.12-.21.38-.38a24.76,24.76,0,0,0,6.79-6,36.5,36.5,0,0,0,3.75-6.12,2,2,0,0,0,.31-.81c0-.1-.12-.12-.24-.12a9.32,9.32,0,0,0-1,.09C46.16,37.71,43.35,38,41.22,38.45Zm15.24-4.63a2,2,0,1,1-2-2A2,2,0,0,1,56.46,33.82Zm-3.31,0a1.31,1.31,0,1,0,1.32-1.32A1.33,1.33,0,0,0,53.15,33.82Z"/><path class="cls-1" d="M67.9,38.38c1.45-.17,3.44-.36,6.49-.7a1.59,1.59,0,0,0,.84-.33,1.37,1.37,0,0,1,.69-.22,4,4,0,0,1,1.87,1.13c.53.48.58.7.58,1s-.27.44-.5.56-.48.31-.87,1a26,26,0,0,1-3.74,5.28,22.44,22.44,0,0,1-7.88,5.57,1.77,1.77,0,0,1-.52.14.22.22,0,0,1-.24-.24c0-.12.19-.22.33-.34a27.81,27.81,0,0,0,6.94-6.64,22.88,22.88,0,0,0,3-5,3.27,3.27,0,0,0,.17-.51c0-.07,0-.07-.17-.07a1.81,1.81,0,0,0-.38.05c-2.57.24-4.47.55-6.87,1a4.73,4.73,0,0,0-1.44.41,1.72,1.72,0,0,1-.77.24c-.38,0-.67-.12-1.32-.77a2.89,2.89,0,0,1-.93-1.75c0-.41.12-.68.24-.68s.14.05.36.24a2.31,2.31,0,0,0,1.94.89C66,38.57,67.06,38.48,67.9,38.38Zm1.16-4.58c.88-.12,1.87-.29,2.93-.53a5.54,5.54,0,0,0,1.08-.39,2.81,2.81,0,0,1,.93-.21c1.06,0,2.09.55,2.09,1.08a.72.72,0,0,1-.48.79,9,9,0,0,1-1.46.26c-1,.15-3.61.44-5.5.65-.48,0-.87.07-1.15.07-.87,0-1.35-.33-2.07-1.34a1.53,1.53,0,0,1-.33-1c0-.17,0-.27.14-.27s.14.08.26.17a2.92,2.92,0,0,0,2.26.84C68.14,33.89,68.6,33.84,69.06,33.8Z"/><path class="cls-1" d="M86.77,35.91c0-.12.09-.19.24-.19l.45,0a8.45,8.45,0,0,1,3.05,1,2.85,2.85,0,0,1,1.66,2.4,1.27,1.27,0,0,1-1.3,1.34,1.25,1.25,0,0,1-1.17-.88,8.08,8.08,0,0,0-1-1.73,6.3,6.3,0,0,0-1.75-1.68A.28.28,0,0,1,86.77,35.91Zm3.5,10.89a45.58,45.58,0,0,0,6.65-4.7,50.28,50.28,0,0,0,5.64-5.86.52.52,0,0,1,.31-.21c.17,0,.24.09.24.21a.8.8,0,0,1-.14.41,31.28,31.28,0,0,1-5,6.72A54.88,54.88,0,0,1,91.57,49a3.35,3.35,0,0,0-.63.58,1.23,1.23,0,0,1-1,.57c-.5,0-.81-.22-1.46-.91-1-1.11-1.34-1.73-1.34-2.23s.17-.92.38-.92.19.1.38.32c.53.55.87.88,1.11.88A2.92,2.92,0,0,0,90.27,46.8Z"/><path class="cls-1" d="M114.35,47.28a5.24,5.24,0,0,0-.15,1.35c0,.5.15,1.13.15,1.37,0,.67-.15,1.08-.68,1.08-.69,0-.91-.24-1.56-1.49a11.26,11.26,0,0,1-.79-4.49,29.21,29.21,0,0,1,1-6.74,13.74,13.74,0,0,0,.48-2.45,3.21,3.21,0,0,0-.62-1.9.35.35,0,0,1-.1-.24c0-.07.12-.19.34-.19a2.28,2.28,0,0,1,1.15.6,5.31,5.31,0,0,1,1.1,1.44,2.57,2.57,0,0,1,.41,1.32,1.26,1.26,0,0,1-.33.86,5.19,5.19,0,0,0-.75,1.32,14.93,14.93,0,0,0-1.22,5.14,5.78,5.78,0,0,0,.26,2.42.1.1,0,0,0,.2,0c.74-1.41,1.48-3,2.16-4.41.09-.22.21-.29.33-.29s.24.14.12.5C115.26,44.38,114.61,46.23,114.35,47.28Zm3.81-2.83a3.93,3.93,0,0,0,.29,1.54c.41,1,1.54,1.77,4.1,1.77a15,15,0,0,0,3.12-.21,2.75,2.75,0,0,1,1-.27,3.84,3.84,0,0,1,1.39.39,1,1,0,0,1-.1,1.85,13.33,13.33,0,0,1-4,.4c-4.08,0-6.45-1.68-6.45-4.63a5.48,5.48,0,0,1,.6-2.61c.12-.22.16-.27.26-.27s.14.1.14.24A8.35,8.35,0,0,0,118.16,44.45Zm.65-6.45a2.21,2.21,0,0,1-.5.19c-.2,0-.22-.07-.22-.22s.1-.21.29-.36a11.31,11.31,0,0,1,3-1.58,8.9,8.9,0,0,1,3.09-.51c2.19,0,2.86.77,2.86,1.42s-.43.89-1.46.89c-.32,0-.82-.07-1.13-.07a6.47,6.47,0,0,0-1.42.16,7.15,7.15,0,0,0-2.81,1.71.48.48,0,0,1-.31.14.15.15,0,0,1-.17-.17c0-.07,0-.14.17-.31.39-.48.91-1,1.66-1.87A7.25,7.25,0,0,0,118.81,38Z"/><path class="cls-1" d="M135.49,41.43c-.12,0-.24-.24-.14-.31,3.67-2.36,5.88-4.2,8-7.23a9,9,0,0,0,1.56-3.12c2.76.67,3.36.89,3.36,1.23s-.31.4-1,.48a15.84,15.84,0,0,0,4.58,4.05,16.52,16.52,0,0,0,6.43,2.28c.13,0,.1.27,0,.29-.74.19-1.08.74-1.49,1.8-.17.41-.21.55-.41.55a2.65,2.65,0,0,1-.91-.33A26.93,26.93,0,0,1,150.92,38a22,22,0,0,1-4-5.11A23.56,23.56,0,0,1,135.49,41.43Zm5.95,10.27v.46c0,.67-.43,1-1.34,1-.72,0-1-.22-1-.84,0-1.06.12-2.12.12-6.36,0-.46,0-.92-.05-1.37a19.77,19.77,0,0,1,2.52,1.13h5.95a22.56,22.56,0,0,0,2.19-4.16h-8.45a10.71,10.71,0,0,0-2,.2l-.26-.94a13.45,13.45,0,0,0,2.21.19h8.42c.87-1,1.06-1.1,1.25-1.1s.43.14,1.37.89c.43.36.57.52.57.72s-.21.43-.84.67a25.53,25.53,0,0,1-2,3.53h1c.92-.92,1.11-1.06,1.3-1.06s.46.14,1.37.82c.41.31.55.48.55.67s-.1.31-.72.72v.89c0,2.32.1,3.91.1,4.44s-.36.89-1.37.89c-.75,0-1-.2-1-.82V51.7Zm9.89-5.47h-9.89v4.92h9.89ZM147.06,38c.79-1,1.08-1.22,1.25-1.22s.5.19,1.41.86c.41.32.6.51.6.68s-.07.24-.31.24h-5.88a7.58,7.58,0,0,0-1.39.14l-.27-.89a6.76,6.76,0,0,0,1.61.19Z"/><path class="cls-1" d="M167.84,38.57a3.32,3.32,0,0,1-3.17-1.92.65.65,0,0,1-.12-.31.24.24,0,0,1,.22-.22c.09,0,.12.05.21.15a3.88,3.88,0,0,0,3,.86,36.07,36.07,0,0,0,4.92-.55V34.23c0-.7,0-1-.21-1.2a1.47,1.47,0,0,0-.68-.29,4.16,4.16,0,0,0-.55-.1c-.09,0-.14,0-.14-.16s.09-.27.29-.46a1.54,1.54,0,0,1,1-.41,3.64,3.64,0,0,1,1.84.6c.87.51,1,.94,1,1.23a.94.94,0,0,1-.34.67,1.16,1.16,0,0,0-.46.91c0,.58-.09.89-.12,1.32.92-.14,1.66-.29,2.36-.43a5.39,5.39,0,0,0,1.36-.43,1.79,1.79,0,0,1,1.18-.24c.89,0,1.73.62,1.73,1.22s-.31.86-1.59,1c-1.63.15-3.57.34-5.11.56,0,1.15,0,2.32,0,3.6a10.29,10.29,0,0,0,2.09-.51c.34-.14.29-.31.1-.77a7.86,7.86,0,0,0-.56-.91c-.09-.21.05-.31.27-.14.43.31.91.62,1.32.86a1.32,1.32,0,0,0,.89.22c.72,0,1.12.31,1.12.86s-.52.72-1.29,1a19.4,19.4,0,0,1-3.89,1c0,1,.17,2.76.24,3.72A17.93,17.93,0,0,1,179.58,49c.77.45,1.44,1,1.44,1.89a1,1,0,0,1-.91,1.06,1.26,1.26,0,0,1-.89-.38,15.12,15.12,0,0,0-4.32-2.91c.12,2.18-1,3.58-3.75,3.58a5.47,5.47,0,0,1-3.05-.82A2.48,2.48,0,0,1,167,49.37a2.37,2.37,0,0,1,1.2-1.92,5.72,5.72,0,0,1,2.28-.72,15.5,15.5,0,0,1,2.57,0c0-1.13,0-2.28-.07-3.31-.62,0-1.54,0-1.94,0-2.38,0-3.44-.79-3.44-2a3.05,3.05,0,0,1,.91-2,8.48,8.48,0,0,1,1.18-.94C169.23,38.55,168.44,38.57,167.84,38.57Zm2.43,9.31a4.61,4.61,0,0,0-1.85.46,1.2,1.2,0,0,0-.6,1,1.29,1.29,0,0,0,.77,1.08,4.41,4.41,0,0,0,2.06.32,2.58,2.58,0,0,0,2-.68,2.89,2.89,0,0,0,.38-1.89A8.88,8.88,0,0,0,170.27,47.88Zm-1-8.32a2,2,0,0,0-.67,1.32c0,.6.52,1,1.92,1,.64,0,1.48,0,2.4-.14,0-1.27,0-2.28,0-3.55-.79.09-1.37.19-2.26.31A5,5,0,0,0,169.26,39.56Z"/><path class="cls-1" d="M195.18,47.91c0,.65,0,1.17,0,1.63,0,1.61-.48,2.62-1.18,2.62-.43,0-.72-.2-.84-.89a4.93,4.93,0,0,0-.41-1.56,8.82,8.82,0,0,0-1.65-2.16c-.51.67-.72,1-.87,1.17a1,1,0,0,1-.88.41c-.34,0-.68-.29-.68-1a2.35,2.35,0,0,1,.58-1.54l.48-.48a32.17,32.17,0,0,0,3.94-4.77c0-.75,0-1.35.07-2a14.41,14.41,0,0,0-2.31,1.2.62.62,0,0,1-.55.27,1,1,0,0,1-.69-.39,3.12,3.12,0,0,1-.92-1.8,1.57,1.57,0,0,1,.08-.57c0-.12.09-.17.19-.17s.21.14.33.33c.36.53.6.77,1.11.77a2.65,2.65,0,0,0,.91-.21c.7-.27,1.32-.56,1.92-.8.05-1.48.1-2.52.1-3.38,0-1.25-.2-1.54-1.32-1.92-.29-.1-.32-.14-.32-.24s.1-.19.24-.29a1.87,1.87,0,0,1,.87-.26,2.29,2.29,0,0,1,1.05.24A4,4,0,0,1,196,33.24a1,1,0,0,1,.22.65.76.76,0,0,1-.29.58,1.08,1.08,0,0,0-.34.74c-.05.58-.12,1.15-.17,2.33a.88.88,0,0,1,.36-.1c.1,0,.24.05.53.32a.91.91,0,0,1,.34.6c0,.16-.07.24-.27.48-.5.69-.81,1.1-1.15,1.63,0,.21,0,.53,0,.74a46.66,46.66,0,0,1,3.45-3.43A6.27,6.27,0,0,1,202.19,36a2.41,2.41,0,0,1,2.61,2.57,37.56,37.56,0,0,1-.36,3.91c-.26,2.28-.36,3.58-.36,4.2,0,1.4.24,2,1.27,2,1.61,0,3.36-1.61,4.56-3.68.1-.16.22-.48.39-.48a.3.3,0,0,1,.29.29,1.74,1.74,0,0,1-.12.46A9,9,0,0,1,208.38,49a4.73,4.73,0,0,1-3.29,1.52c-1.92,0-2.9-1-2.9-3.32,0-1.08.07-2.56.26-4.84.12-1.42.17-2.52.17-3.58,0-1.22-.27-1.68-1.11-1.68-.67,0-1.32.38-2.59,1.58a39.15,39.15,0,0,0-3.79,3.82C195.13,44.52,195.13,46.71,195.18,47.91ZM193,48.1c.41.19.6.12.6-.26V44.07c-.77,1-1.54,2.16-2.16,3A8.11,8.11,0,0,0,193,48.1Z"/><path class="cls-1" d="M228.61,36.17c0,.55-.29.87-1,1.13s-2,.55-3.55.91c-1.34,3.15-2.71,6.24-3.86,8.67a4.93,4.93,0,0,1-1,1.51,1.28,1.28,0,0,1-.63.19.92.92,0,0,1-.74-.31,1,1,0,0,1-.34-.77,4,4,0,0,1,.79-1.58,51,51,0,0,0,4-7.3c-.57.07-1.63.22-2.18.22a3,3,0,0,1-1.56-.32A3.18,3.18,0,0,1,217.11,37a1,1,0,0,1-.09-.41c0-.12.12-.14.17-.14s.12,0,.26.14a2.79,2.79,0,0,0,1.08.58,4.79,4.79,0,0,0,1.17.12,18.08,18.08,0,0,0,3.24-.46,9.24,9.24,0,0,0,.8-3c0-.58-.17-.72-1.44-1.2-.12-.05-.2-.12-.2-.22a.41.41,0,0,1,.25-.31,2,2,0,0,1,1.05-.24,5.06,5.06,0,0,1,2.4.79c.51.34.53.6.53.89a.74.74,0,0,1-.31.62c-.34.27-.58.67-1.2,2.21a6.27,6.27,0,0,0,1.58-.72,2.05,2.05,0,0,1,1-.31C228.18,35.36,228.61,35.84,228.61,36.17Zm.7,2.91a8.09,8.09,0,0,0-1.13,0c-.19,0-.34,0-.46,0s-.24,0-.24-.17.12-.24.29-.31a5.76,5.76,0,0,1,2.5-.48,8.36,8.36,0,0,1,4,1.05,1.87,1.87,0,0,1,1.11,1.56c0,.56-.24.94-.84.94a2,2,0,0,1-.94-.38,2.73,2.73,0,0,0-1.87-.84,1.71,1.71,0,0,0-1.08.31,1.69,1.69,0,0,0-.89,1.68,19.3,19.3,0,0,0,.82,4.46c3.69,1.25,4.68,2.23,4.68,3.17a1,1,0,0,1-.94,1.06,1.91,1.91,0,0,1-1.39-.67,10.05,10.05,0,0,0-2.26-1.69,3,3,0,0,1-1.2,2.64,4.69,4.69,0,0,1-2.78.68,4.28,4.28,0,0,1-2.74-.92,2.36,2.36,0,0,1-1-1.82,2.52,2.52,0,0,1,1-2,4.89,4.89,0,0,1,2.88-.87,12.79,12.79,0,0,1,1.73.12c-.1-1.27-.17-2.54-.17-3.57,0-2.07,1.61-3,3.19-3.31A4.87,4.87,0,0,0,229.31,39.08Zm-2.69,8.71a4.07,4.07,0,0,0-2.07.38,1.23,1.23,0,0,0,0,2.11,3.43,3.43,0,0,0,1.71.39,3,3,0,0,0,2-.58,2.06,2.06,0,0,0,.53-1.56,2,2,0,0,0,0-.33A6.15,6.15,0,0,0,226.62,47.79Z"/><path class="cls-1" d="M249.9,46.23a7.61,7.61,0,0,0-.31,1.27,1.44,1.44,0,0,0,.16.65,2.17,2.17,0,0,1,.39,1,.92.92,0,0,1-.91,1,3.38,3.38,0,0,1-2.31-1,7.92,7.92,0,0,1-2.49-4.7,22.06,22.06,0,0,1-.32-3.94c0-1,0-2.16,0-3.33a2.56,2.56,0,0,0-1-1.8c-.12-.12-.17-.12-.17-.27s.1-.24.5-.24a3,3,0,0,1,1.73.87,3.07,3.07,0,0,1,1.37,2.11,1.67,1.67,0,0,1-.21.93,11.47,11.47,0,0,0-.41,3.46,9.45,9.45,0,0,0,.52,3.36c.27.7.65,1.18,1.06,1.18a.88.88,0,0,0,.58-.44c.74-1,1.37-2.13,2.68-4.2.2-.28.37-.48.49-.48s.24,0,.24.17a1,1,0,0,1-.1.39A32.21,32.21,0,0,0,249.9,46.23Zm8.33-7.59a8.27,8.27,0,0,1,3.21,3.22,7.44,7.44,0,0,1,.87,3.14,2.81,2.81,0,0,1-.36,1.73.93.93,0,0,1-.84.51.88.88,0,0,1-.89-.46c-.43-.67-1-1.08-2.52-1.2-.29,0-.36-.1-.36-.24s.21-.19.45-.26a17.41,17.41,0,0,0,1.68-.58.55.55,0,0,0,.39-.58,6.74,6.74,0,0,0-1.15-3,8.12,8.12,0,0,0-2.5-2.45c-.17-.12-.31-.19-.31-.34s.09-.17.21-.17A5.4,5.4,0,0,1,258.23,38.64Z"/><path class="cls-1" d="M275.75,47.91a2.57,2.57,0,0,0,2.78,2.86,3.77,3.77,0,0,0,3-1.16,4.25,4.25,0,0,0,1-3A6.65,6.65,0,0,0,281.39,43a9.29,9.29,0,0,0-2.26-2.19c-.17-.12-.24-.21-.24-.33s.07-.17.19-.17a1.35,1.35,0,0,1,.36.09,9.72,9.72,0,0,1,3.48,2.21,6.19,6.19,0,0,1,1.83,4.08,4.78,4.78,0,0,1-1.42,3.63,6.82,6.82,0,0,1-4.44,1.58c-3.12,0-4.51-2-4.51-4.7,0-.51,0-1,.07-1.61a5.8,5.8,0,0,1-2.28-1.2,2.79,2.79,0,0,1-1-2.21c0-1.34.89-2.3,2.11-3.43A5.39,5.39,0,0,1,271,37.42a2.37,2.37,0,0,1-.74-1.61c0-.26,0-.41.16-.41s.17.1.34.36c.29.46,1,1,2.71,1.3a9.19,9.19,0,0,0,1.15.12,1.86,1.86,0,0,1,1,.34c.29-1.92.48-2.93.51-3.72s-.27-.94-1-1.37c-.24-.15-.34-.2-.34-.29s.12-.24.32-.36a1.58,1.58,0,0,1,.84-.17,5.3,5.3,0,0,1,2.35,1.15,1.51,1.51,0,0,1,.67,1.13.88.88,0,0,1-.41.75c-.14.09-.29.28-.45.81a65.06,65.06,0,0,0-1.9,8.4c.48,0,.77,0,1.22,0a1.77,1.77,0,0,1,.89.31.94.94,0,0,1,.39.84c0,.38-.39.74-.94.84a11.58,11.58,0,0,1-1.85.09C275.77,46.71,275.75,47.28,275.75,47.91Zm-.92-8.64a2.69,2.69,0,0,0-.86.29,4.74,4.74,0,0,0-1.2.81,2.1,2.1,0,0,0-.82,1.51c0,.92.63,1.61,2.74,1.85.22-1.68.41-3.12.62-4.53Z"/><path class="cls-1" d="M303,37.49a9.88,9.88,0,0,1-.53,2.55A17.62,17.62,0,0,1,301,43.49a20.13,20.13,0,0,1-2.67,4,2.62,2.62,0,0,1-2,1,2.41,2.41,0,0,1-1.82-.93c-.87-1-1.32-2.19-1.32-4.37a7.47,7.47,0,0,1,1-3.65,9.26,9.26,0,0,1,3.24-3.36,10.74,10.74,0,0,1,5.81-1.56,9.21,9.21,0,0,1,5.95,1.87,7.38,7.38,0,0,1,2.81,6.1,6.51,6.51,0,0,1-2.21,4.94,10.5,10.5,0,0,1-3.55,2.14,16.91,16.91,0,0,1-4.92.91c-.36,0-.53,0-.53-.24s.14-.24.45-.31a11.85,11.85,0,0,0,6.17-3.14,7.14,7.14,0,0,0,2.16-5.57,5.23,5.23,0,0,0-2.11-4.51,7.54,7.54,0,0,0-3.84-1.3,12.86,12.86,0,0,0-1.51,0A3.36,3.36,0,0,1,303,37.49Zm-5.84.1a7.34,7.34,0,0,0-2,2.95,6.25,6.25,0,0,0-.4,2.28,4.71,4.71,0,0,0,.6,2.59,1.54,1.54,0,0,0,1.05.79c.39,0,.75-.24,1.66-1.53a29.1,29.1,0,0,0,3.21-5.88,5.54,5.54,0,0,0,.51-2,1.21,1.21,0,0,0-.43-1.08A8,8,0,0,0,297.15,37.59Z"/><line class="cls-4" x1="29.5" y1="60.5" x2="323" y2="60.5"/><path class="cls-3" d="M584,95.83A11.57,11.57,0,0,0,587.2,98a14.25,14.25,0,0,0,4.59,1.1c.09,0,.09.13,0,.16-.48.2-.66.45-.88,1.14-.16.48-.22.54-.39.54a2.58,2.58,0,0,1-.67-.18,15.61,15.61,0,0,1-2.56-1.28A13,13,0,0,1,584,96.34c0,1.71,0,2.3,0,2.86s-.33.68-1,.68c-.43,0-.68-.16-.68-.56,0-.68,0-1.51,0-2.5a13.58,13.58,0,0,1-3.73,2.86,10.12,10.12,0,0,1,1.64.83h5.91c.59-.68.74-.79.88-.79s.34.11,1,.63c.34.25.43.4.43.54s-.11.29-.47.54v.9c0,2.25.09,3.89.09,4.43s-.34.74-1,.74c-.5,0-.74-.18-.74-.56v-.52h-6.28v.41c0,.45-.32.69-1,.69-.5,0-.72-.18-.72-.6,0-.66.09-1.38.09-4,0-1.05,0-2.07-.07-3.12a17.74,17.74,0,0,1-3.51,1.31c-.09,0-.18-.18-.09-.21A15.39,15.39,0,0,0,581,95.83h-4.25a6.57,6.57,0,0,0-1.07.11l-.19-.67a5.15,5.15,0,0,0,1.2.15h5.62V93.56a54.46,54.46,0,0,1-5.51.13c-.09,0-.11-.25,0-.25a37.53,37.53,0,0,0,9-1.73,13.89,13.89,0,0,0,1.37-.61c1.48,1,1.73,1.22,1.73,1.44s-.27.34-1.1.16a29.46,29.46,0,0,1-3.89.7v2h4c.95-1.08,1.17-1.23,1.29-1.23s.36.15,1.23.87c.38.3.52.47.52.59s0,.18-.23.18Zm2.37,5.1h-6.28v2.19h6.28Zm0,2.61h-6.28V106h6.28Z"/><path class="cls-3" d="M602.28,93.53a20.91,20.91,0,0,0-.07-2.11c2.13.22,2.31.43,2.31.63s-.24.32-.63.47v1.92h1.91v-.91c0-.87,0-1.55-.09-2.11,2.12.22,2.28.43,2.28.63s-.2.32-.59.47v1.92h1.74c.69-.77.83-.88,1-.88s.32.11,1,.69c.31.27.42.39.42.54s-.09.27-.51.57v7.3c.6-1.09.81-1.23.94-1.23s.32.14,1,.87c.29.28.44.46.44.59s-.06.18-.24.18H598.07a9.74,9.74,0,0,0-1.31.11l-.2-.67a7.69,7.69,0,0,0,1.47.15h.65V97.58a37.12,37.12,0,0,0-.16-4.07,9.63,9.63,0,0,1,2,.93h1.72Zm.51,11.66a11.36,11.36,0,0,1-5.73,2.51c-.09,0-.16-.22-.07-.26a12.6,12.6,0,0,0,3.37-2.39,6.22,6.22,0,0,0,1.08-1.4c1.73.75,2.14,1,2.14,1.18S603.38,105.19,602.79,105.19Zm-2.45-10.33v3.49h1.94V94.86Zm0,3.91v3.89h1.94V98.77Zm3.55-3.91v3.49h1.91V94.86Zm0,7.8h1.91V98.77h-1.91Zm6.89,5c-.43,0-.59-.15-1-.71a10.07,10.07,0,0,0-3.61-2.8c-.08,0,0-.22.05-.2,3.74.43,5.49,1.28,5.49,2.68A1,1,0,0,1,610.78,107.61Zm-3.38-9.26h2V94.86h-2Zm0,4.31h2V98.77h-2Z"/><path class="cls-3" d="M622.35,103.72a2.72,2.72,0,0,0,1.71,1.51,15.08,15.08,0,0,0,4.09.41,55.06,55.06,0,0,0,6.92-.45c.09,0,.09.17,0,.2a1.14,1.14,0,0,0-.7,1c0,.56-.09.61-.43.65-1,.12-3.1.16-4.39.16-3,0-4.76-.23-5.91-.95a4.52,4.52,0,0,1-1.8-2.65,12.9,12.9,0,0,1-2.07,2.72c.07.68-.07.83-.31.83s-.66-.65-1.33-2.2a9.41,9.41,0,0,0,1.3-.47,7.61,7.61,0,0,0,1.24-.7V99.05h-1.24a3.45,3.45,0,0,0-1,.15l-.2-.72a4.6,4.6,0,0,0,1.19.16h1.13c.52-.72.67-.83.81-.83s.34.11,1.06.63c.35.25.45.38.45.52s0,.18-.54.58Zm-1-8.55c-.42,0-.63-.22-.89-1.12a5.15,5.15,0,0,0-1.15-2.11c-.07-.07.05-.18.15-.16,2.1.52,2.88,1.39,2.88,2.3A1,1,0,0,1,621.35,95.17Zm9.81.68c.63-.78.77-.88.92-.88s.32.1,1.06.72c.32.27.43.39.43.54s-.11.29-.56.52a12,12,0,0,1-1.71,3.57c2,1.31,2.58,2.41,2.58,3.18s-.34,1.1-.81,1.1-.62-.23-1-.83a19,19,0,0,0-1.69-2.34,13.3,13.3,0,0,1-5.89,3.48c-.09,0-.18-.18-.11-.22a15.17,15.17,0,0,0,5-4.3,14.24,14.24,0,0,0-2.5-2.07c-.07-.06,0-.27.13-.24a31.91,31.91,0,0,1,3,1.42,11.15,11.15,0,0,0,1.29-3.24h-4.84A20.84,20.84,0,0,1,626,100a7.92,7.92,0,0,1-2.79,4.41c-.07.06-.22-.09-.16-.16a9.43,9.43,0,0,0,1.6-4.57,43.05,43.05,0,0,0,.2-5,28,28,0,0,0-.15-3.19,13,13,0,0,1,2,1.1h4.95c.8-1.06.94-1.17,1.09-1.17s.34.11,1.22.79c.41.34.52.47.52.61s-.07.18-.27.18h-7.69v.6c0,.84,0,1.62,0,2.32Z"/><path class="cls-3" d="M643.85,95.11a23.82,23.82,0,0,0-.31,3.17c-.14,1.89-.22,3.53-.22,4.66,0,.94.15,1.46.42,1.71a2.79,2.79,0,0,0,1.73.42,8.84,8.84,0,0,0,3.92-1.1,10.49,10.49,0,0,0,3.15-2.43c.11-.13.22-.23.33-.23a.16.16,0,0,1,.18.17,1.69,1.69,0,0,1-.24.51,10.27,10.27,0,0,1-3.13,3.2,8.08,8.08,0,0,1-4.81,1.46c-1.89,0-3-1.29-3-3.51.08-3,.2-6,.27-8.7,0-.66-.1-1-.68-1.18s-.56-.2-.56-.31.13-.23.31-.32a2.37,2.37,0,0,1,.83-.17,2.75,2.75,0,0,1,1.72.82,1.25,1.25,0,0,1,.53.91.9.9,0,0,1-.26.62C644,94.91,643.88,95,643.85,95.11Z"/><rect class="cls-3" x="544.9" y="97.52" width="9.19" height="9.19" transform="translate(88.74 418.46) rotate(-45)"/><path class="cls-3" d="M576.44,142.41a11.11,11.11,0,0,1-1.7,1.23c-.07.05-.19-.11-.14-.18a17.12,17.12,0,0,0,2.56-3.8,10.87,10.87,0,0,0,.75-2c1.84.76,1.91.81,1.91,1s-.14.27-.61.38a14.11,14.11,0,0,1-1.44,2c.59.09.68.18.68.34s-.11.25-.47.43v7.67c0,.53-.3.76-.91.76-.38,0-.76-.16-.76-.68s.13-1.89.13-4.74Zm2.75-7.43a12.7,12.7,0,0,1-4.3,3.74c-.07,0-.2-.14-.13-.2a14.1,14.1,0,0,0,2.4-3.35,8.32,8.32,0,0,0,.66-1.65c1.41.48,2.13.88,2.13,1.13S579.73,134.94,579.19,135Zm4.65,1.53c.54-.72.75-.87.88-.87s.34.15.9.61c.23.2.38.36.38.49s-.06.18-.24.18h-2.14v2.81h.5c.56-.72.78-.87.9-.87s.35.15.91.62c.23.19.37.36.37.48s0,.18-.23.18h-2.45v2.78h.5c.45-.65.67-.8.8-.8s.34.15.86.58c.2.16.34.32.34.45s0,.18-.23.18h-2.27v3.17A19.56,19.56,0,0,0,586,146a.2.2,0,0,1,.1.31,33.64,33.64,0,0,1-6.43,2.34c-.07.42-.17.6-.36.6s-.28-.2-.86-2.16c.32,0,.67,0,1-.06v-3.94a13.36,13.36,0,0,0-.09-1.42c1.85.18,2,.34,2,.5s-.16.31-.47.45v4.29c.38,0,.78-.09,1.16-.15v-6.61h-1.64a5.43,5.43,0,0,0-1,.11l-.2-.66a4.88,4.88,0,0,0,1.12.14h1.71v-2.81H581a8.8,8.8,0,0,1-1.43,1.21c-.08.05-.22-.06-.17-.13a12.25,12.25,0,0,0,1.34-2.77,11.13,11.13,0,0,0,.39-1.62c1.51.41,2.07.65,2.07.9s-.23.34-.77.38a8.72,8.72,0,0,1-1.06,1.62Zm5.47-1.3c.63-.76.77-.86.92-.86s.32.1,1,.64c.29.26.4.38.4.53s-.11.3-.49.59v1.37c0,7.31,0,8.14,0,8.75a1.52,1.52,0,0,1-.4,1.06,1.63,1.63,0,0,1-1.22.47c-.22,0-.29-.11-.33-.47-.07-.61-.27-.83-1.06-1.17-.09,0-.09-.22,0-.22.4,0,.67,0,1.12,0,.21,0,.27-.07.27-.27v-10H588v14c0,.47-.29.68-.92.68-.43,0-.67-.14-.67-.54,0-.7.08-2,.08-11.95,0-1.68,0-2.4-.09-3.46a9.88,9.88,0,0,1,1.71.9Z"/><path class="cls-3" d="M602,147.4c0,.65-.27.86-1,.86-.55,0-.73-.19-.73-.7,0-.72.06-1.46.06-4.39,0-.34,0-.69,0-1a15.18,15.18,0,0,1-3.76,2.67c-.07,0-.2-.15-.13-.2a18.36,18.36,0,0,0,5.29-7.17h-3a15.49,15.49,0,0,0-1.66.11l-.2-.67a12.56,12.56,0,0,0,1.87.15h3.14c.12-.31.23-.61.32-.92a13,13,0,0,0,.56-2.52c2,.31,2.47.47,2.47.79s-.13.33-.69.49c-.27.77-.56,1.49-.84,2.16h6.1c1-1.21,1.21-1.35,1.33-1.35s.36.14,1.35.93c.45.36.6.53.6.65s-.06.18-.24.18h-9.32a17.57,17.57,0,0,1-1.86,3.17l.52.33h2.58v-.87a17.33,17.33,0,0,0-.09-1.91c2.19.24,2.3.27,2.3.54s-.12.31-.63.51v1.73h2.88c.69-.74.83-.85,1-.85s.32.11,1,.68c.31.27.42.4.42.54s-.13.31-.49.53v.79c0,3.2,0,3.44,0,4a1.38,1.38,0,0,1-.49,1.07,2.19,2.19,0,0,1-1.38.43c-.33,0-.4-.06-.44-.33-.09-.79-.3-1-1.65-1.35-.09,0-.09-.21,0-.21.86,0,1.4.05,1.92.05.27,0,.33-.05.33-.32v-4.63h-3.12c0,4.21,0,7.13,0,8.12,0,.5-.33.72-1,.72s-.74-.16-.74-.67c0-.86.07-3.35.09-8.17H602Z"/><path class="cls-3" d="M621.71,137.6c0,.9-.06,1.82-.11,2.72h1.19c.56-.73.7-.84.84-.84s.33.11.94.66c.27.24.38.38.38.53s-.06.18-.43.46c-.2,3.78-.54,6.5-1,7.46a2.17,2.17,0,0,1-.7.86,2.1,2.1,0,0,1-1.27.38c-.21,0-.28-.07-.3-.29-.11-.74-.36-1-1.3-1.31-.09,0-.05-.22,0-.22.81.07,1.28.09,1.47.09.54,0,.67-.09.85-.81a36.62,36.62,0,0,0,.63-6.55h-1.35c-.36,4.68-1.37,7.07-3.64,9.14-.07.06-.23-.09-.18-.16,1.64-2.79,2.33-6.14,2.33-11.59v-.53h-.47a7.6,7.6,0,0,0-1.15.11l-.2-.66a7,7,0,0,0,1.33.14h1.08V135c0-.29,0-.72-.07-1.33,2,.2,2.2.4,2.2.58s-.17.27-.51.45v2.48h.58c.64-.81.86-.95,1-.95s.34.14.93.68c.24.22.38.38.38.5s0,.18-.23.18Zm5.22-.45a10.2,10.2,0,0,1-2.34,2.47c-.07,0-.25-.05-.2-.12a13.37,13.37,0,0,0,1.66-3.57,12.76,12.76,0,0,0,.45-2.32c1.89.39,2.3.56,2.3.81s-.18.32-.65.39a10.8,10.8,0,0,1-.95,1.93h4.61c.88-1.08,1.1-1.22,1.22-1.22s.34.14,1.15.84c.36.33.51.49.51.61s-.06.18-.24.18Zm.57,10.45c0,.61.11.72,2.42.72s2.7-.07,3-.27.44-.43,1.07-2.4c0-.09.23-.05.23,0,0,.54-.05,1.3-.05,1.64a.42.42,0,0,0,.27.47c.36.21.48.39.48.72s-.32.81-1.15,1a17.68,17.68,0,0,1-3.44.23c-3.71,0-4.37-.27-4.37-1.69,0-.45,0-.9,0-2.78,0-.82,0-1.63,0-2.46a4.68,4.68,0,0,0-1.06.41l-.34-.59a5,5,0,0,0,1.15-.2l.25-.07c0-1.14,0-2.27-.05-3.42,1.91.19,2.14.27,2.14.54s-.12.29-.56.46v2l1.44-.42v-1.28a19.33,19.33,0,0,0-.09-2.37c1.59.14,2.11.28,2.11.55s-.16.29-.57.42v2.27l1.36-.4c.56-.84.74-1,.94-1a2.85,2.85,0,0,1,1.24.83.69.69,0,0,1,.22.36c0,.18-.13.3-.52.55a26.87,26.87,0,0,1-.29,3.73,2,2,0,0,1-.58,1.12,1.64,1.64,0,0,1-1.1.39c-.23,0-.25,0-.25-.48s-.36-.8-1-1.07c0,.56,0,1,0,1.21,0,.47-.27.65-.92.65-.48,0-.63-.13-.63-.59s.06-1.86.07-4.4l-1.44.42Zm2.89-6.07c0,.56,0,1.1,0,1.66v1.63a4.83,4.83,0,0,0,1,.11c.28,0,.46-.14.52-.48a27.62,27.62,0,0,0,.2-3.41Z"/><path class="cls-3" d="M645.25,141.8a1.61,1.61,0,1,1-1.62-1.62A1.61,1.61,0,0,1,645.25,141.8Z"/><path class="cls-3" d="M659.45,142.75c0,2.33,0,4,0,4.56s-.34.7-1,.7-.74-.2-.74-.63.05-1.91.09-4.63h-1.46a9.89,9.89,0,0,1-1.06,3.95,7.88,7.88,0,0,1-2.54,2.54c-.07,0-.25-.13-.2-.2a7,7,0,0,0,1.73-3,14.85,14.85,0,0,0,.47-3.28h-.6a6.79,6.79,0,0,0-1.09.11l-.2-.66a6.55,6.55,0,0,0,1.29.14h.62c0-.52,0-1.1,0-1.73a15.19,15.19,0,0,0-.09-2c1.89.2,2.22.29,2.22.54s-.16.29-.47.42c0,1,0,2-.07,2.79h1.44v-1.58a15.47,15.47,0,0,0-.09-2.15c1.78.2,2.21.29,2.21.56s-.1.31-.54.49v2.68h.22c.58-.85.79-1,.92-1s.32.14.93.7c.24.22.38.4.38.52s0,.18-.23.18Zm3.71-5.13a19.27,19.27,0,0,0,.9,5.58,10.71,10.71,0,0,0,.63-1.27,10.4,10.4,0,0,0,.74-2.6c1.55.49,2.11.74,2.11,1s-.16.27-.63.38a16.39,16.39,0,0,1-2.09,4.14,8.64,8.64,0,0,0,1.94,2.24,1.45,1.45,0,0,0,.6.36c.2,0,.47-.47,1.28-2,0-.07.18-.06.16,0-.27,2-.29,2.15-.29,2.26s0,.34.34.79a1.14,1.14,0,0,1,.16.63c0,.48-.27.74-.79.74a4,4,0,0,1-2.07-1,10,10,0,0,1-2.46-2.68,13.29,13.29,0,0,1-5.57,3.46c-.09,0-.2-.16-.12-.2a16.34,16.34,0,0,0,5-4.56,20,20,0,0,1-1.46-7.29h-7.36a9,9,0,0,0-1.26.11l-.2-.67a7.6,7.6,0,0,0,1.46.15h7.35c0-.47,0-1-.06-1.46a17.45,17.45,0,0,0-.11-2c1.91.22,2.35.34,2.35.61s-.15.31-.58.56c0,.85,0,1.6,0,2.29h2.78c.68-1.05.9-1.19,1-1.19s.35.14,1.16.83c.36.3.5.47.5.59s-.05.18-.23.18Zm2.38-1c-.32,0-.45-.13-.72-.81a3.43,3.43,0,0,0-.94-1.35c-.07-.06,0-.15.06-.13q2.37.27,2.37,1.41A.84.84,0,0,1,665.54,136.67Z"/><path class="cls-3" d="M684.91,136c.75-.81.9-.92,1-.92s.32.11,1.1.81c.34.31.45.45.45.6s-.09.3-.79.52a18.39,18.39,0,0,1-6.2,6.37l0,0h6c.67-.76.81-.86,1-.86s.32.1,1,.68c.3.27.41.4.41.54s-.13.27-.5.52v.85c0,2.21.07,3.73.07,4.23s-.34.7-1.08.7c-.56,0-.74-.16-.74-.63V149h-6.27v.44c0,.5-.3.7-1,.7-.56,0-.76-.16-.76-.65,0-.74.11-1.48.11-4.45,0-.21,0-.45,0-.66a26,26,0,0,1-4.39,1.63c-.09,0-.18-.17-.09-.21a24.12,24.12,0,0,0,6.59-4.21,1.38,1.38,0,0,1-.2,0c-.38,0-.58-.23-.76-.88a4,4,0,0,0-1.13-2.05,16.9,16.9,0,0,1-3.93,2.36c-.09,0-.21-.13-.14-.18a17.22,17.22,0,0,0,4.61-5,10.53,10.53,0,0,0,1.13-2.43c1.8.42,2.2.6,2.2.9s-.14.35-.68.49c-.24.41-.49.79-.74,1.17Zm-4,.41a13.46,13.46,0,0,1-1.93,2.06c1.57.41,2.53,1.2,2.53,2.09a1.06,1.06,0,0,1-.11.48,19.39,19.39,0,0,0,3.62-4.63Zm5.8,7.4h-6.27v4.74h6.27Z"/><path class="cls-3" d="M700.42,142.07c0,2.16.06,6.25.06,7.36,0,.53-.35.72-1,.72-.49,0-.71-.14-.71-.57,0-.7.18-3.75.22-6.34a12.66,12.66,0,0,1-3.37,4c-.07.06-.19-.07-.14-.14a21.14,21.14,0,0,0,3.28-6.83h-1.62a6.58,6.58,0,0,0-1.08.11l-.2-.67a5.15,5.15,0,0,0,1.2.15h1.84V136c0-1,0-1.6-.07-2.43,2,.29,2.16.32,2.16.59s-.14.27-.56.47v5.15h.86c.56-.77.78-.92.91-.92s.34.15.93.65c.25.22.4.38.4.5s-.06.18-.24.18h-2.86v1.34c1.64.41,2.63,1.08,2.63,2.08a.87.87,0,0,1-.78.87c-.39,0-.66-.09-.88-.85a4.06,4.06,0,0,0-1-1.65ZM697.63,139c-.45,0-.58-.2-.7-1.24a7,7,0,0,0-.69-2.58c0-.07.08-.18.15-.12,1.35,1,2,2,2,2.88C698.39,138.52,698.08,139,697.63,139Zm5.47-2.66a13.52,13.52,0,0,1-2.05,2.7c0,.07-.21,0-.18-.09a20.75,20.75,0,0,0,.77-2.56,11.55,11.55,0,0,0,.26-1.42c1.53.59,1.89.79,1.89,1S703.59,136.27,703.1,136.33Zm7.1,7.56c.54-1.06.68-1.23.83-1.23s.36.11,1.08.56c.32.2.43.31.43.45s-.07.18-.2.22l-2.3.43c0,2.65.07,4.25.07,5,0,.54-.33.78-1.05.78-.55,0-.77-.18-.77-.63,0-.83,0-2.36,0-4.85l-4.4.83a8.6,8.6,0,0,0-1.26.38l-.34-.65a7.1,7.1,0,0,0,1.44-.12l4.56-.85c0-1.84,0-4.16,0-7,0-1.64,0-2.34-.09-3.38,1.87.18,2.35.3,2.35.61s-.12.25-.59.48v2.88c0,2.47,0,4.49,0,6.14Zm-4.2-1c-.39,0-.57-.15-.75-.63a4.12,4.12,0,0,0-1.53-2c-.08-.05,0-.16.07-.16,2.09.2,3.08.77,3.08,1.8A.93.93,0,0,1,706,142.92Zm.56-4.27c-.41,0-.47-.07-.94-1.12a3.58,3.58,0,0,0-1.29-1.55.09.09,0,0,1,0-.16c2,.18,3.1.83,3.1,1.86A.92.92,0,0,1,706.56,138.65Z"/><rect class="cls-3" x="544.9" y="139.94" width="9.19" height="9.19" transform="translate(58.74 430.88) rotate(-45)"/></g></g></svg>