<svg xmlns="http://www.w3.org/2000/svg" viewBox="0 0 1378 190"><defs><style>.cls-1,.cls-20{fill:#65997d;}.cls-2{fill:#fff;}.cls-15,.cls-18,.cls-3,.cls-4,.cls-5{fill:#091911;}.cls-15,.cls-18,.cls-4,.cls-5{font-size:16px;}.cls-15,.cls-18,.cls-20,.cls-4,.cls-5{font-family:YuMin-Demibold-83pv-RKSJ-H, YuMincho;}.cls-4,.cls-8{letter-spacing:0.2em;}.cls-5{letter-spacing:0.18em;}.cls-6{letter-spacing:0.2em;}.cls-7{letter-spacing:-0.3em;}.cls-9{letter-spacing:0.18em;}.cls-10{letter-spacing:0.11em;}.cls-11{letter-spacing:0.17em;}.cls-12{letter-spacing:0.2em;}.cls-13{letter-spacing:-0.3em;}.cls-14{letter-spacing:-0.05em;}.cls-15{letter-spacing:0.21em;}.cls-16{letter-spacing:-0.05em;}.cls-17{letter-spacing:-0.08em;}.cls-18{letter-spacing:0.12em;}.cls-19{letter-spacing:0.06em;}.cls-20{font-size:24px;letter-spacing:0.04em;}.cls-21{letter-spacing:-0.03em;}.cls-22{letter-spacing:0.13em;}.cls-23{letter-spacing:0.12em;}.cls-24{letter-spacing:0.05em;}.cls-25{letter-spacing:0.15em;}.cls-26{letter-spacing:0.09em;}.cls-27{letter-spacing:0.06em;}.cls-28{letter-spacing:0.03em;}.cls-29{letter-spacing:0.15em;}.cls-30{fill:none;stroke:#65997d;stroke-miterlimit:10;}.cls-31{letter-spacing:0.08em;}.cls-32{letter-spacing:0.13em;}</style></defs><g id="レイヤー_2" data-name="レイヤー 2"><g id="レイヤー_4" data-name="レイヤー 4"><rect class="cls-1" width="1378" height="190" rx="5"/><rect class="cls-2" x="5" y="5" width="1368" height="180" rx="5"/><rect class="cls-3" x="63.32" y="136.56" width="8.49" height="8.49" transform="translate(-79.77 89.01) rotate(-45)"/><text class="cls-4" transform="translate(90.42 143.99)">会葬礼状</text><text class="cls-5" transform="translate(89.51 106.22)">ご<tspan class="cls-6" x="18.83" y="0">遺体搬</tspan><tspan class="cls-7" x="76.43" y="0">送</tspan><tspan class="cls-8" x="87.63" y="0">（病</tspan><tspan class="cls-9" x="126.03" y="0">院</tspan><tspan class="cls-6" x="144.98" y="0">や施設</tspan><tspan class="cls-10" x="202.58" y="0">〜</tspan><tspan class="cls-11" x="220.37" y="0">ご</tspan><tspan class="cls-12" x="239.1" y="0">自</tspan><tspan class="cls-8" x="258.22" y="0">宅等</tspan><tspan class="cls-13" x="296.63" y="0">）</tspan></text><rect class="cls-3" x="63.47" y="97.52" width="9.19" height="9.19" transform="translate(-52.27 78.04) rotate(-45)"/><text class="cls-4" transform="translate(524.88 106.22)">遺影写<tspan class="cls-14" x="57.6" y="0">真・</tspan><tspan x="88" y="0">納棺処置</tspan></text><rect class="cls-3" x="497.43" y="97.52" width="9.19" height="9.19" transform="translate(74.83 384.9) rotate(-45)"/><text class="cls-15" transform="translate(524.48 143.99)">お<tspan class="cls-6" x="19.41" y="0">料</tspan><tspan class="cls-16" x="38.61" y="0">理</tspan><tspan class="cls-17" x="53.81" y="0">・</tspan><tspan x="68.61" y="0">お</tspan><tspan class="cls-8" x="88.02" y="0">飲物</tspan></text><rect class="cls-3" x="497.43" y="135.64" width="9.19" height="9.19" transform="translate(47.88 396.06) rotate(-45)"/><rect class="cls-3" x="1047.73" y="97.52" width="9.19" height="9.19" transform="translate(236.01 774.02) rotate(-45)"/><text class="cls-18" transform="translate(1078.18 106.22)">引<tspan class="cls-19" x="17.89" y="0">き</tspan><tspan class="cls-6" x="34.88" y="0">出物</tspan></text><text class="cls-20" transform="translate(33.78 51.03)">プ<tspan class="cls-21" x="25.06" y="0">ラ</tspan><tspan class="cls-19" x="48.41" y="0">ン</tspan><tspan class="cls-22" x="73.9" y="0">に</tspan><tspan class="cls-23" x="100.94" y="0">含</tspan><tspan class="cls-24" x="127.87" y="0">ま</tspan><tspan class="cls-25" x="153.12" y="0">れ</tspan><tspan class="cls-26" x="180.67" y="0">な</tspan><tspan class="cls-27" x="206.81" y="0">い</tspan><tspan class="cls-28" x="232.2" y="0">も</tspan><tspan class="cls-29" x="256.85" y="0">の</tspan></text><line class="cls-30" x1="29.5" y1="60.5" x2="323" y2="60.5"/><text class="cls-4" transform="translate(819.23 106.22)">香典<tspan class="cls-31" x="38.4" y="0">返</tspan><tspan class="cls-32" x="55.7" y="0">し</tspan></text><rect class="cls-3" x="789.78" y="97.52" width="9.19" height="9.19" transform="translate(160.46 591.62) rotate(-45)"/><text class="cls-4" transform="translate(821.23 143.99)">御布<tspan class="cls-16" x="38.4" y="0">施・</tspan><tspan x="68.8" y="0">戒名料</tspan></text><rect class="cls-3" x="791.78" y="135.64" width="9.19" height="9.19" transform="translate(134.09 604.2) rotate(-45)"/></g></g></svg>