<svg xmlns="http://www.w3.org/2000/svg" viewBox="0 0 1378 230"><defs><style>.cls-1{fill:#65997d;}.cls-2{fill:#fff;}.cls-3{fill:#091911;}.cls-4{fill:none;stroke:#65997d;stroke-miterlimit:10;}</style></defs><g id="レイヤー_2" data-name="レイヤー 2"><g id="レイヤー_4" data-name="レイヤー 4"><rect class="cls-1" width="1378" height="230" rx="5"/><rect class="cls-2" x="5" y="5" width="1368" height="220" rx="5"/><path class="cls-3" d="M95.29,90.85c-.18.25-.37.49-.56.73,1,.15,1.58.56,1.58,1.11a.53.53,0,0,1-.46.56c-.16,0-.24-.1-.39-.39a2.71,2.71,0,0,0-.88-1.1,11.12,11.12,0,0,1-1.21,1.17c1,.21,1.58.66,1.58,1.23a.55.55,0,0,1-.48.59c-.21,0-.3-.09-.4-.38a2.92,2.92,0,0,0-.88-1.3,11.27,11.27,0,0,1-1.55,1c-.08,0-.19-.13-.11-.19A12.58,12.58,0,0,0,94.63,90a7.24,7.24,0,0,0,.53-1.46c1.23.39,1.55.55,1.55.74s-.14.24-.61.29c-.17.3-.35.61-.54.88h2.1c.49-.56.57-.61.67-.61s.21,0,.8.58c.25.25.3.35.3.44s-.11.23-.56.37a11.74,11.74,0,0,1-7.22,6.28c-.11,0-.2-.18-.11-.23a13.2,13.2,0,0,0,6.21-6.43Zm-3,11.57a9.52,9.52,0,0,0,2.66-3,5.54,5.54,0,0,0,.47-1c1.19.51,1.52.69,1.52.86s-.16.21-.65.24a9.08,9.08,0,0,1-3.85,3.08C92.36,102.63,92.21,102.48,92.29,102.42Zm7.22-2.69c0,1.35,0,2,0,2.37a1.1,1.1,0,0,1-.53,1,1.8,1.8,0,0,1-.93.25c-.19,0-.24,0-.27-.32s-.33-.58-1.71-.88c-.1,0-.08-.22,0-.22,1,.08,1.61.09,2,.09s.26-.06.26-.29v-4h-4a5,5,0,0,0-1.06.1l-.17-.63a5.26,5.26,0,0,0,1.21.13h8.2c.66-.82.77-.9.86-.9s.23.08,1,.68c.3.25.38.37.38.46s-.06.16-.21.16h-5ZM96.25,95a5,5,0,0,0,1.12.11h2.51c.58-.69.69-.77.79-.77s.22.08.84.58c.27.22.35.33.35.44s0,.15-.2.15H97.38a5.93,5.93,0,0,0-1,.09Zm7.28-4.82c.53-.53.62-.59.72-.59s.21.08.72.57c.26.26.34.37.34.47s-.13.2-.55.28a9.47,9.47,0,0,1-2.62,2.49,9.71,9.71,0,0,0,4.27,2.36c.08,0,.07.16,0,.18-.4.08-.61.22-.77.78-.08.26-.11.32-.24.32a2.15,2.15,0,0,1-.85-.35,9.77,9.77,0,0,1-3-2.64,12.79,12.79,0,0,1-2-4.11.48.48,0,0,0-.16-.26.29.29,0,0,1-.16-.22c0-.08.43-.24.56-.24s.15,0,.15.11-.07.18-.07.24a1.14,1.14,0,0,0,.1.4,9.51,9.51,0,0,0,2,3.2,11.1,11.1,0,0,0,1.65-2.59h-1.71a4.26,4.26,0,0,0-1.12.11l-.16-.62a6,6,0,0,0,1.23.11Zm-.34,11.38a7.7,7.7,0,0,0-2.25-2.72c-.07-.05,0-.18.11-.16,2.08.62,3.52,1.79,3.52,2.78,0,.47-.27.82-.66.82S103.47,102.15,103.19,101.59Z"/><path class="cls-3" d="M113.85,98.63a17.73,17.73,0,0,0,2-.68c.08,0,.15.13.08.18a20.71,20.71,0,0,1-4.1,2.19c-.06.5-.14.64-.32.64s-.38-.28-.83-1.63a9.77,9.77,0,0,0,1.22-.19l.85-.21V93.7h-.93a5.46,5.46,0,0,0-.91.09l-.16-.6a4.08,4.08,0,0,0,1,.11h1V91.62c0-1.33,0-2.07-.08-2.64,1.56.16,1.76.28,1.76.46s-.13.26-.56.45V93.3h.41c.42-.64.55-.72.64-.72s.21.08.72.54c.2.19.28.32.28.42s-.05.16-.21.16h-1.84Zm.46,3.73a6.87,6.87,0,0,0,1.31.11h8c.62-.74.73-.83.84-.83s.23.09.88.64c.31.24.39.33.39.45s-.07.14-.21.14h-9.86a7.2,7.2,0,0,0-1.17.1Zm9.08-12c.59-.75.72-.83.81-.83s.26.06.9.59c.32.27.38.38.38.48s0,.16-.2.16h-8.9a6.38,6.38,0,0,0-1.12.1l-.16-.63a5.79,5.79,0,0,0,1.28.13h3v-.54a9.33,9.33,0,0,0-.08-1.19c1.53.18,1.73.31,1.73.47s-.12.22-.53.38v.88ZM117,96.53a.42.42,0,0,1-.21.38,8.68,8.68,0,0,1,1.22.55h4.11c.4-.48.49-.55.59-.55s.22.07.69.44c.24.21.3.29.3.38s-.06.22-.4.45v.75c0,1.52,0,2.21,0,2.42s-.23.48-.68.48c-.29,0-.41-.13-.41-.42v-.09h-4.41v.17c0,.32-.22.47-.62.47s-.46-.12-.46-.4,0-.87,0-2.85c0-.83,0-1.23,0-1.8a.77.77,0,0,1-.36.07c-.35,0-.48-.11-.48-.39s0-.91,0-3c0-1.09,0-1.65-.06-2.34a9.94,9.94,0,0,1,1.23.56H123c.43-.44.51-.49.61-.49s.21,0,.64.43c.25.19.32.29.32.38s-.1.23-.43.44v.94c0,1.81.06,2.63.06,2.88s-.23.45-.62.45-.45-.13-.45-.37v-.06H117Zm6.13-4.3H117V96h6.13Zm-.88,5.63h-4.41v1.28h4.41Zm-4.41,3.06h4.41V99.54h-4.41Zm1.22-5.81c0,.32-.17.43-.56.43s-.4-.1-.4-.35,0-.39,0-1.14c0-.5,0-.82,0-1.35a6.33,6.33,0,0,1,1,.5h1.78c.35-.38.45-.45.54-.45s.19.07.56.37c.18.16.24.24.24.34s0,.19-.33.37v.22c0,.64,0,.9,0,1,0,.31-.18.43-.58.43s-.38-.09-.38-.36v0h-1.94ZM121,93.6h-1.94v1.07H121Z"/><rect class="cls-3" x="63.47" y="93.38" width="9.19" height="9.19" transform="translate(-49.35 76.83) rotate(-45)"/><rect class="cls-3" x="63.82" y="131.86" width="8.49" height="8.49" transform="translate(-76.3 87.99) rotate(-45)"/><rect class="cls-3" x="63.82" y="169.47" width="8.49" height="8.49" transform="translate(-102.9 99.01) rotate(-45)"/><path class="cls-3" d="M717.15,140.94v.71c0,.41-.34.57-1,.57-.45,0-.64-.17-.64-.46,0-.87.08-1.71.08-5.19,0-2.19,0-4.38-.1-6.58a9.64,9.64,0,0,1,1.81.95h2c.16-.61.28-1.17.37-1.68a9.71,9.71,0,0,0,.16-1.55c2,.43,2.24.51,2.24.78s-.17.29-.65.4a18.62,18.62,0,0,1-1.54,2.05h4.82c.65-.72.78-.82.91-.82s.29.1,1,.63c.28.24.38.35.38.48s-.13.33-.48.54v1.62c0,4.3.06,7.26.06,8.24,0,.43-.32.63-1,.63-.41,0-.64-.15-.64-.52v-.8Zm7.74-9.63h-7.74v4.25h7.74Zm0,4.62h-7.74v4.64h7.74Z"/><path class="cls-3" d="M740.93,132.24a9.89,9.89,0,0,0,2.35,3.71,12,12,0,0,0,4.61,2.74c.08,0,.08.11,0,.14-.63.21-.87.48-1.19,1.27-.09.22-.16.3-.28.3a2,2,0,0,1-.74-.38,11.27,11.27,0,0,1-3.27-3.46,19,19,0,0,1-1.72-3.83c.11,5.12.17,8.53.17,9.14,0,.45-.35.64-1,.64s-.74-.16-.74-.53c0-.86.13-4.4.16-7.65a14.93,14.93,0,0,1-6.5,6.07c-.08,0-.18-.11-.11-.16a19.55,19.55,0,0,0,5.86-8h-3.67a12.18,12.18,0,0,0-1.37.09l-.18-.59a8.89,8.89,0,0,0,1.52.13h4.35V130a20,20,0,0,0-.09-2.23c1.65.13,2.14.23,2.14.48s-.13.27-.49.47v3.12h3.73c.78-1,1-1.12,1.08-1.12s.32.13,1.16.78c.36.31.49.43.49.55s-.05.16-.21.16Z"/><path class="cls-3" d="M753.64,134a12.67,12.67,0,0,1-1.73,1.78c-.06.05-.2-.09-.16-.16a17.13,17.13,0,0,0,2.5-5.3,13.61,13.61,0,0,0,.54-2.59c1.72.53,2.12.69,2.12.88s-.16.29-.58.37a19.66,19.66,0,0,1-1.79,3.76c.83.14.94.21.94.37s-.09.22-.41.37v8.3c0,.47-.28.68-.83.68s-.69-.16-.69-.63.09-1.66.09-4.19Zm7.25,7.18a53.86,53.86,0,0,0,1.51-6.15,17.16,17.16,0,0,0,.25-2.1c2.36.69,2.36.69,2.36.93s-.15.3-.71.42a33.23,33.23,0,0,1-2.93,6.9h2.73c.86-1.12,1-1.25,1.16-1.25s.31.13,1.16.86c.36.34.49.48.49.59s0,.16-.21.16h-9.82a9.79,9.79,0,0,0-1.22.1l-.18-.59a8.1,8.1,0,0,0,1.35.13ZM760,129.61A15.34,15.34,0,0,0,760,128c1.95.19,2.14.36,2.14.54s-.19.27-.54.43v2.8h2.32c.75-1,1-1.08,1.06-1.08s.32.12,1.09.76c.33.28.46.42.46.53s-.05.16-.21.16h-9a5.53,5.53,0,0,0-1,.1l-.17-.59a5.8,5.8,0,0,0,1.17.12H760Zm-1.1,9.88c-.47,0-.69-.26-.71-.84a16.05,16.05,0,0,0-.82-5.31c0-.08.13-.14.18-.08A7.49,7.49,0,0,1,760,138C760,138.85,759.52,139.49,758.93,139.49Z"/><path class="cls-3" d="M778.8,135.16v.16c0,.32-.34.55-.84.55s-.59-.14-.59-.5c0-.51,0-1.07,0-2.22h-3.89c0,.85,0,1.7-.09,2.53h1.37c.5-.59.63-.69.75-.69s.29.1.79.53c.21.2.3.31.3.44s0,.16-.4.43v.89c0,2.39,0,4,0,4.57s-.31.6-.87.6c-.41,0-.59-.14-.59-.54s.07-1.79.1-4.48v-1.38H773.4c-.06.64-.12,1.22-.22,1.75a10.66,10.66,0,0,1-1.94,4.53c0,.06-.22-.07-.19-.15a13,13,0,0,0,1-4.48c.1-1.52.13-3.57.13-6.63a25.67,25.67,0,0,0-.08-2.72c1.62.19,2,.27,2,.5s-.11.27-.48.41v1.27c0,.81,0,1.57,0,2.26h1v-3.43a9.82,9.82,0,0,0-.08-1.42c1.76.16,1.94.32,1.94.46s-.12.29-.5.43v4h0c.27-.66.46-.79.57-.79s.27.13.69.56l.16.19c0-.51,0-1.12,0-1.87s0-1.31-.07-1.9a15.33,15.33,0,0,1,1.52.78H780c.12-.4.21-.83.29-1.22s.08-.6.1-.84c1.62.44,2,.59,2,.8s-.21.25-.7.27a9.27,9.27,0,0,1-1.14,1h3.22c.49-.62.62-.72.75-.72s.29.1.85.58c.25.22.35.33.35.46s-.11.26-.4.45v.78c0,2.1.06,3.54.06,4s-.28.58-.88.58c-.41,0-.56-.13-.56-.48v-.26h-2.62a5.8,5.8,0,0,1-.42.69A6.09,6.09,0,0,1,777.5,138c-.08,0-.11-.16,0-.21a6.38,6.38,0,0,0,2.37-2.37l.15-.29Zm4.08,3.54c0,1.7.06,2.85.06,3.28s-.28.6-.91.6c-.43,0-.62-.15-.62-.48s.06-1.27.06-3.19v-.21h-3.84a4,4,0,0,0-.85.1l-.17-.59a4.51,4.51,0,0,0,1,.12h3.84c0-1.29,0-1.87-.06-2.59,1.88.18,1.92.27,1.92.47s-.12.24-.45.38v1.74H784c.68-.86.88-1,1-1s.3.13,1,.71c.29.24.42.38.42.49s0,.16-.21.16Zm-4.08-8.56v2.1h1.76c.05-.71.06-1.4.06-2.1Zm1.31,4.66a8.73,8.73,0,0,0,.42-2.2H778.8v2.2Zm3.79,0v-2.2h-2a7.19,7.19,0,0,1-.45,2.2ZM782,130.14c0,.72,0,1.5-.08,2.1h2v-2.1Z"/><path class="cls-3" d="M103.47,136c.59-.69.72-.79.84-.79s.29.1.89.58c.27.22.36.33.36.46s0,.16-.41.47v.65c0,1.52,0,2.4,0,2.69s-.37.58-.9.58-.66-.13-.66-.51v-.52H99.29v.4c0,.42-.31.6-.85.6s-.62-.16-.62-.5c0-1.14.09-2.4.09-7,0-.85,0-1.68,0-2.53a.94.94,0,0,1-.75.34.7.7,0,0,1-.75-.74v-.16H95.08v1.79c1.21.42,1.84,1,1.84,1.76a.72.72,0,0,1-.72.75c-.3,0-.48-.19-.53-.54a3,3,0,0,0-.59-1.66c0,3.93.06,7.23.06,7.93,0,.4-.33.56-.85.56s-.62-.14-.62-.44c0-.8.11-4,.13-7a9.92,9.92,0,0,1-2.37,3.72c-.07.06-.19,0-.16-.1a22.55,22.55,0,0,0,2.26-6.72h-.68a7.08,7.08,0,0,0-1,.09l-.18-.59a5.34,5.34,0,0,0,1.17.13h.91V128a17.87,17.87,0,0,0-.08-2c1.72.16,2,.23,2,.5s-.16.29-.54.45v2.83h.1c.41-.82.6-.94.72-.94s.25.12.75.75l.22-.18a1.93,1.93,0,0,0,.87-1.74c0-.08.14-.08.17,0a5.05,5.05,0,0,1,.21.78h2.31v-1a12.68,12.68,0,0,0-.08-1.5c1.84.16,2,.32,2,.46s-.15.26-.45.44v1.58h2.38c.53-.62.66-.72.79-.72s.29.1,1,.66c.3.27.4.38.4.51s-.21.29-.53.3a.55.55,0,0,0-.46.2,8.38,8.38,0,0,1-1.09.86.11.11,0,0,1-.16-.11,6.78,6.78,0,0,0,.27-1.33H98.18a3.55,3.55,0,0,1,0,1.26,10.51,10.51,0,0,1,1.25.66h3.47c.48-.56.61-.66.74-.66s.3.1.86.5c.26.19.36.3.36.43s-.07.18-.4.42v.45c0,1.17,0,2.05,0,2.3,0,.43-.32.59-.85.59s-.61-.14-.61-.49V134H99.29v2Zm-.47-5H99.29v2.58H103Zm-3.71,8.23h4.35v-2.88H99.29Z"/><path class="cls-3" d="M117.48,125.58s0,.08-.08.14a9.93,9.93,0,0,0-.06,14.89c.11.11.14.14.14.21s0,.09-.08.09a.33.33,0,0,1-.2-.09,11.1,11.1,0,0,1-3.22-3.44,8.17,8.17,0,0,1,0-8.36,11.2,11.2,0,0,1,3.23-3.46c.08,0,.11-.08.16-.08A.1.1,0,0,1,117.48,125.58Z"/><path class="cls-3" d="M124.23,132.18a13.29,13.29,0,0,1-2.3,2c-.07.05-.21-.06-.16-.12A17.25,17.25,0,0,0,125,128.8a12.91,12.91,0,0,0,.78-2.84c1.48.42,2.13.68,2.13.9s-.16.29-.61.38a17.78,17.78,0,0,1-2,3.67c.68.11.8.18.8.34s-.1.22-.42.36v8.31c0,.47-.29.67-.83.67-.35,0-.71-.12-.71-.57s.1-1.7.1-4.24ZM134.3,138a45.26,45.26,0,0,1-6.8,1.56c-.12.51-.18.62-.37.62s-.26,0-.84-2.26a7.77,7.77,0,0,0,1,.07h.35a54.11,54.11,0,0,0,2.31-8.79,24.55,24.55,0,0,0,.28-2.79c2.23.49,2.47.58,2.47.84s-.15.33-.63.48a38.58,38.58,0,0,1-3.74,10.24c1.31,0,4.27-.21,5.86-.4a18.8,18.8,0,0,0-1.67-4.19c0-.07.13-.18.19-.11,2.52,2.46,3.59,4.11,3.59,5.5,0,.77-.38,1.28-.94,1.28s-.71-.32-.92-1.37Z"/><path class="cls-3" d="M149,129.76a15.18,15.18,0,0,0,1.62,4.16A16.22,16.22,0,0,0,152,132.1a12.52,12.52,0,0,0,.68-1.27c1.6.9,1.93,1.14,1.93,1.38s-.19.27-.81.22a15.36,15.36,0,0,1-2.9,1.94,5.33,5.33,0,0,0,.32.46,10.57,10.57,0,0,0,4.9,3.48c.08,0,.08.2,0,.22-.59.14-.8.42-1,1.31-.05.16-.11.23-.24.23a1.69,1.69,0,0,1-.56-.24,11.26,11.26,0,0,1-3.73-3.94,16.07,16.07,0,0,1-1.89-6,11.8,11.8,0,0,1-2.48,3.09v4.76c1.4-.35,2.85-.77,4.1-1.22.08,0,.16.16.1.21a29.2,29.2,0,0,1-6.84,3.28c-.06.43-.14.61-.35.61s-.48-.58-1-2.1c.38,0,.81-.09,1.28-.17l1.23-.26v-3.94a13.9,13.9,0,0,1-3.55,1.78c-.08,0-.19-.13-.13-.18a15.72,15.72,0,0,0,6-6H142.5a8.34,8.34,0,0,0-1.12.09l-.17-.59a6.46,6.46,0,0,0,1.29.13h5.06v-1.95a8.41,8.41,0,0,0-.08-1.17c2,.17,2.19.35,2.19.53s-.17.29-.51.43v2.16H153c.86-1,1-1.1,1.17-1.1s.31.12,1.12.76c.36.29.49.44.49.55s-.05.16-.21.16Z"/><path class="cls-3" d="M165.14,133.2a1.43,1.43,0,1,1-1.44-1.44A1.43,1.43,0,0,1,165.14,133.2Z"/><path class="cls-3" d="M175.06,131.65c1.33.46,2,1.12,2,1.9a.83.83,0,0,1-.77.87c-.34,0-.48-.21-.56-.79a3,3,0,0,0-.66-1.76c0,4,.08,7.32.08,8.23,0,.4-.33.54-.85.54s-.62-.13-.62-.45c0-.78.1-3.9.13-7.12a10.54,10.54,0,0,1-2.34,3.83c-.05.06-.19,0-.16-.1a23.94,23.94,0,0,0,2.21-6.74h-.61a6,6,0,0,0-1.05.1l-.18-.59a5.87,5.87,0,0,0,1.17.12h.86V128a18.37,18.37,0,0,0-.08-2c1.73.18,2,.24,2,.51s-.18.32-.6.5v2.78h.23c.46-.81.65-.94.77-.94s.28.13.81.66c.21.22.34.38.34.49s-.05.16-.21.16h-1.94Zm5.09-2.13c0-.61,0-1.25,0-1.91s0-1-.06-1.65c1.85.24,2.09.32,2.09.58s-.16.31-.52.42c0,.91-.05,1.76-.12,2.56h2.61c.55-.64.67-.74.8-.74s.29.1,1,.69c.31.29.4.4.4.53s-.17.35-.48.35-.33,0-.44.18a9.6,9.6,0,0,1-1.45,1.34c-.06,0-.16,0-.12-.11a8.56,8.56,0,0,0,.51-1.87h-2.82c-.05.7-.14,1.4-.25,2.11,1.13.13,1.47.22,1.47.45s-.15.24-.43.38v5.78c0,.35.2.45,1,.45s1.2-.07,1.36-.24a6.71,6.71,0,0,0,.85-2.32c0-.08.18-.08.18,0,0,.67,0,1.36,0,1.85,0,.15.07.28.29.44a.59.59,0,0,1,.32.52c0,.34-.21.58-.61.76a6.35,6.35,0,0,1-2.29.3c-2,0-2.44-.3-2.44-1.66,0-.18,0-.32,0-1.06,0-1.38,0-2.75,0-4.13a10.42,10.42,0,0,1-5.21,6.91c-.06,0-.22-.14-.16-.19,2.82-2.46,4.2-5.58,4.52-10.35h-1.73c.09,1.07-.26,2.11-1.12,2.11a.65.65,0,0,1-.69-.72c0-.3.08-.42.5-.79a2.22,2.22,0,0,0,.8-1.8c0-.08.16-.12.19,0a3.26,3.26,0,0,1,.27.87Z"/><path class="cls-3" d="M195.54,133.2a1.43,1.43,0,1,1-1.43-1.44A1.42,1.42,0,0,1,195.54,133.2Z"/><path class="cls-3" d="M206.66,138.18c0,.57-.24.77-.91.77-.48,0-.64-.18-.64-.63,0-.64,0-1.3,0-3.9,0-.31,0-.61,0-.92a13.52,13.52,0,0,1-3.34,2.37c-.07,0-.18-.13-.11-.17a16.49,16.49,0,0,0,4.7-6.37h-2.66a14.18,14.18,0,0,0-1.47.09l-.17-.59a10.64,10.64,0,0,0,1.66.13h2.78a6.69,6.69,0,0,0,.29-.82,11.43,11.43,0,0,0,.5-2.24c1.79.27,2.19.42,2.19.7s-.11.29-.61.44q-.36,1-.75,1.92h5.43c.88-1.07,1.07-1.2,1.18-1.2s.32.13,1.2.83c.4.32.53.46.53.58s-.05.16-.21.16H208a14.9,14.9,0,0,1-1.65,2.81c.11.08.26.16.47.29h2.29v-.77A15.68,15.68,0,0,0,209,130c1.95.2,2,.24,2,.48s-.12.27-.57.44v1.54h2.57c.6-.66.73-.75.86-.75s.29.09.9.61c.27.24.37.35.37.48s-.12.27-.44.46v.71c0,2.84,0,3.05,0,3.57a1.23,1.23,0,0,1-.43.94,1.94,1.94,0,0,1-1.23.38c-.29,0-.35,0-.38-.28-.08-.71-.28-.87-1.48-1.2-.08,0-.08-.2,0-.2.77,0,1.25,0,1.72,0,.24,0,.28,0,.28-.29V132.8H210.5c0,3.74,0,6.34,0,7.22,0,.45-.29.64-.87.64s-.65-.15-.65-.59c0-.77.06-3,.08-7.27h-2.44Z"/><path class="cls-3" d="M223.56,139.7c0,.45-.31.62-.93.62-.42,0-.64-.16-.64-.51,0-1.36.1-2.71.1-8.18,0-1.81,0-3.63-.08-5.46a10.71,10.71,0,0,1,1.79.9h9.57c.59-.71.72-.8.85-.8s.29.09.91.64c.27.26.37.37.37.49s-.13.31-.47.52v1.92c0,5.12.1,8.61.1,9.78,0,.46-.32.65-1,.65-.45,0-.65-.17-.65-.54v-.48h-9.95Zm9.95-12.26h-9.95v11.44h9.95Zm-2.44,7.22c0,.8,0,1.55,0,2.14a1.83,1.83,0,0,1-.16.83,1.65,1.65,0,0,1-1.65.77c-.27,0-.34-.06-.39-.32,0-.72-.43-1-1.58-1.26-.08,0-.08-.23,0-.23.74,0,1.57.1,2.08.1.18,0,.22-.07.22-.29v-5.28h-4.49a6.24,6.24,0,0,0-1,.09l-.18-.59a5,5,0,0,0,1.13.13h4.52v-.5a18.07,18.07,0,0,0-.11-2.11c1.72.16,2.07.26,2.07.48s-.13.24-.51.42v1.71h.24c.52-.77.72-.9.83-.9s.29.13.83.64c.21.2.34.36.34.47s-.05.16-.21.16h-2Zm-3.59.57c-.3,0-.43-.14-.61-.67a5,5,0,0,0-1.34-2.29c-.07-.05,0-.16.11-.14,1.65.43,2.67,1.28,2.67,2.21A.84.84,0,0,1,227.48,135.23Z"/><path class="cls-3" d="M240.63,125.56a11.2,11.2,0,0,1,3.23,3.46,8.11,8.11,0,0,1,0,8.36,11.18,11.18,0,0,1-3.21,3.44c-.12.08-.16.09-.21.09s-.08,0-.08-.09,0-.1.14-.21a9.93,9.93,0,0,0-.06-14.89c-.07-.06-.08-.09-.08-.14a.1.1,0,0,1,.11-.1C240.52,125.48,240.55,125.52,240.63,125.56Z"/><path class="cls-3" d="M384.19,129.05c0,8,.06,10,.06,10.79,0,.47-.29.72-.93.72s-.7-.17-.7-.56,0-1.79.06-4.05a16.94,16.94,0,0,1-3,1.84c0,.5-.16.72-.37.72s-.22,0-1-2.09a5.53,5.53,0,0,0,1.06-.11l.25-.05v-6.33a19.38,19.38,0,0,0-.12-2.14c1.89.18,2.06.34,2.06.5s-.16.3-.51.43V136c.54-.13,1.1-.27,1.63-.43,0-1,0-2.13,0-3.48a52.69,52.69,0,0,0-.13-6c1.95.16,2.18.22,2.18.46s-.05.2-.56.44Zm6.13-1.32c.65-.76.78-.85.91-.85s.29.09,1,.7c.32.31.41.42.41.55s-.11.3-.53.51a18,18,0,0,1-2.69,7.23,11.41,11.41,0,0,0,4,2.8c.08,0,.05.2,0,.21-.48.15-.69.4-.93,1.06-.11.3-.14.37-.29.37a1.47,1.47,0,0,1-.56-.26,11.53,11.53,0,0,1-3-3.06,12.63,12.63,0,0,1-4,3.27c-.07,0-.18-.15-.11-.19A16,16,0,0,0,388,136a18.32,18.32,0,0,1-2.15-7.87,8.29,8.29,0,0,0-.85.11l-.17-.62a8.67,8.67,0,0,0,1.41.13Zm-4.15.36a16.81,16.81,0,0,0,2.42,6.73,22,22,0,0,0,1.92-6.73Z"/><path class="cls-3" d="M410.11,130.78c.51-.62.64-.72.77-.72s.29.1,1.07.77c.37.34.46.45.46.58s-.17.36-.73.38c-.23,0-.29,0-.56.23a10.67,10.67,0,0,1-1.33.84c-.06,0-.14,0-.11-.09a6.94,6.94,0,0,0,.56-1.62H399.69c.09,1.23-.4,2.19-1.3,2.19a.73.73,0,0,1-.78-.78.89.89,0,0,1,.58-.82,1.79,1.79,0,0,0,1.1-1.63c0-.08.14-.1.17,0a7.07,7.07,0,0,1,.18.69h1.09v-2.29c0-.85,0-1.72-.08-2.57a14.93,14.93,0,0,1,1.68.73h5.23c.48-.56.63-.67.76-.67s.33.11.92.58c.28.21.37.32.37.45s-.08.25-.48.49v3.28ZM402.52,137c0,1.56.05,2.28.05,3,0,.45-.27.64-.94.64-.52,0-.68-.13-.68-.53,0-.72.07-2.51.07-5.41,0-1.17,0-1.7-.08-3a9.92,9.92,0,0,1,1.74.91h4.52c.56-.61.68-.7.81-.7s.29.09.95.59c.3.25.4.37.4.5s-.1.25-.48.51v1.34c0,3.09,0,3.89,0,4.26a1.25,1.25,0,0,1-.66,1.3,3.55,3.55,0,0,1-1.1.27c-.21,0-.24-.13-.29-.4-.11-.63-.46-.9-1.79-1.23-.08,0-.08-.23,0-.21a19,19,0,0,0,2.13.11c.12,0,.17-.05.17-.22V137Zm1.44-6.24v-1.41a13.17,13.17,0,0,0-.09-1.52,10.94,10.94,0,0,1,1.57.68h2.25V127h-5.5v3.76Zm3.41,2.18h-4.86v1.62h4.86Zm0,2h-4.86v1.72h4.86Zm.32-6.05h-2.35v1.89h2.35Z"/><path class="cls-3" d="M419.74,134.5a13.62,13.62,0,0,1-.28,1.66,7.24,7.24,0,0,1-2.56,4.26c-.06.05-.19-.07-.16-.13a10.8,10.8,0,0,0,1.38-4.18,45.42,45.42,0,0,0,.26-5.79c0-1.95-.05-3.06-.11-4a7.22,7.22,0,0,1,1.8.9h8.47c.66-.66.78-.76.91-.76s.29.1.88.56c.28.24.37.35.37.48s-.05.19-.43.47v1.76c0,7.38.06,7.95.06,9,0,.82-.19,1-.57,1.31a2.31,2.31,0,0,1-1.23.39c-.28,0-.33-.15-.37-.43-.13-.72-.6-.88-1.81-1.2-.08,0-.08-.2,0-.2.75.07,1.39.08,2.08.08.22,0,.27-.06.27-.27V134.5H425c0,2,0,4,0,4.78,0,.48-.27.66-.93.66-.51,0-.7-.18-.7-.64,0-.23.05-1,.05-2.37V134.5Zm.19-3.59c0,1.07-.07,2.15-.16,3.22h3.67v-3.22Zm3.51-.37v-3H420v.76c0,.75,0,1.5,0,2.25Zm5.26-3H425v3h3.71Zm0,3.38H425v3.22h3.71Z"/><path class="cls-3" d="M438.31,138.85v.62c0,.5-.3.69-.88.69s-.69-.14-.69-.56c0-.59.08-1.28.08-3.66,0-.93,0-1.86,0-2.79a15,15,0,0,1,1.71.8H441c.58-.62.71-.72.84-.72s.28.1.84.58c.24.22.34.33.34.46s-.1.23-.42.48v.75c0,2,.1,3.45.1,3.89s-.32.6-.9.6-.67-.18-.67-.56v-.58Zm2.77-4.53h-2.77v4.16h2.77Zm-.25-2.88v.33c0,.5-.29.71-.87.71s-.72-.18-.72-.58.05-1,.05-2.73c0-1,0-2-.1-2.93a16.5,16.5,0,0,1,1.86.88h4.69c.61-.68.74-.77.87-.77s.28.09.89.59c.27.23.37.34.37.46s-.13.31-.45.5v.63c0,1.66,0,2.88,0,3.24s-.24.69-.89.69c-.47,0-.68-.16-.68-.57v-.45Zm5.05-4h-5.05v3.59h5.05Zm-.35,11.37v.54c0,.47-.3.66-.89.66s-.68-.16-.68-.54c0-.58.08-1.28.08-3.62,0-.91,0-1.84,0-2.77a14.68,14.68,0,0,1,1.69.8h2.71c.59-.62.72-.72.85-.72s.28.1.84.58c.26.22.36.33.36.46s-.1.24-.44.48v.77c0,2,.1,3.39.1,3.84s-.3.7-.93.7c-.46,0-.65-.16-.65-.54v-.64Zm3-4.56h-3v4.19h3Z"/><path class="cls-3" d="M462,125.58s0,.08-.08.14a9.93,9.93,0,0,0-.06,14.89c.11.11.14.14.14.21s0,.09-.08.09a.33.33,0,0,1-.21-.09,11.07,11.07,0,0,1-3.21-3.44,8.11,8.11,0,0,1,0-8.36,11.2,11.2,0,0,1,3.23-3.46c.08,0,.11-.08.16-.08A.1.1,0,0,1,462,125.58Z"/><path class="cls-3" d="M478.91,130.78c.51-.62.64-.72.77-.72s.29.1,1.07.77c.37.34.46.45.46.58s-.17.36-.73.38c-.23,0-.29,0-.56.23a10.67,10.67,0,0,1-1.33.84c-.06,0-.14,0-.11-.09a6.94,6.94,0,0,0,.56-1.62H468.49c.1,1.23-.4,2.19-1.3,2.19a.73.73,0,0,1-.78-.78.89.89,0,0,1,.57-.82,1.77,1.77,0,0,0,1.11-1.63c0-.08.14-.1.18,0a6.91,6.91,0,0,1,.17.69h1.09v-2.29c0-.85,0-1.72-.08-2.57a14.93,14.93,0,0,1,1.68.73h5.23c.48-.56.63-.67.76-.67s.33.11.92.58c.28.21.37.32.37.45s-.08.25-.48.49v3.28ZM471.32,137c0,1.56.05,2.28.05,3,0,.45-.27.64-.94.64-.52,0-.68-.13-.68-.53,0-.72.07-2.51.07-5.41,0-1.17,0-1.7-.08-3a9.92,9.92,0,0,1,1.74.91H476c.56-.61.68-.7.81-.7s.29.09.95.59c.3.25.4.37.4.5s-.1.25-.48.51v1.34c0,3.09,0,3.89,0,4.26a1.27,1.27,0,0,1-.66,1.3,3.55,3.55,0,0,1-1.1.27c-.21,0-.24-.13-.29-.4-.11-.63-.46-.9-1.79-1.23-.08,0-.08-.23,0-.21a19,19,0,0,0,2.13.11c.12,0,.17-.05.17-.22V137Zm1.44-6.24v-1.41a13.17,13.17,0,0,0-.09-1.52,10.94,10.94,0,0,1,1.57.68h2.25V127H471v3.76Zm3.41,2.18h-4.86v1.62h4.86Zm0,2h-4.86v1.72h4.86Zm.32-6.05h-2.35v1.89h2.35Z"/><path class="cls-3" d="M489.79,134.7c0,1.84,0,4.55,0,5.32,0,.45-.26.61-.88.61-.43,0-.59-.15-.59-.55s.09-2.43.12-4.5a9.35,9.35,0,0,1-2.83,2.9c-.06.05-.18-.09-.13-.16a14,14,0,0,0,2.8-5.41h-1.42a4.49,4.49,0,0,0-.9.1l-.17-.59a4.57,4.57,0,0,0,1,.12h1.59v-.77a8.6,8.6,0,0,0-.1-1.52c1.82.2,1.92.23,1.92.48s-.11.23-.46.39v1.42h.35c.56-.73.75-.86.86-.86s.32.13.9.61c.26.21.38.35.38.46s0,.16-.21.16h-2.28v1.23c1.41.26,2.27.92,2.27,1.72a.76.76,0,0,1-.74.8c-.37,0-.53-.18-.69-.79a3.11,3.11,0,0,0-.84-1.44Zm-1.32-6.48a9.19,9.19,0,0,1-2.65,2.43c-.07,0-.23-.08-.18-.14a10.43,10.43,0,0,0,1.82-2.95,8.59,8.59,0,0,0,.6-1.82c1.44.38,2,.62,2,.85s-.17.29-.7.35c-.19.32-.39.62-.59.91h2c.63-.75.82-.88.93-.88s.32.13.91.63c.26.21.39.35.39.46s0,.16-.21.16h-3.23c1.18.4,1.68.85,1.68,1.51a.8.8,0,0,1-.79.83c-.46,0-.57-.16-.7-.95a2.76,2.76,0,0,0-.54-1.39Zm6,0a8.16,8.16,0,0,1-2.35,2.29c-.06.05-.19-.06-.14-.13a12.83,12.83,0,0,0,1.57-2.88,6.86,6.86,0,0,0,.48-1.73c1.36.35,1.92.59,1.92.8s-.24.31-.71.34c-.17.33-.35.65-.53.94h2.93c.74-.91.93-1,1-1s.32.13,1.11.72c.35.29.48.42.48.53s-.05.16-.21.16h-4.11c1.05.39,1.49.8,1.49,1.41a.85.85,0,0,1-.85.88c-.47,0-.56-.13-.69-1a2.86,2.86,0,0,0-.47-1.33Zm-.52,11.32V140c0,.46-.24.64-.84.64-.45,0-.64-.13-.64-.54,0-.63.07-2.21.07-6.17,0-1.47,0-2.14-.1-3.45a15.21,15.21,0,0,1,1.6.73h3.67c.56-.62.68-.72.81-.72s.29.1.87.58c.25.22.35.33.35.46s-.06.23-.48.5v1.31c0,3.47.06,5.89.06,6.68,0,.43-.3.6-.83.6s-.65-.14-.65-.49v-.56Zm3.89-8h-3.89v2.18h3.89Zm0,2.55h-3.89v2.24h3.89Zm0,2.6h-3.89v2.47h3.89Z"/><path class="cls-3" d="M505,136.8a.14.14,0,0,1,.14-.14,7.85,7.85,0,0,1,2.8,1.1,2,2,0,0,1,1,1.62.93.93,0,0,1-1,1,1,1,0,0,1-.85-.72,5.56,5.56,0,0,0-2.05-2.69A.19.19,0,0,1,505,136.8Z"/><path class="cls-3" d="M527,127c.65-.64.78-.73.91-.73s.32.09.93.65c.27.24.37.37.37.5s-.08.27-.56.56c0,1.28,0,1.46,0,2.35a20.23,20.23,0,0,0,.74,6.66c.21.59.4,1,.51,1s.4-.37,1-1.8c0-.08.19,0,.17.07a11.68,11.68,0,0,0-.27,2.27c0,.19,0,.29.32.83a1.12,1.12,0,0,1,.08.48.66.66,0,0,1-.7.71,1.64,1.64,0,0,1-1.12-.64,9.07,9.07,0,0,1-1.72-3.93c-.36-1.74-.44-3-.46-8.64h-8v1.14a37.12,37.12,0,0,1-.35,6.75,9.79,9.79,0,0,1-2.87,5.38c-.06,0-.19-.1-.14-.16a12.37,12.37,0,0,0,1.68-5.39,40.44,40.44,0,0,0,.17-4.28,45.48,45.48,0,0,0-.12-4.7,8.51,8.51,0,0,1,1.87.89ZM523.8,138c.63-.09,1.24-.17,1.84-.28a3.69,3.69,0,0,0-.86-1.36c0-.07.08-.18.16-.15,1.84.83,2.72,1.83,2.72,2.74a.86.86,0,0,1-.83.89c-.43,0-.64-.3-.82-1-.08-.31-.16-.56-.22-.79a27.45,27.45,0,0,1-5.78,1.64c-.1.44-.18.56-.35.56s-.42-.5-.75-2c.27,0,.4,0,.56,0a28.89,28.89,0,0,0,3-.16v-2.85h-1.23v.38c0,.42-.2.58-.84.58-.36,0-.52-.19-.52-.4s.06-1,.06-2.83a18.21,18.21,0,0,0-.1-2.08,15.87,15.87,0,0,1,1.48.76h1.15v-1.69c-.74.06-1.59.11-2.56.12-.08,0-.13-.19,0-.2a18.5,18.5,0,0,0,3.73-1,4.91,4.91,0,0,0,1.68-1c1,.8,1.25,1,1.25,1.25s-.26.24-.75.13a12.76,12.76,0,0,1-2,.51v1.87h1.27c.41-.51.54-.61.67-.61s.29.1.77.5c.21.19.3.31.3.43s-.09.23-.4.44V133c0,1.31.05,2.21.05,2.5s-.19.54-.78.54c-.39,0-.56-.09-.56-.43v-.27H523.8ZM522.46,135v-2.85h-1.23V135Zm2.66,0v-2.85H523.8V135Z"/><path class="cls-3" d="M539.55,131.41v.17c0,.55-.31.72-.93.72s-.67-.17-.67-.54,0-.93,0-2.58c0-1,0-2-.09-3,.88.39,1,.45,1.87.9h5.67c.6-.67.73-.77.86-.77s.29.1.91.61c.28.23.37.32.37.45s-.13.3-.45.5v.62c0,1.62,0,2.82,0,3.18s-.3.68-.93.68-.67-.19-.67-.55v-.41h-2.21a12.6,12.6,0,0,1-1.79,3h5.2c.63-.72.75-.81.88-.81s.29.09,1,.67c.32.27.41.38.41.51s-.12.29-.52.53v.72c0,1.89,0,3.18,0,3.62s-.37.65-1,.65-.69-.17-.69-.54v-.53h-8.77v.42c0,.44-.32.65-.93.65s-.67-.17-.67-.56c0-.57.05-1.17.05-3.5,0-.92,0-1.83-.05-2.74.87.42,1,.48,1.78.91H541a17.15,17.15,0,0,0,.5-3Zm7.37,3.39h-8.77v4.08h8.77Zm-1.34-7.33h-6V131h6Z"/><path class="cls-3" d="M557.85,134.58c0-.44,0-.82,0-1.14,1.61.14,1.74.27,1.74.4s-.13.21-.38.3v.8h1.68c.54-.68.74-.81.85-.81s.32.13.89.57c.26.21.39.34.39.45s0,.16-.21.16h-4.45c0,.37-.08.74-.14,1.11h1.92c.44-.55.57-.64.7-.64s.29.09.79.51c.2.19.3.3.3.43s0,.16-.4.42a7.73,7.73,0,0,1-.69,2.62,1.53,1.53,0,0,1-.69.64,2.28,2.28,0,0,1-.89.16c-.26,0-.31-.05-.36-.41s-.28-.66-1.18-1c-.08,0-.05-.2,0-.19a9.3,9.3,0,0,0,1.7.21c.17,0,.32-.16.45-.58a11,11,0,0,0,.28-1.81h-2a5.2,5.2,0,0,1-3.69,3.83c-.08,0-.19-.11-.12-.16a6.32,6.32,0,0,0,2.61-5.14h-1.48a4,4,0,0,0-.83.1l-.18-.59a4,4,0,0,0,1,.12h2.48Zm1.3-5.14h1.39c.45-.51.57-.58.67-.58s.26.07.79.5c.22.19.32.3.32.38s-.1.23-.39.42v.51c0,.94,0,2.06,0,2.55s-.24.54-.73.54-.53-.11-.53-.37v-.17h-4.27v.2c0,.34-.28.52-.74.52s-.59-.15-.59-.45,0-.77,0-2.69a12.53,12.53,0,0,0-.08-2.05c.71.3.82.35,1.51.69h1.31V128.3h-2.21a5.72,5.72,0,0,0-1,.1l-.17-.59a6.11,6.11,0,0,0,1.18.12h2.21v-.51c0-.82,0-1.34-.06-1.54,1.66.18,1.84.34,1.84.5s-.16.27-.51.39v1.16H561c.09-.14.17-.27.25-.37a.42.42,0,0,1-.16,0c-.3,0-.43-.12-.59-.55a1.67,1.67,0,0,0-.66-.89c-.06,0,0-.12,0-.12,1.22,0,1.81.34,1.81.85a.79.79,0,0,1-.06.34c.16,0,.3,0,1,.5.26.17.39.3.39.41s0,.16-.21.16h-3.63Zm-1.27.37h-1.45v1.31h1.45Zm0,1.68h-1.45v1.36h1.45Zm2.82-.37v-1.31h-1.55v1.31Zm0,1.73v-1.36h-1.55v1.36Zm7.14-2.88a16.38,16.38,0,0,1-1.76,6.09,9.44,9.44,0,0,0,3.5,2.55c.08,0,0,.13,0,.16-.38.19-.5.34-.74,1.15-.09.37-.14.45-.27.45a1.28,1.28,0,0,1-.62-.32,9.49,9.49,0,0,1-2.58-2.88,10.77,10.77,0,0,1-4.23,3.33c-.08,0-.17-.15-.11-.19a12.37,12.37,0,0,0,3.68-4.37,19.45,19.45,0,0,1-1.2-4.23,9,9,0,0,1-1.21,1.54c-.07.06-.19,0-.16-.1a19.72,19.72,0,0,0,1.49-5,20.82,20.82,0,0,0,.22-2.13c1.86.41,2.1.51,2.1.75s-.13.27-.61.4a25.45,25.45,0,0,1-.79,2.45H567c.69-.87.88-1,1-1s.31.12,1,.68c.29.26.42.4.42.52s0,.16-.21.16Zm-3.46,0a14.54,14.54,0,0,1-.64,1.32,12.32,12.32,0,0,0,1.46,3.56,17.08,17.08,0,0,0,1.13-4.88Z"/><path class="cls-3" d="M573.9,125.56a11.32,11.32,0,0,1,3.23,3.46,8.17,8.17,0,0,1,0,8.36,11.1,11.1,0,0,1-3.22,3.44.33.33,0,0,1-.21.09.08.08,0,0,1-.08-.09c0-.07,0-.1.15-.21a9.92,9.92,0,0,0-.07-14.89c-.06-.06-.08-.09-.08-.14s0-.1.12-.1S573.82,125.52,573.9,125.56Z"/><path class="cls-3" d="M1030.86,138.11c.59-.18,1.18-.37,1.71-.56.08,0,.14.14.08.19a16.22,16.22,0,0,1-4,2.44c0,.41-.14.6-.35.6s-.21,0-.88-1.93a7.05,7.05,0,0,0,1.23-.18l.74-.18v-5.26h-.82a5,5,0,0,0-.88.09l-.17-.59a3.66,3.66,0,0,0,1,.13h.9v-2.77a21.74,21.74,0,0,0-.08-2.22c1.89.17,2.08.33,2.08.49s-.1.24-.54.45v4.05h.25c.53-.69.72-.82.83-.82s.31.13.85.58c.23.19.35.34.35.45s0,.16-.2.16h-2.08Zm3.55-2.43a14.84,14.84,0,0,1-2.93,1.42c-.08,0-.19-.11-.13-.16a13.81,13.81,0,0,0,3.87-3.63,5.87,5.87,0,0,0,.82-1.55c2,.51,2,.51,2,.72s-.2.28-.62.38a7.24,7.24,0,0,0,2.18,1.57,10.22,10.22,0,0,0,3.21.94c.08,0,.07.11,0,.15a1.74,1.74,0,0,0-.78,1.2c0,.29-.1.38-.22.38a2.55,2.55,0,0,1-.79-.32,11.15,11.15,0,0,1-2.08-1.49,8.65,8.65,0,0,1-1.79-2.16,12.56,12.56,0,0,1-2.64,2.51,4.35,4.35,0,0,0,1,.12h1.59c.56-.71.75-.83.86-.83s.31.12.82.59c.21.19.34.33.34.45s0,.16-.21.16h-3.33a6,6,0,0,0-1,.09Zm4.69-5.06c0,.51,0,.88,0,1,0,.34-.27.51-.83.51s-.65-.11-.65-.43c0-.14,0-.5,0-1.12h-1.92c0,.61,0,1,0,1.2,0,.35-.3.53-.84.53s-.66-.13-.66-.45c0-.14,0-.55,0-1.28h-1a8,8,0,0,0-1.19.1l-.17-.6a7,7,0,0,0,1.36.13h1v-.4c0-1,0-1.44,0-1.94,1.52.12,1.91.2,1.91.44s-.13.25-.4.36v1.54h1.92v-.48c0-1.07,0-1.36-.05-1.86,1.52.12,1.91.2,1.91.44s-.13.25-.42.36v1.54h.89c.69-.85.88-1,1-1s.3.13.94.69c.27.24.4.39.4.5s0,.16-.21.16Zm-4.4,10.88v.5c0,.42-.29.61-.82.61s-.66-.11-.66-.48c0-.59,0-1.22,0-3.27,0-.8,0-1.28,0-1.77a8.82,8.82,0,0,1,1.56.7h3.92c.53-.62.66-.72.78-.72s.31.1.9.54c.27.23.37.34.37.47s-.08.25-.39.43v.56c0,1.49.07,2.51.07,2.85s-.34.61-.9.61-.64-.16-.64-.55v-.48Zm4.19-3.34h-4.19v3h4.19Z"/><path class="cls-3" d="M1048.55,132.24c-.26,0-.38-.12-.59-.5a3.29,3.29,0,0,0-1.15-1.39.08.08,0,0,1,.06-.15c1.63.13,2.39.52,2.39,1.28A.73.73,0,0,1,1048.55,132.24Zm1,1.4a1.27,1.27,0,0,0-.27.76c0,.49.29.92.29,1.42a.86.86,0,0,1-.83.9.69.69,0,0,1-.74-.72c0-.48.16-.95.16-1.43s-.26-.73-1.19-1.07c-.08,0,0-.21,0-.19a7.52,7.52,0,0,0,1,.09,1.2,1.2,0,0,0,1-.49,31.76,31.76,0,0,0,2.3-3c0-.07.23.06.2.12Zm2.18,3.46a6.6,6.6,0,0,0,.53-.94c-.31.05-.63.08-1,.11-.08,0-.17-.21-.09-.22a17.64,17.64,0,0,0,4.33-1.73,6.26,6.26,0,0,1-1.63-2.26h-.74a5.49,5.49,0,0,1-3.13,4.45c-.07.05-.21-.13-.15-.18a5.37,5.37,0,0,0,1.7-2.61,11.88,11.88,0,0,0,.29-3.21c0-.88,0-1.17-.07-1.92a11.58,11.58,0,0,1,1.65.88h1.91v-.08a16.41,16.41,0,0,0-.07-1.64c1.83.16,2,.32,2,.48s-.16.26-.48.39v.85H1059c.58-.66.71-.76.84-.76s.29.1,1,.73c.32.28.41.39.41.52s-.08.24-.54.29a2.14,2.14,0,0,0-.58.14,9.32,9.32,0,0,1-1.2.55c-.08,0-.14,0-.11-.08a7.77,7.77,0,0,0,.32-1h-2.32v1.86h1.36c.48-.54.61-.64.73-.64s.29.1,1,.66c.3.27.4.38.4.51s-.18.3-.7.43a9.35,9.35,0,0,1-1.85,1.55,17.35,17.35,0,0,0,3.89.49c.08,0,.07.17,0,.2a1.13,1.13,0,0,0-.87,1c-.11.4-.14.44-.28.44a5.5,5.5,0,0,1-.92-.15,12.2,12.2,0,0,1-2.78-1l-.29-.18a14.55,14.55,0,0,1-3.87,1.17c1.2.32,1.5.45,1.5.59s-.17.27-.61.34l-.25.35h5.47c.79-.75,1-.88,1.09-.88s.34.13,1.09.59c.35.23.46.39.46.5s0,.16-.21.16h-3.42a7.91,7.91,0,0,1-1.62,2c2.56.47,3.88,1.14,3.88,2a.83.83,0,0,1-.89.84c-.3,0-.54-.12-1-.55a9.65,9.65,0,0,0-2.9-1.52c-1.87,1.2-4.45,1.83-8,2-.08,0-.09-.22,0-.24a15.76,15.76,0,0,0,6.56-2.16,21.33,21.33,0,0,0-2.22-.46c-.12.11-.23.24-.34.35a.74.74,0,0,1-.66.27c-.59,0-1-.16-1-.37s.07-.24.24-.4a13.94,13.94,0,0,0,1.59-1.69h-3a7.83,7.83,0,0,0-1.1.09l-.18-.59a6.36,6.36,0,0,0,1.28.13h3.27Zm-2-6.91c-.31,0-.44-.13-.61-.56a3.25,3.25,0,0,0-1-1.51c-.07-.05,0-.14.08-.13,1.55.28,2.24.72,2.24,1.43A.73.73,0,0,1,1049.74,130.19Zm3.24,7.57q-.57.8-1.2,1.53c1.25.07,2,.15,2.66.24a7,7,0,0,0,1.57-1.77Zm2.44-7.93h-2.08v.47a12.07,12.07,0,0,1-.07,1.39h2.15Zm-1.14,2.23a5.17,5.17,0,0,0,2.18,1.71,7.07,7.07,0,0,0,1.77-1.71Z"/><path class="cls-3" d="M381.93,94.45c1.33.46,2,1.12,2,1.9a.83.83,0,0,1-.76.87c-.34,0-.48-.21-.56-.79a3.09,3.09,0,0,0-.66-1.76c0,4,.08,7.32.08,8.23,0,.4-.34.54-.85.54s-.62-.12-.62-.44c0-.79.09-3.91.13-7.13a10.54,10.54,0,0,1-2.34,3.83c-.05.06-.19,0-.16-.1a23.94,23.94,0,0,0,2.21-6.74h-.61a7.47,7.47,0,0,0-1.06.1l-.17-.59a5.86,5.86,0,0,0,1.16.13h.87V90.75c0-.8,0-1.41-.08-2,1.73.18,2,.24,2,.52s-.17.32-.59.49V92.5h.22c.47-.82.66-1,.77-1s.29.13.82.66c.21.22.33.38.33.49s0,.16-.2.16h-1.94ZM387,92.32c0-.61.05-1.25.05-1.9s0-1-.07-1.65c1.86.24,2.1.32,2.1.57s-.16.31-.53.42c0,.91-.05,1.76-.11,2.56h2.61c.54-.64.67-.74.8-.74s.29.1,1,.69c.3.29.4.4.4.53s-.18.35-.48.35-.34,0-.45.18a9.4,9.4,0,0,1-1.44,1.34c-.06,0-.16,0-.13-.11a8,8,0,0,0,.52-1.87h-2.82c-.05.7-.15,1.41-.26,2.11,1.14.13,1.47.23,1.47.45s-.14.24-.43.38v5.78c0,.35.21.45,1,.45s1.2-.06,1.36-.24a7.21,7.21,0,0,0,.85-2.32c0-.08.17-.08.17,0,0,.67,0,1.36,0,1.86,0,.14.06.27.29.43a.61.61,0,0,1,.32.53c0,.33-.21.57-.61.75a6.13,6.13,0,0,1-2.29.3c-2,0-2.45-.3-2.45-1.66,0-.18,0-.32,0-1.06,0-1.37,0-2.75,0-4.13a10.4,10.4,0,0,1-5.2,6.92c-.06.05-.22-.15-.16-.19,2.82-2.47,4.19-5.59,4.51-10.36h-1.72c.09,1.07-.26,2.11-1.13,2.11a.65.65,0,0,1-.68-.72c0-.3.08-.41.49-.78a2.19,2.19,0,0,0,.8-1.81c0-.08.16-.11.19,0a3.21,3.21,0,0,1,.28.86Z"/><path class="cls-3" d="M398.54,97.27c0-1.46,0-2.92,0-4.39-.35.24-.72.48-1.13.71-.07,0-.18-.08-.13-.15a13.85,13.85,0,0,0,2.22-2.94,7.12,7.12,0,0,0,.73-1.86c1.63.48,2,.62,2,.85s-.09.21-.49.29c1.76.56,2.3,1,2.3,1.76a.73.73,0,0,1-.65.8c-.39,0-.45-.07-.84-.92A4.41,4.41,0,0,0,401.39,90a14.06,14.06,0,0,1-1.08,1.34c1.59.15,1.73.29,1.73.43s-.13.23-.4.36v1.25H402c.51-.52.64-.61.76-.61s.29.09.79.51c.21.18.3.29.3.42s-.08.2-.38.4v.75c0,1.89.05,2.86.05,3.2s-.23.61-.79.61-.61-.13-.61-.55V98H399.9v3.09a19.66,19.66,0,0,0,2.14-.53,5.13,5.13,0,0,0-.73-1.39c-.05-.06,0-.18.09-.14,1.59.67,2.37,1.45,2.37,2.36a.92.92,0,0,1-.83,1c-.31,0-.45-.16-.55-.58s-.14-.57-.2-.81a24.68,24.68,0,0,1-3.51,1.69c-.11.44-.18.53-.34.53s-.22,0-.83-1.87c.31,0,.66,0,1-.08Zm1.77-4.87a10,10,0,0,0,0-1,11.1,11.1,0,0,1-1.54,1.36,7.4,7.4,0,0,1,1.26.63h.32Zm1.84,1.31H399.9v1.67h2.25ZM399.9,97.6h2.25V95.75H399.9Zm6.24,3.22c0,.45-.24.61-.85.61s-.59-.11-.59-.53c0-1,.06-2.05.06-6.18,0-.37,0-.72,0-1.09a6.15,6.15,0,0,1-.74.69c-.06.05-.2-.06-.16-.13a12.7,12.7,0,0,0,1.45-3.37,18.57,18.57,0,0,0,.46-2.24c1.92.65,2,.68,2,.88s-.19.27-.64.32a15.43,15.43,0,0,1-.66,1.4h3.67c.7-.91.9-1,1-1s.3.13,1,.72c.3.28.43.42.43.53s-.05.16-.21.16h-3.48v2.52h1.27c.53-.55.66-.64.79-.64s.29.09.82.52c.24.23.33.34.33.47s-.09.24-.43.49v.84c0,3.71,0,4,0,4.21,0,.6,0,.8-.24,1a1.57,1.57,0,0,1-1.19.45c-.21,0-.27-.07-.3-.27a1.09,1.09,0,0,0-.9-1c-.08,0-.08-.19,0-.19.39,0,.69,0,1,0s.24,0,.24-.21V94.43h-1.4v1.11c0,2.72.06,6.13.06,7.27,0,.46-.22.63-.85.63s-.67-.11-.67-.59c0-.77.08-3.12.08-7.81v-.61h-1.33Zm.11-9.27a9.56,9.56,0,0,1-1.3,1.86,7.76,7.76,0,0,1,1.38.66h1.14V91.55Z"/><path class="cls-3" d="M420.52,93.55a7.37,7.37,0,0,1,.88-1.77,1.69,1.69,0,0,1,1.36-.74,2.12,2.12,0,0,1,1.8,1.14,6.75,6.75,0,0,1,.78,3.31,7.09,7.09,0,0,1-1.1,4.26,6.21,6.21,0,0,1-2.08,2,9.49,9.49,0,0,1-2.76,1.12,1.41,1.41,0,0,1-.46.08c-.13,0-.21,0-.21-.16s.1-.13.29-.21a7.57,7.57,0,0,0,3.79-2.91,7.28,7.28,0,0,0,1-4.37,8.51,8.51,0,0,0-.32-2.66c-.24-.68-.58-.92-1-.92-.75,0-1.31.61-2.08,3.85a8.52,8.52,0,0,0-.31,1.72c0,.54.08.81.08,1.07,0,.43-.16.59-.56.59s-.85-.51-1-1.17a6.84,6.84,0,0,1-.22-2.14,21.82,21.82,0,0,1,.38-3.49,8.06,8.06,0,0,0,.13-1.38,1.4,1.4,0,0,0-.42-1c-.06-.08-.12-.13-.12-.21s.14-.19.35-.19a.85.85,0,0,1,.46.19,3.09,3.09,0,0,1,1.06,1.23,1.6,1.6,0,0,1,.19.69.61.61,0,0,1-.21.51,1.64,1.64,0,0,0-.27.48,9,9,0,0,0-.58,2.79,4.34,4.34,0,0,0,0,.92c0,.13.16.12.21,0C420,94.88,420.25,94.26,420.52,93.55Z"/><path class="cls-3" d="M433.61,95a13.47,13.47,0,0,1-2.31,2c-.06,0-.2-.07-.16-.13a17.15,17.15,0,0,0,3.24-5.22,13.58,13.58,0,0,0,.78-2.83c1.47.41,2.13.67,2.13.89s-.16.29-.61.39a18.45,18.45,0,0,1-2,3.66c.68.12.8.18.8.34s-.1.22-.42.37v8.31c0,.46-.29.67-.83.67-.36,0-.71-.13-.71-.58s.1-1.7.1-4.24Zm10.07,5.78a46.39,46.39,0,0,1-6.81,1.55c-.11.51-.17.62-.36.62s-.26,0-.84-2.25a9.81,9.81,0,0,0,1,.06H437a52.77,52.77,0,0,0,2.3-8.79,24.85,24.85,0,0,0,.29-2.78c2.23.48,2.47.57,2.47.83s-.15.34-.63.48a38.58,38.58,0,0,1-3.74,10.24c1.31,0,4.27-.2,5.86-.4a19.19,19.19,0,0,0-1.67-4.19c0-.06.13-.18.19-.11,2.52,2.46,3.59,4.11,3.59,5.5,0,.77-.39,1.29-.95,1.29s-.7-.33-.91-1.38Z"/><path class="cls-3" d="M462.53,99.11c.83-1,1-1.14,1.1-1.14s.32.13,1.14.79c.36.3.49.44.49.56s-.05.16-.21.16H452.14a10.16,10.16,0,0,0-1.24.09l-.17-.59a7,7,0,0,0,1.34.13Zm-6.63,2.21a11.6,11.6,0,0,1-4.85,2c-.08,0-.15-.13-.08-.16a13.08,13.08,0,0,0,2.91-2.08,7.1,7.1,0,0,0,1-1.31c1.55.75,1.92,1,1.92,1.18S456.68,101.33,455.9,101.32Zm-1.06-3.7c0,.4-.29.59-1,.59-.46,0-.62-.16-.62-.56,0-1,.08-2.1.08-6.29a22.32,22.32,0,0,0-.11-2.45,9.1,9.1,0,0,1,1.74.93h5.57c.61-.67.74-.77.87-.77s.27.1.86.63c.26.24.35.36.35.49s-.09.24-.45.5v1.13c0,3.05.08,5.08.08,5.77,0,.38-.33.59-.94.59-.45,0-.62-.15-.62-.48v-.31h-5.85Zm5.85-7.41h-5.85v2h5.85Zm-5.85,4.3h5.85v-2h-5.85Zm0,2.52h5.85V94.88h-5.85Zm7.85,6.26c-.37,0-.63-.18-1-.71a7.5,7.5,0,0,0-2.88-2.34c-.08,0,0-.19.08-.17,3.05.4,4.62,1.21,4.62,2.4A.81.81,0,0,1,462.69,103.29Z"/><path class="cls-3" d="M481.33,95.75c.92-1.16,1.12-1.28,1.23-1.28s.32.12,1.25.88c.43.35.56.49.56.6s-.05.16-.21.16H471.61c-.46,0-.93,0-1.55.1l-.18-.59a12.44,12.44,0,0,0,1.7.13Z"/><path class="cls-3" d="M498.75,92.46a17.79,17.79,0,0,0,.62,4.34,8.1,8.1,0,0,0,2,3.46,1.93,1.93,0,0,0,.88.61c.24,0,.45-.37,1.05-1.91,0-.08.16,0,.16.07-.12,1.74-.12,1.85-.12,2.25a.87.87,0,0,0,.25.68.92.92,0,0,1,.18.54.67.67,0,0,1-.71.69,3.25,3.25,0,0,1-1.72-.74A9.38,9.38,0,0,1,498,97.54a21.2,21.2,0,0,1-.76-5.08h-6.53a10.4,10.4,0,0,0-1.23.1L489.3,92a8.1,8.1,0,0,0,1.35.13h6.58c0-.47,0-.95-.05-1.46s0-1-.1-1.76c2,.22,2,.27,2,.51s-.12.24-.45.37c0,.88,0,1.65.06,2.34h2.1c.75-.9.94-1,1.06-1s.3.13,1,.71c.3.27.43.41.43.53s-.05.15-.21.15Zm-6.1,3.21h-1.44a8.62,8.62,0,0,0-1.15.09l-.18-.59a6.36,6.36,0,0,0,1.28.13h3.47c.77-1,.95-1.07,1.06-1.07s.31.11,1,.72c.32.28.45.44.45.56s0,.16-.21.16h-2.66v4.08a29.07,29.07,0,0,0,3.09-.9c.08,0,.18.18.11.23-1.66,1.12-3.13,1.76-6.75,2.91-.13.51-.19.61-.37.61s-.48-.5-.88-2.12c.59,0,1.25-.09,1.91-.19l1.26-.21Zm8.61-4.33c-.33,0-.46-.11-.8-.73a3.47,3.47,0,0,0-1.06-1.2c-.06,0,0-.16,0-.16,1.65.14,2.49.59,2.49,1.34A.75.75,0,0,1,501.26,91.34Z"/><rect class="cls-3" x="350.33" y="93.38" width="9.19" height="9.19" transform="translate(34.67 279.67) rotate(-45)"/><rect class="cls-3" x="350.33" y="131.5" width="9.19" height="9.19" transform="translate(7.72 290.84) rotate(-45)"/><rect class="cls-3" x="350.33" y="169.12" width="9.19" height="9.19" transform="translate(-18.88 301.85) rotate(-45)"/><path class="cls-3" d="M723.13,95.83a3.67,3.67,0,0,1,2.07.57,2.58,2.58,0,0,1,1.25,2.15,2.36,2.36,0,0,1-1,2,3.14,3.14,0,0,1-2,.63,3.35,3.35,0,0,1-2.83-1.43,3.1,3.1,0,0,1-.48-.83.09.09,0,0,1,.09-.08.23.23,0,0,1,.21.11,3.41,3.41,0,0,0,2.5,1.14,2.39,2.39,0,0,0,1.57-.53,1.87,1.87,0,0,0,.46-1.41,1.6,1.6,0,0,0-.77-1.45,2.41,2.41,0,0,0-1.28-.31,5,5,0,0,0-2.33.77c-.39.21-.72.42-1,.61,0,.94.06,1.52.09,2.1,0,.28,0,.48,0,.78a2.92,2.92,0,0,1-.12,1c-.23.58-.5.76-.79.76s-.45-.15-.54-.53a3.63,3.63,0,0,0-1.44-2,5,5,0,0,0-.74.68.79.79,0,0,1-.64.31,1.37,1.37,0,0,1-.7-.24,1.34,1.34,0,0,1-.71-1.06.93.93,0,0,1,.43-.83c.07,0,.1,0,.13.13a1.22,1.22,0,0,0,.18.38c.06.07.11.08.27.07a9.32,9.32,0,0,0,1.66-.79c.56-.32,1.3-.77,1.83-1.09,0-1.15,0-2.21,0-3a13.34,13.34,0,0,1-1.73.2,1.89,1.89,0,0,1-1.51-.88,1.49,1.49,0,0,1-.35-.78c0-.13,0-.21.11-.21s.18.11.31.27a1.55,1.55,0,0,0,1.21.58,8.86,8.86,0,0,0,2-.27V91.57a2.12,2.12,0,0,0-.06-.77c0-.26-.13-.32-.29-.37a1.53,1.53,0,0,0-.42-.08c-.24,0-.36,0-.36-.13a.49.49,0,0,1,.25-.38,1.5,1.5,0,0,1,.71-.26,2,2,0,0,1,1.13.42c.47.34.69.66.69.88a.65.65,0,0,1-.14.43,1.38,1.38,0,0,0-.24.32,3.77,3.77,0,0,0-.18,1.28,3.94,3.94,0,0,0,1.11-.65,1.15,1.15,0,0,1,.76-.28c.66,0,1,.26,1,.53s0,.39-.43.64a8.55,8.55,0,0,1-1,.52,13.23,13.23,0,0,1-1.41.44c0,.74,0,2,0,2.82A7.52,7.52,0,0,1,723.13,95.83ZM717,99.62c.32.19.51.29.78.43a1.38,1.38,0,0,0,.53.18c.1,0,.16-.07.16-.23,0-.46,0-1,0-1.56A18.25,18.25,0,0,0,717,99.62Zm6.38-6.87a2.57,2.57,0,0,1,1.59-.52,3.3,3.3,0,0,1,2.13.76,2.18,2.18,0,0,1,.77,1.64c0,.46-.24.73-.61.73a.85.85,0,0,1-.48-.14.73.73,0,0,0-.48-.21,4.71,4.71,0,0,0-.5,0,2.94,2.94,0,0,0-.61.11,2.3,2.3,0,0,1-.38.08s-.13,0-.13-.08.07-.11.21-.21a11.7,11.7,0,0,0,1.06-.75.33.33,0,0,0,.11-.21.34.34,0,0,0-.07-.22,1.89,1.89,0,0,0-1.69-.87,2.51,2.51,0,0,0-.68.1,1.68,1.68,0,0,1-.25.08c-.07,0-.11,0-.11-.08A.28.28,0,0,1,723.37,92.75Z"/><path class="cls-3" d="M735.2,96.37l-1.48.32c-.09.32-.19.45-.33.45s-.32-.31-.6-1.75a7,7,0,0,0,.84,0h.85a22.33,22.33,0,0,0,1.6-2.9,10.84,10.84,0,0,0,.65-1.73c1.25.58,1.75.9,1.75,1.1s-.2.26-.63.24A19.69,19.69,0,0,1,735,95.43l2.52-.08a4,4,0,0,0-.57-1.28c0-.07.07-.13.13-.1,1.23.69,1.81,1.34,1.81,2.1a.82.82,0,0,1-.7.89c-.34,0-.53-.22-.59-1.09l0-.16c-.34.12-.69.24-1,.34v2.22c0,1.72,0,3.86,0,4.57,0,.43-.29.62-.82.62s-.64-.16-.64-.51.1-1.39.1-3.49v-1a1.1,1.1,0,0,1-.42.16,10.75,10.75,0,0,1-2,3.65c0,.06-.2,0-.17-.1a18.49,18.49,0,0,0,.67-2.62,11.23,11.23,0,0,0,.23-2,5.69,5.69,0,0,1,1.68.62ZM734.91,90c.13-.51.24-1,.3-1.42,1.44.51,1.91.75,1.91.94s-.2.27-.64.27a17.53,17.53,0,0,1-1.75,2,1.35,1.35,0,0,1,.69,1.18.8.8,0,0,1-.72.89c-.4,0-.45-.07-.72-1a3.14,3.14,0,0,0-1-1.61.1.1,0,0,1,.1-.16,7,7,0,0,1,1.25.46C734.57,91.14,734.75,90.58,734.91,90Zm2.91,10.53c-.41,0-.51-.32-.56-1a4.88,4.88,0,0,0-.48-1.94c0-.06.07-.13.13-.08,1.13.78,1.65,1.43,1.65,2.15C738.56,100.18,738.28,100.56,737.82,100.56Zm5.41-1.24c0,1.15,0,2.17,0,2.6a1.48,1.48,0,0,1-.43,1.11,1.73,1.73,0,0,1-1.15.37c-.28,0-.33-.07-.41-.43-.11-.57-.32-.71-1.45-1-.08,0-.07-.2,0-.2.74.07,1.27.1,1.73.1.21,0,.28-.06.29-.3V98a.76.76,0,0,1-.42.21,7.34,7.34,0,0,1-4.16,4.35c-.06,0-.19-.09-.13-.14A9,9,0,0,0,740,97.78h-.9a3.44,3.44,0,0,0-.93.13l-.17-.63a4.23,4.23,0,0,0,1,.13h.88c.5-.61.63-.7.76-.7s.27.09.88.65a1.82,1.82,0,0,1,.3.34V95.38H740.7v.16c0,.4-.3.56-.81.56-.34,0-.58-.11-.58-.47,0-.6.06-1.08.06-3.57,0-.76,0-1.53-.06-2.3a10.4,10.4,0,0,1,1.57.78h.73a7.36,7.36,0,0,0,.15-.83c0-.37.08-.77.1-1.12,1.43.35,1.9.55,1.9.74s-.18.25-.56.27a8.67,8.67,0,0,1-1,.94h2.16c.59-.62.72-.72.85-.72s.29.1.85.58c.25.22.35.34.35.46s0,.2-.46.52V92c0,1.75.06,3,.06,3.44a.47.47,0,0,1-.29.48c1.27.76,1.59,1,1.59,1.17s-.16.26-.66.29a12.21,12.21,0,0,1-2.06,1.17,6.78,6.78,0,0,0,3.13,2.16c.08,0,.07.1,0,.14a2,2,0,0,0-.94,1.24c-.13.4-.19.43-.32.43s-.23-.08-.42-.27a9.52,9.52,0,0,1-1.81-2.44,12.88,12.88,0,0,1-1-3.68Zm1.33-8.41H740.7v1.78h3.86Zm0,2.15H740.7v2h3.86Zm-1.31,2.32a8,8,0,0,0,1.13,2.93,8.41,8.41,0,0,0,.74-1.08,5.62,5.62,0,0,0,.56-1.26,1.26,1.26,0,0,1-.48.08c-.48,0-.64-.14-.64-.53v-.14Z"/><path class="cls-3" d="M759.84,92.85a10.22,10.22,0,0,0,2.85,1.92,12.93,12.93,0,0,0,4.08,1c.08,0,.08.11,0,.14-.43.18-.59.4-.79,1-.14.43-.19.48-.35.48a2.65,2.65,0,0,1-.59-.16,13.36,13.36,0,0,1-2.27-1.14,11.37,11.37,0,0,1-3-2.78c0,1.52,0,2,0,2.54s-.29.61-.9.61c-.38,0-.61-.14-.61-.5,0-.6,0-1.34,0-2.22a12.12,12.12,0,0,1-3.31,2.54,9.56,9.56,0,0,1,1.46.74h5.25c.53-.61.66-.7.78-.7s.31.09.91.56c.31.22.39.35.39.48s-.1.25-.42.48v.8c0,2,.08,3.45.08,3.93s-.3.66-.89.66-.66-.16-.66-.49v-.47h-5.59v.37c0,.4-.28.61-.89.61-.45,0-.64-.16-.64-.53,0-.59.08-1.23.08-3.55,0-.93,0-1.85-.07-2.77a16.16,16.16,0,0,1-3.12,1.17c-.08,0-.16-.17-.08-.2a13.64,13.64,0,0,0,5.56-4.51h-3.78a6,6,0,0,0-.95.09l-.17-.59a4.49,4.49,0,0,0,1.07.13h5V90.83a48.27,48.27,0,0,1-4.89.11c-.08,0-.1-.22,0-.22a32.94,32.94,0,0,0,8-1.54,9.91,9.91,0,0,0,1.21-.54c1.32.88,1.54,1.09,1.54,1.28s-.24.3-1,.14a25.3,25.3,0,0,1-3.45.63v1.79h3.56c.85-1,1-1.09,1.16-1.09s.32.13,1.09.77c.33.27.46.42.46.53s-.05.16-.21.16ZM762,97.38h-5.59v2H762Zm0,2.32h-5.59v2.19H762Z"/><path class="cls-3" d="M775.89,96a1.44,1.44,0,1,1-1.44-1.44A1.43,1.43,0,0,1,775.89,96Z"/><path class="cls-3" d="M785.66,96.58a6.12,6.12,0,0,1,4.24-1.75,4.77,4.77,0,0,1,2.18.5,3.53,3.53,0,0,1,1.3,1.09,2.9,2.9,0,0,1,.49,1.84,3.76,3.76,0,0,1-2.32,3.26,12.74,12.74,0,0,1-5.27,1.19,5.22,5.22,0,0,1-.6,0c-.12,0-.18-.08-.18-.19s.11-.16.35-.2a13.87,13.87,0,0,0,3.64-1,3.93,3.93,0,0,0,2.72-3.44,2,2,0,0,0-.87-1.86,3.25,3.25,0,0,0-2-.51,5.4,5.4,0,0,0-3.2,1.23,6.84,6.84,0,0,0-2,2.27c-.21.37-.38.6-.72.6-.5,0-.7-.6-.7-1a1.27,1.27,0,0,1,.53-1c.48-.44,1.08-1,1.53-1.51,1.86-2,2.95-3.22,4.23-4.75.25-.32.3-.39.3-.52s-.17-.11-.4,0-.69.25-1.66.67a4.44,4.44,0,0,0-1.09.59.7.7,0,0,1-.53.19,1.25,1.25,0,0,1-.82-.56,2.46,2.46,0,0,1-.48-1.21,1.2,1.2,0,0,1,.1-.47c0-.09.11-.17.18-.17s.16.09.25.27c.32.54.58.65.87.65a10.43,10.43,0,0,0,2.65-.65.77.77,0,0,0,.4-.27.67.67,0,0,1,.53-.23,3.15,3.15,0,0,1,1.14.39c.57.3.8.65.8.89a.51.51,0,0,1-.32.48,1.91,1.91,0,0,0-.42.27c-.94.88-1.77,1.78-2.67,2.71s-1.28,1.31-2.18,2.18Z"/><path class="cls-3" d="M804.56,93.44a2.72,2.72,0,0,1,2.13,1,3.85,3.85,0,0,1,.75,2.61,5.94,5.94,0,0,1-1.07,3.14,6.41,6.41,0,0,1-1.76,1.69,7.82,7.82,0,0,1-2,1,6,6,0,0,1-.83.21c-.14,0-.22,0-.22-.11s.11-.15.27-.23a7.31,7.31,0,0,0,2.72-2.14,5.86,5.86,0,0,0,1.22-3.81,3.9,3.9,0,0,0-.36-2,1.25,1.25,0,0,0-1.15-.67,4.18,4.18,0,0,0-2.56,1.71c-.22.28-.32.39-.59.39a1.54,1.54,0,0,1-1-.63,1.49,1.49,0,0,1-.37-.94A1.57,1.57,0,0,1,800,94a1.39,1.39,0,0,1,.26-.35.23.23,0,0,1,.16-.1c.11,0,.13.08.11.21a1.93,1.93,0,0,0,0,.48c0,.21.16.29.37.29a2.92,2.92,0,0,0,1.07-.34A6.34,6.34,0,0,1,804.56,93.44Zm-3.07-3.92a.65.65,0,0,1,0-.18c0-.11,0-.17.07-.17s.11,0,.21.13a3.57,3.57,0,0,0,2.65,1,2.75,2.75,0,0,1,1.36.2,1.12,1.12,0,0,1,.69.92c0,.3-.25.49-.82.49a7.07,7.07,0,0,0-1,0,5.1,5.1,0,0,0-1,.18,7.71,7.71,0,0,0-1.18.37,1.16,1.16,0,0,1-.37.11c-.08,0-.13,0-.13-.11s.1-.13.26-.25a14.39,14.39,0,0,0,1.23-.8A2.8,2.8,0,0,1,801.49,89.52Z"/><path class="cls-3" d="M821.82,94.47a12.55,12.55,0,0,0,1.14-.55,1.42,1.42,0,0,1,.53-.13,4.86,4.86,0,0,1,1.09.16c.59.19.83.42.83.71,0,.51-.35.69-.88.69a14,14,0,0,0-1.59.09,4.9,4.9,0,0,0-2.54.88,3,3,0,0,0-1.46,2.45,2.05,2.05,0,0,0,1.27,1.84,6.45,6.45,0,0,0,2.32.56,2.44,2.44,0,0,1,1,.29.72.72,0,0,1,.42.66c0,.48-.44.75-1.12.75a5.29,5.29,0,0,1-3.45-1.17,3.15,3.15,0,0,1-1.24-2.53,4.17,4.17,0,0,1,1.93-3.31,44.1,44.1,0,0,0-4.7,1.9,2.94,2.94,0,0,1-.92.31,1.26,1.26,0,0,1-.83-.35.67.67,0,0,1-.27-.45.61.61,0,0,1,.16-.48.35.35,0,0,1,.24-.1c.11,0,.21,0,.43,0a2,2,0,0,0,1-.29,6.26,6.26,0,0,0,1.61-1.25,37.07,37.07,0,0,0,3.6-4.07.75.75,0,0,0,.18-.36c0-.07,0-.1-.08-.1l-.37.08a13.58,13.58,0,0,0-2.4,1,1,1,0,0,1-.64.38.88.88,0,0,1-.48-.12,2.57,2.57,0,0,1-.66-.71,1.67,1.67,0,0,1-.36-1c0-.24.16-.58.3-.58s.1,0,.18.19a2.05,2.05,0,0,0,.38.56.77.77,0,0,0,.58.19,2.48,2.48,0,0,0,.53-.06A11.91,11.91,0,0,0,820,90a1.27,1.27,0,0,0,.46-.32.56.56,0,0,1,.38-.16,1.77,1.77,0,0,1,.68.19,4.11,4.11,0,0,1,.89.64c.24.28.28.4.28.55a.42.42,0,0,1-.29.4,5.53,5.53,0,0,0-.53.29,4,4,0,0,0-.66.56c-1.4,1.34-3.07,2.86-4.48,4C818.38,95.54,819.87,95.09,821.82,94.47Z"/><path class="cls-3" d="M835.93,90.4a.59.59,0,0,0-.17-.37,2.5,2.5,0,0,0-.43-.38c-.08-.05-.15-.1-.15-.19s.29-.21.59-.21a2.28,2.28,0,0,1,1.68,1,1.3,1.3,0,0,1,.41.89.64.64,0,0,1-.44.59,6.39,6.39,0,0,0-1.9,1.22c-.83.67-2.15,1.75-2.75,2.34-.23.22-.41.43-.41.53s.1.24.21.36a6.25,6.25,0,0,0,.85.68,23,23,0,0,1,3.94,3.17c.77.89.93,1.36.93,1.76a1.18,1.18,0,0,1-.18.72.72.72,0,0,1-.66.25c-.17,0-.48-.21-.84-.78a20.91,20.91,0,0,0-4.53-4.85,1.48,1.48,0,0,1-.69-1.14,1.21,1.21,0,0,1,.32-.85c.22-.28.82-.89,2.13-2.19.41-.42,1-1,1.65-1.78C835.85,90.77,835.93,90.59,835.93,90.4Z"/><path class="cls-3" d="M98.15,170.3c1,.4,1.49.9,1.49,1.62a.79.79,0,0,1-.69.85,1.1,1.1,0,0,1-.88-.47,8.52,8.52,0,0,0-1.15-1.17,4.92,4.92,0,0,0-1.66-.91V173c0,.67,0,2.14.06,3.87,0,.61-.27.75-.59.75a.73.73,0,0,1-.67-.37A2.68,2.68,0,0,1,93.7,176a2.1,2.1,0,0,1,.08-.47.53.53,0,0,0,.08-.27c0-.21,0-.65.07-3.58,0-1.52,0-2.88,0-4.39a7.69,7.69,0,0,0-.07-1.36.72.72,0,0,0-.33-.37,2.19,2.19,0,0,0-.56-.25c-.11,0-.16-.08-.16-.15s.11-.17.21-.24a.88.88,0,0,1,.44-.14,3.84,3.84,0,0,1,1.62.43c.43.19.64.45.64.75a.74.74,0,0,1-.27.52.43.43,0,0,0-.11.32c0,.44-.08,1.39-.08,2.88A8.7,8.7,0,0,1,98.15,170.3Zm1.33-4.79a1.22,1.22,0,0,1,.59,1,.54.54,0,0,1-.52.56.58.58,0,0,1-.55-.37,5.66,5.66,0,0,0-1-1.41c-.06-.07-.17-.15-.17-.21s.08-.11.19-.11a1.88,1.88,0,0,1,.37.06A3,3,0,0,1,99.48,165.51Zm1.49-1.12a1,1,0,0,1,.58.82.54.54,0,0,1-.5.59.6.6,0,0,1-.59-.35,4.14,4.14,0,0,0-1.12-1.25c-.06,0-.19-.13-.19-.19a.13.13,0,0,1,.13-.13,2.38,2.38,0,0,1,.41.05A3.71,3.71,0,0,1,101,164.39Z"/><path class="cls-3" d="M109.5,168.75l4.32-.47a1,1,0,0,0,.56-.22.92.92,0,0,1,.46-.14,2.59,2.59,0,0,1,1.25.75c.35.32.39.46.39.65s-.18.29-.34.37-.32.21-.58.69a17.25,17.25,0,0,1-2.49,3.52,15,15,0,0,1-5.25,3.72,1.45,1.45,0,0,1-.36.09.15.15,0,0,1-.16-.16c0-.08.13-.14.23-.22a18.44,18.44,0,0,0,4.62-4.44,14.57,14.57,0,0,0,2-3.36,2,2,0,0,0,.12-.33s0,0-.12,0a1.21,1.21,0,0,0-.25,0c-1.71.16-3,.37-4.58.64a3,3,0,0,0-1,.27,1.08,1.08,0,0,1-.51.16c-.26,0-.45-.08-.88-.51a1.91,1.91,0,0,1-.63-1.17c0-.27.08-.45.16-.45s.1,0,.24.16a1.56,1.56,0,0,0,1.3.6C108.25,168.88,108.94,168.81,109.5,168.75Zm.77-3.06c.59-.08,1.24-.19,2-.35a3.48,3.48,0,0,0,.72-.26,1.89,1.89,0,0,1,.62-.14c.71,0,1.39.37,1.39.72s0,.45-.32.53a6.86,6.86,0,0,1-1,.17c-.67.1-2.4.29-3.67.44-.32,0-.57,0-.77,0-.57,0-.89-.22-1.37-.89a1.07,1.07,0,0,1-.23-.69c0-.11,0-.18.1-.18s.1,0,.18.11a1.9,1.9,0,0,0,1.5.56C109.66,165.75,110,165.72,110.27,165.69Z"/><path class="cls-3" d="M122.07,174c-.17.1-.27.18-.35.18s-.19-.08-.19-.21.09-.16.27-.29a35.42,35.42,0,0,0,5.12-4.91,16.75,16.75,0,0,0,1.92-2.53,1.39,1.39,0,0,0,.26-.67c0-.14-.21-.35-.53-.55-.16-.09-.29-.12-.29-.22s.27-.37.67-.37a3.69,3.69,0,0,1,1.7.64,1.29,1.29,0,0,1,.69.88c0,.26-.16.45-.53.58a.67.67,0,0,0-.34.22c-.89,1-1.66,1.83-2.25,2.45.61.43,1,.77,1,1.09a.54.54,0,0,1-.06.3,2.26,2.26,0,0,0-.05.55v2.3c0,1.2,0,2.4,0,3.62a.64.64,0,0,1-.61.72.83.83,0,0,1-.72-.33,1.79,1.79,0,0,1-.33-1.05,1.07,1.07,0,0,1,.08-.36,6.42,6.42,0,0,0,.16-1.51c0-1.17,0-2.72,0-3.69a2.67,2.67,0,0,0-.11-1A22.51,22.51,0,0,1,122.07,174Z"/><path class="cls-3" d="M147.63,165.67a1.39,1.39,0,0,1,.49-.22,2,2,0,0,1,1.11.62c.27.28.69.6.69,1,0,.25-.2.42-.61.46a2,2,0,0,0-.91.4,30.58,30.58,0,0,1-3.67,2.12,13.22,13.22,0,0,1-1,3.34,8.94,8.94,0,0,1-3.84,4.07,1.19,1.19,0,0,1-.52.17c-.06,0-.12,0-.12-.14s.06-.13.24-.27a11.16,11.16,0,0,0,3-4.29,9.06,9.06,0,0,0,.75-3.48,1.4,1.4,0,0,0-.05-.54c0-.14-.41-.29-.83-.34-.13,0-.21,0-.21-.14s.12-.22.31-.37a1.31,1.31,0,0,1,.67-.16,4.39,4.39,0,0,1,1.57.24.45.45,0,0,1,.3.42.52.52,0,0,1-.05.24,3.24,3.24,0,0,0-.14.65,18.16,18.16,0,0,0,2.56-2.49.32.32,0,0,0,.11-.26c0-.06-.08-.08-.3-.06l-2.51.21c-1,.09-2,.22-3,.38a5.69,5.69,0,0,0-1.77.45,1.17,1.17,0,0,1-.6.22c-.33,0-.67-.21-1.07-.7s-.46-.74-.46-1.06.08-.45.17-.45.13.05.29.19c.48.44.66.55,1,.55s.75,0,1.39-.1c2.07-.16,4.15-.37,6.21-.53A1.43,1.43,0,0,0,147.63,165.67Z"/><path class="cls-3" d="M154.1,174c-.17.1-.27.18-.35.18s-.19-.08-.19-.21.1-.16.27-.29a35.42,35.42,0,0,0,5.12-4.91,16.75,16.75,0,0,0,1.92-2.53,1.29,1.29,0,0,0,.26-.67c0-.14-.21-.35-.53-.55-.16-.09-.29-.12-.29-.22s.28-.37.68-.37a3.7,3.7,0,0,1,1.69.64,1.29,1.29,0,0,1,.69.88c0,.26-.16.45-.53.58a.61.61,0,0,0-.33.22c-.9,1-1.67,1.83-2.26,2.45.61.43,1,.77,1,1.09a.54.54,0,0,1-.06.3,2.26,2.26,0,0,0-.05.55v2.3c0,1.2,0,2.4,0,3.62a.64.64,0,0,1-.6.72.85.85,0,0,1-.73-.33,1.79,1.79,0,0,1-.33-1.05,1.07,1.07,0,0,1,.08-.36,6.42,6.42,0,0,0,.16-1.51c0-1.17,0-2.72,0-3.69a2.67,2.67,0,0,0-.11-1A22.51,22.51,0,0,1,154.1,174Z"/><path class="cls-3" d="M178.79,172.48a10.56,10.56,0,0,1,1.54,1c1,.74,1.35,1.36,1.35,1.83a.8.8,0,0,1-.74.86,1,1,0,0,1-1-.54,13.45,13.45,0,0,0-1.86-2.39,10.13,10.13,0,0,0-1.6-1.23,18.21,18.21,0,0,1-3.92,3.14,13.92,13.92,0,0,1-2.74,1.26,1,1,0,0,1-.35.08c-.08,0-.16,0-.16-.14a.25.25,0,0,1,.11-.18,19.38,19.38,0,0,0,5-3.87,24.06,24.06,0,0,0,3.25-4.24.47.47,0,0,0,.1-.19c0-.05,0-.07-.21-.05-1.12.13-2.56.37-3.83.64a2.29,2.29,0,0,0-.73.25,1,1,0,0,1-.56.18c-.31,0-.63-.19-1.08-.75a1.4,1.4,0,0,1-.33-1c0-.3.11-.41.21-.41s.11.06.22.19c.45.49.63.61,1.1.61.2,0,.6,0,1.22-.1,1.31-.14,2.39-.29,3.52-.45a1.09,1.09,0,0,0,.64-.24.65.65,0,0,1,.47-.17,1.28,1.28,0,0,1,.85.43c.48.41.67.67.67.9s0,.32-.53.48c-.14,0-.24.17-.39.38a24.68,24.68,0,0,1-2.17,2.88C177.61,171.89,178.25,172.19,178.79,172.48Z"/><rect class="cls-3" x="683.6" y="93.38" width="9.19" height="9.19" transform="translate(132.29 515.33) rotate(-45)"/><rect class="cls-3" x="683.6" y="131.5" width="9.19" height="9.19" transform="translate(105.33 526.49) rotate(-45)"/><rect class="cls-3" x="683.6" y="169.12" width="9.19" height="9.19" transform="translate(78.73 537.51) rotate(-45)"/><path class="cls-3" d="M718.54,169.2a6.73,6.73,0,0,0,.77-1.57c-1,.11-2.15.22-3.36.32-.11.35-.24.51-.4.51s-.21,0-.64-2a27.46,27.46,0,0,0,3,.16,8.11,8.11,0,0,0,.7-1.57,8.51,8.51,0,0,0,.34-1.44c1.68.53,2,.67,2,.86s-.19.37-.61.32a11.55,11.55,0,0,1-1.85,1.85h.71c2.13,0,3.94,0,5.26-.12a7.18,7.18,0,0,0-1.77-1.42c-.06,0,0-.16.12-.15,2.7.56,3.81,1.19,3.81,2.18a.85.85,0,0,1-.82.91c-.4,0-.43,0-.91-.91-.05-.08-.1-.17-.16-.25-1.59.27-3.17.52-4.77.68,1,.28,1.49.5,1.49.69s-.15.31-.68.35c-.12.21-.25.4-.38.6h5.31c.85-.9,1-1,1.16-1s.32.13,1.08.71c.36.28.48.41.48.52s0,.16-.2.16h-5.65a6.75,6.75,0,0,0,2.59,1.64,12.92,12.92,0,0,0,3.54.77c.08,0,0,.19,0,.2-.56.18-.64.31-.89,1.16-.1.3-.13.35-.27.35a2.71,2.71,0,0,1-.72-.18,9.58,9.58,0,0,1-1.64-.81,8,8,0,0,1-3-3.13h-2a11.93,11.93,0,0,1-6.5,4.07c-.08,0-.14-.18-.08-.21a13.48,13.48,0,0,0,4.78-3.86h-3a12.11,12.11,0,0,0-1.34.1l-.18-.59a9.1,9.1,0,0,0,1.44.13Zm6.88,6.11A19.52,19.52,0,0,1,715,178.5c-.08,0-.13-.21,0-.23a22.88,22.88,0,0,0,7.72-2.86,6.74,6.74,0,0,0,1.89-1.73c1.39,1,1.6,1.21,1.6,1.39S726,175.39,725.42,175.31Zm-3.77-3.5a12,12,0,0,1-6.44,2.62c-.08,0-.16-.14-.08-.18a14.5,14.5,0,0,0,4.64-2.69,6.05,6.05,0,0,0,1-1.16c1.12.72,1.46,1,1.46,1.18S722.09,171.85,721.65,171.81Zm1.64,1.87a15.11,15.11,0,0,1-8,2.62c-.08,0-.13-.19,0-.2a19.84,19.84,0,0,0,6.06-2.63,5.78,5.78,0,0,0,1.3-1.25c1.2.9,1.39,1,1.39,1.27S723.81,173.73,723.29,173.68Z"/><path class="cls-3" d="M738.91,168.2c.56-.59.69-.68.82-.68s.27.09.84.6c.26.24.36.37.36.5s0,.22-.47.42c-1.05,4.67-3.12,7.33-7.31,9.25-.08,0-.18-.1-.12-.15a13.68,13.68,0,0,0,4.44-5.09.68.68,0,0,1-.37.12c-.34,0-.53-.18-.65-.69a3.59,3.59,0,0,0-1.06-1.88,10.64,10.64,0,0,1-2.34,2.18c-.06.05-.16-.08-.11-.14a13.86,13.86,0,0,0,3-7.16h-1.41a6.76,6.76,0,0,0-1.09.1l-.17-.59a6.88,6.88,0,0,0,1.26.12H739c.65-.8.85-.92,1-.92s.32.12,1,.64c.3.25.43.38.43.49s-.05.16-.21.16h-3.61a12.94,12.94,0,0,1-.76,2.72Zm-2.29.37a10.18,10.18,0,0,1-1.09,1.86c1.54.53,2.24,1.13,2.24,1.92v0a20.41,20.41,0,0,0,1.19-3.81Zm6.59-.61c0,3.6.1,5.49.1,6.18,0,.45-.27.66-.86.66s-.67-.16-.67-.56.06-1.92.06-4.8c0-2.5,0-3.91-.06-4.25,1.79.2,1.92.23,1.92.5s-.12.24-.49.4Zm1.88-2.65A8,8,0,0,0,745,164c1.89.23,2,.26,2,.5s-.13.3-.45.46v5.83c0,2.91.08,5.1.08,5.94s-.13,1-.53,1.26a2.08,2.08,0,0,1-1.17.39c-.35,0-.46-.08-.51-.4-.06-.63-.54-.88-1.84-1.22-.08,0-.08-.23,0-.23.8.07,1.71.13,2.26.13.19,0,.24-.05.24-.22Z"/><path class="cls-3" d="M764.06,169c.84-.93,1-1.06,1.14-1.06s.3.13,1.06.74c.32.26.43.42.43.53s-.05.16-.21.16h-5.33a31,31,0,0,1-3.28,2.29h4.21c.69-.68.82-.77.94-.77s.31.09,1,.59c.29.23.38.34.38.47s-.09.24-.48.51v.89c0,2.37.08,4,.08,4.53s-.32.61-1,.61c-.42,0-.64-.14-.64-.53v-.48h-5.14v.4c0,.45-.3.64-1,.64-.41,0-.62-.16-.62-.52,0-.68.08-1.41.08-4.13v-1a21.19,21.19,0,0,1-3.76,1.39c-.08,0-.16-.19-.08-.22a28,28,0,0,0,3.81-1.95c0-.42,0-.82-.07-1.23a10.21,10.21,0,0,1,1.19.51c.89-.61,1.78-1.27,2.62-2h-6a7.82,7.82,0,0,0-1.09.09l-.18-.59a5.62,5.62,0,0,0,1.21.13h4.27v-2.34h-2.82a6.26,6.26,0,0,0-1,.1l-.18-.59a5.31,5.31,0,0,0,1.1.12h2.87v-1c0-.53,0-1-.07-1.59,2,.18,2.13.36,2.13.53s-.17.29-.52.4v1.63h.94c.67-.75.86-.87,1-.87s.3.12.89.6a1.24,1.24,0,0,1,.35.39,13.15,13.15,0,0,0,1.48-2.18c1.31.69,1.77,1,1.77,1.2s-.19.29-.8.29a22.48,22.48,0,0,1-3.2,3.28Zm-6.88,5.25h5.14v-2.22h-5.08l-.06,0Zm5.14.37h-5.14v2.5h5.14ZM759.79,169a27.2,27.2,0,0,0,2.34-2.34h-3V169Z"/><path class="cls-3" d="M774.2,172.4a13.4,13.4,0,0,1-.27,1.66,7.29,7.29,0,0,1-2.56,4.26c-.06.05-.19-.06-.16-.13a10.8,10.8,0,0,0,1.38-4.18,45.69,45.69,0,0,0,.25-5.79c0-1.95,0-3.06-.11-4.05a7.65,7.65,0,0,1,1.81.9H783c.65-.66.78-.76.91-.76s.29.1.88.56c.27.24.37.36.37.48s0,.2-.43.47v1.76c0,7.38.06,7.95.06,9,0,.82-.19,1-.58,1.32a2.33,2.33,0,0,1-1.23.38c-.27,0-.32-.14-.37-.43-.12-.72-.59-.88-1.81-1.2-.08,0-.08-.2,0-.2.76.07,1.4.08,2.09.08.22,0,.27-.06.27-.27V172.4h-3.72c0,2,0,4,0,4.78,0,.48-.28.66-.93.66s-.71-.18-.71-.64c0-.22,0-.94,0-2.37V172.4Zm.2-3.59c0,1.07-.07,2.15-.16,3.22h3.66v-3.22Zm3.5-.37v-3h-3.49v.75c0,.75,0,1.5,0,2.25Zm5.27-3h-3.72v3h3.72Zm0,3.37h-3.72V172h3.72Z"/><path class="cls-3" d="M795.53,170.56a1.24,1.24,0,0,1,.18.62.74.74,0,0,1-.74.77c-.29,0-.45-.18-.49-.58a3.32,3.32,0,0,0-.53-1.6c0,3.08.06,7.17.06,8.26,0,.4-.37.55-.88.55s-.62-.13-.62-.47c0-.81.11-4.13.13-7a8.81,8.81,0,0,1-2.17,3.54c0,.06-.17,0-.14-.08a24.29,24.29,0,0,0,2.07-6.6h-.68a6,6,0,0,0-1.05.1l-.18-.59a5.87,5.87,0,0,0,1.17.12h.88v-1.76c0-.8,0-1.41-.08-2,1.71.13,2,.23,2,.47s-.16.32-.56.48v2.86h.24c.46-.81.65-.94.77-.94s.28.13.81.65c.21.23.34.39.34.5s-.05.16-.21.16H794v1.46a3.77,3.77,0,0,1,1.28.72h7.84c.67-.77.87-.9,1-.9s.3.13.88.63c.25.2.37.36.37.48s0,.16-.21.16h-1.36v4c0,.86,0,1.68,0,2.54a1.51,1.51,0,0,1-.38,1,1.84,1.84,0,0,1-1.33.38c-.24,0-.3,0-.37-.37s-.43-.78-1.68-1.1c-.08,0-.08-.21,0-.21.82.08,1.49.11,2.08.11.21,0,.28-.06.28-.29v-6.09Zm4.6-4.12a7.1,7.1,0,0,1-.28.69c2.23.26,3.37.9,3.37,1.87a.73.73,0,0,1-.63.8c-.24,0-.37-.09-.59-.41a6,6,0,0,0-2.29-2,5.55,5.55,0,0,1-4.11,2.39c-.08,0-.15-.16-.07-.19a4.94,4.94,0,0,0,3.12-3.16h-1.71a9.52,9.52,0,0,0-1.18.1l-.18-.59a7.39,7.39,0,0,0,1.31.12h1.86a7.8,7.8,0,0,0,.13-1.42c0-.24,0-.38,0-.77,1.72.19,2,.27,2,.51s-.15.31-.48.42a6.07,6.07,0,0,1-.18,1.26h2c.72-.88.91-1,1-1s.3.12,1,.7c.29.24.4.4.4.51s0,.16-.21.16Zm-2.58,8.65v.6c0,.42-.29.55-.82.55s-.57-.14-.57-.43,0-1,0-2.68c0-.56,0-1.12-.07-1.69a13.28,13.28,0,0,1,1.49.69h1.92c.45-.52.58-.61.71-.61s.29.09.78.48c.21.17.31.29.31.41s-.05.18-.36.4v.42c0,1.1.07,2,.07,2.22s-.27.52-.8.52-.59-.12-.59-.45v-.43Zm2.1-2.6h-2.1v2.23h2.1Z"/><path class="cls-3" d="M817.69,174.75c0,1,0,1.31,0,1.92a1.64,1.64,0,0,1-.3,1.07,1.77,1.77,0,0,1-1.47.56c-.44,0-.48-.12-.6-.49-.17-.59-.8-.82-2-1.12-.08,0-.08-.26,0-.24.75.08,1.94.14,2.55.14.22,0,.27-.05.27-.22V171h-4.71a13.14,13.14,0,0,0-1.54.1l-.17-.6a10.94,10.94,0,0,0,1.7.13h4.72v-1.44a9.48,9.48,0,0,0,0-1.2c.69.11,1.15.19,1.47.26a10.24,10.24,0,0,0,2.26-2.85h-7a5.53,5.53,0,0,0-1.2.13l-.18-.63a6.73,6.73,0,0,0,1.32.13h7c.67-.66.83-.74,1-.74s.32.08,1.06.76c.35.33.43.41.43.54s0,.24-.82.4a12.75,12.75,0,0,1-3.31,2.4c.09.05.09.1.09.18s-.14.29-.56.46v1.6h3.7c.93-1.17,1.12-1.29,1.23-1.29s.32.12,1.27.89c.43.35.56.5.56.61s-.05.16-.21.16h-6.55Z"/><rect class="cls-3" x="996.47" y="93.38" width="9.19" height="9.19" transform="translate(223.92 736.56) rotate(-45)"/><path class="cls-3" d="M1031.06,94.45c1.33.46,2,1.12,2,1.9a.83.83,0,0,1-.77.87c-.34,0-.48-.21-.56-.79a3,3,0,0,0-.66-1.76c0,4,.08,7.32.08,8.23,0,.4-.33.54-.85.54s-.62-.12-.62-.44c0-.79.1-3.91.13-7.13a10.54,10.54,0,0,1-2.34,3.83c0,.06-.19,0-.16-.1a23.94,23.94,0,0,0,2.21-6.74h-.61a7.22,7.22,0,0,0-1.05.1l-.18-.59a6,6,0,0,0,1.17.13h.86V90.75a18.37,18.37,0,0,0-.08-2c1.73.18,2,.24,2,.52s-.18.32-.6.49V92.5h.23c.46-.82.65-1,.77-1s.28.13.81.66c.21.22.34.38.34.49s0,.16-.21.16h-1.94Zm5.09-2.13c0-.61,0-1.25,0-1.9s0-1-.06-1.65c1.85.24,2.09.32,2.09.57s-.16.31-.52.42c0,.91,0,1.76-.12,2.56h2.61c.55-.64.67-.74.8-.74s.29.1,1,.69c.31.29.4.4.4.53s-.17.35-.48.35-.33,0-.44.18a9.1,9.1,0,0,1-1.45,1.34c-.06,0-.16,0-.12-.11a8.42,8.42,0,0,0,.51-1.87h-2.82c0,.7-.14,1.41-.25,2.11,1.13.13,1.47.23,1.47.45s-.15.24-.43.38v5.78c0,.35.2.45,1,.45s1.2-.06,1.36-.24a6.71,6.71,0,0,0,.85-2.32c0-.08.18-.08.18,0,0,.67,0,1.36,0,1.86,0,.14.07.27.29.43a.59.59,0,0,1,.32.53c0,.33-.21.57-.61.75a6.13,6.13,0,0,1-2.29.3c-2,0-2.44-.3-2.44-1.66,0-.18,0-.32,0-1.06,0-1.37,0-2.75,0-4.13a10.44,10.44,0,0,1-5.21,6.92c-.06.05-.22-.15-.16-.19,2.82-2.47,4.2-5.59,4.52-10.36h-1.73c.09,1.07-.26,2.11-1.12,2.11a.65.65,0,0,1-.69-.72c0-.3.08-.41.5-.78a2.25,2.25,0,0,0,.8-1.81c0-.08.16-.11.19,0a3.19,3.19,0,0,1,.27.86Z"/><path class="cls-3" d="M1047.67,97.27c0-1.46,0-2.92,0-4.39a13.21,13.21,0,0,1-1.14.71c-.06,0-.17-.08-.13-.15a14.27,14.27,0,0,0,2.23-2.94,7.07,7.07,0,0,0,.72-1.86c1.63.48,2,.62,2,.85s-.1.21-.5.29c1.76.56,2.31,1,2.31,1.76a.74.74,0,0,1-.66.8c-.38,0-.45-.07-.83-.92a4.3,4.3,0,0,0-1.09-1.45,15.7,15.7,0,0,1-1.07,1.34c1.58.15,1.73.29,1.73.43s-.13.23-.4.36v1.25h.38c.51-.52.64-.61.77-.61s.29.09.78.51c.21.18.31.29.31.42s-.08.2-.39.4v.75c0,1.89,0,2.86,0,3.2s-.22.61-.78.61-.61-.13-.61-.55V98H1049v3.09a20.43,20.43,0,0,0,2.15-.53,5.16,5.16,0,0,0-.74-1.39c0-.06,0-.18.09-.14,1.59.67,2.37,1.45,2.37,2.36a.92.92,0,0,1-.83,1c-.3,0-.45-.16-.54-.58l-.21-.81a23.67,23.67,0,0,1-3.51,1.69c-.11.44-.17.53-.33.53s-.23,0-.83-1.87c.3,0,.65,0,1-.08Zm1.78-4.87a9.62,9.62,0,0,0,0-1,10.55,10.55,0,0,1-1.54,1.36,7.85,7.85,0,0,1,1.27.63h.32Zm1.84,1.31H1049v1.67h2.26ZM1049,97.6h2.26V95.75H1049Zm6.24,3.22c0,.45-.24.61-.85.61s-.59-.11-.59-.53c0-1,.07-2.05.07-6.18,0-.37,0-.72,0-1.09a6.89,6.89,0,0,1-.73.69c-.07.05-.21-.06-.16-.13a13,13,0,0,0,1.44-3.37,15.37,15.37,0,0,0,.46-2.24c1.92.65,2,.68,2,.88s-.19.27-.64.32c-.22.51-.43,1-.65,1.4h3.66c.71-.91.9-1,1-1s.31.13,1,.72c.31.28.44.42.44.53s0,.16-.21.16H1058v2.52h1.28c.53-.55.65-.64.78-.64s.29.09.82.52c.24.23.34.34.34.47s-.1.24-.44.49v.84c0,3.71,0,4,0,4.21,0,.6,0,.8-.24,1a1.55,1.55,0,0,1-1.18.45c-.21,0-.28-.07-.31-.27a1.09,1.09,0,0,0-.9-1c-.08,0-.08-.19,0-.19.39,0,.69,0,1,0s.24,0,.24-.21V94.43H1058v1.11c0,2.72.06,6.13.06,7.27,0,.46-.22.63-.85.63s-.67-.11-.67-.59c0-.77.08-3.12.08-7.81v-.61h-1.33Zm.11-9.27a10,10,0,0,1-1.29,1.86,8,8,0,0,1,1.37.66h1.14V91.55Z"/><path class="cls-3" d="M1069.66,93.55a7,7,0,0,1,.88-1.77,1.67,1.67,0,0,1,1.36-.74,2.12,2.12,0,0,1,1.79,1.14,6.75,6.75,0,0,1,.78,3.31,7.09,7.09,0,0,1-1.1,4.26,6.12,6.12,0,0,1-2.08,2,9.49,9.49,0,0,1-2.76,1.12,1.41,1.41,0,0,1-.46.08c-.13,0-.21,0-.21-.16s.1-.13.29-.21a7.56,7.56,0,0,0,3.8-2.91,7.35,7.35,0,0,0,1-4.37,8.51,8.51,0,0,0-.32-2.66c-.24-.68-.57-.92-1-.92-.75,0-1.31.61-2.08,3.85a7.77,7.77,0,0,0-.3,1.72,9.06,9.06,0,0,0,.08,1.07c0,.43-.16.59-.56.59s-.85-.51-1-1.17a6.83,6.83,0,0,1-.23-2.14,23,23,0,0,1,.38-3.49,8.06,8.06,0,0,0,.13-1.38,1.44,1.44,0,0,0-.41-1c-.07-.08-.13-.13-.13-.21s.14-.19.35-.19a.8.8,0,0,1,.46.19,3,3,0,0,1,1.06,1.23,1.6,1.6,0,0,1,.19.69.63.63,0,0,1-.2.51,1.47,1.47,0,0,0-.28.48,8.89,8.89,0,0,0-.57,2.79,5.41,5.41,0,0,0,0,.92c0,.13.17.12.21,0C1069.14,94.88,1069.38,94.26,1069.66,93.55Z"/><path class="cls-3" d="M1081.69,96.55a10.5,10.5,0,0,1-1.51,1.09c-.06,0-.17-.1-.13-.16a15.08,15.08,0,0,0,2.28-3.38,9.68,9.68,0,0,0,.67-1.75c1.63.67,1.7.72,1.7.92s-.13.24-.55.33a11.82,11.82,0,0,1-1.28,1.76c.53.08.61.16.61.31s-.1.22-.42.38v6.82c0,.46-.27.67-.81.67-.34,0-.68-.14-.68-.61s.12-1.68.12-4.21Zm2.44-6.61a11.29,11.29,0,0,1-3.82,3.33c-.06,0-.18-.13-.11-.18a12.63,12.63,0,0,0,2.13-3,7.5,7.5,0,0,0,.59-1.47c1.25.43,1.89.78,1.89,1S1084.61,89.9,1084.13,89.94Zm4.14,1.36c.47-.64.67-.77.78-.77s.3.13.8.54c.21.18.34.32.34.43s0,.16-.21.16h-1.91v2.5h.45c.5-.64.69-.77.8-.77s.3.13.8.55c.21.17.34.32.34.43s0,.16-.21.16h-2.18V97h.45c.4-.57.59-.7.71-.7s.3.13.76.51c.18.15.31.29.31.4s0,.16-.21.16h-2v2.82a17.45,17.45,0,0,0,2.13-.45.18.18,0,0,1,.1.27,29.66,29.66,0,0,1-5.72,2.08c-.06.37-.16.53-.32.53s-.25-.17-.77-1.92c.29,0,.6,0,.92,0v-3.5c0-.42,0-.85-.08-1.27,1.65.16,1.79.31,1.79.45s-.14.27-.42.4v3.81c.34,0,.69-.08,1-.13V94.53h-1.46a4.31,4.31,0,0,0-.88.1l-.18-.6a3.87,3.87,0,0,0,1,.13h1.52v-2.5h-1a7.46,7.46,0,0,1-1.28,1.08c-.06,0-.19,0-.14-.12a10.35,10.35,0,0,0,1.18-2.46,9.77,9.77,0,0,0,.36-1.44c1.34.37,1.84.58,1.84.8s-.21.3-.69.34a7,7,0,0,1-1,1.44Zm4.86-1.16c.56-.67.69-.76.82-.76s.29.09.86.57c.26.23.35.34.35.47s-.09.27-.43.52v1.22c0,6.5,0,7.24,0,7.78a1.34,1.34,0,0,1-.35.94,1.42,1.42,0,0,1-1.09.42c-.19,0-.25-.1-.29-.42-.06-.54-.24-.73-.94-1-.08,0-.08-.19,0-.19.35,0,.59,0,1,0,.2,0,.24-.07.24-.24V90.51h-1.39v12.41c0,.41-.26.6-.82.6-.38,0-.59-.12-.59-.47,0-.63.07-1.75.07-10.63,0-1.49,0-2.13-.08-3.08a9.48,9.48,0,0,1,1.52.8Z"/><path class="cls-3" d="M1101.21,95a13.89,13.89,0,0,1-1.73,1.78c-.07,0-.21-.06-.16-.13a17.94,17.94,0,0,0,2.57-5.44,15.6,15.6,0,0,0,.52-2.53c1.44.4,2.11.67,2.11.88s-.16.29-.56.37a19.58,19.58,0,0,1-1.86,3.81c.84.13,1,.19,1,.35s-.1.23-.42.39v8.29c0,.46-.27.67-.83.67-.37,0-.69-.14-.69-.62s.1-1.67.1-4.2Zm6.11,5a10.22,10.22,0,0,1-4.32,3.24c-.08,0-.18-.13-.11-.18a10.35,10.35,0,0,0,2.33-2.62,6.57,6.57,0,0,0,.77-1.62c1.28.45,1.94.75,1.94.93S1107.78,100,1107.32,100Zm3.84-2.36h.66c.8-1,1-1.08,1.1-1.08s.32.13,1.08.77c.33.29.46.4.46.51s0,.16-.21.16h-9.89a7,7,0,0,0-1.12.1l-.18-.59a6.89,6.89,0,0,0,1.25.13h1.3V93.28h-.72a6.89,6.89,0,0,0-1.11.1l-.17-.6a5.85,5.85,0,0,0,1.23.13h.77V90.75c0-.62,0-1.2-.08-1.69,1.82.16,2,.32,2,.46s-.16.26-.46.42v3h2.66V90.56a14.38,14.38,0,0,0-.07-1.52c1.83.16,2,.3,2,.45s-.15.27-.47.43v3h.4c.75-.89,1-1,1.06-1s.32.13,1,.73c.32.28.45.39.45.5s0,.16-.21.16h-2.74Zm-4.11-4.36v4.36h2.66V93.28Zm5.55,9.93c-.36,0-.57-.23-.8-.77a8.13,8.13,0,0,0-2.29-3.3c-.06,0,0-.19.08-.16,2.57.91,3.85,2,3.85,3.15A1,1,0,0,1,1112.6,103.21Z"/><path class="cls-3" d="M1123.06,96.45c.66-.16,1.27-.35,1.8-.53.08,0,.12.13.06.18a15.53,15.53,0,0,1-1.84,1.13c0,2.76,0,4.66,0,5.5,0,.51-.23.71-.92.71-.49,0-.65-.15-.65-.54,0-.75,0-2.42.06-5-.46.19-1,.39-1.52.58,0,.42-.14.58-.34.58s-.38-.34-.8-1.93a7.41,7.41,0,0,0,1.44-.12l1.22-.23c0-1.69,0-2.78,0-3.89h-1.15a10.07,10.07,0,0,1-1.57,3c-.05.06-.21,0-.17,0a21.32,21.32,0,0,0,.8-4,16.28,16.28,0,0,0,.12-1.78c1.35.36,1.8.52,1.8.72s-.11.23-.5.34a12.57,12.57,0,0,1-.35,1.34h1V91.09c0-1.44,0-1.71-.06-2.42,1.94.22,2.06.27,2.06.51s-.12.26-.56.45v2.91h.15c.46-.67.65-.8.77-.8s.28.13.76.58c.18.16.31.32.31.43s0,.16-.21.16h-1.78Zm5.8-4a9.89,9.89,0,0,1-5.32,6.76c-.08,0-.17-.11-.11-.16a12.35,12.35,0,0,0,3.91-6.6h-.93a10.13,10.13,0,0,1-2.37,2.85c-.06,0-.19-.06-.14-.12a14.23,14.23,0,0,0,1.8-4.17,10.17,10.17,0,0,0,.42-2.35c1.66.24,2.16.39,2.16.64s-.16.29-.61.4a17.29,17.29,0,0,1-1.05,2.39h4.88c.61-.68.74-.77.86-.77s.29.09.9.59c.27.22.37.34.37.47s-.05.15-.5.49c-.19,5.39-.4,7.36-1,8.93a2.16,2.16,0,0,1-.75,1.08,2.24,2.24,0,0,1-1.31.4c-.28,0-.29,0-.37-.37-.15-.64-.64-1-1.78-1.3-.08,0-.06-.24,0-.24l1.85.1c.9,0,.9,0,1.17-1.24a41.94,41.94,0,0,0,.64-7.78h-.33c-.92,5.05-2.93,7.9-6.85,9.69-.08,0-.18-.15-.12-.19,3-2.15,4.74-5.13,5.46-9.5Z"/><path class="cls-3" d="M1144.8,88.38c0,.05,0,.08-.08.15a9.91,9.91,0,0,0-.07,14.88c.11.11.15.15.15.21s0,.1-.08.1-.1,0-.21-.1a11,11,0,0,1-3.22-3.44,8.17,8.17,0,0,1,0-8.36,11.17,11.17,0,0,1,3.23-3.45c.08-.05.12-.08.16-.08S1144.8,88.32,1144.8,88.38Z"/><path class="cls-3" d="M1158.71,95.83a3.67,3.67,0,0,1,2.07.57,2.58,2.58,0,0,1,1.25,2.15,2.36,2.36,0,0,1-1,2,3.16,3.16,0,0,1-2,.63,3.35,3.35,0,0,1-2.83-1.43,3.1,3.1,0,0,1-.48-.83.08.08,0,0,1,.09-.08.23.23,0,0,1,.21.11,3.41,3.41,0,0,0,2.5,1.14,2.39,2.39,0,0,0,1.57-.53,1.92,1.92,0,0,0,.46-1.41,1.6,1.6,0,0,0-.77-1.45,2.44,2.44,0,0,0-1.28-.31,5,5,0,0,0-2.33.77c-.39.21-.73.42-1,.61,0,.94.07,1.52.1,2.1,0,.28,0,.48,0,.78a2.69,2.69,0,0,1-.13,1c-.22.58-.49.76-.78.76s-.45-.15-.54-.53a3.6,3.6,0,0,0-1.45-2,5.31,5.31,0,0,0-.73.68.79.79,0,0,1-.64.31,1.43,1.43,0,0,1-.71-.24,1.35,1.35,0,0,1-.7-1.06.93.93,0,0,1,.43-.83c.07,0,.1,0,.13.13a1,1,0,0,0,.18.38c.06.07.11.08.27.07a9.32,9.32,0,0,0,1.66-.79c.56-.32,1.3-.77,1.83-1.09,0-1.15,0-2.21,0-3a13.34,13.34,0,0,1-1.73.2,1.89,1.89,0,0,1-1.51-.88,1.49,1.49,0,0,1-.35-.78c0-.13,0-.21.11-.21s.18.11.31.27a1.54,1.54,0,0,0,1.21.58,8.86,8.86,0,0,0,2-.27V91.57a2.12,2.12,0,0,0-.06-.77c0-.26-.13-.32-.29-.37a1.53,1.53,0,0,0-.42-.08c-.24,0-.36,0-.36-.13a.49.49,0,0,1,.25-.38,1.5,1.5,0,0,1,.71-.26A2,2,0,0,1,1155,90c.47.34.69.66.69.88a.65.65,0,0,1-.14.43,1.38,1.38,0,0,0-.24.32,3.77,3.77,0,0,0-.18,1.28,3.94,3.94,0,0,0,1.11-.65A1.15,1.15,0,0,1,1157,92c.66,0,1,.26,1,.53s-.05.39-.43.64a8.55,8.55,0,0,1-1,.52,13.23,13.23,0,0,1-1.41.44c0,.74,0,2,0,2.82A7.52,7.52,0,0,1,1158.71,95.83Zm-6.14,3.79c.32.19.51.29.78.43a1.38,1.38,0,0,0,.53.18c.1,0,.16-.07.16-.23,0-.46,0-1,0-1.56C1153.54,98.8,1153,99.25,1152.57,99.62Zm6.38-6.87a2.57,2.57,0,0,1,1.59-.52,3.3,3.3,0,0,1,2.13.76,2.18,2.18,0,0,1,.77,1.64c0,.46-.24.73-.61.73a.83.83,0,0,1-.48-.14.73.73,0,0,0-.48-.21,4.71,4.71,0,0,0-.5,0,2.94,2.94,0,0,0-.61.11,2.3,2.3,0,0,1-.38.08c-.05,0-.13,0-.13-.08s.06-.11.21-.21a11.7,11.7,0,0,0,1.06-.75.33.33,0,0,0,.11-.21.34.34,0,0,0-.07-.22,1.89,1.89,0,0,0-1.69-.87,2.45,2.45,0,0,0-.68.1,1.68,1.68,0,0,1-.25.08c-.07,0-.11,0-.11-.08A.28.28,0,0,1,1159,92.75Z"/><path class="cls-3" d="M1176.15,99a8,8,0,0,0,3,1.71,15.3,15.3,0,0,0,4.05.7c.08,0,0,.21-.05.23-.52.13-.7.32-.87.91s-.2.56-.36.56a3,3,0,0,1-.72-.16A11.66,11.66,0,0,1,1179,102a10.09,10.09,0,0,1-3-2.66c.13,1.94.21,3,.21,3.54s-.29.64-1,.64c-.45,0-.64-.18-.64-.53s0-1.41.13-2.69a13.86,13.86,0,0,1-6.34,2.8c-.08,0-.17-.14-.09-.17a14,14,0,0,0,5.74-4h-4.16a8.21,8.21,0,0,0-1.12.09l-.18-.59a6,6,0,0,0,1.24.13h4.89V97h-2.75v.23c0,.38-.26.56-.89.56-.44,0-.61-.16-.61-.47,0-.62.08-1.25.08-3.77,0-.58,0-1.16-.07-1.73a12.25,12.25,0,0,1,1.64.68h6.81c.58-.64.71-.73.84-.73s.28.09.89.59c.27.24.37.35.37.48s-.06.24-.5.51v.61c0,1.63.07,2.75.07,3.12s-.26.58-1,.58c-.36,0-.54-.13-.54-.43V97h-3v1.62h4.24c.8-.9,1-1,1.11-1s.32.12,1.05.71c.32.26.45.41.45.52s0,.16-.21.16Zm2-8.25c0,.36,0,.61,0,.72,0,.34-.27.52-.87.52-.43,0-.64-.13-.64-.45,0-.08,0-.34,0-.79h-2.8c0,.37,0,.63,0,.74,0,.37-.28.53-.84.53s-.66-.15-.66-.48c0-.1,0-.35,0-.79h-2.82a6.73,6.73,0,0,0-1,.1l-.18-.59a6.21,6.21,0,0,0,1.18.13h2.84v-.52a7.71,7.71,0,0,0-.08-1.18c1.85.19,2,.24,2,.46s-.14.26-.51.4v.84h2.8a15.15,15.15,0,0,0,0-1.7c1.73.21,2,.25,2,.48s-.11.22-.46.38v.84h2c.72-.87.91-1,1-1s.33.13,1.12.71c.35.25.48.38.48.49s0,.16-.21.16Zm-6.37,2.13V94.5h2.75V92.83Zm0,2v1.72h2.75V94.87Zm4.18-.37h3V92.83h-3Zm0,2.09h3V94.87h-3Z"/><path class="cls-3" d="M1195.48,99.65c0,1,0,1.31,0,1.92a1.64,1.64,0,0,1-.31,1.07,1.75,1.75,0,0,1-1.47.57c-.43,0-.48-.13-.59-.5-.18-.59-.8-.82-2-1.12-.08,0-.08-.26,0-.24.75.08,1.93.14,2.54.14.23,0,.28,0,.28-.22V95.92h-4.71a13.14,13.14,0,0,0-1.54.1l-.17-.59a12.15,12.15,0,0,0,1.69.12H1194V94.11a9.63,9.63,0,0,0,0-1.2c.68.11,1.15.19,1.47.26a10.24,10.24,0,0,0,2.26-2.85h-7a5.53,5.53,0,0,0-1.2.13l-.18-.63a6.64,6.64,0,0,0,1.31.13h7.05c.67-.65.83-.73,1-.73s.32.08,1.05.75c.35.33.43.41.43.54s0,.24-.81.4a12.92,12.92,0,0,1-3.31,2.4c.09,0,.09.1.09.18s-.14.29-.56.46v1.6h3.7c.93-1.16,1.12-1.29,1.23-1.29s.32.13,1.27.89c.43.36.56.5.56.61s0,.16-.21.16h-6.55Z"/><path class="cls-3" d="M1211.47,96a1.44,1.44,0,1,1-1.44-1.44A1.43,1.43,0,0,1,1211.47,96Z"/><path class="cls-3" d="M1225.91,97.62a7.8,7.8,0,0,0,2.87,2.3,11.22,11.22,0,0,0,4,1.12c.08,0,.08.16,0,.18a1.37,1.37,0,0,0-1,1c-.08.3-.19.47-.33.47a1.83,1.83,0,0,1-.57-.18,11,11,0,0,1-3-1.81,10,10,0,0,1-2.22-2.86c.08,2.17.16,4.46.16,4.91s-.34.59-1,.59-.67-.13-.67-.51.08-2.35.12-4.07a12.76,12.76,0,0,1-6.53,3.83c-.08,0-.17-.18-.09-.21a14.17,14.17,0,0,0,5.74-4.8h-4.06a8.42,8.42,0,0,0-1.23.1l-.18-.6a7.68,7.68,0,0,0,1.41.13h4.9V95.19h-3v0c0,.43-.26.61-.87.61-.43,0-.62-.13-.62-.47,0-.65.09-1.31.09-4,0-.78,0-1.58-.09-2.38a11.15,11.15,0,0,1,1.62.7h7.29c.55-.51.68-.61.8-.61s.29.1.85.56c.26.23.35.34.35.47s-.08.22-.43.41v.77c0,2,.07,3.44.07,3.91s-.29.57-.87.57-.65-.12-.65-.56v0h-3.09v2.06h4c.73-.88.92-1,1-1s.33.13,1.12.71c.35.27.48.4.48.51s0,.16-.21.16Zm-1.61-7.54h-3v2.18h3Zm0,2.54h-3v2.2h3Zm4.53-.36V90.08h-3.09v2.18Zm0,2.56v-2.2h-3.09v2.2Z"/><path class="cls-3" d="M1241.27,96.45c.66-.16,1.27-.35,1.79-.53.08,0,.13.13.07.18a15.53,15.53,0,0,1-1.84,1.13c0,2.76,0,4.66,0,5.5,0,.51-.22.71-.91.71-.49,0-.65-.15-.65-.54,0-.75,0-2.42.06-5-.47.19-1,.39-1.52.58,0,.42-.15.58-.34.58s-.38-.34-.8-1.93a7.41,7.41,0,0,0,1.44-.12l1.22-.23c0-1.69,0-2.78,0-3.89h-1.15a10.07,10.07,0,0,1-1.57,3c0,.06-.21,0-.18,0a20.54,20.54,0,0,0,.8-4,16.4,16.4,0,0,0,.13-1.78c1.35.36,1.8.52,1.8.72s-.12.23-.5.34c-.1.45-.21.9-.35,1.34h1V91.09c0-1.44,0-1.71-.06-2.42,1.93.22,2.06.27,2.06.51s-.13.26-.56.45v2.91h.15c.46-.67.65-.8.76-.8s.29.13.77.58c.18.16.31.32.31.43s0,.16-.21.16h-1.78Zm5.8-4a9.91,9.91,0,0,1-5.32,6.76c-.08,0-.17-.11-.11-.16a12.41,12.41,0,0,0,3.91-6.6h-.93a10.13,10.13,0,0,1-2.37,2.85c-.07,0-.19-.06-.15-.12a14,14,0,0,0,1.81-4.17,10.73,10.73,0,0,0,.42-2.35c1.66.24,2.16.39,2.16.64s-.16.29-.61.4a16.16,16.16,0,0,1-1.06,2.39h4.89c.61-.68.73-.77.86-.77s.29.09.9.59c.27.22.37.34.37.47s0,.15-.5.49c-.19,5.39-.4,7.36-1,8.93a2.22,2.22,0,0,1-.75,1.08,2.25,2.25,0,0,1-1.32.4c-.27,0-.28,0-.36-.37-.15-.64-.64-1-1.78-1.3-.08,0-.06-.24,0-.24l1.85.1c.9,0,.9,0,1.17-1.24a43.79,43.79,0,0,0,.64-7.78h-.33c-.92,5.05-2.93,7.9-6.86,9.69-.08,0-.17-.15-.11-.19,3-2.15,4.74-5.13,5.46-9.5Z"/><path class="cls-3" d="M1261.07,96a1.44,1.44,0,1,1-1.45-1.44A1.43,1.43,0,0,1,1261.07,96Z"/><path class="cls-3" d="M1270.13,97a13.59,13.59,0,0,1-2.6,1.92c-.07,0-.23-.11-.16-.16a12.24,12.24,0,0,0,3.07-4.36,8.35,8.35,0,0,0,.56-1.74c1.63.54,2,.77,2,1s-.21.35-.67.41a13.82,13.82,0,0,1-1.25,1.87c.73.12.85.18.85.34s-.1.22-.44.38v1c0,2.65,0,4.49,0,5.09s-.32.65-.91.65c-.42,0-.68-.08-.68-.49s.16-2,.16-4.79Zm7.29-5.86c0,.54,0,.91,0,1.07,0,.35-.27.51-.88.51-.43,0-.62-.11-.62-.43,0-.11,0-.45,0-1.15h-2.77c0,.49,0,.83,0,1,0,.38-.29.53-.86.53s-.64-.13-.64-.48c0-.13,0-.45,0-1h-2.94a6.6,6.6,0,0,0-1,.09l-.18-.59a5.51,5.51,0,0,0,1.19.13h3v-.4a8.5,8.5,0,0,0-.08-1.68c1.84.19,2,.24,2,.46s-.13.26-.49.4V90.8H1276a17.41,17.41,0,0,0,0-2.08c1.73.21,2,.26,2,.5s-.12.2-.47.36V90.8h2.1c.72-.85.91-1,1-1s.34.13,1.09.69c.34.26.47.39.47.5s0,.16-.21.16Zm-1.28,6.34a12.52,12.52,0,0,0,2.13-1.86,7,7,0,0,0,1.2-1.74c1.32.73,1.87,1.12,1.87,1.36s-.16.32-.74.28a15,15,0,0,1-4.46,2.47v2.85c0,.67.24.77,2,.77a3.38,3.38,0,0,0,2-.34c.35-.27.55-.85.91-2.27,0-.08.21,0,.21,0,0,.61,0,1.17,0,1.66s0,.44.21.5c.51.22.63.34.63.69s-.31.72-1,.91a11.49,11.49,0,0,1-2.93.26c-3.07,0-3.58-.31-3.58-2.1,0-.42,0-.85,0-2.56,0-1.86,0-3.71-.06-5.57,1.77.19,2.14.25,2.14.48s-.17.32-.54.45Z"/><path class="cls-3" d="M1293.05,91.42h-4.79a10.24,10.24,0,0,0-1.23.1l-.18-.59a8.76,8.76,0,0,0,1.41.13h4.79v-.85a14.91,14.91,0,0,0-.08-1.52c1.66.16,2.06.25,2.06.49s-.12.28-.49.47v1.41h4c.77-1,1-1.08,1.08-1.08s.33.13,1.1.77c.35.29.48.4.48.51s0,.16-.21.16h-6.43v2h3.31c.54-.53.67-.62.8-.62s.29.09.85.56c.26.22.35.34.35.46s0,.21-.43.42v.51c0,1.35.06,2.26.06,2.56s-.27.58-.86.58-.64-.13-.64-.56V97h-3.31a8.53,8.53,0,0,0,2.67,2.54,13.09,13.09,0,0,0,4.4,1.59c.08,0,.06.16,0,.17-.64.18-.86.37-1.2,1.14-.09.21-.16.27-.28.27a2.71,2.71,0,0,1-.66-.27,10.24,10.24,0,0,1-2.61-1.76,11.7,11.7,0,0,1-2.43-3.28V99.3c0,1.18,0,2.37,0,3.55,0,.45-.3.66-.88.66s-.74-.18-.74-.59.1-2.58.15-4.39a14.58,14.58,0,0,1-6.47,4.23c-.08,0-.18-.13-.11-.16a15.68,15.68,0,0,0,5.79-5.57h-2.43v.28c0,.44-.26.61-.88.61-.42,0-.59-.14-.59-.48s.08-.81.08-2.48a22.17,22.17,0,0,0-.1-2.29,10.23,10.23,0,0,1,1.62.72h3Zm0,2.34h-3.17v2.9h3.17Zm4.93,2.9v-2.9h-3.44v2.9Z"/><path class="cls-3" d="M1306.15,88.37a11.17,11.17,0,0,1,3.23,3.45,8.11,8.11,0,0,1,0,8.36,11.07,11.07,0,0,1-3.21,3.44c-.12.08-.16.1-.21.1s-.08,0-.08-.1,0-.1.14-.21a9.92,9.92,0,0,0-.06-14.88c-.07-.07-.08-.1-.08-.15s0-.09.11-.09S1306.07,88.32,1306.15,88.37Z"/><rect class="cls-3" x="996.47" y="131.5" width="9.19" height="9.19" transform="translate(196.97 747.72) rotate(-45)"/><rect class="cls-3" x="996.47" y="169.12" width="9.19" height="9.19" transform="translate(170.37 758.74) rotate(-45)"/><path class="cls-3" d="M384.68,174.48a10,10,0,0,1-6.08,3.81c-.08,0-.18-.18-.1-.21a10.42,10.42,0,0,0,4.89-4.18c1.12-2,1.37-4.32,1.37-8.35,0-.53,0-.82-.05-1.35,1.8.19,2.21.31,2.21.53s-.11.3-.56.46c0,1.27-.05,2.36-.11,3.3a8.64,8.64,0,0,0,2.67,5.78,9.93,9.93,0,0,0,4.36,2.24c.08,0,.08.18,0,.19-.4.05-.79.5-1.06,1.19-.11.25-.16.3-.3.3a2.12,2.12,0,0,1-.93-.35,11.48,11.48,0,0,1-3.19-2.93,9.67,9.67,0,0,1-1.66-4.9A9.21,9.21,0,0,1,384.68,174.48Zm-2.49-5.4c0,1.88-.74,2.77-1.69,2.77a.87.87,0,0,1-.94-.85,1.26,1.26,0,0,1,.72-1.12,3,3,0,0,0,1.57-2.51c0-.08.16-.06.18,0A10,10,0,0,1,382.19,169.08Zm8.94-.33a11.85,11.85,0,0,1-3.65,2.81c-.06,0-.17-.11-.12-.17a14.79,14.79,0,0,0,1.84-2.79,9.88,9.88,0,0,0,.64-1.58c1.82.93,2.08,1.1,2.08,1.34S391.74,168.68,391.13,168.75Z"/><path class="cls-3" d="M403.31,169.24c.41-.46.54-.56.67-.56s.27.1.85.6c.24.22.33.35.33.48s-.16.28-.53.38a9.55,9.55,0,0,1-7,3.83c-.08,0-.14-.2-.06-.23a12.25,12.25,0,0,0,3.61-1.84.36.36,0,0,1-.14,0c-.27,0-.38-.11-.51-.53a1.56,1.56,0,0,0-.53-.83,13.79,13.79,0,0,1-2.31,1.15c-.08,0-.19-.16-.12-.21a11.19,11.19,0,0,0,2.78-2.69,3.38,3.38,0,0,0,.51-1h-1.55a7.82,7.82,0,0,0-1.09.09l-.17-.59a6.46,6.46,0,0,0,1.29.13h10c.75-.83.94-1,1.05-1s.32.13,1,.67c.3.26.43.38.43.5s-.05.16-.21.16H401.19c1.22.33,1.41.44,1.41.62s-.14.26-.57.29l-.45.49Zm4.25-3.55c0,.37,0,.62,0,.74,0,.37-.27.53-.86.53-.4,0-.58-.13-.58-.44,0-.11,0-.37,0-.83h-2.81c0,.38,0,.66,0,.79,0,.33-.27.51-.8.51s-.66-.15-.66-.47c0-.11,0-.37,0-.83h-2.87a6.44,6.44,0,0,0-1.07.1l-.18-.6a6.36,6.36,0,0,0,1.28.13H402v-.4a8.41,8.41,0,0,0-.05-1.18c1.81.16,2,.21,2,.43s-.14.27-.53.38v.77h2.81v-.25a12.08,12.08,0,0,0-.07-1.35c1.54.15,2,.23,2,.45s-.12.26-.48.4v.75h2c.8-.91,1-1,1.1-1s.32.13,1.09.74c.34.27.46.4.46.51s0,.16-.2.16Zm-4,9.17a3.6,3.6,0,0,1-1.14,2.26,7.46,7.46,0,0,1-4.33,1.52c-.08,0-.18-.21-.1-.24,2-.7,2.87-1.23,3.57-2.34a3.32,3.32,0,0,0,.45-1.2h-2.82a6.66,6.66,0,0,0-1.09.1l-.17-.59a7,7,0,0,0,1.28.12H402a6.25,6.25,0,0,0,0-.64c0-.28,0-.46,0-.86,1.92.26,2.06.32,2.06.53s-.16.29-.51.43v.54h2.5c0-.4,0-.78-.08-1.37,1.52.14,2,.25,2,.48s-.13.25-.45.38v.51h2.07c.78-.84,1-1,1.09-1s.33.13,1.05.67c.34.27.47.4.47.51s0,.16-.21.16h-4.47c0,1.54.08,2.61.08,3s-.29.64-.93.64-.67-.18-.67-.58.05-1.18.05-3v-.08Zm-2.32-5.25c-.32.29-.66.56-1,.82,1,.08,1.47.35,1.47.85a.62.62,0,0,1-.06.3,7.67,7.67,0,0,0,1.68-2Zm5.84.59a12.13,12.13,0,0,0,1.83-1.08,4.57,4.57,0,0,0,.92-.84c1.08.76,1.4,1,1.4,1.17s-.15.27-.77.21a13.43,13.43,0,0,1-3.38,1v.61c0,.48.16.53,1.57.53,1.06,0,1.47,0,1.79-.24a3.87,3.87,0,0,0,.88-1.38c0-.08.16-.06.16,0,0,.32-.09.78-.09,1s0,.21.19.29a.64.64,0,0,1,.4.56c0,.33-.22.56-.74.72a9.6,9.6,0,0,1-2.54.22c-2.48,0-2.95-.27-2.95-1.58,0-.15,0-.31,0-.92,0-.8,0-1.6-.08-2.41,1.7.17,1.87.22,1.87.48s0,.17-.48.38Z"/><path class="cls-3" d="M419.74,172.4a13.29,13.29,0,0,1-.28,1.66,7.29,7.29,0,0,1-2.56,4.26c-.06.05-.19-.06-.16-.13a10.8,10.8,0,0,0,1.38-4.18,45.32,45.32,0,0,0,.26-5.79c0-1.95-.05-3.06-.12-4.05a7.65,7.65,0,0,1,1.81.9h8.47c.66-.66.78-.76.91-.76s.29.1.88.56c.28.24.37.36.37.48s-.05.2-.43.47v1.76c0,7.38.06,7.95.06,9,0,.82-.19,1-.57,1.32a2.39,2.39,0,0,1-1.24.38c-.27,0-.32-.14-.36-.43-.13-.72-.6-.88-1.81-1.2-.08,0-.08-.2,0-.2.75.07,1.39.08,2.08.08.22,0,.27-.06.27-.27V172.4H425c0,2,0,4,0,4.78,0,.48-.27.66-.93.66-.51,0-.7-.18-.7-.64,0-.22,0-.94,0-2.37V172.4Zm.19-3.59c0,1.07-.07,2.15-.16,3.22h3.66v-3.22Zm3.5-.37v-3H420v.75c0,.75,0,1.5,0,2.25Zm5.27-3H425v3h3.71Zm0,3.37H425V172h3.71Z"/><path class="cls-3" d="M445,177.47h.47a22,22,0,0,0,1.06-2.13,6.58,6.58,0,0,0,.33-1.07c1.46.46,1.81.62,1.81.85s-.08.22-.59.33a10.19,10.19,0,0,1-2.24,2h2.19c.72-1,.91-1.12,1-1.12s.32.13,1.16.79c.39.3.52.43.52.54s0,.16-.21.16h-13.3a7.23,7.23,0,0,0-1.14.1l-.18-.6a6.09,6.09,0,0,0,1.25.13h4v-3.76h-3.52a5.94,5.94,0,0,0-1,.1l-.18-.6a5.12,5.12,0,0,0,1.15.13H447.8c.66-.77.85-.89,1-.89s.33.12,1,.62c.32.24.44.37.44.48s0,.16-.2.16h-5Zm3.48-11.11c.53-.64.66-.73.78-.73s.31.06,1.11.76c.37.34.41.52.41.65s-.2.28-.78.28a.7.7,0,0,0-.53.24,6.85,6.85,0,0,1-.91.68c-.06,0-.16,0-.13-.08a6.48,6.48,0,0,0,.31-1.43H444v.18c0,1.37,0,3.09,0,3.65,0,.33-.37.56-.88.56s-.76-.19-.76-.58c0-.22.08-.91.08-2.3v-1.51H438c.06,1.07-.31,2.1-1.11,2.1a.79.79,0,0,1-.78-.87c0-.33.1-.49.48-.73a1.81,1.81,0,0,0,1-1.59.08.08,0,0,1,.16,0,4,4,0,0,1,.21.75h4.51V165h-3a8.9,8.9,0,0,0-1.26.1l-.18-.6a7.68,7.68,0,0,0,1.41.13h7.25c.72-.81.91-.94,1-.94s.34.13,1.06.65c.34.26.46.39.46.5s0,.16-.2.16h-5v1.39Zm-8.69,3.44c.49-.65.69-.78.8-.78s.32.13.86.56c.23.18.35.32.35.43s0,.16-.2.16h-3.06a3.79,3.79,0,0,0-.82.1l-.17-.59a3.74,3.74,0,0,0,.92.12Zm-.29,7.22c-.4,0-.5-.13-.69-1a2.78,2.78,0,0,0-.94-1.61c-.07,0,0-.13.09-.12,1.7.37,2.36.85,2.36,1.75A.86.86,0,0,1,439.53,177Zm6.66-5.33c.61-.72.8-.84.91-.84s.34.12.93.59c.29.22.42.35.42.46s-.05.16-.21.16H439.3a6.87,6.87,0,0,0-1.1.1l-.17-.6a6,6,0,0,0,1.24.13Zm-6.15-3.6c.45-.57.64-.7.75-.7s.31.13.74.49c.16.15.29.31.29.42s-.05.16-.21.16h-2.43a3.63,3.63,0,0,0-.8.1l-.18-.6a3.73,3.73,0,0,0,1,.13Zm3.65,5.62h-1.17v3.76h1.17Zm2.72-5.62c.45-.61.64-.74.75-.74s.29.13.72.52a.68.68,0,0,1,.29.43c0,.11-.05.16-.21.16h-2.43a4.28,4.28,0,0,0-.86.1l-.18-.6a4,4,0,0,0,1,.13Zm.56,1.71c.53-.65.72-.78.83-.78s.32.13.87.54c.24.21.37.34.37.45s-.05.16-.21.16h-3.19a5,5,0,0,0-.94.1l-.18-.59a5.07,5.07,0,0,0,1.08.12Z"/><path class="cls-3" d="M458.49,169.37c1.09.45,1.7,1.09,1.7,1.84a.72.72,0,0,1-.68.79c-.25,0-.41-.21-.48-.64a3.86,3.86,0,0,0-.54-1.62c0,3.06.06,7,.06,8.26,0,.38-.36.51-.88.51s-.57-.13-.57-.45c0-.81.11-4.17.12-7.07a8.17,8.17,0,0,1-2.19,3.57c-.06.06-.17,0-.14-.1A22.8,22.8,0,0,0,457,167.9h-.54a6.44,6.44,0,0,0-1.07.1l-.18-.6a5.49,5.49,0,0,0,1.18.13h.79v-1.71a19.12,19.12,0,0,0-.08-2c1.71.18,2,.24,2,.5s-.16.28-.56.44v2.79c.42-.78.61-.91.72-.91s.29.13.77.65c.21.23.33.39.33.5s0,.16-.2.16h-1.62Zm9,7.65c.7-.84.89-1,1-1s.33.13,1.07.68c.34.26.46.39.46.5s0,.16-.2.16h-7.88v.47c0,.4-.22.57-.86.57s-.66-.17-.66-.45c0-1.47.08-3.1.08-9,0-1.64,0-3.29-.08-4.93.82.41.94.48,1.73.91h5.34c.77-.9.9-1,1-1s.29.09,1,.67c.33.3.43.41.43.54s-.06.15-.24.15h-7.78V177Zm-1-8.88c.59-.67.72-.77.85-.77s.3.08.93.59c.32.26.38.39.38.52s-.13.28-.58.46a18.13,18.13,0,0,1-1.26,2.88,5,5,0,0,0,1.15,1.31,7,7,0,0,0,2.34,1.24c.08,0,.05.16,0,.17a1.26,1.26,0,0,0-.93.91c-.08.29-.11.32-.26.32a1,1,0,0,1-.43-.24,5.05,5.05,0,0,1-1.31-1.45,7.12,7.12,0,0,1-.85-1.75,9.57,9.57,0,0,1-4.29,3.72c-.08,0-.16-.18-.1-.23a12.51,12.51,0,0,0,4.53-7.31h-1.66a9,9,0,0,1-2.72,3.65c-.07.05-.19,0-.15-.11a16.82,16.82,0,0,0,1.88-4.58,12.18,12.18,0,0,0,.25-1.51c1.81.48,1.88.55,1.88.76s-.1.25-.55.35c-.14.38-.29.73-.43,1.07Z"/><path class="cls-3" d="M480.81,166.31h-4.64a9.79,9.79,0,0,0-1.22.1l-.17-.59a8.45,8.45,0,0,0,1.39.13h4.64a18.52,18.52,0,0,0-.11-2.2c1.89.2,2,.23,2,.5s-.13.26-.51.42V166H486c.76-.9.95-1,1.06-1s.34.13,1.12.72c.35.27.48.4.48.51s-.05.16-.21.16h-6.27V168h3c.56-.64.69-.74.82-.74s.28.1.89.6c.27.24.37.35.37.48s-.1.29-.49.54v.74c0,1.93.06,3.28.06,3.71s-.22.59-.9.59c-.4,0-.59-.12-.59-.51v-.24h-3.09c0,.63,0,1.23,0,1.86h4c.77-.95,1-1.07,1.07-1.07s.34.12,1.17.75c.39.29.51.41.51.53s0,.16-.2.16h-6.58c0,1.2,0,2.08,0,2.57s-.31.61-.93.61c-.46,0-.67-.16-.67-.54s0-1.32.05-2.64H476a10.16,10.16,0,0,0-1.24.09l-.17-.59A7.48,7.48,0,0,0,476,175h4.79c0-.39,0-1.23,0-1.86h-2.9v.29c0,.45-.24.62-.9.62-.44,0-.6-.17-.6-.51,0-.77.08-1.58.08-4.69a15.62,15.62,0,0,0-.08-1.66,13.34,13.34,0,0,1,1.68.78h2.75Zm-2.93,2.07v2h2.91c0-.4,0-.8,0-1.18v-.77Zm2.9,4.43c0-.62,0-1.57,0-2.11h-2.91v2.11Zm1.44-4.43c0,.66,0,1.3,0,2h3.11v-2Zm3.12,4.43V170.7h-3.11c0,.51,0,1.49,0,2.11Z"/><path class="cls-3" d="M1028.49,167.47a9.57,9.57,0,0,0,1.48.13h5.33c.81-1,1-1.09,1.11-1.09s.32.13,1.1.75c.35.29.48.43.48.54s0,.16-.21.16H1030a12.59,12.59,0,0,0-1.38.1Zm12.46,3.2c0,3,0,4.93,0,6.13a1.43,1.43,0,0,1-.36,1.07,2,2,0,0,1-1.52.47c-.3,0-.38-.08-.41-.36-.1-.64-.58-.92-2-1.18-.1,0-.1-.24,0-.24.94,0,1.66.06,2.44.06.18,0,.26-.08.26-.25V165.32h-9.06a4.88,4.88,0,0,0-1.23.15l-.18-.64a8.13,8.13,0,0,0,1.38.12h8.88c.63-.68.75-.78.88-.78s.31.1,1,.62c.3.24.4.36.4.48s-.05.17-.47.52Zm-9.73,3.57v.86c0,.48-.35.64-.88.64s-.67-.17-.67-.54,0-.95,0-2.67c0-1.09,0-2.18-.07-3.29a17.66,17.66,0,0,1,1.69.84h3.29c.59-.63.72-.72.85-.72s.29.09.91.59c.29.24.39.35.39.48s-.08.24-.47.51v.62c0,1.64,0,2.81,0,3.17,0,.52-.3.69-.9.69s-.64-.16-.64-.57v-.61Zm3.6-3.8h-3.6v3.43h3.6Z"/><path class="cls-3" d="M1046.73,171.48c-.08,0-.18-.12-.12-.17a16.6,16.6,0,0,0,5.13-5.2,13.06,13.06,0,0,0,1.12-2.44c2.25.61,2.27.63,2.27.82s-.13.22-.71.38a11.62,11.62,0,0,0,3.67,3.4,11.76,11.76,0,0,0,3.76,1.29c.08,0,.08.21,0,.21-.51,0-.86.45-1.1,1.31-.07.23-.15.31-.27.31a2.39,2.39,0,0,1-.76-.32,13.15,13.15,0,0,1-5.5-5.89A14.05,14.05,0,0,1,1046.73,171.48Zm7,1.46a18.1,18.1,0,0,1-2.53,3.55c2,0,4-.09,6-.2a6.57,6.57,0,0,0-1.57-2.07c-.06-.05,0-.19.1-.16,2.3.85,3.67,2,3.67,3.14a1,1,0,0,1-.89,1.09c-.46,0-.56-.11-1-1.15-.06-.16-.11-.31-.17-.45a55.57,55.57,0,0,1-8.25,1.34c-.11.48-.19.61-.38.61s-.26,0-.85-2.23a17.65,17.65,0,0,0,2.07.08h.59a19.08,19.08,0,0,0,1.06-3.55h-2.8a7.12,7.12,0,0,0-1.13.1l-.17-.59a7.21,7.21,0,0,0,1.3.12h9.47c.77-1,1-1.09,1.07-1.09s.32.13,1.09.76c.35.29.48.43.48.54s-.05.16-.21.16Zm1.1-3.09c.71-.88.9-1,1-1s.31.13,1,.71c.31.25.44.4.44.51s0,.16-.21.16h-5.52a5.12,5.12,0,0,0-1,.1l-.18-.6a5.26,5.26,0,0,0,1.16.13Z"/><path class="cls-3" d="M1069.62,175.05a2.42,2.42,0,0,0,1.52,1.35,13.37,13.37,0,0,0,3.64.37,50.92,50.92,0,0,0,6.14-.4c.08,0,.08.14,0,.17a1,1,0,0,0-.62.9c0,.5-.08.54-.39.58-.85.11-2.75.14-3.9.14-2.63,0-4.21-.21-5.24-.85a3.87,3.87,0,0,1-1.62-2.34,11.62,11.62,0,0,1-1.84,2.41c.05.6,0,.73-.27.73s-.59-.57-1.18-2a6.1,6.1,0,0,0,1.07-.39,6.58,6.58,0,0,0,1.18-.65v-4.27H1067a3.35,3.35,0,0,0-.88.12l-.18-.64a4,4,0,0,0,1.06.15h1c.56-.64.69-.74.82-.74s.28.1.88.56c.27.22.36.34.36.47s0,.22-.48.51Zm-.94-7.74c-.37,0-.56-.19-.79-1a4.65,4.65,0,0,0-1-1.87c-.06-.06.05-.16.13-.14,1.87.46,2.56,1.23,2.56,2A.87.87,0,0,1,1068.68,167.31Zm4.27,8.19c0,.4-.27.56-.81.56s-.64-.14-.64-.51.06-1.54.06-3.84v-3.12a13.18,13.18,0,0,1-1.54,1.23c-.06.05-.19-.08-.14-.14a13.4,13.4,0,0,0,2.37-4,8.74,8.74,0,0,0,.46-1.9c1.79.51,2,.59,2,.86s-.25.32-.67.39a12.88,12.88,0,0,1-1.15,2h2.34a16.62,16.62,0,0,0,.6-1.87,12,12,0,0,0,.23-1.2c1.41.45,2,.74,2,.93s-.18.29-.72.35a8.5,8.5,0,0,1-1.67,1.79h2.51c.6-.78.79-.91.9-.91s.32.13,1,.64c.29.23.42.37.42.48s0,.16-.21.16h-3.7v2h1.22c.54-.75.73-.88.85-.88s.32.13.93.61c.27.23.39.37.39.48s0,.16-.2.16h-3.19v2.16h1.25c.54-.75.74-.88.85-.88s.32.13.93.63c.25.21.38.35.38.46s0,.16-.21.16h-3.2v2.47h1.54c.67-.92.86-1,1-1s.33.12,1.06.73c.32.26.45.4.45.51s0,.16-.21.16H1073Zm2.26-6.1v-2H1073v2Zm-2.26,2.53h2.26v-2.16H1073Zm0,2.84h2.26V172.3H1073Z"/><path class="cls-3" d="M1087.41,171.58a13.08,13.08,0,0,1-2,1.31c-.06,0-.21-.12-.14-.19a17.12,17.12,0,0,0,2.89-3.55,8.69,8.69,0,0,0,.85-1.81c1.62.77,1.84.9,1.84,1.1s-.19.34-.67.34a18.73,18.73,0,0,1-1.45,1.66c.49.1.57.16.57.31s-.09.24-.43.38v6.73c0,.46-.27.67-.83.67-.37,0-.69-.15-.69-.61s.09-1.68.09-4.21Zm2.49-6.43a11.5,11.5,0,0,1-4.45,3.52c-.09,0-.18-.13-.12-.18a15.35,15.35,0,0,0,2.55-3,7,7,0,0,0,.88-1.77c1.41.64,1.89.94,1.89,1.16S1090.5,165.15,1089.9,165.15Zm6.88,8.1c0,1.16,0,2.33,0,3.5a1.56,1.56,0,0,1-.4,1.12,2.12,2.12,0,0,1-1.49.5c-.32,0-.34,0-.4-.37-.11-.64-.53-.85-2-1.22-.08,0-.07-.25,0-.25.74,0,1.78.11,2.37.11.29,0,.36-.08.36-.34v-6.8h-3.49a6,6,0,0,0-1,.1l-.17-.6a5.53,5.53,0,0,0,1.2.13h5.58c.8-.91,1-1,1.11-1s.32.13,1.07.72c.34.27.46.42.46.53s0,.16-.2.16h-3Zm-.29-8c.8-.89,1-1,1.1-1s.32.13,1.09.72c.34.27.47.4.47.51s-.05.16-.21.16h-6.6a6,6,0,0,0-1,.1l-.17-.59a6.32,6.32,0,0,0,1.21.12Z"/><path class="cls-1" d="M42.22,34.32a2.08,2.08,0,0,0-.84.33,1.4,1.4,0,0,1-.7.17c-.41,0-.86-.31-1.44-1s-.79-1.13-.79-1.68.12-.72.26-.72.22.09.41.29a2.24,2.24,0,0,0,2.09,1c.6,0,1.17,0,1.77-.1,2.36-.22,4.76-.43,6.94-.7A2.12,2.12,0,0,0,51,31.51a1.06,1.06,0,0,1,.62-.29,2.37,2.37,0,0,1,1.57.7c.86.64,1.08,1,1.08,1.53a.78.78,0,0,1-.51.63,2.15,2.15,0,0,0-1,1.15,26.67,26.67,0,0,1-4.56,6.38,21.18,21.18,0,0,1-7.92,5.19,1.29,1.29,0,0,1-.36.07c-.22,0-.31,0-.31-.27s.12-.21.38-.38a24.9,24.9,0,0,0,6.79-5.95,36.91,36.91,0,0,0,3.75-6.12,2.06,2.06,0,0,0,.31-.82c0-.09-.12-.12-.24-.12s-.48,0-1,.1C47.16,33.57,44.35,33.91,42.22,34.32Zm15.24-4.64a2,2,0,1,1-2-2A2,2,0,0,1,57.46,29.68Zm-3.31,0a1.31,1.31,0,1,0,1.32-1.32A1.33,1.33,0,0,0,54.15,29.68Z"/><path class="cls-1" d="M68.9,34.24l6.48-.69a1.61,1.61,0,0,0,.85-.34,1.36,1.36,0,0,1,.69-.21,4,4,0,0,1,1.87,1.12c.53.48.58.7.58,1s-.26.43-.51.55-.47.31-.86,1A25.77,25.77,0,0,1,74.26,42a22.31,22.31,0,0,1-7.88,5.57,1.82,1.82,0,0,1-.52.15.23.23,0,0,1-.24-.25c0-.11.19-.21.33-.33a27.67,27.67,0,0,0,6.94-6.65,22.66,22.66,0,0,0,3-5,3.65,3.65,0,0,0,.17-.5c0-.08,0-.08-.17-.08a2.65,2.65,0,0,0-.38,0c-2.57.24-4.47.55-6.87,1a4.73,4.73,0,0,0-1.44.41,1.72,1.72,0,0,1-.77.24c-.38,0-.67-.12-1.32-.77A2.89,2.89,0,0,1,64.18,34c0-.41.12-.67.24-.67s.14,0,.36.24a2.31,2.31,0,0,0,1.94.89C67,34.44,68.06,34.34,68.9,34.24Zm1.16-4.58c.89-.12,1.87-.29,2.93-.53a6,6,0,0,0,1.08-.38,2.84,2.84,0,0,1,.93-.22c1.06,0,2.09.55,2.09,1.08a.72.72,0,0,1-.48.79,9.15,9.15,0,0,1-1.46.27c-1,.14-3.61.43-5.5.65-.48,0-.87.07-1.15.07-.87,0-1.35-.34-2.07-1.35a1.52,1.52,0,0,1-.33-1c0-.17,0-.26.14-.26s.14.07.26.17a3,3,0,0,0,2.26.84A12.94,12.94,0,0,0,70.06,29.66Z"/><path class="cls-1" d="M87.77,31.77c0-.12.09-.19.24-.19l.45,0a8.65,8.65,0,0,1,3.05,1A2.85,2.85,0,0,1,93.17,35a1.28,1.28,0,0,1-1.3,1.35,1.24,1.24,0,0,1-1.17-.89,8.54,8.54,0,0,0-1-1.73A6.45,6.45,0,0,0,87.94,32C87.82,31.94,87.77,31.87,87.77,31.77Zm3.5,10.9A46.44,46.44,0,0,0,97.92,38a50.23,50.23,0,0,0,5.64-5.85.5.5,0,0,1,.31-.22.21.21,0,0,1,.24.22.8.8,0,0,1-.14.41,31.78,31.78,0,0,1-5,6.72,54.79,54.79,0,0,1-6.41,5.61,3,3,0,0,0-.62.58A1.23,1.23,0,0,1,91,46c-.5,0-.81-.21-1.46-.91-1-1.1-1.34-1.73-1.34-2.23s.16-.91.38-.91.19.09.38.31c.53.55.87.89,1.11.89A2.92,2.92,0,0,0,91.27,42.67Z"/><path class="cls-1" d="M115.34,43.15a5.62,5.62,0,0,0-.14,1.34c0,.51.14,1.13.14,1.37,0,.67-.14,1.08-.67,1.08-.69,0-.91-.24-1.56-1.49a11.19,11.19,0,0,1-.79-4.49,29.21,29.21,0,0,1,1-6.74,14.79,14.79,0,0,0,.48-2.45,3.19,3.19,0,0,0-.62-1.89.38.38,0,0,1-.1-.24c0-.08.12-.2.34-.2a2.36,2.36,0,0,1,1.15.6,5.31,5.31,0,0,1,1.1,1.44,2.63,2.63,0,0,1,.41,1.32,1.29,1.29,0,0,1-.33.87A5,5,0,0,0,115,35a14.6,14.6,0,0,0-1.22,5.13,5.87,5.87,0,0,0,.26,2.43.1.1,0,0,0,.19,0c.75-1.42,1.49-3,2.16-4.42.1-.21.22-.29.34-.29s.24.15.12.51C116.26,40.24,115.61,42.09,115.34,43.15Zm3.82-2.83a3.86,3.86,0,0,0,.29,1.53c.41,1,1.54,1.78,4.1,1.78a14,14,0,0,0,3.12-.22,2.74,2.74,0,0,1,1-.26,3.83,3.83,0,0,1,1.39.38,1,1,0,0,1,.65.91,1,1,0,0,1-.75.94,13.18,13.18,0,0,1-4,.41c-4.08,0-6.46-1.68-6.46-4.63a5.51,5.51,0,0,1,.61-2.62c.12-.22.16-.26.26-.26s.14.09.14.24A8.22,8.22,0,0,0,119.16,40.32Zm.65-6.46a1.73,1.73,0,0,1-.51.19c-.19,0-.21-.07-.21-.21s.1-.22.29-.36a11.17,11.17,0,0,1,3-1.59,8.87,8.87,0,0,1,3.09-.5c2.19,0,2.86.77,2.86,1.41s-.43.89-1.47.89c-.31,0-.81-.07-1.12-.07a5.88,5.88,0,0,0-1.42.17,7,7,0,0,0-2.81,1.7.45.45,0,0,1-.31.15.16.16,0,0,1-.17-.17c0-.07,0-.15.17-.31.39-.48.91-1,1.66-1.88A7.41,7.41,0,0,0,119.81,33.86Z"/><path class="cls-1" d="M136.49,37.29c-.12.05-.24-.24-.15-.31,3.68-2.35,5.88-4.2,8-7.22a9.12,9.12,0,0,0,1.56-3.12c2.76.67,3.36.88,3.36,1.22s-.31.41-1,.48a15.88,15.88,0,0,0,4.58,4.06,16.69,16.69,0,0,0,6.43,2.28c.12,0,.1.26,0,.28-.74.2-1.08.75-1.49,1.8-.17.41-.21.56-.41.56a2.52,2.52,0,0,1-.91-.34,26.37,26.37,0,0,1-4.56-3.17,21.75,21.75,0,0,1-4-5.11A23.5,23.5,0,0,1,136.49,37.29Zm5.95,10.27V48c0,.67-.43,1-1.34,1-.72,0-1-.21-1-.84,0-1,.12-2.11.12-6.36,0-.46,0-.91-.05-1.37a21.28,21.28,0,0,1,2.52,1.13h5.95a22.47,22.47,0,0,0,2.19-4.15h-8.45a11.49,11.49,0,0,0-2,.19l-.26-.94a12.53,12.53,0,0,0,2.21.2h8.42c.87-1,1.06-1.11,1.25-1.11s.43.15,1.37.89c.43.36.57.53.57.72s-.21.43-.84.67a24.39,24.39,0,0,1-2,3.53h1c.92-.91,1.11-1.06,1.3-1.06s.46.15,1.37.82c.41.31.55.48.55.67s-.1.31-.72.72v.89c0,2.33.1,3.91.1,4.44s-.36.89-1.37.89c-.75,0-1-.19-1-.82v-.53Zm9.89-5.47h-9.89V47h9.89Zm-4.27-8.18c.79-1,1.08-1.23,1.25-1.23s.5.2,1.41.87c.41.31.6.5.6.67s-.07.24-.31.24h-5.88a8.57,8.57,0,0,0-1.39.14l-.27-.88a7.32,7.32,0,0,0,1.61.19Z"/><path class="cls-1" d="M168.84,34.44a3.33,3.33,0,0,1-3.17-1.92.73.73,0,0,1-.12-.32.24.24,0,0,1,.22-.21c.09,0,.12.05.21.14.58.63,1.52.87,3,.87a36.28,36.28,0,0,0,4.92-.56V30.09c0-.69,0-1-.21-1.2a1.47,1.47,0,0,0-.68-.29,4.21,4.21,0,0,0-.55-.09c-.09,0-.14-.05-.14-.17s.09-.26.29-.46a1.53,1.53,0,0,1,.95-.4,3.65,3.65,0,0,1,1.85.6c.87.5,1,.93,1,1.22a.9.9,0,0,1-.34.67,1.18,1.18,0,0,0-.46.91c0,.58-.09.89-.12,1.32.92-.14,1.66-.28,2.35-.43a5.33,5.33,0,0,0,1.37-.43,1.86,1.86,0,0,1,1.18-.24c.89,0,1.73.62,1.73,1.22s-.31.87-1.59,1c-1.63.14-3.57.33-5.11.55,0,1.15,0,2.33,0,3.6a10.36,10.36,0,0,0,2.09-.5c.33-.15.29-.32.1-.77a7.08,7.08,0,0,0-.56-.91c-.09-.22.05-.32.27-.15.43.31.91.63,1.32.87a1.36,1.36,0,0,0,.89.21c.72,0,1.12.31,1.12.87s-.52.72-1.29,1a19.39,19.39,0,0,1-3.89,1c0,1,.17,2.76.24,3.72a17.63,17.63,0,0,1,4.85,2.11c.77.46,1.44,1,1.44,1.9a1,1,0,0,1-.91,1.05,1.21,1.21,0,0,1-.89-.38,15.12,15.12,0,0,0-4.32-2.91c.12,2.19-1,3.58-3.75,3.58a5.48,5.48,0,0,1-3-.81A2.48,2.48,0,0,1,168,45.24a2.36,2.36,0,0,1,1.2-1.92,5.42,5.42,0,0,1,2.28-.72,14.42,14.42,0,0,1,2.57,0c0-1.13,0-2.28-.07-3.31-.63.05-1.54.05-1.94.05-2.38,0-3.44-.79-3.44-2a3.1,3.1,0,0,1,.91-2,9.35,9.35,0,0,1,1.18-.93C170.23,34.41,169.44,34.44,168.84,34.44Zm2.43,9.31a4.62,4.62,0,0,0-1.85.45,1.2,1.2,0,0,0-.6,1,1.33,1.33,0,0,0,.76,1.08,4.63,4.63,0,0,0,2.07.31,2.62,2.62,0,0,0,2-.67A2.94,2.94,0,0,0,174,44,8.93,8.93,0,0,0,171.27,43.75Zm-1-8.33a2,2,0,0,0-.68,1.32c0,.6.53,1.06,1.93,1.06a23.24,23.24,0,0,0,2.4-.15c0-1.27,0-2.28,0-3.55l-2.26.31A5,5,0,0,0,170.26,35.42Z"/><path class="cls-1" d="M196.18,43.77c0,.65,0,1.18,0,1.63C196.18,47,195.7,48,195,48c-.43,0-.72-.19-.84-.89a4.93,4.93,0,0,0-.41-1.56,8.82,8.82,0,0,0-1.65-2.16c-.51.67-.72,1-.87,1.18a1,1,0,0,1-.89.41c-.33,0-.67-.29-.67-1a2.32,2.32,0,0,1,.58-1.53l.48-.48a31.62,31.62,0,0,0,3.93-4.78c0-.74.05-1.34.08-1.94a13.53,13.53,0,0,0-2.31,1.2.62.62,0,0,1-.55.26,1,1,0,0,1-.7-.38,3.19,3.19,0,0,1-.91-1.8,1.92,1.92,0,0,1,.07-.58c0-.12.1-.17.2-.17s.21.15.33.34c.36.53.6.77,1.11.77a2.68,2.68,0,0,0,.91-.22c.69-.26,1.32-.55,1.92-.79.05-1.49.1-2.52.1-3.39,0-1.24-.2-1.53-1.33-1.92-.28-.09-.31-.14-.31-.24s.1-.19.24-.28a1.89,1.89,0,0,1,.87-.27,2.43,2.43,0,0,1,1.05.24A4,4,0,0,1,197,29.11a1,1,0,0,1,.22.65.76.76,0,0,1-.29.57,1.08,1.08,0,0,0-.34.75c-.05.57-.12,1.15-.17,2.32a1.06,1.06,0,0,1,.36-.09c.1,0,.24,0,.53.31a.91.91,0,0,1,.34.6c0,.17-.08.24-.27.48-.5.7-.81,1.1-1.15,1.63,0,.22,0,.53,0,.75a48.67,48.67,0,0,1,3.45-3.44,6.25,6.25,0,0,1,3.56-1.77,2.4,2.4,0,0,1,2.61,2.57,38,38,0,0,1-.36,3.91c-.26,2.28-.36,3.57-.36,4.2,0,1.39.24,2,1.27,2,1.61,0,3.36-1.61,4.56-3.67.1-.17.22-.48.39-.48a.3.3,0,0,1,.29.29,2.33,2.33,0,0,1-.12.45,9.09,9.09,0,0,1-2.09,3.7,4.72,4.72,0,0,1-3.29,1.51c-1.92,0-2.9-1-2.9-3.31,0-1.08.07-2.57.26-4.85.12-1.42.17-2.52.17-3.58,0-1.22-.27-1.68-1.11-1.68-.67,0-1.32.39-2.59,1.59a37.91,37.91,0,0,0-3.79,3.81C196.13,40.39,196.13,42.57,196.18,43.77ZM194,44c.4.2.6.12.6-.26V39.93c-.77,1-1.54,2.16-2.16,3A7.65,7.65,0,0,0,194,44Z"/><path class="cls-1" d="M222.7,38.61a7.51,7.51,0,0,1,4.87-2A6.1,6.1,0,0,1,231.82,38a4.63,4.63,0,0,1,1.58,3.43A5.46,5.46,0,0,1,231,46.2a8.33,8.33,0,0,1-4.75,1.41,6.1,6.1,0,0,1-3.32-.72,2.55,2.55,0,0,1-1.22-2.2,2.11,2.11,0,0,1,.84-1.71,3.16,3.16,0,0,1,2-.58,4.06,4.06,0,0,1,2.74,1.23,7.12,7.12,0,0,1,1.22,2,4,4,0,0,0,1.68-1.22,4.44,4.44,0,0,0,.87-2.91,3.59,3.59,0,0,0-3.89-3.79c-2.79,0-4.78,1.78-6.63,4.37-.48.67-.81,1-1.17,1a1.08,1.08,0,0,1-.7-.29,1.21,1.21,0,0,1-.43-.89,1.35,1.35,0,0,1,.45-1.08A98.88,98.88,0,0,0,227,31c.17-.24.27-.36.27-.48s-.12-.22-.29-.17a16.64,16.64,0,0,0-2.52,1c-.6.28-1,.48-1.37.69a1.42,1.42,0,0,1-1,.48,1.45,1.45,0,0,1-1.08-.57,3.16,3.16,0,0,1-.94-1.83c0-.36.22-.89.38-.89s.24.17.44.44c.4.52.69.69,1,.69a16.06,16.06,0,0,0,4.1-1,2.29,2.29,0,0,0,1.15-.62.9.9,0,0,1,.65-.31,4.07,4.07,0,0,1,2.16,1,1,1,0,0,1,.46.84.66.66,0,0,1-.39.63,5.24,5.24,0,0,0-.93.6,32.17,32.17,0,0,0-3.29,3.5c-1.11,1.27-2,2.19-3.15,3.55Zm2.78,5.4a2.25,2.25,0,0,0-1.51-.69,1.41,1.41,0,0,0-1.11.41,1.15,1.15,0,0,0-.24.76,1.46,1.46,0,0,0,.7,1.23,4.53,4.53,0,0,0,2.26.45,5.94,5.94,0,0,0,1-.07A4.37,4.37,0,0,0,225.48,44Z"/><path class="cls-1" d="M247,43.77a2.58,2.58,0,0,0,2.79,2.86,3.76,3.76,0,0,0,3-1.15,4.3,4.3,0,0,0,1-3,6.68,6.68,0,0,0-1.08-3.55,8.86,8.86,0,0,0-2.25-2.18c-.17-.12-.24-.22-.24-.34s.07-.17.19-.17a1.09,1.09,0,0,1,.36.1,9.45,9.45,0,0,1,3.48,2.21A6.14,6.14,0,0,1,256,42.6a4.76,4.76,0,0,1-1.41,3.62,6.77,6.77,0,0,1-4.44,1.59c-3.12,0-4.51-2-4.51-4.71,0-.5,0-1,.07-1.61a5.67,5.67,0,0,1-2.28-1.2,2.77,2.77,0,0,1-1-2.21c0-1.34.88-2.3,2.11-3.43a5.39,5.39,0,0,1-2.35-1.37,2.36,2.36,0,0,1-.75-1.6c0-.27.05-.41.17-.41s.17.09.34.36c.28.45,1,1,2.71,1.29a9,9,0,0,0,1.15.12,2.11,2.11,0,0,1,1,.34c.29-1.92.48-2.93.51-3.72s-.27-.94-1-1.37c-.24-.14-.34-.19-.34-.29s.12-.24.31-.36a1.6,1.6,0,0,1,.84-.16,5.21,5.21,0,0,1,2.36,1.15,1.49,1.49,0,0,1,.67,1.13.85.85,0,0,1-.41.74c-.15.1-.29.29-.46.82a65.4,65.4,0,0,0-1.89,8.4c.48,0,.77,0,1.22,0a1.77,1.77,0,0,1,.89.31,1,1,0,0,1,.38.84c0,.39-.38.75-.93.84a13,13,0,0,1-1.85.1C247.06,42.57,247,43.15,247,43.77Zm-.91-8.64a2.88,2.88,0,0,0-.86.29,4.75,4.75,0,0,0-1.2.82,2.07,2.07,0,0,0-.82,1.51c0,.91.62,1.61,2.74,1.85.21-1.68.4-3.12.62-4.54C246.46,35.08,246.34,35.11,246.12,35.13Z"/><path class="cls-1" d="M274.27,33.36a9.82,9.82,0,0,1-.52,2.54,17.51,17.51,0,0,1-1.52,3.46,19.33,19.33,0,0,1-2.66,4,2.63,2.63,0,0,1-2,1,2.46,2.46,0,0,1-1.83-.94c-.86-1-1.32-2.18-1.32-4.37a7.57,7.57,0,0,1,1-3.64A9.42,9.42,0,0,1,268.7,32a10.76,10.76,0,0,1,5.81-1.56,9.22,9.22,0,0,1,6,1.87,7.34,7.34,0,0,1,2.81,6.09,6.53,6.53,0,0,1-2.21,5,10.5,10.5,0,0,1-3.56,2.13,16.81,16.81,0,0,1-4.92.92c-.36,0-.52,0-.52-.24s.14-.24.45-.31a12,12,0,0,0,6.17-3.15,7.14,7.14,0,0,0,2.16-5.57,5.24,5.24,0,0,0-2.11-4.51,7.67,7.67,0,0,0-3.84-1.3,11.08,11.08,0,0,0-1.51,0A3.29,3.29,0,0,1,274.27,33.36Zm-5.83.09a7.34,7.34,0,0,0-2,2.95,6.28,6.28,0,0,0-.41,2.28,4.86,4.86,0,0,0,.6,2.6,1.57,1.57,0,0,0,1.06.79c.38,0,.74-.24,1.66-1.54a28.84,28.84,0,0,0,3.21-5.88,5.5,5.5,0,0,0,.51-2,1.2,1.2,0,0,0-.44-1.08A8.12,8.12,0,0,0,268.44,33.45Z"/><line class="cls-4" x1="30.5" y1="56.36" x2="302.5" y2="56.36"/></g></g></svg>