<svg xmlns="http://www.w3.org/2000/svg" viewBox="0 0 1378 190"><defs><style>.cls-1{fill:#996580;}.cls-2{fill:#fff;}.cls-3{fill:#091911;}.cls-4{fill:none;stroke:#996580;stroke-miterlimit:10;}</style></defs><g id="レイヤー_2" data-name="レイヤー 2"><g id="レイヤー_4" data-name="レイヤー 4"><rect class="cls-1" width="1378" height="190" rx="5"/><rect class="cls-2" x="5" y="5" width="1368" height="180" rx="5"/><path class="cls-3" d="M79.5,96.3A12.64,12.64,0,0,0,83.7,98c.09,0,0,.2,0,.22-.45.05-.72.34-1,1.06-.06.2-.15.27-.27.27a2.33,2.33,0,0,1-.73-.31,15.09,15.09,0,0,1-3-2,15.87,15.87,0,0,1-3.55-4.68,16.53,16.53,0,0,1-8.28,7.29c-.11.06-.24-.2-.13-.27a19,19,0,0,0,6.32-6.35,12.32,12.32,0,0,0,1-2.11c1.82.52,2.07.65,2.07.85s-.13.23-.63.34A13,13,0,0,0,79.5,96.3Zm-5.13,5.11a27.4,27.4,0,0,1-2.72,4.2c2.38,0,4.75-.18,7.11-.4a8.8,8.8,0,0,0-1.89-2.32c-.07,0,0-.22.13-.18,2.32,1,3.9,2.59,3.9,3.78,0,.51-.3.92-.73.92s-.51-.14-.85-1a7.59,7.59,0,0,0-.36-.81,68.91,68.91,0,0,1-9.6,1.44c-.14.52-.23.65-.41.65s-.27-.09-.77-2.14a12,12,0,0,0,1.69.09c.41,0,.79,0,1.17,0a19,19,0,0,0,1.51-4.2H69.13a7.91,7.91,0,0,0-1.24.11l-.18-.68a6.54,6.54,0,0,0,1.42.12h11c.81-1,.94-1,1-1s.25.07,1.12.77c.37.33.46.45.46.56s-.07.16-.23.16ZM71,97.78a6.68,6.68,0,0,0,1.35.12h3.94c.72-.84.85-.93,1-.93s.23.09,1,.72c.34.27.43.37.43.5s-.07.16-.25.16H72.28a7.16,7.16,0,0,0-1.15.11Z"/><path class="cls-3" d="M90.75,96.68h-1a4.23,4.23,0,0,0-1,.11l-.18-.69a5.4,5.4,0,0,0,1.15.13h1v-2c0-1.37,0-2.2-.09-2.87,1.76.18,2,.31,2,.51s-.15.27-.61.47v3.87h.57c.6-.76.72-.85.83-.85s.25.09.88.63c.25.24.34.36.34.47s-.05.2-.23.2H92v4.86c.77-.32,1.53-.68,2.19-1,.07,0,.18.15.11.2a24.73,24.73,0,0,1-4.55,3.1c0,.59-.13.77-.33.77s-.31-.27-1-1.85a9,9,0,0,0,1.07-.24c.39-.12.81-.28,1.26-.45ZM102.63,101c.49-.54.59-.62.7-.62s.22.08.81.55c.26.21.33.34.33.45s-.07.18-.49.46a14.16,14.16,0,0,1-.7,4.27,2.17,2.17,0,0,1-.83,1.08,2.19,2.19,0,0,1-1.19.29c-.18,0-.23-.07-.29-.34-.09-.44-.35-.67-1.67-1-.11,0-.11-.27,0-.25,1.1.11,1.66.16,2.11.16s.68-.23.88-1a15.83,15.83,0,0,0,.47-3.54h-1.12a10.86,10.86,0,0,1-7,6.1c-.11,0-.2-.18-.11-.23a12.53,12.53,0,0,0,5.78-5.87H99a10.4,10.4,0,0,1-5.9,4.55c-.11,0-.2-.16-.11-.21a10.65,10.65,0,0,0,4.61-4.34H96.22a11.23,11.23,0,0,1-3.87,2.43c-.11,0-.22-.18-.13-.24a11.1,11.1,0,0,0,3.64-3.38,4.79,4.79,0,0,0,.51-1H95.12a7.28,7.28,0,0,0-1.35.11l-.18-.69a9.27,9.27,0,0,0,1.52.13h7.63c.7-.85.83-.94.94-.94s.27.09,1,.72c.31.26.38.38.38.49s0,.18-.23.18H97.1c.76.24,1,.34,1,.47s-.18.25-.63.29c-.26.34-.53.68-.8,1Zm-5.92-3.57c0,.38-.27.56-.79.56-.35,0-.54-.11-.54-.43s.07-1.1.07-3.39c0-1.35,0-1.82-.09-2.73a11,11,0,0,1,1.47.72h4.36c.54-.58.63-.65.74-.65s.25.07.83.52c.27.22.34.34.34.45s-.09.25-.5.54v1c0,1.94.05,2.92.05,3.19s-.23.54-.77.54-.55-.15-.55-.47v-.18H96.71Zm4.62-4.82H96.71v1.78h4.62Zm-4.62,4.05h4.62V94.86H96.71Z"/><path class="cls-3" d="M113.1,100.13c0,4.29,0,6.27,0,6.88q0,.63-.75.63c-.47,0-.62-.12-.62-.55s.06-1.66.09-5.86c0-1.17,0-2.32,0-3.45a17,17,0,0,1-2,2.32c-.09.09-.29-.11-.22-.2A19.34,19.34,0,0,0,112.87,93a11.17,11.17,0,0,0,.32-1.78c1.39.39,2,.64,2,.84s-.18.29-.66.38a21.58,21.58,0,0,1-2,4.29c.9.16,1.07.23,1.07.41s-.09.23-.53.41Zm6.32-5.63h-3.54a7.76,7.76,0,0,0-1.21.11l-.18-.69a6.42,6.42,0,0,0,1.39.13h3.54c0-1.39,0-2.07-.1-2.76,1.89.24,2,.31,2,.53s-.1.27-.61.48v1.75h3.19c.79-.9.94-1,1-1s.27.09,1.07.74c.37.3.46.41.46.52s-.07.18-.23.18H120.7v2.16h3c.54-.61.63-.67.74-.67s.24.06.78.51c.25.25.32.36.32.47s-.09.23-.49.5v.83c0,1.73.09,2.52.09,2.75,0,.42-.27.6-.73.6s-.58-.15-.58-.51v-.45h-3.37a7.63,7.63,0,0,1-1,2.88c-.13.2-.25.4-.38.58a7.31,7.31,0,0,0,1.66.88,17,17,0,0,0,5.85.88c.07,0,.07.17,0,.2a1.23,1.23,0,0,0-.76,1c0,.29-.16.36-.32.36a8.19,8.19,0,0,1-1-.1,16,16,0,0,1-3.6-1.12,8.79,8.79,0,0,1-2.25-1.53,10.54,10.54,0,0,1-4.86,2.84c-.13,0-.24-.19-.13-.25A10.33,10.33,0,0,0,118,104a11.77,11.77,0,0,1-1.24-1.78c0-.13-.1-.18-.19-.2s-.26-.11-.26-.18.45-.42.6-.42.12.08.12.17,0,.12,0,.18a.79.79,0,0,0,.17.34,7.57,7.57,0,0,0,1.15,1.37,8.68,8.68,0,0,0,.88-2.78h-2.88c0,.44-.23.63-.74.63-.36,0-.5-.14-.5-.48s0-.71,0-2.36a22.06,22.06,0,0,0-.11-2.56,7.09,7.09,0,0,1,1.45.74h3Zm-3.13,2.61v3.13h2.94c.12-1,.16-2.09.19-3.13Zm4.39,0c0,1-.07,2.09-.18,3.13h3.3V97.11Z"/><path class="cls-3" d="M134.79,100.84a14.7,14.7,0,0,1-.43,2.45,7.91,7.91,0,0,1-2.56,4.19c-.09.09-.32,0-.25-.12a12.15,12.15,0,0,0,1.68-4.27,34.63,34.63,0,0,0,.38-6.41c0-3.13,0-4-.13-5a7.81,7.81,0,0,1,1.66.83H145c.65-.63.74-.7.86-.7s.22.07.83.59c.27.22.34.33.34.43s-.07.24-.5.52v3.57c0,7.36.07,8,.07,8.8a1.28,1.28,0,0,1-.66,1.32,1.9,1.9,0,0,1-1.05.32c-.25,0-.32-.1-.36-.37-.09-.62-.47-.8-1.94-1.09-.13,0-.13-.28,0-.28,1.08.07,1.67.1,2.27.1.23,0,.34-.1.34-.34v-4.55h-4.56c0,2.73.06,4.79.06,5.51,0,.43-.26.59-.85.59s-.63-.14-.63-.56c0-.25.07-1.24.07-3.81v-1.73Zm.18-4c0,1.19-.05,2.4-.14,3.59h4.48V96.8ZM135,93v3.38h4.34V93Zm5.69,3.38h4.56V93h-4.56Zm4.56.45h-4.56v3.59h4.56Z"/><path class="cls-3" d="M157.85,99.14c1.61.42,2.65,1.23,2.65,2.09a.69.69,0,0,1-.6.71c-.28,0-.52-.09-.7-.65a4,4,0,0,0-1.35-1.82c0,4.32.07,6.91.07,7.62,0,.41-.3.61-.82.61s-.56-.16-.56-.51.12-2.66.18-7.06a14.08,14.08,0,0,1-3.39,4.6c-.09.07-.27-.08-.2-.17a20.76,20.76,0,0,0,3.34-6.8h-1.7a5.93,5.93,0,0,0-1.11.11l-.18-.69a6.42,6.42,0,0,0,1.26.13h1.91V93.78a21.92,21.92,0,0,0-.09-2.59c1.69.21,1.89.3,1.89.54s-.11.25-.6.45v5.13h1.21c.56-.74.7-.83.81-.83s.23.09.86.63c.25.22.35.36.35.47s-.06.18-.24.18h-3Zm-3.13-3.61a6.93,6.93,0,0,0-.83-2.79c0-.08.11-.17.18-.11a4.61,4.61,0,0,1,1.84,2.91c0,.51-.29.92-.65.92S154.79,96.28,154.72,95.53Zm3.74.84a18.66,18.66,0,0,0,.85-2.43,12.2,12.2,0,0,0,.31-1.42c1.4.57,1.62.7,1.62.88s-.18.27-.65.33a14,14,0,0,1-1.93,2.75C158.61,96.55,158.43,96.46,158.46,96.37Zm9,5.53c0,3.2.07,4.57.07,5.13s-.27.63-.86.63c-.43,0-.6-.16-.6-.52,0-.61,0-2,0-5l-4.68.89a7.39,7.39,0,0,0-1.17.34l-.33-.63a7.32,7.32,0,0,0,1.37-.13l4.81-.9c0-1.33,0-3,0-5,0-3.46,0-4.49-.09-5.39,1.64.18,2,.29,2,.54s-.09.25-.6.49v4.57c0,1.8,0,3.3,0,4.54l.52-.09c.51-1,.6-1.12.74-1.12s.25.09,1,.58c.34.2.4.31.4.41s-.06.17-.2.2ZM163,99.74a4.16,4.16,0,0,0-1.66-1.95c-.05,0,0-.16.08-.16,1.89.2,2.95,1,2.95,1.86a.75.75,0,0,1-.7.84C163.38,100.33,163.24,100.15,163,99.74Zm.47-4.48a4.15,4.15,0,0,0-1.5-1.75c-.05,0,0-.16.09-.15,1.82.26,2.88,1,2.88,1.93a.72.72,0,0,1-.7.81C163.9,96.1,163.83,96,163.49,95.26Z"/><rect class="cls-3" x="38.67" y="97.52" width="9.19" height="9.19" transform="translate(-59.53 60.5) rotate(-45)"/><rect class="cls-3" x="39.03" y="135.99" width="8.49" height="8.49" transform="translate(-86.49 71.67) rotate(-45)"/><path class="cls-3" d="M66.81,137c-.09,0-.2-.15-.13-.2A18.55,18.55,0,0,0,72.44,131a13.52,13.52,0,0,0,1.26-2.74c2.54.69,2.56.7,2.56.92s-.14.25-.79.43a13,13,0,0,0,4.12,3.82,13.3,13.3,0,0,0,4.23,1.46c.09,0,.09.23,0,.23-.57.06-1,.51-1.24,1.48-.07.25-.16.34-.31.34a2.53,2.53,0,0,1-.84-.36,15.61,15.61,0,0,1-2.56-1.8,15.42,15.42,0,0,1-3.64-4.83A15.78,15.78,0,0,1,66.81,137Zm7.83,1.64a20.56,20.56,0,0,1-2.85,4c2.25,0,4.5-.1,6.76-.23a7.36,7.36,0,0,0-1.77-2.32c-.07-.06,0-.22.11-.18,2.59,1,4.12,2.28,4.12,3.53a1.11,1.11,0,0,1-1,1.22c-.52,0-.63-.13-1.08-1.3-.07-.18-.12-.34-.2-.5a63.21,63.21,0,0,1-9.27,1.51c-.12.54-.21.69-.43.69s-.29,0-1-2.51a19.64,19.64,0,0,0,2.33.09h.66a19.9,19.9,0,0,0,1.19-4H69.11a8.9,8.9,0,0,0-1.26.1l-.2-.66a7.5,7.5,0,0,0,1.46.14H79.77c.86-1.08,1.08-1.22,1.21-1.22s.36.14,1.22.84c.4.33.54.49.54.62s0,.18-.23.18Zm1.24-3.48c.79-1,1-1.13,1.14-1.13s.34.14,1.11.79c.34.29.49.45.49.58s-.06.18-.24.18H72.17a6.33,6.33,0,0,0-1.06.1l-.2-.66a5.89,5.89,0,0,0,1.3.14Z"/><path class="cls-3" d="M94.83,134.49c.47-.52.62-.63.76-.63s.31.11,1,.66c.28.26.38.4.38.54s-.18.33-.59.44c-1.78,2.46-4.3,3.83-7.87,4.3-.09,0-.16-.22-.07-.25a14,14,0,0,0,4.07-2.07H92.3c-.31,0-.44-.12-.58-.59a1.66,1.66,0,0,0-.6-.94,14.17,14.17,0,0,1-2.59,1.3c-.09,0-.21-.18-.14-.23a12.44,12.44,0,0,0,3.13-3,4.05,4.05,0,0,0,.58-1.1H90.35a8.45,8.45,0,0,0-1.22.11l-.2-.67a7.6,7.6,0,0,0,1.46.15h11.25c.85-.94,1.06-1.08,1.19-1.08s.36.14,1.15.75c.34.29.49.44.49.56s-.06.18-.24.18H92.46c1.37.38,1.58.51,1.58.71s-.16.28-.65.32c-.16.2-.34.38-.5.56Zm4.79-4c0,.41,0,.7,0,.83,0,.41-.3.59-1,.59-.45,0-.65-.14-.65-.48,0-.13,0-.42,0-.94H94.89c0,.43,0,.74,0,.88,0,.38-.31.58-.9.58s-.74-.16-.74-.52c0-.13,0-.42,0-.94H90.08a8.2,8.2,0,0,0-1.2.11l-.2-.67a7.34,7.34,0,0,0,1.44.15H93.3v-.45a10.81,10.81,0,0,0,0-1.34c2,.18,2.23.24,2.23.49s-.16.31-.59.43v.87H98v-.29a15,15,0,0,0-.07-1.51c1.73.16,2.19.25,2.19.5s-.14.29-.54.45v.85h2.29c.9-1,1.12-1.17,1.24-1.17s.36.14,1.23.82c.38.31.52.45.52.58s-.05.18-.23.18Zm-4.53,10.32a4.07,4.07,0,0,1-1.28,2.54,8.53,8.53,0,0,1-4.88,1.71c-.09,0-.2-.24-.11-.27,2.29-.8,3.22-1.39,4-2.63a3.77,3.77,0,0,0,.5-1.35H90.17a7.23,7.23,0,0,0-1.22.11l-.2-.67a7.31,7.31,0,0,0,1.44.14h3.19c0-.21,0-.46,0-.72s0-.52,0-1c2.16.29,2.32.36,2.32.6s-.18.32-.58.48v.61h2.81c0-.45,0-.88-.09-1.55,1.71.17,2.25.29,2.25.54s-.14.29-.5.44v.57h2.32c.88-.95,1.1-1.09,1.22-1.09s.38.14,1.19.75c.38.31.53.45.53.58s-.06.18-.24.18h-5c0,1.73.09,2.93.09,3.35s-.33.72-1.05.72c-.57,0-.75-.2-.75-.65s.05-1.33.05-3.33v-.09Zm-2.61-5.91a12.73,12.73,0,0,1-1.14.92c1.17.09,1.66.4,1.66,1a.81.81,0,0,1-.07.35,8.8,8.8,0,0,0,1.89-2.22Zm6.57.67a14.36,14.36,0,0,0,2-1.23,5.19,5.19,0,0,0,1-.93c1.21.84,1.57,1.11,1.57,1.31s-.16.31-.86.24a15.71,15.71,0,0,1-3.8,1.08v.68c0,.54.18.59,1.76.59,1.19,0,1.66,0,2-.27a4.49,4.49,0,0,0,1-1.54c0-.09.18-.08.18,0,0,.36-.11.89-.11,1.12s0,.23.22.32a.75.75,0,0,1,.45.63c0,.38-.25.63-.83.81a10.77,10.77,0,0,1-2.86.26c-2.79,0-3.32-.31-3.32-1.79,0-.16,0-.34,0-1,0-.9,0-1.8-.09-2.72,1.91.2,2.11.25,2.11.54s0,.2-.54.43Z"/><path class="cls-3" d="M113.19,137.49a13.24,13.24,0,0,1-3.16,1.66c-.09,0-.22-.16-.15-.22a16.32,16.32,0,0,0,5.74-6.5h-4.07a4.57,4.57,0,0,0-1.13.15l-.2-.7a7.08,7.08,0,0,0,1.33.14h1.55V130a14,14,0,0,0-.1-1.57c2.07.22,2.3.42,2.3.61s-.2.33-.58.51V132h.89c.52-.59.66-.7.81-.7s.3.11.91.74c.28.28.38.43.38.57s-.1.27-.55.45a13.74,13.74,0,0,1-2.38,3.1c2,.36,3.18,1.17,3.18,2.16a.84.84,0,0,1-.84.9c-.4,0-.58-.14-.85-.76a4.55,4.55,0,0,0-1.49-1.92v2.25c0,2.05.07,4.61.07,5.45,0,.51-.36.74-.95.74s-.8-.18-.8-.66.09-1.59.09-4Zm7.53,4.49c0,.92,0,1,2.07,1a2.65,2.65,0,0,0,1.37-.21c.52-.35.76-1.19,1.37-3.39,0-.09.25,0,.25,0,0,.83-.14,2.06-.14,2.49s0,.5.37.67.49.34.49.63c0,.5-.36.84-1.13,1.06a12.86,12.86,0,0,1-3.1.29c-2.68,0-3.31-.36-3.31-2,0-1.16,0-2.87,0-9,0-2.34,0-3.6-.1-5,1.9.16,2.48.31,2.48.61s-.14.33-.63.52Z"/><path class="cls-3" d="M136.7,131.89c0,6.5,0,11,0,12.45,0,.46-.38.68-1,.68s-.81-.18-.81-.63c0-.85.06-2.77.09-6.09a15.84,15.84,0,0,1-2,1.75c0,.54-.13.81-.41.81s-.47-.48-1-2.14c.4-.07.89-.2,1.39-.34a17.25,17.25,0,0,0,2.05-.8c0-1.83,0-4.06,0-6.73a21.11,21.11,0,0,0-.09-2.45c2.3.25,2.39.27,2.39.56s-.16.29-.63.49Zm-3.26,3.52c-.52,0-.66-.31-.75-1.32a5.75,5.75,0,0,0-.71-2.32c0-.09.09-.2.17-.15,1.51.91,2.19,1.73,2.19,2.76A.93.93,0,0,1,133.44,135.41Zm9.29-.72a10.41,10.41,0,0,0,2.22,5.18,8.3,8.3,0,0,0,3.42,2.63c.09,0,.07.13,0,.18a2.16,2.16,0,0,0-1.06,1.48c-.07.28-.18.36-.31.36a1.43,1.43,0,0,1-.67-.44,13.49,13.49,0,0,1-2.26-2.89,14.72,14.72,0,0,1-1.57-5.59c-.09.83-.2,1.55-.34,2.22-.76,3.28-2.56,5.65-5.1,6.7-.09,0-.2-.13-.12-.18a9.42,9.42,0,0,0,3-4.41,21.38,21.38,0,0,0,.94-5.24h-2.65a4.75,4.75,0,0,0-.92.1l-.19-.66a4,4,0,0,0,1.06.14h2.74c.05-.88.07-1.82.07-2.86s0-1.69-.11-2.79c2.39.34,2.39.34,2.39.59s-.12.31-.57.51v.77c0,1.48,0,2.72-.11,3.78h2.68c.85-1.08,1.06-1.22,1.19-1.22s.34.14,1.15.86c.35.31.49.47.49.6s-.06.18-.23.18Zm2.85-1.88c-.38,0-.58-.2-.79-.88a5,5,0,0,0-1.16-1.91c0-.07,0-.2.13-.18,1.89.51,2.74,1.15,2.74,2A.92.92,0,0,1,145.58,132.81Z"/><path class="cls-3" d="M338.76,136.38a4,4,0,0,1,2.32.65,2.88,2.88,0,0,1,1.41,2.41,2.67,2.67,0,0,1-1.18,2.27,3.6,3.6,0,0,1-2.26.7,3.79,3.79,0,0,1-3.19-1.6,3.66,3.66,0,0,1-.54-.94.1.1,0,0,1,.11-.09.26.26,0,0,1,.23.13,3.84,3.84,0,0,0,2.81,1.28,2.69,2.69,0,0,0,1.76-.6,2.09,2.09,0,0,0,.53-1.58,1.83,1.83,0,0,0-.87-1.64,2.74,2.74,0,0,0-1.44-.34,5.68,5.68,0,0,0-2.63.86c-.43.23-.81.47-1.17.68,0,1.07.07,1.72.11,2.36,0,.33,0,.54,0,.89a3.18,3.18,0,0,1-.15,1.15c-.25.65-.55.84-.88.84s-.5-.16-.61-.59a4.17,4.17,0,0,0-1.62-2.29,6.18,6.18,0,0,0-.83.78.89.89,0,0,1-.72.34,1.62,1.62,0,0,1-.79-.27,1.5,1.5,0,0,1-.79-1.19,1.07,1.07,0,0,1,.48-.94c.07,0,.11,0,.15.15a1.36,1.36,0,0,0,.19.43c.08.07.13.09.31.07a9,9,0,0,0,1.87-.88c.63-.36,1.46-.86,2-1.22,0-1.3,0-2.49,0-3.44a13.65,13.65,0,0,1-1.95.23,2.14,2.14,0,0,1-1.69-1,1.62,1.62,0,0,1-.39-.88c0-.15,0-.24.12-.24s.2.13.34.31a1.77,1.77,0,0,0,1.37.65,9.39,9.39,0,0,0,2.22-.31v-1.94a2.55,2.55,0,0,0-.07-.87c0-.28-.15-.36-.33-.41a1.65,1.65,0,0,0-.47-.09c-.27,0-.41-.05-.41-.14a.58.58,0,0,1,.29-.44,1.81,1.81,0,0,1,.79-.28,2.25,2.25,0,0,1,1.28.46c.52.38.77.74.77,1a.75.75,0,0,1-.16.49,1.92,1.92,0,0,0-.27.36,4.39,4.39,0,0,0-.2,1.44,4.32,4.32,0,0,0,1.24-.74,1.45,1.45,0,0,1,.87-.3c.74,0,1.08.28,1.08.59s-.06.43-.49.72a7.8,7.8,0,0,1-1.19.58,14.19,14.19,0,0,1-1.58.5c0,.83,0,2.2,0,3.17A8.5,8.5,0,0,1,338.76,136.38Zm-6.92,4.27c.37.21.58.32.89.48a1.45,1.45,0,0,0,.59.2c.11,0,.18-.07.18-.25,0-.52,0-1.19,0-1.77C332.94,139.73,332.29,140.23,331.84,140.65Zm7.19-7.73a2.8,2.8,0,0,1,1.78-.59,3.76,3.76,0,0,1,2.4.86,2.45,2.45,0,0,1,.86,1.84c0,.52-.27.83-.68.83a.9.9,0,0,1-.54-.17.84.84,0,0,0-.55-.23c-.14,0-.34,0-.55,0a4.79,4.79,0,0,0-.69.12,2.28,2.28,0,0,1-.43.09c-.05,0-.14,0-.14-.09s.07-.12.23-.23a11.14,11.14,0,0,0,1.19-.85.33.33,0,0,0,.13-.23A.38.38,0,0,0,342,134a2.14,2.14,0,0,0-1.91-1,3,3,0,0,0-.75.1,1.47,1.47,0,0,1-.29.09c-.07,0-.13,0-.13-.09A.32.32,0,0,1,339,132.92Z"/><path class="cls-3" d="M354.27,136.85c0,2.16.06,6.24.06,7.36,0,.52-.35.72-1,.72-.49,0-.7-.14-.7-.58,0-.7.18-3.74.21-6.33a12.77,12.77,0,0,1-3.37,4c-.07.05-.19-.07-.14-.15A21.08,21.08,0,0,0,352.6,135H351a6.58,6.58,0,0,0-1.08.11l-.2-.67a5.23,5.23,0,0,0,1.21.15h1.83v-3.79c0-1,0-1.6-.07-2.43,2,.29,2.16.33,2.16.6s-.14.27-.56.47v5.15h.87c.56-.78.77-.92.9-.92s.34.14.93.65c.25.21.4.37.4.5s-.05.18-.24.18h-2.86v1.33c1.64.42,2.63,1.08,2.63,2.09a.87.87,0,0,1-.77.87c-.4,0-.67-.1-.89-.85a4,4,0,0,0-1-1.66Zm-2.79-3.08c-.45,0-.57-.2-.7-1.24a6.91,6.91,0,0,0-.68-2.58c0-.07.07-.18.14-.13,1.35,1,2,2,2,2.88C352.24,133.3,351.93,133.77,351.48,133.77ZM357,131.1a13.37,13.37,0,0,1-2.06,2.7c0,.08-.21,0-.18-.09a22.55,22.55,0,0,0,.78-2.55,13.61,13.61,0,0,0,.25-1.43c1.53.6,1.89.8,1.89,1S357.44,131.05,357,131.1Zm7.09,7.56c.54-1.06.68-1.22.83-1.22s.36.11,1.08.56c.32.2.43.3.43.45s-.07.18-.2.21l-2.3.44c0,2.64.07,4.25.07,5,0,.54-.33.77-1,.77s-.78-.18-.78-.63c0-.82,0-2.35,0-4.84l-4.39.83a7,7,0,0,0-1.26.38l-.35-.65a7.07,7.07,0,0,0,1.44-.13l4.56-.84c0-1.84,0-4.16,0-7,0-1.64,0-2.34-.09-3.39,1.87.18,2.36.31,2.36.61s-.13.26-.6.49v2.88c0,2.47,0,4.48,0,6.14Zm-4.2-1c-.39,0-.57-.14-.75-.63a4.14,4.14,0,0,0-1.53-2,.09.09,0,0,1,.07-.16c2.09.19,3.08.77,3.08,1.8A.92.92,0,0,1,359.85,137.69Zm.56-4.26c-.41,0-.47-.08-.93-1.12a3.55,3.55,0,0,0-1.3-1.55.09.09,0,0,1,.05-.16c2,.18,3.1.83,3.1,1.85A.92.92,0,0,1,360.41,133.43Z"/><path class="cls-3" d="M374.86,139.33c.89-.31,1.75-.63,2.43-.92.09,0,.18.15.11.2a21.11,21.11,0,0,1-5,3.19c0,.57-.13.77-.38.77s-.49-.39-1.23-2.16a13.91,13.91,0,0,0,1.61-.34c.27-.07.56-.14.84-.23v-4.63h-.79a4.74,4.74,0,0,0-1,.11l-.2-.67a4.78,4.78,0,0,0,1.16.14h.82v-4.26h-1a5.51,5.51,0,0,0-1,.1l-.19-.66a4.51,4.51,0,0,0,1.13.14h2.54c.63-.83.85-1,1-1s.36.14,1.05.68c.28.24.43.4.43.53s-.06.18-.24.18h-2.07v4.26H375c.5-.73.72-.88.84-.88s.35.15.9.63c.22.2.36.36.36.49s-.05.18-.23.18h-2Zm8,.4h1.24c.94-1,1.15-1.19,1.28-1.19s.36.14,1.19.83c.36.3.5.47.5.59s-.05.18-.23.18h-4v3.33h2c1-1.08,1.24-1.22,1.36-1.22s.36.14,1.23.86c.38.31.52.47.52.6s0,.18-.23.18H376.92a7.48,7.48,0,0,0-1.17.1l-.2-.66a6,6,0,0,0,1.31.14h4.36v-3.33h-2.63a7.25,7.25,0,0,0-1.13.11l-.2-.67a5.79,5.79,0,0,0,1.28.15h2.68v-3h-2.07v.45c0,.45-.31.63-1,.63-.5,0-.72-.18-.72-.63s.11-1.89.11-5.17c0-1.1,0-1.66-.11-3.31a18.19,18.19,0,0,1,1.88.93H385c.6-.68.74-.79.89-.79s.34.11,1.06.68c.32.27.43.4.43.54s-.16.35-.65.63v1.05c0,2.75.08,4.64.08,5.27,0,.47-.29.67-1,.67-.47,0-.67-.16-.67-.58v-.37h-2.23Zm-1.62-6.79v-2.86h-2.07v2.86Zm0,3.4v-3h-2.07v3Zm3.85-3.4v-2.86h-2.23v2.86Zm0,3.4v-3h-2.23v3Z"/><path class="cls-3" d="M398.1,136.58a1.61,1.61,0,1,1-1.62-1.62A1.61,1.61,0,0,1,398.1,136.58Z"/><path class="cls-3" d="M415.94,136.38a4.06,4.06,0,0,1,2.33.65,2.89,2.89,0,0,1,1.4,2.41,2.66,2.66,0,0,1-1.17,2.27,3.63,3.63,0,0,1-2.27.7,3.79,3.79,0,0,1-3.19-1.6,3.66,3.66,0,0,1-.54-.94c0-.05.06-.09.11-.09a.28.28,0,0,1,.24.13,3.81,3.81,0,0,0,2.8,1.28,2.7,2.7,0,0,0,1.77-.6,2.12,2.12,0,0,0,.52-1.58,1.82,1.82,0,0,0-.86-1.64,2.76,2.76,0,0,0-1.44-.34,5.68,5.68,0,0,0-2.63.86c-.43.23-.81.47-1.17.68,0,1.07.07,1.72.11,2.36,0,.33,0,.54,0,.89a3.42,3.42,0,0,1-.14,1.15c-.26.65-.56.84-.88.84s-.51-.16-.62-.59a4.12,4.12,0,0,0-1.62-2.29,7.87,7.87,0,0,0-.83.78.88.88,0,0,1-.72.34,1.66,1.66,0,0,1-.79-.27,1.52,1.52,0,0,1-.79-1.19,1,1,0,0,1,.49-.94c.07,0,.1,0,.14.15a1.33,1.33,0,0,0,.2.43c.07.07.12.09.3.07a9.06,9.06,0,0,0,1.88-.88c.63-.36,1.45-.86,2-1.22,0-1.3,0-2.49,0-3.44a13.36,13.36,0,0,1-1.94.23,2.12,2.12,0,0,1-1.69-1,1.66,1.66,0,0,1-.4-.88c0-.15,0-.24.13-.24s.19.13.34.31a1.75,1.75,0,0,0,1.37.65,9.32,9.32,0,0,0,2.21-.31v-1.94a2.55,2.55,0,0,0-.07-.87c0-.28-.15-.36-.33-.41a1.54,1.54,0,0,0-.46-.09c-.27,0-.42-.05-.42-.14a.58.58,0,0,1,.29-.44,1.81,1.81,0,0,1,.79-.28,2.25,2.25,0,0,1,1.28.46c.52.38.78.74.78,1a.76.76,0,0,1-.17.49,1.92,1.92,0,0,0-.27.36,4.16,4.16,0,0,0-.19,1.44,4.64,4.64,0,0,0,1.24-.74,1.42,1.42,0,0,1,.86-.3c.74,0,1.08.28,1.08.59s-.05.43-.48.72a8.86,8.86,0,0,1-1.19.58,14.41,14.41,0,0,1-1.59.5c0,.83,0,2.2,0,3.17A8.54,8.54,0,0,1,415.94,136.38ZM409,140.65c.36.21.57.32.88.48a1.45,1.45,0,0,0,.59.2c.11,0,.19-.07.19-.25,0-.52,0-1.19,0-1.77C410.13,139.73,409.48,140.23,409,140.65Zm7.18-7.73a2.83,2.83,0,0,1,1.79-.59,3.75,3.75,0,0,1,2.39.86,2.42,2.42,0,0,1,.86,1.84c0,.52-.27.83-.68.83a.92.92,0,0,1-.54-.17.81.81,0,0,0-.54-.23c-.14,0-.34,0-.56,0a4.68,4.68,0,0,0-.68.12,2.32,2.32,0,0,1-.44.09c-.05,0-.14,0-.14-.09s.07-.12.23-.23a11.14,11.14,0,0,0,1.19-.85.3.3,0,0,0,.13-.23.43.43,0,0,0-.07-.25,2.16,2.16,0,0,0-1.91-1,3,3,0,0,0-.76.1,1.15,1.15,0,0,1-.29.09c-.07,0-.12,0-.12-.09A.31.31,0,0,1,416.21,132.92Z"/><path class="cls-3" d="M429.49,142.28a16.74,16.74,0,0,0,2.49-.61,4.86,4.86,0,0,0-1-1.76c-.06-.07.05-.22.14-.18,1.59.63,2.58,1.56,2.58,2.48a.89.89,0,0,1-.87.92c-.38,0-.48-.11-.73-1a24.52,24.52,0,0,1-4.07,2c-.11.47-.22.65-.44.65s-.3-.24-.88-2.11a9.21,9.21,0,0,0,1.24-.11v-9.18c-.41.29-.86.58-1.33.86-.07.06-.21-.12-.14-.18a13.4,13.4,0,0,0,2.72-3.6,11.3,11.3,0,0,0,.81-2c1.49.48,2,.72,2,.93s-.16.26-.63.31c1.82.52,2.78,1.19,2.78,2a.83.83,0,0,1-.76.85c-.43,0-.49-.09-1-1.07a5.6,5.6,0,0,0-1.24-1.49,13,13,0,0,1-2.72,3c.39.17.59.29,1.13.58h.56v-1c0-.21,0-.57,0-1.11,1.82.18,2,.36,2,.54s-.18.29-.52.39v1.19h.54c.52-.56.66-.67.81-.67s.32.11.85.55c.23.21.34.34.34.48s-.06.22-.42.45v.74c0,2.29.06,3.46.06,3.87s-.26.68-.9.68-.69-.14-.69-.61v-.23h-2.72Zm2.72-8.31h-2.72v2h2.72Zm-2.72,4.42h2.72v-2h-2.72Zm8.11,1.75a8.53,8.53,0,0,1-5.3,4.65c-.09,0-.19-.17-.12-.22a9.71,9.71,0,0,0,4-4.48,14,14,0,0,0,.87-5.37,7.15,7.15,0,0,0-.07-.93c1.54.12,2.16.28,2.16.55s-.13.31-.54.45a9.92,9.92,0,0,0,1.29,5.17,8.46,8.46,0,0,0,3.86,3.1c.09,0,.05.16,0,.18-.61.09-.86.38-1.15,1.28-.06.21-.16.3-.29.3a1.43,1.43,0,0,1-.61-.41,9.53,9.53,0,0,1-2.29-3.22,13.05,13.05,0,0,1-.95-4.25A10.56,10.56,0,0,1,437.6,140.14Zm-.85-7.36a11.88,11.88,0,0,1-2.59,3.18c-.07.06-.25-.05-.2-.12a16.16,16.16,0,0,0,2-4.79,13.88,13.88,0,0,0,.41-2.49c1.75.44,2.27.63,2.27.89s-.18.34-.63.41a16.12,16.12,0,0,1-1,2.5h3.85c.65-.74.79-.84.94-.84s.3.1,1,.81c.32.32.43.47.43.61s-.18.31-.5.34-.34.09-.61.43a16.44,16.44,0,0,1-1.79,1.68c-.07.05-.21,0-.18-.13a13.7,13.7,0,0,0,.83-2.48Z"/><path class="cls-3" d="M453,137.08c.74-.18,1.42-.4,2-.59.09,0,.14.14.07.19A17.31,17.31,0,0,1,453,138c0,3.1,0,5.24,0,6.18,0,.57-.26.81-1,.81-.56,0-.74-.18-.74-.61,0-.85,0-2.72.07-5.6-.52.21-1.09.43-1.71.64,0,.47-.16.65-.37.65s-.44-.38-.9-2.16a8,8,0,0,0,1.62-.14l1.36-.25c0-1.91,0-3.14,0-4.38h-1.3a10.8,10.8,0,0,1-1.76,3.4c0,.08-.23,0-.2-.05A23.28,23.28,0,0,0,449,132c.09-.7.13-1.38.15-2,1.51.39,2,.57,2,.81s-.12.25-.56.37a14.13,14.13,0,0,1-.39,1.52h1.15v-1.64c0-1.62,0-1.93-.07-2.72,2.18.25,2.32.31,2.32.58s-.14.28-.63.5v3.28h.16c.53-.76.74-.9.87-.9s.32.14.86.64a.9.9,0,0,1,.34.49c0,.13-.05.18-.23.18h-2Zm6.52-4.48a11.18,11.18,0,0,1-6,7.6c-.09,0-.2-.13-.13-.18a14,14,0,0,0,4.4-7.42h-1.05a11.68,11.68,0,0,1-2.66,3.2c-.07.06-.22-.07-.16-.14a15.82,15.82,0,0,0,2-4.68,12.59,12.59,0,0,0,.47-2.65c1.87.27,2.43.43,2.43.72s-.18.32-.68.45a18.69,18.69,0,0,1-1.19,2.68h5.49c.68-.75.83-.86,1-.86s.33.11,1,.66c.31.26.41.38.41.53s0,.18-.55.56c-.22,6.06-.45,8.28-1.08,10a2.42,2.42,0,0,1-.85,1.21,2.48,2.48,0,0,1-1.48.45c-.3,0-.32,0-.41-.42-.16-.72-.72-1.15-2-1.45-.09,0-.07-.27,0-.27,1.06.07,1.94.1,2.09.1,1,0,1,0,1.31-1.38a48.24,48.24,0,0,0,.72-8.75h-.38c-1,5.67-3.29,8.87-7.7,10.89-.09,0-.2-.16-.13-.22,3.39-2.41,5.33-5.76,6.14-10.67Z"/><path class="cls-3" d="M330.46,99.7a.66.66,0,0,1-.06.27,4.3,4.3,0,0,0-.3,1.66,1.88,1.88,0,0,0,.95,1.66,7.81,7.81,0,0,0,3.49.64,11.09,11.09,0,0,0,3.17-.37,5.15,5.15,0,0,1,1.14-.15c1.06,0,1.42.56,1.42,1s-.45.82-1.06.93a16.54,16.54,0,0,1-1.86.24c-.88.07-1.76.09-2.32.09a9.69,9.69,0,0,1-3.4-.6,4,4,0,0,1-1.68-1.26,2.65,2.65,0,0,1-.54-1.82,4.12,4.12,0,0,1,.74-2.23.29.29,0,0,1,.22-.16C330.44,99.56,330.46,99.63,330.46,99.7Zm.21-5.76c.38.51,1.17.76,2.83.76a9.49,9.49,0,0,0,3-.51,3.55,3.55,0,0,1,.67-.09,2.73,2.73,0,0,1,.74.09c.54.15.88.36.9.81s-.11.54-.49.69a5.74,5.74,0,0,1-1.19.16,14.29,14.29,0,0,0-2.66.49,10.56,10.56,0,0,0-2.34,1,3.08,3.08,0,0,1-.58.28c-.09,0-.12,0-.12-.1s.5-.53,1.67-1.46a3.87,3.87,0,0,1-2-.7,2.39,2.39,0,0,1-.85-1.39c0-.13.06-.18.15-.18S330.62,93.87,330.67,93.94Zm10-.54a1.36,1.36,0,0,1,.66,1.08.6.6,0,0,1-.59.63.63.63,0,0,1-.61-.41A6.75,6.75,0,0,0,339,93.11c-.07-.07-.2-.16-.2-.23s0-.09.09-.11a.7.7,0,0,1,.29,0A3.51,3.51,0,0,1,340.67,93.4Zm1.65-1.21a1.18,1.18,0,0,1,.65.92.6.6,0,0,1-.56.67.68.68,0,0,1-.66-.4,4.65,4.65,0,0,0-1.26-1.4c-.07-.06-.22-.15-.22-.22a.13.13,0,0,1,.05-.11.54.54,0,0,1,.29,0A3.63,3.63,0,0,1,342.32,92.19Z"/><path class="cls-3" d="M351.7,103.77a2.62,2.62,0,0,0,1.51,1.44,11.27,11.27,0,0,0,1.84-1.28,5.29,5.29,0,0,0,.79-.86c1.73.94,1.73.94,1.73,1.15s-.18.33-.88.27a8.48,8.48,0,0,1-2.85.9,17.38,17.38,0,0,0,3.71.31c1.57,0,2.63,0,4.2-.16a1.33,1.33,0,0,1-.54-.4,6.84,6.84,0,0,0-2.33-1.67c-.07,0-.07-.18,0-.18,2.81.1,3.82.48,3.82,1.36a1,1,0,0,1-.51.85c.69-.07,1.46-.14,2.4-.25.09,0,.07.14,0,.18-.51.29-.65.52-.74,1.37,0,.21-.13.29-.5.32-1,.11-2.94.15-4.36.15-3.08,0-4.9-.24-6.05-1a4.46,4.46,0,0,1-1.77-2.61,19.85,19.85,0,0,1-1.9,2.68c0,.71-.08.85-.31.85s-.65-.63-1.33-2.21a11.57,11.57,0,0,0,1.11-.44,7.52,7.52,0,0,0,1.26-.72V99.11h-1.24a3.46,3.46,0,0,0-1,.14l-.2-.72a4.08,4.08,0,0,0,1.17.16h1.16c.61-.72.75-.82.9-.82s.32.1,1,.63c.31.25.42.37.42.52s-.06.18-.54.57Zm-1-8.57c-.42,0-.63-.21-.89-1.11A5.15,5.15,0,0,0,348.69,92c-.07-.07.06-.18.14-.16,2.11.52,2.89,1.38,2.89,2.3A1,1,0,0,1,350.73,95.2Zm6.48-2.77a13.36,13.36,0,0,0-.09-1.42c1.92.18,2.1.36,2.1.54s-.16.28-.48.43v.56h2.41c.52-.56.67-.67.81-.67s.33.11.9.58c.25.23.36.36.36.5s-.14.31-.5.68v.19c0,.45,0,.75,0,.84,0,.33-.36.52-.94.52-.37,0-.55-.12-.59-.39h-2.5V96H362c.64-.77.86-.91,1-.91s.34.14.95.64c.25.22.4.38.4.51s-.06.18-.24.18H353a5.17,5.17,0,0,0-1,.11l-.2-.67a5,5,0,0,0,1.19.14h4.27v-1.2h-2.36c-.06.34-.29.47-.92.47-.41,0-.61-.17-.61-.45s.05-.47.05-1.41c0-.54,0-1.08-.07-1.64a10.49,10.49,0,0,1,1.67.78h2.24Zm-2,10.35q-.1.6-.87.6c-.54,0-.75-.2-.75-.72s.07-1.12.07-3.37c0-.87,0-1.73-.07-2.59a15.14,15.14,0,0,1,1.76.77h5.39c.52-.61.66-.72.81-.72s.34.11.95.56c.27.21.38.34.38.48s-.11.27-.43.51V99c0,1.86,0,3.13,0,3.55s-.3.77-1,.77c-.45,0-.65-.14-.69-.54ZM354.87,93v1.42h2.34V93Zm6,4.93h-5.61v1.19h5.61Zm-5.61,2.78h5.61V99.49h-5.61Zm0,1.71h5.61v-1.3h-5.61Zm3.51-8h2.5V93h-2.5Z"/><path class="cls-3" d="M371.14,98.39a16.14,16.14,0,0,1-2,2c-.07.05-.24-.09-.18-.16a19.57,19.57,0,0,0,3-6,15.75,15.75,0,0,0,.65-3c1.64.45,2.38.76,2.38,1s-.18.32-.63.4a20.6,20.6,0,0,1-2.15,4.28c.83.13,1,.2,1,.38s-.11.27-.47.43v9.33c0,.52-.31.76-.94.76-.39,0-.77-.17-.77-.69s.11-1.89.11-4.73Zm8.86-.88c0,1.36,0,3.62.07,5.6h.75c.69-.85.9-1,1-1s.34.14,1,.7c.27.23.41.39.41.52s0,.18-.23.18h-3c0,1.67.05,3.08.05,3.51s-.31.67-1,.67c-.54,0-.8-.16-.8-.52,0-.53,0-2,.06-3.66h-1.69a7.25,7.25,0,0,0-1.14.11l-.2-.67a5.7,5.7,0,0,0,1.26.15h1.77c0-1.3.05-3.44.05-4.61a15.69,15.69,0,0,1-5.29,5.4c-.07,0-.25-.11-.18-.18a19.82,19.82,0,0,0,4.59-7.56H375a6.79,6.79,0,0,0-1.11.1l-.2-.66a5.4,5.4,0,0,0,1.24.14h3.44V93.63a16.77,16.77,0,0,0-.11-2.28c1.87.16,2.41.32,2.41.61s-.18.34-.66.56v3.22h3c.83-1,1.05-1.19,1.17-1.19s.31.08,1.08.78c.33.29.56.52.56.65s-.05.18-.23.18h-5.44A11.46,11.46,0,0,0,383,100a12.77,12.77,0,0,0,3.39,2.18c.09,0,.07.19,0,.21-.45.09-.78.47-1,1.12-.12.39-.18.45-.4.45a1.42,1.42,0,0,1-.62-.34,9.65,9.65,0,0,1-2.33-2.6,16.71,16.71,0,0,1-2-4.53Z"/><path class="cls-3" d="M397.71,99.78l-.6.23a23.3,23.3,0,0,1-.32,2.9,8.9,8.9,0,0,1-2.29,4.59c-.05.07-.2,0-.16-.13a12.62,12.62,0,0,0,1.37-4.35c.09-.72.14-1.57.18-2.6l-.33.11c-.09.36-.18.52-.34.52s-.36-.37-.66-1.82c.41,0,.86-.07,1.35-.14,0-.74,0-1.58,0-2.52v-1h-1.83v3.2l1.33-.66c.07,0,.14.16.07.21-.54.51-1,.92-1.4,1.28v2.23c0,1.35,0,2.7,0,4a2.16,2.16,0,0,1-.27,1.16,1.54,1.54,0,0,1-1.4.66c-.22,0-.29-.07-.33-.34-.08-.74-.25-.94-1.27-1.3-.09,0-.09-.25,0-.25l1.45,0c.26,0,.29,0,.29-.27v-4.77c-.23.18-.47.32-.7.48-.07.44-.16.58-.32.58s-.31-.25-.85-1.91a11.38,11.38,0,0,0,1.12-.27q.35-.1.75-.27V95.6H392a4.31,4.31,0,0,0-.94.11l-.2-.67a4.53,4.53,0,0,0,1.14.14h.64v-1.9a12.51,12.51,0,0,0-.1-2.13c2,.23,2.16.31,2.16.52s-.15.31-.56.49v3h.2c.37-.63.59-.77.72-.77s.32.14.75.56a.93.93,0,0,1,.16.18c0-1-.05-1.6-.12-2.31a10.15,10.15,0,0,1,1.53.83h.21c.11-.54.22-1,.27-1.49a9,9,0,0,0,.06-1c1.64.41,1.94.52,1.94.72s-.18.32-.64.39a7.32,7.32,0,0,1-1.07,1.39h1c.5-.56.64-.66.79-.66s.32.1.81.52c.2.18.31.32.31.47s-.11.28-.45.5v3.55l.37-.11c.09,0,.11.16,0,.21a4.36,4.36,0,0,1-.41.24c0,5.76,0,6.71,0,7.49a1.37,1.37,0,0,1-.32.92,1.4,1.4,0,0,1-1.08.43c-.33,0-.4-.07-.47-.45-.11-.58-.22-.67-1.4-1-.09,0-.09-.23,0-.22a13.69,13.69,0,0,0,1.72.11c.2,0,.24,0,.24-.23V99.07l-.63.29v1.41c0,1.13,0,2.57,0,3s-.21.5-.63.5-.47-.12-.47-.39.08-1.1.08-2.78Zm-.51-5c0,1.56,0,2.91-.05,4.08.74-.14,1.46-.3,2.18-.48V94.09H397.2Zm1.1,3c-.3,0-.43-.24-.47-.8a5.35,5.35,0,0,0-.32-1.87.09.09,0,0,1,.14-.11,2.56,2.56,0,0,1,1.3,2C399,97.42,398.68,97.78,398.3,97.78Zm6.54,1.44c.56-.62.7-.72.84-.72s.31.1.92.66c.25.24.36.38.36.52s-.12.26-.59.47a12.18,12.18,0,0,1-1.69,3.66,8.29,8.29,0,0,0,3.25,1.85c.09,0,.06.2,0,.22-.58.18-.69.34-.92,1.22-.05.22-.14.35-.29.35a1,1,0,0,1-.48-.26,10.08,10.08,0,0,1-2.34-2.36,10.94,10.94,0,0,1-3.61,2.62c-.09,0-.16-.13-.09-.18a15,15,0,0,0,3.08-3.44,11.09,11.09,0,0,1-1.19-4.2,3.71,3.71,0,0,0-.81.15l-.19-.71a4.42,4.42,0,0,0,1.11.15Zm.83-2.79c0,.25.1.34.48.34a.54.54,0,0,0,.38-.11c.2-.16.32-.63.56-1.82,0-.09.23-.09.23,0,0,.43,0,1,0,1.28s0,.41.27.49a.69.69,0,0,1,.05,1.18,2.88,2.88,0,0,1-1.55.31c-1.29,0-1.82-.36-1.82-1.35v-3.6h-1.17v.56a8.91,8.91,0,0,1-.32,2.52A4.83,4.83,0,0,1,401,99c-.08,0-.18,0-.15-.11a8,8,0,0,0,.83-2.81,13.86,13.86,0,0,0,.13-2,12.38,12.38,0,0,0-.17-2.09,12.43,12.43,0,0,1,1.64.78h.9c.49-.67.6-.73.71-.73s.34.11.86.56c.29.24.38.42.38.54s-.07.25-.43.49Zm-3.26,3.2a7.18,7.18,0,0,0,1.4,3.21A14,14,0,0,0,405,99.63Z"/><path class="cls-3" d="M416.66,103.83a2.75,2.75,0,0,0,1.71,1.51,15,15,0,0,0,4.09.41,56.77,56.77,0,0,0,6.91-.45c.09,0,.09.16,0,.2a1.14,1.14,0,0,0-.7,1c-.06.56-.09.61-.43.65-1,.12-3.1.16-4.4.16a14.48,14.48,0,0,1-5.33-.65,4.15,4.15,0,0,1-2.37-2.93,13.35,13.35,0,0,1-2.07,2.7c.05.68,0,.83-.31.83s-.67-.65-1.33-2.2a7.82,7.82,0,0,0,1.35-.51,8.37,8.37,0,0,0,1.19-.66V99.09h-1.25a3.91,3.91,0,0,0-1,.14l-.2-.72a4.25,4.25,0,0,0,1.19.17h1.14c.63-.72.77-.83.92-.83s.32.11,1,.63c.3.25.41.38.41.52s-.05.18-.54.58Zm-1.06-8.72c-.42,0-.63-.21-.88-1.11a5.29,5.29,0,0,0-1.16-2.11c-.07-.07.06-.18.15-.16,2.1.52,2.88,1.38,2.88,2.3A1,1,0,0,1,415.6,95.11Zm8,.33a22.83,22.83,0,0,1-.22,3h2.76c.79-1,1-1.14,1.13-1.14s.36.15,1.17.79c.36.29.5.45.5.58s-.05.18-.23.18h-5.4a6.55,6.55,0,0,1-.34,1.28c3.44,1.17,4.91,2.2,4.91,3.49a1,1,0,0,1-.93,1.1c-.38,0-.44-.07-1.17-1.17a12.42,12.42,0,0,0-2.94-3.06c-.85,2.14-2.45,3.37-5.13,4.14-.09,0-.18-.14-.11-.2a7.42,7.42,0,0,0,4.05-5.58h-2.86a6.14,6.14,0,0,0-1,.11l-.19-.67a5.31,5.31,0,0,0,1.22.15h2.93a22.75,22.75,0,0,0,.17-3h-2.56a6,6,0,0,0-1,.1l-.2-.66a5.38,5.38,0,0,0,1.23.14h4a13.63,13.63,0,0,0,.87-2.2,14.94,14.94,0,0,0,.43-1.8c1.8.65,2.18.83,2.18,1.08s-.19.27-.71.31A14.85,14.85,0,0,1,424,95h2c.71-.86.93-1,1.06-1s.36.15,1.08.72c.3.24.45.4.45.53s-.06.18-.24.18Zm-2.45-.89c-.42,0-.47-.1-.79-1.2a4.47,4.47,0,0,0-1.05-1.79c-.07-.07,0-.21.13-.19,1.69.46,2.64,1.2,2.64,2.09A1,1,0,0,1,421.2,94.55Z"/><path class="cls-3" d="M441.7,90.81s0,.09-.09.16a11.16,11.16,0,0,0-.07,16.75c.13.12.16.16.16.23s0,.11-.09.11a.4.4,0,0,1-.23-.11,12.35,12.35,0,0,1-3.62-3.87,9.15,9.15,0,0,1,0-9.4,12.48,12.48,0,0,1,3.64-3.89c.09-.05.12-.09.18-.09A.11.11,0,0,1,441.7,90.81Z"/><path class="cls-3" d="M460.46,93.4c.93-1.06,1.08-1.17,1.22-1.17s.34.11,1.21.79c.41.34.52.47.52.61s-.07.19-.27.19h-12v.41a32.52,32.52,0,0,1-.72,8.28,9.1,9.1,0,0,1-3.46,5c-.07,0-.23-.13-.18-.2a12.31,12.31,0,0,0,2.31-5.15c.09-.52.18-1.06.23-1.65a9.89,9.89,0,0,1-1.44,1.56c0,.6-.13.78-.38.78s-.52-.6-1.08-2.15a5.58,5.58,0,0,0,1-.27,16,16,0,0,0,2-.81c.05-.92.09-2,.09-3.11,0-1.66-.05-2.88-.14-4.16,1,.47,1.13.56,2.05,1.06h3.73v-.93a9.91,9.91,0,0,0-.11-1.36c2.21.22,2.43.44,2.43.63s-.2.33-.61.53V93.4Zm-12.28,5c-.38,0-.52-.16-.54-.61a5.39,5.39,0,0,0-.65-2.56c-.05-.07.07-.21.14-.18,1.5.83,2,1.37,2,2.18A1.08,1.08,0,0,1,448.18,98.44Zm12.4.58c.58-.69.72-.79.87-.79s.32.1.95.63c.29.25.4.37.4.52s-.11.29-.45.48v1c0,3.49,0,4,0,5a2,2,0,0,1-.27,1.3,1.92,1.92,0,0,1-1.39.61c-.52,0-.54,0-.59-.5s-.46-.81-1.93-1.19c-.09,0-.09-.22,0-.22.9.06,1.71.07,2.32.07.22,0,.25-.07.25-.32V99.43h-3.13a11.17,11.17,0,0,1-.38,1.32c2.05.5,3.13,1.29,3.13,2.34a.93.93,0,0,1-.86,1c-.29,0-.47-.15-.68-.62a6.25,6.25,0,0,0-1.73-2.41,6.52,6.52,0,0,1-3.39,3.19c-.07,0-.19-.13-.12-.18a7.28,7.28,0,0,0,2.52-4.65h-2.63V107c0,.66-.22.86-.92.86-.5,0-.77-.18-.77-.59,0-.62.09-1.24.09-3.75,0-1.78,0-3.56-.08-5.36a15.79,15.79,0,0,1,1.84.88h2.52q.09-.9.09-2V96.5h-3a11.2,11.2,0,0,0-1.53.11l-.2-.67a8.82,8.82,0,0,0,1.58.14h7.26c.81-1,1-1.11,1.15-1.11s.36.14,1.16.79c.34.27.48.43.48.56s-.05.18-.23.18h-5a20.78,20.78,0,0,1-.2,2.52Z"/><path class="cls-3" d="M472.39,92.19c.49-.59.63-.7.77-.7s.31.11,1,.74c.28.27.39.41.39.56s-.05.2-.5.32a27.7,27.7,0,0,1-2.43,4c1.71,1.5,2.32,2.65,2.32,4.25a2.7,2.7,0,0,1-.58,1.89,1.68,1.68,0,0,1-1.27.51c-.27,0-.36-.11-.38-.4-.07-.65-.25-.88-1.05-1.17,0,2,0,4.16,0,4.72s-.4.79-1,.79-.69-.2-.69-.59c0-.54.08-4,.08-9,0-4.28,0-5.29-.11-6.73.88.38,1,.43,1.84.86Zm-1.77,9.73c.42,0,.74,0,1.14,0a.71.71,0,0,0,.47-.12c.19-.17.23-.53.23-1.26a4.79,4.79,0,0,0-1.28-3.43,32.8,32.8,0,0,0,1.23-4.55h-1.79Zm10.68,3.6c0,.36.11.41.88.41.56,0,.9-.05,1.14-.3a6.17,6.17,0,0,0,.95-2.45c0-.09.27-.06.27,0-.05.87-.14,1.62-.14,2s.09.38.32.54.43.31.43.63-.28.67-.91.85a8.75,8.75,0,0,1-2.27.22c-1.79,0-2.4-.38-2.4-1.48,0-.18,0-.77,0-1.57V100h-1.44c-.09,4.22-2.09,6.58-6.32,7.53-.09,0-.18-.2-.09-.23,3.24-1.55,4.48-3.53,4.61-7.3h-1.1a5.43,5.43,0,0,0-1,.11l-.2-.67a5,5,0,0,0,1.19.15h7c.63-.87.85-1,1-1s.36.14,1.08.72c.31.24.45.4.45.52s-.05.18-.23.18H481.3ZM482.74,94c.61-.69.76-.8.9-.8s.32.11,1.12.83c.36.33.47.47.47.62s-.22.32-.63.32a.92.92,0,0,0-.69.23,6.92,6.92,0,0,1-1.19.74c-.07,0-.18,0-.14-.11a8.07,8.07,0,0,0,.3-1.42h-7.34c0,1.48-.43,2.36-1.3,2.36a.8.8,0,0,1-.77-.83c0-.34.18-.59.63-.92a2,2,0,0,0,1.1-1.82c0-.09.16-.12.18,0,.05.29.1.56.12.83h2.76V92.59a13.2,13.2,0,0,0-.09-1.42c2.07.18,2.27.34,2.27.5s-.17.31-.51.45V94Zm-1.89,2.77c.72-.85.94-1,1.06-1s.36.14,1.06.7c.31.24.46.4.46.52s-.06.18-.24.18h-6.57a5.53,5.53,0,0,0-1,.11l-.2-.66a5.52,5.52,0,0,0,1.19.14Z"/><path class="cls-3" d="M497.12,96.5A12.88,12.88,0,0,1,502,94.86a3.54,3.54,0,0,1,2.67.86,2.52,2.52,0,0,1,.79,1.91,2.63,2.63,0,0,1-1.39,2.36,4.46,4.46,0,0,1-2.63.72,7.57,7.57,0,0,1-4-1.13c-.24-.15-.33-.2-.33-.35s.08-.07.15-.07a3.71,3.71,0,0,1,.5.13,8,8,0,0,0,2.47.25,6,6,0,0,0,2.41-.63c.85-.45,1.32-.94,1.32-1.78a1.31,1.31,0,0,0-.38-1,2.3,2.3,0,0,0-1.59-.58c-1.19,0-2.66.63-4.7,1.84-.52.31-1,.63-1.6,1l1.08,2.07c.85,1.66,1.5,3.1,2,4.29a3.44,3.44,0,0,1,.31,1.38,1,1,0,0,1-.9,1,.78.78,0,0,1-.54-.19c-.24-.18-.27-.54-.38-.89a47.13,47.13,0,0,0-2.5-7c-.33.24-.6.42-.9.67a6.39,6.39,0,0,0-.89.81.76.76,0,0,1-.63.32,2.2,2.2,0,0,1-1.36-.59,1.76,1.76,0,0,1-.82-1.23c0-.27.08-.37.17-.37s.18.09.29.16a1.62,1.62,0,0,0,1,.41,5.11,5.11,0,0,0,1.51-.59c.24-.11.63-.33,1.07-.58a11.17,11.17,0,0,0-.74-1.19,1.53,1.53,0,0,1-.31-.86,2.11,2.11,0,0,1,.6-1.42,1.12,1.12,0,0,1,.91-.43,19.56,19.56,0,0,1,2.49-.27,3.05,3.05,0,0,1-.52-1.48c0-.49.18-.87.34-.87s.16.09.22.31a2,2,0,0,0,.43.7,6.25,6.25,0,0,0,.93.81,1.72,1.72,0,0,1,.8,1.39.58.58,0,0,1-.63.63,1.12,1.12,0,0,1-.78-.31,4.72,4.72,0,0,0-1.33-.43,5,5,0,0,0-1.55-.07c-.59.09-.79.4-.79.77a1.29,1.29,0,0,0,.14.69c.11.21.34.66.85,1.53C495.93,97.11,496.53,96.82,497.12,96.5Z"/><path class="cls-3" d="M514.69,95.18c0,.9-.06,1.82-.11,2.72h1.19c.56-.74.7-.84.85-.84s.32.1.93.66c.27.24.38.38.38.52s0,.18-.43.47c-.2,3.78-.54,6.5-1,7.46a2.17,2.17,0,0,1-.7.86,2.09,2.09,0,0,1-1.26.38c-.22,0-.29-.07-.31-.29-.11-.74-.36-1-1.3-1.31-.09,0,0-.22,0-.22.81.07,1.28.09,1.48.09.54,0,.66-.09.84-.81a36.62,36.62,0,0,0,.63-6.55h-1.35c-.36,4.68-1.37,7.07-3.64,9.14-.07.06-.23-.09-.18-.16,1.64-2.79,2.33-6.14,2.33-11.59v-.53h-.47a7.71,7.71,0,0,0-1.15.11l-.2-.66a7.08,7.08,0,0,0,1.33.14h1.08V92.59c0-.29,0-.72-.07-1.33,2,.2,2.2.39,2.2.57s-.17.27-.51.45v2.49h.58c.65-.81.86-1,1-1s.34.14.94.68c.23.22.37.38.37.5s0,.18-.23.18Zm5.22-.45a10.2,10.2,0,0,1-2.34,2.47c-.07,0-.25,0-.2-.13A13.15,13.15,0,0,0,519,93.51a12.76,12.76,0,0,0,.45-2.32c1.89.39,2.3.55,2.3.81s-.18.32-.65.39a10.8,10.8,0,0,1-1,1.93h4.61c.88-1.08,1.1-1.23,1.22-1.23s.35.15,1.16.85c.36.33.5.49.5.61s0,.18-.23.18Zm.58,10.45c0,.61.1.72,2.41.72s2.7-.08,3-.27.43-.44,1.06-2.4c0-.09.23,0,.23,0,0,.54-.05,1.29-.05,1.64a.41.41,0,0,0,.27.46c.36.22.48.4.48.72,0,.49-.32.81-1.15,1a17.61,17.61,0,0,1-3.44.23c-3.71,0-4.37-.27-4.37-1.69,0-.45,0-.9,0-2.78,0-.82,0-1.63,0-2.46a4.6,4.6,0,0,0-1.07.41l-.34-.59a5,5,0,0,0,1.15-.2l.26-.07c0-1.14,0-2.27-.06-3.42,1.91.19,2.14.27,2.14.54s-.12.28-.55.46v2l1.44-.42V97.81a21.58,21.58,0,0,0-.09-2.37c1.58.14,2.1.28,2.1.55s-.16.29-.57.42v2.27l1.36-.4c.56-.85.74-1,.94-1a2.82,2.82,0,0,1,1.24.82c.13.15.22.27.22.36s-.13.31-.52.56a26.87,26.87,0,0,1-.29,3.73,2,2,0,0,1-.58,1.12,1.62,1.62,0,0,1-1.1.39c-.23,0-.25,0-.25-.48s-.36-.8-1-1.07c0,.56,0,1,0,1.21,0,.47-.27.65-.92.65-.48,0-.63-.13-.63-.6s.06-1.85.08-4.39l-1.44.42Zm2.88-6.07c0,.56,0,1.1,0,1.66v1.63a4.83,4.83,0,0,0,1,.11.49.49,0,0,0,.52-.48,27.62,27.62,0,0,0,.2-3.41Z"/><path class="cls-3" d="M537.51,94.88c.78-1,1-1.1,1.12-1.1s.36.14,1.15.77c.34.27.49.44.49.56s-.06.18-.24.18h-5.69a8.57,8.57,0,0,0-1.22.11l-.2-.67a7.41,7.41,0,0,0,1.44.15Zm-2.23,11.54V107c0,.47-.32.7-.92.7s-.75-.18-.75-.61,0-1.14,0-3.44a24.59,24.59,0,0,0-.11-2.56,16.54,16.54,0,0,1,1.91.9h1.8c.63-.75.78-.86.92-.86s.32.11,1,.63c.29.25.4.38.4.52s-.13.32-.52.59v.6c0,1.55.07,2.61.07,3s-.33.7-1,.7c-.48,0-.72-.16-.72-.55v-.13Zm1.39-14c.79-.94,1-1.08,1.13-1.08s.36.14,1.12.75c.32.27.46.43.46.56s0,.18-.23.18h-4.21a6.36,6.36,0,0,0-1.06.11l-.2-.67a5.63,5.63,0,0,0,1.26.15Zm.16,4.82c.68-.88.9-1,1-1s.36.14,1,.72c.31.25.45.41.45.54s-.06.18-.23.18H535a6.66,6.66,0,0,0-1.09.1l-.2-.66a5.87,5.87,0,0,0,1.29.14Zm0,2.32c.68-.88.9-1,1-1s.36.14,1.06.72c.31.25.45.41.45.54s-.06.18-.23.18H535a6.79,6.79,0,0,0-1.08.11l-.19-.67a5.7,5.7,0,0,0,1.27.14Zm.59,2.8h-2.12V106h2.12Zm8.43-3.26c.74-.72.88-.83,1-.83s.34.11,1.08.7c.34.27.45.4.45.54s-.2.38-.67.56a14.14,14.14,0,0,1-2.39,3.69,10.52,10.52,0,0,0,4.32,1.62.09.09,0,0,1,0,.18c-.61.18-.85.52-1,1.37-.05.27-.12.38-.25.38a3.12,3.12,0,0,1-.68-.25,8.72,8.72,0,0,1-3.35-2.35,14.39,14.39,0,0,1-5.31,2.72c-.09,0-.18-.19-.09-.23a14,14,0,0,0,4.59-3.51,13.81,13.81,0,0,1-1.78-4.18h-.29a4.4,4.4,0,0,0-1.05.14l-.19-.7a6,6,0,0,0,1.31.15ZM549,95.6c0,.27.07.34.36.45a.56.56,0,0,1,.25.54c0,.38-.23.66-.72.83a5.62,5.62,0,0,1-1.74.21c-1.59,0-2.15-.39-2.15-1.53,0-.7,0-.88,0-1.58V92.68h-2.11V93a7.2,7.2,0,0,1-.57,3.21,5.71,5.71,0,0,1-2.7,2.16c-.08,0-.24-.07-.17-.13a5,5,0,0,0,1.54-2.5,8.65,8.65,0,0,0,.21-2.18,19.72,19.72,0,0,0-.12-2.16,19.1,19.1,0,0,1,1.87.85h2c.58-.67.68-.76.88-.76s.33.07.92.58a1,1,0,0,1,.36.46c0,.19-.13.33-.47.53v2.79c0,.29.13.34.7.34s.67,0,.85-.22a3.68,3.68,0,0,0,.59-1.6c0-.09.22-.09.22,0Zm-6.93,3.94a9.34,9.34,0,0,0,2.12,3.31,10.61,10.61,0,0,0,1.69-3.31Z"/><path class="cls-3" d="M562.71,98.71a7.85,7.85,0,0,0,3.8,1.32,5.32,5.32,0,0,0,3.69-1.43.22.22,0,0,1,.17-.07.12.12,0,0,1,.1.13c0,.07,0,.11-.05.14-1.28,1.5-2.54,2.52-4.21,2.52a7,7,0,0,1-3.5-1.11,7.77,7.77,0,0,0-3.81-1.34,5.37,5.37,0,0,0-3.66,1.41.22.22,0,0,1-.16,0,.1.1,0,0,1-.11-.1.19.19,0,0,1,0-.15c1.29-1.48,2.52-2.47,4.19-2.47A6.92,6.92,0,0,1,562.71,98.71Z"/><path class="cls-3" d="M578.37,99.7a.86.86,0,0,1,0,.27,4.33,4.33,0,0,0-.31,1.66,1.89,1.89,0,0,0,1,1.66,7.78,7.78,0,0,0,3.49.64,11.15,11.15,0,0,0,3.17-.37,5,5,0,0,1,1.13-.15c1.07,0,1.43.56,1.43,1s-.45.82-1.07.93a16.6,16.6,0,0,1-1.85.24c-.88.07-1.77.09-2.32.09a9.79,9.79,0,0,1-3.41-.6,3.88,3.88,0,0,1-1.67-1.26,2.6,2.6,0,0,1-.54-1.82,4.12,4.12,0,0,1,.74-2.23c.07-.11.14-.16.21-.16S578.37,99.63,578.37,99.7Zm.22-5.76c.38.51,1.17.76,2.83.76a9.54,9.54,0,0,0,3-.51,3.56,3.56,0,0,1,.66-.09,2.69,2.69,0,0,1,.74.09c.54.15.89.36.9.81s-.11.54-.48.69a5.74,5.74,0,0,1-1.19.16,14.41,14.41,0,0,0-2.67.49,10.76,10.76,0,0,0-2.34,1,2.8,2.8,0,0,1-.57.28c-.09,0-.13,0-.13-.1s.5-.53,1.67-1.46a3.94,3.94,0,0,1-2-.7,2.37,2.37,0,0,1-.84-1.39c0-.13,0-.18.14-.18S578.54,93.87,578.59,93.94Zm10-.54a1.34,1.34,0,0,1,.67,1.08.61.61,0,0,1-.6.63.65.65,0,0,1-.61-.41,6.73,6.73,0,0,0-1.13-1.59c-.08-.07-.2-.16-.2-.23s0-.09.09-.11a.71.71,0,0,1,.29,0A3.47,3.47,0,0,1,588.58,93.4Zm1.66-1.21a1.18,1.18,0,0,1,.65.92.61.61,0,0,1-.56.67.69.69,0,0,1-.67-.4A4.52,4.52,0,0,0,588.4,92c-.07-.06-.21-.15-.21-.22s0-.09,0-.11a.52.52,0,0,1,.29,0A3.67,3.67,0,0,1,590.24,92.19Z"/><path class="cls-3" d="M600,106.35V107c0,.5-.3.73-1,.73s-.77-.19-.77-.61c0-1.58.07-3.26.07-9.61,0-1.48,0-3-.07-4.45a19.41,19.41,0,0,1,2,1h1.63c.21-.61.41-1.24.55-1.8a5.56,5.56,0,0,0,.22-1.22c1.78.45,2.23.65,2.23.9s-.16.29-.66.38A11.28,11.28,0,0,1,602.46,94h5c.63-.68.77-.79.92-.79s.36.09,1.08.63c.34.25.47.43.47.58s-.09.29-.58.63v1.82c0,5.22.07,8.85.07,10,0,.53-.29.74-1,.74s-.78-.16-.78-.65v-.66Zm7.69-11.92H600v3.33h7.69Zm0,3.74H600v3.46h7.69Zm0,3.87H600v3.89h7.69Z"/><path class="cls-3" d="M630.52,93.89c.74-.87.88-1,1-1s.32.11,1.38,1.07c.49.45.6.57.6.72s-.18.38-.78.38c-.39,0-.54,0-.75.16a10.36,10.36,0,0,1-1.62,1c-.08,0-.22,0-.18-.14a7,7,0,0,0,.56-1.77h-11c.07,1.42-.49,2.4-1.43,2.4a.9.9,0,0,1-.91-1,.84.84,0,0,1,.57-.86,2,2,0,0,0,1.32-2c0-.09.18-.11.2,0a5.89,5.89,0,0,1,.21,1h4.58V92.74a14.22,14.22,0,0,0-.06-1.46c2.22.21,2.43.41,2.43.61s-.21.34-.61.5v1.5Zm-7.27,4.43a30.28,30.28,0,0,1-5,.52c-.09,0-.09-.24,0-.25a29.63,29.63,0,0,0,7.47-2.43,6,6,0,0,0,2-1.43c1.51,1,1.93,1.37,1.93,1.64s-.18.27-1.1.15A18.4,18.4,0,0,1,625,97.9v3l5-.68c.9-1.32,1-1.43,1.18-1.43s.38.11,1.34.71c.46.3.57.41.57.55s-.09.18-.21.2L625,101.34v3c0,1.35.12,1.41,2.81,1.41,2.05,0,2.7-.13,3-.53a9.28,9.28,0,0,0,1-2.41c0-.09.18-.09.18,0,0,.63-.07,1.42-.07,2,0,.22.05.31.3.4a.66.66,0,0,1,.52.65c0,.54-.36.92-1.22,1.13a18.24,18.24,0,0,1-4.16.33c-3.44,0-4.12-.56-4.12-2.33v-3.45l-4.31.59a9,9,0,0,0-1.11.25l-.25-.63a11.06,11.06,0,0,0,1.29,0l4.38-.6Z"/><path class="cls-3" d="M642,93.71a8.94,8.94,0,0,1-3.12,2.84c-.07,0-.2-.07-.14-.14a12.8,12.8,0,0,0,2-3.19,9,9,0,0,0,.63-2.14c1.8.52,2.18.68,2.18.92s-.18.3-.74.36a8.65,8.65,0,0,1-.54.93h2.32c.69-.81.9-1,1-1s.38.14,1.08.68c.3.24.45.38.45.51s-.06.18-.24.18h-4c1.3.38,1.82.83,1.82,1.49a.87.87,0,0,1-.86.92c-.51,0-.6-.13-.76-1.06a2.61,2.61,0,0,0-.59-1.35Zm6.55,0A8.46,8.46,0,0,1,647,95.2c.77.13.91.25.91.36s-.1.31-.5.45v.87h3.15c.79-.89,1-1,1.13-1s.37.14,1.09.72c.3.25.45.41.45.54s-.06.18-.24.18h-5.58v2.16H652c.86-1,1.08-1.12,1.2-1.12s.36.15,1.15.8c.35.27.49.43.49.55s-.05.18-.23.18H640.26a6.47,6.47,0,0,0-1.07.11l-.19-.66a5.67,5.67,0,0,0,1.2.14h5.58V97.29h-3.6a6.46,6.46,0,0,0-1.06.11l-.2-.67a5,5,0,0,0,1.19.15h3.67V96.7a15.36,15.36,0,0,0-.07-1.66l.9.09a11.41,11.41,0,0,0,1.06-2.22,10.77,10.77,0,0,0,.49-1.8c1.46.33,2.07.6,2.07.85s-.2.32-.74.41c-.18.33-.38.64-.57.92h3.36c.78-.93,1-1.08,1.12-1.08s.38.15,1.19.76c.38.29.52.43.52.56s-.05.18-.23.18h-5c1.21.3,1.75.74,1.75,1.38a.93.93,0,0,1-.86.94c-.47,0-.63-.2-.78-1a2.4,2.4,0,0,0-.61-1.28Zm2.16,10.67c0,.58,0,1.46,0,2a1.32,1.32,0,0,1-.41,1,2.53,2.53,0,0,1-1.66.47c-.29,0-.31,0-.4-.53s-.54-.9-2-1.24c-.09,0-.09-.25,0-.25.81,0,1.78.14,2.47.14.21,0,.29-.05.29-.29v-3.29h-8.75a6.57,6.57,0,0,0-1.07.11l-.19-.67a4.88,4.88,0,0,0,1.18.15h8.83v-.33a8,8,0,0,0-.11-1.44c2,.23,2.25.27,2.25.54s-.11.22-.49.38v.85h1.32c.77-.89,1-1,1.11-1s.36.14,1.08.72c.31.25.45.41.45.54s-.05.18-.23.18h-3.73ZM644.81,106c-.48,0-.59-.13-1-1.26a3.42,3.42,0,0,0-1.17-1.71c-.07,0,0-.18.09-.16,1.85.27,3,1.08,3,2.07A1,1,0,0,1,644.81,106Z"/><path class="cls-3" d="M660.56,90.79a12.6,12.6,0,0,1,3.64,3.89,9.21,9.21,0,0,1,0,9.4,12.47,12.47,0,0,1-3.62,3.87c-.13.09-.18.11-.24.11s-.09,0-.09-.11,0-.11.17-.23A11.17,11.17,0,0,0,660.34,91c-.07-.07-.09-.11-.09-.16a.12.12,0,0,1,.13-.11S660.47,90.74,660.56,90.79Z"/><rect class="cls-3" x="299.96" y="97.52" width="9.19" height="9.19" transform="translate(17 245.27) rotate(-45)"/><rect class="cls-3" x="299.96" y="135.64" width="9.19" height="9.19" transform="translate(-9.96 256.43) rotate(-45)"/><path class="cls-3" d="M837.08,95.83a11.57,11.57,0,0,0,3.2,2.16,14.25,14.25,0,0,0,4.59,1.1c.09,0,.09.13,0,.16-.48.2-.66.45-.88,1.14-.16.48-.22.54-.4.54a2.54,2.54,0,0,1-.66-.18,14.5,14.5,0,0,1-2.56-1.28A12.88,12.88,0,0,1,837,96.34c0,1.71,0,2.3,0,2.86s-.33.68-1,.68c-.43,0-.69-.16-.69-.56,0-.68,0-1.51,0-2.5a13.58,13.58,0,0,1-3.73,2.86,10.54,10.54,0,0,1,1.64.83h5.91c.59-.68.73-.79.88-.79s.34.11,1,.63c.34.25.43.4.43.54s-.11.29-.47.54v.9c0,2.25.09,3.89.09,4.43s-.34.74-1,.74c-.5,0-.74-.18-.74-.56v-.52h-6.28v.41c0,.45-.33.69-1,.69-.5,0-.72-.18-.72-.6,0-.66.09-1.38.09-4,0-1.05,0-2.07-.07-3.12a18.4,18.4,0,0,1-3.51,1.32c-.09,0-.18-.18-.09-.22a15.39,15.39,0,0,0,6.25-5.08h-4.25a6.57,6.57,0,0,0-1.07.11l-.19-.67a5.15,5.15,0,0,0,1.2.15h5.62V93.56a54.46,54.46,0,0,1-5.51.13c-.09,0-.11-.25,0-.25a37.53,37.53,0,0,0,9-1.73,13.89,13.89,0,0,0,1.37-.61c1.48,1,1.73,1.22,1.73,1.44s-.27.34-1.1.16a27.91,27.91,0,0,1-3.89.7v2h4c1-1.08,1.18-1.23,1.3-1.23s.36.15,1.23.87c.37.3.52.47.52.59s-.06.18-.24.18Zm2.37,5.1h-6.28v2.19h6.28Zm0,2.61h-6.28V106h6.28Z"/><path class="cls-3" d="M855.36,93.53a20.91,20.91,0,0,0-.07-2.11c2.13.22,2.31.43,2.31.63s-.24.32-.63.47v1.93h1.91v-.92a19.71,19.71,0,0,0-.1-2.11c2.13.22,2.29.43,2.29.63s-.2.32-.59.47v1.93h1.74c.69-.78.83-.89,1-.89s.32.11,1,.69c.31.27.42.39.42.54s-.09.27-.51.57v7.3c.6-1.08.81-1.23.94-1.23s.32.15,1,.87c.29.28.43.46.43.59s0,.18-.23.18H851.15a9.61,9.61,0,0,0-1.31.11l-.2-.67a7.62,7.62,0,0,0,1.47.15h.65V97.58a39.78,39.78,0,0,0-.16-4.07,9.12,9.12,0,0,1,2,.94h1.73Zm.51,11.66a11.36,11.36,0,0,1-5.73,2.51c-.09,0-.16-.22-.07-.25a12.86,12.86,0,0,0,3.37-2.4,6.22,6.22,0,0,0,1.08-1.4c1.73.75,2.14,1,2.14,1.18S856.46,105.19,855.87,105.19Zm-2.45-10.33v3.49h1.94V94.86Zm0,3.91v3.89h1.94V98.77ZM857,94.86v3.49h1.91V94.86Zm0,7.8h1.91V98.77H857Zm6.89,5c-.43,0-.59-.15-1-.71a10,10,0,0,0-3.62-2.8c-.07,0,0-.22.06-.2,3.74.43,5.49,1.28,5.49,2.68A.94.94,0,0,1,863.86,107.61Zm-3.38-9.26h2V94.86h-2Zm0,4.31h2V98.77h-2Z"/><path class="cls-3" d="M875.43,103.72a2.72,2.72,0,0,0,1.71,1.51,15.08,15.08,0,0,0,4.09.41,54.81,54.81,0,0,0,6.91-.45c.09,0,.09.17,0,.2a1.14,1.14,0,0,0-.7,1c-.05.56-.09.61-.43.65-1,.13-3.1.16-4.4.16-3,0-4.75-.23-5.9-.95a4.47,4.47,0,0,1-1.8-2.65,12.9,12.9,0,0,1-2.07,2.72c.07.68-.07.83-.31.83s-.66-.65-1.33-2.2a9.41,9.41,0,0,0,1.3-.47,7.61,7.61,0,0,0,1.24-.7V99.05h-1.24a3.45,3.45,0,0,0-1,.15l-.2-.72a4.6,4.6,0,0,0,1.19.16h1.13c.52-.72.67-.83.81-.83s.34.11,1.06.63c.35.25.45.38.45.52s-.05.18-.54.58Zm-1-8.55c-.41,0-.63-.22-.88-1.12a5.27,5.27,0,0,0-1.15-2.11c-.07-.07.05-.18.14-.16,2.11.52,2.89,1.39,2.89,2.31A1,1,0,0,1,874.42,95.17Zm9.82.68c.63-.77.77-.88.92-.88s.32.11,1.06.72c.32.27.43.39.43.54s-.11.29-.56.52a12,12,0,0,1-1.71,3.57c2,1.31,2.58,2.41,2.58,3.18s-.35,1.1-.81,1.1-.62-.23-1-.83a20.11,20.11,0,0,0-1.69-2.34,13.3,13.3,0,0,1-5.89,3.48c-.09,0-.18-.18-.11-.22a15.17,15.17,0,0,0,5-4.3,14.24,14.24,0,0,0-2.5-2.07c-.07-.06,0-.27.12-.24a28.62,28.62,0,0,1,3,1.43,11.62,11.62,0,0,0,1.29-3.25h-4.84a20.84,20.84,0,0,1-.43,3.71,7.92,7.92,0,0,1-2.79,4.41c-.08.06-.22-.09-.17-.16a9.43,9.43,0,0,0,1.61-4.57,43.05,43.05,0,0,0,.2-5,28,28,0,0,0-.15-3.19,13,13,0,0,1,2,1.1h5c.8-1.06.94-1.17,1.08-1.17s.35.11,1.23.79c.41.34.52.47.52.61s-.07.18-.27.18h-7.69v.6c0,.84,0,1.62-.05,2.32Z"/><path class="cls-3" d="M896.93,95.11a23.82,23.82,0,0,0-.31,3.17c-.14,1.89-.22,3.53-.22,4.66,0,.94.15,1.46.42,1.71a2.79,2.79,0,0,0,1.73.42,8.88,8.88,0,0,0,3.92-1.1,10.49,10.49,0,0,0,3.15-2.43c.11-.13.22-.23.33-.23a.17.17,0,0,1,.18.18,1.66,1.66,0,0,1-.24.5,10.27,10.27,0,0,1-3.13,3.2,8.08,8.08,0,0,1-4.81,1.46c-1.89,0-3-1.29-3-3.51.08-3,.2-6,.27-8.69,0-.67-.11-1-.68-1.19s-.56-.2-.56-.31.13-.23.31-.32a2.33,2.33,0,0,1,.82-.16,2.75,2.75,0,0,1,1.73.81,1.26,1.26,0,0,1,.53.91.9.9,0,0,1-.26.62C897.05,94.91,897,95,896.93,95.11Z"/><rect class="cls-3" x="797.97" y="97.52" width="9.19" height="9.19" transform="translate(162.86 597.41) rotate(-45)"/><path class="cls-3" d="M829.51,137.76a11,11,0,0,1-1.69,1.22c-.07.05-.2-.11-.14-.18a16.52,16.52,0,0,0,2.55-3.8,10.18,10.18,0,0,0,.76-2c1.84.76,1.91.81,1.91,1s-.15.27-.61.37a14.33,14.33,0,0,1-1.44,2c.59.09.68.18.68.35s-.11.25-.47.43v7.67c0,.52-.3.75-.92.75-.37,0-.75-.16-.75-.68s.12-1.89.12-4.74Zm2.76-7.44a12.87,12.87,0,0,1-4.31,3.75c-.07,0-.19-.15-.12-.2a14,14,0,0,0,2.39-3.35,8.48,8.48,0,0,0,.67-1.66c1.4.49,2.13.88,2.13,1.14S832.81,130.28,832.27,130.32Zm4.64,1.53c.54-.72.76-.86.89-.86s.34.14.9.61c.23.2.37.36.37.48s-.05.18-.23.18H836.7v2.81h.5c.56-.72.78-.86.9-.86s.35.14.9.61c.24.2.38.36.38.49s0,.18-.23.18H836.7v2.77h.5c.45-.65.67-.79.79-.79s.35.14.87.57c.2.17.34.33.34.45s-.05.18-.23.18H836.7v3.17a19.1,19.1,0,0,0,2.39-.5.2.2,0,0,1,.11.31,33.64,33.64,0,0,1-6.43,2.34c-.07.41-.18.59-.36.59s-.29-.2-.86-2.16c.32,0,.66,0,1,0v-4a11.28,11.28,0,0,0-.09-1.42c1.86.18,2,.34,2,.5s-.16.31-.47.45v4.29l1.16-.14v-6.61h-1.64a4.67,4.67,0,0,0-1,.11l-.2-.67a4.36,4.36,0,0,0,1.11.14h1.72v-2.81H834a8.47,8.47,0,0,1-1.44,1.21c-.07.06-.21-.05-.16-.13a11.81,11.81,0,0,0,1.33-2.77,9.8,9.8,0,0,0,.4-1.62c1.51.42,2.07.65,2.07.9s-.23.34-.77.38a8.28,8.28,0,0,1-1.07,1.62Zm5.48-1.3c.63-.75.77-.86.92-.86s.32.11,1,.65c.29.25.39.38.39.52s-.1.31-.48.59v1.37c0,7.31,0,8.14,0,8.75a1.54,1.54,0,0,1-.39,1.07,1.67,1.67,0,0,1-1.23.46c-.21,0-.28-.1-.32-.46-.07-.62-.27-.83-1.06-1.17-.09,0-.09-.22,0-.22.39,0,.66,0,1.11,0,.22,0,.27-.07.27-.27V131H841v13.95c0,.47-.29.69-.92.69-.43,0-.67-.15-.67-.54,0-.71.08-2,.08-12,0-1.67,0-2.39-.09-3.46a10.62,10.62,0,0,1,1.71.9Z"/><path class="cls-3" d="M855,142.74c0,.65-.27.87-1,.87-.54,0-.72-.2-.72-.7,0-.72.06-1.46.06-4.4,0-.34,0-.68,0-1a15.35,15.35,0,0,1-3.76,2.66c-.08,0-.2-.14-.13-.2a18.4,18.4,0,0,0,5.29-7.16h-3a15.06,15.06,0,0,0-1.65.1l-.2-.66a12.3,12.3,0,0,0,1.87.14h3.13a7.77,7.77,0,0,0,.33-.92,12.83,12.83,0,0,0,.56-2.52c2,.31,2.46.47,2.46.8s-.12.32-.68.48c-.27.78-.56,1.5-.85,2.16h6.11c1-1.2,1.2-1.35,1.33-1.35s.36.15,1.35.94c.45.36.59.52.59.65s-.05.18-.23.18h-9.33a17.62,17.62,0,0,1-1.85,3.17c.12.09.29.18.52.32h2.58v-.86a17.1,17.1,0,0,0-.09-1.91c2.19.23,2.3.27,2.3.54s-.12.3-.63.5v1.73h2.88c.69-.74.83-.85,1-.85s.33.11,1,.69c.31.27.42.39.42.54s-.13.3-.49.52V138c0,3.21,0,3.44,0,4a1.37,1.37,0,0,1-.49,1.06,2.2,2.2,0,0,1-1.39.43c-.32,0-.39,0-.43-.32-.09-.79-.3-1-1.66-1.35-.09,0-.09-.22,0-.22.87,0,1.41.06,1.93.06.27,0,.33-.06.33-.33v-4.63h-3.12c0,4.22,0,7.13,0,8.12,0,.51-.33.72-1,.72s-.73-.16-.73-.66c0-.87.07-3.35.09-8.18H855Z"/><path class="cls-3" d="M874.79,133c0,.9-.06,1.82-.11,2.72h1.19c.55-.74.7-.85.84-.85s.33.11.94.67c.27.23.38.38.38.52s-.06.18-.44.47c-.19,3.78-.54,6.5-1,7.45a2.14,2.14,0,0,1-.71.87,2,2,0,0,1-1.26.37c-.21,0-.29-.07-.3-.28-.11-.74-.36-1-1.3-1.32-.09,0,0-.21,0-.21.81.07,1.27.09,1.47.09.54,0,.67-.09.85-.81a36.76,36.76,0,0,0,.63-6.56h-1.35c-.36,4.68-1.37,7.08-3.64,9.15-.07.05-.23-.09-.18-.16,1.64-2.79,2.32-6.14,2.32-11.6V133h-.46a6.59,6.59,0,0,0-1.16.11l-.19-.67a6.27,6.27,0,0,0,1.33.14h1.08v-2.17c0-.29,0-.72-.07-1.34,2,.2,2.19.4,2.19.58s-.16.27-.5.45v2.48H876c.64-.81.86-.95,1-.95s.34.14.93.68c.24.22.38.38.38.51s0,.18-.23.18Zm5.22-.45a10.39,10.39,0,0,1-2.34,2.47c-.08.05-.26-.06-.2-.13a13.35,13.35,0,0,0,1.65-3.57,11.25,11.25,0,0,0,.45-2.32c1.89.4,2.31.56,2.31.81s-.18.33-.65.4a11.82,11.82,0,0,1-1,1.92h4.61c.88-1.08,1.09-1.22,1.22-1.22s.34.14,1.15.85c.36.32.51.48.51.61s-.06.18-.24.18Zm.57,10.44c0,.61.11.72,2.42.72s2.7-.07,3-.27.43-.43,1.06-2.39c0-.09.24-.06.24,0,0,.54-.06,1.3-.06,1.64a.44.44,0,0,0,.27.47c.37.22.49.4.49.72,0,.49-.32.81-1.15,1a17.68,17.68,0,0,1-3.44.23c-3.71,0-4.38-.27-4.38-1.69,0-.45,0-.9,0-2.77,0-.83,0-1.64,0-2.47a4.2,4.2,0,0,0-1.06.42l-.34-.6a5,5,0,0,0,1.15-.2l.25-.07c0-1.13,0-2.27,0-3.42,1.91.2,2.14.27,2.14.54s-.13.29-.56.47v2l1.44-.41v-1.28a21.67,21.67,0,0,0-.09-2.38c1.59.14,2.11.29,2.11.56s-.16.29-.58.41v2.27l1.37-.39c.56-.85.74-1.05.94-1.05a2.85,2.85,0,0,1,1.24.83.69.69,0,0,1,.22.36c0,.18-.13.31-.53.56a27.13,27.13,0,0,1-.28,3.72,2,2,0,0,1-.58,1.12,1.67,1.67,0,0,1-1.1.4c-.23,0-.25,0-.25-.49s-.36-.79-1-1.06c0,.56,0,1,0,1.21,0,.46-.27.64-.92.64-.49,0-.63-.12-.63-.59s0-1.86.07-4.39l-1.44.41Zm2.88-6.07c0,.56,0,1.1,0,1.66v1.64a4.82,4.82,0,0,0,1,.11c.29,0,.47-.15.53-.49a28.06,28.06,0,0,0,.19-3.4Z"/><path class="cls-3" d="M898.33,137.14a1.61,1.61,0,1,1-1.62-1.62A1.61,1.61,0,0,1,898.33,137.14Z"/><path class="cls-3" d="M912.53,138.1c0,2.32,0,4,0,4.55s-.34.71-1,.71-.74-.2-.74-.63,0-1.91.09-4.63h-1.46a9.84,9.84,0,0,1-1.06,3.94,7.88,7.88,0,0,1-2.54,2.54c-.07,0-.26-.13-.2-.2a7,7,0,0,0,1.73-3,15.57,15.57,0,0,0,.47-3.28h-.6a5.91,5.91,0,0,0-1.1.11l-.19-.67a5.87,5.87,0,0,0,1.29.14h.61c0-.52,0-1.09,0-1.72a17,17,0,0,0-.09-2c1.89.2,2.22.29,2.22.54s-.17.29-.47.41c0,1.05,0,2-.07,2.79H911V136.1a15.21,15.21,0,0,0-.09-2.14c1.78.19,2.21.29,2.21.56s-.11.3-.54.48v2.68h.22c.57-.84.79-1,.92-1s.32.15.93.71c.24.21.38.39.38.52s-.05.18-.23.18Zm3.71-5.13a19.34,19.34,0,0,0,.9,5.58,11.66,11.66,0,0,0,.63-1.28,10.33,10.33,0,0,0,.74-2.59c1.55.48,2.11.74,2.11,1s-.17.27-.63.38a16.9,16.9,0,0,1-2.09,4.14,8.09,8.09,0,0,0,1.94,2.23,1.45,1.45,0,0,0,.6.36c.19,0,.46-.47,1.27-2,0-.07.18,0,.17,0-.27,2-.29,2.14-.29,2.25s0,.34.34.79a1.16,1.16,0,0,1,.16.63c0,.49-.27.74-.79.74a4.05,4.05,0,0,1-2.07-1,10.5,10.5,0,0,1-2.47-2.68A13.18,13.18,0,0,1,911.2,145c-.09,0-.2-.16-.13-.2a16.34,16.34,0,0,0,5-4.55A20,20,0,0,1,914.6,133h-7.36a8.8,8.8,0,0,0-1.26.1l-.2-.66a7.5,7.5,0,0,0,1.46.14h7.34c0-.47,0-1-.05-1.46a19.86,19.86,0,0,0-.11-2c1.91.21,2.34.34,2.34.61s-.14.3-.57.56c0,.84,0,1.6,0,2.28H919c.68-1,.9-1.19,1-1.19s.34.15,1.15.83c.36.31.51.47.51.6s-.06.18-.24.18Zm2.38-1c-.33,0-.45-.12-.72-.81a3.53,3.53,0,0,0-.94-1.35c-.07,0,0-.14,0-.12,1.59.18,2.38.64,2.38,1.4A.84.84,0,0,1,918.62,132Z"/><path class="cls-3" d="M938,131.36c.76-.81.9-.91,1-.91s.32.1,1.1.81c.34.3.45.45.45.59s-.09.31-.79.52a18.6,18.6,0,0,1-6.2,6.38h6c.67-.75.81-.86,1-.86s.32.11,1,.68c.31.27.42.4.42.54s-.13.27-.51.53v.84c0,2.22.08,3.73.08,4.23s-.35.71-1.08.71c-.56,0-.74-.17-.74-.63v-.47H933.5v.43c0,.5-.3.7-1,.7-.55,0-.75-.16-.75-.65,0-.73.11-1.47.11-4.44,0-.22,0-.45,0-.67a27.59,27.59,0,0,1-4.39,1.64c-.09,0-.18-.18-.09-.22a23.66,23.66,0,0,0,6.59-4.21.79.79,0,0,1-.2,0c-.38,0-.58-.24-.76-.89a4.14,4.14,0,0,0-1.13-2.05,16.57,16.57,0,0,1-3.93,2.36c-.09,0-.21-.13-.14-.18a17.33,17.33,0,0,0,4.61-4.95,10.92,10.92,0,0,0,1.13-2.43c1.8.41,2.2.59,2.2.9s-.15.34-.69.48c-.23.42-.48.8-.73,1.17Zm-4,.42a13.9,13.9,0,0,1-1.93,2.05c1.57.42,2.52,1.21,2.52,2.09a1.13,1.13,0,0,1-.1.49,19.55,19.55,0,0,0,3.61-4.63Zm5.8,7.4H933.5v4.73h6.27Z"/><path class="cls-3" d="M953.5,137.41c0,2.16,0,6.25,0,7.37,0,.52-.34.72-1,.72-.48,0-.7-.15-.7-.58,0-.7.18-3.74.22-6.34a12.83,12.83,0,0,1-3.37,4c-.07,0-.2-.08-.14-.15a21,21,0,0,0,3.27-6.82H950.2a5.79,5.79,0,0,0-1.08.11l-.19-.67a5.09,5.09,0,0,0,1.2.14H952v-3.78c0-1,0-1.6-.07-2.43,2,.29,2.16.33,2.16.6s-.15.27-.56.46v5.15h.86c.56-.77.78-.91.9-.91s.35.14.94.64c.25.22.4.38.4.51s-.06.18-.24.18H953.5v1.33c1.64.41,2.63,1.08,2.63,2.09a.86.86,0,0,1-.78.86c-.39,0-.66-.09-.88-.84a4.14,4.14,0,0,0-1-1.66Zm-2.79-3.07c-.45,0-.58-.2-.7-1.25a6.85,6.85,0,0,0-.69-2.57c0-.07.07-.18.15-.13,1.35,1,2,2,2,2.88C951.46,133.87,951.16,134.34,950.71,134.34Zm5.47-2.67a13.33,13.33,0,0,1-2,2.7c0,.07-.22,0-.18-.09a20.75,20.75,0,0,0,.77-2.56,11.55,11.55,0,0,0,.26-1.42c1.53.6,1.89.79,1.89,1S956.67,131.62,956.18,131.67Zm7.1,7.56c.54-1.06.68-1.22.82-1.22s.36.11,1.08.56c.33.19.44.3.44.45a.23.23,0,0,1-.2.21l-2.31.43c0,2.65.08,4.25.08,5,0,.54-.33.77-1.05.77-.56,0-.77-.18-.77-.63,0-.83,0-2.36,0-4.84l-4.39.83a7.26,7.26,0,0,0-1.26.38l-.34-.65a7.14,7.14,0,0,0,1.44-.13l4.55-.85c0-1.83,0-4.15,0-7,0-1.63,0-2.34-.09-3.38,1.88.18,2.36.31,2.36.61s-.12.25-.59.49v2.88c0,2.47,0,4.48,0,6.14Zm-4.2-1c-.4,0-.58-.14-.76-.63a4,4,0,0,0-1.53-2c-.07-.06,0-.17.08-.17,2.09.2,3.08.78,3.08,1.8A.93.93,0,0,1,959.08,138.26Zm.56-4.27c-.42,0-.47-.07-.94-1.11a3.48,3.48,0,0,0-1.29-1.55.09.09,0,0,1,.05-.16c2,.18,3.1.82,3.1,1.85A.91.91,0,0,1,959.64,134Z"/><rect class="cls-3" x="797.97" y="135.29" width="9.19" height="9.19" transform="translate(136.16 608.47) rotate(-45)"/><rect class="cls-3" x="1094.47" y="96.52" width="9.19" height="9.19" transform="translate(250.41 806.77) rotate(-45)"/><path class="cls-3" d="M1128.46,99.23c-.08.27-.16.52-.25.77s-.32.41-.84.41-.87-.14-.87-.39a.6.6,0,0,1,.06-.27,24,24,0,0,0,.84-3,13.18,13.18,0,0,0,.29-2.44,9.5,9.5,0,0,1,1.69.84h3.12V91.86h-4.43a3.07,3.07,0,0,0-.92.15l-.2-.73a4.25,4.25,0,0,0,1.19.17h4.27c.57-.67.72-.78.86-.78s.33.11,1,.6c.28.25.39.37.39.52s0,.18-.48.54v.61c0,1.59,0,2.68,0,3s-.31.71-1,.71c-.49,0-.72-.17-.72-.54v-.63h-3.24a26.88,26.88,0,0,1-.69,3.29h3.84c.61-.65.75-.76.9-.76s.32.11,1,.63c.27.24.38.37.38.51s-.05.18-.5.54a14.53,14.53,0,0,1-1.12,5.13,2.79,2.79,0,0,1-1.21,1.33,2.28,2.28,0,0,1-1.19.29c-.41,0-.43-.12-.52-.65s-.59-.88-1.78-1.37c-.09,0,0-.28.06-.27a11.65,11.65,0,0,0,2.37.42c.34,0,.6-.13.85-.69a15.25,15.25,0,0,0,.9-4.69Zm11.44-4.42c0,4.81.12,9.74.12,10.93,0,.54-.36.81-1.17.81-.54,0-.79-.18-.79-.65,0-.73.11-3,.11-7.5,0-6,0-7-.16-7.87,2.21.16,2.52.21,2.52.5s-.07.31-.63.58Z"/><path class="cls-3" d="M1149.11,95.41a2.6,2.6,0,0,1-1.39-1.14.49.49,0,0,1-.07-.19c0-.08,0-.15.13-.15a.32.32,0,0,1,.23.09,2.68,2.68,0,0,0,1.71.58,13.19,13.19,0,0,0,3.53-.69c-.11-.37-.32-1.17-.5-1.78a.69.69,0,0,0-.54-.56,4.59,4.59,0,0,0-.52-.09h-.24a.12.12,0,0,1-.12-.13.4.4,0,0,1,.1-.24,1.38,1.38,0,0,1,1-.52,3.85,3.85,0,0,1,1.26.25c.47.18.72.45.72.76a1,1,0,0,1-.11.43,1.09,1.09,0,0,0-.07.54,8.24,8.24,0,0,0,.11,1,8.62,8.62,0,0,0,1.22-.51,3.41,3.41,0,0,0,.38-.21l.27-.2a1.08,1.08,0,0,1,.7-.22c.68,0,1.14.17,1.14.54s-.15.49-.83.8-1.79.73-2.63,1a14.9,14.9,0,0,0,.74,2.11,6.64,6.64,0,0,0,1.31-.61c.11-.08.13-.11.13-.2s-.2-.4-.67-.85c-.09-.09-.12-.14-.12-.21a.11.11,0,0,1,.12-.11c.07,0,.14,0,.36.16a2.37,2.37,0,0,0,1.21.32,3.4,3.4,0,0,0,.45,0,1.14,1.14,0,0,1,.48,0,.64.64,0,0,1,.54.56.75.75,0,0,1-.43.67,19.85,19.85,0,0,1-2.9,1.35,8.9,8.9,0,0,0,1.69,2.39,1.86,1.86,0,0,1,.73,1.5.84.84,0,0,1-.76.9,1.15,1.15,0,0,1-.74-.4,3.2,3.2,0,0,0-1-.61,9.24,9.24,0,0,0-2.69-.51,4.47,4.47,0,0,0-2.09.42,1.48,1.48,0,0,0-.88,1.2c0,.63.45,1.25,1.57,1.46a10.92,10.92,0,0,0,2.07.18c.56,0,1-.09,1.28-.09a2.17,2.17,0,0,1,1,.24.81.81,0,0,1,.53.81.69.69,0,0,1-.34.57,2.64,2.64,0,0,1-1.33.22,11.35,11.35,0,0,1-3.58-.51c-1.66-.59-2.27-1.49-2.27-2.48a2.41,2.41,0,0,1,1.44-2.14,6.54,6.54,0,0,1,2.84-.6,24.4,24.4,0,0,1,2.78.17c-.36-.6-.85-1.5-1.25-2.36a11.08,11.08,0,0,1-3.16.59c-1.14,0-2-.58-2-1.3a1.82,1.82,0,0,1,.5-1.13,4.47,4.47,0,0,1,.78-.72A4.24,4.24,0,0,1,1149.11,95.41Zm2.2.45a3.36,3.36,0,0,0-.67.77,1.53,1.53,0,0,0-.18.65c0,.31.24.47.85.47a9.91,9.91,0,0,0,3.08-.58c-.29-.72-.45-1.15-.8-2.1-.79.23-1.09.3-1.69.45A2.78,2.78,0,0,0,1151.31,95.86Z"/><path class="cls-3" d="M1174,97.64v7.24h4.68v-3.35a10.56,10.56,0,0,0-.12-1.87c2.16.2,2.54.29,2.54.61s-.22.4-.69.56v.84c0,2.24.09,3.77.09,4.27s-.34.74-1.06.74c-.54,0-.76-.16-.76-.59v-.8h-11v.65c0,.54-.31.78-1.05.78-.55,0-.79-.18-.79-.67s.09-1.62.09-4.09a17,17,0,0,0-.09-2.27c2,.17,2.45.31,2.45.58s-.18.36-.61.56v4h4.54V97.64h-3.79V98c0,.47-.32.66-1.08.66-.54,0-.73-.19-.73-.57s.1-1.41.1-3.6a23.48,23.48,0,0,0-.1-2.65c2.19.23,2.46.31,2.46.6s-.18.37-.65.55v4.22h3.79V92.8a23.33,23.33,0,0,0-.11-2.56c2.32.22,2.55.43,2.55.65s-.23.41-.7.58v5.76h3.91V93.82a14,14,0,0,0-.11-1.94c2,.2,2.41.3,2.41.63s-.16.34-.57.5v.81c0,2.15.09,3.59.09,4.07s-.33.74-1,.74c-.55,0-.77-.2-.77-.59v-.4Z"/><path class="cls-3" d="M1191.2,98.88c.73-.18,1.42-.39,2-.59.09,0,.15.14.07.2a17.81,17.81,0,0,1-2.07,1.28c0,3.09,0,5.24,0,6.17,0,.58-.25.81-1,.81-.56,0-.74-.18-.74-.61,0-.85,0-2.72.07-5.6-.52.22-1.1.43-1.71.65-.06.47-.16.65-.38.65s-.43-.38-.9-2.16a9,9,0,0,0,1.62-.15l1.37-.25c0-1.91,0-3.13,0-4.38h-1.29a11.19,11.19,0,0,1-1.77,3.41c0,.07-.23,0-.19-.06a24,24,0,0,0,.9-4.46c.09-.7.12-1.39.14-2,1.51.39,2,.57,2,.81s-.13.25-.56.38c-.11.5-.24,1-.4,1.51h1.15V92.85c0-1.62,0-1.93-.07-2.72,2.18.25,2.33.31,2.33.58s-.15.29-.63.5v3.28h.16c.52-.76.74-.9.86-.9s.33.14.87.65c.19.18.34.36.34.48s-.06.18-.24.18h-2Zm6.51-4.48a11.14,11.14,0,0,1-6,7.6c-.09,0-.2-.13-.13-.18A13.94,13.94,0,0,0,1196,94.4h-1a11.56,11.56,0,0,1-2.67,3.2c-.07.06-.21-.07-.16-.14a15.7,15.7,0,0,0,2-4.68,11.91,11.91,0,0,0,.46-2.65c1.88.27,2.43.43,2.43.72s-.18.33-.68.45a19.35,19.35,0,0,1-1.19,2.69h5.49c.69-.76.83-.87,1-.87s.32.11,1,.67c.3.25.41.38.41.52s0,.18-.56.56c-.22,6.07-.45,8.28-1.08,10a2.38,2.38,0,0,1-.85,1.21,2.45,2.45,0,0,1-1.47.45c-.31,0-.33,0-.42-.41-.16-.72-.72-1.15-2-1.46-.09,0-.08-.27,0-.27,1.07.07,2,.11,2.09.11,1,0,1,0,1.32-1.39a50.07,50.07,0,0,0,.72-8.75h-.38c-1,5.67-3.3,8.88-7.71,10.89-.09,0-.2-.16-.12-.21,3.38-2.42,5.32-5.76,6.14-10.68Z"/><path class="cls-1" d="M41.22,38.45a2.22,2.22,0,0,0-.84.34,1.4,1.4,0,0,1-.7.17c-.41,0-.86-.32-1.44-1s-.79-1.12-.79-1.68.12-.72.26-.72.22.1.41.29a2.22,2.22,0,0,0,2.09,1c.6,0,1.17-.05,1.77-.09,2.36-.22,4.76-.44,6.94-.7A2.13,2.13,0,0,0,50,35.64a1.11,1.11,0,0,1,.62-.28c.49,0,.87.16,1.57.69.86.65,1.08,1,1.08,1.54,0,.21-.17.45-.51.62a2.22,2.22,0,0,0-1,1.15,26.55,26.55,0,0,1-4.56,6.39,21.27,21.27,0,0,1-7.92,5.18,1.4,1.4,0,0,1-.36.08c-.22,0-.31,0-.31-.27s.12-.22.38-.38a24.61,24.61,0,0,0,6.79-6,36.5,36.5,0,0,0,3.75-6.12,2,2,0,0,0,.31-.81c0-.1-.12-.12-.24-.12a9.32,9.32,0,0,0-1,.09C46.16,37.71,43.35,38,41.22,38.45Zm15.24-4.63a2,2,0,1,1-2-2A2,2,0,0,1,56.46,33.82Zm-3.31,0a1.31,1.31,0,1,0,1.32-1.32A1.33,1.33,0,0,0,53.15,33.82Z"/><path class="cls-1" d="M67.9,38.38c1.44-.17,3.44-.36,6.48-.7a1.59,1.59,0,0,0,.85-.33,1.37,1.37,0,0,1,.69-.22,4,4,0,0,1,1.87,1.13c.53.48.58.7.58,1s-.26.44-.5.56-.48.31-.87,1a26,26,0,0,1-3.74,5.28,22.44,22.44,0,0,1-7.88,5.57,1.77,1.77,0,0,1-.52.14.22.22,0,0,1-.24-.24c0-.12.19-.22.33-.33a28,28,0,0,0,6.94-6.65,22.88,22.88,0,0,0,3-5,3.27,3.27,0,0,0,.17-.51c0-.07,0-.07-.17-.07a1.73,1.73,0,0,0-.38.05c-2.57.24-4.47.55-6.87,1a4.73,4.73,0,0,0-1.44.41,1.72,1.72,0,0,1-.77.24c-.38,0-.67-.12-1.32-.77a2.89,2.89,0,0,1-.93-1.75c0-.41.12-.68.24-.68s.14.05.36.24a2.33,2.33,0,0,0,1.94.89C66,38.57,67.06,38.48,67.9,38.38Zm1.16-4.58c.89-.12,1.87-.29,2.93-.53a5.54,5.54,0,0,0,1.08-.39,2.81,2.81,0,0,1,.93-.21c1.06,0,2.09.55,2.09,1.08a.72.72,0,0,1-.48.79,9,9,0,0,1-1.46.26c-1,.15-3.61.44-5.5.65a11.36,11.36,0,0,1-1.15.07c-.87,0-1.35-.33-2.07-1.34a1.53,1.53,0,0,1-.33-1c0-.17,0-.27.14-.27s.14.08.26.17a2.92,2.92,0,0,0,2.26.84C68.14,33.89,68.6,33.84,69.06,33.8Z"/><path class="cls-1" d="M86.77,35.91c0-.12.09-.19.24-.19l.45,0a8.45,8.45,0,0,1,3.05,1,2.85,2.85,0,0,1,1.66,2.4,1.27,1.27,0,0,1-1.3,1.34,1.25,1.25,0,0,1-1.17-.88,8.54,8.54,0,0,0-1-1.73,6.3,6.3,0,0,0-1.75-1.68A.28.28,0,0,1,86.77,35.91Zm3.5,10.89a45.58,45.58,0,0,0,6.65-4.7,50.28,50.28,0,0,0,5.64-5.86.52.52,0,0,1,.31-.21c.17,0,.24.09.24.21a.8.8,0,0,1-.14.41,31.28,31.28,0,0,1-5,6.72A54.88,54.88,0,0,1,91.57,49a3.26,3.26,0,0,0-.62.57,1.24,1.24,0,0,1-1,.58c-.5,0-.81-.21-1.46-.91-1-1.11-1.34-1.73-1.34-2.23s.16-.92.38-.92.19.1.38.32c.53.55.87.88,1.11.88A2.92,2.92,0,0,0,90.27,46.8Z"/><path class="cls-1" d="M114.34,47.28a5.77,5.77,0,0,0-.14,1.35c0,.5.14,1.13.14,1.37,0,.67-.14,1.08-.67,1.08-.69,0-.91-.24-1.56-1.49a11.26,11.26,0,0,1-.79-4.49,29.21,29.21,0,0,1,1-6.74,13.74,13.74,0,0,0,.48-2.45,3.21,3.21,0,0,0-.62-1.9.35.35,0,0,1-.1-.24c0-.07.12-.19.34-.19a2.28,2.28,0,0,1,1.15.6,5.51,5.51,0,0,1,1.11,1.44,2.65,2.65,0,0,1,.4,1.32,1.26,1.26,0,0,1-.33.86,5.19,5.19,0,0,0-.75,1.32,14.71,14.71,0,0,0-1.22,5.14,5.78,5.78,0,0,0,.26,2.42c.05.1.15.1.19,0,.75-1.41,1.49-3,2.16-4.41.1-.22.22-.29.34-.29s.24.14.12.5C115.26,44.38,114.61,46.23,114.34,47.28Zm3.82-2.83a3.93,3.93,0,0,0,.29,1.54c.41,1,1.54,1.77,4.1,1.77a15,15,0,0,0,3.12-.21,2.75,2.75,0,0,1,1-.27,3.84,3.84,0,0,1,1.39.39,1,1,0,0,1-.1,1.85,13.18,13.18,0,0,1-4,.41c-4.08,0-6.46-1.69-6.46-4.64a5.5,5.5,0,0,1,.61-2.61c.12-.22.16-.27.26-.27s.14.1.14.24A8.35,8.35,0,0,0,118.16,44.45Zm.65-6.45a2.08,2.08,0,0,1-.51.19c-.19,0-.21-.07-.21-.22s.1-.21.29-.36a11.47,11.47,0,0,1,3-1.58,8.9,8.9,0,0,1,3.09-.51c2.19,0,2.86.77,2.86,1.42s-.43.89-1.46.89c-.32,0-.82-.07-1.13-.07a6.47,6.47,0,0,0-1.42.16,7.15,7.15,0,0,0-2.81,1.71.48.48,0,0,1-.31.14.15.15,0,0,1-.17-.17c0-.07,0-.14.17-.31.39-.48.91-1,1.66-1.87A7.25,7.25,0,0,0,118.81,38Z"/><path class="cls-1" d="M135.49,41.43c-.12,0-.24-.24-.15-.31,3.68-2.36,5.88-4.2,8-7.23a9,9,0,0,0,1.56-3.12c2.76.67,3.36.89,3.36,1.23s-.31.4-1,.48a15.84,15.84,0,0,0,4.58,4.05,16.58,16.58,0,0,0,6.43,2.28c.12,0,.1.27,0,.29-.74.19-1.08.74-1.49,1.8-.17.41-.21.55-.41.55a2.65,2.65,0,0,1-.91-.33A26.93,26.93,0,0,1,150.92,38a22,22,0,0,1-4-5.11A23.56,23.56,0,0,1,135.49,41.43Zm5.95,10.27v.46c0,.67-.43,1-1.34,1-.72,0-1-.22-1-.84,0-1.06.12-2.12.12-6.36,0-.46,0-.92-.05-1.37a19.77,19.77,0,0,1,2.52,1.13h5.95a22.56,22.56,0,0,0,2.19-4.16h-8.45a10.71,10.71,0,0,0-2,.2l-.26-.94a13.45,13.45,0,0,0,2.21.19h8.42c.87-1,1.06-1.1,1.25-1.1s.43.14,1.37.89c.43.36.57.52.57.72s-.21.43-.84.67a25.53,25.53,0,0,1-2,3.53h1c.92-.92,1.11-1.06,1.3-1.06s.46.14,1.37.82c.41.31.55.48.55.67s-.1.31-.72.72v.89c0,2.32.1,3.91.1,4.44s-.36.89-1.37.89c-.75,0-1-.2-1-.82V51.7Zm9.89-5.47h-9.89v4.92h9.89ZM147.06,38c.79-1,1.08-1.22,1.25-1.22s.5.19,1.41.86c.41.32.6.51.6.68s-.07.24-.31.24h-5.88a7.58,7.58,0,0,0-1.39.14l-.27-.89a6.76,6.76,0,0,0,1.61.19Z"/><path class="cls-1" d="M167.84,38.57a3.32,3.32,0,0,1-3.17-1.92.65.65,0,0,1-.12-.31.24.24,0,0,1,.22-.22c.1,0,.12.05.21.15a3.88,3.88,0,0,0,3,.86,36.07,36.07,0,0,0,4.92-.55V34.23c0-.7,0-1-.21-1.2a1.47,1.47,0,0,0-.68-.29,4.16,4.16,0,0,0-.55-.1c-.09,0-.14,0-.14-.16s.09-.27.29-.46a1.54,1.54,0,0,1,.95-.41,3.65,3.65,0,0,1,1.85.6c.87.51,1,.94,1,1.23a.94.94,0,0,1-.34.67,1.16,1.16,0,0,0-.46.91c0,.58-.09.89-.12,1.32.92-.14,1.66-.29,2.36-.43a5.39,5.39,0,0,0,1.36-.43,1.79,1.79,0,0,1,1.18-.24c.89,0,1.73.62,1.73,1.22s-.31.86-1.59,1c-1.63.15-3.57.34-5.11.56,0,1.15,0,2.32,0,3.6a10.29,10.29,0,0,0,2.09-.51c.34-.14.29-.31.1-.77a7.86,7.86,0,0,0-.56-.91c-.09-.21.05-.31.27-.14.43.31.91.62,1.32.86a1.32,1.32,0,0,0,.89.22c.72,0,1.12.31,1.12.86s-.52.72-1.29,1a19.4,19.4,0,0,1-3.89,1c0,1,.17,2.76.24,3.72A17.93,17.93,0,0,1,179.58,49c.77.45,1.44,1,1.44,1.89a1,1,0,0,1-.91,1.06,1.23,1.23,0,0,1-.89-.39,15.26,15.26,0,0,0-4.32-2.9c.12,2.18-1,3.58-3.75,3.58a5.42,5.42,0,0,1-3-.82A2.46,2.46,0,0,1,167,49.37a2.37,2.37,0,0,1,1.2-1.92,5.72,5.72,0,0,1,2.28-.72,15.51,15.51,0,0,1,2.57,0c0-1.13,0-2.28-.07-3.31-.63,0-1.54,0-1.94,0-2.38,0-3.44-.79-3.44-2a3.05,3.05,0,0,1,.91-2,8.48,8.48,0,0,1,1.18-.94C169.23,38.55,168.44,38.57,167.84,38.57Zm2.43,9.31a4.61,4.61,0,0,0-1.85.46,1.2,1.2,0,0,0-.6,1,1.32,1.32,0,0,0,.76,1.08,4.5,4.5,0,0,0,2.07.32,2.58,2.58,0,0,0,2-.68,2.9,2.9,0,0,0,.39-1.89A9,9,0,0,0,170.27,47.88Zm-1-8.32a2,2,0,0,0-.68,1.32c0,.6.53,1,1.93,1,.64,0,1.48,0,2.4-.14,0-1.27,0-2.28,0-3.55-.79.09-1.37.19-2.26.31A5,5,0,0,0,169.26,39.56Z"/><path class="cls-1" d="M195.18,47.91c0,.65,0,1.17,0,1.63,0,1.61-.48,2.62-1.18,2.62-.43,0-.72-.19-.84-.89a4.93,4.93,0,0,0-.41-1.56,8.82,8.82,0,0,0-1.65-2.16c-.51.67-.72,1-.87,1.17a1,1,0,0,1-.89.41c-.33,0-.67-.29-.67-1a2.35,2.35,0,0,1,.58-1.54l.48-.48a32.17,32.17,0,0,0,3.94-4.77c0-.75,0-1.35.07-2a14.41,14.41,0,0,0-2.31,1.2.62.62,0,0,1-.55.27,1,1,0,0,1-.7-.39,3.16,3.16,0,0,1-.91-1.8,1.89,1.89,0,0,1,.07-.57c0-.12.1-.17.2-.17s.21.14.33.33c.36.53.6.77,1.11.77a2.65,2.65,0,0,0,.91-.21c.69-.27,1.32-.56,1.92-.8.05-1.48.1-2.52.1-3.38,0-1.25-.2-1.54-1.33-1.92-.28-.1-.31-.14-.31-.24s.1-.19.24-.29a1.87,1.87,0,0,1,.87-.26,2.29,2.29,0,0,1,1.05.24A4,4,0,0,1,196,33.24a1,1,0,0,1,.22.65.76.76,0,0,1-.29.58,1.12,1.12,0,0,0-.34.74c-.05.58-.12,1.15-.17,2.33a.88.88,0,0,1,.36-.1c.1,0,.24.05.53.32a.91.91,0,0,1,.34.6c0,.16-.08.24-.27.48-.5.69-.81,1.1-1.15,1.63,0,.21,0,.53,0,.74,1.2-1.29,1.85-2,3.45-3.43A6.27,6.27,0,0,1,202.19,36a2.41,2.41,0,0,1,2.61,2.57,37.56,37.56,0,0,1-.36,3.91c-.26,2.28-.36,3.58-.36,4.2,0,1.4.24,2,1.27,2,1.61,0,3.36-1.61,4.56-3.68.1-.16.22-.48.39-.48a.3.3,0,0,1,.29.29,2.24,2.24,0,0,1-.12.46A9,9,0,0,1,208.38,49a4.69,4.69,0,0,1-3.29,1.52c-1.92,0-2.9-1-2.9-3.32,0-1.08.07-2.56.26-4.84.12-1.42.17-2.52.17-3.58,0-1.22-.27-1.68-1.11-1.68-.67,0-1.32.38-2.59,1.58a38.06,38.06,0,0,0-3.79,3.82C195.13,44.52,195.13,46.71,195.18,47.91ZM193,48.1c.4.19.6.12.6-.26V44.07c-.77,1-1.54,2.16-2.16,3A8.11,8.11,0,0,0,193,48.1Z"/><path class="cls-1" d="M228.61,36.17c0,.55-.29.87-1,1.13s-2,.55-3.55.91c-1.34,3.15-2.71,6.24-3.86,8.67a4.7,4.7,0,0,1-1,1.51,1.21,1.21,0,0,1-.62.19.92.92,0,0,1-.74-.31,1,1,0,0,1-.34-.77,4,4,0,0,1,.79-1.58,51,51,0,0,0,4-7.3c-.57.07-1.63.22-2.18.22a3,3,0,0,1-1.56-.32A3.18,3.18,0,0,1,217.11,37a1,1,0,0,1-.09-.41c0-.12.12-.14.17-.14s.11,0,.26.14a2.79,2.79,0,0,0,1.08.58,4.83,4.83,0,0,0,1.18.12,18.32,18.32,0,0,0,3.24-.46,9.39,9.39,0,0,0,.79-3c0-.58-.17-.72-1.44-1.2-.12-.05-.19-.12-.19-.22a.39.39,0,0,1,.24-.31,2,2,0,0,1,1.05-.24,5.06,5.06,0,0,1,2.4.79c.51.34.53.6.53.89a.74.74,0,0,1-.31.62c-.34.27-.58.67-1.2,2.21a6.27,6.27,0,0,0,1.58-.72,2.05,2.05,0,0,1,1-.31C228.18,35.36,228.61,35.84,228.61,36.17Zm.7,2.91a8.09,8.09,0,0,0-1.13,0c-.19,0-.34,0-.46,0s-.24,0-.24-.17.12-.24.29-.31a5.76,5.76,0,0,1,2.5-.48,8.36,8.36,0,0,1,4,1.05,1.87,1.87,0,0,1,1.11,1.56c0,.56-.24.94-.84.94a2,2,0,0,1-.94-.38,2.73,2.73,0,0,0-1.87-.84,1.71,1.71,0,0,0-1.08.31,1.69,1.69,0,0,0-.89,1.68,19.3,19.3,0,0,0,.82,4.46c3.69,1.25,4.68,2.23,4.68,3.17a1,1,0,0,1-.94,1.06,1.89,1.89,0,0,1-1.39-.68,10.43,10.43,0,0,0-2.26-1.68,3,3,0,0,1-1.2,2.65,4.77,4.77,0,0,1-2.78.67,4.34,4.34,0,0,1-2.74-.91,2.39,2.39,0,0,1-1-1.83,2.52,2.52,0,0,1,1-2,4.89,4.89,0,0,1,2.88-.87,12.79,12.79,0,0,1,1.73.12c-.1-1.27-.17-2.54-.17-3.57,0-2.07,1.61-3,3.19-3.31A4.87,4.87,0,0,0,229.31,39.08Zm-2.69,8.71a4.07,4.07,0,0,0-2.07.38,1.23,1.23,0,0,0,0,2.11,3.54,3.54,0,0,0,1.71.39,3,3,0,0,0,2-.58,2.06,2.06,0,0,0,.53-1.56,2,2,0,0,0,0-.33A6.15,6.15,0,0,0,226.62,47.79Z"/><path class="cls-1" d="M249.9,46.23a7.61,7.61,0,0,0-.31,1.27,1.44,1.44,0,0,0,.16.65,2.17,2.17,0,0,1,.39,1,.92.92,0,0,1-.92,1,3.38,3.38,0,0,1-2.3-1,8,8,0,0,1-2.5-4.7,23.07,23.07,0,0,1-.31-3.94c0-1,0-2.16,0-3.33a2.56,2.56,0,0,0-1-1.8c-.12-.12-.17-.12-.17-.27s.1-.24.5-.24a3,3,0,0,1,1.73.87,3.07,3.07,0,0,1,1.37,2.11,1.6,1.6,0,0,1-.22.93,12.24,12.24,0,0,0-.4,3.46,9.45,9.45,0,0,0,.52,3.36c.27.7.65,1.18,1.06,1.18a.88.88,0,0,0,.58-.44c.74-1,1.36-2.13,2.69-4.2.19-.28.36-.48.48-.48s.24,0,.24.17a1,1,0,0,1-.1.39A32.21,32.21,0,0,0,249.9,46.23Zm8.33-7.59a8.27,8.27,0,0,1,3.21,3.22,7.44,7.44,0,0,1,.87,3.14,2.81,2.81,0,0,1-.36,1.73.93.93,0,0,1-.84.51.88.88,0,0,1-.89-.46c-.43-.67-1-1.08-2.52-1.2-.29,0-.36-.1-.36-.24s.21-.19.45-.26a17.41,17.41,0,0,0,1.68-.58.55.55,0,0,0,.39-.58,6.74,6.74,0,0,0-1.15-3,8.12,8.12,0,0,0-2.5-2.45c-.17-.12-.31-.19-.31-.34s.09-.17.21-.17A5.4,5.4,0,0,1,258.23,38.64Z"/><path class="cls-1" d="M275.75,47.91a2.57,2.57,0,0,0,2.78,2.86,3.77,3.77,0,0,0,3-1.16,4.25,4.25,0,0,0,1-3A6.65,6.65,0,0,0,281.39,43a9.29,9.29,0,0,0-2.26-2.19c-.17-.12-.24-.21-.24-.33s.07-.17.19-.17a1.35,1.35,0,0,1,.36.09,9.72,9.72,0,0,1,3.48,2.21,6.19,6.19,0,0,1,1.83,4.08,4.78,4.78,0,0,1-1.42,3.63,6.82,6.82,0,0,1-4.44,1.58c-3.12,0-4.51-2-4.51-4.7,0-.51,0-1,.07-1.61a5.8,5.8,0,0,1-2.28-1.2,2.79,2.79,0,0,1-1-2.21c0-1.34.89-2.3,2.11-3.43A5.39,5.39,0,0,1,271,37.42a2.37,2.37,0,0,1-.74-1.61c0-.26,0-.41.16-.41s.17.1.34.36c.29.46,1,1,2.71,1.3a9.19,9.19,0,0,0,1.15.12,1.86,1.86,0,0,1,1,.34c.29-1.92.48-2.93.51-3.72s-.27-.94-1-1.37c-.24-.15-.34-.19-.34-.29s.12-.24.32-.36a1.58,1.58,0,0,1,.84-.17,5.3,5.3,0,0,1,2.35,1.15,1.51,1.51,0,0,1,.67,1.13.88.88,0,0,1-.41.75c-.14.09-.29.28-.45.81a65.06,65.06,0,0,0-1.9,8.4c.48,0,.77,0,1.22,0a1.77,1.77,0,0,1,.89.31.94.94,0,0,1,.39.84c0,.38-.39.74-.94.84a11.58,11.58,0,0,1-1.85.09C275.77,46.71,275.75,47.28,275.75,47.91Zm-.92-8.64a2.69,2.69,0,0,0-.86.29,4.74,4.74,0,0,0-1.2.81,2.1,2.1,0,0,0-.82,1.51c0,.92.63,1.61,2.74,1.85.22-1.68.41-3.12.62-4.53Z"/><path class="cls-1" d="M303,37.49a9.88,9.88,0,0,1-.53,2.55A17.62,17.62,0,0,1,301,43.49a20.13,20.13,0,0,1-2.67,4,2.62,2.62,0,0,1-2,1,2.41,2.41,0,0,1-1.82-.93c-.87-1-1.32-2.19-1.32-4.37a7.47,7.47,0,0,1,1-3.65,9.26,9.26,0,0,1,3.24-3.36,10.74,10.74,0,0,1,5.81-1.56,9.21,9.21,0,0,1,5.95,1.87,7.38,7.38,0,0,1,2.81,6.1,6.51,6.51,0,0,1-2.21,4.94,10.59,10.59,0,0,1-3.55,2.14,17.25,17.25,0,0,1-4.92.91c-.36,0-.53,0-.53-.24s.14-.24.45-.31a11.85,11.85,0,0,0,6.17-3.14,7.14,7.14,0,0,0,2.16-5.57,5.23,5.23,0,0,0-2.11-4.51,7.54,7.54,0,0,0-3.84-1.3,12.86,12.86,0,0,0-1.51,0A3.36,3.36,0,0,1,303,37.49Zm-5.84.1a7.34,7.34,0,0,0-2,2.95,6.25,6.25,0,0,0-.4,2.28,4.71,4.71,0,0,0,.6,2.59,1.54,1.54,0,0,0,1.05.79c.39,0,.75-.24,1.66-1.53a29.1,29.1,0,0,0,3.21-5.88,5.54,5.54,0,0,0,.51-2,1.21,1.21,0,0,0-.43-1.08A8,8,0,0,0,297.15,37.59Z"/><line class="cls-4" x1="29.5" y1="60.5" x2="323" y2="60.5"/></g></g></svg>