<svg xmlns="http://www.w3.org/2000/svg" viewBox="0 0 1378 230"><defs><style>.cls-1{fill:#65997d;}.cls-2{fill:#fff;}.cls-3{fill:#091911;}.cls-4{fill:none;stroke:#65997d;stroke-miterlimit:10;}</style></defs><g id="レイヤー_2" data-name="レイヤー 2"><g id="レイヤー_4" data-name="レイヤー 4"><rect class="cls-1" width="1378" height="230" rx="5"/><rect class="cls-2" x="5" y="5" width="1368" height="220" rx="5"/><path class="cls-3" d="M73.3,89.44c-.2.29-.41.56-.63.83,1.19.17,1.78.63,1.78,1.25a.59.59,0,0,1-.52.63c-.18,0-.27-.11-.43-.44a3.34,3.34,0,0,0-1-1.24,13.12,13.12,0,0,1-1.37,1.32c1.14.23,1.78.73,1.78,1.38a.63.63,0,0,1-.54.67c-.23,0-.34-.11-.45-.43a3.17,3.17,0,0,0-1-1.46A13.45,13.45,0,0,1,69.2,93.1c-.09.05-.22-.14-.13-.22a13.8,13.8,0,0,0,3.49-4.39,8.06,8.06,0,0,0,.6-1.64c1.38.43,1.74.61,1.74.83s-.16.27-.68.32c-.2.35-.4.69-.61,1H76c.55-.63.64-.68.75-.68s.24,0,.9.65c.29.29.34.39.34.5s-.12.26-.63.42a13.2,13.2,0,0,1-8.12,7.06c-.12,0-.23-.2-.12-.26a14.83,14.83,0,0,0,7-7.24Zm-3.37,13a10.56,10.56,0,0,0,3-3.35A5.45,5.45,0,0,0,73.45,98c1.35.58,1.71.78,1.71,1s-.18.24-.72.27a10.27,10.27,0,0,1-4.34,3.46C70,102.7,69.84,102.53,69.93,102.46Zm8.12-3c0,1.51.06,2.23.06,2.66a1.24,1.24,0,0,1-.6,1.16,2,2,0,0,1-1,.28c-.22,0-.27,0-.31-.36s-.37-.65-1.92-1c-.11,0-.09-.25,0-.25,1.17.09,1.81.11,2.21.11.23,0,.29-.07.29-.33V97.28H72.2a5.55,5.55,0,0,0-1.19.11l-.19-.71a6.11,6.11,0,0,0,1.37.15H81.4c.74-.92.87-1,1-1s.25.09,1.06.75c.34.29.43.42.43.53s-.07.18-.23.18H78.05Zm-3.67-5.3a5.19,5.19,0,0,0,1.26.13h2.83c.65-.77.77-.86.88-.86s.25.09,1,.64c.31.26.4.38.4.51s0,.16-.23.16H75.66a6.49,6.49,0,0,0-1.1.11Zm8.19-5.41c.6-.6.71-.67.81-.67s.24.09.81.65c.29.28.38.41.38.52s-.14.23-.61.32A10.48,10.48,0,0,1,81,92.34,10.81,10.81,0,0,0,85.81,95c.09,0,.08.18,0,.2-.45.09-.69.25-.87.88-.09.29-.12.36-.27.36a2.35,2.35,0,0,1-1-.4,11.11,11.11,0,0,1-3.39-3,14.26,14.26,0,0,1-2.27-4.63.47.47,0,0,0-.18-.28.35.35,0,0,1-.18-.26c0-.09.49-.27.63-.27s.17.06.17.13-.08.2-.08.27a1.5,1.5,0,0,0,.11.45,10.46,10.46,0,0,0,2.24,3.6,12.75,12.75,0,0,0,1.85-2.91H80.68a4.94,4.94,0,0,0-1.26.12l-.18-.7a6.21,6.21,0,0,0,1.39.13Zm-.37,12.8a8.65,8.65,0,0,0-2.54-3.06c-.08-.06,0-.2.12-.18,2.34.7,4,2,4,3.13,0,.52-.3.92-.73.92S82.5,102.16,82.2,101.53Z"/><path class="cls-3" d="M94.18,98.2a21.62,21.62,0,0,0,2.23-.76c.09,0,.17.14.09.2a23.2,23.2,0,0,1-4.61,2.46c-.07.56-.16.72-.36.72s-.43-.32-.93-1.83A11.39,11.39,0,0,0,92,98.77l1-.23V92.65h-1a6,6,0,0,0-1,.11l-.18-.69a4.27,4.27,0,0,0,1.15.13h1.1V90.31c0-1.5,0-2.32-.09-3,1.77.18,2,.32,2,.52s-.14.29-.63.5V92.2h.47c.47-.72.61-.81.72-.81s.23.09.81.61c.22.22.31.36.31.47s-.06.18-.24.18H94.18Zm.52,4.19a7.18,7.18,0,0,0,1.48.13h9c.7-.83.82-.94.95-.94s.25.11,1,.72c.34.27.43.38.43.51s-.07.16-.23.16H96.2a9.15,9.15,0,0,0-1.32.1Zm10.21-13.45c.67-.85.81-.94.92-.94s.29.08,1,.67c.36.31.43.43.43.54s0,.18-.23.18H97a8.05,8.05,0,0,0-1.26.11l-.18-.7a7.31,7.31,0,0,0,1.44.14h3.42v-.61a9.86,9.86,0,0,0-.09-1.33c1.73.19,1.94.34,1.94.52s-.12.25-.59.43v1Zm-7.16,6.9a.48.48,0,0,1-.24.43,9.13,9.13,0,0,1,1.37.61h4.63c.45-.54.56-.61.66-.61s.26.07.78.49c.27.23.34.32.34.43s-.07.25-.45.5v.85c0,1.71,0,2.48,0,2.72s-.26.54-.76.54a.41.41,0,0,1-.47-.47v-.11h-5v.2c0,.36-.25.52-.7.52s-.52-.13-.52-.45,0-1,0-3.2c0-.94,0-1.39,0-2a1,1,0,0,1-.4.07c-.4,0-.54-.12-.54-.43s0-1,0-3.37c0-1.22,0-1.85-.07-2.63a11.89,11.89,0,0,1,1.39.63h6.59c.48-.5.57-.56.68-.56s.24.06.72.49c.29.22.36.33.36.43s-.11.26-.48.49v1.06c0,2,.07,3,.07,3.24s-.25.51-.7.51-.51-.15-.51-.42v-.07H97.75ZM104.64,91H97.75v4.27h6.89Zm-1,6.34h-5v1.44h5Zm-5,3.44h5V99.22h-5Zm1.37-6.54c0,.36-.2.49-.63.49s-.45-.11-.45-.4c0-.14,0-.43,0-1.27,0-.56,0-.92,0-1.52a6.83,6.83,0,0,1,1.19.56h2c.39-.43.5-.5.61-.5s.22.07.63.41c.2.18.27.27.27.38s-.06.22-.38.41v.26c0,.72,0,1,0,1.11,0,.34-.2.49-.65.49s-.43-.11-.43-.42v0h-2.18Zm2.18-1.69h-2.18v1.21h2.18Z"/><rect class="cls-3" x="40.93" y="93.38" width="9.19" height="9.19" transform="translate(-55.95 60.89) rotate(-45)"/><rect class="cls-3" x="41.29" y="131.86" width="8.49" height="8.49" transform="translate(-82.9 72.06) rotate(-45)"/><rect class="cls-3" x="41.29" y="169.47" width="8.49" height="8.49" transform="translate(-109.5 83.08) rotate(-45)"/><path class="cls-3" d="M82.5,135.61c.67-.78.81-.88,1-.88s.32.1,1,.64c.3.26.41.38.41.53s0,.18-.47.52v.74c0,1.71.06,2.7.06,3,0,.49-.42.65-1,.65s-.74-.14-.74-.58v-.57H77.8v.45c0,.47-.34.66-1,.66s-.7-.18-.7-.55c0-1.28.1-2.7.1-7.84,0-1,0-1.89,0-2.84a1.1,1.1,0,0,1-.85.38.78.78,0,0,1-.84-.83v-.18H73.07v2c1.37.46,2.07,1.17,2.07,2a.8.8,0,0,1-.81.84c-.34,0-.54-.21-.6-.61a3.38,3.38,0,0,0-.66-1.87c0,4.43.07,8.14.07,8.93,0,.45-.38.63-1,.63s-.71-.16-.71-.51c0-.9.13-4.53.15-7.92A11.06,11.06,0,0,1,69,136.6c-.07.07-.21,0-.18-.11a25.32,25.32,0,0,0,2.54-7.56h-.76a7.73,7.73,0,0,0-1.18.11l-.2-.67a6.11,6.11,0,0,0,1.31.15h1v-2a22.26,22.26,0,0,0-.09-2.3c1.93.18,2.25.25,2.25.55s-.18.33-.61.51v3.19h.11c.46-.92.68-1.07.81-1.07s.28.15.84.85a2,2,0,0,1,.25-.2,2.18,2.18,0,0,0,1-2c0-.09.16-.09.19,0a6.09,6.09,0,0,1,.24.88h2.59v-1.1a13.67,13.67,0,0,0-.09-1.69c2.07.18,2.25.36,2.25.52s-.16.29-.5.49V127h2.68c.59-.7.74-.81.88-.81s.33.11,1.08.74c.34.3.45.43.45.57s-.23.33-.59.35a.63.63,0,0,0-.52.21,8.61,8.61,0,0,1-1.23,1c-.07.05-.2,0-.18-.13a6.84,6.84,0,0,0,.31-1.5H76.56a4.3,4.3,0,0,1,0,1.43,10.43,10.43,0,0,1,1.41.74h3.91c.54-.63.68-.74.82-.74s.35.11,1,.55c.28.22.39.35.39.49s-.07.2-.45.47v.5c0,1.32,0,2.31,0,2.6,0,.48-.36.66-1,.66S82,134,82,133.57v-.25H77.8v2.29ZM82,130H77.8v2.9H82Zm-4.18,9.25h4.9V136H77.8Z"/><path class="cls-3" d="M98.27,123.87s0,.09-.09.16a11.16,11.16,0,0,0-.07,16.75c.12.12.16.16.16.23s0,.11-.09.11A.4.4,0,0,1,98,141a12.23,12.23,0,0,1-3.62-3.87,9.15,9.15,0,0,1,0-9.4A12.55,12.55,0,0,1,98,123.85c.09,0,.13-.09.18-.09S98.27,123.8,98.27,123.87Z"/><path class="cls-3" d="M105.86,131.29a14.25,14.25,0,0,1-2.59,2.21c-.07.06-.23-.07-.18-.14a19.42,19.42,0,0,0,3.64-5.87,15.52,15.52,0,0,0,.88-3.19c1.66.47,2.39.76,2.39,1s-.18.32-.68.43a20.17,20.17,0,0,1-2.27,4.12c.78.13.9.2.9.38s-.11.26-.47.42V140c0,.52-.32.76-.93.76-.4,0-.8-.15-.8-.65s.11-1.91.11-4.77Zm11.33,6.5a50.56,50.56,0,0,1-7.65,1.74c-.13.58-.2.71-.42.71s-.29,0-.93-2.54a9.55,9.55,0,0,0,1.11.07h.4a60.18,60.18,0,0,0,2.59-9.89,27,27,0,0,0,.32-3.13c2.51.54,2.78.65,2.78.94s-.16.38-.7.54a43.81,43.81,0,0,1-4.22,11.52c1.48,0,4.81-.23,6.59-.45a21.11,21.11,0,0,0-1.87-4.72c0-.07.14-.19.22-.12,2.82,2.77,4,4.63,4,6.19,0,.87-.43,1.44-1.06,1.44s-.8-.36-1-1.55Z"/><path class="cls-3" d="M133.71,128.57a16.79,16.79,0,0,0,1.82,4.68,19.51,19.51,0,0,0,1.57-2.05,15.48,15.48,0,0,0,.75-1.43c1.8,1,2.18,1.28,2.18,1.55s-.22.31-.92.26a17.06,17.06,0,0,1-3.26,2.17c.11.18.24.36.36.53a11.85,11.85,0,0,0,5.51,3.9c.09,0,.09.24,0,.26-.66.16-.9.46-1.15,1.47,0,.18-.13.25-.27.25a1.61,1.61,0,0,1-.63-.27,12.47,12.47,0,0,1-4.2-4.43,17.85,17.85,0,0,1-2.12-6.69,13.4,13.4,0,0,1-2.79,3.47v5.35c1.57-.4,3.2-.86,4.61-1.37.09,0,.18.18.11.24a33.54,33.54,0,0,1-7.69,3.69c-.07.48-.16.68-.4.68s-.54-.65-1.11-2.36c.43,0,.91-.11,1.44-.2l1.38-.28v-4.43a15.87,15.87,0,0,1-4,2c-.09,0-.22-.15-.15-.2a17.74,17.74,0,0,0,6.75-6.79h-5.09a7.67,7.67,0,0,0-1.26.11L125,128a7.5,7.5,0,0,0,1.46.14h5.69V126a9.14,9.14,0,0,0-.09-1.32c2.27.2,2.46.4,2.46.6s-.19.32-.57.48v2.43h4.3c1-1.09,1.19-1.24,1.32-1.24s.36.15,1.26.87c.41.32.55.48.55.61s-.05.18-.23.18Z"/><path class="cls-3" d="M151.89,132.44a1.61,1.61,0,1,1-1.62-1.62A1.61,1.61,0,0,1,151.89,132.44Z"/><path class="cls-3" d="M163.05,130.69c1.49.53,2.23,1.26,2.23,2.15a.93.93,0,0,1-.86,1c-.38,0-.54-.24-.63-.88a3.41,3.41,0,0,0-.74-2c0,4.5.09,8.22.09,9.25,0,.45-.38.61-.95.61s-.71-.14-.71-.5c0-.88.11-4.4.15-8a11.92,11.92,0,0,1-2.63,4.3c-.06.07-.22,0-.18-.11a27.11,27.11,0,0,0,2.48-7.58h-.68a8,8,0,0,0-1.19.11l-.2-.67a6.13,6.13,0,0,0,1.32.15h1v-2a22.88,22.88,0,0,0-.09-2.3c1.94.2,2.28.27,2.28.58s-.19.36-.66.55v3.14h.25c.52-.92.74-1.07.87-1.07s.32.15.91.74c.24.25.38.43.38.56s-.05.18-.23.18h-2.18Zm5.73-2.39c0-.69.05-1.41.05-2.14s0-1.1-.07-1.86c2.09.27,2.35.36,2.35.65s-.17.34-.59.47c0,1-.05,2-.12,2.88h2.93c.61-.72.76-.83.9-.83s.32.11,1.08.77c.34.33.45.45.45.6s-.2.39-.54.39-.38,0-.5.2A11.39,11.39,0,0,1,173.1,131a.11.11,0,0,1-.15-.13,9.42,9.42,0,0,0,.58-2.11h-3.17c-.06.8-.16,1.59-.29,2.38,1.28.14,1.66.25,1.66.5s-.16.27-.49.44v6.5c0,.39.24.5,1.15.5s1.35-.07,1.53-.27a7.76,7.76,0,0,0,1-2.61c0-.09.2-.09.2,0,0,.75,0,1.53,0,2.09,0,.16.07.3.32.48a.69.69,0,0,1,.36.6c0,.38-.23.65-.68.84a6.77,6.77,0,0,1-2.57.35c-2.26,0-2.76-.35-2.76-1.88,0-.19,0-.36,0-1.18,0-1.55,0-3.1,0-4.65a11.72,11.72,0,0,1-5.85,7.78c-.07,0-.25-.16-.18-.22,3.17-2.77,4.72-6.28,5.08-11.65h-1.95c.11,1.21-.29,2.38-1.26,2.38a.74.74,0,0,1-.77-.81c0-.34.09-.47.56-.88a2.51,2.51,0,0,0,.9-2c0-.09.18-.12.21,0a3.55,3.55,0,0,1,.31,1Z"/><path class="cls-3" d="M186.09,132.44a1.61,1.61,0,1,1-1.62-1.62A1.61,1.61,0,0,1,186.09,132.44Z"/><path class="cls-3" d="M198.6,138c0,.65-.27.86-1,.86-.54,0-.72-.19-.72-.7,0-.72.06-1.46.06-4.39,0-.34,0-.69,0-1a15.37,15.37,0,0,1-3.76,2.67c-.08,0-.2-.15-.13-.2a18.36,18.36,0,0,0,5.29-7.17h-3a15.32,15.32,0,0,0-1.65.11l-.2-.67a12.46,12.46,0,0,0,1.87.15h3.13a8.46,8.46,0,0,0,.33-.92,13,13,0,0,0,.56-2.52c2,.31,2.46.47,2.46.79s-.12.33-.68.49c-.27.77-.56,1.49-.85,2.16h6.11c1-1.21,1.2-1.35,1.33-1.35s.36.14,1.35.93c.45.36.6.53.6.65s-.06.18-.24.18h-9.33a17,17,0,0,1-1.85,3.17c.12.09.29.18.52.33h2.58v-.87a17.33,17.33,0,0,0-.09-1.91c2.19.24,2.3.27,2.3.54s-.12.31-.63.51v1.73h2.88c.69-.74.83-.85,1-.85s.33.11,1,.68c.31.27.42.4.42.54s-.13.31-.49.53v.79c0,3.2,0,3.44,0,4a1.38,1.38,0,0,1-.49,1.07,2.2,2.2,0,0,1-1.39.43c-.32,0-.39-.06-.43-.33-.09-.79-.3-1-1.66-1.35-.08,0-.08-.21,0-.21.87,0,1.41.05,1.93.05.27,0,.33-.05.33-.32V132h-3.12c0,4.21,0,7.13,0,8.12,0,.5-.33.72-1,.72s-.73-.16-.73-.67c0-.86.07-3.35.09-8.17H198.6Z"/><path class="cls-3" d="M217.61,139.75c0,.5-.35.7-1.05.7-.47,0-.72-.18-.72-.57,0-1.53.11-3,.11-9.2,0-2,0-4.09-.09-6.14a11.49,11.49,0,0,1,2,1h10.76c.67-.79.81-.9,1-.9s.32.11,1,.72c.31.29.42.42.42.56s-.15.34-.52.58v2.16c0,5.76.1,9.69.1,11,0,.52-.36.74-1.09.74-.51,0-.72-.2-.72-.61v-.54h-11.2ZM228.81,126h-11.2v12.87h11.2Zm-2.76,8.12c0,.9,0,1.74,0,2.41a2.16,2.16,0,0,1-.18.94,1.88,1.88,0,0,1-1.86.86c-.3,0-.38-.07-.43-.36-.05-.81-.49-1.08-1.78-1.42-.09,0-.09-.25,0-.25.83.05,1.76.1,2.34.1.2,0,.25-.07.25-.32V130.1h-5.06a6.91,6.91,0,0,0-1.1.11l-.2-.67a5.76,5.76,0,0,0,1.26.15h5.1v-.56a19.77,19.77,0,0,0-.13-2.38c1.93.18,2.33.29,2.33.54s-.15.27-.58.47v1.93h.27c.6-.87.81-1,.94-1s.32.14.93.72c.24.21.38.39.38.52s0,.18-.23.18h-2.29Zm-4,.65c-.34,0-.49-.17-.69-.76a5.62,5.62,0,0,0-1.51-2.57c-.07-.06,0-.18.13-.17,1.85.49,3,1.44,3,2.49A1,1,0,0,1,222,134.73Z"/><path class="cls-3" d="M236.81,123.85a12.59,12.59,0,0,1,3.64,3.89,9.15,9.15,0,0,1,0,9.4,12.47,12.47,0,0,1-3.62,3.87c-.13.09-.18.11-.23.11s-.09,0-.09-.11,0-.11.16-.23A11.18,11.18,0,0,0,236.6,124c-.08-.07-.09-.11-.09-.16a.11.11,0,0,1,.12-.11C236.69,123.76,236.72,123.8,236.81,123.85Z"/><path class="cls-3" d="M76.53,169.44c1.08.45,1.67,1,1.67,1.82a.88.88,0,0,1-.77,1,1.19,1.19,0,0,1-1-.52,10.74,10.74,0,0,0-1.3-1.31,5.39,5.39,0,0,0-1.87-1v3.13c0,.76,0,2.42.07,4.36,0,.69-.31.85-.67.85a.82.82,0,0,1-.75-.42,3,3,0,0,1-.4-1.42,2,2,0,0,1,.09-.52.73.73,0,0,0,.09-.31c0-.23,0-.74.07-4,0-1.71,0-3.24,0-4.93a9.68,9.68,0,0,0-.07-1.53.81.81,0,0,0-.38-.42,2.66,2.66,0,0,0-.63-.29c-.12,0-.18-.09-.18-.16s.13-.2.24-.27a1,1,0,0,1,.5-.16,4.28,4.28,0,0,1,1.82.49c.48.21.72.5.72.84a.77.77,0,0,1-.31.58.53.53,0,0,0-.12.36c-.06.5-.09,1.56-.09,3.24A10.18,10.18,0,0,1,76.53,169.44ZM78,164.06a1.34,1.34,0,0,1,.67,1.08.61.61,0,0,1-.6.63.65.65,0,0,1-.61-.42,7.18,7.18,0,0,0-1.13-1.58c-.08-.07-.2-.16-.2-.23s.09-.13.21-.13a1.55,1.55,0,0,1,.42.07A3.39,3.39,0,0,1,78,164.06Zm1.68-1.26a1.09,1.09,0,0,1,.64.92.6.6,0,0,1-.56.66.69.69,0,0,1-.66-.39,4.58,4.58,0,0,0-1.26-1.41c-.07-.05-.22-.14-.22-.22a.14.14,0,0,1,.15-.14,3,3,0,0,1,.46.05A4.22,4.22,0,0,1,79.7,162.8Z"/><path class="cls-3" d="M89.29,167.69l4.86-.52a1.23,1.23,0,0,0,.63-.25,1,1,0,0,1,.52-.16,3,3,0,0,1,1.4.84c.4.36.44.53.44.74s-.2.33-.38.42-.36.23-.65.77a19.39,19.39,0,0,1-2.81,4,16.63,16.63,0,0,1-5.9,4.18,1.52,1.52,0,0,1-.4.11.17.17,0,0,1-.18-.18c0-.09.14-.16.25-.25a21.18,21.18,0,0,0,5.21-5,17.48,17.48,0,0,0,2.25-3.78,2.89,2.89,0,0,0,.12-.38s0,0-.12,0a1.5,1.5,0,0,0-.29,0c-1.93.18-3.35.42-5.15.72a3.46,3.46,0,0,0-1.08.31,1.38,1.38,0,0,1-.58.18c-.29,0-.5-.09-1-.58a2.16,2.16,0,0,1-.7-1.31c0-.31.09-.51.18-.51s.11,0,.27.18a1.75,1.75,0,0,0,1.46.67C87.88,167.84,88.66,167.77,89.29,167.69Zm.86-3.43c.67-.09,1.4-.22,2.2-.4a4.38,4.38,0,0,0,.81-.29,2.13,2.13,0,0,1,.7-.16c.79,0,1.57.41,1.57.81a.55.55,0,0,1-.36.59,6.29,6.29,0,0,1-1.1.2c-.76.11-2.7.33-4.13.49-.36,0-.64.05-.86.05-.65,0-1-.25-1.55-1a1.17,1.17,0,0,1-.25-.77c0-.13,0-.2.11-.2s.11.06.2.13a2.17,2.17,0,0,0,1.69.63C89.47,164.33,89.81,164.29,90.15,164.26Z"/><path class="cls-3" d="M103.43,173.62c-.19.11-.3.2-.39.2s-.22-.09-.22-.24.11-.18.31-.32a41.24,41.24,0,0,0,5.76-5.53,19.69,19.69,0,0,0,2.16-2.84,1.51,1.51,0,0,0,.29-.76c0-.16-.24-.4-.6-.61-.18-.11-.32-.15-.32-.25s.31-.42.76-.42a4.12,4.12,0,0,1,1.9.72c.47.31.78.69.78,1s-.18.51-.6.65a.66.66,0,0,0-.37.25l-2.54,2.76c.68.48,1.15.86,1.15,1.22a.66.66,0,0,1-.07.34,2.13,2.13,0,0,0-.06.62V173c0,1.35,0,2.7,0,4.07a.72.72,0,0,1-.68.81.92.92,0,0,1-.81-.38,1.91,1.91,0,0,1-.38-1.17,1.14,1.14,0,0,1,.09-.42,7.36,7.36,0,0,0,.18-1.69c0-1.31,0-3.06,0-4.16a3.08,3.08,0,0,0-.13-1.17A25.7,25.7,0,0,1,103.43,173.62Z"/><path class="cls-3" d="M132.18,164.24a1.38,1.38,0,0,1,.56-.25,2.13,2.13,0,0,1,1.24.7c.31.3.78.66.78,1.15,0,.29-.22.47-.69.52a2.33,2.33,0,0,0-1,.45,35.12,35.12,0,0,1-4.13,2.38,14.82,14.82,0,0,1-1.11,3.76,10.12,10.12,0,0,1-4.32,4.58,1.42,1.42,0,0,1-.58.19c-.07,0-.14,0-.14-.16s.07-.14.27-.3a12.46,12.46,0,0,0,3.36-4.83,10,10,0,0,0,.85-3.91,1.78,1.78,0,0,0,0-.61c-.06-.16-.47-.32-.94-.38-.15,0-.23,0-.23-.16s.12-.25.34-.41a1.46,1.46,0,0,1,.75-.18,4.92,4.92,0,0,1,1.77.27.5.5,0,0,1,.34.46.86.86,0,0,1,0,.27,2.7,2.7,0,0,0-.17.74,20,20,0,0,0,2.88-2.81.33.33,0,0,0,.13-.28c0-.08-.09-.09-.34-.08l-2.83.24c-1.15.11-2.3.25-3.37.43a7,7,0,0,0-2,.5,1.24,1.24,0,0,1-.67.26c-.38,0-.76-.24-1.21-.8s-.52-.82-.52-1.18.09-.51.2-.51.14.06.32.22c.54.48.74.61,1.17.61s.85,0,1.57-.11c2.32-.18,4.66-.41,7-.59A1.8,1.8,0,0,0,132.18,164.24Z"/><path class="cls-3" d="M139.47,173.62c-.2.11-.31.2-.4.2s-.21-.09-.21-.24.11-.18.3-.32a40.79,40.79,0,0,0,5.77-5.53,20.55,20.55,0,0,0,2.16-2.84,1.57,1.57,0,0,0,.28-.76c0-.16-.23-.4-.59-.61-.18-.11-.32-.15-.32-.25s.3-.42.75-.42a4.15,4.15,0,0,1,1.91.72,1.46,1.46,0,0,1,.77,1c0,.29-.18.51-.59.65a.73.73,0,0,0-.38.25c-1,1.1-1.87,2-2.54,2.76.69.48,1.16.86,1.16,1.22a.57.57,0,0,1-.08.34,2.72,2.72,0,0,0-.05.62V173c0,1.35,0,2.7,0,4.07a.73.73,0,0,1-.69.81.93.93,0,0,1-.81-.38,2,2,0,0,1-.38-1.17,1.39,1.39,0,0,1,.09-.42,6.85,6.85,0,0,0,.18-1.69c0-1.31,0-3.06,0-4.16a3.18,3.18,0,0,0-.12-1.17A25.7,25.7,0,0,1,139.47,173.62Z"/><path class="cls-3" d="M167.25,171.89A11.78,11.78,0,0,1,169,173c1.08.83,1.51,1.53,1.51,2a.9.9,0,0,1-.83,1,1.18,1.18,0,0,1-1.12-.61,14.73,14.73,0,0,0-2.09-2.68,10.43,10.43,0,0,0-1.8-1.39,20.73,20.73,0,0,1-4.41,3.53,15.84,15.84,0,0,1-3.08,1.42,1,1,0,0,1-.39.09c-.09,0-.18,0-.18-.16a.25.25,0,0,1,.12-.2,21.89,21.89,0,0,0,5.64-4.35,26.72,26.72,0,0,0,3.65-4.78.45.45,0,0,0,.11-.21c0-.06-.05-.07-.23-.06-1.26.15-2.88.42-4.31.72a2.69,2.69,0,0,0-.82.29,1.12,1.12,0,0,1-.63.2c-.34,0-.71-.22-1.21-.85a1.54,1.54,0,0,1-.38-1.15c0-.34.13-.47.24-.47s.12.08.25.22c.5.56.7.68,1.24.68.22,0,.67,0,1.37-.1,1.48-.17,2.68-.33,4-.51a1.27,1.27,0,0,0,.72-.27.69.69,0,0,1,.52-.2,1.48,1.48,0,0,1,1,.49c.54.47.75.76.75,1s0,.36-.59.54c-.16,0-.27.2-.43.43a30,30,0,0,1-2.45,3.24C165.91,171.22,166.63,171.57,167.25,171.89Z"/><path class="cls-3" d="M692.69,140.91v.8c0,.46-.38.64-1.12.64-.5,0-.72-.19-.72-.52,0-1,.09-1.93.09-5.83,0-2.47,0-4.94-.1-7.4a10.21,10.21,0,0,1,2,1.06h2.27c.18-.68.31-1.31.41-1.89a12.23,12.23,0,0,0,.18-1.75c2.23.49,2.52.58,2.52.88s-.19.33-.73.45a21.47,21.47,0,0,1-1.73,2.31h5.42c.74-.81.88-.92,1-.92s.33.11,1.06.7c.33.27.44.4.44.54s-.15.38-.54.62v1.81c0,4.85.07,8.18.07,9.28,0,.48-.36.7-1.14.7-.46,0-.72-.16-.72-.58v-.9Zm8.71-10.84h-8.71v4.79h8.71Zm0,5.21h-8.71v5.22h8.71Z"/><path class="cls-3" d="M719.44,131.12a11.24,11.24,0,0,0,2.65,4.18,13.23,13.23,0,0,0,5.18,3.07.09.09,0,0,1,0,.17c-.7.23-1,.54-1.33,1.42-.11.25-.18.34-.33.34a2.32,2.32,0,0,1-.82-.43,12.68,12.68,0,0,1-3.68-3.89,21.51,21.51,0,0,1-1.94-4.3c.12,5.76.2,9.59.2,10.28,0,.5-.4.72-1.1.72s-.83-.18-.83-.6c0-1,.14-5,.18-8.6a16.74,16.74,0,0,1-7.31,6.82c-.09,0-.2-.12-.12-.18a21.85,21.85,0,0,0,6.59-9h-4.13a11.47,11.47,0,0,0-1.55.11l-.2-.67a10.2,10.2,0,0,0,1.71.14h4.9v-2.07a19.23,19.23,0,0,0-.11-2.5c1.86.14,2.42.25,2.42.54s-.15.31-.56.52v3.51h4.19c.89-1.11,1.1-1.26,1.23-1.26s.36.15,1.3.89c.41.34.55.48.55.61s0,.18-.23.18Z"/><path class="cls-3" d="M733.75,133.15a14.75,14.75,0,0,1-2,2c-.07.06-.23-.11-.18-.18a19.26,19.26,0,0,0,2.81-6,15.14,15.14,0,0,0,.61-2.91c1.93.59,2.38.77,2.38,1s-.18.32-.65.41a22.22,22.22,0,0,1-2,4.23c.93.16,1.06.23,1.06.42s-.11.25-.47.41v9.34c0,.53-.31.76-.94.76s-.77-.18-.77-.7.11-1.87.11-4.72Zm8.15,8.07a59.33,59.33,0,0,0,1.7-6.91,18.8,18.8,0,0,0,.28-2.36c2.65.77,2.65.77,2.65,1s-.16.34-.79.47a37.33,37.33,0,0,1-3.3,7.76h3.06c1-1.26,1.19-1.41,1.32-1.41s.34.15,1.29,1c.42.38.56.54.56.66s0,.18-.23.18H737.38a10.42,10.42,0,0,0-1.36.11l-.2-.66a9,9,0,0,0,1.51.14Zm-1-13.05a16.65,16.65,0,0,0-.09-1.88c2.2.22,2.41.42,2.41.61s-.21.31-.61.49v3.15h2.61c.85-1.08,1.07-1.22,1.19-1.22s.36.14,1.23.86c.37.31.52.47.52.6s-.06.18-.24.18H737.83a6.89,6.89,0,0,0-1.11.1l-.2-.66a6,6,0,0,0,1.31.14h3.1Zm-1.24,11.1c-.52,0-.78-.28-.79-.93a18.24,18.24,0,0,0-.92-6c0-.09.14-.16.2-.09,1.71,1.84,2.66,3.71,2.66,5.28C740.84,138.55,740.36,139.27,739.69,139.27Z"/><path class="cls-3" d="M762,134.41v.18c0,.36-.37.62-.93.62s-.67-.17-.67-.56c0-.58,0-1.21.06-2.5h-4.38c0,1,0,1.91-.11,2.85h1.55c.56-.67.7-.78.85-.78s.32.11.88.6c.23.21.34.34.34.48s0,.18-.45.49v1c0,2.68,0,4.52,0,5.13s-.34.68-1,.68c-.47,0-.67-.16-.67-.61s.07-2,.11-5v-1.55H756c-.07.72-.15,1.37-.26,2a11.86,11.86,0,0,1-2.17,5.1c-.06.07-.26-.07-.22-.16a14.91,14.91,0,0,0,1.08-5c.11-1.71.14-4,.14-7.46a25.73,25.73,0,0,0-.09-3.06c1.82.22,2.24.31,2.24.56s-.13.31-.54.47v1.42c0,.92,0,1.76,0,2.54h1.17V127.9a11,11,0,0,0-.09-1.61c2,.18,2.18.36,2.18.52s-.13.33-.56.49v4.45h0c.31-.74.53-.88.65-.88s.31.14.78.63c.07.07.12.14.18.21,0-.57,0-1.26,0-2.1s0-1.48-.07-2.15a18.07,18.07,0,0,1,1.71.89h1.26c.13-.45.24-.94.33-1.37s.09-.69.11-1c1.81.51,2.19.67,2.19.9s-.23.29-.79.31a10.06,10.06,0,0,1-1.28,1.12h3.62c.56-.71.7-.81.85-.81s.32.1.95.64c.29.26.4.38.4.53s-.13.28-.45.5v.88c0,2.36.07,4,.07,4.5s-.32.65-1,.65c-.47,0-.63-.14-.63-.54v-.29h-2.95a7.34,7.34,0,0,1-.47.78,7,7,0,0,1-3.78,2.45c-.09,0-.13-.18-.06-.24a7.22,7.22,0,0,0,2.67-2.66l.16-.33Zm4.6,4c0,1.91.07,3.21.07,3.69s-.33.67-1,.67c-.48,0-.7-.16-.7-.54s.07-1.42.07-3.58v-.24h-4.32a5,5,0,0,0-1,.11l-.2-.67a4.84,4.84,0,0,0,1.15.15h4.32c0-1.46,0-2.11-.07-2.92,2.12.2,2.16.31,2.16.52s-.13.27-.5.44v2h1.27c.78-1,1-1.12,1.12-1.12s.34.15,1.12.79c.32.27.46.44.46.56s-.05.18-.23.18Zm-4.6-9.63v2.36h2c.05-.79.07-1.57.07-2.36Zm1.48,5.24a9.47,9.47,0,0,0,.47-2.47h-2V134Zm4.27,0v-2.47h-2.25A8,8,0,0,1,765,134Zm-2.13-5.24c0,.81,0,1.69-.09,2.36h2.22v-2.36Z"/><path class="cls-3" d="M699.42,95a4.14,4.14,0,0,1,2.33.65,2.91,2.91,0,0,1,1.4,2.42,2.63,2.63,0,0,1-1.17,2.26,3.56,3.56,0,0,1-2.27.71,3.76,3.76,0,0,1-3.18-1.61,3.51,3.51,0,0,1-.54-.93.09.09,0,0,1,.1-.09.26.26,0,0,1,.24.12,3.83,3.83,0,0,0,2.81,1.28,2.69,2.69,0,0,0,1.76-.59,2.11,2.11,0,0,0,.52-1.59,1.83,1.83,0,0,0-.86-1.64,2.86,2.86,0,0,0-1.44-.34,5.7,5.7,0,0,0-2.63.87c-.43.23-.81.46-1.17.68,0,1.06.07,1.71.11,2.36,0,.32,0,.54,0,.88a3.16,3.16,0,0,1-.14,1.15c-.25.65-.56.85-.88.85s-.51-.16-.62-.59a4,4,0,0,0-1.62-2.29,6,6,0,0,0-.82.77.91.91,0,0,1-.72.35,1.7,1.7,0,0,1-.8-.27,1.54,1.54,0,0,1-.79-1.19,1,1,0,0,1,.49-.94c.07,0,.11,0,.14.15a1.45,1.45,0,0,0,.2.43c.07.07.13.09.31.07a10.6,10.6,0,0,0,1.87-.88c.63-.36,1.46-.87,2-1.23,0-1.29,0-2.48,0-3.44a13.77,13.77,0,0,1-2,.24,2.12,2.12,0,0,1-1.69-1,1.66,1.66,0,0,1-.4-.88c0-.15,0-.24.13-.24s.2.13.34.31a1.75,1.75,0,0,0,1.37.65,9.9,9.9,0,0,0,2.21-.31V90.26a2.29,2.29,0,0,0-.07-.87c0-.29-.14-.36-.32-.41a1.35,1.35,0,0,0-.47-.09c-.27,0-.42-.06-.42-.15a.59.59,0,0,1,.29-.43,1.74,1.74,0,0,1,.79-.29,2.23,2.23,0,0,1,1.28.47c.53.38.78.74.78,1a.75.75,0,0,1-.16.49,1.35,1.35,0,0,0-.28.36,4.37,4.37,0,0,0-.19,1.44,4.32,4.32,0,0,0,1.24-.74,1.35,1.35,0,0,1,.86-.31c.74,0,1.08.29,1.08.6s0,.43-.48.72a9.64,9.64,0,0,1-1.19.57,14.77,14.77,0,0,1-1.58.51c0,.83,0,2.19,0,3.17A8.45,8.45,0,0,1,699.42,95Zm-6.91,4.27c.36.22.58.33.88.49a1.66,1.66,0,0,0,.6.2c.11,0,.18-.08.18-.26,0-.52,0-1.18,0-1.76C693.61,98.39,693,98.9,692.51,99.31Zm7.19-7.72a2.81,2.81,0,0,1,1.78-.6,3.68,3.68,0,0,1,2.39.87,2.39,2.39,0,0,1,.87,1.83c0,.53-.27.83-.69.83a.91.91,0,0,1-.54-.16.77.77,0,0,0-.54-.23h-.56a5.2,5.2,0,0,0-.68.13,3.66,3.66,0,0,1-.43.09c-.06,0-.15,0-.15-.09s.08-.13.24-.23.92-.6,1.19-.85a.34.34,0,0,0,.12-.23.48.48,0,0,0-.07-.26,2.16,2.16,0,0,0-1.91-1,3,3,0,0,0-.76.11,1.24,1.24,0,0,1-.28.09c-.07,0-.13,0-.13-.09A.31.31,0,0,1,699.7,91.59Z"/><path class="cls-3" d="M713,95.66l-1.65.36c-.11.36-.22.5-.38.5s-.36-.34-.67-2c.45,0,.63,0,.94,0h.95a24.09,24.09,0,0,0,1.8-3.25,10.77,10.77,0,0,0,.74-2c1.41.65,2,1,2,1.24s-.22.29-.71.27a21.57,21.57,0,0,1-3.24,3.69c.94,0,1.89,0,2.83-.09a4.79,4.79,0,0,0-.63-1.44c-.06-.07.07-.14.14-.1,1.39.77,2,1.51,2,2.35a.92.92,0,0,1-.8,1c-.37,0-.59-.25-.66-1.22l0-.18c-.38.12-.77.27-1.17.38v2.5c0,1.93.06,4.34.06,5.13,0,.49-.33.7-.92.7s-.72-.18-.72-.57.1-1.57.1-3.93V98a1,1,0,0,1-.46.18,12.09,12.09,0,0,1-2.24,4.11c0,.07-.23,0-.19-.11a21.48,21.48,0,0,0,.75-3,13.45,13.45,0,0,0,.25-2.25,6.13,6.13,0,0,1,1.89.7Zm-.32-7.13c.14-.58.27-1.16.34-1.61,1.62.58,2.15.85,2.15,1.07s-.22.3-.73.3a20,20,0,0,1-2,2.27,1.52,1.52,0,0,1,.78,1.33.89.89,0,0,1-.81,1c-.45,0-.51-.07-.81-1.08A3.58,3.58,0,0,0,710.56,90c-.07-.07,0-.19.11-.17a7.87,7.87,0,0,1,1.41.52C712.29,89.77,712.49,89.14,712.67,88.53ZM716,100.37c-.47,0-.58-.36-.63-1.18a5.75,5.75,0,0,0-.54-2.18c0-.07.07-.15.14-.09,1.28.88,1.86,1.6,1.86,2.41C716.78,99.94,716.47,100.37,716,100.37ZM722,99c0,1.3.06,2.45.06,2.93a1.65,1.65,0,0,1-.49,1.25,2,2,0,0,1-1.3.41c-.3,0-.36-.07-.45-.49-.12-.63-.36-.79-1.63-1.13-.09,0-.08-.22,0-.22.83.08,1.43.11,1.95.11.23,0,.3-.07.32-.34v-4a.87.87,0,0,1-.47.24,8.29,8.29,0,0,1-4.68,4.89c-.07,0-.21-.1-.14-.16a10.14,10.14,0,0,0,3.19-5.22h-1a4,4,0,0,0-1,.15l-.19-.71a4.88,4.88,0,0,0,1.18.15h1c.56-.69.71-.8.85-.8s.31.11,1,.74a1.91,1.91,0,0,1,.34.38V94.54h-1.31v.18c0,.45-.34.63-.92.63-.38,0-.65-.12-.65-.52,0-.69.07-1.23.07-4,0-.86,0-1.73-.07-2.59a10.4,10.4,0,0,1,1.77.88h.82a9.22,9.22,0,0,0,.17-.93c0-.42.09-.87.1-1.26,1.63.39,2.15.61,2.15.82s-.2.29-.63.31a10,10,0,0,1-1.14,1.06h2.43c.67-.7.81-.81,1-.81s.32.11,1,.65c.29.25.4.38.4.52s0,.22-.52.58v.74c0,2,.07,3.42.07,3.87a.53.53,0,0,1-.33.54c1.43.84,1.79,1.1,1.79,1.31s-.18.29-.74.33a13.21,13.21,0,0,1-2.33,1.31,7.72,7.72,0,0,0,3.53,2.43c.09,0,.08.11,0,.16a2.3,2.3,0,0,0-1.06,1.39c-.14.45-.21.49-.36.49s-.25-.09-.47-.31a10.12,10.12,0,0,1-2-2.74A14,14,0,0,1,722,95.42Zm1.5-9.45h-4.34v2h4.34Zm0,2.41h-4.34v2.2h4.34Zm-1.48,2.61a8.88,8.88,0,0,0,1.28,3.3,10.56,10.56,0,0,0,.83-1.21,7.06,7.06,0,0,0,.63-1.42,1.6,1.6,0,0,1-.54.09c-.54,0-.72-.17-.72-.6v-.16Z"/><path class="cls-3" d="M740.72,91.7a12,12,0,0,0,3.2,2.16A14.52,14.52,0,0,0,748.51,95c.09,0,.09.13,0,.17-.48.19-.66.45-.88,1.13-.16.49-.22.54-.4.54a2.54,2.54,0,0,1-.66-.18A14.5,14.5,0,0,1,744,95.33a12.88,12.88,0,0,1-3.33-3.13c0,1.71,0,2.3,0,2.86s-.33.69-1,.69c-.43,0-.69-.17-.69-.56,0-.69,0-1.51,0-2.5a13.78,13.78,0,0,1-3.73,2.86,9.73,9.73,0,0,1,1.64.83h5.91c.59-.69.73-.8.88-.8s.34.11,1,.64c.35.25.44.39.44.54s-.11.28-.47.54v.9c0,2.25.09,3.88.09,4.42s-.34.74-1,.74c-.5,0-.74-.18-.74-.55v-.53h-6.28v.42c0,.45-.33.68-1,.68-.5,0-.72-.18-.72-.59,0-.67.09-1.39.09-4,0-1,0-2.07-.07-3.12A17.6,17.6,0,0,1,731.59,97c-.09,0-.18-.18-.09-.22a15.35,15.35,0,0,0,6.24-5.07H733.5a6.35,6.35,0,0,0-1.07.1l-.19-.66a5.09,5.09,0,0,0,1.2.14h5.62V89.43a54.58,54.58,0,0,1-5.51.12c-.09,0-.11-.25,0-.25a37.15,37.15,0,0,0,9-1.73,12.71,12.71,0,0,0,1.37-.61c1.47,1,1.73,1.22,1.73,1.44s-.27.34-1.1.16a29.71,29.71,0,0,1-3.89.71v2h4c.95-1.08,1.16-1.22,1.29-1.22s.36.14,1.23.86c.37.31.52.47.52.6s-.06.18-.24.18Zm2.37,5.09h-6.28V99h6.28Zm0,2.61h-6.28v2.47h6.28Z"/><path class="cls-3" d="M758.77,95.24a1.61,1.61,0,1,1-1.62-1.62A1.62,1.62,0,0,1,758.77,95.24Z"/><path class="cls-3" d="M769.77,95.89a6.91,6.91,0,0,1,4.77-2,5.22,5.22,0,0,1,2.45.56,4,4,0,0,1,1.46,1.22,3.27,3.27,0,0,1,.55,2.07c0,1.35-.77,2.68-2.61,3.67a14.36,14.36,0,0,1-5.92,1.34c-.4,0-.61,0-.69,0s-.19-.09-.19-.22.12-.18.39-.22a15.86,15.86,0,0,0,4.09-1.09c1.66-.72,3.06-2,3.06-3.87a2.26,2.26,0,0,0-1-2.09,3.65,3.65,0,0,0-2.29-.58,6.08,6.08,0,0,0-3.6,1.39A7.59,7.59,0,0,0,768,98.66c-.23.42-.43.67-.81.67-.56,0-.79-.67-.79-1.1a1.48,1.48,0,0,1,.59-1.15c.54-.49,1.23-1.17,1.73-1.69,2.09-2.22,3.32-3.62,4.76-5.35.28-.36.34-.43.34-.58s-.2-.12-.45,0-.78.29-1.87.76a5.42,5.42,0,0,0-1.23.66.8.8,0,0,1-.59.22,1.38,1.38,0,0,1-.92-.63,2.81,2.81,0,0,1-.54-1.37,1.1,1.1,0,0,1,.11-.52c0-.11.12-.2.2-.2s.17.11.28.3c.36.62.65.74,1,.74a11.77,11.77,0,0,0,3-.74.84.84,0,0,0,.45-.3.79.79,0,0,1,.6-.25,3.48,3.48,0,0,1,1.28.43c.64.34.9.74.9,1a.58.58,0,0,1-.36.54,1.91,1.91,0,0,0-.47.3c-1.06,1-2,2-3,3s-1.44,1.47-2.45,2.44Z"/><path class="cls-3" d="M791,92.36a3,3,0,0,1,2.39,1.17,4.31,4.31,0,0,1,.85,2.94,6.62,6.62,0,0,1-1.21,3.53,7.13,7.13,0,0,1-2,1.9,8.71,8.71,0,0,1-2.2,1.07,7.18,7.18,0,0,1-.93.23c-.17,0-.25,0-.25-.13s.12-.16.3-.25a8.14,8.14,0,0,0,3.06-2.41,6.55,6.55,0,0,0,1.37-4.29,4.42,4.42,0,0,0-.4-2.19,1.39,1.39,0,0,0-1.29-.76,4.67,4.67,0,0,0-2.88,1.93c-.25.3-.36.43-.67.43a1.94,1.94,0,0,1-1.53-1.76,1.69,1.69,0,0,1,.22-.81,2.16,2.16,0,0,1,.28-.4.31.31,0,0,1,.19-.11c.12,0,.14.09.12.24a2.44,2.44,0,0,0,0,.54.36.36,0,0,0,.41.32,3.1,3.1,0,0,0,1.21-.38A7.11,7.11,0,0,1,791,92.36ZM787.57,88a.79.79,0,0,1,0-.2c0-.12,0-.2.08-.2s.12,0,.23.15a4,4,0,0,0,3,1.08,3.07,3.07,0,0,1,1.53.23,1.25,1.25,0,0,1,.77,1c0,.34-.29.56-.92.56a6.66,6.66,0,0,0-1.11,0,6.93,6.93,0,0,0-1.17.2,10.85,10.85,0,0,0-1.33.41,1.16,1.16,0,0,1-.42.13c-.09,0-.14,0-.14-.13s.11-.14.29-.27c.39-.25,1-.61,1.38-.9A3.16,3.16,0,0,1,787.57,88Z"/><path class="cls-3" d="M810.45,93.51c.27-.09.88-.41,1.28-.61a1.51,1.51,0,0,1,.59-.14,5.45,5.45,0,0,1,1.23.18c.66.21.93.47.93.79,0,.58-.39.77-1,.77a16.93,16.93,0,0,0-1.78.11,5.48,5.48,0,0,0-2.86,1,3.35,3.35,0,0,0-1.64,2.76,2.31,2.31,0,0,0,1.42,2.07,7.54,7.54,0,0,0,2.61.63,2.71,2.71,0,0,1,1.12.32.8.8,0,0,1,.47.74c0,.54-.49.85-1.26.85a6,6,0,0,1-3.88-1.32,3.54,3.54,0,0,1-1.4-2.84,4.7,4.7,0,0,1,2.18-3.73,49.86,49.86,0,0,0-5.3,2.14,3.06,3.06,0,0,1-1,.34,1.39,1.39,0,0,1-.94-.39.7.7,0,0,1-.12-1,.35.35,0,0,1,.27-.1h.48a2.21,2.21,0,0,0,1.15-.32,6.84,6.84,0,0,0,1.82-1.4,44,44,0,0,0,4.05-4.58.83.83,0,0,0,.2-.41c0-.07,0-.11-.09-.11l-.41.09a15.39,15.39,0,0,0-2.7,1.17c-.29.29-.51.43-.72.43a.91.91,0,0,1-.54-.14,2.6,2.6,0,0,1-.74-.79,1.84,1.84,0,0,1-.41-1.1c0-.27.17-.65.34-.65s.1,0,.2.22a2.08,2.08,0,0,0,.43.63.86.86,0,0,0,.65.21,2.59,2.59,0,0,0,.59-.07,13.49,13.49,0,0,0,2.7-.77,1.66,1.66,0,0,0,.52-.36.61.61,0,0,1,.43-.18,1.76,1.76,0,0,1,.76.21,4.75,4.75,0,0,1,1,.72c.27.31.3.45.3.61a.48.48,0,0,1-.32.46,5.68,5.68,0,0,0-.59.32,4.89,4.89,0,0,0-.74.63c-1.59,1.51-3.46,3.22-5,4.54C806.58,94.72,808.25,94.22,810.45,93.51Z"/><path class="cls-3" d="M826.32,88.94a.69.69,0,0,0-.19-.41,2.82,2.82,0,0,0-.49-.44c-.09,0-.16-.1-.16-.21s.32-.24.66-.24A2.6,2.6,0,0,1,828,88.78a1.48,1.48,0,0,1,.46,1,.71.71,0,0,1-.49.66,7,7,0,0,0-2.14,1.37c-.94.76-2.42,2-3.1,2.63a1.6,1.6,0,0,0-.45.59c0,.19.11.27.23.42a7,7,0,0,0,1,.76,26,26,0,0,1,4.43,3.56c.86,1,1,1.53,1,2a1.26,1.26,0,0,1-.2.81c-.14.2-.34.29-.74.29-.19,0-.54-.24-.95-.88A23.65,23.65,0,0,0,822,96.52a1.67,1.67,0,0,1-.78-1.28,1.38,1.38,0,0,1,.36-.95c.25-.33.92-1,2.4-2.47.46-.47,1.09-1.13,1.85-2C826.23,89.35,826.32,89.16,826.32,88.94Z"/><rect class="cls-3" x="658.63" y="93.38" width="9.19" height="9.19" transform="translate(124.97 497.67) rotate(-45)"/><rect class="cls-3" x="658.63" y="131.5" width="9.19" height="9.19" transform="translate(98.02 508.83) rotate(-45)"/><rect class="cls-3" x="658.63" y="169.12" width="9.19" height="9.19" transform="translate(71.42 519.85) rotate(-45)"/><path class="cls-3" d="M694.26,168.2a7.43,7.43,0,0,0,.86-1.77c-1.15.13-2.41.26-3.78.36-.13.4-.27.58-.45.58s-.23,0-.72-2.25a31,31,0,0,0,3.33.18,10.21,10.21,0,0,0,.79-1.76,9.76,9.76,0,0,0,.38-1.63c1.89.6,2.25.76,2.25,1s-.22.41-.68.36a14,14,0,0,1-2.09,2.07H695c2.39,0,4.43,0,5.9-.13a8.13,8.13,0,0,0-2-1.6c-.07,0,0-.18.13-.16,3,.63,4.28,1.33,4.28,2.45a.94.94,0,0,1-.91,1c-.45,0-.49-.05-1-1a2.29,2.29,0,0,0-.18-.29c-1.78.3-3.56.59-5.37.77,1.1.31,1.68.56,1.68.78s-.16.34-.76.39c-.14.24-.28.45-.43.67h6c1-1,1.17-1.15,1.3-1.15s.36.14,1.22.79c.4.32.54.47.54.59s-.05.18-.23.18h-6.36a7.51,7.51,0,0,0,2.92,1.84,14,14,0,0,0,4,.86c.09,0,.05.22,0,.24-.63.2-.72.34-1,1.29-.11.35-.14.4-.3.4a2.78,2.78,0,0,1-.81-.2,10.53,10.53,0,0,1-1.84-.92,8.92,8.92,0,0,1-3.4-3.51H696a13.44,13.44,0,0,1-7.31,4.58c-.1,0-.17-.2-.1-.24a15.26,15.26,0,0,0,5.39-4.34h-3.33a13.36,13.36,0,0,0-1.52.11l-.19-.67a9.27,9.27,0,0,0,1.62.15Zm7.74,6.88c-3.24,2.25-7,3.31-11.72,3.58-.09,0-.15-.23-.06-.25a25.86,25.86,0,0,0,8.68-3.22,7.76,7.76,0,0,0,2.13-1.95c1.56,1.15,1.8,1.37,1.8,1.57S702.68,175.17,702,175.08Zm-4.25-4a13.6,13.6,0,0,1-7.24,3c-.09,0-.18-.17-.09-.2a16.53,16.53,0,0,0,5.22-3,6.58,6.58,0,0,0,1.14-1.31c1.26.81,1.64,1.1,1.64,1.33S698.25,171.19,697.75,171.13Zm1.85,2.11a17.05,17.05,0,0,1-9.05,2.95c-.09,0-.15-.21-.06-.23a22.43,22.43,0,0,0,6.83-3,6.58,6.58,0,0,0,1.46-1.41c1.35,1,1.56,1.17,1.56,1.42S700.18,173.29,699.6,173.24Z"/><path class="cls-3" d="M717.17,167.08c.63-.66.78-.77.92-.77s.31.11.95.68c.29.27.4.42.4.56s-.05.25-.52.47c-1.19,5.26-3.51,8.25-8.23,10.41-.09,0-.2-.11-.13-.17a15.4,15.4,0,0,0,5-5.72.82.82,0,0,1-.41.12c-.38,0-.6-.19-.74-.77a4.07,4.07,0,0,0-1.19-2.11,12.13,12.13,0,0,1-2.63,2.45c-.07.06-.18-.09-.13-.16a15.61,15.61,0,0,0,3.34-8H712.2a8.45,8.45,0,0,0-1.22.11l-.2-.67a7.22,7.22,0,0,0,1.42.15h5c.73-.9.95-1.05,1.08-1.05s.36.15,1.11.72c.34.29.49.44.49.56s-.06.18-.24.18h-4.06a16.14,16.14,0,0,1-.85,3.06Zm-2.57.42a12.19,12.19,0,0,1-1.23,2.09c1.73.59,2.52,1.27,2.52,2.16v0a23.78,23.78,0,0,0,1.34-4.28Zm7.41-.69c0,4.05.11,6.18.11,6.95,0,.51-.3.74-1,.74s-.76-.18-.76-.63.08-2.16.08-5.4c0-2.81,0-4.39-.08-4.77,2,.21,2.16.25,2.16.56,0,.16-.12.27-.54.45Zm2.11-3a9,9,0,0,0-.11-1.51c2.13.25,2.27.29,2.27.56s-.14.34-.5.52v6.55c0,3.28.09,5.75.09,6.69s-.15,1.11-.6,1.42a2.3,2.3,0,0,1-1.31.43c-.4,0-.52-.09-.58-.45-.07-.7-.61-1-2.07-1.37-.09,0-.09-.25,0-.25.9.07,1.93.14,2.54.14.22,0,.27-.05.27-.25Z"/><path class="cls-3" d="M745.47,168c.94-1,1.15-1.19,1.28-1.19s.34.15,1.19.83c.36.29.48.47.48.59s0,.18-.23.18h-6A33.43,33.43,0,0,1,738.5,171h4.74c.77-.76.92-.86,1.06-.86s.34.1,1.06.66c.33.25.43.38.43.52s-.1.27-.54.58v1c0,2.66.09,4.5.09,5.09s-.36.69-1.11.69c-.47,0-.72-.16-.72-.6v-.54h-5.78V178c0,.51-.35.72-1.1.72-.47,0-.7-.18-.7-.59,0-.76.09-1.59.09-4.65v-1.15a23.49,23.49,0,0,1-4.24,1.57c-.08,0-.17-.22-.08-.25a31.52,31.52,0,0,0,4.28-2.2c0-.47,0-.92-.07-1.39.65.26.93.38,1.33.58a36.67,36.67,0,0,0,3-2.22H733.5a8.69,8.69,0,0,0-1.23.11l-.2-.66a7.11,7.11,0,0,0,1.35.14h4.81v-2.63h-3.17a7,7,0,0,0-1.1.11l-.19-.67A5.47,5.47,0,0,0,735,165h3.22v-1.1c0-.59,0-1.17-.07-1.78,2.2.19,2.39.39,2.39.59s-.19.32-.59.45V165H741c.76-.85,1-1,1.1-1s.34.14,1,.68a2,2,0,0,1,.4.43,14,14,0,0,0,1.65-2.44c1.48.77,2,1.11,2,1.35s-.22.32-.9.32a25.55,25.55,0,0,1-3.6,3.69Zm-7.74,5.91h5.78V171.4H737.8l-.07,0Zm5.78.41h-5.78v2.81h5.78ZM740.66,168a29.67,29.67,0,0,0,2.63-2.63H740V168Z"/><path class="cls-3" d="M756.88,171.8a14.57,14.57,0,0,1-.31,1.87,8.25,8.25,0,0,1-2.88,4.79c-.07.06-.22-.07-.18-.14a12.18,12.18,0,0,0,1.55-4.7,50.09,50.09,0,0,0,.29-6.52c0-2.2-.06-3.44-.13-4.55a8.22,8.22,0,0,1,2,1h9.52c.74-.74.88-.84,1-.84s.32.1,1,.63c.3.27.41.39.41.54s-.05.21-.48.52v2c0,8.3.07,9,.07,10.08,0,.92-.22,1.16-.65,1.48a2.57,2.57,0,0,1-1.39.43c-.3,0-.36-.16-.41-.48-.15-.81-.67-1-2-1.36-.09,0-.09-.21,0-.21.85.07,1.57.09,2.34.09.26,0,.31-.07.31-.31v-4.3h-4.18c0,2.3,0,4.47,0,5.38,0,.54-.31.74-1,.74-.58,0-.8-.2-.8-.72,0-.25.06-1.06.06-2.66V171.8Zm.21-4c0,1.2-.07,2.41-.18,3.62H761v-3.62Zm3.95-.42V164h-3.93v.84c0,.85,0,1.7,0,2.54ZM767,164h-4.18v3.38H767Zm0,3.8h-4.18v3.62H767Z"/><path class="cls-3" d="M780.87,169.73a1.32,1.32,0,0,1,.2.7.83.83,0,0,1-.83.87c-.32,0-.5-.2-.56-.65a3.71,3.71,0,0,0-.59-1.8c0,3.45.07,8.06.07,9.29,0,.45-.41.61-1,.61s-.7-.14-.7-.52c0-.92.13-4.65.14-7.83a9.85,9.85,0,0,1-2.43,4c0,.08-.19,0-.16-.09a26.56,26.56,0,0,0,2.32-7.41h-.75a7.82,7.82,0,0,0-1.19.1l-.2-.66a6.06,6.06,0,0,0,1.32.14h1v-2a22.88,22.88,0,0,0-.09-2.3c1.92.14,2.3.25,2.3.52s-.18.36-.63.54v3.22h.27c.52-.92.74-1.06.86-1.06s.33.14.92.74c.24.25.38.43.38.56s0,.18-.23.18h-2.2v1.63a4.54,4.54,0,0,1,1.44.81h8.82c.76-.86,1-1,1.1-1s.34.14,1,.7c.29.23.42.41.42.54s-.06.18-.24.18h-1.53v4.5c0,1,0,1.89,0,2.86a1.73,1.73,0,0,1-.43,1.16,2.1,2.1,0,0,1-1.5.43c-.27,0-.34,0-.41-.42s-.49-.88-1.89-1.24c-.09,0-.09-.23,0-.23.92.09,1.67.12,2.34.12.23,0,.31-.07.31-.32v-6.86ZM786,165.1c-.09.27-.2.52-.31.78,2.51.28,3.79,1,3.79,2.1a.82.82,0,0,1-.71.9c-.27,0-.41-.11-.66-.47a6.73,6.73,0,0,0-2.58-2.23c-.84,1.41-2.36,2.29-4.62,2.68-.09,0-.17-.17-.08-.21,2-.88,3.06-2,3.51-3.55h-1.92a10.28,10.28,0,0,0-1.34.11l-.19-.67a7.62,7.62,0,0,0,1.47.15h2.09a8.88,8.88,0,0,0,.15-1.6,7.52,7.52,0,0,0,0-.87c1.94.22,2.29.31,2.29.58s-.17.34-.54.47a6.94,6.94,0,0,1-.2,1.42h2.29c.8-1,1-1.14,1.15-1.14s.34.15,1.11.8c.33.27.45.45.45.57s0,.18-.23.18Zm-2.9,9.72v.69c0,.47-.32.61-.92.61s-.65-.16-.65-.48,0-1.09,0-3c0-.63,0-1.26-.07-1.91a17.74,17.74,0,0,1,1.67.77h2.16c.51-.57.65-.68.8-.68s.32.11.88.54c.23.2.34.32.34.47s0,.2-.4.45v.47c0,1.24.08,2.23.08,2.5s-.31.57-.9.57-.67-.12-.67-.5v-.49Zm2.36-2.91h-2.36v2.5h2.36Z"/><path class="cls-3" d="M805.8,174.45c0,1.09.06,1.47.06,2.16a1.88,1.88,0,0,1-.34,1.2,2,2,0,0,1-1.66.63c-.49,0-.54-.14-.67-.55-.2-.67-.9-.92-2.28-1.26-.09,0-.09-.29,0-.28.84.09,2.17.17,2.86.17.25,0,.3-.06.3-.25v-6h-5.29a16.87,16.87,0,0,0-1.73.11l-.19-.67a12.63,12.63,0,0,0,1.9.15h5.31v-1.62a11.92,11.92,0,0,0-.05-1.35c.78.12,1.3.21,1.66.28a11.47,11.47,0,0,0,2.54-3.2h-7.85a7,7,0,0,0-1.35.14l-.2-.7a7.62,7.62,0,0,0,1.47.15h7.93c.75-.74.93-.83,1.08-.83s.36.09,1.19.84c.39.38.48.47.48.62s-.05.27-.92.45a14.83,14.83,0,0,1-3.72,2.7c.1.05.1.1.1.19s-.16.33-.63.53v1.8H810c1-1.32,1.26-1.46,1.39-1.46s.36.14,1.42,1c.49.39.63.55.63.68s0,.18-.23.18H805.8Z"/><path class="cls-3" d="M358.34,127.78c0,8.95.07,11.2.07,12.13,0,.52-.33.81-1.05.81-.56,0-.79-.2-.79-.63,0-.59,0-2,.07-4.55a19.46,19.46,0,0,1-3.36,2.07c0,.56-.18.81-.42.81s-.25,0-1.13-2.36a5.74,5.74,0,0,0,1.19-.13l.28-.05v-7.11a21.65,21.65,0,0,0-.14-2.42c2.12.2,2.32.38,2.32.56s-.18.34-.57.49v8.16c.61-.15,1.24-.31,1.83-.49,0-1.12,0-2.4,0-3.91a61.48,61.48,0,0,0-.14-6.79c2.19.18,2.45.26,2.45.53s-.06.21-.63.48Zm6.89-1.5c.74-.84.88-1,1-1s.32.11,1.1.79c.36.34.46.47.46.61s-.12.34-.59.58a20.2,20.2,0,0,1-3,8.14,12.76,12.76,0,0,0,4.49,3.15c.09,0,.05.21,0,.23-.54.16-.77.45-1,1.19-.13.34-.16.41-.33.41a1.58,1.58,0,0,1-.63-.28,12.87,12.87,0,0,1-3.38-3.44,14.17,14.17,0,0,1-4.54,3.67c-.07,0-.2-.16-.12-.22a17.92,17.92,0,0,0,4-4.59,20.56,20.56,0,0,1-2.42-8.86,7.63,7.63,0,0,0-.95.13l-.2-.7a8.85,8.85,0,0,0,1.59.14Zm-4.66.42a18.94,18.94,0,0,0,2.72,7.56,24.46,24.46,0,0,0,2.16-7.56Z"/><path class="cls-3" d="M387.5,129.72c.57-.7.72-.81.86-.81s.33.11,1.21.86c.41.38.52.51.52.65,0,.29-.2.42-.83.43-.25,0-.32,0-.63.26a12.13,12.13,0,0,1-1.49.95A.09.09,0,0,1,387,132a7.38,7.38,0,0,0,.63-1.81H375.78c.1,1.38-.45,2.46-1.46,2.46a.83.83,0,0,1-.88-.88,1,1,0,0,1,.64-.92,2,2,0,0,0,1.25-1.83c0-.1.16-.11.19,0a6.26,6.26,0,0,1,.2.77H377v-2.57c0-1,0-2-.09-2.9a15.23,15.23,0,0,1,1.89.83h5.88c.55-.63.71-.76.85-.76s.38.13,1,.65c.3.23.41.36.41.5s-.09.29-.54.56v3.69Zm-8.54,7c0,1.75.06,2.56.06,3.37,0,.5-.31.72-1.07.72-.57,0-.75-.14-.75-.59,0-.81.07-2.83.07-6.09,0-1.31,0-1.91-.09-3.42a11.1,11.1,0,0,1,2,1h5.08c.63-.69.77-.8.92-.8s.32.11,1.06.67c.34.29.45.41.45.56s-.11.29-.54.57v1.52c0,3.47,0,4.37,0,4.79a1.39,1.39,0,0,1-.74,1.45,3.71,3.71,0,0,1-1.24.31c-.24,0-.27-.14-.33-.45-.12-.7-.52-1-2-1.39-.09,0-.09-.25,0-.23a19.53,19.53,0,0,0,2.39.13c.14,0,.2-.06.2-.26v-1.89Zm1.62-7v-1.58a14.13,14.13,0,0,0-.1-1.71,11,11,0,0,1,1.76.75h2.54v-1.69h-6.2v4.23Zm3.84,2.45H379V134h5.47Zm0,2.23H379v1.93h5.47Zm.36-6.8h-2.65v2.12h2.65Z"/><path class="cls-3" d="M398.33,133.9a14.57,14.57,0,0,1-.31,1.87,8.23,8.23,0,0,1-2.88,4.79c-.07.05-.21-.07-.18-.14a12.18,12.18,0,0,0,1.55-4.7,50.19,50.19,0,0,0,.29-6.52c0-2.2-.05-3.44-.13-4.56a8.62,8.62,0,0,1,2,1h9.52c.74-.74.88-.84,1-.84s.32.1,1,.63c.31.27.41.39.41.54s-.05.21-.48.52v2c0,8.3.07,9,.07,10.08a1.47,1.47,0,0,1-.65,1.48,2.56,2.56,0,0,1-1.38.43c-.31,0-.36-.16-.42-.49-.14-.81-.67-1-2-1.35-.09,0-.09-.21,0-.21.84.07,1.56.09,2.34.09.25,0,.3-.07.3-.31v-4.3h-4.17c0,2.3,0,4.46,0,5.38,0,.54-.3.74-1,.74-.58,0-.79-.2-.79-.72,0-.25.05-1.06.05-2.66V133.9Zm.22-4c0,1.21-.08,2.42-.18,3.62h4.12v-3.62Zm3.94-.41v-3.38h-3.93v.84c0,.85,0,1.69,0,2.54Zm5.92-3.38h-4.17v3.38h4.17Zm0,3.79h-4.17v3.62h4.17Z"/><path class="cls-3" d="M419.23,138.8v.7c0,.56-.34.77-1,.77s-.78-.16-.78-.63c0-.66.09-1.44.09-4.12,0-1.05,0-2.09-.05-3.13a16.37,16.37,0,0,1,1.93.9h2.77c.65-.71.79-.81.93-.81s.33.1,1,.64c.27.26.38.38.38.53s-.11.25-.47.54V135c0,2.24.11,3.87.11,4.38s-.36.66-1,.66-.76-.19-.76-.63v-.64Zm3.11-5.1h-3.11v4.68h3.11Zm-.29-3.24v.38c0,.56-.32.79-1,.79s-.81-.2-.81-.65.06-1.08.06-3.08c0-1.1,0-2.19-.11-3.29a20.72,20.72,0,0,1,2.09,1h5.27c.69-.76.83-.87,1-.87s.33.11,1,.67c.31.25.42.38.42.52s-.15.34-.51.56v.7c0,1.88,0,3.24,0,3.66s-.27.77-1,.77c-.52,0-.76-.18-.76-.65v-.5Zm5.69-4.45h-5.69v4h5.69Zm-.39,12.79v.61c0,.52-.34.74-1,.74-.52,0-.76-.18-.76-.62,0-.64.09-1.44.09-4.07,0-1,0-2.07-.05-3.11a17.78,17.78,0,0,1,1.91.9h3c.67-.7.81-.81,1-.81s.32.11,1,.65c.29.25.4.38.4.52s-.11.27-.49.54V135c0,2.25.11,3.81.11,4.32s-.34.79-1.05.79c-.52,0-.74-.18-.74-.61v-.72Zm3.36-5.14h-3.36v4.72h3.36Z"/><path class="cls-3" d="M445.82,123.87s0,.09-.09.16a11.16,11.16,0,0,0-.07,16.75c.12.12.16.16.16.23s0,.11-.09.11-.11,0-.24-.11a12.47,12.47,0,0,1-3.62-3.87,9.21,9.21,0,0,1,0-9.4,12.71,12.71,0,0,1,3.64-3.89c.09,0,.13-.09.18-.09A.12.12,0,0,1,445.82,123.87Z"/><path class="cls-3" d="M464.9,129.72c.57-.7.72-.81.86-.81s.33.11,1.21.86c.41.38.52.51.52.65,0,.29-.2.42-.83.43-.25,0-.32,0-.63.26a12.13,12.13,0,0,1-1.49.95c-.08,0-.17,0-.13-.11a7.38,7.38,0,0,0,.63-1.81H453.18c.1,1.38-.45,2.46-1.46,2.46a.83.83,0,0,1-.88-.88,1,1,0,0,1,.64-.92,2,2,0,0,0,1.25-1.83c0-.1.16-.11.19,0a6.26,6.26,0,0,1,.2.77h1.23v-2.57c0-1,0-2-.09-2.9a15.23,15.23,0,0,1,1.89.83H462c.54-.63.71-.76.85-.76s.38.13,1.05.65c.3.23.41.36.41.5s-.09.29-.54.56v3.69Zm-8.54,7c0,1.75.06,2.56.06,3.37,0,.5-.31.72-1.06.72-.58,0-.76-.14-.76-.59,0-.81.07-2.83.07-6.09,0-1.31,0-1.91-.09-3.42a11.1,11.1,0,0,1,2,1h5.08c.63-.69.77-.8.92-.8s.32.11,1.06.67c.34.29.45.41.45.56s-.11.29-.54.57v1.52c0,3.47,0,4.37,0,4.79a1.41,1.41,0,0,1-.74,1.45,3.71,3.71,0,0,1-1.24.31c-.24,0-.27-.14-.33-.45-.12-.7-.52-1-2-1.39-.09,0-.09-.25,0-.23a19.53,19.53,0,0,0,2.39.13c.14,0,.2-.06.2-.26v-1.89Zm1.62-7v-1.58a12.37,12.37,0,0,0-.11-1.71,10.69,10.69,0,0,1,1.77.75h2.54v-1.69H456v4.23Zm3.84,2.45h-5.47V134h5.47Zm0,2.23h-5.47v1.93h5.47Zm.36-6.8h-2.65v2.12h2.65Z"/><path class="cls-3" d="M477.13,134.13c0,2.07,0,5.12,0,6,0,.5-.29.68-1,.68-.48,0-.67-.16-.67-.61s.11-2.73.15-5.06a10.58,10.58,0,0,1-3.19,3.26c-.07.06-.2-.11-.14-.18a16.19,16.19,0,0,0,3.15-6.08h-1.6a5.55,5.55,0,0,0-1,.1l-.2-.66a4.76,4.76,0,0,0,1.15.14h1.78v-.86a9.65,9.65,0,0,0-.1-1.71c2.05.21,2.16.25,2.16.54s-.13.25-.53.43v1.6h.4c.63-.83.85-1,1-1s.36.14,1,.68c.29.24.43.4.43.53s-.05.18-.23.18h-2.58v1.38c1.59.29,2.56,1,2.56,1.93a.86.86,0,0,1-.83.9c-.41,0-.59-.2-.77-.88a3.37,3.37,0,0,0-1-1.62Zm-1.47-7.29a10.58,10.58,0,0,1-3,2.74c-.07,0-.25-.09-.2-.17a12,12,0,0,0,2-3.31,10.39,10.39,0,0,0,.67-2c1.62.43,2.23.7,2.23,1s-.2.33-.79.4c-.22.36-.43.7-.67,1h2.31c.7-.85.92-1,1-1s.36.14,1,.7c.29.23.43.39.43.52s0,.18-.23.18H476.9c1.33.45,1.89,1,1.89,1.69a.9.9,0,0,1-.88.94c-.52,0-.65-.18-.79-1.06a3.19,3.19,0,0,0-.62-1.57Zm6.71,0a9.26,9.26,0,0,1-2.64,2.57c-.07.06-.22-.07-.16-.14a14.18,14.18,0,0,0,1.76-3.24,7.42,7.42,0,0,0,.54-1.94c1.53.39,2.16.66,2.16.9s-.27.34-.79.37c-.2.38-.4.74-.6,1.07h3.3c.83-1,1-1.17,1.17-1.17s.36.14,1.24.81c.4.32.54.46.54.59s-.05.18-.23.18H484c1.19.43,1.67.9,1.67,1.58a1,1,0,0,1-.95,1c-.52,0-.63-.14-.77-1.08a3.26,3.26,0,0,0-.53-1.49Zm-.59,12.73v.49c0,.52-.27.72-.94.72-.5,0-.72-.15-.72-.62,0-.7.08-2.48.08-6.93,0-1.65,0-2.41-.11-3.89.83.35,1,.42,1.8.83H486c.63-.7.77-.81.92-.81s.32.11,1,.65c.29.25.4.38.4.52s-.07.25-.54.56v1.48c0,3.9.07,6.62.07,7.5,0,.49-.34.69-.94.69s-.73-.16-.73-.56v-.63Zm4.38-9h-4.38V133h4.38Zm0,2.86h-4.38V136h4.38Zm0,2.93h-4.38v2.78h4.38Z"/><path class="cls-3" d="M494.27,136.49a.16.16,0,0,1,.16-.16,9,9,0,0,1,3.15,1.24,2.26,2.26,0,0,1,1.15,1.82,1,1,0,0,1-1.08,1.12,1.08,1.08,0,0,1-.95-.81,6.19,6.19,0,0,0-2.3-3A.21.21,0,0,1,494.27,136.49Z"/><path class="cls-3" d="M519,125.44c.74-.72.88-.83,1-.83s.36.11,1,.74c.31.27.42.41.42.55s-.09.31-.63.63c0,1.44,0,1.64,0,2.65,0,3.55.22,5.82.83,7.49.23.67.45,1.15.57,1.15s.45-.41,1.1-2c0-.09.22,0,.2.07a12.75,12.75,0,0,0-.31,2.56c0,.21,0,.32.36.93a1.19,1.19,0,0,1,.09.54.74.74,0,0,1-.79.79,1.83,1.83,0,0,1-1.26-.72,10.26,10.26,0,0,1-1.93-4.41c-.41-2-.5-3.33-.52-9.72h-9v1.28a40.83,40.83,0,0,1-.4,7.6,11,11,0,0,1-3.22,6.05c-.08.05-.22-.11-.17-.18a13.89,13.89,0,0,0,1.9-6.07,47.1,47.1,0,0,0,.19-4.81,47.9,47.9,0,0,0-.14-5.29,9.37,9.37,0,0,1,2.11,1Zm-3.64,12.44c.71-.11,1.39-.2,2.07-.33a4.27,4.27,0,0,0-1-1.53c0-.07.09-.2.18-.16,2.07.94,3.06,2,3.06,3.08a1,1,0,0,1-.93,1c-.49,0-.72-.34-.92-1.1-.09-.34-.18-.63-.25-.88a31.89,31.89,0,0,1-6.5,1.83c-.11.51-.2.63-.4.63s-.47-.55-.85-2.23c.31,0,.45,0,.63,0a30.76,30.76,0,0,0,3.37-.18v-3.21H512.5v.44c0,.46-.21.64-.93.64-.42,0-.6-.21-.6-.45s.08-1.13.08-3.18a20.47,20.47,0,0,0-.11-2.34,17.38,17.38,0,0,1,1.66.86h1.29v-1.91c-.83.08-1.78.13-2.88.15-.09,0-.14-.22-.05-.24a19.93,19.93,0,0,0,4.19-1.15,5.55,5.55,0,0,0,1.89-1.08c1.14.9,1.41,1.17,1.41,1.4s-.29.27-.85.15a13.1,13.1,0,0,1-2.2.57v2.11h1.43c.46-.57.61-.68.75-.68s.33.11.87.56c.23.21.34.34.34.48s-.11.25-.45.49v.56c0,1.47,0,2.48,0,2.81s-.21.61-.88.61c-.43,0-.63-.11-.63-.49v-.31H515.4Zm-1.51-3.46v-3.2H512.5v3.2Zm3,0v-3.2H515.4v3.2Z"/><path class="cls-3" d="M533.11,130.42v.2c0,.61-.34.81-1,.81s-.76-.2-.76-.61.06-1,.06-2.9c0-1.12,0-2.23-.11-3.35,1,.43,1.13.51,2.11,1h6.37c.69-.76.83-.86,1-.86s.33.1,1,.68c.3.25.41.36.41.5s-.14.35-.5.56v.7c0,1.82.05,3.17.05,3.59s-.34.75-1,.75-.76-.21-.76-.61v-.47h-2.48a14,14,0,0,1-2,3.41h5.85c.7-.81.85-.92,1-.92s.33.11,1.1.75c.36.31.47.44.47.58s-.14.32-.59.59v.82c0,2.12,0,3.58,0,4.06s-.41.74-1.08.74-.77-.2-.77-.61v-.59h-9.87v.46c0,.51-.36.74-1,.74-.54,0-.75-.2-.75-.63,0-.65,0-1.31,0-3.94,0-1,0-2,0-3.08,1,.47,1.11.54,2,1h3a19.57,19.57,0,0,0,.56-3.41Zm8.31,3.82h-9.87v4.59h9.87ZM539.9,126h-6.79v4h6.79Z"/><path class="cls-3" d="M553.71,134c0-.49,0-.92,0-1.28,1.82.16,2,.31,2,.45s-.14.23-.43.34v.9h1.89c.61-.77.83-.92,1-.92s.36.15,1,.65c.29.24.44.38.44.51s-.06.18-.24.18h-5c0,.41-.09.83-.17,1.24h2.17c.5-.61.64-.72.79-.72s.32.11.88.57c.23.22.34.35.34.49s0,.18-.45.47a8.81,8.81,0,0,1-.77,2.95,1.7,1.7,0,0,1-.78.72,2.51,2.51,0,0,1-1,.18c-.29,0-.35-.05-.4-.47s-.33-.73-1.33-1.11c-.09,0-.06-.24,0-.22a11.41,11.41,0,0,0,1.91.24c.2,0,.36-.18.5-.65a12.54,12.54,0,0,0,.33-2H554a5.84,5.84,0,0,1-4.14,4.31c-.09,0-.21-.13-.14-.18a7.07,7.07,0,0,0,2.93-5.78H551a4.94,4.94,0,0,0-.94.1l-.2-.66a4,4,0,0,0,1.07.14h2.79Zm1.45-5.78h1.57c.51-.58.65-.65.76-.65s.29.07.88.56c.25.21.36.34.36.43s-.11.25-.43.47v.58c0,1.06,0,2.32,0,2.86s-.27.61-.82.61c-.38,0-.6-.13-.6-.41v-.2H552.1v.23c0,.38-.3.58-.82.58s-.67-.16-.67-.51,0-.86,0-3a14.24,14.24,0,0,0-.09-2.31c.79.35.92.4,1.7.78h1.47v-1.28h-2.48a7.37,7.37,0,0,0-1.14.11l-.19-.67a6.35,6.35,0,0,0,1.33.15h2.48v-.58c0-.92,0-1.51-.07-1.73,1.87.2,2.07.38,2.07.56s-.18.31-.58.43v1.32h2.08a3.38,3.38,0,0,1,.28-.42.53.53,0,0,1-.18,0c-.34,0-.48-.13-.66-.61a1.88,1.88,0,0,0-.74-1c-.07-.06,0-.13,0-.13,1.37.06,2,.38,2,1a1,1,0,0,1-.07.37c.18,0,.34.06,1.09.56.29.2.44.34.44.47s-.06.18-.24.18h-4.09Zm-1.42.41H552.1v1.48h1.64Zm0,1.89H552.1V132h1.64Zm3.17-.41v-1.48h-1.75v1.48Zm0,1.94v-1.53h-1.75V132Zm8-3.24a18.21,18.21,0,0,1-2,6.86,10.57,10.57,0,0,0,3.94,2.87c.09,0,0,.14,0,.18-.43.21-.56.37-.83,1.29-.11.42-.16.51-.31.51a1.56,1.56,0,0,1-.7-.36,10.64,10.64,0,0,1-2.9-3.25,12,12,0,0,1-4.75,3.75c-.09,0-.2-.16-.13-.22a13.7,13.7,0,0,0,4.14-4.91,21.13,21.13,0,0,1-1.35-4.75,9.45,9.45,0,0,1-1.36,1.72c-.08.08-.22,0-.18-.1a21.88,21.88,0,0,0,1.67-5.66,20.66,20.66,0,0,0,.25-2.39c2.09.47,2.36.57,2.36.84s-.14.31-.68.45a28.27,28.27,0,0,1-.89,2.76H564c.78-1,1-1.12,1.12-1.12s.34.15,1.1.78c.32.28.47.45.47.57s-.06.18-.24.18Zm-3.89,0a14.72,14.72,0,0,1-.72,1.5,13.94,13.94,0,0,0,1.64,4,19.1,19.1,0,0,0,1.28-5.49Z"/><path class="cls-3" d="M571.76,123.85a12.71,12.71,0,0,1,3.64,3.89,9.21,9.21,0,0,1,0,9.4,12.47,12.47,0,0,1-3.62,3.87c-.13.09-.18.11-.24.11s-.09,0-.09-.11,0-.11.16-.23a11.16,11.16,0,0,0-.07-16.75c-.07-.07-.09-.11-.09-.16a.12.12,0,0,1,.13-.11S571.67,123.8,571.76,123.85Z"/><path class="cls-3" d="M355.8,93.5c1.49.52,2.23,1.26,2.23,2.14a.94.94,0,0,1-.87,1c-.37,0-.54-.23-.63-.88a3.35,3.35,0,0,0-.73-2c0,4.5.09,8.23.09,9.25,0,.45-.38.61-1,.61s-.7-.14-.7-.5c0-.88.11-4.39.14-8a11.77,11.77,0,0,1-2.62,4.3c-.06.07-.22,0-.18-.11a26.9,26.9,0,0,0,2.48-7.58h-.69a8,8,0,0,0-1.18.11l-.2-.66a6.73,6.73,0,0,0,1.31.14h1v-2a23.09,23.09,0,0,0-.09-2.31c1.94.2,2.28.27,2.28.58s-.2.36-.66.56V91.3h.25c.52-.92.74-1.06.86-1.06s.33.14.92.74c.24.25.38.43.38.55s0,.18-.24.18H355.8Zm5.72-2.4c0-.68.06-1.4.06-2.14s0-1.1-.08-1.86c2.09.27,2.36.36,2.36.65s-.18.34-.59.47c0,1-.06,2-.13,2.88h2.94c.61-.72.75-.83.9-.83s.32.11,1.08.78c.34.32.45.45.45.59s-.2.4-.54.4-.38,0-.51.2a10.92,10.92,0,0,1-1.62,1.51c-.07,0-.18,0-.14-.13a9.35,9.35,0,0,0,.58-2.1h-3.17c-.06.79-.16,1.58-.29,2.37,1.28.15,1.65.25,1.65.51s-.16.27-.48.43v6.5c0,.39.23.5,1.15.5s1.35-.07,1.53-.27a7.79,7.79,0,0,0,1-2.61c0-.09.19-.09.19,0,0,.76,0,1.53,0,2.09,0,.16.07.31.32.49a.66.66,0,0,1,.36.59c0,.38-.23.65-.68.85a7,7,0,0,1-2.58.34c-2.25,0-2.75-.34-2.75-1.87,0-.2,0-.36,0-1.19q0-2.32,0-4.65a11.72,11.72,0,0,1-5.85,7.78c-.08.06-.25-.16-.18-.22,3.17-2.77,4.71-6.28,5.07-11.64h-1.94c.11,1.2-.29,2.37-1.26,2.37a.73.73,0,0,1-.77-.81c0-.34.08-.47.55-.88a2.43,2.43,0,0,0,.9-2c0-.1.18-.13.22,0a4.07,4.07,0,0,1,.31,1Z"/><path class="cls-3" d="M374.48,96.67c0-1.64,0-3.28,0-4.94a13.82,13.82,0,0,1-1.27.79c-.08,0-.2-.09-.15-.16a15.65,15.65,0,0,0,2.5-3.31,7.57,7.57,0,0,0,.81-2.09c1.84.54,2.22.7,2.22,1s-.11.24-.56.33c2,.63,2.59,1.11,2.59,2a.82.82,0,0,1-.73.9c-.44,0-.51-.07-.94-1a5.06,5.06,0,0,0-1.22-1.64A16.46,16.46,0,0,1,376.48,90c1.78.16,1.94.32,1.94.48s-.14.26-.45.4v1.4h.44c.57-.57.71-.68.86-.68s.32.11.88.58c.24.19.34.32.34.46s-.09.24-.43.45v.85c0,2.12.05,3.22.05,3.6s-.25.69-.88.69-.68-.15-.68-.62v-.12H376v3.47a22.28,22.28,0,0,0,2.41-.59,5.5,5.5,0,0,0-.83-1.57c0-.07,0-.2.11-.16,1.79.76,2.67,1.64,2.67,2.66a1,1,0,0,1-.94,1.16c-.34,0-.5-.18-.61-.65s-.16-.65-.24-.92a26.49,26.49,0,0,1-3.94,1.91c-.12.49-.2.59-.38.59s-.25,0-.93-2.1c.34,0,.74,0,1.15-.09Zm2-5.48a9.42,9.42,0,0,0-.06-1.17,12.61,12.61,0,0,1-1.72,1.53,10.29,10.29,0,0,1,1.42.7h.36Zm2.07,1.48H376v1.87h2.54ZM376,97h2.54V95H376Zm7,3.62c0,.51-.27.69-.95.69-.52,0-.67-.13-.67-.6,0-1.15.07-2.3.07-7,0-.41,0-.81,0-1.22a7.71,7.71,0,0,1-.83.77c-.07.06-.23-.07-.18-.14a14.43,14.43,0,0,0,1.62-3.8,19.47,19.47,0,0,0,.52-2.52c2.16.74,2.25.77,2.25,1s-.21.3-.72.36c-.25.57-.48,1.11-.74,1.58h4.13c.79-1,1-1.17,1.13-1.17s.34.15,1.12.81c.34.31.48.47.48.6s-.05.18-.23.18h-3.93v2.82h1.45c.59-.61.73-.72.88-.72s.32.11.92.6c.27.25.37.38.37.52s-.1.27-.48.56V95c0,4.18,0,4.45,0,4.74,0,.68-.06.9-.27,1.15a1.76,1.76,0,0,1-1.34.51c-.23,0-.3-.08-.34-.31a1.21,1.21,0,0,0-1-1.12c-.09,0-.09-.21,0-.21.43,0,.78.05,1.12.05s.27-.05.27-.23v-6h-1.59v1.24c0,3.06.08,6.9.08,8.18,0,.52-.25.71-1,.71s-.75-.12-.75-.66c0-.87.09-3.51.09-8.79v-.68H383Zm.13-10.42a11.53,11.53,0,0,1-1.46,2.09,10.09,10.09,0,0,1,1.55.73h1.28V90.24Z"/><path class="cls-3" d="M399.21,92.49a8.55,8.55,0,0,1,1-2,1.89,1.89,0,0,1,1.53-.83,2.38,2.38,0,0,1,2,1.28,7.56,7.56,0,0,1,.88,3.73,8,8,0,0,1-1.24,4.79,6.89,6.89,0,0,1-2.34,2.23A10.88,10.88,0,0,1,398,103a1.86,1.86,0,0,1-.52.09c-.14,0-.23,0-.23-.18s.1-.14.32-.24a8.53,8.53,0,0,0,4.27-3.27,8.23,8.23,0,0,0,1.13-4.92,9.45,9.45,0,0,0-.36-3c-.27-.77-.65-1-1.11-1-.85,0-1.48.68-2.34,4.34a9.59,9.59,0,0,0-.35,1.93c0,.61.09.91.09,1.2,0,.49-.18.67-.63.67s-1-.58-1.17-1.32a7.87,7.87,0,0,1-.25-2.41,25.19,25.19,0,0,1,.43-3.92,9,9,0,0,0,.15-1.55,1.61,1.61,0,0,0-.47-1.1c-.07-.09-.14-.15-.14-.24s.16-.21.39-.21a1,1,0,0,1,.52.21,3.47,3.47,0,0,1,1.19,1.39,1.75,1.75,0,0,1,.22.78.68.68,0,0,1-.24.57,1.94,1.94,0,0,0-.3.54,9.69,9.69,0,0,0-.65,3.13,5.61,5.61,0,0,0,.05,1c0,.14.18.12.24,0C398.64,94,398.91,93.28,399.21,92.49Z"/><path class="cls-3" d="M413.94,94.09a14.78,14.78,0,0,1-2.6,2.22c-.07,0-.23-.08-.18-.15a19.3,19.3,0,0,0,3.64-5.87,14.76,14.76,0,0,0,.88-3.19c1.66.47,2.4.76,2.4,1s-.18.33-.69.43a20,20,0,0,1-2.27,4.13c.78.12.91.2.91.38s-.11.25-.47.41v9.35c0,.52-.33.75-.94.75-.4,0-.79-.14-.79-.65s.11-1.91.11-4.77Zm11.32,6.5a51.2,51.2,0,0,1-7.65,1.75c-.13.57-.2.7-.41.7s-.29,0-.94-2.54a9.55,9.55,0,0,0,1.11.07h.4a58.84,58.84,0,0,0,2.59-9.88,29.82,29.82,0,0,0,.33-3.14c2.5.54,2.77.65,2.77.94s-.16.38-.7.54a43.33,43.33,0,0,1-4.22,11.52c1.48,0,4.81-.23,6.59-.45a20.84,20.84,0,0,0-1.87-4.71c0-.08.15-.2.22-.13,2.83,2.77,4,4.63,4,6.19,0,.87-.43,1.45-1.06,1.45s-.79-.37-1-1.55Z"/><path class="cls-3" d="M446.46,98.74c.94-1.1,1.12-1.28,1.25-1.28s.36.14,1.28.88c.41.34.55.5.55.63s-.05.18-.23.18H434.78a11,11,0,0,0-1.39.11l-.19-.67a8.16,8.16,0,0,0,1.51.15ZM439,101.22a13.12,13.12,0,0,1-5.45,2.29c-.09,0-.17-.15-.09-.18a15.42,15.42,0,0,0,3.27-2.34,7.66,7.66,0,0,0,1.17-1.48c1.75.85,2.16,1.1,2.16,1.33S439.89,101.24,439,101.22Zm-1.19-4.16c0,.45-.32.67-1.08.67-.52,0-.7-.18-.7-.63,0-1.17.09-2.36.09-7.08a22.92,22.92,0,0,0-.13-2.75,10,10,0,0,1,2,1h6.26c.69-.76.83-.86,1-.86s.31.1,1,.7c.28.27.39.41.39.56s-.11.27-.5.56v1.27c0,3.42.09,5.71.09,6.48,0,.44-.38.67-1.06.67-.51,0-.71-.16-.71-.54v-.34h-6.57Zm6.57-8.33h-6.57v2.19h6.57Zm-6.57,4.84h6.57V91.34h-6.57Zm0,2.83h6.57V94h-6.57Zm8.83,7c-.42,0-.71-.2-1.14-.8a8.44,8.44,0,0,0-3.24-2.63c-.09,0,0-.21.09-.19,3.44.45,5.2,1.36,5.2,2.7A.91.91,0,0,1,446.65,103.44Z"/><path class="cls-3" d="M467.61,95c1.05-1.29,1.27-1.44,1.39-1.44s.36.15,1.41,1c.48.4.63.56.63.69s-.06.18-.24.18H456.69a14.75,14.75,0,0,0-1.75.11l-.2-.67a12.61,12.61,0,0,0,1.91.14Z"/><path class="cls-3" d="M487.22,91.26a19.6,19.6,0,0,0,.7,4.88,9,9,0,0,0,2.23,3.89,2.18,2.18,0,0,0,1,.69c.27,0,.51-.42,1.19-2.15,0-.09.18,0,.18.08-.14,2-.14,2.08-.14,2.53s0,.38.28.76a1.11,1.11,0,0,1,.2.61.75.75,0,0,1-.79.78,3.78,3.78,0,0,1-1.95-.83A10.63,10.63,0,0,1,486.37,97a24,24,0,0,1-.85-5.71h-7.34a11,11,0,0,0-1.39.11l-.2-.66a9.19,9.19,0,0,0,1.52.14h7.4c0-.52,0-1.06-.06-1.64s0-1.12-.11-2c2.2.25,2.29.31,2.29.58s-.13.27-.5.41c0,1,0,1.85.07,2.63h2.36c.84-1,1.06-1.15,1.19-1.15s.34.14,1.11.79c.34.31.49.47.49.59s-.06.18-.24.18Zm-6.86,3.6h-1.62a9.48,9.48,0,0,0-1.3.11l-.2-.66a8.17,8.17,0,0,0,1.44.14h3.91c.86-1.06,1.06-1.21,1.19-1.21s.34.13,1.13.81c.36.33.51.51.51.63s-.06.18-.24.18h-3v4.6a32.71,32.71,0,0,0,3.48-1c.09,0,.2.2.12.25-1.87,1.26-3.52,2-7.59,3.28-.15.57-.22.68-.42.68s-.54-.56-1-2.38a20.9,20.9,0,0,0,2.14-.21l1.43-.24ZM490,90c-.37,0-.52-.12-.9-.82A3.92,3.92,0,0,0,488,87.82c-.07,0-.05-.18,0-.18,1.86.17,2.81.67,2.81,1.52A.86.86,0,0,1,490,90Z"/><rect class="cls-3" x="323.68" y="93.38" width="9.19" height="9.19" transform="translate(26.87 260.83) rotate(-45)"/><rect class="cls-3" x="323.68" y="131.5" width="9.19" height="9.19" transform="translate(-0.09 271.99) rotate(-45)"/><rect class="cls-3" x="323.68" y="169.12" width="9.19" height="9.19" transform="translate(-26.68 283.01) rotate(-45)"/><path class="cls-3" d="M358.89,174.14a11.2,11.2,0,0,1-6.84,4.29c-.09,0-.2-.2-.11-.24a11.67,11.67,0,0,0,5.49-4.7c1.27-2.21,1.55-4.86,1.55-9.4,0-.59,0-.91-.05-1.51,2,.22,2.48.34,2.48.6s-.12.34-.63.52c0,1.42,0,2.64-.12,3.71a9.77,9.77,0,0,0,3,6.5,11.19,11.19,0,0,0,4.9,2.52c.09,0,.09.2,0,.21-.45.06-.88.56-1.19,1.34-.12.28-.18.34-.34.34a2.41,2.41,0,0,1-1-.4,12.84,12.84,0,0,1-3.59-3.29,11,11,0,0,1-1.87-5.51A10.22,10.22,0,0,1,358.89,174.14Zm-2.81-6.07c0,2.11-.82,3.12-1.89,3.12a1,1,0,0,1-1.06-1,1.42,1.42,0,0,1,.81-1.26,3.33,3.33,0,0,0,1.77-2.82c0-.09.18-.08.19,0A10.7,10.7,0,0,1,356.08,168.07Zm10.07-.38a13.25,13.25,0,0,1-4.11,3.17c-.07,0-.19-.12-.14-.19a16.23,16.23,0,0,0,2.07-3.14,10.54,10.54,0,0,0,.72-1.78c2.05,1,2.34,1.24,2.34,1.51S366.83,167.62,366.15,167.69Z"/><path class="cls-3" d="M379.85,168.25c.46-.52.61-.63.75-.63s.31.11,1,.67c.27.25.37.4.37.54s-.18.32-.59.43c-1.78,2.47-4.3,3.84-7.87,4.3-.09,0-.16-.21-.07-.25a13.55,13.55,0,0,0,4.07-2.07.5.5,0,0,1-.16,0c-.31,0-.44-.13-.58-.59a1.7,1.7,0,0,0-.59-.94,15.33,15.33,0,0,1-2.6,1.3c-.09,0-.21-.18-.14-.24a12.59,12.59,0,0,0,3.13-3,4.2,4.2,0,0,0,.58-1.1h-1.75a7.23,7.23,0,0,0-1.22.11l-.2-.67a7.5,7.5,0,0,0,1.46.14h11.25c.85-.93,1.06-1.08,1.19-1.08s.36.15,1.15.76c.34.29.49.43.49.56s-.06.18-.24.18H377.47c1.37.38,1.58.5,1.58.7s-.16.29-.65.32c-.16.2-.34.38-.5.56Zm4.78-4c0,.41,0,.7,0,.82,0,.42-.3.6-1,.6-.45,0-.65-.15-.65-.49,0-.12,0-.41,0-.93H379.9c0,.43,0,.73,0,.88,0,.38-.31.57-.9.57s-.74-.16-.74-.52c0-.12,0-.41,0-.93h-3.22a8.27,8.27,0,0,0-1.21.1l-.19-.66a7.25,7.25,0,0,0,1.44.14h3.18v-.45a10.56,10.56,0,0,0-.05-1.33c2,.18,2.23.23,2.23.49s-.16.3-.59.43v.86h3.15v-.29A15,15,0,0,0,383,162c1.73.16,2.19.25,2.19.51s-.14.28-.54.44v.85h2.29c.9-1,1.12-1.17,1.24-1.17s.36.14,1.23.83c.38.31.52.45.52.58s-.05.18-.23.18Zm-4.53,10.31a4,4,0,0,1-1.28,2.54,8.39,8.39,0,0,1-4.88,1.71c-.09,0-.2-.23-.11-.27,2.29-.79,3.22-1.38,4-2.63a3.7,3.7,0,0,0,.5-1.35h-3.17a8.45,8.45,0,0,0-1.22.11l-.2-.67a7.41,7.41,0,0,0,1.44.15h3.19c0-.22,0-.47,0-.72s0-.52,0-1c2.16.28,2.32.36,2.32.59s-.18.32-.58.49v.61h2.81c0-.45,0-.88-.09-1.55,1.71.16,2.25.29,2.25.54s-.14.29-.5.43v.58h2.32c.88-1,1.1-1.1,1.23-1.1s.37.14,1.18.76c.38.3.53.45.53.57s-.06.18-.24.18h-5c0,1.73.09,2.94.09,3.35s-.33.72-1.05.72c-.57,0-.75-.2-.75-.65s.05-1.33.05-3.33v-.09Zm-2.61-5.9c-.36.32-.74.63-1.14.92,1.17.09,1.66.39,1.66.95a.77.77,0,0,1-.07.34,8.6,8.6,0,0,0,1.89-2.21Zm6.57.66a14.4,14.4,0,0,0,2.05-1.22,6,6,0,0,0,1.05-.94c1.2.85,1.56,1.12,1.56,1.32s-.16.3-.86.23a15.27,15.27,0,0,1-3.8,1.08v.68c0,.55.18.6,1.76.6,1.19,0,1.66,0,2-.27a4.31,4.31,0,0,0,1-1.55c0-.09.18-.07.18,0,0,.36-.11.88-.11,1.12s0,.23.22.32a.74.74,0,0,1,.45.63c0,.38-.25.63-.83.81a10.82,10.82,0,0,1-2.86.25c-2.79,0-3.32-.3-3.32-1.78,0-.16,0-.34,0-1,0-.9,0-1.8-.09-2.72,1.91.2,2.11.26,2.11.54s0,.2-.54.44Z"/><path class="cls-3" d="M398.33,171.8a14.57,14.57,0,0,1-.31,1.87,8.2,8.2,0,0,1-2.88,4.79c-.07.06-.21-.07-.18-.14a12.18,12.18,0,0,0,1.55-4.7,50.09,50.09,0,0,0,.29-6.52c0-2.2-.05-3.44-.13-4.55a8.22,8.22,0,0,1,2,1h9.52c.74-.74.88-.84,1-.84s.32.1,1,.63c.31.27.41.39.41.54s-.05.21-.48.52v2c0,8.3.07,9,.07,10.08,0,.92-.22,1.16-.65,1.48a2.57,2.57,0,0,1-1.39.43c-.3,0-.35-.16-.41-.48-.14-.81-.67-1-2-1.36-.09,0-.09-.21,0-.21.84.07,1.56.09,2.34.09.25,0,.3-.07.3-.31v-4.3h-4.17c0,2.3,0,4.47,0,5.38,0,.54-.3.74-1,.74-.58,0-.79-.2-.79-.72,0-.25.05-1.06.05-2.66V171.8Zm.22-4c0,1.2-.08,2.41-.18,3.62h4.12v-3.62Zm3.94-.42V164h-3.93v.84c0,.85,0,1.7,0,2.54Zm5.92-3.38h-4.17v3.38h4.17Zm0,3.8h-4.17v3.62h4.17Z"/><path class="cls-3" d="M426.79,177.51h.52a22.91,22.91,0,0,0,1.19-2.4,7.65,7.65,0,0,0,.38-1.2c1.64.52,2,.7,2,1s-.09.25-.66.38a11.8,11.8,0,0,1-2.52,2.27h2.46c.81-1.12,1-1.26,1.16-1.26s.35.14,1.31.88c.43.34.58.49.58.61s-.06.18-.24.18H418a9.34,9.34,0,0,0-1.28.11l-.2-.67a7.06,7.06,0,0,0,1.41.15h4.48v-4.23h-4a7.58,7.58,0,0,0-1.17.1l-.2-.66a5.89,5.89,0,0,0,1.3.14H429.9c.74-.86,1-1,1.09-1s.37.15,1.11.71c.36.27.51.41.51.54s-.06.18-.24.18h-5.58ZM430.7,165c.59-.72.74-.83.88-.83s.34.08,1.24.87c.42.38.47.57.47.72s-.23.32-.88.32a.73.73,0,0,0-.6.27,8.12,8.12,0,0,1-1,.76c-.08,0-.18,0-.15-.09a7.74,7.74,0,0,0,.35-1.6H425.6v.19c0,1.55.06,3.48.06,4.11,0,.38-.42.63-1,.63s-.84-.22-.84-.65c0-.25.09-1,.09-2.59v-1.69h-5c.07,1.2-.35,2.35-1.25,2.35a.88.88,0,0,1-.88-1c0-.38.11-.56.54-.83a2,2,0,0,0,1.12-1.78.09.09,0,0,1,.18,0,4.74,4.74,0,0,1,.23.84h5.08v-1.57h-3.4a11.55,11.55,0,0,0-1.43.11l-.19-.66a9.76,9.76,0,0,0,1.58.14h8.16c.81-.92,1-1.06,1.15-1.06s.38.14,1.19.74c.38.28.52.43.52.56s-.05.17-.23.17H425.6V165Zm-9.78,3.87c.56-.73.77-.88.9-.88s.36.15,1,.63c.25.2.4.36.4.49s-.06.18-.24.18h-3.43a4.75,4.75,0,0,0-.92.1l-.2-.66a3.88,3.88,0,0,0,1,.14ZM420.6,177c-.45,0-.56-.14-.78-1.08a3.2,3.2,0,0,0-1.06-1.82c-.07,0,0-.14.11-.12,1.91.41,2.64,1,2.64,2A1,1,0,0,1,420.6,177Zm7.49-6c.68-.81.9-1,1-1s.38.15,1.05.67c.32.25.46.4.46.52s-.05.18-.23.18H420.34a9,9,0,0,0-1.24.11l-.2-.67a7.06,7.06,0,0,0,1.41.15Zm-6.92-4c.51-.65.72-.8.85-.8s.34.15.83.56a.82.82,0,0,1,.32.47c0,.13-.05.18-.23.18H420.2a4.66,4.66,0,0,0-.9.11l-.2-.67a4.35,4.35,0,0,0,1.1.15Zm4.11,6.32H424v4.23h1.32Zm3.06-6.32c.5-.69.72-.83.84-.83s.33.14.81.57a.81.81,0,0,1,.33.49c0,.13-.06.18-.24.18h-2.73a5.42,5.42,0,0,0-1,.11l-.2-.67a4.57,4.57,0,0,0,1.13.15Zm.63,1.92c.59-.73.81-.88.93-.88s.36.15,1,.61c.27.24.41.38.41.51s-.05.18-.23.18h-3.59a6.33,6.33,0,0,0-1.06.1l-.2-.66a5.22,5.22,0,0,0,1.21.14Z"/><path class="cls-3" d="M441.93,168.4c1.22.5,1.9,1.22,1.9,2.07a.8.8,0,0,1-.75.88c-.29,0-.47-.23-.54-.72a4.53,4.53,0,0,0-.61-1.82c0,3.44.07,7.89.07,9.29,0,.43-.42.58-1,.58s-.65-.15-.65-.51c0-.91.13-4.7.14-7.95a9.29,9.29,0,0,1-2.46,4c-.08.07-.2,0-.17-.11a25.61,25.61,0,0,0,2.33-7.38h-.61a8.2,8.2,0,0,0-1.21.11l-.2-.67a6.42,6.42,0,0,0,1.33.15h.89V164.4a20.64,20.64,0,0,0-.09-2.3c1.92.19,2.25.26,2.25.55s-.18.33-.63.51v3.13c.46-.88.68-1,.81-1s.32.15.86.74c.23.25.38.43.38.56s-.06.18-.24.18h-1.81ZM452,177c.79-.95,1-1.1,1.13-1.1s.38.15,1.21.78c.38.29.52.43.52.56s-.05.18-.23.18H445.8v.52c0,.45-.26.65-1,.65s-.73-.2-.73-.51c0-1.65.09-3.49.09-10.15,0-1.84,0-3.69-.09-5.55.91.47,1.06.54,1.94,1h6c.87-1,1-1.12,1.16-1.12s.32.11,1.13.76c.38.34.49.47.49.61s-.07.16-.27.16H445.8V177Zm-1.14-10c.67-.76.81-.86,1-.86s.34.09,1,.66c.36.29.43.43.43.58s-.14.32-.64.52a20.13,20.13,0,0,1-1.43,3.24,5.77,5.77,0,0,0,1.3,1.48,7.71,7.71,0,0,0,2.63,1.38c.09,0,.05.18,0,.2a1.41,1.41,0,0,0-1,1c-.09.32-.13.36-.29.36a1.28,1.28,0,0,1-.49-.27,5.78,5.78,0,0,1-1.47-1.64,8,8,0,0,1-1-2,10.74,10.74,0,0,1-4.82,4.17c-.09,0-.18-.19-.11-.25a14.08,14.08,0,0,0,5.09-8.23h-1.87a10,10,0,0,1-3.06,4.11c-.07.05-.21-.05-.16-.13a19,19,0,0,0,2.11-5.15,15.25,15.25,0,0,0,.28-1.69c2,.54,2.11.61,2.11.85s-.11.29-.61.39c-.16.44-.33.83-.49,1.21Z"/><path class="cls-3" d="M467,165h-5.22a9,9,0,0,0-1.37.11l-.2-.67a8.65,8.65,0,0,0,1.57.14H467a19.9,19.9,0,0,0-.13-2.46c2.12.21,2.29.25,2.29.56s-.15.28-.58.46v1.44h4.3c.85-1,1.07-1.15,1.19-1.15s.38.15,1.26.81c.4.31.54.45.54.58s-.05.18-.23.18h-7.06v1.91H472c.63-.72.78-.83.92-.83s.33.11,1,.66c.31.27.41.4.41.54s-.1.33-.55.62v.83c0,2.17.07,3.69.07,4.17s-.26.67-1,.67c-.45,0-.67-.15-.67-.58v-.27h-3.47c0,.7,0,1.39,0,2.09h4.53c.87-1.06,1.08-1.21,1.21-1.21s.38.15,1.31.85c.44.32.58.47.58.59s-.05.19-.23.19h-7.4c0,1.34,0,2.34,0,2.89s-.34.69-1,.69c-.53,0-.76-.18-.76-.61s0-1.48,0-3H461.6a10.9,10.9,0,0,0-1.39.1l-.19-.66a9.54,9.54,0,0,0,1.56.14H467c0-.43,0-1.39,0-2.09h-3.26V173c0,.5-.27.7-1,.7-.5,0-.68-.2-.68-.58,0-.86.09-1.78.09-5.27a17,17,0,0,0-.09-1.88,13.48,13.48,0,0,1,1.89.89H467Zm-3.3,2.32v2.2H467c0-.45,0-.9,0-1.33v-.87Zm3.26,5c0-.7,0-1.77,0-2.38h-3.28v2.38Zm1.62-5c0,.74,0,1.46,0,2.2h3.49v-2.2Zm3.51,5v-2.38h-3.49c0,.58,0,1.68,0,2.38Z"/><path class="cls-3" d="M944.82,137.73c.66-.2,1.33-.42,1.92-.63.09,0,.16.16.09.21a17.72,17.72,0,0,1-4.48,2.74c0,.47-.16.68-.4.68s-.23,0-1-2.18a8,8,0,0,0,1.39-.19l.83-.2v-5.93h-.92a5.43,5.43,0,0,0-1,.11l-.2-.66a4.72,4.72,0,0,0,1.1.14h1v-3.11a23.89,23.89,0,0,0-.09-2.51c2.12.2,2.34.38,2.34.56s-.11.27-.61.51v4.55h.28c.6-.77.81-.92.94-.92s.34.15,1,.65c.26.22.4.38.4.5s0,.18-.23.18h-2.34Zm4-2.74a17.12,17.12,0,0,1-3.29,1.6c-.09,0-.22-.12-.15-.18a15.47,15.47,0,0,0,4.36-4.09,6.88,6.88,0,0,0,.92-1.74c2.2.57,2.2.57,2.2.81s-.24.32-.71.43a8.27,8.27,0,0,0,2.45,1.77,11.45,11.45,0,0,0,3.62,1.06c.09,0,.07.12,0,.16a1.94,1.94,0,0,0-.88,1.35c0,.32-.11.43-.25.43a2.7,2.7,0,0,1-.88-.36,12.85,12.85,0,0,1-2.35-1.67,10,10,0,0,1-2-2.43,14.43,14.43,0,0,1-3,2.82,5.59,5.59,0,0,0,1.13.13h1.78c.63-.79.85-.94,1-.94s.34.15.91.67c.24.22.38.38.38.5s0,.18-.23.18h-3.75a6.68,6.68,0,0,0-1.08.11Zm5.28-5.69c0,.58,0,1,0,1.17,0,.38-.31.58-.94.58s-.74-.13-.74-.49c0-.16,0-.56,0-1.26h-2.16c0,.68,0,1.13,0,1.35,0,.4-.34.59-1,.59s-.74-.14-.74-.5c0-.16,0-.61,0-1.44h-1.12a10.28,10.28,0,0,0-1.33.11l-.2-.67a8.2,8.2,0,0,0,1.53.15h1.12v-.45c0-1.16,0-1.63-.06-2.18,1.71.12,2.15.21,2.15.48s-.15.29-.45.42v1.73h2.16v-.54c0-1.21,0-1.54-.06-2.09,1.71.12,2.15.21,2.15.48s-.15.29-.47.42v1.73h1c.77-1,1-1.1,1.11-1.1s.34.14,1.07.77c.3.27.45.43.45.56s-.06.18-.24.18Zm-5,12.24v.56c0,.47-.33.69-.92.69s-.74-.13-.74-.54c0-.67,0-1.37,0-3.68,0-.9,0-1.44,0-2a11.14,11.14,0,0,1,1.75.8h4.41c.59-.71.74-.81.88-.81s.34.1,1,.61c.3.25.41.38.41.52s-.09.29-.43.49v.63c0,1.67.07,2.82.07,3.2s-.38.69-1,.69-.72-.18-.72-.62v-.54Zm4.71-3.76h-4.71v3.35h4.71Z"/><path class="cls-3" d="M964.72,131.12c-.28,0-.43-.13-.66-.56a3.74,3.74,0,0,0-1.3-1.57c-.07-.05,0-.16.07-.16,1.84.15,2.69.58,2.69,1.44A.82.82,0,0,1,964.72,131.12Zm1.17,1.58a1.4,1.4,0,0,0-.3.85c0,.56.32,1,.32,1.6a1,1,0,0,1-.94,1,.76.76,0,0,1-.82-.81c0-.54.18-1.06.18-1.6s-.29-.83-1.34-1.21c-.09,0,0-.23.06-.22a7.7,7.7,0,0,0,1.11.11,1.35,1.35,0,0,0,1.16-.56,32.71,32.71,0,0,0,2.59-3.33c.05-.07.25.08.22.15Zm2.45,3.89a8.58,8.58,0,0,0,.6-1.06l-1.07.13c-.09,0-.19-.24-.1-.26a19.65,19.65,0,0,0,4.88-1.94,6.89,6.89,0,0,1-1.84-2.54H970a7.28,7.28,0,0,1-.72,2.36,7.08,7.08,0,0,1-2.81,2.65c-.07,0-.23-.15-.16-.2a6.15,6.15,0,0,0,1.91-2.94,13.51,13.51,0,0,0,.32-3.62c0-1,0-1.31-.07-2.16a15,15,0,0,1,1.85,1h2.15v-.09a17.13,17.13,0,0,0-.08-1.83c2.06.18,2.24.36,2.24.54s-.18.28-.54.43v1h2.45c.64-.73.79-.84.93-.84s.33.11,1.14.81c.36.32.46.45.46.59s-.09.27-.61.33a2.19,2.19,0,0,0-.65.16,12.13,12.13,0,0,1-1.34.61c-.1,0-.17,0-.13-.09a8.87,8.87,0,0,0,.36-1.15h-2.61v2.09h1.53c.54-.62.68-.72.83-.72s.32.1,1.06.73c.34.31.45.44.45.58s-.2.34-.79.49a10.63,10.63,0,0,1-2.07,1.74,18.78,18.78,0,0,0,4.37.54c.09,0,.07.2,0,.24a1.26,1.26,0,0,0-1,1.08c-.12.45-.16.48-.32.48a6.09,6.09,0,0,1-1-.16,13.5,13.5,0,0,1-3.13-1.15l-.33-.2a16.84,16.84,0,0,1-4.35,1.32c1.35.36,1.69.5,1.69.66s-.2.31-.69.38l-.28.4h6.15c.89-.85,1.1-1,1.23-1s.38.14,1.22.66c.4.25.53.43.53.56s-.06.18-.24.18h-3.85a9,9,0,0,1-1.82,2.27c2.88.52,4.36,1.28,4.36,2.21a.92.92,0,0,1-1,.94c-.35,0-.62-.13-1.19-.61a10.76,10.76,0,0,0-3.26-1.71c-2.11,1.35-5,2-9,2.19-.09,0-.1-.25,0-.27a17.83,17.83,0,0,0,7.38-2.43c-.83-.21-1.66-.39-2.5-.52l-.38.4a.85.85,0,0,1-.74.3c-.67,0-1.17-.18-1.17-.41s.07-.27.27-.45a15.11,15.11,0,0,0,1.78-1.91h-3.35a8.7,8.7,0,0,0-1.24.11l-.2-.67a7.41,7.41,0,0,0,1.44.15h3.68Zm-2.28-7.78c-.35,0-.49-.14-.69-.63a3.64,3.64,0,0,0-1.13-1.69c-.08,0,0-.16.09-.14,1.74.3,2.52.81,2.52,1.6A.81.81,0,0,1,966.06,128.81Zm3.65,8.52c-.43.59-.88,1.17-1.35,1.73,1.4.07,2.2.16,3,.27a7.84,7.84,0,0,0,1.76-2Zm2.74-8.91h-2.34v.52a13,13,0,0,1-.08,1.57h2.42Zm-1.28,2.5a6,6,0,0,0,2.45,1.93,8.41,8.41,0,0,0,2-1.93Z"/><rect class="cls-3" x="909.93" y="93.38" width="9.19" height="9.19" transform="translate(198.58 675.37) rotate(-45)"/><path class="cls-3" d="M942.47,95.85a10.4,10.4,0,0,1-1.69,1.23c-.07,0-.2-.11-.14-.18a16.52,16.52,0,0,0,2.55-3.8,10.18,10.18,0,0,0,.76-2c1.84.75,1.91.81,1.91,1s-.15.27-.61.38a15,15,0,0,1-1.44,2c.59.09.68.18.68.34s-.11.26-.47.44V103c0,.52-.3.75-.92.75-.37,0-.75-.16-.75-.68s.12-1.89.12-4.74Zm2.76-7.43a12.79,12.79,0,0,1-4.3,3.74c-.08,0-.2-.14-.13-.19a14,14,0,0,0,2.39-3.35,8.48,8.48,0,0,0,.67-1.66c1.41.49,2.13.88,2.13,1.13S945.77,88.38,945.23,88.42ZM949.87,90c.54-.72.76-.87.89-.87s.34.15.9.62c.23.2.37.36.37.48s0,.18-.23.18h-2.14v2.81h.5c.56-.72.78-.86.9-.86s.35.14.9.61c.24.2.38.36.38.49s-.05.18-.23.18h-2.45v2.77h.5c.45-.65.67-.79.79-.79s.35.14.87.57c.2.17.34.33.34.45s0,.18-.23.18h-2.27v3.17a19.1,19.1,0,0,0,2.39-.5.19.19,0,0,1,.11.3,33,33,0,0,1-6.43,2.34c-.07.42-.18.6-.36.6s-.29-.2-.86-2.16c.32,0,.67,0,1-.06V96.52a13.52,13.52,0,0,0-.08-1.42c1.85.18,2,.34,2,.5s-.16.31-.47.45v4.29c.38,0,.78-.09,1.16-.15v-6.6h-1.64a5.35,5.35,0,0,0-1,.1l-.2-.66a4.38,4.38,0,0,0,1.12.14h1.71V90.36H947a8.47,8.47,0,0,1-1.44,1.21c-.07.05-.21,0-.16-.13a11.81,11.81,0,0,0,1.33-2.77,10,10,0,0,0,.4-1.62c1.51.41,2.07.65,2.07.9s-.23.34-.77.38A8.28,8.28,0,0,1,947.35,90Zm5.48-1.3c.63-.75.77-.86.92-.86s.32.11,1,.65c.29.25.39.37.39.52s-.1.31-.48.59v1.37c0,7.31,0,8.14,0,8.75a1.51,1.51,0,0,1-.39,1.06,1.63,1.63,0,0,1-1.23.47c-.21,0-.28-.11-.32-.47-.07-.61-.27-.82-1.06-1.17-.09,0-.09-.21,0-.21.39,0,.66,0,1.11,0,.22,0,.27-.08.27-.27v-10H954v14c0,.47-.29.69-.92.69-.43,0-.67-.15-.67-.55,0-.7.08-2,.08-12,0-1.68,0-2.4-.09-3.46a9.88,9.88,0,0,1,1.71.9Z"/><path class="cls-3" d="M964.43,94.11a16,16,0,0,1-1.94,2c-.07,0-.23-.08-.18-.15a20.44,20.44,0,0,0,2.9-6.12,16.61,16.61,0,0,0,.57-2.84c1.63.45,2.38.75,2.38,1s-.18.32-.63.41a22.25,22.25,0,0,1-2.09,4.29c.94.14,1.07.21,1.07.39s-.11.25-.47.43v9.33c0,.52-.31.76-.94.76-.41,0-.77-.16-.77-.7s.1-1.88.1-4.72Zm6.88,5.63a11.54,11.54,0,0,1-4.86,3.64c-.09,0-.2-.14-.13-.2a11.51,11.51,0,0,0,2.63-3,7.33,7.33,0,0,0,.87-1.82c1.44.51,2.18.85,2.18,1S971.83,99.74,971.31,99.74Zm4.32-2.66h.74c.9-1.06,1.12-1.21,1.24-1.21s.36.15,1.21.87c.38.32.52.45.52.57s-.05.18-.23.18H968a9.08,9.08,0,0,0-1.26.11l-.2-.66a7.78,7.78,0,0,0,1.41.14h1.46v-4.9h-.81a9,9,0,0,0-1.25.11l-.2-.67a7,7,0,0,0,1.39.15h.87V89.34c0-.71,0-1.35-.09-1.91,2.05.18,2.23.36,2.23.52s-.18.29-.52.47v3.35h3V89.12a15.22,15.22,0,0,0-.08-1.71c2.06.18,2.24.34,2.24.5s-.17.31-.53.49v3.37h.45c.85-1,1.07-1.15,1.19-1.15s.36.14,1.17.82c.36.31.51.44.51.56s-.06.18-.24.18h-3.08ZM971,92.18v4.9h3v-4.9Zm6.24,11.17c-.41,0-.64-.26-.9-.87a9.21,9.21,0,0,0-2.57-3.71c-.07,0,0-.21.09-.18,2.88,1,4.32,2.22,4.32,3.55C978.19,102.81,977.79,103.35,977.25,103.35Z"/><path class="cls-3" d="M989,95.75c.74-.18,1.43-.4,2-.6.09,0,.14.15.07.2A17.81,17.81,0,0,1,989,96.63c0,3.1,0,5.24,0,6.18,0,.57-.25.8-1,.8-.56,0-.74-.17-.74-.61,0-.84,0-2.72.08-5.6-.53.22-1.1.44-1.71.65-.06.47-.17.65-.38.65s-.43-.38-.9-2.16A8.81,8.81,0,0,0,986,96.4l1.37-.26c0-1.91,0-3.13,0-4.37h-1.29a11,11,0,0,1-1.77,3.4c-.05.07-.23,0-.2,0a23.44,23.44,0,0,0,.9-4.47c.09-.7.13-1.38.15-2,1.51.4,2,.58,2,.81s-.12.26-.55.38c-.11.51-.24,1-.4,1.51h1.15V89.72c0-1.63,0-1.93-.07-2.72,2.18.25,2.32.3,2.32.57s-.14.29-.63.51v3.27h.17c.52-.75.73-.9.86-.9s.32.15.86.65c.2.18.35.36.35.49s-.06.18-.24.18h-2Zm6.52-4.49a11.13,11.13,0,0,1-6,7.6c-.09,0-.2-.12-.12-.18a13.86,13.86,0,0,0,4.39-7.42h-1a11.76,11.76,0,0,1-2.67,3.21c-.07,0-.21-.07-.16-.15a15.59,15.59,0,0,0,2-4.68,11.9,11.9,0,0,0,.47-2.64c1.87.27,2.43.43,2.43.72s-.18.32-.68.45A18.69,18.69,0,0,1,993,90.85h5.49c.69-.76.83-.87,1-.87s.33.11,1,.67c.31.25.42.38.42.52s-.06.18-.56.56c-.22,6.07-.45,8.28-1.08,10a2.35,2.35,0,0,1-.85,1.2,2.45,2.45,0,0,1-1.47.46c-.31,0-.33,0-.42-.42-.16-.72-.72-1.15-2-1.46-.09,0-.07-.27,0-.27,1.06.07,2,.11,2.09.11,1,0,1,0,1.31-1.39a48.06,48.06,0,0,0,.72-8.75h-.37c-1,5.68-3.3,8.88-7.71,10.9-.09,0-.2-.17-.13-.22,3.39-2.41,5.33-5.76,6.14-10.68Z"/><path class="cls-3" d="M1013.47,86.67c0,.06,0,.09-.09.16a11.16,11.16,0,0,0-.07,16.75c.12.13.16.16.16.23s0,.11-.09.11a.4.4,0,0,1-.23-.11,12.23,12.23,0,0,1-3.62-3.87,9.15,9.15,0,0,1,0-9.4,12.55,12.55,0,0,1,3.63-3.89c.09-.05.13-.09.18-.09S1013.47,86.6,1013.47,86.67Z"/><path class="cls-3" d="M1029.13,95a4.08,4.08,0,0,1,2.32.65,2.89,2.89,0,0,1,1.41,2.42,2.66,2.66,0,0,1-1.17,2.26,3.58,3.58,0,0,1-2.27.71,3.78,3.78,0,0,1-3.19-1.61,3.83,3.83,0,0,1-.54-.93c0-.06,0-.09.11-.09a.25.25,0,0,1,.23.12,3.84,3.84,0,0,0,2.81,1.28,2.74,2.74,0,0,0,1.77-.59,2.15,2.15,0,0,0,.52-1.59,1.82,1.82,0,0,0-.87-1.64,2.84,2.84,0,0,0-1.44-.34,5.74,5.74,0,0,0-2.63.87c-.43.23-.81.46-1.17.68,0,1.06.08,1.71.11,2.36,0,.32,0,.54,0,.88a3.15,3.15,0,0,1-.15,1.15c-.25.65-.55.85-.88.85s-.5-.16-.61-.59c-.23-1-.63-1.37-1.62-2.29a6.34,6.34,0,0,0-.83.77.91.91,0,0,1-.72.35,1.62,1.62,0,0,1-.79-.27,1.51,1.51,0,0,1-.79-1.19,1.07,1.07,0,0,1,.48-.94c.07,0,.11,0,.15.15a1.48,1.48,0,0,0,.19.43c.08.07.13.09.31.07a10.28,10.28,0,0,0,1.87-.88c.63-.36,1.46-.87,2.06-1.23,0-1.29,0-2.48,0-3.44a13.82,13.82,0,0,1-1.94.24,2.14,2.14,0,0,1-1.7-1,1.62,1.62,0,0,1-.39-.88c0-.15,0-.24.12-.24s.2.13.34.31a1.77,1.77,0,0,0,1.37.65,10,10,0,0,0,2.22-.31V90.26a2.55,2.55,0,0,0-.07-.87c0-.29-.15-.36-.33-.41a1.35,1.35,0,0,0-.47-.09c-.27,0-.41-.06-.41-.15a.56.56,0,0,1,.29-.43,1.69,1.69,0,0,1,.79-.29,2.27,2.27,0,0,1,1.28.47c.52.38.77.74.77,1a.75.75,0,0,1-.16.49,1.63,1.63,0,0,0-.27.36,4.35,4.35,0,0,0-.2,1.44,4.32,4.32,0,0,0,1.24-.74,1.38,1.38,0,0,1,.87-.31c.74,0,1.08.29,1.08.6s0,.43-.49.72a9,9,0,0,1-1.19.57,14.07,14.07,0,0,1-1.58.51c0,.83,0,2.19,0,3.17A8.42,8.42,0,0,1,1029.13,95Zm-6.92,4.27c.37.22.58.33.89.49a1.63,1.63,0,0,0,.59.2c.11,0,.18-.08.18-.26,0-.52,0-1.18,0-1.76C1023.31,98.39,1022.67,98.9,1022.21,99.31Zm7.19-7.72a2.81,2.81,0,0,1,1.78-.6,3.71,3.71,0,0,1,2.4.87,2.42,2.42,0,0,1,.86,1.83c0,.53-.27.83-.68.83a.89.89,0,0,1-.54-.16.79.79,0,0,0-.54-.23h-.56a5,5,0,0,0-.69.13,3.66,3.66,0,0,1-.43.09s-.14,0-.14-.09.07-.13.23-.23.92-.6,1.19-.85a.35.35,0,0,0,.13-.23.42.42,0,0,0-.08-.26,2.14,2.14,0,0,0-1.9-1,3,3,0,0,0-.76.11,1.47,1.47,0,0,1-.29.09c-.07,0-.12,0-.12-.09A.3.3,0,0,1,1029.4,91.59Z"/><path class="cls-3" d="M1048.75,98.56a9.05,9.05,0,0,0,3.33,1.92,17,17,0,0,0,4.55.79c.09,0,0,.24-.05.26-.59.14-.79.36-1,1s-.22.63-.39.63a3.41,3.41,0,0,1-.82-.18,12.92,12.92,0,0,1-2.48-1,11.48,11.48,0,0,1-3.4-3c.14,2.18.23,3.38.23,4s-.32.72-1.15.72c-.51,0-.72-.2-.72-.6s.05-1.58.14-3a15.63,15.63,0,0,1-7.13,3.15c-.09,0-.2-.16-.11-.2a15.77,15.77,0,0,0,6.47-4.46h-4.68a8.8,8.8,0,0,0-1.26.1l-.2-.66a6.77,6.77,0,0,0,1.38.14H1047V96.32h-3.09v.25c0,.44-.29.64-1,.64-.49,0-.68-.19-.68-.53,0-.7.08-1.4.08-4.25,0-.64,0-1.29-.07-1.94a15.26,15.26,0,0,1,1.84.77h7.67c.65-.72.79-.82.94-.82s.32.1,1,.66c.31.27.42.4.42.54s-.07.27-.56.58v.68c0,1.84.07,3.1.07,3.51s-.29.65-1.06.65c-.42,0-.61-.14-.61-.49v-.25h-3.33v1.82h4.77c.9-1,1.11-1.15,1.24-1.15s.36.14,1.19.81c.36.29.5.45.5.58s0,.18-.23.18Zm2.3-9.28c0,.4,0,.69,0,.81,0,.38-.3.58-1,.58-.49,0-.72-.15-.72-.5,0-.1,0-.38,0-.89h-3.15c0,.42,0,.7,0,.83,0,.41-.32.6-1,.6s-.74-.17-.74-.54c0-.11,0-.4,0-.89h-3.17a7.37,7.37,0,0,0-1.14.11l-.19-.66a7,7,0,0,0,1.33.14h3.18v-.58a7.31,7.31,0,0,0-.09-1.33c2.09.22,2.29.27,2.29.52s-.16.29-.57.45v.94h3.15a15.84,15.84,0,0,0-.06-1.91c2,.23,2.22.29,2.22.54s-.13.25-.53.43v.94h2.24c.81-1,1-1.12,1.15-1.12s.38.15,1.26.79c.4.29.54.44.54.56s0,.18-.23.18Zm-7.16,2.4v1.87H1047V91.68Zm0,2.28v2H1047V94Zm4.7-.41h3.33V91.68h-3.33Zm0,2.36h3.33V94h-3.33Z"/><path class="cls-3" d="M1070.49,99.35c0,1.1.06,1.47.06,2.16a1.87,1.87,0,0,1-.35,1.21,2,2,0,0,1-1.65.63c-.49,0-.54-.15-.67-.56-.2-.67-.9-.92-2.28-1.26-.09,0-.09-.29,0-.27.84.09,2.17.16,2.86.16.25,0,.3-.06.3-.25v-6h-5.29a16.87,16.87,0,0,0-1.73.11l-.2-.67a12.85,12.85,0,0,0,1.91.15h5.31V93.12a11.92,11.92,0,0,0,0-1.35c.77.12,1.3.21,1.66.29a11.49,11.49,0,0,0,2.54-3.21h-7.86a7.11,7.11,0,0,0-1.35.14l-.19-.7a7.62,7.62,0,0,0,1.47.15h7.93c.75-.74.93-.83,1.08-.83s.36.09,1.18.84c.4.38.49.47.49.62s-.05.27-.92.45a14.76,14.76,0,0,1-3.72,2.7c.1,0,.1.11.1.2s-.16.32-.63.52v1.8h4.16c1-1.32,1.26-1.46,1.39-1.46s.36.14,1.42,1c.49.39.63.56.63.68s0,.18-.23.18h-7.37Z"/><path class="cls-3" d="M1088.47,95.24a1.61,1.61,0,1,1-1.62-1.62A1.62,1.62,0,0,1,1088.47,95.24Z"/><path class="cls-3" d="M1104.73,97.06a8.73,8.73,0,0,0,3.22,2.59,12.56,12.56,0,0,0,4.5,1.26c.09,0,.09.18,0,.2a1.54,1.54,0,0,0-1.13,1.17c-.09.34-.22.53-.38.53a2.12,2.12,0,0,1-.63-.2,12.17,12.17,0,0,1-3.33-2,11.12,11.12,0,0,1-2.5-3.22c.09,2.45.18,5,.18,5.53s-.38.66-1.08.66c-.54,0-.76-.14-.76-.57s.09-2.65.14-4.58a14.35,14.35,0,0,1-7.34,4.31c-.09,0-.2-.2-.11-.24a16,16,0,0,0,6.46-5.4h-4.57a11.12,11.12,0,0,0-1.39.11l-.19-.67a8.86,8.86,0,0,0,1.58.15h5.51V94.32h-3.38v0c0,.49-.29.68-1,.68-.48,0-.7-.14-.7-.52,0-.74.11-1.47.11-4.46,0-.88,0-1.79-.11-2.69a12.87,12.87,0,0,1,1.82.8h8.21c.61-.58.76-.69.9-.69s.32.11,1,.63c.29.25.4.38.4.52s-.09.26-.49.47V90c0,2.3.08,3.87.08,4.39s-.33.65-1,.65-.73-.15-.73-.63v-.06h-3.48v2.33h4.56c.82-1,1-1.14,1.17-1.14s.37.15,1.26.8c.39.3.54.45.54.57s-.06.18-.24.18Zm-1.82-8.48h-3.38V91h3.38Zm0,2.86h-3.38v2.47h3.38ZM1108,91V88.58h-3.48V91Zm0,2.88V91.44h-3.48v2.47Z"/><path class="cls-3" d="M1122,95.75c.74-.18,1.42-.4,2-.6.09,0,.15.15.08.2a18.7,18.7,0,0,1-2.07,1.28c0,3.1,0,5.24,0,6.18,0,.57-.25.8-1,.8-.56,0-.74-.17-.74-.61,0-.84,0-2.72.07-5.6-.52.22-1.1.44-1.71.65-.05.47-.16.65-.38.65s-.43-.38-.9-2.16a8.75,8.75,0,0,0,1.62-.14l1.37-.26c0-1.91,0-3.13,0-4.37h-1.3a11.23,11.23,0,0,1-1.76,3.4c-.06.07-.24,0-.2,0a23.44,23.44,0,0,0,.9-4.47c.09-.7.12-1.38.14-2,1.51.4,2,.58,2,.81s-.13.26-.56.38a13.44,13.44,0,0,1-.4,1.51h1.16V89.72c0-1.63,0-1.93-.08-2.72,2.18.25,2.33.3,2.33.57s-.15.29-.63.51v3.27h.16c.52-.75.74-.9.86-.9s.33.15.87.65a.87.87,0,0,1,.34.49c0,.12,0,.18-.23.18h-2Zm6.52-4.49a11.16,11.16,0,0,1-6,7.6c-.09,0-.2-.12-.13-.18a13.86,13.86,0,0,0,4.39-7.42h-1a11.91,11.91,0,0,1-2.66,3.21c-.08,0-.22-.07-.17-.15a15.59,15.59,0,0,0,2-4.68,12.5,12.5,0,0,0,.47-2.64c1.87.27,2.43.43,2.43.72s-.18.32-.69.45a17.65,17.65,0,0,1-1.19,2.68h5.5c.68-.76.82-.87,1-.87s.32.11,1,.67c.3.25.41.38.41.52s-.05.18-.56.56c-.21,6.07-.45,8.28-1.08,10a2.4,2.4,0,0,1-.84,1.2,2.48,2.48,0,0,1-1.48.46c-.31,0-.32,0-.41-.42-.17-.72-.73-1.15-2-1.46-.09,0-.07-.27,0-.27,1.07.07,2,.11,2.09.11,1,0,1,0,1.32-1.39a50,50,0,0,0,.72-8.75h-.38c-1,5.68-3.29,8.88-7.71,10.9-.09,0-.19-.17-.12-.22,3.38-2.41,5.33-5.76,6.14-10.68Z"/><path class="cls-3" d="M1144.28,95.24a1.62,1.62,0,0,1-3.23,0,1.62,1.62,0,1,1,3.23,0Z"/><path class="cls-3" d="M1154.48,96.4a15,15,0,0,1-2.94,2.16c-.07,0-.25-.13-.18-.18a13.61,13.61,0,0,0,3.46-4.9,10.1,10.1,0,0,0,.63-2c1.84.61,2.31.86,2.31,1.09s-.24.4-.76.47a15.15,15.15,0,0,1-1.4,2.11c.82.12,1,.2,1,.38s-.11.25-.49.43v1.11c0,3,0,5.06,0,5.73,0,.52-.36.74-1,.74-.46,0-.75-.09-.75-.56s.18-2.2.18-5.38Zm8.19-6.59c0,.61,0,1,0,1.2,0,.4-.31.58-1,.58-.49,0-.7-.13-.7-.49,0-.12,0-.5,0-1.29h-3.12c0,.55,0,.93,0,1.11,0,.43-.33.6-1,.6s-.72-.15-.72-.54c0-.15,0-.51,0-1.17H1153a7.23,7.23,0,0,0-1.14.1l-.19-.66a7,7,0,0,0,1.33.14h3.33v-.45a9.6,9.6,0,0,0-.09-1.89c2.07.22,2.27.27,2.27.52s-.15.29-.56.45v1.37H1161a18.37,18.37,0,0,0-.06-2.34c2,.23,2.22.29,2.22.56s-.13.23-.53.41v1.37H1165c.81-1,1-1.1,1.15-1.1s.38.15,1.23.78c.38.28.52.43.52.55s-.05.19-.23.19Zm-1.44,7.13a14.12,14.12,0,0,0,2.4-2.09,8.05,8.05,0,0,0,1.35-2c1.49.83,2.1,1.26,2.1,1.53s-.18.36-.83.33a16.76,16.76,0,0,1-5,2.77v3.21c0,.75.27.86,2.29.86a3.75,3.75,0,0,0,2.23-.38c.4-.3.63-1,1-2.55,0-.09.23-.06.23,0,0,.69,0,1.32,0,1.87s.06.49.24.56c.57.25.7.38.7.78s-.34.81-1.12,1a13.07,13.07,0,0,1-3.29.29c-3.46,0-4-.34-4-2.36,0-.47,0-1,0-2.88q0-3.13-.07-6.26c2,.21,2.41.28,2.41.54s-.19.36-.61.5Z"/><path class="cls-3" d="M1180.26,90.09h-5.39a10.84,10.84,0,0,0-1.38.11l-.2-.67a8.86,8.86,0,0,0,1.58.15h5.39v-1a16.25,16.25,0,0,0-.09-1.72c1.87.18,2.32.29,2.32.56s-.14.31-.56.52v1.59h4.48c.87-1.06,1.08-1.21,1.21-1.21s.38.15,1.24.87c.4.32.54.45.54.57s-.05.18-.23.18h-7.24v2.22h3.73c.61-.6.75-.7.9-.7s.32.1,1,.63c.29.25.4.37.4.52s-.06.23-.49.47v.57c0,1.51.07,2.54.07,2.88s-.3.65-1,.65-.72-.14-.72-.63v-.3h-3.73a9.91,9.91,0,0,0,3,2.86,14.71,14.71,0,0,0,5,1.78c.09,0,.08.18,0,.2-.73.2-1,.41-1.36,1.28-.1.23-.18.3-.32.3a3,3,0,0,1-.74-.3,11.63,11.63,0,0,1-2.93-2,13,13,0,0,1-2.74-3.69V99c0,1.33,0,2.67,0,4,0,.5-.35.74-1,.74s-.83-.2-.83-.67.11-2.9.16-4.93a16.35,16.35,0,0,1-7.27,4.75c-.09,0-.2-.14-.13-.18a17.7,17.7,0,0,0,6.52-6.26h-2.74v.32c0,.49-.29.68-1,.68-.47,0-.67-.16-.67-.54s.09-.92.09-2.79a24.75,24.75,0,0,0-.1-2.57,11,11,0,0,1,1.82.81h3.42Zm0,2.63h-3.57V96h3.57ZM1185.8,96V92.72h-3.87V96Z"/><path class="cls-3" d="M1195,86.65a12.55,12.55,0,0,1,3.63,3.89,9.15,9.15,0,0,1,0,9.4,12.23,12.23,0,0,1-3.62,3.87.4.4,0,0,1-.23.11s-.09,0-.09-.11,0-.1.16-.23a11.16,11.16,0,0,0-.07-16.75c-.07-.07-.09-.1-.09-.16s0-.11.13-.11S1194.91,86.6,1195,86.65Z"/><rect class="cls-3" x="909.93" y="131.5" width="9.19" height="9.19" transform="translate(171.62 686.53) rotate(-45)"/><rect class="cls-3" x="909.93" y="169.12" width="9.19" height="9.19" transform="translate(145.02 697.55) rotate(-45)"/><path class="cls-3" d="M942.15,166.25a9.89,9.89,0,0,0,1.67.15h6c.9-1.08,1.12-1.23,1.24-1.23s.36.15,1.24.85c.4.32.55.49.55.61s-.06.18-.24.18H943.9a13.38,13.38,0,0,0-1.55.11Zm14,3.6c0,3.39,0,5.55,0,6.9a1.63,1.63,0,0,1-.39,1.21,2.28,2.28,0,0,1-1.71.52c-.35,0-.44-.09-.47-.4-.11-.72-.65-1-2.29-1.33-.11,0-.11-.27,0-.27,1.06,0,1.87.07,2.76.07a.24.24,0,0,0,.28-.28V163.84H944.2a6.22,6.22,0,0,0-1.38.16l-.2-.72a8.39,8.39,0,0,0,1.55.15h10c.7-.78.85-.88,1-.88s.34.1,1.1.7c.34.27.45.39.45.54s-.06.18-.52.57Zm-10.95,4v1c0,.54-.4.72-1,.72s-.76-.2-.76-.61.06-1.06.06-3c0-1.22,0-2.45-.08-3.69a17.7,17.7,0,0,1,1.9.94h3.7c.67-.7.81-.81,1-.81s.32.11,1,.66c.33.27.44.4.44.55s-.09.26-.53.57v.7c0,1.84.06,3.15.06,3.57s-.34.77-1,.77-.72-.18-.72-.65v-.68Zm4-4.27h-4v3.86h4Z"/><path class="cls-3" d="M962.67,170.77c-.09,0-.2-.14-.13-.19a18.72,18.72,0,0,0,5.77-5.86,14.28,14.28,0,0,0,1.26-2.73c2.54.68,2.55.7,2.55.91s-.14.26-.79.44a12.26,12.26,0,0,0,8.36,5.27c.09,0,.09.24,0,.24-.58.05-1,.5-1.25,1.47-.07.26-.16.35-.3.35a2.79,2.79,0,0,1-.85-.36,16.59,16.59,0,0,1-2.56-1.81,15.35,15.35,0,0,1-3.63-4.82A15.79,15.79,0,0,1,962.67,170.77Zm7.83,1.64a20.62,20.62,0,0,1-2.84,4c2.25,0,4.5-.11,6.75-.23a7.51,7.51,0,0,0-1.77-2.33c-.07,0,0-.21.11-.18,2.6,1,4.13,2.29,4.13,3.53a1.12,1.12,0,0,1-1,1.23c-.53,0-.63-.13-1.08-1.3-.08-.18-.13-.34-.2-.5a63.59,63.59,0,0,1-9.28,1.51c-.12.54-.21.68-.43.68s-.29,0-.95-2.5a21.72,21.72,0,0,0,2.32.09h.67a20.85,20.85,0,0,0,1.18-4H965a9.21,9.21,0,0,0-1.26.11l-.19-.67A7.43,7.43,0,0,0,965,172h10.66c.87-1.08,1.08-1.23,1.21-1.23s.36.15,1.22.85c.4.32.55.49.55.61s-.06.18-.24.18Zm1.24-3.47c.8-1,1-1.14,1.14-1.14s.34.15,1.12.8c.34.28.48.44.48.57s-.05.18-.23.18H968a6.57,6.57,0,0,0-1.06.11l-.19-.67a5.94,5.94,0,0,0,1.29.15Z"/><path class="cls-3" d="M988.43,174.79a2.72,2.72,0,0,0,1.71,1.51,14.9,14.9,0,0,0,4.09.42,56.89,56.89,0,0,0,6.91-.45c.09,0,.09.16,0,.19a1.14,1.14,0,0,0-.7,1c-.06.56-.09.61-.43.65-1,.13-3.1.16-4.4.16-3,0-4.73-.23-5.89-.95a4.29,4.29,0,0,1-1.81-2.63,13.43,13.43,0,0,1-2.08,2.7c.06.68,0,.83-.3.83s-.67-.65-1.33-2.2a8.55,8.55,0,0,0,2.53-1.17v-4.81h-1.24a3.55,3.55,0,0,0-1,.15l-.2-.72a4.6,4.6,0,0,0,1.19.16h1.14c.63-.72.77-.83.91-.83s.33.11,1,.63c.3.25.41.38.41.52s-.05.26-.54.58Zm-1.06-8.72c-.42,0-.63-.21-.89-1.11a5.15,5.15,0,0,0-1.15-2.11c-.07-.07.06-.18.15-.16,2.1.52,2.88,1.39,2.88,2.3A1,1,0,0,1,987.37,166.07Zm4.8,9.22c0,.45-.3.63-.91.63s-.72-.16-.72-.57.07-1.73.07-4.32v-3.52a14.59,14.59,0,0,1-1.73,1.39c-.07,0-.22-.09-.16-.16a15.1,15.1,0,0,0,2.66-4.54,10.08,10.08,0,0,0,.52-2.14c2,.58,2.29.67,2.29,1s-.29.36-.75.43a14.84,14.84,0,0,1-1.3,2.27h2.63a20.2,20.2,0,0,0,.68-2.1,11.9,11.9,0,0,0,.25-1.36c1.59.51,2.27.83,2.27,1s-.2.32-.81.4a9.82,9.82,0,0,1-1.87,2h2.83c.66-.88.88-1,1-1s.36.14,1.08.72c.33.25.47.41.47.54s0,.18-.23.18h-4.16v2.28h1.37c.61-.84.83-1,1-1s.36.15,1,.69c.3.25.45.41.45.54s-.06.18-.24.18h-3.58v2.43h1.4c.62-.85.83-1,1-1s.36.14,1,.7c.29.23.43.4.43.52s-.05.18-.23.18h-3.6v2.77H998c.75-1,1-1.17,1.1-1.17s.36.15,1.18.83c.37.29.51.45.51.58s-.06.18-.24.18h-8.39Zm2.54-6.86v-2.28h-2.54v2.28Zm-2.54,2.85h2.54v-2.43h-2.54Zm0,3.18h2.54v-2.77h-2.54Z"/><path class="cls-3" d="M1008.44,170.88a15.13,15.13,0,0,1-2.28,1.48c-.07,0-.24-.15-.16-.22a19.22,19.22,0,0,0,3.25-4,9.85,9.85,0,0,0,1-2c1.82.86,2.07,1,2.07,1.24s-.22.38-.76.38a21.91,21.91,0,0,1-1.64,1.87c.56.11.65.18.65.34s-.1.28-.48.44v7.56c0,.52-.31.76-.94.76-.41,0-.77-.17-.77-.69s.1-1.89.1-4.73Zm2.8-7.24a12.79,12.79,0,0,1-5,4c-.09,0-.2-.14-.13-.19A18,18,0,0,0,1009,164a8.13,8.13,0,0,0,1-2c1.58.72,2.12,1.07,2.12,1.32S1011.92,163.64,1011.24,163.64Zm7.74,9.11c0,1.32,0,2.63,0,3.95a1.73,1.73,0,0,1-.45,1.26,2.37,2.37,0,0,1-1.67.56c-.36,0-.38,0-.45-.42-.13-.72-.6-.95-2.31-1.37-.09,0-.07-.29,0-.29.83.06,2,.13,2.66.13.33,0,.4-.09.4-.38v-7.65h-3.92a7.71,7.71,0,0,0-1.16.11l-.2-.67a6.54,6.54,0,0,0,1.36.15h6.28c.9-1,1.12-1.17,1.24-1.17s.36.14,1.21.81c.38.3.52.46.52.59s0,.18-.23.18H1019Zm-.33-9c.9-1,1.12-1.15,1.25-1.15s.36.14,1.22.8c.38.31.52.46.52.58s0,.18-.23.18H1014a7.72,7.72,0,0,0-1.17.11l-.2-.67a6.63,6.63,0,0,0,1.37.15Z"/><path class="cls-1" d="M42.22,34.32a2.08,2.08,0,0,0-.84.33,1.4,1.4,0,0,1-.7.17c-.41,0-.86-.31-1.44-1s-.79-1.13-.79-1.68.12-.72.26-.72.22.09.41.29a2.24,2.24,0,0,0,2.09,1c.6,0,1.17,0,1.77-.1,2.36-.22,4.76-.43,6.94-.7A2.12,2.12,0,0,0,51,31.51a1.06,1.06,0,0,1,.62-.29,2.37,2.37,0,0,1,1.57.7c.86.64,1.08,1,1.08,1.53a.78.78,0,0,1-.51.63,2.15,2.15,0,0,0-1,1.15,26.67,26.67,0,0,1-4.56,6.38,21.18,21.18,0,0,1-7.92,5.19,1.29,1.29,0,0,1-.36.07c-.22,0-.31,0-.31-.27s.12-.21.38-.38a24.9,24.9,0,0,0,6.79-5.95,36.91,36.91,0,0,0,3.75-6.12,2.06,2.06,0,0,0,.31-.82c0-.09-.12-.12-.24-.12s-.48,0-1,.1C47.16,33.57,44.35,33.91,42.22,34.32Zm15.24-4.64a2,2,0,1,1-2-2A2,2,0,0,1,57.46,29.68Zm-3.31,0a1.31,1.31,0,1,0,1.32-1.32A1.33,1.33,0,0,0,54.15,29.68Z"/><path class="cls-1" d="M68.9,34.24l6.48-.69a1.61,1.61,0,0,0,.85-.34,1.36,1.36,0,0,1,.69-.21,4,4,0,0,1,1.87,1.12c.53.48.58.7.58,1s-.26.43-.51.55-.47.31-.86,1A25.77,25.77,0,0,1,74.26,42a22.31,22.31,0,0,1-7.88,5.57,1.82,1.82,0,0,1-.52.15.23.23,0,0,1-.24-.25c0-.11.19-.21.33-.33a27.67,27.67,0,0,0,6.94-6.65,22.66,22.66,0,0,0,3-5,3.65,3.65,0,0,0,.17-.5c0-.08,0-.08-.17-.08a2.65,2.65,0,0,0-.38,0c-2.57.24-4.47.55-6.87,1a4.73,4.73,0,0,0-1.44.41,1.72,1.72,0,0,1-.77.24c-.38,0-.67-.12-1.32-.77A2.89,2.89,0,0,1,64.18,34c0-.41.12-.67.24-.67s.14,0,.36.24a2.31,2.31,0,0,0,1.94.89C67,34.44,68.06,34.34,68.9,34.24Zm1.16-4.58c.89-.12,1.87-.29,2.93-.53a6,6,0,0,0,1.08-.38,2.84,2.84,0,0,1,.93-.22c1.06,0,2.09.55,2.09,1.08a.72.72,0,0,1-.48.79,9.15,9.15,0,0,1-1.46.27c-1,.14-3.61.43-5.5.65-.48,0-.87.07-1.15.07-.87,0-1.35-.34-2.07-1.35a1.52,1.52,0,0,1-.33-1c0-.17,0-.26.14-.26s.14.07.26.17a3,3,0,0,0,2.26.84A12.94,12.94,0,0,0,70.06,29.66Z"/><path class="cls-1" d="M87.77,31.77c0-.12.09-.19.24-.19l.45,0a8.65,8.65,0,0,1,3.05,1A2.85,2.85,0,0,1,93.17,35a1.28,1.28,0,0,1-1.3,1.35,1.24,1.24,0,0,1-1.17-.89,8.54,8.54,0,0,0-1-1.73A6.45,6.45,0,0,0,87.94,32C87.82,31.94,87.77,31.87,87.77,31.77Zm3.5,10.9A46.44,46.44,0,0,0,97.92,38a50.23,50.23,0,0,0,5.64-5.85.5.5,0,0,1,.31-.22.21.21,0,0,1,.24.22.8.8,0,0,1-.14.41,31.78,31.78,0,0,1-5,6.72,54.79,54.79,0,0,1-6.41,5.61,3,3,0,0,0-.62.58A1.23,1.23,0,0,1,91,46c-.5,0-.81-.21-1.46-.91-1-1.1-1.34-1.73-1.34-2.23s.16-.91.38-.91.19.09.38.31c.53.55.87.89,1.11.89A2.92,2.92,0,0,0,91.27,42.67Z"/><path class="cls-1" d="M115.34,43.15a5.62,5.62,0,0,0-.14,1.34c0,.51.14,1.13.14,1.37,0,.67-.14,1.08-.67,1.08-.69,0-.91-.24-1.56-1.49a11.19,11.19,0,0,1-.79-4.49,29.21,29.21,0,0,1,1-6.74,14.79,14.79,0,0,0,.48-2.45,3.19,3.19,0,0,0-.62-1.89.38.38,0,0,1-.1-.24c0-.08.12-.2.34-.2a2.36,2.36,0,0,1,1.15.6,5.31,5.31,0,0,1,1.1,1.44,2.63,2.63,0,0,1,.41,1.32,1.29,1.29,0,0,1-.33.87A5,5,0,0,0,115,35a14.6,14.6,0,0,0-1.22,5.13,5.87,5.87,0,0,0,.26,2.43c.05.1.15.1.19,0,.75-1.42,1.49-3,2.16-4.42.1-.21.22-.29.34-.29s.24.15.12.51C116.26,40.24,115.61,42.09,115.34,43.15Zm3.82-2.83a3.86,3.86,0,0,0,.29,1.53c.41,1,1.54,1.78,4.1,1.78a14,14,0,0,0,3.12-.22,2.74,2.74,0,0,1,1-.26,3.83,3.83,0,0,1,1.39.38,1,1,0,0,1,.65.91,1,1,0,0,1-.75.94,13.18,13.18,0,0,1-4,.41c-4.08,0-6.46-1.68-6.46-4.63a5.51,5.51,0,0,1,.61-2.62c.12-.22.16-.26.26-.26s.14.09.14.24A8.22,8.22,0,0,0,119.16,40.32Zm.65-6.46a1.73,1.73,0,0,1-.51.19c-.19,0-.21-.07-.21-.21s.1-.22.29-.36a11.17,11.17,0,0,1,3-1.59,8.87,8.87,0,0,1,3.09-.5c2.19,0,2.86.77,2.86,1.41s-.43.89-1.47.89c-.31,0-.81-.07-1.12-.07a5.88,5.88,0,0,0-1.42.17,7,7,0,0,0-2.81,1.7.45.45,0,0,1-.31.15.16.16,0,0,1-.17-.17c0-.07,0-.15.17-.31.39-.48.91-1,1.66-1.88A7.41,7.41,0,0,0,119.81,33.86Z"/><path class="cls-1" d="M136.49,37.29c-.12.05-.24-.24-.15-.31,3.68-2.35,5.88-4.2,8-7.22a9.12,9.12,0,0,0,1.56-3.12c2.76.67,3.36.88,3.36,1.22s-.31.41-1,.48a15.88,15.88,0,0,0,4.58,4.06,16.69,16.69,0,0,0,6.43,2.28c.12,0,.1.26,0,.28-.74.2-1.08.75-1.49,1.8-.17.41-.21.56-.41.56a2.52,2.52,0,0,1-.91-.34,26.37,26.37,0,0,1-4.56-3.17,21.75,21.75,0,0,1-4-5.11A23.5,23.5,0,0,1,136.49,37.29Zm5.95,10.27V48c0,.67-.43,1-1.34,1-.72,0-1-.21-1-.84,0-1,.12-2.11.12-6.36,0-.46,0-.91-.05-1.37a21.28,21.28,0,0,1,2.52,1.13h5.95a22.47,22.47,0,0,0,2.19-4.15h-8.45a11.49,11.49,0,0,0-2,.19l-.26-.94a12.53,12.53,0,0,0,2.21.2h8.42c.87-1,1.06-1.11,1.25-1.11s.43.15,1.37.89c.43.36.57.53.57.72s-.21.43-.84.67a24.39,24.39,0,0,1-2,3.53h1c.92-.91,1.11-1.06,1.3-1.06s.46.15,1.37.82c.41.31.55.48.55.67s-.1.31-.72.72v.89c0,2.33.1,3.91.1,4.44s-.36.89-1.37.89c-.75,0-1-.19-1-.82v-.53Zm9.89-5.47h-9.89V47h9.89Zm-4.27-8.18c.79-1,1.08-1.23,1.25-1.23s.5.2,1.41.87c.41.31.6.5.6.67s-.07.24-.31.24h-5.88a8.57,8.57,0,0,0-1.39.14l-.27-.88a7.32,7.32,0,0,0,1.61.19Z"/><path class="cls-1" d="M168.84,34.44a3.33,3.33,0,0,1-3.17-1.92.73.73,0,0,1-.12-.32.24.24,0,0,1,.22-.21c.09,0,.12.05.21.14.58.63,1.52.87,3,.87a36.28,36.28,0,0,0,4.92-.56V30.09c0-.69,0-1-.21-1.2a1.47,1.47,0,0,0-.68-.29,4.21,4.21,0,0,0-.55-.09c-.09,0-.14-.05-.14-.17s.09-.26.29-.46a1.53,1.53,0,0,1,.95-.4,3.65,3.65,0,0,1,1.85.6c.87.5,1,.93,1,1.22a.9.9,0,0,1-.34.67,1.18,1.18,0,0,0-.46.91c0,.58-.09.89-.12,1.32.92-.14,1.66-.28,2.35-.43a5.33,5.33,0,0,0,1.37-.43,1.86,1.86,0,0,1,1.18-.24c.89,0,1.73.62,1.73,1.22s-.31.87-1.59,1c-1.63.14-3.57.33-5.11.55,0,1.15,0,2.33,0,3.6a10.36,10.36,0,0,0,2.09-.5c.33-.15.29-.32.1-.77a7.08,7.08,0,0,0-.56-.91c-.09-.22.05-.32.27-.15.43.31.91.63,1.32.87a1.36,1.36,0,0,0,.89.21c.72,0,1.12.31,1.12.87s-.52.72-1.29,1a19.39,19.39,0,0,1-3.89,1c0,1,.17,2.76.24,3.72a17.63,17.63,0,0,1,4.85,2.11c.77.46,1.44,1,1.44,1.9a1,1,0,0,1-.91,1.05,1.21,1.21,0,0,1-.89-.38,15.12,15.12,0,0,0-4.32-2.91c.12,2.19-1,3.58-3.75,3.58a5.48,5.48,0,0,1-3-.81A2.48,2.48,0,0,1,168,45.24a2.36,2.36,0,0,1,1.2-1.92,5.42,5.42,0,0,1,2.28-.72,14.42,14.42,0,0,1,2.57,0c0-1.13,0-2.28-.07-3.31-.63.05-1.54.05-1.94.05-2.38,0-3.44-.79-3.44-2a3.1,3.1,0,0,1,.91-2,9.35,9.35,0,0,1,1.18-.93C170.23,34.41,169.44,34.44,168.84,34.44Zm2.43,9.31a4.62,4.62,0,0,0-1.85.45,1.2,1.2,0,0,0-.6,1,1.33,1.33,0,0,0,.76,1.08,4.63,4.63,0,0,0,2.07.31,2.62,2.62,0,0,0,2-.67A2.94,2.94,0,0,0,174,44,8.93,8.93,0,0,0,171.27,43.75Zm-1-8.33a2,2,0,0,0-.68,1.32c0,.6.53,1.06,1.93,1.06a23.24,23.24,0,0,0,2.4-.15c0-1.27,0-2.28,0-3.55l-2.26.31A5,5,0,0,0,170.26,35.42Z"/><path class="cls-1" d="M196.18,43.77c0,.65,0,1.18,0,1.63C196.18,47,195.7,48,195,48c-.43,0-.72-.19-.84-.89a4.93,4.93,0,0,0-.41-1.56,8.82,8.82,0,0,0-1.65-2.16c-.51.67-.72,1-.87,1.18a1,1,0,0,1-.89.41c-.33,0-.67-.29-.67-1a2.32,2.32,0,0,1,.58-1.53l.48-.48a31.62,31.62,0,0,0,3.93-4.78c0-.74.05-1.34.08-1.94a13.53,13.53,0,0,0-2.31,1.2.62.62,0,0,1-.55.26,1,1,0,0,1-.7-.38,3.19,3.19,0,0,1-.91-1.8,1.92,1.92,0,0,1,.07-.58c0-.12.1-.17.2-.17s.21.15.33.34c.36.53.6.77,1.11.77a2.68,2.68,0,0,0,.91-.22c.69-.26,1.32-.55,1.92-.79.05-1.49.1-2.52.1-3.39,0-1.24-.2-1.53-1.33-1.92-.28-.09-.31-.14-.31-.24s.1-.19.24-.28a1.89,1.89,0,0,1,.87-.27,2.43,2.43,0,0,1,1.05.24A4,4,0,0,1,197,29.11a1,1,0,0,1,.22.65.76.76,0,0,1-.29.57,1.08,1.08,0,0,0-.34.75c-.05.57-.12,1.15-.17,2.32a1.06,1.06,0,0,1,.36-.09c.1,0,.24,0,.53.31a.91.91,0,0,1,.34.6c0,.17-.08.24-.27.48-.5.7-.81,1.1-1.15,1.63,0,.22,0,.53,0,.75a48.67,48.67,0,0,1,3.45-3.44,6.25,6.25,0,0,1,3.56-1.77,2.4,2.4,0,0,1,2.61,2.57,38,38,0,0,1-.36,3.91c-.26,2.28-.36,3.57-.36,4.2,0,1.39.24,2,1.27,2,1.61,0,3.36-1.61,4.56-3.67.1-.17.22-.48.39-.48a.3.3,0,0,1,.29.29,2.33,2.33,0,0,1-.12.45,9.09,9.09,0,0,1-2.09,3.7,4.72,4.72,0,0,1-3.29,1.51c-1.92,0-2.9-1-2.9-3.31,0-1.08.07-2.57.26-4.85.12-1.42.17-2.52.17-3.58,0-1.22-.27-1.68-1.11-1.68-.67,0-1.32.39-2.59,1.59a37.91,37.91,0,0,0-3.79,3.81C196.13,40.39,196.13,42.57,196.18,43.77ZM194,44c.4.2.6.12.6-.26V39.93c-.77,1-1.54,2.16-2.16,3A7.65,7.65,0,0,0,194,44Z"/><path class="cls-1" d="M222.7,38.61a7.51,7.51,0,0,1,4.87-2A6.1,6.1,0,0,1,231.82,38a4.63,4.63,0,0,1,1.58,3.43A5.46,5.46,0,0,1,231,46.2a8.33,8.33,0,0,1-4.75,1.41,6.1,6.1,0,0,1-3.32-.72,2.55,2.55,0,0,1-1.22-2.2,2.11,2.11,0,0,1,.84-1.71,3.16,3.16,0,0,1,2-.58,4.06,4.06,0,0,1,2.74,1.23,7.12,7.12,0,0,1,1.22,2,4,4,0,0,0,1.68-1.22,4.42,4.42,0,0,0,.87-2.91,3.59,3.59,0,0,0-3.89-3.79c-2.79,0-4.78,1.78-6.63,4.37-.48.67-.81,1-1.17,1a1.08,1.08,0,0,1-.7-.29,1.21,1.21,0,0,1-.43-.89,1.35,1.35,0,0,1,.45-1.08A98.88,98.88,0,0,0,227,31c.17-.24.27-.36.27-.48s-.12-.22-.29-.17a16.64,16.64,0,0,0-2.52,1c-.6.28-1,.48-1.37.69a1.42,1.42,0,0,1-1,.48,1.45,1.45,0,0,1-1.08-.57,3.16,3.16,0,0,1-.94-1.83c0-.36.22-.89.38-.89s.24.17.44.44c.4.52.69.69,1,.69a16.06,16.06,0,0,0,4.1-1,2.29,2.29,0,0,0,1.15-.62.9.9,0,0,1,.65-.31,4.07,4.07,0,0,1,2.16,1,1,1,0,0,1,.46.84.66.66,0,0,1-.39.63,5.24,5.24,0,0,0-.93.6,32.17,32.17,0,0,0-3.29,3.5c-1.11,1.27-2,2.19-3.15,3.55Zm2.78,5.4a2.25,2.25,0,0,0-1.51-.69,1.41,1.41,0,0,0-1.11.41,1.15,1.15,0,0,0-.24.76,1.46,1.46,0,0,0,.7,1.23,4.53,4.53,0,0,0,2.26.45,5.94,5.94,0,0,0,1-.07A4.37,4.37,0,0,0,225.48,44Z"/><path class="cls-1" d="M247,43.77a2.58,2.58,0,0,0,2.79,2.86,3.76,3.76,0,0,0,3-1.15,4.3,4.3,0,0,0,1-3,6.68,6.68,0,0,0-1.08-3.55,8.86,8.86,0,0,0-2.25-2.18c-.17-.12-.24-.22-.24-.34s.07-.17.19-.17a1.09,1.09,0,0,1,.36.1,9.45,9.45,0,0,1,3.48,2.21A6.14,6.14,0,0,1,256,42.6a4.76,4.76,0,0,1-1.41,3.62,6.77,6.77,0,0,1-4.44,1.59c-3.12,0-4.51-2-4.51-4.71,0-.5,0-1,.07-1.61a5.67,5.67,0,0,1-2.28-1.2,2.77,2.77,0,0,1-1-2.21c0-1.34.88-2.3,2.11-3.43a5.39,5.39,0,0,1-2.35-1.37,2.36,2.36,0,0,1-.75-1.6c0-.27.05-.41.17-.41s.17.09.34.36c.28.45,1,1,2.71,1.29a9,9,0,0,0,1.15.12,2.11,2.11,0,0,1,1,.34c.29-1.92.48-2.93.51-3.72s-.27-.94-1-1.37c-.24-.14-.34-.19-.34-.29s.12-.24.31-.36a1.6,1.6,0,0,1,.84-.16,5.21,5.21,0,0,1,2.36,1.15,1.49,1.49,0,0,1,.67,1.13.85.85,0,0,1-.41.74c-.15.1-.29.29-.46.82a65.4,65.4,0,0,0-1.89,8.4c.48,0,.77,0,1.22,0a1.77,1.77,0,0,1,.89.31,1,1,0,0,1,.38.84c0,.39-.38.75-.93.84a13,13,0,0,1-1.85.1C247.06,42.57,247,43.15,247,43.77Zm-.91-8.64a2.88,2.88,0,0,0-.86.29,4.75,4.75,0,0,0-1.2.82,2.07,2.07,0,0,0-.82,1.51c0,.91.62,1.61,2.74,1.85.21-1.68.4-3.12.62-4.54C246.46,35.08,246.34,35.11,246.12,35.13Z"/><path class="cls-1" d="M274.27,33.36a9.82,9.82,0,0,1-.52,2.54,17.51,17.51,0,0,1-1.52,3.46,19.33,19.33,0,0,1-2.66,4,2.63,2.63,0,0,1-2,1,2.46,2.46,0,0,1-1.83-.94c-.86-1-1.32-2.18-1.32-4.37a7.57,7.57,0,0,1,1-3.64A9.42,9.42,0,0,1,268.7,32a10.76,10.76,0,0,1,5.81-1.56,9.22,9.22,0,0,1,6,1.87,7.34,7.34,0,0,1,2.81,6.09,6.53,6.53,0,0,1-2.21,5,10.5,10.5,0,0,1-3.56,2.13,16.81,16.81,0,0,1-4.92.92c-.36,0-.52,0-.52-.24s.14-.24.45-.31a12,12,0,0,0,6.17-3.15,7.14,7.14,0,0,0,2.16-5.57,5.24,5.24,0,0,0-2.11-4.51,7.67,7.67,0,0,0-3.84-1.3,11.08,11.08,0,0,0-1.51,0A3.29,3.29,0,0,1,274.27,33.36Zm-5.83.09a7.34,7.34,0,0,0-2,2.95,6.28,6.28,0,0,0-.41,2.28,4.86,4.86,0,0,0,.6,2.6,1.57,1.57,0,0,0,1.06.79c.38,0,.74-.24,1.66-1.54a28.84,28.84,0,0,0,3.21-5.88,5.5,5.5,0,0,0,.51-2,1.2,1.2,0,0,0-.44-1.08A8.12,8.12,0,0,0,268.44,33.45Z"/><line class="cls-4" x1="30.5" y1="56.36" x2="302.5" y2="56.36"/></g></g></svg>